<svg width="170" height="171" viewBox="0 0 170 171" fill="none" xmlns="http://www.w3.org/2000/svg">
<path d="M85.0006 90.8123C62.5465 90.8123 44.2715 72.5373 44.2715 50.0832C44.2715 27.629 62.5465 9.354 85.0006 9.354C107.455 9.354 125.73 27.629 125.73 50.0832C125.73 72.5373 107.455 90.8123 85.0006 90.8123ZM85.0006 19.979C68.4257 19.979 54.8965 33.5082 54.8965 50.0832C54.8965 66.6582 68.4257 80.1873 85.0006 80.1873C101.576 80.1873 115.105 66.6582 115.105 50.0832C115.105 33.5082 101.576 19.979 85.0006 19.979Z" fill="#E6E4D3"/>
<path d="M145.848 161.646C142.944 161.646 140.535 159.237 140.535 156.333C140.535 131.896 115.602 112.062 85.0021 112.062C54.4021 112.062 29.4688 131.896 29.4688 156.333C29.4688 159.237 27.0604 161.646 24.1563 161.646C21.2521 161.646 18.8438 159.237 18.8438 156.333C18.8438 126.087 48.5229 101.438 85.0021 101.438C121.481 101.438 151.16 126.087 151.16 156.333C151.16 159.237 148.752 161.646 145.848 161.646Z" fill="#E6E4D3"/>
</svg>
