<svg width="50" height="50" viewBox="0 0 50 50" fill="none" xmlns="http://www.w3.org/2000/svg">
<rect width="50" height="50" rx="25" fill="#A83600"/>
<path fill-rule="evenodd" clip-rule="evenodd" d="M33.4361 30.9955C30.918 30.9955 17.0939 30.9955 17.0939 30.9955C17.0939 30.9955 15.1999 30.7977 14.1286 29.6002C12.2956 27.5509 13.2744 24.8277 13.2947 24.7629C13.572 23.877 14.3053 22.5501 14.4066 21.8792C14.5266 21.0844 14.4993 20.1118 14.4993 20.1118V17.3211C14.4993 17.3211 14.4974 16.7762 14.6846 16.4839C14.9107 16.1308 15.3333 16.0188 15.3333 16.0188L23.117 13.135C23.117 13.135 23.4959 12.9455 23.7657 13.135C23.9347 13.2538 24.0437 13.7862 24.0437 13.7862C24.0437 13.7862 23.9144 15.5084 24.1623 17.3624L21.365 20.1705C21.1014 20.4351 21.1014 20.8642 21.365 21.1289C21.6287 21.3936 22.0561 21.3936 22.3199 21.1289L24.4823 18.958C24.667 19.6131 24.921 20.2248 25.2692 20.7163L22.8702 23.1246C22.6065 23.3893 22.6065 23.8184 22.8702 24.083C23.1338 24.3478 23.5613 24.3478 23.8249 24.083L26.2103 21.6885C26.7078 22.1222 27.2054 22.4764 27.6889 22.7522L25.8831 24.5651C25.6194 24.8297 25.6194 25.2589 25.8831 25.5236C26.1468 25.7883 26.5742 25.7883 26.8379 25.5236L29.0234 23.3296C34.0058 24.075 36.7048 24.7682 36.9706 27.5374C37.1337 29.2359 35.8509 30.9955 33.4361 30.9955ZM14.4993 33.9722H15.3966C15.6198 33.9722 15.8603 33.9722 16.0746 33.9722C16.4364 33.9722 16.7232 33.9722 16.7232 33.9722V32.4839H20.1518V33.9722H30.9008V32.4839H35.4414C35.4414 32.4839 35.4766 34.2152 34.2367 35.4606C32.738 36.9661 30.9935 36.949 30.9935 36.949H16.0746H14.4993C13.6804 36.949 13.0167 36.2827 13.0167 35.4606C13.0167 34.6386 13.6804 33.9722 14.4993 33.9722Z" fill="white"/>
</svg>
