<svg id="athletics" xmlns="http://www.w3.org/2000/svg" width="40" height="40" viewBox="0 0 40 40">
  <defs>
    <style>
      .cls-1 {
        fill: #a83600;
      }

      .cls-2 {
        fill: #fff;
        fill-rule: evenodd;
      }
    </style>
  </defs>
  <circle id="Эллипс_1" data-name="Эллипс 1" class="cls-1" cx="20" cy="20" r="20"/>
  <path id="Прямоугольник_2_копия_3" data-name="Прямоугольник 2 копия 3" class="cls-2" d="M1180.81,500.028l-1.96,2.836a0.969,0.969,0,0,1-1.56-.252l-0.87-1.24-0.73,3.261s2.59,2.192,3.32,2.777a2.206,2.206,0,0,1,.6,1.55l0.5,3.993a1,1,0,0,1-.99,1.047,1.176,1.176,0,0,1-1.04-1.047l-0.96-3.691-3.25-2.431-3.19,2.887a1.58,1.58,0,0,1-1.39.172l-4.25-.49a1.054,1.054,0,0,1-1.04-.983,0.964,0.964,0,0,1,.98-1.015l4.48-.031,2.49-3.135,1.02-4.544-1.51-.114-1.27,2.031a0.854,0.854,0,1,1-1.47-.871l1.18-2.513a1.021,1.021,0,0,1,1.06-.752c0.93,0,2.98-.159,2.98-0.159a1.064,1.064,0,0,1,.56.095c0.35,0.14,2.06.857,2.06,0.857a1.2,1.2,0,0,1,.54.412c0.17,0.256.98,1.474,1.16,1.751l1.22-1.422A0.839,0.839,0,1,1,1180.81,500.028Zm-4.2-2.619a2.2,2.2,0,1,1,2.2-2.2A2.2,2.2,0,0,1,1176.61,497.409Z" transform="translate(-1154 -483)"/>
</svg>
