<svg width="50" height="50" viewBox="0 0 50 50" fill="none" xmlns="http://www.w3.org/2000/svg">
<rect width="50" height="50" rx="25" fill="#A83600"/>
<path fill-rule="evenodd" clip-rule="evenodd" d="M27.034 22.5698L24.58 21.4798C24.6301 21.5967 24.7021 21.7029 24.792 21.7928L25.253 22.2538C24.962 23.3888 24.426 24.0938 23.723 24.3678L25.5 26.4998L25.88 26.3098C26.0519 26.2235 26.187 26.0781 26.2604 25.9003C26.3339 25.7226 26.3408 25.5243 26.28 25.3418L25.5 22.9998H26.213C26.3742 22.9995 26.533 22.9603 26.6758 22.8854C26.8185 22.8105 26.9411 22.7023 27.033 22.5698H27.034ZM27.583 21.7218C28.3269 20.7212 29.2948 19.9086 30.4091 19.3491C31.5234 18.7896 32.7531 18.4988 34 18.4998H37C37.0001 18.6501 36.9583 18.7974 36.8794 18.9253C36.8004 19.0532 36.6874 19.1565 36.553 19.2238L35.956 19.5218L35.516 24.8168C35.5117 24.8668 35.4888 24.9134 35.4517 24.9473C35.4147 24.9812 35.3662 25 35.316 24.9998H34.721C34.511 24.9998 34.3064 24.9338 34.136 24.811C33.9657 24.6883 33.8383 24.515 33.772 24.3158L33.285 22.8558C33.105 22.3158 33.185 21.7228 33.5 21.2498L33.664 21.0038C33.757 20.8638 33.832 20.7138 33.887 20.5558L33.658 20.6708C33.4515 20.774 33.2698 20.9206 33.1253 21.1006C32.9808 21.2807 32.877 21.4898 32.821 21.7138L31.568 26.7278C31.5108 26.9565 31.4269 27.1777 31.318 27.3868C31.1772 27.7866 31.1667 28.2207 31.288 28.6268L33.346 35.4848C33.364 35.5446 33.3677 35.6078 33.3568 35.6693C33.346 35.7307 33.3209 35.7888 33.2836 35.8389C33.2462 35.8889 33.1977 35.9296 33.1419 35.9575C33.086 35.9854 33.0244 35.9999 32.962 35.9998H32.254C32.178 35.9998 32.1037 35.9781 32.0396 35.9374C31.9755 35.8967 31.9243 35.8385 31.892 35.7698L28.976 29.5738C28.8951 29.4019 28.7669 29.2567 28.6065 29.1551C28.446 29.0534 28.2599 28.9995 28.07 28.9998H21.156C20.6619 28.9997 20.1853 29.1824 19.818 29.5128L16.714 32.3078C16.5743 32.4332 16.4728 32.5954 16.421 32.7758L15.541 35.8548C15.5291 35.8964 15.5041 35.9329 15.4696 35.9591C15.4352 35.9852 15.3932 35.9995 15.35 35.9998H14.724C14.671 35.9998 14.6201 35.9787 14.5826 35.9412C14.5451 35.9037 14.524 35.8528 14.524 35.7998L14.969 31.7878C14.9899 31.5998 15.0638 31.4215 15.182 31.2738L16.306 29.8688C16.499 29.6278 16.6335 29.3453 16.6991 29.0436C16.7647 28.7419 16.7595 28.4292 16.684 28.1298C16.5564 27.5967 16.4949 27.0499 16.501 26.5018C16.501 25.8798 16.663 25.2968 16.946 24.7918C16.7833 24.852 16.6391 24.9536 16.5276 25.0865C16.416 25.2194 16.3411 25.3791 16.31 25.5498L15.983 27.3498C15.9292 27.6484 15.8141 27.9325 15.6449 28.1843C15.4757 28.4362 15.2561 28.6501 15 28.8128V27.9998L14.38 29.0848C13.9229 29.206 13.4388 29.1762 13 28.9998L14.904 24.4298C15.0745 24.0203 15.3763 23.6791 15.7618 23.4599C16.1474 23.2407 16.5949 23.1559 17.034 23.2188L18.358 23.4088C18.8634 23.1396 19.4274 22.9991 20 22.9998H22.625L22.5 22.4998H22C22.333 21.4998 22.5 20.6668 22.5 19.9998C22.5 18.9998 22 17.9998 23 16.9998H24C25 17.6668 25.5 18.6668 25.5 19.9998C25.5 20.1118 25.499 20.2218 25.496 20.3298L27.583 21.7218ZM21 29.8418V32.2338C20.9999 32.4081 21.0454 32.5795 21.132 32.7308L22.829 35.7008C22.8463 35.7312 22.8554 35.7657 22.8552 35.8007C22.8551 35.8357 22.8457 35.8701 22.8281 35.9004C22.8105 35.9307 22.7852 35.9558 22.7548 35.9732C22.7245 35.9907 22.69 35.9998 22.655 35.9998H22.094C22.0646 35.9998 22.0356 35.9934 22.009 35.981C21.9824 35.9685 21.9588 35.9504 21.94 35.9278L19.646 33.1758C19.5499 33.0599 19.4812 32.9239 19.445 32.7778L19.131 31.5238L21 29.8418ZM28.25 29.9998L26.049 35.8698C26.0347 35.9081 26.009 35.941 25.9754 35.9643C25.9418 35.9875 25.9019 35.9999 25.861 35.9998H25.241C25.2116 35.9999 25.1825 35.9934 25.1558 35.9809C25.1291 35.9685 25.1056 35.9503 25.0867 35.9276C25.0679 35.905 25.0543 35.8785 25.047 35.85C25.0396 35.8215 25.0386 35.7917 25.044 35.7628L26.125 29.9998H28.25ZM24.2 16.5998H23.495C23.169 16.2888 22.826 16.0888 22.467 15.9998C22.366 15.8158 22.3093 15.6109 22.3013 15.4012C22.2933 15.1915 22.3344 14.9828 22.4212 14.7917C22.508 14.6006 22.6381 14.4324 22.8013 14.3004C22.9644 14.1685 23.1561 14.0763 23.3611 14.0314C23.566 13.9864 23.7787 13.9898 23.9821 14.0414C24.1855 14.093 24.3741 14.1913 24.5329 14.3285C24.6917 14.4657 24.8163 14.638 24.8969 14.8318C24.9775 15.0256 25.0117 15.2354 24.997 15.4448L24.6 15.5328V16.1998C24.6 16.3059 24.5579 16.4076 24.4828 16.4826C24.4078 16.5576 24.3061 16.5998 24.2 16.5998Z" fill="white"/>
</svg>
