<svg xmlns="http://www.w3.org/2000/svg" width="40" height="40"><circle cx="20" cy="20" r="20" data-name="Эллипс 1" style="fill:#a83600"/><path d="m1114 294.788-.39-.843a.368.368 0 0 0-.12-.136l-1.21-.739a.3.3 0 0 1-.15-.306l.23-1.436a.255.255 0 0 0-.03-.17l-.54-1.2a.368.368 0 0 0-.12-.136l-1.22-.737a.308.308 0 0 1-.14-.3l.22-1.461a.327.327 0 0 0-.03-.168l-.8-1.758a4.828 4.828 0 0 0 .36-5.163 5.056 5.056 0 0 0-6.7-2.166 4.792 4.792 0 0 0-2.04 6.575 6.12 6.12 0 0 0 .4.636l-.36.622-.75-.432a1.082 1.082 0 0 0-1.06-.017l-1.68.911a1.08 1.08 0 0 0-.41.4l-4.1 7.111a1.085 1.085 0 0 0 .4 1.472l4.91 2.834a1.09 1.09 0 0 0 1.48-.388l4.09-7.1a1.059 1.059 0 0 0 .15-.549l-.05-1.919a1.105 1.105 0 0 0-.55-.92l-.75-.431.16-.261a5.079 5.079 0 0 0 2.65.717l5.41 8.837a1.539 1.539 0 0 0 1.99.58l.08-.04a1.451 1.451 0 0 0 .67-1.919Zm-11.59-5.9a1.419 1.419 0 0 1-1.94.5 1.4 1.4 0 0 1-.54-1.924 1.308 1.308 0 0 1 .91-.653l-.2.348a.954.954 0 0 0 .36 1.314.964.964 0 0 0 1.32-.343l.2-.348a1.319 1.319 0 0 1-.11 1.111Zm3.59-5.872a1.8 1.8 0 0 1-.85.2l.52-.889a.966.966 0 0 0-.37-1.314.952.952 0 0 0-1.31.343l-.52.889a.443.443 0 0 1-.03-.051 1.839 1.839 0 0 1 .78-2.517 1.926 1.926 0 0 1 2.56.826 1.829 1.829 0 0 1-.78 2.518Z" style="fill:#fff;fill-rule:evenodd" transform="translate(-1084 -268)"/></svg>