<svg width="50" height="50" viewBox="0 0 50 50" fill="none" xmlns="http://www.w3.org/2000/svg">
<rect width="50" height="50" rx="25" fill="#A83600"/>
<path fill-rule="evenodd" clip-rule="evenodd" d="M29.06 23C29.125 21.672 29.246 19.977 29.42 17.915C29.4413 17.6651 29.5557 17.4324 29.7406 17.2629C29.9254 17.0934 30.1672 16.9996 30.418 17H30.612C30.8582 17 31.0957 17.0908 31.2791 17.255C31.4625 17.4192 31.5789 17.6453 31.606 17.89C32.1313 22.6154 32.1313 27.3846 31.606 32.11C31.5789 32.3547 31.4625 32.5808 31.2791 32.745C31.0957 32.9092 30.8582 33 30.612 33H30.418C30.1676 32.9999 29.9263 32.9058 29.7419 32.7364C29.5574 32.567 29.4433 32.3345 29.422 32.085C29.2726 30.3922 29.1519 28.6969 29.06 27H20.938C20.871 28.315 20.751 30.01 20.578 32.084C20.5569 32.3339 20.4428 32.5667 20.2581 32.7364C20.0734 32.906 19.8318 33.0001 19.581 33H19.388C19.1418 33 18.9043 32.9092 18.7209 32.745C18.5375 32.5808 18.4211 32.3547 18.394 32.11C17.8686 27.3846 17.8686 22.6154 18.394 17.89C18.4211 17.6451 18.5376 17.4189 18.7212 17.2547C18.9049 17.0904 19.1426 16.9997 19.389 17H19.582C19.8326 17.0001 20.074 17.0943 20.2585 17.264C20.4429 17.4336 20.557 17.6663 20.578 17.916C20.752 19.991 20.872 21.686 20.938 23H29.06ZM14.556 27H14.282C13.836 27 13.675 26.954 13.512 26.866C13.3509 26.7808 13.2192 26.6491 13.134 26.488C13.046 26.326 13 26.164 13 25.718V24.282C13 23.836 13.046 23.675 13.134 23.512C13.2192 23.3509 13.3509 23.2192 13.512 23.134C13.675 23.046 13.836 23 14.282 23H14.556C14.6144 21.949 14.7182 20.901 14.867 19.859C14.901 19.6206 15.0198 19.4025 15.2016 19.2447C15.3835 19.0869 15.6162 19 15.857 19H16C16.2652 19 16.5196 19.1054 16.7071 19.2929C16.8946 19.4804 17 19.7348 17 20V30C17 30.2652 16.8946 30.5196 16.7071 30.7071C16.5196 30.8946 16.2652 31 16 31H15.857C15.6162 31 15.3835 30.9131 15.2016 30.7553C15.0198 30.5975 14.901 30.3794 14.867 30.141C14.7181 29.099 14.6144 28.051 14.556 27ZM35.444 23H35.718C36.164 23 36.326 23.046 36.488 23.134C36.6492 23.2191 36.7809 23.3509 36.866 23.512C36.954 23.674 37 23.836 37 24.282V25.718C37 26.164 36.954 26.325 36.866 26.488C36.7808 26.6491 36.6491 26.7808 36.488 26.866C36.326 26.954 36.164 27 35.718 27H35.444C35.3856 28.051 35.2819 29.099 35.133 30.141C35.099 30.3794 34.9802 30.5975 34.7984 30.7553C34.6165 30.9131 34.3838 31 34.143 31H34C33.7348 31 33.4804 30.8946 33.2929 30.7071C33.1054 30.5196 33 30.2652 33 30V20C33 19.7348 33.1054 19.4804 33.2929 19.2929C33.4804 19.1054 33.7348 19 34 19H34.143C34.3838 19 34.6165 19.0869 34.7984 19.2447C34.9802 19.4025 35.099 19.6206 35.133 19.859C35.2822 20.901 35.3859 21.949 35.444 23Z" fill="white"/>
</svg>
