<svg id="museum" xmlns="http://www.w3.org/2000/svg" width="40" height="40" viewBox="0 0 40 40">
  <defs>
    <style>
      .cls-1 {
        fill: #a83600;
      }

      .cls-2 {
        fill: #fff;
        fill-rule: evenodd;
      }
    </style>
  </defs>
  <circle id="Эллипс_1_копия" data-name="Эллипс 1 копия" class="cls-1" cx="20" cy="20" r="20"/>
  <path id="Layer" class="cls-2" d="M1124.02,494a0.4,0.4,0,0,0-.18.045l-8.24,4.4a0.406,0.406,0,0,0-.21.356v0.8h17.26v-0.8a0.416,0.416,0,0,0-.22-0.356l-8.23-4.4A0.4,0.4,0,0,0,1124.02,494Zm-7.84,6.8v0.56a1.022,1.022,0,0,0,.78,1.012V508h3.14v-5.628a1.022,1.022,0,0,0,.78-1.012V500.8h-4.7Zm5.49,0v0.56a1.022,1.022,0,0,0,.78,1.012V508h3.14v-5.628a1.022,1.022,0,0,0,.78-1.012V500.8h-4.7Zm5.49,0v0.56a1.022,1.022,0,0,0,.78,1.012V508h3.14v-5.628a1.022,1.022,0,0,0,.78-1.012V500.8h-4.7Zm-11.38,8.4a0.811,0.811,0,0,0-.5.18,0.833,0.833,0,0,0-.28.632v1.1a0.848,0.848,0,0,0,.82.888h16.36a0.836,0.836,0,0,0,.82-0.848v-1.1a0.836,0.836,0,0,0-.82-0.848Z" transform="translate(-1104 -483)"/>
</svg>
