<svg width="240" height="58" viewBox="0 0 240 58" fill="none" xmlns="http://www.w3.org/2000/svg">
<g clip-path="url(#clip0_1725_4901)">
<path fill-rule="evenodd" clip-rule="evenodd" d="M155.99 31.7541C155.99 36.1781 155.987 40.6031 155.996 45.0261C155.997 45.2881 155.924 45.4151 155.684 45.5341C153.953 46.3851 152.131 46.9631 150.241 47.3091C148.198 47.6821 146.128 47.8241 144.052 47.7191C141.925 47.6131 139.869 47.1971 137.992 46.1251C135.827 44.8851 134.52 43.0311 133.986 40.6111C133.796 39.7511 133.749 38.8781 133.748 38.0031C133.742 31.4851 133.747 24.9681 133.739 18.4511C133.738 18.1631 133.803 18.0781 134.109 18.0711C135.549 18.0431 136.813 18.4511 137.814 19.5141C138.55 20.2971 138.929 21.2581 139.133 22.2981C139.278 23.0441 139.267 23.7961 139.267 24.5491C139.266 29.2541 139.262 33.9601 139.274 38.6641C139.276 39.4861 139.453 40.2821 139.8 41.0371C140.393 42.3221 141.41 43.1121 142.727 43.5441C144.202 44.0281 145.717 44.0051 147.237 43.8361C148.282 43.7201 149.28 43.4411 150.233 42.9981C150.4 42.9211 150.459 42.8321 150.459 42.6441C150.451 34.6191 150.448 26.5931 150.447 18.5671C150.447 18.0821 150.451 18.0821 150.936 18.0821C152.503 18.0821 154.073 18.0891 155.642 18.0751C155.911 18.0731 155.998 18.1221 155.998 18.4161C155.986 22.8621 155.99 27.3081 155.99 31.7541ZM127.818 46.1631C126.092 47.1311 124.226 47.6491 122.263 47.8791C120.41 48.0951 118.576 48.0081 116.751 47.6661C115.471 47.4251 114.25 47.0241 113.218 46.1951C112.14 45.3301 111.548 44.2251 111.624 42.8131C111.625 42.7801 111.639 42.7481 111.657 42.6781C112.134 42.9151 112.586 43.1611 113.055 43.3701C114.314 43.9281 115.637 44.2451 116.999 44.4321C118.107 44.5851 119.219 44.6521 120.33 44.5541C122.281 44.3791 124.051 43.7711 125.32 42.1721C126.391 40.8211 126.527 38.8801 125.667 37.3971C125.285 36.7401 124.699 36.2791 124.048 35.9041C123.072 35.3401 122.021 34.9561 120.948 34.6301C118.92 34.0121 116.893 33.3941 115.103 32.2051C113.732 31.2951 112.599 30.1681 112.069 28.5811C111.102 25.6921 111.631 22.7741 114.139 20.5801C115.722 19.1971 117.603 18.4601 119.646 18.0831C120.645 17.8991 121.655 17.8051 122.665 17.8281C124.025 17.8571 125.384 17.9501 126.68 18.4201C127.979 18.8941 129.04 19.6231 129.459 21.0321C129.592 21.4811 129.604 21.9381 129.571 22.3981C129.561 22.5311 129.558 22.6871 129.334 22.5571C128.007 21.7871 126.562 21.3451 125.049 21.1601C123.087 20.9171 121.159 21.0001 119.396 22.0481C117.821 22.9861 117.045 24.6501 117.406 26.4331C117.584 27.3171 118.179 27.9611 118.894 28.4901C120.159 29.4241 121.618 29.9401 123.085 30.4411C124.514 30.9311 126.001 31.2711 127.36 31.9381C129.761 33.1131 131.509 34.8861 132.111 37.5731C132.512 39.3671 132.361 41.1211 131.401 42.7371C130.529 44.2071 129.308 45.3301 127.818 46.1631ZM108.958 47.2921C108.463 47.2931 107.968 47.3151 107.474 47.2281C106.333 47.0251 105.68 46.2851 105.279 45.2611C105.223 45.1171 105.173 44.9691 105.108 44.7891C104.632 45.1261 104.191 45.4701 103.711 45.7601C102.076 46.7491 100.308 47.3501 98.415 47.6041C96.966 47.7971 95.514 47.7941 94.065 47.6611C92.046 47.4761 90.139 46.9311 88.474 45.7291C86.764 44.4921 85.727 42.8071 85.262 40.7631C84.756 38.5391 84.88 36.3781 85.971 34.3321C86.92 32.5511 88.36 31.2621 90.125 30.3141C91.452 29.6021 92.87 29.1461 94.365 28.9921C96.372 28.7851 98.328 28.9651 100.068 30.1061C101.347 30.9431 102.229 32.0821 102.508 33.6241C102.533 33.7661 102.582 33.9051 102.615 34.0461C102.646 34.1871 102.671 34.3301 102.709 34.5271C102.415 34.3131 102.248 34.0511 102.06 33.8161C101.138 32.6631 99.923 32.0701 98.472 31.9211C96.219 31.6881 94.271 32.3601 92.665 33.9461C91.657 34.9411 91.119 36.1781 90.975 37.5901C90.83 39.0031 91.005 40.3671 91.629 41.6521C92.302 43.0391 93.421 43.8931 94.922 44.2421C96.417 44.5891 97.899 44.4911 99.339 43.9951C101.136 43.3741 102.195 42.0371 102.76 40.2761C103.202 38.8981 103.348 37.4721 103.377 36.0341C103.417 34.0091 103.457 31.9801 103.298 29.9601C103.151 28.1041 102.853 26.2791 102.04 24.5651C101.258 22.9181 99.941 21.9981 98.196 21.6751C95.749 21.2221 93.369 21.5361 91.056 22.4351C89.759 22.9391 88.569 23.6271 87.46 24.4611C87.437 24.4781 87.405 24.4821 87.329 24.5111C88.801 21.6981 90.864 19.6361 93.928 18.6881C95.558 18.1851 97.224 17.9681 98.918 18.0961C101.569 18.2951 103.828 19.3471 105.621 21.3341C107.244 23.1311 108.137 25.2851 108.649 27.6141C108.948 28.9721 109.124 30.3491 109.138 31.7441C109.191 36.8411 109.099 41.9381 109.125 47.0351C109.125 47.1541 109.159 47.2921 108.958 47.2921Z" fill="#D9DFDE"/>
<path fill-rule="evenodd" clip-rule="evenodd" d="M109.876 19.552C109.934 17.905 110.186 16.337 110.72 14.828C111.097 13.759 111.639 12.775 112.388 11.901C113.152 11.008 114.05 10.335 115.207 10.078C116.182 9.86098 117.085 10.047 117.762 10.821C118.466 11.626 118.386 12.791 117.668 13.654C117.037 14.413 116.195 14.879 115.386 15.397C113.893 16.351 112.443 17.36 111.252 18.696C110.841 19.158 110.454 19.629 110.144 20.163C110.097 20.241 110.053 20.335 109.942 20.304C109.817 20.267 109.878 20.157 109.877 20.075C109.874 19.885 109.876 19.694 109.876 19.552Z" fill="#3ECEF4"/>
</g>
<defs>
<clipPath id="clip0_1725_4901">
<rect width="72" height="38" fill="white" transform="translate(84 10)"/>
</clipPath>
</defs>
</svg>
