<svg width="240" height="58" viewBox="0 0 240 58" fill="none" xmlns="http://www.w3.org/2000/svg">
<path fill-rule="evenodd" clip-rule="evenodd" d="M172.765 30.7802C172.765 29.3061 174.033 28.1125 175.595 28.1125H184V41.7489H180.279L179.716 38.8801C177.65 41.253 175.132 42.3509 171.675 42.3509C164.237 42.3509 159.089 37.003 159.089 29.2458C159.089 21.4542 164.499 16 172.239 16C178.326 16 182.947 19.5053 183.661 24.8178H179.947C178.928 24.8178 177.951 24.3114 177.508 23.4461C176.587 21.6437 174.697 20.6386 172.163 20.6386C167.693 20.6386 164.988 23.8615 164.988 29.2458C164.988 34.7364 167.693 37.9229 172.353 37.9229C176.034 37.9229 178.589 35.6218 178.739 32.2218H172.765V30.7802ZM148.358 24.8178C153.672 24.8178 157.2 28.2197 157.2 33.3771C157.2 38.8724 152.839 42.797 146.732 42.797C141.102 42.797 136.938 39.9943 136.621 34.6493H140.828C141.556 34.6493 142.184 35.0963 142.426 35.7433C143.049 37.4175 144.658 38.4991 146.732 38.4991C149.547 38.4991 151.531 36.4431 151.531 33.4901C151.531 30.5371 149.626 28.6677 146.693 28.6677C144.829 28.6677 143.598 29.3042 142.53 30.8357H137.494L140.726 16.4441H145.054H145.696H155.61C155.61 20.4223 154.97 21.0349 151.622 21.0617L144.584 21.0646L143.242 26.6499C144.59 25.3778 146.137 24.8178 148.358 24.8178ZM124.026 36.9264V17.8742C128.245 17.8742 128.897 18.4773 128.923 21.6341L128.928 41.254C124.687 41.254 124.063 40.1369 124.026 36.9264ZM114.506 36.9264V17.8742C118.723 17.8742 119.37 18.4773 119.405 21.6341L119.41 41.254C115.167 41.254 114.539 40.1369 114.506 36.9264ZM98.4859 33.8481C98.5674 34.9335 98.6266 38.1335 102.901 38.1335C105.009 38.1335 106.06 37.0001 106.267 36.7838C106.756 36.2124 107.279 35.9415 107.999 35.9415H111.132C110.439 37.9736 108.734 41.6053 102.724 41.6053C96.109 41.6053 93.5487 36.936 93.5487 32.7272C93.5487 27.8512 97.0446 23.7888 102.725 23.7888C109.061 23.7888 111.812 28.9405 111.444 33.8481H98.4859ZM102.592 27.296C98.7741 27.296 98.4859 30.5582 98.4859 30.9008H106.514C106.035 28.6457 105.116 27.296 102.592 27.296ZM82.9505 38.1354C84.8605 38.1354 85.9844 37.3581 86.6007 35.7721C87.0267 34.6569 88.1545 34.6923 88.1545 34.6923H91.6387C90.9526 39.5367 87.3654 41.6072 82.9873 41.6072C77.9765 41.6072 73.9245 38.4388 73.9245 32.9282C73.9245 28.011 76.905 23.7897 83.0873 23.7897C87.2829 23.7897 91.2738 25.841 91.5358 30.2097H88.0662C86.9811 30.2097 86.6269 29.7005 86.3968 29.131C85.963 28.0991 84.9566 27.295 83.0582 27.295C80.0185 27.295 78.8558 30.1303 78.8558 32.7272C78.8558 35.4648 79.9855 38.1354 82.9505 38.1354ZM74.8736 41.253H72.2415C68.6108 41.253 67.6334 40.716 65.6021 37.8415C63.5727 34.9651 60.5572 30.741 60.5572 30.741L57.4311 33.7255V41.253H52V17.8656C56.8139 17.8656 57.4273 19.0315 57.4311 22.4171V27.565C57.4311 27.565 62.9496 22.0294 65.0033 20.0002C67.0463 17.9623 68.7107 17.8733 71.2797 17.8733H73.9351L64.2472 27.1046L74.8736 41.253Z" fill="white"/>
</svg>
