<svg width="240" height="70" viewBox="0 0 240 70" fill="none" xmlns="http://www.w3.org/2000/svg">
<path fill-rule="evenodd" clip-rule="evenodd" d="M25.0005 27.2539H215V67.5199H25.0005V27.2539Z" fill="#FEFEFE"/>
<path fill-rule="evenodd" clip-rule="evenodd" d="M25 67.5203V27.2544H215V67.5203H25ZM65.5099 39.0039L52.402 34.998L39.2942 39.0051L39.2923 40.1921L52.4 36.1831L65.5099 40.1926V39.0039ZM63.1155 42.6693C62.1553 42.6693 62.1553 43.494 62.1553 43.494V53.3315C62.1553 53.3315 62.1553 54.1554 63.0618 54.1554C64.0233 54.1554 64.0233 53.3315 64.0233 53.3315V43.494C64.0233 43.494 64.0785 42.6693 63.1155 42.6693ZM39.2928 54.7558V55.8546H65.508V54.7558H39.2928ZM58.7206 53.5513C58.5143 53.5513 58.4733 53.3315 58.4733 53.3315V43.494C58.4733 43.494 58.4733 43.2464 58.7206 43.2464C58.9403 43.2464 58.9403 43.494 58.9403 43.494V46.0766H59.6271V43.494C59.6271 43.494 59.5997 42.6693 58.7206 42.6693C57.8422 42.6693 57.8422 43.494 57.8422 43.494V53.3315C57.8422 53.3315 57.8131 54.1554 58.7206 54.1554C59.6271 54.1554 59.6271 53.3315 59.6271 53.3315V50.4461H58.9403V53.3315C58.9403 53.3315 58.9403 53.5513 58.7206 53.5513ZM54.4205 53.5378C54.2409 53.5239 54.2409 53.3315 54.2409 53.3315V50.4461H53.5275V53.3315C53.5275 53.3315 53.5001 54.1554 54.4059 54.1554C55.3136 54.1554 55.3136 53.3315 55.3136 53.3315C55.3136 53.3315 55.3136 51.4076 55.3121 50.8466C55.3102 49.499 54.2409 46.9291 54.2409 46.0785V43.494C54.2409 43.494 54.2135 43.2464 54.4059 43.2464C54.5987 43.2464 54.5987 43.494 54.5987 43.494V46.0766H55.3136V43.494C55.3136 43.494 55.3402 42.6422 54.4337 42.6693C53.5275 42.6967 53.5275 43.494 53.5275 43.494V45.6919C53.5275 47.1346 54.5987 49.5669 54.5987 50.6797V53.3315C54.5987 53.3315 54.5987 53.5513 54.4205 53.5378ZM51.0265 48.3579V47.7256H50.2845V43.2464H51.0265V42.6693H49.5153V54.1554H51.2733V53.5513H50.2845V48.3579H51.0265ZM45.6955 42.6693H45.1463V54.1554H45.6955V47.2501L46.3823 54.1554H46.9591V42.6693H46.3823V48.8084L45.6955 42.6693ZM41.7105 53.5513C41.4629 53.5513 41.5188 53.3042 41.5188 53.3042V42.6693H40.8321V53.3315C40.8321 53.3315 40.8321 54.1554 41.7652 54.1554C42.7001 54.1554 42.6455 53.3315 42.6455 53.3315V42.6693H41.9576V53.3589C41.9576 53.3589 41.9576 53.5513 41.7105 53.5513ZM65.5073 41.9979V40.8991H39.2923V41.9979H65.5073ZM63.3739 40.1914L52.4 36.837L41.4204 40.1914H44.5959L52.4 37.8556L60.2022 40.1914H63.3739ZM66.9373 56.6245H37.8088V57.7226H66.9373V56.6245ZM68.3668 58.4944H36.4352V59.5918H68.3668V58.4944ZM214.161 28.0929H80.1219V66.6811H214.161V28.0929ZM97.5268 48.2409C97.5268 48.9933 97.6015 50.1598 98.4674 50.9494C98.8432 51.287 99.5204 51.739 100.724 51.739C101.739 51.739 102.529 51.4006 103.018 50.9494C103.809 50.1973 103.921 49.0687 103.921 48.2409V38.9874H109.338V48.7673C109.338 50.686 109.149 52.4911 107.458 54.1458C105.539 56.0266 102.718 56.3282 100.724 56.3282C98.6552 56.3282 95.872 56.0266 93.9531 54.1458C92.4115 52.6421 92.1098 50.9494 92.1098 49.1054V38.9874H97.5268V48.2409ZM118.967 40.9817C120.622 38.8742 122.577 38.5361 124.158 38.5361C125.623 38.5361 127.544 38.7993 128.973 40.2288C130.553 41.8087 130.665 43.8018 130.665 45.1562V55.7638H125.248V47.1493C125.248 46.0588 125.211 44.6675 124.346 43.8018C123.932 43.3893 123.255 43.0495 122.277 43.0495C121.148 43.0495 120.434 43.5014 120.02 43.9528C119.117 44.8553 118.967 46.0588 118.967 47.1493V55.7638H113.55V38.9874H118.967V40.9817ZM143.04 38.4228C144.92 38.4228 147.629 38.7616 149.697 40.9432C151.691 43.0499 152.068 45.6835 152.068 47.7513V48.3156H139.541C139.541 49.2188 139.88 50.4228 140.557 51.1751C141.385 52.0771 142.514 52.2281 143.341 52.2281C144.13 52.2281 144.959 52.0771 145.522 51.7394C145.596 51.7013 146.237 51.2868 146.688 50.3474L151.804 50.8735C151.051 53.2424 149.547 54.4839 148.569 55.0869C146.952 56.0643 145.146 56.3277 143.266 56.3277C140.745 56.3277 138.526 55.8765 136.57 53.9203C135.104 52.4534 134.05 50.2343 134.05 47.4504C134.05 45.0431 134.914 42.5613 136.607 40.8309C138.638 38.7991 141.159 38.4228 143.04 38.4228ZM147.065 45.081C147.026 44.9307 146.763 43.8777 145.974 43.1249C145.372 42.5613 144.507 42.1847 143.415 42.1847C142.024 42.1847 141.196 42.7491 140.67 43.2752C140.256 43.7271 139.88 44.3289 139.73 45.081H147.065ZM158.612 51.5125C159.364 51.889 160.154 52.0401 160.868 52.0401C161.207 52.0401 162.072 52.0401 162.561 51.6636C162.9 51.4004 163.125 50.9864 163.125 50.5738C163.125 50.2717 163.013 49.8959 162.524 49.5958C162.147 49.3686 161.659 49.2188 160.868 48.9933L159.515 48.5795C158.536 48.2781 157.521 47.7518 156.806 47.0379C156.017 46.2089 155.603 45.2688 155.603 43.9898C155.603 42.3732 156.242 41.0186 157.219 40.1155C158.724 38.7242 160.756 38.4233 162.298 38.4233C164.781 38.4233 166.511 39.0625 167.865 39.8526L165.72 43.2757C164.893 42.7863 163.803 42.3351 162.749 42.3351C162.186 42.3351 161.546 42.4854 161.207 42.8233C161.019 43.0122 160.868 43.3126 160.868 43.5766C160.868 43.9531 161.132 44.1776 161.395 44.3282C161.77 44.5541 162.335 44.667 163.013 44.893L164.442 45.3444C165.383 45.6446 166.361 46.0209 167.225 46.8112C168.203 47.7143 168.542 48.7294 168.542 50.009C168.542 52.2279 167.564 53.6567 166.812 54.4102C165.156 56.065 163.125 56.327 161.358 56.327C159.1 56.327 156.656 55.839 154.473 53.9208L156.768 50.2717C157.295 50.723 158.047 51.2498 158.612 51.5125ZM179.587 38.4238C181.449 38.4238 183.237 38.9924 184.756 40.0684L184.832 40.1222L182.821 44.3966L182.71 44.2862C181.877 43.4654 180.777 43.0134 179.61 43.0134C177.175 43.0134 175.194 44.995 175.194 47.4281C175.194 49.8628 177.175 51.8425 179.61 51.8425C180.786 51.8425 181.894 51.3862 182.727 50.5553L182.84 50.441L184.823 54.6588L184.746 54.7135C183.229 55.7835 181.445 56.3517 179.587 56.3517C174.644 56.3517 170.623 52.3299 170.623 47.3868C170.623 42.4448 174.644 38.4238 179.587 38.4238ZM195.428 38.4547C200.363 38.4547 204.377 42.4688 204.377 47.4026C204.377 52.3376 200.363 56.3515 195.428 56.3515C190.494 56.3515 186.48 52.3376 186.48 47.4026C186.48 42.4688 190.494 38.4547 195.428 38.4547ZM195.452 51.8521C197.882 51.8521 199.859 49.8741 199.859 47.4439C199.859 45.014 197.882 43.0363 195.452 43.0363C193.021 43.0363 191.043 45.014 191.043 47.4439C191.043 49.8741 193.021 51.8521 195.452 51.8521ZM63.1163 53.5513C62.842 53.5513 62.842 53.3311 62.842 53.3311V43.494C62.842 43.494 62.842 43.2459 63.0891 43.2459C63.3638 43.2459 63.3638 43.494 63.3638 43.494V53.3311C63.3638 53.3311 63.3912 53.5513 63.1163 53.5513Z" fill="#0077D4"/>
<path fill-rule="evenodd" clip-rule="evenodd" d="M142.584 3.40567C142.546 3.51287 142.469 3.62007 142.34 3.72787C142.224 3.82134 142.108 3.82134 141.992 3.68726C141.734 3.44598 141.373 3.19067 140.948 3.19067C140.613 3.19067 140.407 3.35192 140.265 3.5932C140.098 3.84821 139.956 4.49261 139.969 5.63271V6.16901H141.489C141.566 6.28995 141.502 6.61215 141.36 6.69248H139.969V10.5562C139.969 11.5491 140.059 11.59 141.077 11.6969V12.0322H138.036V11.6832C138.861 11.6031 138.951 11.5359 138.951 10.6503V6.69248H138.048L137.997 6.5584L138.345 6.16901H138.951V5.87458C138.951 5.45832 139.002 5.06923 139.092 4.7739C139.183 4.47858 139.389 3.82134 140.085 3.20471C140.536 2.78844 141 2.54717 141.502 2.47998C141.94 2.49312 142.314 2.68124 142.52 2.93626C142.636 3.08347 142.649 3.25786 142.584 3.40567ZM134.726 12.1935C132.961 12.1935 131.905 10.7174 131.905 9.22827C131.905 7.01468 133.554 6.00866 134.726 6.00866C136.324 6.00866 137.523 7.33688 137.523 9.00014C137.523 11.1606 136.002 12.1935 134.726 12.1935ZM136.324 9.29516C136.324 7.72597 135.718 6.4512 134.598 6.4512C133.798 6.4512 133.102 7.28283 133.102 8.79887C133.102 10.4893 133.811 11.7503 134.868 11.7503C135.667 11.7503 136.324 11.1337 136.324 9.29516ZM124.756 8.70481C124.769 10.5302 125.774 11.2809 126.676 11.2809C127.191 11.2809 127.682 11.0665 128.145 10.6102L128.351 10.8915C127.54 11.9522 126.65 12.1935 126.251 12.1935C124.665 12.1935 123.738 10.8515 123.738 9.33548C123.738 8.40978 124.06 7.59189 124.588 6.9875C125.116 6.37087 125.812 6.00866 126.483 6.00866C127.552 6.00866 128.415 7.00154 128.415 8.04727C128.415 8.31572 128.351 8.42352 128.119 8.47667C127.9 8.51758 126.289 8.65166 124.756 8.70481ZM126.173 6.50495C125.58 6.50495 125.014 7.06843 124.82 8.15537C125.542 8.15537 126.251 8.14133 126.998 8.11446C127.23 8.11446 127.308 8.03443 127.308 7.84631C127.32 7.14875 126.882 6.50495 126.173 6.50495ZM122.285 6.90748C122.53 7.2025 122.672 7.61817 122.672 8.10132C122.672 9.55048 121.511 10.248 120.416 10.248C120.197 10.248 119.965 10.208 119.759 10.1808C119.578 10.3021 119.372 10.5431 119.372 10.7312C119.372 10.9996 119.605 11.2537 120.184 11.2537C120.648 11.2537 121.112 11.2406 121.537 11.2406C122.336 11.2406 123.393 11.5091 123.393 12.8238C123.393 14.1789 121.885 15.48 120.171 15.48C118.74 15.48 117.955 14.6083 117.942 13.8436C117.942 13.5486 118.058 13.2933 118.251 13.0923C118.509 12.8238 119.012 12.3947 119.321 12.1535C118.857 12.0054 118.535 11.6969 118.367 11.415C118.251 11.2137 118.212 10.9856 118.226 10.8515C118.74 10.6503 119.153 10.3021 119.359 10.033C118.78 9.77861 118.226 9.14795 118.226 8.2354C118.226 6.70621 119.54 6.00866 120.532 6.00866C120.97 6.00866 121.395 6.129 121.769 6.344C122.401 6.31712 123.058 6.2368 123.522 6.15587L123.599 6.26307C123.483 6.47807 123.226 6.82655 123.019 6.94749L122.285 6.90748ZM118.96 13.5214C118.96 14.2461 119.707 14.7965 120.661 14.7965C121.885 14.7965 122.517 14.1389 122.517 13.3073C122.517 12.851 122.298 12.5157 121.924 12.3544C121.602 12.2203 121.228 12.1794 120.687 12.1794C120.068 12.1794 119.785 12.2604 119.553 12.4748C119.218 12.757 118.96 13.1323 118.96 13.5214ZM120.403 6.41119C119.837 6.41119 119.333 6.97436 119.333 8.02129C119.333 9.06703 119.823 9.81863 120.545 9.81863C121.112 9.80549 121.615 9.28232 121.615 8.22226C121.615 7.16249 121.138 6.41119 120.403 6.41119ZM115.856 11.9382C115.689 11.7503 115.612 11.5628 115.547 11.3347C115.032 11.6969 114.413 12.1935 114.026 12.1935C113.112 12.1935 112.48 11.4019 112.48 10.5562C112.48 9.89895 112.816 9.48329 113.524 9.22827C114.297 8.96012 115.238 8.59761 115.522 8.35663V8.11446C115.522 7.14875 115.083 6.59841 114.439 6.59841C114.181 6.59841 113.988 6.70621 113.859 6.86746C113.692 7.04155 113.576 7.33688 113.472 7.75224C113.421 7.96724 113.28 8.06131 113.099 8.06131C112.867 8.06131 112.532 7.79315 112.532 7.48409C112.532 7.28283 112.699 7.13561 112.944 6.94749C113.305 6.67934 114.143 6.15587 114.877 6.00866C115.264 6.00866 115.65 6.129 115.934 6.37087C116.385 6.75936 116.514 7.3097 116.514 8.00726V10.503C116.514 11.1065 116.746 11.3078 116.964 11.3078C117.119 11.3078 117.3 11.2406 117.429 11.1606L117.557 11.5091L116.462 12.1935C116.268 12.1935 115.998 12.0725 115.856 11.9382ZM115.522 8.81291C115.251 8.96012 114.632 9.24141 114.362 9.37609C113.859 9.61736 113.576 9.87268 113.576 10.3552C113.576 11.0528 114.091 11.3887 114.491 11.3887C114.826 11.375 115.277 11.1468 115.522 10.9056V8.81291ZM109.21 11.6832C109.97 11.6031 110.061 11.4959 110.061 10.5702V8.32946C110.061 7.40377 109.752 6.80027 108.888 6.80027C108.373 6.80027 107.87 7.13561 107.483 7.48409V10.6371C107.483 11.5491 107.56 11.6031 108.321 11.6832V12.0322H105.525V11.6832C106.401 11.59 106.465 11.5228 106.465 10.6371V7.86004C106.465 7.00154 106.388 6.96063 105.692 6.82655V6.51809C106.311 6.39715 106.916 6.2368 107.483 5.96775V7.04155C107.741 6.84029 108.024 6.63932 108.347 6.41119C108.707 6.16901 109.043 6.00866 109.417 6.00866C110.434 6.00866 111.079 6.74623 111.079 8.04727V10.6371C111.079 11.5491 111.143 11.6031 111.891 11.6832V12.0322H109.21V11.6832ZM102.241 12.1935C100.476 12.1935 99.4194 10.7174 99.4194 9.22827C99.4194 7.01468 101.069 6.00866 102.241 6.00866C103.839 6.00866 105.038 7.33688 105.038 9.00014C105.038 11.1606 103.517 12.1935 102.241 12.1935ZM103.839 9.29516C103.839 7.72597 103.233 6.4512 102.113 6.4512C101.313 6.4512 100.617 7.28283 100.617 8.79887C100.617 10.4893 101.326 11.7503 102.383 11.7503C103.182 11.7503 103.839 11.1337 103.839 9.29516ZM98.3518 7.3097C98.1715 7.10874 98.0165 7.02782 97.8107 7.02782C97.4754 7.02782 97.063 7.43064 96.7796 8.18165V10.6371C96.7796 11.5228 96.8441 11.6031 97.8361 11.6832V12.0322H94.8727V11.6832C95.6712 11.6031 95.7614 11.5228 95.7614 10.6371V7.86004C95.7614 6.97436 95.6972 6.92061 94.9629 6.81341V6.51809C95.5941 6.41118 96.1612 6.24994 96.7796 5.96775V7.43064H96.8056C97.1917 6.75936 97.7459 6.00866 98.3641 6.00866C98.8027 6.00866 99.1118 6.35714 99.1118 6.67934C99.1118 6.94749 98.9446 7.21564 98.6994 7.33688C98.5453 7.40377 98.4289 7.39003 98.3518 7.3097ZM92.8762 12.1935C92.0646 12.1935 91.6137 11.6569 91.6137 10.5971V6.69248H90.7241L90.6728 6.5584L91.0209 6.16901H91.6137V5.19017L92.4507 4.30449L92.631 4.33136V6.16901H94.088C94.2035 6.30398 94.165 6.59841 94.01 6.69248H92.631V10.1408C92.631 11.2278 93.0566 11.4287 93.3788 11.4287C93.701 11.4287 93.9978 11.2947 94.1781 11.2006L94.2937 11.5491L93.4173 12.0191C93.1984 12.1394 92.9927 12.1935 92.8762 12.1935ZM89.6058 12.1935C89.4123 12.1935 89.1418 12.0725 88.9999 11.9382C88.8327 11.7503 88.7557 11.5628 88.6909 11.3347C88.1752 11.6969 87.5571 12.1935 87.1701 12.1935C86.2554 12.1935 85.6241 11.4019 85.6241 10.5562C85.6241 9.89895 85.9592 9.48329 86.6678 9.22827C87.4409 8.96012 88.3818 8.59761 88.6655 8.35663V8.11446C88.6655 7.14875 88.2268 6.59841 87.5824 6.59841C87.325 6.59841 87.1315 6.70621 87.0028 6.86746C86.8356 7.04155 86.7192 7.33688 86.6161 7.75224C86.5651 7.96724 86.4232 8.06131 86.2429 8.06131C86.0109 8.06131 85.6758 7.79315 85.6758 7.48409C85.6758 7.28283 85.843 7.13561 86.0879 6.94749C86.4486 6.67934 87.2865 6.15587 88.0211 6.00866C88.4072 6.00866 88.7942 6.129 89.0779 6.37087C89.5288 6.75936 89.6575 7.3097 89.6575 8.00726V10.503C89.6575 11.1065 89.8895 11.3078 90.1084 11.3078C90.2634 11.3078 90.4437 11.2406 90.5724 11.1606L90.7011 11.5091L89.6058 12.1935ZM88.6655 8.81291C88.395 8.96012 87.7759 9.24141 87.5054 9.37609C87.0028 9.61736 86.7192 9.87268 86.7192 10.3552C86.7192 11.0528 87.2349 11.3887 87.6341 11.3887C87.9694 11.375 88.4203 11.1468 88.6655 10.9056V8.81291ZM80.7681 11.9522V13.7095C80.7681 14.7293 80.8583 14.7965 81.864 14.8902V15.2518H78.8096V14.8902C79.6343 14.8093 79.7508 14.7293 79.7508 13.8436V7.77912C79.7508 6.90748 79.6991 6.8803 78.8997 6.7734V6.4512C79.4408 6.35714 80.1632 6.129 80.7681 5.87458V6.93435L81.9542 6.20992C82.1862 6.07585 82.4308 6.00866 82.5855 6.00866C84.0161 6.00866 84.8663 7.21564 84.8663 8.54386C84.8663 10.5702 83.3326 11.8713 81.6577 12.1935C81.2839 12.1794 80.9363 12.0454 80.7681 11.9522ZM81.9799 11.5359C83.0621 11.5359 83.7841 10.5702 83.7841 9.05419C83.7841 7.61817 82.9979 6.81341 82.0569 6.81341C81.6446 6.81341 81.1166 7.10874 80.7681 7.37689V11.0125C81.0518 11.3209 81.5418 11.5359 81.9799 11.5359ZM71.9188 8.70481C71.932 10.5302 72.9371 11.2809 73.8389 11.2809C74.3546 11.2809 74.8446 11.0665 75.3081 10.6102L75.5144 10.8915C74.7028 11.9522 73.8135 12.1935 73.4143 12.1935C71.8287 12.1935 70.9015 10.8515 70.9015 9.33548C70.9015 8.40978 71.2237 7.59189 71.7516 6.9875C72.2796 6.37087 72.9756 6.00866 73.646 6.00866C74.7153 6.00866 75.5786 7.00154 75.5786 8.04727C75.5786 8.31572 75.5144 8.42352 75.2824 8.47667C75.0635 8.51758 73.4528 8.65166 71.9188 8.70481ZM73.3363 6.50495C72.7436 6.50495 72.1771 7.06843 71.9836 8.15537C72.7051 8.15537 73.4143 8.14133 74.1611 8.11446C74.3931 8.11446 74.4708 8.03443 74.4708 7.84631C74.4833 7.14875 74.0455 6.50495 73.3363 6.50495ZM67.7467 11.6832C68.4944 11.6031 68.5968 11.5228 68.5968 10.6503V8.42352C68.5968 7.32284 68.1975 6.7734 67.3343 6.7734C66.8448 6.7734 66.3545 7.02782 65.9938 7.45692V10.6503C65.9938 11.5091 66.0586 11.6031 66.8186 11.6832V12.0322H64.0869V11.6832C64.86 11.616 64.9764 11.5359 64.9764 10.6503V4.25044C64.9764 3.40567 64.9502 3.33878 64.1 3.25786V2.9494C64.7181 2.85533 65.4912 2.64123 65.9938 2.47998V6.9875C66.4447 6.50495 67.1408 6.00866 67.8368 6.00866C68.8805 6.00866 69.6151 6.69248 69.6151 8.30258V10.6503C69.6151 11.5359 69.7052 11.616 70.4658 11.6832V12.0322H67.7467V11.6832ZM62.1946 12.1935C61.383 12.1935 60.9321 11.6569 60.9321 10.5971V6.69248H60.0428L59.9911 6.5584L60.3393 6.16901H60.9321V5.19017L61.7694 4.30449L61.9497 4.33136V6.16901H63.4063C63.5219 6.30398 63.4834 6.59841 63.3284 6.69248H61.9497V10.1408C61.9497 11.2278 62.3749 11.4287 62.6971 11.4287C63.0193 11.4287 63.3162 11.2947 63.4965 11.2006L63.6121 11.5491L62.7357 12.0191C62.5168 12.1394 62.311 12.1935 62.1946 12.1935ZM56.2066 7.3097C56.0262 7.10874 55.8712 7.02782 55.6655 7.02782C55.3301 7.02782 54.9178 7.43064 54.6341 8.18165V10.6371C54.6341 11.5228 54.6989 11.6031 55.6909 11.6832V12.0322H52.7271V11.6832C53.5256 11.6031 53.6158 11.5228 53.6158 10.6371V7.86004C53.6158 6.97436 53.5519 6.92061 52.8173 6.81341V6.51809C53.4486 6.41118 54.0159 6.24994 54.6341 5.96775V7.43064H54.6603C55.0465 6.75936 55.6007 6.00866 56.2197 6.00866C56.6575 6.00866 56.9665 6.35714 56.9665 6.67934C56.9665 6.94749 56.7993 7.21564 56.5541 7.33688C56.4001 7.40377 56.2836 7.39003 56.2066 7.3097ZM48.5666 8.70481C48.5797 10.5302 49.5849 11.2809 50.4867 11.2809C51.0024 11.2809 51.4924 11.0665 51.9558 10.6102L52.1622 10.8915C51.3506 11.9522 50.4613 12.1935 50.0618 12.1935C48.4764 12.1935 47.5492 10.8515 47.5492 9.33548C47.5492 8.40978 47.8714 7.59189 48.3994 6.9875C48.9282 6.37087 49.6234 6.00866 50.2938 6.00866C51.3631 6.00866 52.227 7.00154 52.227 8.04727C52.227 8.31572 52.1622 8.42352 51.9302 8.47667C51.7113 8.51758 50.1006 8.65166 48.5666 8.70481ZM49.9841 6.50495C49.3914 6.50495 48.8249 7.06843 48.6314 8.15537C49.3528 8.15537 50.0618 8.14133 50.8089 8.11446C51.0409 8.11446 51.1185 8.03443 51.1185 7.84631C51.1311 7.14875 50.6933 6.50495 49.9841 6.50495ZM45.1544 11.3209L44.3681 11.8041C43.8656 12.1126 43.518 12.1935 43.363 12.1935C42.3325 12.1935 40.9789 11.2137 40.9789 9.33548C40.9789 7.47095 42.5514 6.00866 44.3042 6.00866C44.4846 6.00866 44.8585 6.04867 45.1544 6.15587V4.26448C45.1544 3.3788 45.0905 3.33878 44.1624 3.2716V2.9494C44.8322 2.85533 45.6955 2.65437 46.1726 2.47998V10.4893C46.1726 11.1869 46.2628 11.2537 46.7397 11.3078L47.1521 11.3478V11.6832C46.8687 11.7372 45.9021 11.9113 45.1544 12.1935V11.3209ZM45.1544 7.18877C44.8453 6.71935 44.3165 6.50495 43.8271 6.50495C43.2343 6.50495 42.1522 7.02782 42.1522 8.97326C42.1522 10.5702 43.0925 11.3478 43.9172 11.3478C44.3813 11.3478 44.8453 11.1337 45.1544 10.8915V7.18877ZM37.8381 11.6832C38.599 11.6031 38.6892 11.4959 38.6892 10.5702V8.32946C38.6892 7.40377 38.3801 6.80027 37.5159 6.80027C37.0011 6.80027 36.4986 7.13561 36.1116 7.48409V10.6371C36.1116 11.5491 36.1886 11.6031 36.9495 11.6832V12.0322H34.153V11.6832C35.0294 11.59 35.0933 11.5228 35.0933 10.6371V7.86004C35.0933 7.00154 35.0163 6.96063 34.3202 6.82655V6.51809C34.9392 6.39715 35.5442 6.2368 36.1116 5.96775V7.04155C36.369 6.84029 36.6527 6.63932 36.9749 6.41119C37.3356 6.16901 37.6709 6.00866 38.0448 6.00866C39.063 6.00866 39.7071 6.74623 39.7071 8.04727V10.6371C39.7071 11.5491 39.7713 11.6031 40.5188 11.6832V12.0322H37.8381V11.6832ZM33.0093 4.47858C32.9708 4.84109 32.9451 5.41831 32.9451 6.65216V7.76598C32.9451 9.34921 32.7131 10.4893 31.9657 11.3078C31.3729 11.9522 30.5096 12.2335 29.6586 12.2335C28.9118 12.2335 28.1641 12.0454 27.5976 11.59C26.8236 10.9725 26.4629 9.96584 26.4629 8.39665V5.04206C26.4629 3.83507 26.3599 3.78103 25.3422 3.68726V3.31161H28.6798V3.68726C27.6615 3.75415 27.5582 3.83507 27.5582 5.04206V8.10132C27.5582 10.2612 28.3829 11.4959 29.9808 11.4959C31.837 11.4959 32.4166 9.88581 32.4166 7.67192V6.65216C32.4166 5.41831 32.378 4.85483 32.3264 4.43857C32.2493 3.9154 31.9788 3.75415 31.077 3.68726V3.31161H34.1437V3.68726C33.3706 3.74101 33.0738 3.92914 33.0093 4.47858Z" fill="white"/>
</svg>
