<svg width="260" height="70" viewBox="0 0 260 70" fill="none" xmlns="http://www.w3.org/2000/svg">
<path fill-rule="evenodd" clip-rule="evenodd" d="M146.563 19.7285C146.581 18.1072 146.374 16.5124 145.894 14.9675C145.535 13.8103 145.318 12.6025 144.636 11.5515C144.234 10.9311 143.954 10.2327 143.599 9.57946C143.394 9.20264 143.179 8.82363 142.915 8.48766C142.411 7.84683 141.905 7.20186 141.335 6.62229C140.515 5.78916 139.696 4.93683 138.77 4.23279C137.77 3.47235 136.681 2.80939 135.568 2.22204C134.599 1.71055 133.56 1.31015 132.519 0.959342C131.646 0.664696 130.731 0.47653 129.823 0.306355C128.996 0.151495 128.151 -0.0104147 127.316 0.000525144C125.97 0.0172996 124.618 0.109437 123.284 0.28642C121.35 0.543142 119.481 1.10691 117.745 1.99182C116.487 2.63265 115.273 3.36149 114.15 4.25248C112.906 5.2395 111.747 6.29823 110.8 7.56434C110.064 8.54941 109.433 9.61276 108.751 10.6394C108.6 10.867 108.351 11.1266 108.605 11.3571C108.746 11.4854 109.08 11.4679 109.309 11.4225C110.634 11.1589 111.954 10.8694 113.275 10.5849C117.647 9.64437 122.019 8.70184 126.39 7.76077C127.051 7.61879 127.712 7.4773 128.374 7.34214C128.801 7.2551 129.128 7.39124 129.132 7.67033C129.144 8.50541 129.08 9.33708 128.749 10.1143C128.366 11.0104 127.795 11.7273 126.94 12.266C126.406 12.602 125.883 12.8901 125.278 13.026C124.297 13.246 123.31 13.4456 122.326 13.6564C113.89 15.4651 105.456 17.2765 97.0197 19.0828C95.1078 19.4919 94.0956 19.7239 92.1855 20.1415C91.8178 20.2222 91.4547 20.3226 91.092 20.4272L90.9515 20.4573C90.9911 20.4488 91.0336 20.4405 91.0772 20.4315C93.5673 19.9164 100.786 18.5628 104.541 19.9723C105.386 20.2896 106.01 20.7537 106.299 21.4105L106.301 21.4101C106.417 21.7258 106.603 21.8355 106.928 21.7635C107.559 21.6233 108.194 21.4961 108.826 21.3626C113.44 20.3856 118.054 19.4064 122.668 18.4322C123.181 18.3238 123.382 18.4461 123.416 18.9639C123.444 19.3862 123.372 19.815 123.332 20.24C123.234 21.2603 122.669 22.0886 122.03 22.7933C121.357 23.536 120.438 24.0006 119.422 24.217C115.079 25.1396 110.737 26.0682 106.395 26.9959L106.389 26.9935L105.587 27.1681L99.1673 28.5688L95.5744 29.3524C95.5744 29.3524 96.4407 29.2525 97.7376 29.154C98.1131 29.1253 98.5257 29.0976 98.9631 29.0714C99.2613 29.0327 99.5597 28.9957 99.8597 28.9751C101.406 28.8657 102.96 28.8304 104.5 28.6578C105.551 28.5402 106.536 28.5776 107.517 29.0018C108.16 29.2797 108.693 29.6998 109.084 30.2385C109.084 30.239 109.085 30.2395 109.085 30.24C109.712 31.1049 109.672 31.1346 110.719 30.9095C117.214 29.5138 123.711 28.1249 130.202 26.7144C131.113 26.517 132.004 26.5275 132.886 26.763C134.461 27.1836 135.428 28.3017 136.111 29.7098C136.308 30.116 136.233 30.344 135.81 30.486C135.377 30.6319 134.922 30.7131 134.473 30.8101C127.642 32.2823 120.811 33.7573 113.977 35.2212L114.176 35.1787L105.103 37.1583L103.361 37.5381C103.361 37.5381 104.048 37.4095 105.12 37.2541C108.454 36.7728 113.608 35.9712 117.583 38.1128C117.586 38.1154 117.589 38.1181 117.592 38.121L117.597 38.1191C118.205 38.4079 118.811 38.7013 119.435 38.9513C120.348 39.3169 121.304 39.5911 122.259 39.8325C122.863 39.9849 123.507 39.9699 124.122 40.0863C125.78 40.3994 127.442 40.2949 129.09 40.0846C130.185 39.9453 131.295 39.7477 132.331 39.383C133.785 38.8718 135.182 38.1945 136.59 37.558C137.003 37.371 137.391 37.1092 137.754 36.8338C138.39 36.351 139.024 35.8599 139.608 35.3187C140.421 34.5658 141.252 33.8171 141.962 32.9715C143.731 30.8618 145.034 28.4694 145.817 25.8315C146.3 24.2036 146.604 22.5235 146.575 20.8062C146.569 20.4469 146.558 20.0878 146.563 19.7285Z" fill="#FF5826"/>
<path fill-rule="evenodd" clip-rule="evenodd" d="M100.081 44.6371H103.269L105.167 50.9362L107.267 44.606H109.865L111.964 50.9362L113.862 44.6371H116.988L113.349 55.6027H110.72L108.527 49.3342L106.349 55.6027H103.72L100.081 44.6371Z" fill="white"/>
<path fill-rule="evenodd" clip-rule="evenodd" d="M153.378 55.5479H149.24V44.6603H153.44C157.329 44.6603 159.584 46.9001 159.584 50.042V50.0731C159.584 53.215 157.297 55.5479 153.378 55.5479ZM156.488 50.0889C156.488 48.3463 155.291 47.3355 153.487 47.3355H152.258V52.8728H153.487C155.291 52.8728 156.488 51.8775 156.488 50.12V50.0889ZM140.069 44.6603H143.087V52.9039H148.36V55.5479H140.069V44.6603ZM135.266 61.2112C134.535 61.2112 134.177 61.5224 134.177 61.9106V61.942C134.177 62.4397 134.55 62.658 136.059 62.9998C138.563 63.5446 140.119 64.3534 140.119 66.3909V66.422C140.119 68.646 138.361 69.9685 135.717 69.9685C133.788 69.9685 131.953 69.3619 130.615 68.1641L132.295 66.1573C133.368 67.0132 134.566 67.464 135.826 67.464C136.635 67.464 137.07 67.1839 137.07 66.7174V66.6863C137.07 66.2348 136.712 65.9866 135.234 65.6443C132.917 65.1153 131.128 64.4618 131.128 62.2226V62.1914C131.128 60.1693 132.73 58.7075 135.344 58.7075C137.194 58.7075 138.641 59.2046 139.823 60.1535L138.314 62.2843C137.319 61.5844 136.23 61.2112 135.266 61.2112ZM135.982 55.5479L133.789 52.2509H132.467V55.5479H129.45V44.6603H134.598C136.262 44.6603 137.413 45.0957 138.145 45.8423C138.782 46.4647 139.109 47.3044 139.109 48.3774V48.4086C139.109 50.0731 138.222 51.1773 136.869 51.7532L139.466 55.5479H135.982ZM136.076 48.5646C136.076 47.7087 135.453 47.2733 134.443 47.2733H132.467V49.8864H134.458C135.484 49.8864 136.076 49.3888 136.076 48.5958V48.5646ZM122.594 55.7659C119.234 55.7659 116.745 53.2618 116.745 50.1355V50.1044C116.745 46.9782 119.265 44.4424 122.625 44.4424C125.985 44.4424 128.473 46.9469 128.473 50.0732V50.1044C128.473 53.2307 125.954 55.7659 122.594 55.7659ZM125.393 50.1044C125.393 48.5329 124.258 47.1645 122.594 47.1645C120.945 47.1645 119.841 48.5018 119.841 50.0732V50.1044C119.841 51.6753 120.976 53.0443 122.625 53.0443C124.289 53.0443 125.393 51.7064 125.393 50.1355V50.1044ZM124.644 58.6757C128.004 58.6757 130.492 61.1802 130.492 64.3066V64.3377C130.492 67.4641 127.972 69.9997 124.613 69.9997C121.253 69.9997 118.764 67.4952 118.764 64.3691V64.3377C118.764 61.2116 121.284 58.6757 124.644 58.6757ZM121.86 64.3377C121.86 65.9087 122.995 67.2776 124.644 67.2776C126.308 67.2776 127.412 65.9398 127.412 64.3691V64.3377C127.412 62.7665 126.277 61.3978 124.613 61.3978C122.964 61.3978 121.86 62.7351 121.86 64.3066V64.3377Z" fill="white"/>
<path fill-rule="evenodd" clip-rule="evenodd" d="M179.668 61.538V69.7816H176.651V61.538H173.384V58.894H182.935V61.538H179.668ZM173.384 69.7819H169.9L167.707 66.4846H166.385V69.7819H163.368V58.8938H168.516C170.18 58.8938 171.331 59.3293 172.063 60.0758C172.7 60.6984 173.027 61.5379 173.027 62.611V62.6421C173.027 64.3066 172.14 65.4108 170.787 65.9868L173.384 69.7819ZM169.994 62.7982C169.994 61.9422 169.371 61.5068 168.361 61.5068H166.385V64.1199H168.376C169.403 64.1199 169.994 63.6223 169.994 62.829V62.7982ZM156.473 69.9997C153.113 69.9997 150.624 67.4952 150.624 64.3691V64.3378C150.624 61.2116 153.144 58.6758 156.504 58.6758C159.864 58.6758 162.352 61.1803 162.352 64.3066V64.3378C162.352 67.4641 159.833 69.9997 156.473 69.9997ZM159.273 64.3378C159.273 62.7666 158.137 61.3979 156.473 61.3979C154.824 61.3979 153.72 62.7352 153.72 64.3066V64.3378C153.72 65.9087 154.856 67.2777 156.504 67.2777C158.168 67.2777 159.273 65.9398 159.273 64.3691V64.3378ZM145.21 66.6709H143.716V69.7819H140.699V58.8938H145.365C148.118 58.8938 149.892 60.3095 149.892 62.7204V62.751C149.892 65.318 147.916 66.6709 145.21 66.6709ZM146.874 62.8604C146.874 61.9269 146.221 61.4292 145.132 61.4292H143.716V64.3066H145.147C146.221 64.3066 146.874 63.7465 146.874 62.8915V62.8604ZM110.42 63.809V69.7819H107.434V58.8938H110.249L114.728 64.6489V58.8938H117.715V69.7819H115.071L110.42 63.809ZM103.353 65.6445H99.4795V69.7819H96.4621V58.8938H99.4795V62.9688H103.353V58.8938H106.37V69.7819H103.353V65.6445ZM92.7386 69.7816H89.7209V61.538H86.4545V58.894H96.0047V61.538H92.7386V69.7816ZM77.0652 58.8938H85.8219V61.4603H80.0515V63.1089H85.2781V65.4891H80.0515V67.2152H85.8999V69.7819H77.0652V58.8938Z" fill="white"/>
</svg>
