<svg width="240" height="70" viewBox="0 0 240 70" fill="none" xmlns="http://www.w3.org/2000/svg">
<g clip-path="url(#clip0_1775_2560)">
<path fill-rule="evenodd" clip-rule="evenodd" d="M193.241 43.5728C188.837 43.5728 186.652 41.4203 186.652 38.3104C186.652 34.0638 190.763 33.1739 195.676 32.6957L195.668 31.6726V31.4923V31.4747C195.662 29.3907 194.346 28.8246 192.462 28.8246C190.945 28.8246 189.011 29.5174 187.658 30.2454V28.2723C188.661 27.2928 190.639 26.4917 193.121 26.4917C196.287 26.4917 198.828 27.7654 199.065 31.4747V31.4839L199.067 31.5098V31.52L199.068 31.5293L199.074 31.6634V31.6717C199.08 31.7975 199.082 31.9279 199.082 32.0602V42.6367C197.842 43.2999 194.752 43.5728 193.241 43.5728ZM195.676 34.8482C192.484 34.8482 190.095 35.4984 190.095 38.4298C190.095 39.3215 190.324 39.9949 190.749 40.4759C191.072 40.8403 191.514 41.0873 192.048 41.2455C192.974 41.522 194.703 41.4823 195.676 41.0845V34.8482ZM180.02 31.5293C180.02 30.2037 179.416 28.8135 177.089 28.8135C175.881 28.8135 175.247 28.9966 174.551 29.2667L174.553 43.126H170.868L170.867 27.6683C172.406 26.945 174.492 26.4917 177.24 26.4917C182.105 26.4917 183.706 28.8449 183.706 31.4682L183.709 43.126H180.022L180.02 31.5293ZM161.069 43.5728C156.664 43.5728 154.478 41.4203 154.478 38.3104C154.478 34.0638 158.591 33.1739 163.504 32.6957L163.495 31.6726V31.4923V31.4747C163.492 29.3907 162.174 28.8246 160.289 28.8246C158.773 28.8246 156.839 29.5174 155.487 30.2454V28.2723C156.488 27.2928 158.466 26.4917 160.95 26.4917C164.114 26.4917 166.655 27.7654 166.893 31.4747V31.4839L166.896 31.5098V31.52V31.5293L166.901 31.6634L166.902 31.6717C166.908 31.7975 166.91 31.9279 166.91 32.0602V42.6367C165.67 43.2999 162.581 43.5728 161.069 43.5728ZM163.504 34.8482C160.312 34.8482 157.923 35.4984 157.923 38.4298C157.923 39.3215 158.152 39.9949 158.577 40.4759C158.9 40.8403 159.34 41.0873 159.877 41.2455C160.804 41.522 162.531 41.4823 163.504 41.0845V34.8482ZM150.704 43.5728C147.595 43.5728 146.363 41.4915 146.363 39.2956V28.8246H144.465V26.5611H146.363L146.362 24.7943L149.941 22.5623V26.5611H152.523V28.8246H149.941V38.7618C149.941 39.9912 150.439 40.8126 151.672 40.8126C151.995 40.8126 152.228 40.7534 152.523 40.6646V43.2499C152.2 43.397 151.555 43.5728 150.704 43.5728ZM142.504 38.5519C142.504 41.2455 140.203 43.5728 136.533 43.5728C134.572 43.5728 133.323 43.126 132.332 42.6237L132.316 39.9856C133.997 41.2353 138.838 41.6007 138.838 38.5815C138.838 37.1727 137.869 36.5326 136.159 35.8879C132.986 34.6946 132.332 32.9806 132.332 31.2656C132.332 26.0819 139.436 25.1338 141.544 28.3112V30.3268C140.931 29.6783 139.58 28.9087 138.397 28.9087C136.842 28.9087 136.003 29.9198 136.003 31.0834C136.003 32.4284 137.029 33.1027 138.491 33.6845C141.758 34.9703 142.504 36.6232 142.504 38.5519ZM123.526 43.5728C119.122 43.5728 116.935 41.4203 116.935 38.3104C116.935 34.0638 121.048 33.1739 125.961 32.6957L125.952 31.6726V31.4923V31.4747C125.949 29.3907 124.631 28.8246 122.747 28.8246C121.232 28.8246 119.296 29.5174 117.944 30.2454V28.2723C118.946 27.2928 120.923 26.4917 123.407 26.4917C126.571 26.4917 129.113 27.7654 129.35 31.4747L129.351 31.4839L129.353 31.5098L129.354 31.52V31.5293L129.358 31.6634V31.6717C129.365 31.7975 129.367 31.9279 129.367 32.0602V42.6367C128.126 43.2999 125.038 43.5728 123.526 43.5728ZM125.961 34.8482C122.769 34.8482 120.381 35.4984 120.381 38.4298C120.381 39.3215 120.609 39.9949 121.035 40.4759C121.358 40.8403 121.798 41.0873 122.335 41.2455C123.261 41.522 124.989 41.4823 125.961 41.0845V34.8482ZM106.173 29.3315V43.1251H102.491V27.672C104.181 26.8599 106.354 26.3761 110.478 26.5167V29.1465C109.06 28.572 107.018 28.8495 106.173 29.3315ZM96.7427 24.6759C95.6929 24.6759 94.8409 23.8259 94.8409 22.7769C94.8409 21.728 95.6929 20.877 96.7427 20.877C97.7935 20.877 98.6455 21.728 98.6455 22.7769C98.6455 23.8259 97.7935 24.6759 96.7427 24.6759ZM85.1627 43.5728C80.7569 43.5728 78.5702 41.4203 78.5702 38.3104C78.5702 34.0638 82.6827 33.1739 87.5954 32.6957L87.5871 31.6726V31.4923V31.4747C87.5834 29.3907 86.2662 28.8246 84.382 28.8246C82.8659 28.8246 80.9308 29.5174 79.5784 30.2454V28.2723C80.5811 27.2928 82.5579 26.4917 85.0415 26.4917C88.2068 26.4917 90.7469 27.7654 90.9846 31.4747V31.4839L90.9874 31.5098V31.52L90.9883 31.5293L90.9939 31.6634V31.6717C90.9994 31.7975 91.0031 31.9279 91.0031 32.0602V42.6367C89.7618 43.2999 86.6732 43.5728 85.1627 43.5728ZM87.5954 34.8482C84.4032 34.8482 82.0158 35.4984 82.0158 38.4298C82.0158 39.3215 82.2434 39.9949 82.6707 40.4759C82.9926 40.8403 83.4329 41.0873 83.9694 41.2455C84.8953 41.522 86.6232 41.4823 87.5954 41.0845V34.8482ZM98.5345 43.1214H94.9797V26.5759H98.5345V43.1214Z" fill="#1C2B4F"/>
<path d="M69.7677 44.3298C70.5697 43.3817 71.034 42.1403 71.034 40.8037C71.034 39.554 70.6113 38.4015 69.8981 37.4811C69.2192 36.5876 68.1453 36.0122 66.9372 36.0122C65.213 36.0122 63.7645 37.1842 63.3454 38.7752C63.2816 38.9935 63.2409 39.221 63.2335 39.4412C63.23 39.4803 63.2282 39.521 63.2265 39.5595L63.2261 39.567C63.2252 39.5855 63.2252 39.604 63.2243 39.6206V39.6364V39.6401C63.2243 40.3042 63.7635 40.8426 64.4295 40.8426C64.9799 40.8426 65.4443 40.4744 65.5886 39.9703L65.5895 39.9684C65.6163 39.8704 65.632 39.7696 65.6339 39.6632C65.6478 39.4356 65.6339 39.1951 65.6977 38.9694C65.7495 38.7789 65.9058 38.5421 66.0918 38.4181C66.2638 38.3025 66.4636 38.2137 66.693 38.2137C68.3784 38.2137 69.0915 41.4244 67.0982 43.0145C66.4784 43.5066 65.645 43.9654 64.436 43.9654C61.9968 43.9654 60.0848 42.0414 60.0848 39.6623C60.0848 38.9195 60.2735 38.2008 60.6232 37.5782C60.7591 37.335 61.0875 36.9011 61.0875 36.9011C58.9739 37.2175 57.2497 37.4191 55.729 36.5015C55.1795 36.1704 54.644 35.706 54.1389 34.9984C54.644 34.2899 55.1795 33.8255 55.729 33.4944C57.2497 32.5768 58.9739 32.7784 61.0875 33.0948C61.0875 33.0948 60.7591 32.6619 60.6232 32.4186C60.2735 31.7951 60.0848 31.0764 60.0848 30.3346C60.0848 27.9545 61.9968 26.0305 64.436 26.0305C65.645 26.0305 66.4784 26.4884 67.0982 26.9814C69.0915 28.5715 68.3784 31.7831 66.693 31.7831C66.4636 31.7831 66.2638 31.6943 66.0918 31.5778C65.9058 31.4538 65.7495 31.217 65.6977 31.0265C65.6339 30.8008 65.6478 30.5612 65.6339 30.3336C65.632 30.2263 65.6163 30.1255 65.5895 30.0275L65.5886 30.0256C65.4443 29.5215 64.9799 29.1524 64.4295 29.1524C63.7635 29.1524 63.2243 29.6917 63.2243 30.3568V30.3586V30.3743C63.2252 30.3919 63.2252 30.4104 63.2261 30.428L63.2262 30.4306C63.228 30.4714 63.2299 30.513 63.2335 30.5538C63.2409 30.7758 63.2816 31.0024 63.3454 31.2207C63.7645 32.8108 65.213 33.9837 66.9372 33.9837C68.1453 33.9837 69.2192 33.4083 69.8981 32.5157C70.6113 31.5944 71.034 30.4419 71.034 29.1922C71.034 27.8556 70.5697 26.6151 69.7677 25.6661C69.1378 24.9215 68.3034 24.3535 67.3544 24.0325L67.3738 24.027C69.5226 22.4869 70.9221 19.9727 70.9221 17.1311C70.9221 16.9202 70.9129 16.7121 70.8981 16.5049L70.8907 16.5067L40.9077 34.9984L70.8907 53.4901L70.8981 53.4929C70.9129 53.2857 70.9221 53.0757 70.9221 52.8639C70.9221 50.0232 69.5226 47.509 67.3738 45.9698L67.3544 45.9634C68.3034 45.6424 69.1378 45.0754 69.7677 44.3298Z" fill="#A48656"/>
</g>
<defs>
<clipPath id="clip0_1775_2560">
<rect width="158.175" height="37" fill="white" transform="translate(40.9125 16.5)"/>
</clipPath>
</defs>
</svg>
