<svg width="260" height="70" viewBox="0 0 260 70" fill="none" xmlns="http://www.w3.org/2000/svg">
<path d="M135.108 24.5774L134.532 23.2396H130.332L129.757 24.5774H127.501L132.09 14.124H132.79L137.363 24.5774H135.108ZM133.801 21.5129L132.432 18.044L131.063 21.5129H133.801Z" fill="white"/>
<path d="M147.803 24.5774H145.268L140.865 19.2262V24.5774H138.765V14.3107H140.865V19.0707L144.785 14.3107H147.29L143.354 19.1485L147.803 24.5774Z" fill="white"/>
<path d="M149.186 24.5774V14.3107H151.286V24.5774H149.186Z" fill="white"/>
<path d="M163.002 14.124H163.686V24.5774H161.586V19.1018L159.004 22.3374H158.32L155.737 19.1018V24.5774H153.637V14.124H154.322L158.662 19.6774L163.002 14.124Z" fill="white"/>
<path d="M172.675 24.5774L172.099 23.2396H167.899L167.324 24.5774H165.068L169.657 14.124H170.357L174.931 24.5774H172.675ZM171.368 21.5129L169.999 18.044L168.631 21.5129H171.368Z" fill="white"/>
<path d="M177.481 24.5774V16.2085H174.199V14.3107H182.879V16.2085H179.581V24.5774H177.481Z" fill="white"/>
<path d="M127.89 34.9996C127.843 32.0596 130.379 29.6174 133.334 29.6796C136.29 29.6174 138.857 32.0596 138.81 34.9996C138.857 37.9396 136.29 40.3818 133.334 40.3196C130.379 40.3818 127.843 37.9396 127.89 34.9996ZM136.648 34.9996C136.648 33.0551 135.232 31.624 133.35 31.624C131.452 31.624 130.052 33.024 130.052 34.9996C130.052 36.9751 131.452 38.3751 133.35 38.3751C135.232 38.3751 136.648 36.9751 136.648 34.9996Z" fill="white"/>
<path d="M140.588 40.1329V29.8662H147.339V31.764H142.688V34.3307H146.499V36.2285H142.688V40.1329H140.588Z" fill="white"/>
<path d="M154.345 40.1329V31.764H151.063V29.8662H159.743V31.764H156.445V40.1329H154.345Z" fill="white"/>
<path d="M161.126 40.1329V29.8662H163.226V33.8018H167.769V29.8662H169.869V40.1329H167.769V35.6996H163.226V40.1329H161.126Z" fill="white"/>
<path d="M172.216 40.1329V29.8662H179.123V31.764H174.316V33.8485H177.847V35.6374H174.316V38.2351H179.309V40.1329H172.216Z" fill="white"/>
<path d="M184.902 34.9996C184.855 32.0596 187.391 29.6174 190.377 29.6796C192.322 29.6796 193.986 30.6285 194.904 32.2307L193.317 33.3507C192.586 32.1996 191.606 31.624 190.377 31.624C188.464 31.624 187.064 33.0551 187.064 35.0151C187.064 36.9751 188.464 38.3751 190.377 38.3751C191.606 38.3751 192.586 37.7996 193.317 36.6485L194.904 37.7685C194.017 39.3707 192.337 40.3196 190.362 40.3196C187.359 40.3818 184.839 37.9396 184.902 34.9996Z" fill="white"/>
<path d="M196.689 40.1329V29.8662H198.789V40.1329H196.689Z" fill="white"/>
<path d="M203.457 40.1329V31.764H200.175V29.8662H208.855V31.764H205.557V40.1329H203.457Z" fill="white"/>
<path d="M218.499 29.8662L214.968 36.0885V40.1329H212.868V36.104L209.321 29.8662H211.654L213.926 33.9418L216.181 29.8662H218.499Z" fill="white"/>
<path d="M127.89 50.5551C127.843 47.6151 130.379 45.1729 133.334 45.2351C136.29 45.1729 138.857 47.6151 138.81 50.5551C138.857 53.4951 136.29 55.9374 133.334 55.8751C130.379 55.9374 127.843 53.4951 127.89 50.5551ZM136.648 50.5551C136.648 48.6107 135.232 47.1796 133.35 47.1796C131.452 47.1796 130.052 48.5796 130.052 50.5551C130.052 52.5307 131.452 53.9307 133.35 53.9307C135.232 53.9307 136.648 52.5307 136.648 50.5551Z" fill="white"/>
<path d="M140.588 55.6885V45.4218H147.339V47.3196H142.688V49.8862H146.499V51.784H142.688V55.6885H140.588Z" fill="white"/>
<path d="M158.654 55.6885L158.078 54.3507H153.878L153.303 55.6885H151.047L155.636 45.2351H156.336L160.909 55.6885H158.654ZM157.347 52.624L155.978 49.1551L154.609 52.624H157.347Z" fill="white"/>
<path d="M161.52 53.604L162.967 52.5151C163.635 53.4329 164.367 54.0085 165.487 54.0085C166.404 54.0085 166.949 53.5729 166.949 52.8729C166.949 52.2662 166.622 52.0485 165.642 51.5974L164.538 51.0996C162.967 50.3996 162.049 49.5129 162.049 48.144C162.049 46.3862 163.511 45.2351 165.455 45.2351C167.027 45.2351 168.209 45.9974 168.847 47.1796L167.415 48.284C166.887 47.4907 166.233 47.1018 165.455 47.1018C164.724 47.1018 164.18 47.4596 164.18 48.0974C164.18 48.6418 164.507 48.8907 165.378 49.2796L166.544 49.7929C168.271 50.5551 169.08 51.4107 169.08 52.7951C169.08 54.6774 167.54 55.8751 165.487 55.8751C163.744 55.8751 162.313 54.9885 161.52 53.604Z" fill="white"/>
<path d="M173.242 55.6885V47.3196H169.96V45.4218H178.64V47.3196H175.342V55.6885H173.242Z" fill="white"/>
<path d="M185.481 55.6885L184.905 54.3507H180.705L180.13 55.6885H177.874L182.463 45.2351H183.163L187.737 55.6885H185.481ZM184.174 52.624L182.805 49.1551L181.437 52.624H184.174Z" fill="white"/>
<path d="M195.781 45.4218H197.881V55.8751H197.181L191.239 49.5285V55.6885H189.139V45.2351H189.823L195.781 51.5507V45.4218Z" fill="white"/>
<path d="M206.855 55.6885L206.279 54.3507H202.079L201.504 55.6885H199.248L203.837 45.2351H204.537L209.11 55.6885H206.855ZM205.548 52.624L204.179 49.1551L202.81 52.624H205.548Z" fill="white"/>
<path d="M76.5011 70C95.8311 70 111.501 54.33 111.501 35C111.501 15.67 95.8311 0 76.5011 0C57.1711 0 41.5011 15.67 41.5011 35C41.5011 54.33 57.1711 70 76.5011 70Z" fill="#EE2E24"/>
<path d="M76.5011 69.5849C95.6017 69.5849 111.086 54.1008 111.086 35.0002C111.086 15.8996 95.6017 0.415527 76.5011 0.415527C57.4005 0.415527 41.9164 15.8996 41.9164 35.0002C41.9164 54.1008 57.4005 69.5849 76.5011 69.5849Z" fill="#FFDE00"/>
<path fill-rule="evenodd" clip-rule="evenodd" d="M84.0471 34.0174C84.4111 34.0174 84.7051 34.3114 84.7051 34.6754V35.3334C84.7051 35.6974 84.4111 35.9914 84.0471 35.9914H83.3891V34.0221H84.0471V34.0174ZM84.0471 36.6401C84.7704 36.6401 85.3584 36.0521 85.3584 35.3288V34.6708C85.3584 33.9474 84.7704 33.3594 84.0471 33.3594H82.7334V36.6424H84.0471V36.6401ZM81.4221 33.3548H82.0801V36.6378H81.4221V33.3548ZM80.1108 33.3548H80.7687V36.6378H80.1108L78.7994 34.5774V36.6378H78.1414V33.3548H78.7994L80.1108 35.4151V33.3548ZM70.2664 33.3548H72.2358V34.0128H70.9244V34.6708H72.2358V35.3288H70.9244V35.9868H72.2358V36.6448H70.2664V33.3594V33.3548ZM67.6414 33.3548H68.2994V35.9798H69.6108V36.6378H67.6414V33.3548ZM74.5318 35.9798H75.1898C75.7334 35.9798 76.1744 35.5388 76.1744 34.9951C76.1744 34.4514 75.7241 34.0128 75.1898 34.0104H74.5318V34.6684H75.1898C75.3694 34.6684 75.5188 34.8178 75.5188 34.9974C75.5188 35.1771 75.3741 35.3264 75.1898 35.3264H74.5318V35.9844V35.9798ZM75.1898 32.6968C76.4591 32.6968 77.4858 33.7258 77.4858 34.9928C77.4858 36.2598 76.4591 37.2888 75.1898 37.2888C73.9204 37.2888 72.8938 36.2598 72.8938 34.9928C72.8938 33.7258 73.9204 32.6968 75.1898 32.6968ZM75.1898 33.3548C76.0951 33.3548 76.8301 34.0898 76.8301 34.9951C76.8301 35.9004 76.0974 36.6354 75.1898 36.6354C74.2821 36.6354 73.5494 35.9004 73.5494 34.9951C73.5471 34.0898 74.2821 33.3548 75.1898 33.3548Z" fill="#A90000"/>
<path d="M76.5011 60.3772C90.5166 60.3772 101.878 49.0154 101.878 34.9999C101.878 20.9844 90.5166 9.62256 76.5011 9.62256C62.4856 9.62256 51.1238 20.9844 51.1238 34.9999C51.1238 49.0154 62.4856 60.3772 76.5011 60.3772Z" fill="#009BC9"/>
<path fill-rule="evenodd" clip-rule="evenodd" d="M61.5444 13.7036L59.8621 15.2296C68.6308 22.9763 71.8228 35.5086 72.8004 49.4596H73.2228C72.6324 42.4386 72.8611 25.5639 61.5444 13.7036ZM70.8194 24.9456C71.1601 26.0656 71.5684 27.5939 71.7084 28.7046C72.7374 30.8466 74.4244 32.8719 74.6484 45.8919H75.0708C74.9751 37.2633 74.7744 29.3976 70.8194 24.9456ZM76.2608 29.3323H76.7438V43.6333H76.2608V29.3323ZM82.1874 24.9456C81.8468 26.0656 81.4384 27.5939 81.2984 28.7046C80.2694 30.8466 78.5824 32.8719 78.3584 45.8919H77.9361C78.0318 37.2633 78.2301 29.3976 82.1874 24.9456ZM91.4601 13.7036L93.1424 15.2296C84.3738 22.9763 81.1818 35.5086 80.2041 49.4596H79.7818C80.3721 42.4386 80.1458 25.5639 91.4601 13.7036Z" fill="#FFDE00"/>
<path fill-rule="evenodd" clip-rule="evenodd" d="M76.5011 9.29834C90.6924 9.29834 102.203 20.8087 102.203 35C102.203 49.1913 90.6924 60.7017 76.5011 60.7017C62.3098 60.7017 50.7994 49.1937 50.7994 35C50.7994 20.8063 62.3098 9.29834 76.5011 9.29834ZM76.5011 9.62734C90.5128 9.62734 101.878 20.9883 101.878 35.0047C101.878 49.021 90.5174 60.382 76.5011 60.382C62.4848 60.382 51.1261 49.014 51.1261 35.0023C51.1261 20.9907 62.4871 9.62734 76.5011 9.62734Z" fill="#EE2E24"/>
<path fill-rule="evenodd" clip-rule="evenodd" d="M76.5011 43.0176C75.5514 43.9136 75.5864 45.0102 76.0414 46.0229L76.0344 46.0299C75.5981 45.7196 75.1968 45.5936 74.8514 45.5912C74.2004 45.5889 73.6218 46.2656 73.6008 46.7812C73.5844 47.2479 73.6358 47.6819 74.0558 47.9526C74.3404 48.1346 74.7464 48.1882 75.0428 47.9619C74.6508 47.8336 74.6508 47.3832 74.7698 47.1826C74.8934 46.9726 75.0988 46.8209 75.3624 46.8302C75.8384 46.8442 76.1091 47.2432 76.0998 47.6282C76.0881 48.1882 75.2948 48.9209 74.8771 49.1519C75.1571 49.6839 75.5538 50.5332 75.7171 51.1842L75.4931 51.3336C71.1484 45.9272 66.6824 47.5279 63.1661 43.7736C63.6164 48.5056 68.0054 50.2952 70.6584 50.9066C69.4194 51.6229 69.1254 52.7826 69.1604 53.8116C69.2094 55.2746 70.4321 56.3806 72.0398 56.3456C73.7128 56.3082 74.9098 54.6866 74.0418 53.1629C73.7128 53.8046 73.3768 54.3856 72.6208 54.3436C71.8648 54.3039 71.5824 53.6342 71.5731 53.0229C71.5638 52.2809 72.1121 51.7466 72.8144 51.6229C73.3138 51.5342 73.8621 51.6579 74.3428 51.8866C75.1898 52.2949 75.8244 53.2539 75.7964 54.2572C75.7661 55.2606 75.1291 56.3992 73.7081 57.5052C74.6041 58.6112 75.5771 60.0439 76.4988 62.0692C77.4204 60.0439 78.3934 58.6112 79.2894 57.5052C77.8661 56.3992 77.2291 55.2606 77.2011 54.2572C77.1708 53.2539 77.8078 52.2949 78.6548 51.8866C79.1331 51.6556 79.6838 51.5342 80.1831 51.6229C80.8901 51.7489 81.4361 52.2856 81.4244 53.0229C81.4174 53.6342 81.1328 54.3039 80.3768 54.3436C79.6208 54.3832 79.2871 53.8046 78.9558 53.1629C78.0901 54.6866 79.2871 56.3082 80.9578 56.3456C82.5631 56.3806 83.7881 55.2746 83.8371 53.8116C83.8721 52.7849 83.5781 51.6229 82.3391 50.9066C84.9921 50.2976 89.3811 48.5056 89.8314 43.7736C86.3151 47.5279 81.8491 45.9272 77.5044 51.3336L77.2804 51.1842C77.4438 50.5332 77.8404 49.6839 78.1204 49.1519C77.7028 48.9209 76.9094 48.1859 76.8978 47.6282C76.8884 47.2432 77.1591 46.8466 77.6351 46.8302C77.8988 46.8209 78.1041 46.9726 78.2278 47.1826C78.3491 47.3879 78.3468 47.8336 77.9548 47.9619C78.2511 48.1859 78.6594 48.1346 78.9418 47.9526C79.3618 47.6842 79.4131 47.2456 79.3968 46.7812C79.3781 46.2656 78.7994 45.5889 78.1461 45.5912C77.8008 45.5912 77.3994 45.7172 76.9631 46.0299L76.9561 46.0229C77.4111 45.0102 77.4484 43.9112 76.4964 43.0176H76.5011Z" fill="#FFDE00"/>
<path d="M77.1008 47.6138C77.1008 47.3291 77.2898 47.0351 77.6491 47.0235C77.8754 47.0165 78.0061 47.1798 78.0644 47.2778C78.1064 47.3501 78.1251 47.4855 78.0831 47.6021C78.0504 47.6861 77.9921 47.7421 77.8988 47.7725L77.5464 47.8891C77.8521 48.1248 78.1111 48.3418 78.5288 48.2998C78.7224 48.2811 78.9068 48.2111 79.0538 48.1178C79.5648 47.7888 79.6161 47.2545 79.5998 46.7738C79.5764 46.1508 78.9068 45.3901 78.1531 45.3925C77.8848 45.3925 77.6071 45.4671 77.3248 45.5978C77.4158 45.2945 77.4648 44.9981 77.4648 44.7158C77.4648 44.0158 77.1848 43.3951 76.6341 42.8725L76.4988 42.7441L76.3634 42.8725C75.8104 43.3928 75.5328 44.0158 75.5328 44.7158C75.5328 44.9981 75.5818 45.2945 75.6728 45.5978C75.3928 45.4671 75.1174 45.3948 74.8444 45.3925C74.0931 45.3901 73.4188 46.1485 73.3978 46.7738C73.3814 47.2521 73.4328 47.7888 73.9438 48.1178C74.1164 48.2298 74.3404 48.3045 74.5714 48.3068C74.9448 48.3115 75.1781 48.1015 75.4558 47.8915C75.2831 47.8355 74.9891 47.7981 74.9168 47.6021C74.8724 47.4855 74.8934 47.3501 74.9354 47.2778C74.9914 47.1798 75.1221 47.0165 75.3508 47.0235C75.7078 47.0351 75.8991 47.3291 75.8991 47.6138C75.8898 48.0781 75.1664 48.7595 74.7791 48.9765L74.6111 49.0698L74.6998 49.2401C74.9588 49.7301 75.2644 50.4021 75.4441 50.9691C73.0711 48.1295 70.7004 47.3011 68.4091 46.5101C66.5774 45.8755 64.8438 45.2758 63.3061 43.6355L62.9118 43.2155L62.9654 43.7895C63.4228 48.5868 67.8608 50.3788 70.1731 50.9878C69.3728 51.6061 68.9528 52.5161 68.9528 53.6548C68.9528 53.7061 68.9528 53.7621 68.9551 53.8135C69.0064 55.4048 70.3341 56.5738 72.0351 56.5365C72.9614 56.5178 73.8061 56.0325 74.2354 55.2741C74.6251 54.5858 74.6158 53.7785 74.2051 53.0598L74.0254 52.7448L73.8598 53.0691C73.5261 53.7178 73.2414 54.1751 72.6254 54.1425C71.8391 54.1005 71.7691 53.2675 71.7668 53.0131C71.7598 52.4088 72.1938 51.9235 72.8448 51.8091C73.2671 51.7345 73.7664 51.8208 74.2518 52.0588C75.0661 52.4508 75.6191 53.3515 75.5958 54.2475C75.5654 55.2718 74.8701 56.3451 73.5821 57.3461L73.4234 57.4698L73.5494 57.6261C74.6531 58.9888 75.5328 60.4261 76.3144 62.1481L76.4941 62.5425L76.6738 62.1481C77.4554 60.4261 78.3351 58.9888 79.4388 57.6261L79.5648 57.4698L79.4061 57.3461C78.1204 56.3428 77.4228 55.2718 77.3924 54.2475C77.3668 53.3515 77.9174 52.4531 78.7364 52.0588C79.2218 51.8231 79.7234 51.7345 80.1434 51.8091C80.7968 51.9258 81.2331 52.4088 81.2261 53.0131C81.2238 53.2675 81.1491 54.1005 80.3674 54.1425C79.7491 54.1751 79.4668 53.7178 79.1331 53.0691L78.9674 52.7448L78.7878 53.0598C78.3771 53.7785 78.3678 54.5858 78.7574 55.2741C79.1868 56.0325 80.0314 56.5155 80.9578 56.5365C82.6611 56.5738 83.9864 55.4025 84.0378 53.8135C84.0401 53.7598 84.0401 53.7061 84.0401 53.6548C84.0401 52.5161 83.6201 51.6061 82.8198 50.9878C85.1344 50.3788 89.5748 48.5891 90.0274 43.7895L90.0811 43.2155L89.6868 43.6355C88.1514 45.2758 86.4201 45.8755 84.5838 46.5101C82.2901 47.3035 79.9218 48.1295 77.5488 50.9691C77.7261 50.4045 78.0318 49.7301 78.2931 49.2401L78.3818 49.0698L78.2138 48.9765C77.8241 48.7595 77.1031 48.0781 77.0938 47.6138H77.1008ZM76.7064 47.6185C76.7204 48.2275 77.4088 48.9041 77.8684 49.2191C77.5208 49.9028 77.1498 50.6495 77.0588 51.4195L77.5511 51.5921L77.6631 51.4521C80.0338 48.5028 82.4161 47.6791 84.7214 46.8811C86.4388 46.2885 88.0628 45.7121 89.5514 44.3191C88.7791 48.7361 84.2688 50.2551 82.2994 50.7078L81.8094 50.8198L82.2434 51.0695C83.1744 51.6085 83.6458 52.4741 83.6458 53.6455C83.6458 53.6945 83.6458 53.7435 83.6434 53.7971C83.5991 55.1645 82.4464 56.1725 80.9671 56.1398C80.1784 56.1235 79.4621 55.7151 79.1028 55.0781C78.9441 54.7981 78.8648 54.5041 78.8648 54.2031C78.8648 54.0025 78.9114 53.8065 78.9814 53.6058C79.2614 54.0865 79.6581 54.5695 80.3884 54.5298C81.2844 54.4831 81.6111 53.6828 81.6204 53.0131C81.6298 52.2198 81.0534 51.5641 80.2158 51.4148C79.7141 51.3261 79.1284 51.4265 78.5684 51.6971C77.6374 52.1451 77.0028 53.1601 77.0028 54.1821V54.2521C77.0354 55.3558 77.7331 56.4828 79.0188 57.5258C78.0434 58.7555 77.2151 60.1018 76.4964 61.6138C75.7778 60.1018 74.9494 58.7555 73.9741 57.5258C75.2574 56.4828 75.9574 55.3558 75.9901 54.2521V54.1821C75.9901 53.1601 75.3531 52.1451 74.4244 51.6971C73.8644 51.4288 73.2788 51.3261 72.7771 51.4148C71.9394 51.5641 71.3631 52.2198 71.3724 53.0131C71.3818 53.6828 71.7084 54.4831 72.6044 54.5298C73.3348 54.5695 73.7361 54.0888 74.0114 53.6058C74.0814 53.8041 74.1281 54.0025 74.1281 54.2031C74.1281 54.5018 74.0488 54.7981 73.8901 55.0781C73.5261 55.7151 72.8144 56.1235 72.0234 56.1398C70.5418 56.1725 69.3914 55.1645 69.3471 53.7971C69.3448 53.7481 69.3448 53.6968 69.3448 53.6455C69.3448 52.4718 69.8161 51.6061 70.7471 51.0671L71.1811 50.8175L70.6911 50.7055C68.7194 50.2528 64.2114 48.7338 63.4391 44.3168C64.9278 45.7098 66.5564 46.2815 68.2691 46.8788C70.5721 47.6768 72.9568 48.5005 75.3274 51.4498L75.4394 51.5898L75.9318 51.4171C75.8408 50.6471 75.4721 49.9005 75.1221 49.2168C75.5841 48.9018 76.2724 48.2275 76.2841 47.6161C76.2841 47.1378 75.9411 46.6478 75.3554 46.6291C75.0428 46.6198 74.7604 46.7831 74.5878 47.0795C74.5224 47.1891 74.4921 47.3268 74.4921 47.4621C74.4921 47.5578 74.5061 47.6558 74.5411 47.7421C74.5668 47.8028 74.6088 47.8518 74.6484 47.9031C74.4711 47.9218 74.2868 47.8728 74.1514 47.7865C73.8248 47.5765 73.7711 47.2358 73.7851 46.7878C73.7991 46.3911 74.2774 45.7845 74.8374 45.7868C75.3484 45.7891 75.7498 46.0785 76.1464 46.3561L76.3191 46.1951C76.1114 45.7191 75.9131 45.2478 75.9131 44.7135C75.9131 44.1791 76.1114 43.7171 76.4871 43.3088C76.8628 43.7195 77.0611 44.1885 77.0611 44.7135C77.0611 45.2385 76.8581 45.7121 76.6668 46.1951L76.8208 46.3561C77.2268 46.0855 77.6258 45.7891 78.1391 45.7868C78.6991 45.7845 79.1774 46.3911 79.1914 46.7878C79.2078 47.2358 79.1518 47.5788 78.8251 47.7865C78.6921 47.8728 78.5054 47.9218 78.3281 47.9031C78.3678 47.8518 78.4098 47.8051 78.4354 47.7421C78.4681 47.6558 78.4844 47.5601 78.4844 47.4621C78.4844 47.3245 78.4518 47.1891 78.3888 47.0795C78.2161 46.7831 77.9338 46.6198 77.6211 46.6291C77.0541 46.6525 76.7088 47.1401 76.7088 47.6185H76.7064Z" fill="#009933"/>
<path fill-rule="evenodd" clip-rule="evenodd" d="M76.5011 51.8935C76.7998 50.9998 77.1288 50.0571 77.5068 49.3525C77.1568 49.1425 76.8254 48.7785 76.5011 48.3491C76.1768 48.7808 75.8478 49.1425 75.4954 49.3525C75.8758 50.0571 76.2024 51.0021 76.5011 51.8935Z" fill="#009BC9"/>
<path fill-rule="evenodd" clip-rule="evenodd" d="M76.5011 60.7319C76.9864 59.7682 77.5768 58.7112 78.3444 57.8432C77.7074 57.2995 77.0681 56.5342 76.5011 55.6172C75.9341 56.5342 75.2971 57.2995 74.6578 57.8432C75.4231 58.7135 76.0158 59.7705 76.5011 60.7319Z" fill="#009BC9"/>
<path d="M77.0144 56.7982C76.9211 56.7982 76.8208 56.8496 76.7228 56.9499C76.5034 57.1716 76.4031 57.5169 76.3238 57.7992L76.3144 57.8296C76.2981 57.8902 76.2794 57.9602 76.2631 58.0256C76.2071 58.0069 76.1441 57.9882 76.0764 57.9766C76.1324 57.8319 76.1698 57.6896 76.1628 57.5472C76.1604 57.4982 76.1208 57.4609 76.0718 57.4632C76.0228 57.4656 75.9854 57.5052 75.9878 57.5542C75.9948 57.7759 75.8734 58.0186 75.7288 58.2892C75.7054 58.3312 75.7218 58.3849 75.7638 58.4082C75.8058 58.4316 75.8594 58.4152 75.8828 58.3732C75.9248 58.2939 75.9668 58.2169 76.0018 58.1446C76.0834 58.1539 76.1534 58.1749 76.2188 58.1959C76.1021 58.6579 75.9994 59.1572 75.9341 59.5189C75.9341 59.5236 75.9318 59.5282 75.9318 59.5329C75.9318 59.5749 75.9621 59.6122 76.0041 59.6192C76.0508 59.6262 76.0974 59.5959 76.1044 59.5469C76.1698 59.1922 76.2678 58.7022 76.3821 58.2496C76.4568 58.2776 76.5268 58.3032 76.6061 58.3079C76.9911 58.3406 77.1964 57.9836 77.2548 57.6709C77.3014 57.4259 77.3154 57.0059 77.1754 56.8612C77.1381 56.8216 77.0821 56.7959 77.0168 56.7959L77.0144 56.7982ZM76.4824 57.8762L76.4918 57.8436C76.5664 57.5846 76.6598 57.2602 76.8464 57.0712C76.9328 56.9849 76.9888 56.9732 77.0144 56.9732C77.0331 56.9732 77.0471 56.9802 77.0518 56.9849C77.1054 57.0386 77.1451 57.3209 77.0844 57.6382C77.0401 57.8809 76.8908 58.1562 76.6224 58.1352C76.5641 58.1306 76.4988 58.1049 76.4288 58.0792C76.4428 58.0116 76.4614 57.9416 76.4801 57.8762H76.4824Z" fill="#FFDE00"/>
<path fill-rule="evenodd" clip-rule="evenodd" d="M76.5011 1.31152C95.1048 1.31152 110.19 16.3965 110.19 35.0002C110.19 45.2692 105.591 54.4625 98.3458 60.6412L94.3908 55.0949C98.9478 51.0349 102.116 45.4512 103.092 39.1442C103.108 39.0299 103.096 38.9855 103.222 38.9459C103.332 38.9132 103.449 38.8782 103.549 38.8339C103.591 38.8175 103.631 38.7895 103.67 38.7522C103.701 38.7219 103.712 38.6682 103.724 38.6075C103.747 38.4932 103.775 38.3415 103.969 38.2832C104.184 38.2179 104.368 38.3672 104.604 38.5562C104.737 38.6635 104.888 38.7825 105.07 38.8922C105.532 39.1605 105.952 39.2772 106.522 39.2912C107.016 39.3029 107.446 39.2305 107.945 38.8222C108.139 38.6635 108.281 38.4955 108.437 38.2949C108.573 38.1199 108.731 37.9565 108.965 37.9589C109.144 37.9612 109.287 38.0452 109.354 38.1875C109.382 38.2459 109.396 38.3135 109.396 38.3812C109.396 38.3929 109.392 38.4045 109.392 38.4162C109.469 38.3275 109.513 38.2342 109.518 38.1432V38.1292C109.518 37.9659 109.434 37.8469 109.361 37.7745C109.226 37.6369 109.021 37.5505 108.827 37.5529C108.447 37.5575 108.134 37.7465 107.803 37.9425C107.637 38.0405 107.467 38.1432 107.289 38.2225C106.895 38.3929 106.44 38.4652 105.861 38.4489C105.007 38.4255 104.464 38.0382 104.158 37.7162C103.81 37.3499 103.593 36.8692 103.603 36.4935C103.619 35.8309 103.869 35.6535 103.899 35.6372L103.918 35.6255L105 35.5532L104.914 35.6955C104.914 35.6955 104.758 35.9569 104.746 36.5005V36.5402C104.746 37.2192 105.213 37.4945 105.32 37.5482C105.36 37.5389 105.563 37.4875 105.733 37.4455C105.514 37.2775 105.154 36.9229 105.154 36.3955V36.3652C105.171 35.6885 105.612 35.3245 106.389 35.3479C106.921 35.3619 107.483 35.7142 107.471 36.2555C107.467 36.4562 107.401 36.6125 107.285 36.7269C107.114 36.8902 106.888 36.9019 106.799 36.8995C106.643 36.8949 106.51 36.8132 106.412 36.7292C106.428 36.8179 106.466 36.9229 106.543 37.0139C106.68 37.1772 106.911 37.2635 107.222 37.2705C107.555 37.2799 108.066 36.9649 108.08 36.4702C108.085 36.2555 108.05 36.1389 108.027 36.0525C107.989 35.9219 107.973 35.8355 108.094 35.6885C108.237 35.5159 108.449 35.5905 108.589 35.6395L108.708 35.6722C108.818 35.6745 109.13 35.3852 109.45 34.9979C109.13 34.6082 108.82 34.3212 108.708 34.3235L108.589 34.3562C108.449 34.4052 108.239 34.4775 108.094 34.3072C107.971 34.1579 107.987 34.0715 108.027 33.9432C108.052 33.8569 108.085 33.7402 108.08 33.5255C108.069 33.0309 107.555 32.7182 107.222 32.7252C106.909 32.7322 106.678 32.8185 106.543 32.9819C106.466 33.0729 106.428 33.1755 106.412 33.2665C106.51 33.1825 106.641 33.1009 106.799 33.0962C106.888 33.0939 107.114 33.1055 107.285 33.2689C107.404 33.3832 107.467 33.5395 107.471 33.7402C107.485 34.2839 106.921 34.6362 106.389 34.6479C105.609 34.6665 105.171 34.3072 105.154 33.6305V33.6002C105.154 33.0752 105.516 32.7205 105.733 32.5502C105.56 32.5059 105.357 32.4569 105.32 32.4475C105.21 32.5012 104.746 32.7742 104.746 33.4555V33.4952C104.76 34.0389 104.914 34.2979 104.914 34.3002L105 34.4425L104.832 34.4332L103.918 34.3749L103.899 34.3632C103.869 34.3469 103.619 34.1672 103.603 33.5069C103.593 33.1289 103.81 32.6505 104.158 32.2842C104.464 31.9599 105.007 31.5725 105.861 31.5515C106.44 31.5375 106.893 31.6075 107.289 31.7779C107.467 31.8549 107.639 31.9575 107.803 32.0579C108.136 32.2585 108.449 32.4452 108.829 32.4475C109.023 32.4499 109.226 32.3635 109.364 32.2259C109.436 32.1512 109.52 32.0322 109.52 31.8712V31.8572C109.518 31.7639 109.471 31.6705 109.394 31.5795C109.394 31.5912 109.401 31.6052 109.401 31.6145C109.401 31.6845 109.387 31.7475 109.359 31.8082C109.291 31.9505 109.149 32.0345 108.969 32.0369C108.734 32.0392 108.577 31.8759 108.442 31.7009C108.286 31.4979 108.143 31.3299 107.95 31.1735C107.453 30.7652 107.021 30.6929 106.526 30.7045C105.957 30.7185 105.535 30.8352 105.075 31.1035C104.891 31.2132 104.739 31.3322 104.608 31.4395C104.373 31.6262 104.188 31.7779 103.974 31.7125C103.78 31.6565 103.752 31.5002 103.729 31.3882C103.717 31.3275 103.705 31.2715 103.675 31.2435C103.631 31.2015 103.584 31.1735 103.54 31.1572C103.449 31.1199 103.351 31.0895 103.253 31.0615C103.103 31.0172 103.117 30.9752 103.094 30.8399C101.094 17.9575 89.9504 8.09452 76.5081 8.09452C63.0658 8.09452 51.9194 17.9622 49.9221 30.8492C49.9058 30.9635 49.9198 31.0149 49.7914 31.0545C49.6841 31.0872 49.5791 31.1199 49.4811 31.1572C49.3598 31.2062 49.3154 31.2645 49.2921 31.3882C49.2688 31.5025 49.2408 31.6542 49.0471 31.7125C48.8324 31.7779 48.6481 31.6285 48.4124 31.4395C48.2794 31.3322 48.1278 31.2132 47.9458 31.1035C47.4838 30.8352 47.0638 30.7185 46.4944 30.7045C45.9998 30.6929 45.5704 30.7652 45.0711 31.1735C44.8774 31.3322 44.7351 31.5002 44.5788 31.7009C44.4434 31.8759 44.2848 32.0392 44.0514 32.0369C43.8718 32.0345 43.7294 31.9505 43.6618 31.8082C43.6338 31.7499 43.6198 31.6822 43.6198 31.6145C43.6198 31.6029 43.6244 31.5889 43.6268 31.5795C43.5498 31.6682 43.5031 31.7615 43.5008 31.8572V31.8712C43.5008 32.0345 43.5848 32.1535 43.6571 32.2259C43.7924 32.3635 43.9978 32.4499 44.1914 32.4475C44.5718 32.4429 44.8844 32.2539 45.2181 32.0579C45.3838 31.9599 45.5541 31.8572 45.7314 31.7779C46.1258 31.6075 46.5808 31.5352 47.1594 31.5515C48.0134 31.5749 48.5571 31.9622 48.8628 32.2842C49.2104 32.6505 49.4274 33.1312 49.4181 33.5069C49.4018 34.1695 49.1521 34.3469 49.1218 34.3632L49.1031 34.3749L48.1884 34.4332L48.0204 34.4425L48.1068 34.3002C48.1068 34.3002 48.2631 34.0389 48.2748 33.4952V33.4555C48.2748 32.7742 47.8081 32.5012 47.7008 32.4475C47.6611 32.4569 47.4581 32.5082 47.2878 32.5502C47.5071 32.7182 47.8664 33.0729 47.8664 33.6002V33.6305C47.8501 34.3072 47.4091 34.6712 46.6321 34.6479C46.1001 34.6339 45.5378 34.2815 45.5494 33.7402C45.5541 33.5395 45.6194 33.3832 45.7361 33.2689C45.9064 33.1055 46.1328 33.0939 46.2214 33.0962C46.3778 33.1009 46.5108 33.1825 46.6088 33.2665C46.5924 33.1779 46.5551 33.0729 46.4781 32.9819C46.3404 32.8185 46.1094 32.7322 45.7991 32.7252C45.4654 32.7159 44.9544 33.0309 44.9404 33.5255C44.9358 33.7402 44.9708 33.8569 44.9941 33.9432C45.0314 34.0739 45.0478 34.1602 44.9264 34.3072C44.7841 34.4775 44.5718 34.4052 44.4318 34.3562L44.3034 34.3282C44.1938 34.3259 43.8811 34.6129 43.5614 35.0025C43.8811 35.3922 44.1914 35.6792 44.3034 35.6769L44.4224 35.6442C44.5624 35.5952 44.7724 35.5229 44.9171 35.6932C45.0408 35.8425 45.0244 35.9289 44.9848 36.0572C44.9591 36.1435 44.9264 36.2602 44.9311 36.4749C44.9428 36.9695 45.4561 37.2822 45.7898 37.2752C46.1024 37.2682 46.3334 37.1819 46.4688 37.0185C46.5458 36.9275 46.5831 36.8249 46.5994 36.7339C46.5014 36.8179 46.3708 36.8995 46.2121 36.9042C46.1234 36.9065 45.8971 36.8949 45.7268 36.7315C45.6078 36.6172 45.5448 36.4609 45.5401 36.2602C45.5261 35.7165 46.0908 35.3642 46.6228 35.3525C47.4021 35.3339 47.8408 35.6932 47.8571 36.3699V36.4002C47.8571 36.9252 47.4954 37.2799 47.2784 37.4502C47.4511 37.4945 47.6541 37.5435 47.6914 37.5529C47.8011 37.4992 48.2654 37.2239 48.2654 36.5449V36.5052C48.2514 35.9615 48.0974 35.7025 48.0974 35.7002L48.0111 35.5579L49.0938 35.6302L49.1124 35.6419C49.1428 35.6582 49.3924 35.8379 49.4088 36.4982C49.4181 36.8762 49.2011 37.3545 48.8534 37.7209C48.5478 38.0429 48.0041 38.4325 47.1501 38.4535C46.5714 38.4675 46.1188 38.3975 45.7221 38.2272C45.5448 38.1502 45.3721 38.0475 45.2088 37.9472C44.8751 37.7465 44.5624 37.5599 44.1821 37.5575C43.9884 37.5552 43.7854 37.6415 43.6478 37.7792C43.5754 37.8539 43.4914 37.9729 43.4914 38.1339V38.1479C43.4938 38.2389 43.5404 38.3322 43.6174 38.4209C43.6174 38.4092 43.6128 38.3975 43.6128 38.3859C43.6128 38.3159 43.6268 38.2529 43.6548 38.1922C43.7224 38.0499 43.8648 37.9659 44.0444 37.9635C44.2801 37.9612 44.4364 38.1245 44.5718 38.2995C44.7281 38.5025 44.8704 38.6705 45.0641 38.8269C45.5634 39.2352 45.9928 39.3075 46.4874 39.2959C47.0568 39.2819 47.4791 39.1652 47.9388 38.8969C48.1231 38.7872 48.2748 38.6682 48.4054 38.5609C48.6411 38.3742 48.8254 38.2225 49.0401 38.2879C49.2338 38.3439 49.2618 38.5002 49.2851 38.6122C49.3038 38.7195 49.3294 38.7662 49.4228 38.8199C49.5254 38.8782 49.6608 38.9132 49.7774 38.9482C49.9011 38.9832 49.8941 39.0135 49.9104 39.1255C50.8834 45.4419 54.0521 51.0325 58.6138 55.0972L54.6588 60.6435C47.4114 54.4625 42.8124 45.2692 42.8124 35.0002C42.8124 16.3965 57.8974 1.31152 76.5011 1.31152ZM94.0944 55.3585L98.0448 60.8979C97.9444 60.9819 97.8418 61.0659 97.7414 61.1499L93.7934 55.6152C93.8938 55.5289 93.9964 55.4449 94.0944 55.3585ZM93.4901 55.8649L97.4334 61.3949L97.1231 61.6399L93.1821 56.1122C93.2848 56.0305 93.3898 55.9489 93.4901 55.8649ZM92.8694 56.3549L96.8104 61.8802C96.5631 62.0669 96.3158 62.2512 96.0638 62.4285L92.1251 56.9102C92.3771 56.7305 92.6244 56.5439 92.8694 56.3572V56.3549ZM60.8771 56.9079L56.9384 62.4285C56.6864 62.2489 56.4391 62.0645 56.1918 61.8802L60.1328 56.3549C60.3778 56.5392 60.6251 56.7259 60.8771 56.9055V56.9079ZM59.8224 56.1122L55.8814 61.6399C55.7788 61.5582 55.6738 61.4789 55.5711 61.3949L59.5144 55.8649C59.6171 55.9489 59.7198 56.0305 59.8224 56.1122ZM59.2111 55.6129L55.2631 61.1475C55.1628 61.0635 55.0601 60.9795 54.9598 60.8955L58.9101 55.3562C59.0104 55.4449 59.1131 55.5289 59.2111 55.6129Z" fill="#EE2E24"/>
<path d="M76.5011 25.3729C82.3478 25.3729 87.0874 20.6332 87.0874 14.7865C87.0874 8.93986 82.3478 4.2002 76.5011 4.2002C70.6544 4.2002 65.9148 8.93986 65.9148 14.7865C65.9148 20.6332 70.6544 25.3729 76.5011 25.3729Z" fill="#009933"/>
<path d="M76.5011 24.981C82.1313 24.981 86.6954 20.4168 86.6954 14.7866C86.6954 9.15644 82.1313 4.59229 76.5011 4.59229C70.8709 4.59229 66.3068 9.15644 66.3068 14.7866C66.3068 20.4168 70.8709 24.981 76.5011 24.981Z" fill="#FFDE00"/>
<path d="M76.5011 23.4714C81.2975 23.4714 85.1858 19.5831 85.1858 14.7867C85.1858 9.99031 81.2975 6.10205 76.5011 6.10205C71.7047 6.10205 67.8164 9.99031 67.8164 14.7867C67.8164 19.5831 71.7047 23.4714 76.5011 23.4714Z" fill="#EE2E24"/>
<path d="M76.5011 23.3404C81.2253 23.3404 85.0551 19.5107 85.0551 14.7864C85.0551 10.0622 81.2253 6.23242 76.5011 6.23242C71.7768 6.23242 67.9471 10.0622 67.9471 14.7864C67.9471 19.5107 71.7768 23.3404 76.5011 23.3404Z" fill="#009933"/>
<path d="M76.5011 22.9463C81.0076 22.9463 84.6608 19.2931 84.6608 14.7866C84.6608 10.2802 81.0076 6.62695 76.5011 6.62695C71.9946 6.62695 68.3414 10.2802 68.3414 14.7866C68.3414 19.2931 71.9946 22.9463 76.5011 22.9463Z" fill="#EE2E24"/>
<path d="M76.5011 22.8153C80.9354 22.8153 84.5301 19.2206 84.5301 14.7863C84.5301 10.352 80.9354 6.75732 76.5011 6.75732C72.0668 6.75732 68.4721 10.352 68.4721 14.7863C68.4721 19.2206 72.0668 22.8153 76.5011 22.8153Z" fill="#FFDE00"/>
<path d="M76.5011 22.1365C80.5604 22.1365 83.8511 18.8458 83.8511 14.7865C83.8511 10.7272 80.5604 7.43652 76.5011 7.43652C72.4418 7.43652 69.1511 10.7272 69.1511 14.7865C69.1511 18.8458 72.4418 22.1365 76.5011 22.1365Z" fill="#EE2E24"/>
<path d="M76.5011 22.006C80.4882 22.006 83.7204 18.7738 83.7204 14.7867C83.7204 10.7996 80.4882 7.56738 76.5011 7.56738C72.514 7.56738 69.2818 10.7996 69.2818 14.7867C69.2818 18.7738 72.514 22.006 76.5011 22.006Z" fill="#009BC9"/>
<path fill-rule="evenodd" clip-rule="evenodd" d="M82.4301 10.9134L81.8841 10.3674L81.3614 10.89L81.3428 11.1724L79.0211 13.494L78.7388 13.5127L78.2161 14.0354L78.7621 14.5814L79.2848 14.0587L79.3034 13.7764L81.6251 11.4547L81.9074 11.436L82.4301 10.9134ZM81.6648 10.1667L81.1188 9.62069L80.5961 10.1434L80.5774 10.4257L78.2558 12.7474L77.9734 12.766L77.4508 13.2887L77.9968 13.8347L78.5194 13.312L78.5381 13.0297L80.8598 10.708L81.1421 10.6894L81.6648 10.1667ZM80.9064 9.40836L80.3604 8.86236L79.8378 9.38503L79.8191 9.66736L77.4974 11.989L77.2151 12.0077L76.6924 12.5304L77.2384 13.0764L77.7611 12.5537L77.7798 12.2714L80.1014 9.94969L80.3838 9.93103L80.9064 9.40836ZM72.6231 20.718L72.0771 20.172L72.5998 19.6494L72.8821 19.6307L75.2038 17.309L75.2224 17.0267L75.7451 16.504L76.2911 17.05L75.7684 17.5727L75.4861 17.5914L73.1644 19.913L73.1458 20.1954L72.6231 20.718ZM71.8741 19.9527L71.3281 19.4067L71.8508 18.884L72.1331 18.8654L74.4548 16.5437L74.4734 16.2614L74.9961 15.7387L75.5421 16.2847L75.0194 16.8074L74.7371 16.826L72.4154 19.1477L72.3968 19.43L71.8741 19.9527ZM71.1181 19.1967L70.5721 18.6507L71.0948 18.128L71.3771 18.1094L73.6988 15.7877L73.7174 15.5054L74.2401 14.9827L74.7861 15.5287L74.2634 16.0514L73.9811 16.07L71.6594 18.3917L71.6408 18.674L71.1181 19.1967ZM82.4278 18.66L81.8818 19.206L81.3591 18.6834L81.3404 18.401L79.0188 16.0794L78.7364 16.0607L78.2138 15.538L78.7598 14.992L79.2824 15.5147L79.3011 15.797L81.6228 18.1187L81.9051 18.1374L82.4278 18.66ZM81.6624 19.4067L81.1164 19.9527L80.5938 19.43L80.5751 19.1477L78.2534 16.826L77.9711 16.8074L77.4484 16.2847L77.9944 15.7387L78.5171 16.2614L78.5358 16.5437L80.8574 18.8654L81.1398 18.884L81.6624 19.4067ZM80.9041 20.165L80.3581 20.711L79.8354 20.1884L79.8168 19.906L77.4951 17.5844L77.2128 17.5657L76.6901 17.043L77.2361 16.497L77.7588 17.0197L77.7774 17.302L80.0991 19.6237L80.3814 19.6424L80.9041 20.165ZM72.6208 8.85303L72.0748 9.39903L72.5974 9.92169L72.8798 9.94036L75.2014 12.262L75.2201 12.5444L75.7428 13.067L76.2888 12.521L75.7661 11.9984L75.4838 11.9797L73.1621 9.65803L73.1434 9.37569L72.6208 8.85303ZM71.8718 9.62069L71.3258 10.1667L71.8484 10.6894L72.1308 10.708L74.4524 13.0297L74.4711 13.312L74.9938 13.8347L75.5398 13.2887L75.0171 12.766L74.7348 12.7474L72.4131 10.4257L72.3944 10.1434L71.8718 9.62069ZM71.1158 10.3767L70.5698 10.9227L71.0924 11.4454L71.3748 11.464L73.6964 13.7857L73.7151 14.068L74.2378 14.5907L74.7838 14.0447L74.2611 13.522L73.9788 13.5034L71.6571 11.1817L71.6384 10.8994L71.1158 10.3767ZM76.4918 15.755L77.0378 16.301L76.4918 16.847L75.9458 16.301L76.4918 15.755ZM75.7358 14.9967L76.2818 15.5427L75.7358 16.0887L75.1898 15.5427L75.7358 14.9967ZM74.9798 14.2407L75.5258 14.7867L74.9798 15.3327L74.4338 14.7867L74.9798 14.2407ZM75.7358 13.4824L76.2818 14.0284L75.7358 14.5744L75.1898 14.0284L75.7358 13.4824ZM76.4918 14.2407L77.0378 14.7867L76.4918 15.3327L75.9458 14.7867L76.4918 14.2407ZM77.2501 14.9967L77.7961 15.5427L77.2501 16.0887L76.7041 15.5427L77.2501 14.9967ZM78.0061 14.2407L78.5521 14.7867L78.0061 15.3327L77.4601 14.7867L78.0061 14.2407ZM77.2501 13.4824L77.7961 14.0284L77.2501 14.5744L76.7041 14.0284L77.2501 13.4824ZM76.4918 12.7264L77.0378 13.2724L76.4918 13.8184L75.9458 13.2724L76.4918 12.7264Z" fill="#FFDE00"/>
<path d="M76.5011 6.76709C76.4778 6.76709 76.4568 6.77876 76.4451 6.79976C76.4451 6.79976 76.2374 7.14276 76.1628 7.26176C76.0788 7.14742 75.8384 6.82076 75.8384 6.82076C75.8244 6.80209 75.8011 6.79042 75.7801 6.79276C75.7568 6.79509 75.7381 6.80676 75.7264 6.83009C75.7264 6.83009 75.5491 7.19642 75.4861 7.32242C75.3928 7.21509 75.1244 6.90942 75.1244 6.90942C75.1104 6.89309 75.0848 6.88376 75.0638 6.88609C75.0404 6.89076 75.0218 6.90476 75.0148 6.92809C75.0148 6.92809 74.8724 7.30842 74.8211 7.43909C74.7184 7.34109 74.4244 7.06109 74.4244 7.06109C74.4081 7.04709 74.3848 7.03776 74.3638 7.04709C74.3404 7.05176 74.3241 7.07042 74.3171 7.09142C74.3171 7.09142 74.2074 7.48109 74.1724 7.61876C74.0604 7.53009 73.7431 7.27809 73.7431 7.27809C73.7268 7.26409 73.7011 7.26176 73.6778 7.26876C73.6544 7.27576 73.6404 7.29676 73.6358 7.31776C73.6358 7.31776 73.5611 7.71676 73.5378 7.85676C73.4188 7.77742 73.0804 7.55576 73.0804 7.55576C73.0618 7.54409 73.0361 7.54176 73.0151 7.55109C72.9964 7.56042 72.9801 7.58142 72.9778 7.60242C72.9778 7.60242 72.9404 8.00842 72.9288 8.14842C72.8028 8.08076 72.4481 7.88942 72.4481 7.88942C72.4294 7.88009 72.4038 7.88009 72.3828 7.89176C72.3641 7.90342 72.3501 7.92442 72.3501 7.94776V8.49609C72.2194 8.44009 71.8461 8.28142 71.8461 8.28142C71.8228 8.27209 71.7994 8.27442 71.7808 8.28842C71.7644 8.30009 71.7528 8.32109 71.7528 8.33976V8.34442C71.7528 8.34442 71.7878 8.75042 71.8018 8.89042C71.6664 8.84609 71.2814 8.72242 71.2814 8.72242C71.2581 8.71542 71.2348 8.72009 71.2161 8.73409C71.2021 8.74576 71.1928 8.76442 71.1928 8.78309V8.79476C71.1928 8.79476 71.2651 9.19376 71.2884 9.33376C71.1508 9.30109 70.7541 9.21242 70.7541 9.21242C70.7308 9.20776 70.7098 9.21476 70.6934 9.23109C70.6818 9.24276 70.6771 9.26142 70.6771 9.27542C70.6771 9.28009 70.6771 9.28709 70.6794 9.29176C70.6794 9.29176 70.7868 9.68142 70.8241 9.81909C70.6841 9.80042 70.2804 9.74676 70.2804 9.74676C70.2571 9.74442 70.2361 9.75142 70.2221 9.77242C70.2128 9.78409 70.2081 9.80042 70.2081 9.81442C70.2081 9.82142 70.2104 9.82842 70.2128 9.83776C70.2128 9.83776 70.3528 10.2181 70.4018 10.3511C70.2618 10.3464 69.8534 10.3254 69.8534 10.3254C69.8301 10.3254 69.8091 10.3348 69.7974 10.3558C69.7904 10.3651 69.7881 10.3814 69.7881 10.3931C69.7881 10.4024 69.7904 10.4118 69.7951 10.4211C69.7951 10.4211 69.9701 10.7874 70.0331 10.9158C69.8931 10.9228 69.4848 10.9414 69.4848 10.9414C69.4614 10.9414 69.4404 10.9554 69.4311 10.9764C69.4264 10.9858 69.4241 10.9951 69.4241 11.0091C69.4241 11.0231 69.4264 11.0324 69.4334 11.0441C69.4334 11.0441 69.6411 11.3918 69.7134 11.5154C69.5734 11.5341 69.1698 11.5901 69.1698 11.5901C69.1464 11.5924 69.1278 11.6064 69.1184 11.6298C69.1161 11.6368 69.1138 11.6461 69.1138 11.6554C69.1138 11.6671 69.1184 11.6834 69.1254 11.6951C69.1254 11.6951 69.3634 12.0241 69.4474 12.1408C69.3098 12.1734 68.9131 12.2644 68.9131 12.2644C68.8898 12.2691 68.8734 12.2878 68.8664 12.3088C68.8641 12.3158 68.8641 12.3204 68.8641 12.3274C68.8641 12.3414 68.8688 12.3601 68.8804 12.3694C68.8804 12.3694 69.1464 12.6751 69.2421 12.7824C69.1068 12.8268 68.7241 12.9528 68.7241 12.9528C68.7008 12.9598 68.6844 12.9784 68.6798 12.9994C68.6798 13.0041 68.6774 13.0088 68.6774 13.0134C68.6774 13.0298 68.6844 13.0484 68.6961 13.0601C68.6961 13.0601 68.9901 13.3401 69.0904 13.4381C68.9598 13.4941 68.5864 13.6528 68.5864 13.6528C68.5631 13.6621 68.5491 13.6831 68.5468 13.7041V13.7134C68.5468 13.7321 68.5561 13.7531 68.5724 13.7648C68.5724 13.7648 68.8874 14.0191 68.9994 14.1078C68.8734 14.1754 68.5188 14.3691 68.5188 14.3691C68.5001 14.3784 68.4861 14.4018 68.4838 14.4228C68.4838 14.4484 68.4931 14.4671 68.5141 14.4788C68.5141 14.4788 68.8524 14.7028 68.9714 14.7821C68.8524 14.8614 68.5141 15.0831 68.5141 15.0831C68.4978 15.0948 68.4838 15.1158 68.4838 15.1368C68.4838 15.1624 68.4978 15.1834 68.5188 15.1928C68.5188 15.1928 68.8758 15.3864 68.9994 15.4541C68.8874 15.5428 68.5724 15.7948 68.5724 15.7948C68.5584 15.8064 68.5468 15.8274 68.5468 15.8461V15.8554C68.5491 15.8788 68.5631 15.8974 68.5864 15.9068C68.5864 15.9068 68.9598 16.0678 69.0904 16.1238C68.9901 16.2218 68.6961 16.5018 68.6961 16.5018C68.6844 16.5134 68.6774 16.5321 68.6774 16.5484C68.6774 16.5531 68.6774 16.5578 68.6798 16.5624C68.6844 16.5858 68.7031 16.6021 68.7241 16.6091C68.7241 16.6091 69.1091 16.7351 69.2444 16.7794C69.1511 16.8868 68.8874 17.1924 68.8874 17.1924C68.8781 17.2041 68.8711 17.2204 68.8711 17.2344C68.8711 17.2414 68.8711 17.2484 68.8734 17.2531C68.8804 17.2764 68.8991 17.2928 68.9201 17.2974C68.9201 17.2974 69.3144 17.3884 69.4544 17.4211C69.3704 17.5378 69.1324 17.8621 69.1324 17.8621C69.1254 17.8738 69.1208 17.8878 69.1208 17.9018C69.1208 17.9111 69.1231 17.9181 69.1254 17.9274C69.1348 17.9508 69.1558 17.9648 69.1768 17.9671C69.1768 17.9671 69.5804 18.0208 69.7204 18.0418C69.6481 18.1631 69.4404 18.5108 69.4404 18.5108C69.4334 18.5201 69.4311 18.5341 69.4311 18.5458C69.4311 18.5551 69.4334 18.5691 69.4381 18.5784C69.4474 18.5971 69.4708 18.6111 69.4918 18.6134C69.4918 18.6134 69.8978 18.6321 70.0401 18.6391C69.9794 18.7674 69.8021 19.1338 69.8021 19.1338C69.7974 19.1431 69.7951 19.1524 69.7951 19.1618C69.7951 19.1734 69.7998 19.1874 69.8044 19.1991C69.8161 19.2178 69.8394 19.2294 69.8604 19.2294C69.8604 19.2294 70.2664 19.2131 70.4064 19.2038C70.3574 19.3368 70.2174 19.7171 70.2174 19.7171C70.2151 19.7241 70.2128 19.7311 70.2128 19.7404C70.2128 19.7544 70.2174 19.7708 70.2268 19.7824C70.2408 19.7988 70.2641 19.8104 70.2851 19.8081C70.2851 19.8081 70.6888 19.7568 70.8288 19.7358C70.7914 19.8711 70.6841 20.2631 70.6841 20.2631C70.6818 20.2678 70.6818 20.2748 70.6818 20.2794C70.6818 20.2958 70.6888 20.3121 70.6981 20.3238C70.7121 20.3401 70.7378 20.3494 70.7588 20.3424C70.7588 20.3424 71.1531 20.2538 71.2931 20.2211C71.2674 20.3611 71.1974 20.7601 71.1974 20.7601V20.7718C71.1974 20.7904 71.2044 20.8091 71.2208 20.8208C71.2371 20.8348 71.2628 20.8394 71.2861 20.8324C71.2861 20.8324 71.6711 20.7088 71.8064 20.6644C71.7948 20.8044 71.7598 21.2104 71.7598 21.2104V21.2151C71.7598 21.2338 71.7691 21.2548 71.7878 21.2664C71.8064 21.2781 71.8298 21.2828 71.8531 21.2734C71.8531 21.2734 72.2264 21.1148 72.3571 21.0588V21.6071C72.3571 21.6304 72.3688 21.6514 72.3898 21.6631C72.4084 21.6748 72.4341 21.6748 72.4551 21.6654C72.4551 21.6654 72.8121 21.4718 72.9381 21.4064C72.9498 21.5464 72.9871 21.9524 72.9871 21.9524C72.9894 21.9758 73.0034 21.9944 73.0244 22.0061C73.0431 22.0154 73.0688 22.0131 73.0898 22.0014C73.0898 22.0014 73.4281 21.7798 73.5471 21.7004C73.5728 21.8404 73.6451 22.2394 73.6451 22.2394C73.6498 22.2628 73.6638 22.2814 73.6871 22.2884C73.7104 22.2954 73.7338 22.2931 73.7524 22.2791C73.7524 22.2791 74.0721 22.0271 74.1818 21.9384C74.2191 22.0738 74.3264 22.4658 74.3264 22.4658C74.3311 22.4891 74.3521 22.5054 74.3731 22.5101C74.3941 22.5148 74.4198 22.5101 74.4338 22.4961C74.4338 22.4961 74.7278 22.2161 74.8281 22.1181C74.8771 22.2511 75.0241 22.6314 75.0241 22.6314C75.0311 22.6548 75.0521 22.6688 75.0731 22.6734C75.0941 22.6781 75.1198 22.6688 75.1338 22.6501C75.1338 22.6501 75.3998 22.3468 75.4954 22.2371C75.5561 22.3654 75.7334 22.7318 75.7334 22.7318C75.7428 22.7504 75.7638 22.7668 75.7871 22.7691C75.8104 22.7714 75.8314 22.7621 75.8454 22.7411C75.8454 22.7411 76.0858 22.4121 76.1698 22.3001C76.2444 22.4214 76.4521 22.7691 76.4521 22.7691C76.4638 22.7878 76.4848 22.8018 76.5081 22.8018C76.5314 22.8018 76.5524 22.7901 76.5641 22.7691C76.5641 22.7691 76.7741 22.4214 76.8464 22.3001C76.9304 22.4144 77.1684 22.7411 77.1684 22.7411C77.1801 22.7598 77.2058 22.7714 77.2268 22.7691C77.2478 22.7668 77.2688 22.7551 77.2804 22.7318C77.2804 22.7318 77.4578 22.3654 77.5208 22.2371C77.6141 22.3444 77.8824 22.6501 77.8824 22.6501C77.8964 22.6664 77.9221 22.6758 77.9431 22.6734C77.9664 22.6688 77.9851 22.6548 77.9921 22.6314C77.9921 22.6314 78.1344 22.2511 78.1858 22.1204C78.2884 22.2184 78.5801 22.4984 78.5801 22.4984C78.5964 22.5124 78.6198 22.5218 78.6408 22.5124C78.6641 22.5078 78.6804 22.4891 78.6851 22.4681C78.6851 22.4681 78.7948 22.0784 78.8344 21.9408C78.9464 22.0294 79.2638 22.2814 79.2638 22.2814C79.2801 22.2954 79.3058 22.2978 79.3291 22.2908C79.3524 22.2838 79.3664 22.2628 79.3711 22.2418C79.3711 22.2418 79.4458 21.8451 79.4691 21.7028C79.5881 21.7821 79.9288 22.0038 79.9288 22.0038C79.9474 22.0154 79.9731 22.0178 79.9941 22.0084C80.0151 21.9991 80.0291 21.9781 80.0314 21.9571C80.0314 21.9571 80.0688 21.5511 80.0804 21.4111C80.2064 21.4788 80.5611 21.6678 80.5611 21.6678C80.5798 21.6771 80.6054 21.6771 80.6264 21.6654C80.6474 21.6538 80.6591 21.6328 80.6591 21.6094V21.0634C80.7898 21.1171 81.1654 21.2758 81.1654 21.2758C81.1888 21.2851 81.2098 21.2804 81.2308 21.2688C81.2471 21.2571 81.2588 21.2361 81.2588 21.2174V21.2128C81.2588 21.2128 81.2238 20.8068 81.2121 20.6668C81.3474 20.7111 81.7324 20.8348 81.7324 20.8348C81.7558 20.8418 81.7791 20.8371 81.7978 20.8231C81.8118 20.8114 81.8211 20.7928 81.8211 20.7741V20.7624C81.8211 20.7624 81.7511 20.3728 81.7254 20.2281C81.8701 20.2678 82.3041 20.3891 82.3041 20.3891C82.3274 20.3961 82.3531 20.3891 82.3694 20.3728C82.3811 20.3611 82.3858 20.3424 82.3858 20.3284C82.3858 20.3214 82.3858 20.3144 82.3834 20.3098C82.3834 20.3098 82.2458 19.8851 82.1991 19.7404C82.3438 19.7591 82.7381 19.8128 82.7381 19.8128C82.7614 19.8151 82.7824 19.8081 82.7964 19.7871C82.8058 19.7754 82.8104 19.7591 82.8104 19.7451C82.8104 19.7381 82.8081 19.7311 82.8058 19.7218C82.8058 19.7218 82.6658 19.3414 82.6168 19.2084C82.7591 19.2154 83.1651 19.2341 83.1651 19.2341C83.1884 19.2341 83.2094 19.2248 83.2211 19.2038C83.2281 19.1944 83.2304 19.1781 83.2304 19.1664C83.2304 19.1571 83.2281 19.1478 83.2234 19.1361C83.2234 19.1361 83.0484 18.7674 82.9854 18.6391C83.1278 18.6321 83.5338 18.6134 83.5338 18.6134C83.5571 18.6134 83.5781 18.5994 83.5874 18.5784C83.5921 18.5691 83.5944 18.5598 83.5944 18.5458C83.5944 18.5318 83.5921 18.5224 83.5851 18.5108C83.5851 18.5108 83.3774 18.1631 83.3051 18.0418C83.4451 18.0231 83.8488 17.9671 83.8488 17.9671C83.8721 17.9648 83.8908 17.9508 83.9001 17.9274C83.9024 17.9204 83.9048 17.9111 83.9048 17.9018C83.9048 17.8901 83.9001 17.8738 83.8931 17.8621C83.8931 17.8621 83.6551 17.5331 83.5711 17.4164C83.7088 17.3838 84.1054 17.2928 84.1054 17.2928C84.1288 17.2881 84.1451 17.2694 84.1521 17.2484C84.1544 17.2414 84.1544 17.2368 84.1544 17.2298C84.1544 17.2158 84.1498 17.1971 84.1404 17.1878C84.1404 17.1878 83.8744 16.8821 83.7834 16.7748C83.9188 16.7304 84.3038 16.6044 84.3038 16.6044C84.3271 16.5974 84.3434 16.5788 84.3481 16.5578C84.3481 16.5531 84.3504 16.5484 84.3504 16.5438C84.3504 16.5274 84.3434 16.5088 84.3318 16.4971C84.3318 16.4971 84.0401 16.2148 83.9374 16.1191C84.0681 16.0631 84.4414 15.9021 84.4414 15.9021C84.4648 15.8928 84.4788 15.8718 84.4811 15.8508V15.8414C84.4811 15.8228 84.4718 15.8018 84.4554 15.7901C84.4554 15.7901 84.1404 15.5358 84.0284 15.4494C84.1544 15.3818 84.5091 15.1904 84.5091 15.1904C84.5278 15.1811 84.5418 15.1578 84.5441 15.1368C84.5441 15.1111 84.5348 15.0924 84.5138 15.0808C84.5138 15.0808 84.1754 14.8568 84.0564 14.7774C84.1754 14.6981 84.5138 14.4741 84.5138 14.4741C84.5301 14.4624 84.5441 14.4414 84.5441 14.4204C84.5441 14.3948 84.5301 14.3738 84.5091 14.3644C84.5091 14.3644 84.1544 14.1708 84.0284 14.1054C84.1404 14.0168 84.4554 13.7624 84.4554 13.7624C84.4694 13.7508 84.4811 13.7298 84.4811 13.7111V13.7018C84.4788 13.6784 84.4648 13.6598 84.4414 13.6504C84.4414 13.6504 84.0704 13.4894 83.9374 13.4358C84.0401 13.3378 84.3318 13.0624 84.3318 13.0624C84.3434 13.0508 84.3504 13.0321 84.3504 13.0158C84.3504 13.0111 84.3504 13.0064 84.3481 13.0018C84.3434 12.9784 84.3248 12.9598 84.3038 12.9551C84.3038 12.9551 83.9211 12.8314 83.7858 12.7894C83.8791 12.6798 84.1474 12.3764 84.1474 12.3764C84.1568 12.3648 84.1638 12.3484 84.1638 12.3344C84.1638 12.3274 84.1638 12.3228 84.1614 12.3158C84.1544 12.2924 84.1358 12.2761 84.1148 12.2714C84.1148 12.2714 83.7204 12.1804 83.5804 12.1478C83.6644 12.0311 83.9024 11.7021 83.9024 11.7021C83.9094 11.6904 83.9141 11.6764 83.9141 11.6624C83.9141 11.6531 83.9118 11.6461 83.9094 11.6368C83.9001 11.6134 83.8791 11.5994 83.8581 11.5971C83.8581 11.5971 83.4591 11.5434 83.3168 11.5224C83.3891 11.4011 83.5991 11.0511 83.5991 11.0511C83.6038 11.0418 83.6084 11.0278 83.6084 11.0161C83.6084 11.0068 83.6061 10.9928 83.6014 10.9834C83.5921 10.9648 83.5688 10.9484 83.5478 10.9484C83.5478 10.9484 83.1418 10.9298 82.9994 10.9204C83.0601 10.7921 83.2374 10.4258 83.2374 10.4258C83.2421 10.4164 83.2444 10.4071 83.2444 10.3978C83.2444 10.3861 83.2421 10.3721 83.2351 10.3604C83.2234 10.3418 83.2001 10.3301 83.1791 10.3301C83.1791 10.3301 82.7731 10.3464 82.6308 10.3534C82.6798 10.2204 82.8244 9.84009 82.8244 9.84009C82.8268 9.83309 82.8291 9.82609 82.8291 9.81676C82.8291 9.80276 82.8244 9.78642 82.8151 9.77476C82.8011 9.75842 82.7778 9.74676 82.7568 9.74909C82.7568 9.74909 82.3531 9.80276 82.2131 9.82142C82.2504 9.68609 82.3578 9.29409 82.3578 9.29409C82.3601 9.28942 82.3601 9.28242 82.3601 9.27776C82.3601 9.26142 82.3531 9.24509 82.3438 9.23342C82.3298 9.21709 82.3041 9.20776 82.2831 9.21476C82.2831 9.21476 81.8888 9.30342 81.7488 9.33609C81.7744 9.19609 81.8444 8.79709 81.8444 8.79709V8.78542C81.8444 8.76676 81.8374 8.74809 81.8211 8.73642C81.8048 8.72242 81.7791 8.71776 81.7558 8.72476C81.7558 8.72476 81.3684 8.84842 81.2354 8.89276C81.2471 8.75276 81.2844 8.34676 81.2844 8.34676V8.34209C81.2844 8.32342 81.2751 8.30242 81.2564 8.29076C81.2378 8.27909 81.2144 8.27442 81.1911 8.28376C81.1911 8.28376 80.8178 8.44242 80.6871 8.49609V7.94776C80.6871 7.92442 80.6754 7.90342 80.6544 7.89176C80.6334 7.88009 80.6101 7.88009 80.5891 7.88942C80.5891 7.88942 80.2321 8.07842 80.1061 8.14609C80.0944 8.00609 80.0571 7.60009 80.0571 7.60009C80.0548 7.57676 80.0408 7.55809 80.0198 7.54642C80.0011 7.53709 79.9754 7.53942 79.9544 7.55109C79.9544 7.55109 79.6161 7.77276 79.4971 7.84976C79.4714 7.70976 79.3991 7.31076 79.3991 7.31076C79.3944 7.28742 79.3804 7.26876 79.3571 7.26176C79.3338 7.25476 79.3104 7.25709 79.2918 7.27109C79.2918 7.27109 78.9721 7.52309 78.8624 7.61176C78.8251 7.47642 78.7178 7.08442 78.7178 7.08442C78.7108 7.06109 78.6921 7.04476 78.6711 7.03776C78.6501 7.03076 78.6244 7.03776 78.6104 7.05176C78.6104 7.05176 78.3164 7.33176 78.2138 7.42976C78.1648 7.29676 78.0201 6.91642 78.0201 6.91642C78.0131 6.89309 77.9921 6.87909 77.9711 6.87442C77.9501 6.86976 77.9244 6.87909 77.9104 6.89776C77.9104 6.89776 77.6444 7.20109 77.5488 7.30842C77.4881 7.18009 77.3108 6.81376 77.3108 6.81376C77.3014 6.79509 77.2804 6.77876 77.2571 6.77642C77.2338 6.77409 77.2128 6.78342 77.1988 6.80442C77.1988 6.80442 76.9561 7.13576 76.8744 7.25009C76.7998 7.13109 76.5828 6.78576 76.5828 6.78576C76.5548 6.78109 76.5338 6.76942 76.5104 6.76942L76.5011 6.76709ZM76.1721 7.44609C76.1954 7.44609 76.2141 7.43442 76.2258 7.41342C76.2258 7.41342 76.4264 7.08209 76.5034 6.95609C76.5828 7.08209 76.7904 7.41109 76.7904 7.41109C76.8021 7.42742 76.8231 7.44142 76.8441 7.44142C76.8651 7.44142 76.8861 7.43209 76.8978 7.41342C76.8978 7.41342 77.1241 7.10309 77.2128 6.97942C77.2804 7.11476 77.4484 7.46242 77.4484 7.46242C77.4578 7.48109 77.4764 7.49742 77.4974 7.49976C77.5184 7.50209 77.5418 7.49509 77.5558 7.47642C77.5558 7.47642 77.8101 7.18709 77.9104 7.07276C77.9618 7.21276 78.0994 7.57676 78.0994 7.57676C78.1064 7.59542 78.1251 7.61409 78.1461 7.61876C78.1671 7.62342 78.1904 7.61876 78.2044 7.60242C78.2044 7.60242 78.4844 7.33642 78.5941 7.23142C78.6338 7.37609 78.7364 7.74942 78.7364 7.74942C78.7411 7.77276 78.7598 7.78676 78.7784 7.79376C78.8018 7.80076 78.8228 7.79609 78.8391 7.78442C78.8391 7.78442 79.1401 7.54409 79.2591 7.45076C79.2871 7.60009 79.3548 7.97809 79.3548 7.97809C79.3594 8.00142 79.3711 8.01776 79.3944 8.02709C79.4131 8.03409 79.4388 8.03409 79.4551 8.02242C79.4551 8.02242 79.7794 7.81009 79.9054 7.72842C79.9171 7.88009 79.9544 8.26509 79.9544 8.26509C79.9568 8.28842 79.9684 8.30709 79.9894 8.31642C80.0104 8.32576 80.0314 8.32576 80.0501 8.31642C80.0501 8.31642 80.3908 8.13442 80.5238 8.06442V8.60342C80.5238 8.62676 80.5331 8.64542 80.5541 8.65709C80.5704 8.66876 80.5961 8.67109 80.6148 8.66176C80.6148 8.66176 80.9694 8.51009 81.1094 8.45176C81.0978 8.60342 81.0628 8.98609 81.0628 8.98609V8.99076C81.0628 9.00942 81.0721 9.03042 81.0884 9.04209C81.1048 9.05609 81.1281 9.05842 81.1491 9.05376C81.1491 9.05376 81.5178 8.93476 81.6601 8.88809C81.6321 9.03742 81.5644 9.41542 81.5644 9.41542V9.42709C81.5644 9.44342 81.5714 9.46209 81.5831 9.47376C81.5971 9.48776 81.6228 9.49709 81.6414 9.49009C81.6414 9.49009 82.0194 9.40609 82.1641 9.37109C82.1244 9.51576 82.0218 9.88909 82.0218 9.88909C82.0194 9.89376 82.0194 9.90076 82.0194 9.90542C82.0194 9.91942 82.0241 9.93809 82.0358 9.94742C82.0498 9.96376 82.0731 9.97309 82.0941 9.97076C82.0941 9.97076 82.4768 9.91942 82.6284 9.89842C82.5771 10.0384 82.4418 10.4024 82.4418 10.4024C82.4394 10.4094 82.4371 10.4164 82.4371 10.4258C82.4371 10.4398 82.4418 10.4538 82.4488 10.4654C82.4604 10.4818 82.4838 10.4934 82.5048 10.4934C82.5048 10.4934 82.8898 10.4771 83.0414 10.4701C82.9738 10.6054 82.8104 10.9531 82.8104 10.9531C82.8058 10.9624 82.8034 10.9718 82.8034 10.9834C82.8034 10.9951 82.8058 11.0068 82.8128 11.0184C82.8244 11.0371 82.8454 11.0511 82.8664 11.0511C82.8664 11.0511 83.2514 11.0698 83.4031 11.0791C83.3261 11.2074 83.1254 11.5411 83.1254 11.5411C83.1208 11.5504 83.1161 11.5644 83.1161 11.5761C83.1161 11.5854 83.1184 11.5948 83.1231 11.6041C83.1324 11.6228 83.1534 11.6391 83.1721 11.6414C83.1721 11.6414 83.5548 11.6928 83.7041 11.7161C83.6154 11.8398 83.3891 12.1501 83.3891 12.1501C83.3821 12.1618 83.3774 12.1758 83.3774 12.1898C83.3774 12.1968 83.3798 12.2038 83.3821 12.2131C83.3891 12.2318 83.4078 12.2504 83.4288 12.2551C83.4288 12.2551 83.8044 12.3414 83.9514 12.3764C83.8534 12.4908 83.5991 12.7824 83.5991 12.7824C83.5898 12.7941 83.5828 12.8104 83.5828 12.8244C83.5828 12.8291 83.5828 12.8361 83.5851 12.8408C83.5898 12.8641 83.6084 12.8781 83.6271 12.8851C83.6271 12.8851 83.9911 13.0018 84.1358 13.0484C84.0238 13.1511 83.7508 13.4148 83.7508 13.4148C83.7391 13.4264 83.7321 13.4451 83.7321 13.4614V13.4731C83.7368 13.4964 83.7508 13.5128 83.7718 13.5221C83.7718 13.5221 84.1264 13.6761 84.2664 13.7344C84.1474 13.8278 83.8464 14.0704 83.8464 14.0704C83.8324 14.0821 83.8208 14.1031 83.8208 14.1218V14.1264C83.8231 14.1498 83.8348 14.1684 83.8558 14.1778C83.8558 14.1778 84.1941 14.3598 84.3271 14.4321C84.2011 14.5161 83.8791 14.7284 83.8791 14.7284C83.8628 14.7401 83.8488 14.7611 83.8488 14.7821C83.8488 14.8054 83.8581 14.8241 83.8791 14.8358C83.8791 14.8358 84.2011 15.0504 84.3271 15.1321C84.1941 15.2044 83.8534 15.3864 83.8534 15.3864C83.8348 15.3958 83.8208 15.4168 83.8184 15.4378V15.4424C83.8184 15.4611 83.8278 15.4821 83.8441 15.4938C83.8441 15.4938 84.1451 15.7364 84.2641 15.8298C84.1264 15.8881 83.7694 16.0421 83.7694 16.0421C83.7508 16.0514 83.7344 16.0701 83.7298 16.0911V16.1028C83.7298 16.1191 83.7368 16.1378 83.7484 16.1494C83.7484 16.1494 84.0284 16.4154 84.1358 16.5228C83.9934 16.5694 83.6248 16.6908 83.6248 16.6908C83.6061 16.6978 83.5874 16.7164 83.5828 16.7351C83.5804 16.7398 83.5804 16.7468 83.5804 16.7514C83.5804 16.7654 83.5851 16.7841 83.5944 16.7934C83.5944 16.7934 83.8488 17.0851 83.9468 17.1994C83.7974 17.2344 83.4241 17.3208 83.4241 17.3208C83.4008 17.3254 83.3844 17.3394 83.3774 17.3628C83.3751 17.3698 83.3728 17.3768 83.3728 17.3861C83.3728 17.4001 83.3774 17.4141 83.3844 17.4258C83.3844 17.4258 83.6108 17.7384 83.6994 17.8598C83.5501 17.8784 83.1674 17.9344 83.1674 17.9344C83.1441 17.9368 83.1278 17.9508 83.1184 17.9718C83.1138 17.9811 83.1114 17.9904 83.1114 18.0021C83.1114 18.0138 83.1138 18.0254 83.1208 18.0371C83.1208 18.0371 83.3191 18.3684 83.3938 18.4991C83.2421 18.5061 82.8571 18.5248 82.8571 18.5248C82.8338 18.5248 82.8151 18.5364 82.8034 18.5574C82.7988 18.5668 82.7941 18.5808 82.7941 18.5924C82.7941 18.6018 82.7964 18.6111 82.8011 18.6228C82.8011 18.6228 82.9691 18.9704 83.0321 19.1081C82.8804 19.1011 82.4931 19.0824 82.4931 19.0824C82.4698 19.0824 82.4511 19.0918 82.4371 19.1104C82.4301 19.1221 82.4254 19.1361 82.4254 19.1501C82.4254 19.1571 82.4278 19.1641 82.4301 19.1734C82.4301 19.1734 82.5654 19.5351 82.6168 19.6774C82.4651 19.6588 82.0824 19.6051 82.0824 19.6051C82.0591 19.6028 82.0381 19.6098 82.0241 19.6284C82.0148 19.6401 82.0101 19.6564 82.0101 19.6704C82.0101 19.6774 82.0101 19.6844 82.0124 19.6891C82.0124 19.6891 82.1408 20.0834 82.1921 20.2421C82.0311 20.1978 81.6321 20.0858 81.6321 20.0858C81.6088 20.0811 81.5878 20.0858 81.5714 20.0998C81.5574 20.1114 81.5481 20.1301 81.5481 20.1488V20.1604C81.5481 20.1604 81.6181 20.5408 81.6438 20.6878C81.5014 20.6411 81.1328 20.5221 81.1328 20.5221C81.1141 20.5151 81.0884 20.5198 81.0721 20.5338C81.0581 20.5454 81.0464 20.5664 81.0464 20.5851V20.5898C81.0464 20.5898 81.0814 20.9748 81.0931 21.1264C80.9554 21.0681 80.5961 20.9164 80.5961 20.9164C80.5774 20.9094 80.5518 20.9094 80.5354 20.9211C80.5191 20.9328 80.5051 20.9538 80.5051 20.9748V21.5114C80.3721 21.4391 80.0338 21.2594 80.0338 21.2594C80.0151 21.2501 79.9918 21.2501 79.9731 21.2594C79.9544 21.2688 79.9404 21.2898 79.9381 21.3108C79.9381 21.3108 79.9031 21.6958 79.8891 21.8474C79.7631 21.7634 79.4364 21.5511 79.4364 21.5511C79.4201 21.5394 79.3944 21.5371 79.3758 21.5464C79.3571 21.5558 79.3408 21.5744 79.3361 21.5954C79.3361 21.5954 79.2661 21.9758 79.2404 22.1228C79.1214 22.0294 78.8181 21.7891 78.8181 21.7891C78.8018 21.7774 78.7784 21.7728 78.7574 21.7798C78.7388 21.7868 78.7201 21.8054 78.7154 21.8241C78.7154 21.8241 78.6128 22.1974 78.5731 22.3398C78.4634 22.2371 78.1858 21.9688 78.1858 21.9688C78.1718 21.9548 78.1461 21.9454 78.1274 21.9524C78.1041 21.9571 78.0878 21.9711 78.0808 21.9944C78.0808 21.9944 77.9454 22.3561 77.8918 22.4984C77.7938 22.3841 77.5394 22.0948 77.5394 22.0948C77.5254 22.0784 77.5021 22.0691 77.4811 22.0714C77.4578 22.0738 77.4414 22.0878 77.4321 22.1088C77.4321 22.1088 77.2641 22.4564 77.1964 22.5918C77.1078 22.4704 76.8814 22.1601 76.8814 22.1601C76.8698 22.1438 76.8464 22.1321 76.8254 22.1321C76.8044 22.1321 76.7834 22.1438 76.7718 22.1648C76.7718 22.1648 76.5711 22.4961 76.4941 22.6268C76.4171 22.4984 76.2164 22.1648 76.2164 22.1648C76.2048 22.1461 76.1838 22.1344 76.1628 22.1321C76.1394 22.1321 76.1208 22.1414 76.1068 22.1601C76.1068 22.1601 75.8804 22.4704 75.7918 22.5941C75.7241 22.4588 75.5561 22.1111 75.5561 22.1111C75.5468 22.0924 75.5258 22.0761 75.5071 22.0738C75.4838 22.0714 75.4628 22.0784 75.4488 22.0971C75.4488 22.0971 75.1944 22.3888 75.0964 22.5031C75.0428 22.3631 74.9074 21.9991 74.9074 21.9991C74.9004 21.9804 74.8818 21.9618 74.8608 21.9594C74.8374 21.9548 74.8164 21.9618 74.8024 21.9758C74.8024 21.9758 74.5224 22.2418 74.4151 22.3468C74.3754 22.2021 74.2728 21.8288 74.2728 21.8288C74.2681 21.8054 74.2494 21.7914 74.2308 21.7844C74.2121 21.7774 74.1864 21.7821 74.1701 21.7938C74.1701 21.7938 73.8668 22.0341 73.7501 22.1274C73.7221 21.9781 73.6544 21.6001 73.6544 21.6001C73.6498 21.5768 73.6358 21.5604 73.6148 21.5511C73.5961 21.5418 73.5704 21.5441 73.5541 21.5558C73.5541 21.5558 73.2298 21.7681 73.1038 21.8521C73.0898 21.7004 73.0548 21.3178 73.0548 21.3178C73.0524 21.2944 73.0408 21.2758 73.0198 21.2664C72.9988 21.2571 72.9778 21.2571 72.9591 21.2664C72.9591 21.2664 72.6184 21.4484 72.4854 21.5208V20.9818C72.4854 20.9584 72.4738 20.9398 72.4551 20.9281C72.4364 20.9164 72.4131 20.9141 72.3944 20.9234C72.3944 20.9234 72.0398 21.0751 71.8998 21.1334C71.9114 20.9818 71.9464 20.5968 71.9464 20.5968V20.5921C71.9464 20.5734 71.9371 20.5524 71.9208 20.5408C71.9044 20.5268 71.8811 20.5244 71.8601 20.5291C71.8601 20.5291 71.4914 20.6481 71.3491 20.6948C71.3771 20.5454 71.4448 20.1674 71.4448 20.1674V20.1558C71.4448 20.1394 71.4378 20.1208 71.4261 20.1091C71.4121 20.0951 71.3864 20.0858 71.3678 20.0928C71.3678 20.0928 70.9921 20.1768 70.8451 20.2118C70.8848 20.0671 70.9874 19.6938 70.9874 19.6938C70.9898 19.6891 70.9898 19.6821 70.9898 19.6774C70.9898 19.6634 70.9851 19.6448 70.9734 19.6354C70.9594 19.6191 70.9361 19.6098 70.9151 19.6121C70.9151 19.6121 70.5324 19.6611 70.3808 19.6821C70.4321 19.5421 70.5674 19.1781 70.5674 19.1781C70.5698 19.1711 70.5721 19.1641 70.5721 19.1548C70.5721 19.1408 70.5674 19.1268 70.5604 19.1151C70.5488 19.0988 70.5254 19.0871 70.5044 19.0871C70.5044 19.0871 70.1194 19.1034 69.9678 19.1104C70.0331 18.9751 70.1988 18.6274 70.1988 18.6274C70.2034 18.6181 70.2058 18.6088 70.2058 18.5994C70.2058 18.5878 70.2034 18.5761 70.1964 18.5644C70.1848 18.5458 70.1638 18.5318 70.1428 18.5318C70.1428 18.5318 69.7578 18.5154 69.6061 18.5061C69.6831 18.3778 69.8791 18.0441 69.8791 18.0441C69.8861 18.0348 69.8884 18.0208 69.8884 18.0091C69.8884 17.9998 69.8861 17.9904 69.8814 17.9788C69.8721 17.9601 69.8511 17.9438 69.8324 17.9414C69.8324 17.9414 69.4498 17.8901 69.2981 17.8668C69.3868 17.7454 69.6108 17.4328 69.6108 17.4328C69.6178 17.4211 69.6224 17.4071 69.6224 17.3931C69.6224 17.3861 69.6201 17.3791 69.6178 17.3698C69.6108 17.3511 69.5921 17.3324 69.5711 17.3278C69.5711 17.3278 69.1931 17.2414 69.0484 17.2064C69.1464 17.0921 69.4008 16.8004 69.4008 16.8004C69.4101 16.7888 69.4171 16.7724 69.4171 16.7584C69.4171 16.7538 69.4171 16.7468 69.4148 16.7421C69.4101 16.7188 69.3914 16.7048 69.3728 16.6978C69.3728 16.6978 69.0041 16.5764 68.8618 16.5298C68.9714 16.4271 69.2491 16.1588 69.2491 16.1588C69.2608 16.1471 69.2678 16.1284 69.2678 16.1121V16.1004C69.2631 16.0771 69.2514 16.0608 69.2281 16.0514C69.2281 16.0514 68.8734 15.8974 68.7334 15.8391C68.8524 15.7458 69.1534 15.5031 69.1534 15.5031C69.1674 15.4914 69.1791 15.4704 69.1791 15.4518V15.4471C69.1768 15.4238 69.1651 15.4051 69.1441 15.3958C69.1441 15.3958 68.8034 15.2114 68.6728 15.1391C68.7988 15.0551 69.1208 14.8428 69.1208 14.8428C69.1371 14.8311 69.1511 14.8101 69.1511 14.7891C69.1511 14.7658 69.1418 14.7471 69.1208 14.7354C69.1208 14.7354 68.7988 14.5208 68.6728 14.4391C68.8058 14.3668 69.1464 14.1824 69.1464 14.1824C69.1651 14.1731 69.1791 14.1521 69.1814 14.1311V14.1264C69.1814 14.1078 69.1721 14.0868 69.1558 14.0751C69.1558 14.0751 68.8548 13.8324 68.7358 13.7391C68.8734 13.6808 69.2304 13.5268 69.2304 13.5268C69.2491 13.5174 69.2654 13.4988 69.2701 13.4778V13.4661C69.2701 13.4498 69.2631 13.4311 69.2514 13.4194C69.2514 13.4194 68.9714 13.1534 68.8641 13.0484C69.0064 13.0018 69.3728 12.8828 69.3728 12.8828C69.3914 12.8758 69.4101 12.8571 69.4148 12.8384C69.4171 12.8338 69.4171 12.8268 69.4171 12.8221C69.4171 12.8081 69.4124 12.7894 69.4008 12.7801C69.4008 12.7801 69.1464 12.4884 69.0484 12.3741C69.1978 12.3391 69.5711 12.2528 69.5711 12.2528C69.5944 12.2481 69.6108 12.2341 69.6178 12.2108C69.6201 12.2038 69.6224 12.1968 69.6224 12.1874C69.6224 12.1734 69.6178 12.1594 69.6108 12.1478C69.6108 12.1478 69.3844 11.8351 69.2958 11.7138C69.4474 11.6951 69.8301 11.6391 69.8301 11.6391C69.8534 11.6368 69.8698 11.6228 69.8791 11.6018C69.8838 11.5924 69.8861 11.5831 69.8861 11.5714C69.8861 11.5598 69.8838 11.5481 69.8768 11.5364C69.8768 11.5364 69.6784 11.2051 69.6038 11.0744C69.7554 11.0674 70.1404 11.0488 70.1404 11.0488C70.1638 11.0488 70.1824 11.0371 70.1941 11.0161C70.1988 11.0068 70.2034 10.9928 70.2034 10.9811C70.2034 10.9718 70.2011 10.9624 70.1964 10.9531C70.1964 10.9531 70.0284 10.6054 69.9654 10.4701C70.1171 10.4771 70.5021 10.4934 70.5021 10.4934C70.5254 10.4934 70.5441 10.4841 70.5581 10.4654C70.5651 10.4538 70.5698 10.4398 70.5698 10.4258C70.5698 10.4188 70.5674 10.4118 70.5651 10.4024C70.5651 10.4024 70.4298 10.0408 70.3784 9.89842C70.5301 9.91709 70.9128 9.97076 70.9128 9.97076C70.9361 9.97309 70.9571 9.96609 70.9711 9.94742C70.9804 9.93576 70.9874 9.91942 70.9874 9.90542C70.9874 9.90076 70.9874 9.89376 70.9851 9.88909C70.9851 9.88909 70.8848 9.51576 70.8451 9.37109C70.9944 9.40609 71.3678 9.49009 71.3678 9.49009C71.3911 9.49476 71.4121 9.49009 71.4261 9.47376C71.4378 9.46209 71.4448 9.44342 71.4448 9.42709V9.41542C71.4448 9.41542 71.3748 9.03509 71.3514 8.88809C71.4938 8.93476 71.8624 9.05376 71.8624 9.05376C71.8811 9.06076 71.9068 9.05609 71.9231 9.04209C71.9371 9.03042 71.9488 9.00942 71.9488 8.99076V8.98609C71.9488 8.98609 71.9138 8.60109 71.9021 8.44942C72.0398 8.50776 72.3968 8.65942 72.3968 8.65942C72.4154 8.66642 72.4411 8.66642 72.4574 8.65476C72.4738 8.64309 72.4878 8.62209 72.4878 8.60109V8.06209C72.6208 8.13442 72.9614 8.31642 72.9614 8.31642C72.9801 8.32576 73.0034 8.32576 73.0221 8.31642C73.0408 8.30709 73.0548 8.28609 73.0571 8.26509C73.0571 8.26509 73.0921 7.88009 73.1061 7.72842C73.2321 7.81242 73.5564 8.02242 73.5564 8.02242C73.5728 8.03409 73.5984 8.03642 73.6171 8.02709C73.6358 8.02009 73.6521 7.99909 73.6568 7.97809C73.6568 7.97809 73.7268 7.59776 73.7524 7.45076C73.8714 7.54409 74.1724 7.78442 74.1724 7.78442C74.1888 7.79842 74.2121 7.80076 74.2331 7.79376C74.2518 7.78676 74.2704 7.76809 74.2751 7.74942C74.2751 7.74942 74.3778 7.37609 74.4174 7.23142C74.5271 7.33409 74.8071 7.60242 74.8071 7.60242C74.8211 7.61642 74.8468 7.62576 74.8654 7.61876C74.8888 7.61409 74.9051 7.60009 74.9121 7.57909C74.9121 7.57909 75.0474 7.21742 75.1011 7.07742C75.1991 7.19176 75.4534 7.48342 75.4534 7.48342C75.4674 7.49976 75.4908 7.50909 75.5118 7.50676C75.5351 7.50442 75.5514 7.49042 75.5608 7.46942C75.5608 7.46942 75.7288 7.12176 75.7964 6.98642C75.8851 7.10776 76.1114 7.42042 76.1114 7.42042C76.1231 7.43442 76.1464 7.44609 76.1674 7.44609H76.1721Z" fill="#EE2E24"/>
<path d="M81.8374 10.3206L81.3148 10.8433C81.3031 10.8549 81.2984 10.8713 81.2961 10.8853C81.2961 10.8853 81.2821 11.1023 81.2798 11.1419C81.2448 11.1769 79.0281 13.3936 78.9931 13.4286C78.9534 13.4309 78.7364 13.4449 78.7364 13.4449C78.7224 13.4449 78.7061 13.4519 78.6944 13.4636L78.1718 13.9863C78.1601 13.9979 78.1531 14.0166 78.1531 14.0329C78.1531 14.0493 78.1601 14.0679 78.1718 14.0796L78.7178 14.6256C78.7294 14.6373 78.7481 14.6443 78.7644 14.6443C78.7808 14.6443 78.7994 14.6373 78.8111 14.6256L79.3338 14.1029C79.3454 14.0913 79.3501 14.0749 79.3524 14.0609C79.3524 14.0609 79.3664 13.8439 79.3688 13.8043C79.4038 13.7693 81.6204 11.5526 81.6554 11.5176C81.6974 11.5153 81.9121 11.5013 81.9121 11.5013C81.9261 11.5013 81.9424 11.4943 81.9541 11.4826L82.4768 10.9599C82.4884 10.9483 82.4954 10.9296 82.4954 10.9133C82.4954 10.8969 82.4884 10.8783 82.4768 10.8666L81.9308 10.3206C81.9028 10.2949 81.8608 10.2949 81.8374 10.3206ZM81.8841 10.4606C81.9564 10.5329 82.2668 10.8433 82.3391 10.9156C82.2644 10.9903 81.9098 11.3449 81.8794 11.3753C81.8374 11.3776 81.6228 11.3916 81.6228 11.3916C81.6088 11.3916 81.5924 11.3986 81.5808 11.4103L79.2591 13.7319C79.2474 13.7436 79.2428 13.7599 79.2404 13.7739C79.2404 13.7739 79.2264 13.9909 79.2241 14.0306C79.1938 14.0609 78.8391 14.4156 78.7644 14.4903C78.6921 14.4179 78.3818 14.1076 78.3118 14.0353C78.3864 13.9606 78.7411 13.6059 78.7714 13.5756C78.8134 13.5733 79.0281 13.5593 79.0281 13.5593C79.0421 13.5593 79.0584 13.5523 79.0701 13.5406L81.3918 11.2189C81.4034 11.2073 81.4081 11.1909 81.4104 11.1769C81.4104 11.1769 81.4244 10.9599 81.4268 10.9203C81.4524 10.8899 81.8094 10.5353 81.8841 10.4606ZM81.0721 9.57393L80.5494 10.0966C80.5378 10.1083 80.5331 10.1246 80.5308 10.1386C80.5308 10.1386 80.5168 10.3556 80.5144 10.3953C80.4794 10.4303 78.2628 12.6469 78.2278 12.6819C78.1858 12.6843 77.9711 12.6983 77.9711 12.6983C77.9571 12.6983 77.9408 12.7053 77.9291 12.7169L77.4064 13.2396C77.3948 13.2513 77.3878 13.2699 77.3878 13.2863C77.3878 13.3026 77.3948 13.3213 77.4064 13.3329L77.9524 13.8789C77.9781 13.9046 78.0201 13.9046 78.0458 13.8789L78.5684 13.3563C78.5801 13.3446 78.5848 13.3283 78.5871 13.3143C78.5871 13.3143 78.6011 13.0973 78.6034 13.0576C78.6384 13.0226 80.8551 10.8059 80.8901 10.7709C80.9298 10.7686 81.1468 10.7546 81.1468 10.7546C81.1608 10.7546 81.1771 10.7476 81.1888 10.7359L81.7114 10.2133C81.7231 10.2016 81.7301 10.1829 81.7301 10.1666C81.7301 10.1503 81.7231 10.1316 81.7114 10.1199L81.1654 9.57393C81.1374 9.54593 81.0954 9.54593 81.0721 9.57393ZM81.1188 9.7116C81.1911 9.78393 81.5014 10.0943 81.5738 10.1666C81.4991 10.2413 81.1444 10.5959 81.1141 10.6263C81.0744 10.6286 80.8574 10.6426 80.8574 10.6426C80.8434 10.6426 80.8271 10.6496 80.8154 10.6613L78.4938 12.9829C78.4821 12.9946 78.4774 13.0109 78.4751 13.0249C78.4751 13.0249 78.4611 13.2419 78.4588 13.2816C78.4284 13.3119 78.0738 13.6666 77.9991 13.7413C77.9268 13.6689 77.6164 13.3586 77.5441 13.2863C77.6188 13.2116 77.9734 12.8569 78.0038 12.8266C78.0458 12.8243 78.2604 12.8103 78.2604 12.8103C78.2744 12.8103 78.2908 12.8033 78.3024 12.7916L80.6241 10.4699C80.6358 10.4583 80.6404 10.4419 80.6428 10.4279C80.6428 10.4279 80.6568 10.2109 80.6591 10.1713C80.6871 10.1433 81.0418 9.78626 81.1188 9.7116ZM80.3604 8.79693C80.3441 8.79693 80.3254 8.80393 80.3138 8.8156L79.7911 9.33826C79.7794 9.34993 79.7748 9.36626 79.7724 9.38026C79.7724 9.38026 79.7584 9.59726 79.7561 9.63693C79.7211 9.67193 77.5044 11.8886 77.4694 11.9236C77.4274 11.9259 77.2128 11.9399 77.2128 11.9399C77.1988 11.9399 77.1824 11.9469 77.1708 11.9586L76.6481 12.4813C76.6364 12.4929 76.6294 12.5116 76.6294 12.5279C76.6294 12.5443 76.6364 12.5629 76.6481 12.5746L77.1941 13.1206C77.2198 13.1463 77.2618 13.1463 77.2874 13.1206L77.8101 12.5979C77.8218 12.5863 77.8264 12.5699 77.8288 12.5559C77.8288 12.5559 77.8428 12.3389 77.8451 12.2993C77.8801 12.2643 80.0968 10.0476 80.1318 10.0126C80.1738 10.0103 80.3884 9.99626 80.3884 9.99626C80.4024 9.99626 80.4188 9.98926 80.4304 9.9776L80.9531 9.45493C80.9648 9.44326 80.9718 9.4246 80.9718 9.40826C80.9718 9.39193 80.9648 9.37326 80.9531 9.3616L80.4071 8.8156C80.3954 8.8016 80.3768 8.79693 80.3604 8.79693ZM80.3604 8.9556C80.4328 9.02793 80.7431 9.33826 80.8154 9.4106C80.7408 9.48526 80.3861 9.83993 80.3558 9.87026C80.3138 9.8726 80.0991 9.8866 80.0991 9.8866C80.0851 9.8866 80.0688 9.8936 80.0571 9.90526L77.7354 12.2269C77.7238 12.2386 77.7191 12.2549 77.7168 12.2689C77.7168 12.2689 77.7028 12.4859 77.7004 12.5256C77.6701 12.5559 77.3154 12.9106 77.2408 12.9853C77.1684 12.9129 76.8581 12.6026 76.7858 12.5303C76.8604 12.4556 77.2151 12.1009 77.2454 12.0706C77.2851 12.0683 77.5021 12.0543 77.5021 12.0543C77.5161 12.0543 77.5324 12.0473 77.5441 12.0356L79.8658 9.71393C79.8774 9.70226 79.8821 9.68593 79.8844 9.67193C79.8844 9.67193 79.8984 9.45493 79.9008 9.41526C79.9311 9.38493 80.2858 9.03026 80.3604 8.9556ZM75.7474 16.4386C75.7311 16.4386 75.7124 16.4456 75.7008 16.4573L75.1781 16.9799C75.1664 16.9916 75.1618 17.0079 75.1594 17.0219C75.1594 17.0219 75.1454 17.2389 75.1431 17.2786L72.8564 19.5653C72.8144 19.5676 72.5998 19.5816 72.5998 19.5816C72.5858 19.5816 72.5694 19.5886 72.5578 19.6003L72.0351 20.1229C72.0234 20.1346 72.0164 20.1533 72.0164 20.1696C72.0164 20.1859 72.0234 20.2046 72.0351 20.2163L72.5811 20.7623C72.5928 20.7739 72.6114 20.7809 72.6278 20.7809C72.6441 20.7809 72.6628 20.7739 72.6744 20.7623L73.1971 20.2396C73.2088 20.2279 73.2134 20.2116 73.2158 20.1976C73.2158 20.1976 73.2298 19.9806 73.2321 19.9409C73.2671 19.9059 75.4838 17.6893 75.5188 17.6543C75.5584 17.6519 75.7754 17.6379 75.7754 17.6379C75.7894 17.6379 75.8058 17.6309 75.8174 17.6193L76.3401 17.0966C76.3518 17.0849 76.3588 17.0663 76.3588 17.0499C76.3588 17.0336 76.3518 17.0149 76.3401 17.0033L75.7941 16.4573C75.7801 16.4433 75.7638 16.4386 75.7474 16.4386ZM75.7474 16.5973C75.8198 16.6696 76.1301 16.9799 76.2024 17.0523C76.1278 17.1269 75.7731 17.4816 75.7428 17.5119C75.7031 17.5143 75.4861 17.5283 75.4861 17.5283C75.4721 17.5283 75.4558 17.5353 75.4441 17.5469L73.1224 19.8686C73.1108 19.8803 73.1061 19.8966 73.1038 19.9106C73.1038 19.9106 73.0898 20.1276 73.0874 20.1673L72.6278 20.6269C72.5554 20.5546 72.2451 20.2443 72.1728 20.1743L72.6324 19.7146C72.6721 19.7123 72.8891 19.6983 72.8891 19.6983C72.9031 19.6983 72.9194 19.6913 72.9311 19.6796L75.2528 17.3579C75.2644 17.3463 75.2691 17.3299 75.2714 17.3159C75.2714 17.3159 75.2854 17.0989 75.2878 17.0593C75.3158 17.0266 75.6728 16.6719 75.7474 16.5973ZM74.9518 15.6919L74.4291 16.2146C74.4174 16.2263 74.4128 16.2426 74.4104 16.2566C74.4104 16.2566 74.3964 16.4736 74.3941 16.5133L72.1074 18.7999C72.0654 18.8023 71.8508 18.8163 71.8508 18.8163C71.8368 18.8163 71.8204 18.8233 71.8088 18.8349L71.2861 19.3576C71.2744 19.3693 71.2674 19.3879 71.2674 19.4043C71.2674 19.4206 71.2744 19.4393 71.2861 19.4509L71.8321 19.9969C71.8438 20.0086 71.8624 20.0156 71.8788 20.0156C71.8951 20.0156 71.9138 20.0086 71.9254 19.9969L72.4481 19.4743C72.4598 19.4626 72.4644 19.4463 72.4668 19.4323C72.4668 19.4323 72.4808 19.2153 72.4831 19.1756C72.5181 19.1406 74.7348 16.9239 74.7698 16.8889C74.8118 16.8866 75.0264 16.8726 75.0264 16.8726C75.0404 16.8726 75.0568 16.8656 75.0684 16.8539L75.5911 16.3313C75.6028 16.3196 75.6098 16.3009 75.6098 16.2846C75.6098 16.2683 75.6028 16.2496 75.5911 16.2379L75.0451 15.6919C75.0194 15.6663 74.9774 15.6663 74.9518 15.6919ZM74.9984 15.8319C75.0708 15.9043 75.3811 16.2146 75.4511 16.2869C75.3764 16.3616 75.0218 16.7163 74.9914 16.7466C74.9518 16.7489 74.7348 16.7629 74.7348 16.7629C74.7208 16.7629 74.7044 16.7699 74.6928 16.7816L72.3711 19.1033C72.3594 19.1149 72.3548 19.1313 72.3524 19.1453C72.3524 19.1453 72.3384 19.3623 72.3361 19.4019L71.8764 19.8616L71.4214 19.4066L71.8811 18.9469C71.9208 18.9446 72.1378 18.9306 72.1378 18.9306C72.1518 18.9306 72.1681 18.9236 72.1798 18.9119L74.5014 16.5903C74.5131 16.5786 74.5178 16.5623 74.5201 16.5483C74.5201 16.5483 74.5341 16.3313 74.5364 16.2916C74.5691 16.2613 74.9238 15.9066 74.9984 15.8319ZM74.2424 14.9149C74.2261 14.9149 74.2074 14.9219 74.1958 14.9336L73.6731 15.4563C73.6614 15.4679 73.6568 15.4843 73.6544 15.4983C73.6544 15.4983 73.6404 15.7153 73.6381 15.7549C73.6031 15.7899 71.3864 18.0066 71.3514 18.0416C71.3118 18.0439 71.0948 18.0579 71.0948 18.0579C71.0808 18.0579 71.0644 18.0649 71.0528 18.0766L70.5301 18.5993C70.5184 18.6109 70.5114 18.6296 70.5114 18.6459C70.5114 18.6623 70.5184 18.6809 70.5301 18.6926L71.0761 19.2386C71.0878 19.2503 71.1064 19.2573 71.1228 19.2573C71.1391 19.2573 71.1578 19.2503 71.1694 19.2386L71.6921 18.7159C71.7038 18.7043 71.7084 18.6879 71.7108 18.6739C71.7108 18.6739 71.7248 18.4569 71.7271 18.4173C71.7621 18.3823 73.9788 16.1656 74.0138 16.1306C74.0534 16.1283 74.2704 16.1143 74.2704 16.1143C74.2844 16.1143 74.3008 16.1073 74.3124 16.0956L74.8351 15.5729C74.8468 15.5613 74.8538 15.5426 74.8538 15.5263C74.8538 15.5099 74.8468 15.4913 74.8351 15.4796L74.2891 14.9336C74.2751 14.9219 74.2588 14.9149 74.2424 14.9149ZM74.2424 15.0736C74.3148 15.1459 74.6251 15.4563 74.6974 15.5286C74.6228 15.6033 74.2681 15.9579 74.2378 15.9883C74.1958 15.9906 73.9811 16.0046 73.9811 16.0046C73.9671 16.0046 73.9508 16.0116 73.9391 16.0233L71.6174 18.3449C71.6058 18.3566 71.6011 18.3729 71.5988 18.3869C71.5988 18.3869 71.5848 18.6039 71.5824 18.6436L71.1228 19.1033C71.0504 19.0309 70.7401 18.7206 70.6701 18.6483L71.1298 18.1886C71.1718 18.1863 71.3864 18.1723 71.3864 18.1723C71.4004 18.1723 71.4168 18.1653 71.4284 18.1536L73.7501 15.8319C73.7618 15.8203 73.7664 15.8039 73.7688 15.7899C73.7688 15.7899 73.7828 15.5729 73.7851 15.5333C73.8108 15.5053 74.1678 15.1483 74.2424 15.0736ZM78.7598 14.9243C78.7434 14.9243 78.7248 14.9313 78.7131 14.9429L78.1671 15.4889C78.1554 15.5006 78.1484 15.5193 78.1484 15.5356C78.1484 15.5519 78.1554 15.5706 78.1671 15.5823L78.6898 16.1049C78.7014 16.1166 78.7178 16.1213 78.7318 16.1236C78.7318 16.1236 78.9488 16.1376 78.9884 16.1399C79.0234 16.1749 81.2401 18.3916 81.2751 18.4266C81.2774 18.4663 81.2914 18.6833 81.2914 18.6833C81.2914 18.6973 81.2984 18.7136 81.3101 18.7253L81.8328 19.2479C81.8444 19.2596 81.8631 19.2666 81.8794 19.2666C81.8958 19.2666 81.9144 19.2596 81.9261 19.2479L82.4721 18.7019C82.4838 18.6903 82.4908 18.6716 82.4908 18.6553C82.4908 18.6389 82.4838 18.6203 82.4721 18.6086L81.9494 18.0859C81.9378 18.0743 81.9214 18.0696 81.9074 18.0673C81.9074 18.0673 81.6904 18.0533 81.6508 18.0509C81.6158 18.0159 79.3991 15.7993 79.3641 15.7643C79.3618 15.7223 79.3478 15.5076 79.3478 15.5076C79.3478 15.4936 79.3408 15.4773 79.3291 15.4656L78.8064 14.9429C78.7948 14.9313 78.7761 14.9243 78.7598 14.9243ZM78.7598 15.0829C78.8344 15.1576 79.1891 15.5123 79.2194 15.5426C79.2218 15.5823 79.2358 15.7993 79.2358 15.7993C79.2358 15.8133 79.2428 15.8296 79.2544 15.8413L81.5761 18.1629C81.5878 18.1746 81.6041 18.1793 81.6181 18.1816C81.6181 18.1816 81.8351 18.1956 81.8748 18.1979C81.9051 18.2283 82.2598 18.5829 82.3344 18.6576C82.2621 18.7299 81.9518 19.0403 81.8794 19.1126C81.8048 19.0379 81.4501 18.6833 81.4198 18.6529C81.4174 18.6133 81.4034 18.3963 81.4034 18.3963C81.4034 18.3823 81.3964 18.3659 81.3848 18.3543L79.0631 16.0326C79.0514 16.0209 79.0351 16.0163 79.0211 16.0139C79.0211 16.0139 78.8041 15.9999 78.7644 15.9976C78.7341 15.9673 78.3794 15.6126 78.3048 15.5379C78.3771 15.4656 78.6874 15.1553 78.7598 15.0829ZM77.9478 15.6896L77.4018 16.2356C77.3901 16.2473 77.3831 16.2659 77.3831 16.2823C77.3831 16.2986 77.3901 16.3173 77.4018 16.3289L77.9244 16.8516C77.9361 16.8633 77.9524 16.8679 77.9664 16.8703C77.9664 16.8703 78.1834 16.8843 78.2231 16.8866C78.2581 16.9216 80.4748 19.1383 80.5098 19.1733C80.5121 19.2153 80.5261 19.4299 80.5261 19.4299C80.5261 19.4439 80.5331 19.4603 80.5448 19.4719L81.0674 19.9946C81.0791 20.0063 81.0978 20.0133 81.1141 20.0133C81.1304 20.0133 81.1491 20.0063 81.1608 19.9946L81.7068 19.4486C81.7184 19.4369 81.7254 19.4183 81.7254 19.4019C81.7254 19.3856 81.7184 19.3669 81.7068 19.3553L81.1841 18.8326C81.1748 18.8209 81.1561 18.8163 81.1421 18.8139C81.1421 18.8139 80.9251 18.7999 80.8854 18.7976C80.8504 18.7626 78.6338 16.5459 78.5988 16.5109C78.5964 16.4713 78.5824 16.2543 78.5824 16.2543C78.5824 16.2403 78.5754 16.2239 78.5638 16.2123L78.0411 15.6896C78.0131 15.6639 77.9711 15.6639 77.9478 15.6896ZM77.9944 15.8296C78.0691 15.9043 78.4238 16.2589 78.4541 16.2893C78.4564 16.3289 78.4704 16.5459 78.4704 16.5459C78.4704 16.5599 78.4774 16.5763 78.4891 16.5879L80.8108 18.9096C80.8224 18.9213 80.8388 18.9259 80.8528 18.9283C80.8528 18.9283 81.0698 18.9423 81.1094 18.9446C81.1398 18.9749 81.4944 19.3296 81.5691 19.4043C81.4968 19.4766 81.1864 19.7869 81.1141 19.8593C81.0394 19.7846 80.6848 19.4299 80.6544 19.3996C80.6521 19.3576 80.6381 19.1429 80.6381 19.1429C80.6381 19.1289 80.6311 19.1126 80.6194 19.1009L78.2978 16.7793C78.2861 16.7676 78.2698 16.7629 78.2558 16.7606C78.2558 16.7606 78.0388 16.7466 77.9991 16.7443C77.9688 16.7139 77.6141 16.3593 77.5394 16.2846C77.6118 16.2123 77.9221 15.8996 77.9944 15.8296ZM77.2361 16.4269C77.2198 16.4269 77.2011 16.4339 77.1894 16.4456L76.6434 16.9916C76.6318 17.0033 76.6248 17.0219 76.6248 17.0383C76.6248 17.0546 76.6318 17.0733 76.6434 17.0849L77.1661 17.6076C77.1778 17.6193 77.1941 17.6239 77.2081 17.6263C77.2081 17.6263 77.4251 17.6403 77.4648 17.6426C77.4998 17.6776 79.7164 19.8943 79.7514 19.9293C79.7538 19.9713 79.7678 20.1859 79.7678 20.1859C79.7678 20.1999 79.7748 20.2163 79.7864 20.2279L80.3091 20.7506C80.3348 20.7763 80.3768 20.7763 80.4024 20.7506L80.9484 20.2046C80.9601 20.1929 80.9671 20.1743 80.9671 20.1579C80.9671 20.1416 80.9601 20.1229 80.9484 20.1113L80.4258 19.5886C80.4141 19.5769 80.3978 19.5723 80.3838 19.5699C80.3838 19.5699 80.1668 19.5559 80.1271 19.5536C80.0921 19.5186 77.8754 17.3019 77.8404 17.2669C77.8381 17.2249 77.8241 17.0103 77.8241 17.0103C77.8241 16.9963 77.8171 16.9799 77.8054 16.9683L77.2828 16.4456C77.2711 16.4339 77.2524 16.4269 77.2361 16.4269ZM77.2361 16.5856C77.3108 16.6603 77.6654 17.0149 77.6958 17.0453C77.6981 17.0849 77.7121 17.3019 77.7121 17.3019C77.7121 17.3159 77.7191 17.3323 77.7308 17.3439L80.0524 19.6656C80.0641 19.6773 80.0804 19.6819 80.0944 19.6843C80.0944 19.6843 80.3114 19.6983 80.3511 19.7006C80.3814 19.7309 80.7361 20.0856 80.8108 20.1603C80.7384 20.2326 80.4281 20.5429 80.3558 20.6153C80.2811 20.5406 79.9264 20.1859 79.8961 20.1556C79.8938 20.1159 79.8798 19.8989 79.8798 19.8989C79.8798 19.8849 79.8728 19.8686 79.8611 19.8569L77.5394 17.5353C77.5278 17.5236 77.5114 17.5189 77.4974 17.5166C77.4974 17.5166 77.2804 17.5026 77.2408 17.5003C77.2104 17.4699 76.8558 17.1153 76.7811 17.0406C76.8534 16.9683 77.1661 16.6579 77.2361 16.5856ZM72.6231 8.7876C72.6068 8.7876 72.5881 8.7946 72.5764 8.80626L72.0304 9.35226C72.0188 9.36393 72.0118 9.3826 72.0118 9.39893C72.0118 9.41526 72.0188 9.43393 72.0304 9.4456L72.5531 9.96826C72.5648 9.97993 72.5811 9.9846 72.5951 9.98693C72.5951 9.98693 72.8121 10.0009 72.8518 10.0033C72.8868 10.0383 75.1034 12.2549 75.1384 12.2899C75.1408 12.3319 75.1548 12.5466 75.1548 12.5466C75.1548 12.5606 75.1618 12.5769 75.1734 12.5886L75.6961 13.1113C75.7078 13.1229 75.7264 13.1299 75.7428 13.1299C75.7591 13.1299 75.7778 13.1229 75.7894 13.1113L76.3354 12.5653C76.3471 12.5536 76.3541 12.5349 76.3541 12.5186C76.3541 12.5023 76.3471 12.4836 76.3354 12.4719L75.8128 11.9493C75.8011 11.9376 75.7848 11.9329 75.7708 11.9306C75.7708 11.9306 75.5538 11.9166 75.5141 11.9143C75.4791 11.8793 73.2624 9.6626 73.2274 9.6276C73.2251 9.5856 73.2111 9.37093 73.2111 9.37093C73.2111 9.35693 73.2041 9.3406 73.1924 9.32893L72.6698 8.80626C72.6558 8.7946 72.6394 8.7876 72.6231 8.7876ZM72.6231 8.94626C72.6978 9.02093 73.0524 9.3756 73.0828 9.40593C73.0851 9.4456 73.0991 9.6626 73.0991 9.6626C73.0991 9.6766 73.1061 9.69293 73.1178 9.7046L75.4394 12.0263C75.4511 12.0379 75.4674 12.0426 75.4814 12.0449C75.4814 12.0449 75.6984 12.0589 75.7381 12.0613C75.7684 12.0916 76.1231 12.4463 76.1978 12.5209C76.1254 12.5933 75.8151 12.9036 75.7428 12.9759C75.6681 12.9013 75.3134 12.5466 75.2831 12.5163C75.2808 12.4766 75.2668 12.2596 75.2668 12.2596C75.2668 12.2456 75.2598 12.2293 75.2481 12.2176L72.9264 9.89593C72.9148 9.88426 72.8984 9.8796 72.8844 9.87726C72.8844 9.87726 72.6674 9.86326 72.6278 9.86093C72.5974 9.8306 72.2428 9.47593 72.1681 9.40126C72.2404 9.32893 72.5508 9.0186 72.6231 8.94626ZM71.8274 9.57393L71.2814 10.1199C71.2698 10.1316 71.2628 10.1503 71.2628 10.1666C71.2628 10.1829 71.2698 10.2016 71.2814 10.2133L71.8041 10.7359C71.8158 10.7476 71.8321 10.7523 71.8461 10.7546C71.8461 10.7546 72.0631 10.7686 72.1028 10.7709C72.1378 10.8059 74.3544 13.0226 74.3894 13.0576C74.3918 13.0996 74.4058 13.3143 74.4058 13.3143C74.4058 13.3283 74.4128 13.3446 74.4244 13.3563L74.9471 13.8789C74.9728 13.9046 75.0148 13.9046 75.0404 13.8789L75.5864 13.3329C75.5981 13.3213 75.6051 13.3026 75.6051 13.2863C75.6051 13.2699 75.5981 13.2513 75.5864 13.2396L75.0638 12.7169C75.0521 12.7053 75.0358 12.7006 75.0218 12.6983C75.0218 12.6983 74.8048 12.6843 74.7651 12.6819C74.7301 12.6469 72.5134 10.4303 72.4784 10.3953C72.4761 10.3556 72.4621 10.1386 72.4621 10.1386C72.4621 10.1246 72.4551 10.1083 72.4434 10.0966L71.9208 9.57393C71.8951 9.54593 71.8531 9.54593 71.8274 9.57393ZM71.8741 9.7116C71.9488 9.78626 72.3034 10.1409 72.3338 10.1713C72.3361 10.2109 72.3501 10.4279 72.3501 10.4279C72.3501 10.4419 72.3571 10.4583 72.3688 10.4699L74.6904 12.7916C74.7021 12.8033 74.7184 12.8079 74.7324 12.8103C74.7324 12.8103 74.9494 12.8243 74.9891 12.8266C75.0194 12.8569 75.3741 13.2116 75.4488 13.2863C75.3764 13.3586 75.0661 13.6689 74.9961 13.7413C74.9214 13.6666 74.5668 13.3119 74.5364 13.2816C74.5341 13.2396 74.5201 13.0249 74.5201 13.0249C74.5201 13.0109 74.5131 12.9946 74.5014 12.9829L72.1798 10.6613C72.1681 10.6496 72.1518 10.6449 72.1378 10.6426C72.1378 10.6426 71.9208 10.6286 71.8811 10.6263C71.8508 10.5959 71.4961 10.2413 71.4214 10.1666C71.4914 10.0943 71.8041 9.78393 71.8741 9.7116ZM71.0714 10.3299L70.5254 10.8759C70.5138 10.8876 70.5068 10.9063 70.5068 10.9226C70.5068 10.9389 70.5138 10.9576 70.5254 10.9693L71.0481 11.4919C71.0598 11.5036 71.0761 11.5083 71.0901 11.5106C71.0901 11.5106 71.3071 11.5246 71.3468 11.5269C71.3818 11.5619 73.5984 13.7786 73.6334 13.8136C73.6358 13.8556 73.6498 14.0703 73.6498 14.0703C73.6498 14.0843 73.6568 14.1006 73.6684 14.1123L74.1911 14.6349C74.2168 14.6606 74.2588 14.6606 74.2844 14.6349L74.8304 14.0889C74.8421 14.0773 74.8491 14.0586 74.8491 14.0423C74.8491 14.0259 74.8421 14.0073 74.8304 13.9956L74.3078 13.4729C74.2961 13.4613 74.2798 13.4566 74.2658 13.4543C74.2658 13.4543 74.0488 13.4403 74.0091 13.4379C73.9741 13.4029 71.7574 11.1863 71.7224 11.1513C71.7201 11.1116 71.7061 10.8946 71.7061 10.8946C71.7061 10.8806 71.6991 10.8643 71.6874 10.8526L71.1648 10.3299C71.1368 10.3043 71.0948 10.3043 71.0714 10.3299ZM71.1181 10.4699C71.1928 10.5446 71.5474 10.8993 71.5778 10.9296C71.5801 10.9693 71.5941 11.1863 71.5941 11.1863C71.5941 11.2003 71.6011 11.2166 71.6128 11.2283L73.9344 13.5499C73.9461 13.5616 73.9624 13.5663 73.9764 13.5686C73.9764 13.5686 74.1934 13.5826 74.2331 13.5849C74.2634 13.6153 74.6181 13.9699 74.6928 14.0446C74.6204 14.1169 74.3101 14.4273 74.2378 14.4996C74.1631 14.4249 73.8084 14.0703 73.7781 14.0399C73.7758 14.0003 73.7618 13.7833 73.7618 13.7833C73.7618 13.7693 73.7548 13.7529 73.7431 13.7413L71.4214 11.4196C71.4098 11.4079 71.3934 11.4033 71.3794 11.4009C71.3794 11.4009 71.1624 11.3869 71.1228 11.3846C71.0924 11.3543 70.7378 10.9996 70.6631 10.9249C70.7354 10.8526 71.0458 10.5399 71.1181 10.4699ZM76.4498 15.7083L75.9038 16.2543C75.8781 16.2799 75.8781 16.3219 75.9038 16.3476L76.4498 16.8936C76.4754 16.9193 76.5174 16.9193 76.5431 16.8936L77.0891 16.3476C77.1148 16.3219 77.1148 16.2799 77.0891 16.2543L76.5431 15.7083C76.5314 15.6966 76.5128 15.6896 76.4964 15.6896C76.4778 15.6896 76.4614 15.6966 76.4498 15.7083ZM76.4941 15.8459C76.5664 15.9183 76.8768 16.2286 76.9491 16.3009C76.8768 16.3733 76.5664 16.6836 76.4941 16.7559C76.4218 16.6836 76.1114 16.3733 76.0391 16.3009C76.1114 16.2286 76.4241 15.9183 76.4941 15.8459ZM75.6914 14.9499L75.1454 15.4959C75.1338 15.5076 75.1268 15.5263 75.1268 15.5426C75.1268 15.5589 75.1338 15.5776 75.1454 15.5893L75.6914 16.1353C75.7171 16.1609 75.7591 16.1609 75.7848 16.1353L76.3308 15.5893C76.3564 15.5636 76.3564 15.5216 76.3308 15.4959L75.7848 14.9499C75.7731 14.9383 75.7544 14.9313 75.7381 14.9313C75.7218 14.9336 75.7031 14.9383 75.6914 14.9499ZM75.7381 15.0899C75.8104 15.1623 76.1208 15.4726 76.1931 15.5449C76.1208 15.6173 75.8104 15.9276 75.7381 15.9999C75.6658 15.9276 75.3554 15.6173 75.2831 15.5449C75.3554 15.4726 75.6658 15.1599 75.7381 15.0899ZM74.9354 14.1939L74.3894 14.7399C74.3778 14.7516 74.3708 14.7703 74.3708 14.7866C74.3708 14.8029 74.3778 14.8216 74.3894 14.8333L74.9354 15.3793C74.9611 15.4049 75.0031 15.4049 75.0288 15.3793L75.5748 14.8333C75.6004 14.8076 75.6004 14.7656 75.5748 14.7399L75.0288 14.1939C75.0008 14.1683 74.9588 14.1683 74.9354 14.1939ZM74.9821 14.3316C75.0544 14.4039 75.3648 14.7143 75.4371 14.7866C75.3648 14.8589 75.0544 15.1693 74.9821 15.2416C74.9098 15.1693 74.5994 14.8589 74.5271 14.7866C74.5994 14.7143 74.9098 14.4039 74.9821 14.3316ZM75.6914 13.4379L75.1454 13.9839C75.1338 13.9956 75.1268 14.0143 75.1268 14.0306C75.1268 14.0469 75.1338 14.0656 75.1454 14.0773L75.6914 14.6233C75.7171 14.6489 75.7591 14.6489 75.7848 14.6233L76.3308 14.0773C76.3564 14.0516 76.3564 14.0096 76.3308 13.9839L75.7848 13.4379C75.7731 13.4263 75.7544 13.4193 75.7381 13.4193C75.7218 13.4193 75.7031 13.4263 75.6914 13.4379ZM75.7381 13.5756C75.8104 13.6479 76.1208 13.9583 76.1931 14.0306C76.1208 14.1029 75.8104 14.4133 75.7381 14.4856C75.6658 14.4133 75.3554 14.1029 75.2831 14.0306C75.3554 13.9583 75.6658 13.6479 75.7381 13.5756ZM76.4498 14.1939L75.9038 14.7399C75.8781 14.7656 75.8781 14.8076 75.9038 14.8333L76.4498 15.3793C76.4754 15.4049 76.5174 15.4049 76.5431 15.3793L77.0891 14.8333C77.1148 14.8076 77.1148 14.7656 77.0891 14.7399L76.5431 14.1939C76.5151 14.1683 76.4731 14.1683 76.4498 14.1939ZM76.4941 14.3316C76.5664 14.4039 76.8768 14.7143 76.9491 14.7866C76.8768 14.8589 76.5664 15.1693 76.4941 15.2416C76.4218 15.1693 76.1114 14.8589 76.0414 14.7866C76.1114 14.7143 76.4241 14.4039 76.4941 14.3316ZM77.2524 14.9313C77.2361 14.9313 77.2174 14.9383 77.2058 14.9499L76.6598 15.4959C76.6341 15.5216 76.6341 15.5636 76.6598 15.5893L77.2058 16.1353C77.2314 16.1609 77.2734 16.1609 77.2991 16.1353L77.8451 15.5893C77.8568 15.5776 77.8638 15.5589 77.8638 15.5426C77.8638 15.5263 77.8568 15.5076 77.8451 15.4959L77.2991 14.9499C77.2851 14.9359 77.2688 14.9313 77.2524 14.9313ZM77.2524 15.0899C77.3248 15.1623 77.6351 15.4726 77.7074 15.5449C77.6351 15.6173 77.3248 15.9276 77.2524 15.9999C77.1801 15.9276 76.8698 15.6173 76.7974 15.5449C76.8698 15.4726 77.1801 15.1599 77.2524 15.0899ZM77.9618 14.1939L77.4158 14.7399C77.4041 14.7516 77.3971 14.7703 77.3971 14.7866C77.3971 14.8029 77.4041 14.8216 77.4158 14.8333L77.9618 15.3793C77.9734 15.3909 77.9921 15.3979 78.0084 15.3979C78.0248 15.3979 78.0434 15.3909 78.0551 15.3793L78.6011 14.8333C78.6268 14.8076 78.6268 14.7656 78.6011 14.7399L78.0551 14.1939C78.0434 14.1823 78.0248 14.1753 78.0084 14.1753C77.9921 14.1753 77.9734 14.1823 77.9618 14.1939ZM78.0084 14.3316C78.0808 14.4039 78.3911 14.7143 78.4611 14.7866C78.3911 14.8589 78.0784 15.1693 78.0084 15.2416C77.9361 15.1693 77.6258 14.8589 77.5534 14.7866C77.6258 14.7143 77.9384 14.4039 78.0084 14.3316ZM77.2524 13.4169C77.2361 13.4169 77.2174 13.4239 77.2058 13.4356L76.6598 13.9816C76.6341 14.0073 76.6341 14.0493 76.6598 14.0749L77.2058 14.6209C77.2314 14.6466 77.2734 14.6466 77.2991 14.6209L77.8451 14.0749C77.8568 14.0633 77.8638 14.0446 77.8638 14.0283C77.8638 14.0119 77.8568 13.9933 77.8451 13.9816L77.2991 13.4356C77.2851 13.4239 77.2688 13.4169 77.2524 13.4169ZM77.2524 13.5756C77.3248 13.6479 77.6351 13.9583 77.7074 14.0306C77.6351 14.1029 77.3248 14.4133 77.2524 14.4856C77.1801 14.4133 76.8698 14.1029 76.7974 14.0306C76.8698 13.9583 77.1801 13.6479 77.2524 13.5756ZM76.4498 12.6796L75.9038 13.2256C75.8781 13.2513 75.8781 13.2933 75.9038 13.3189L76.4498 13.8649C76.4754 13.8906 76.5174 13.8906 76.5431 13.8649L77.0891 13.3189C77.1148 13.2933 77.1148 13.2513 77.0891 13.2256L76.5431 12.6796C76.5314 12.6679 76.5128 12.6609 76.4964 12.6609C76.4778 12.6633 76.4614 12.6679 76.4498 12.6796ZM76.4941 12.8196C76.5664 12.8919 76.8768 13.2023 76.9491 13.2746C76.8768 13.3469 76.5664 13.6573 76.4941 13.7273C76.4218 13.6549 76.1114 13.3446 76.0391 13.2746C76.1114 13.2023 76.4241 12.8896 76.4941 12.8196Z" fill="#EE2E24"/>
<path d="M62.4638 63.3499L61.2108 62.6872L60.7254 63.1842L59.5984 62.5892L62.8301 59.7285L64.0341 60.3655L63.4881 64.6472L62.3331 64.0359L62.4661 63.3522L62.4638 63.3499ZM62.6434 62.4562L62.9281 60.9628L61.8594 62.0409L62.6434 62.4562Z" fill="#EE2E24"/>
<path d="M65.8938 64.1597L67.0534 64.4327C67.0231 64.624 67.0301 64.7803 67.0768 64.8993C67.1514 65.093 67.3054 65.2236 67.5341 65.2936C67.7044 65.345 67.8491 65.345 67.9658 65.2936C68.0824 65.2423 68.1571 65.163 68.1874 65.058C68.2178 64.9577 68.2014 64.855 68.1361 64.75C68.0731 64.645 67.8911 64.5073 67.5924 64.3416C67.1048 64.0663 66.7781 63.7957 66.6124 63.5343C66.4468 63.2707 66.4094 62.9883 66.5004 62.685C66.5611 62.4866 66.6754 62.3163 66.8434 62.174C67.0114 62.0316 67.2284 61.9453 67.4898 61.915C67.7511 61.8847 68.0848 61.929 68.4861 62.0503C68.9808 62.1996 69.3284 62.405 69.5338 62.6686C69.7368 62.93 69.8044 63.2707 69.7321 63.686L68.5864 63.4107C68.6098 63.2287 68.5864 63.0817 68.5118 62.9743C68.4394 62.867 68.3204 62.7876 68.1501 62.7363C68.0101 62.6943 67.8981 62.692 67.8094 62.7293C67.7208 62.7666 67.6648 62.8273 67.6391 62.9113C67.6204 62.972 67.6321 63.0373 67.6764 63.105C67.7161 63.1727 67.8374 63.2613 68.0334 63.3686C68.5211 63.6393 68.8618 63.8656 69.0531 64.05C69.2444 64.2343 69.3658 64.4257 69.4171 64.6287C69.4684 64.8293 69.4614 65.037 69.3984 65.247C69.3238 65.4943 69.1861 65.702 68.9854 65.87C68.7848 66.038 68.5444 66.1383 68.2668 66.1733C67.9868 66.206 67.6601 66.1663 67.2868 66.0543C66.6288 65.856 66.2111 65.5923 66.0361 65.261C65.8611 64.9297 65.8121 64.5656 65.8984 64.1643L65.8938 64.1597Z" fill="#EE2E24"/>
<path d="M71.7154 62.9486L75.4884 63.35L75.3834 64.3416L74.1164 64.2063L73.7944 67.2326L72.5531 67.0996L72.8751 64.0733L71.6081 63.938L71.7131 62.9463L71.7154 62.9486Z" fill="#EE2E24"/>
<path d="M79.6137 66.5536L78.1997 66.654L78.0504 67.333L76.7787 67.4216L78.0084 63.2846L79.3664 63.189L81.1654 67.1136L79.8611 67.2046L79.6114 66.5536H79.6137ZM79.2941 65.6996L78.7481 64.281L78.4097 65.7603L79.2941 65.6973V65.6996Z" fill="#EE2E24"/>
<path d="M82.4557 62.7829L83.5781 62.4679L85.6454 64.2109L85.0434 62.0595L86.1774 61.7422L87.2671 65.6319L86.1331 65.9492L84.0774 64.2202L84.6771 66.3575L83.5454 66.6749L82.4557 62.7852V62.7829Z" fill="#EE2E24"/>
<path d="M91.7564 62.869L90.4964 63.5177L90.6271 64.2014L89.4931 64.7847L88.9961 60.496L90.2071 59.873L93.4061 62.771L92.2441 63.3684L91.7588 62.8667L91.7564 62.869ZM91.1264 62.211L90.0648 61.1237L90.3378 62.617L91.1264 62.211Z" fill="#EE2E24"/>
</svg>
