<svg width="240" height="70" viewBox="0 0 240 70" fill="none" xmlns="http://www.w3.org/2000/svg">
<path d="M125.108 24.5774L124.532 23.2396H120.332L119.757 24.5774H117.501L122.09 14.124H122.79L127.363 24.5774H125.108ZM123.801 21.5129L122.432 18.044L121.063 21.5129H123.801Z" fill="black"/>
<path d="M137.803 24.5774H135.267L130.865 19.2262V24.5774H128.765V14.3107H130.865V19.0707L134.785 14.3107H137.29L133.354 19.1485L137.803 24.5774Z" fill="black"/>
<path d="M139.186 24.5774V14.3107H141.286V24.5774H139.186Z" fill="black"/>
<path d="M153.002 14.124H153.686V24.5774H151.586V19.1018L149.004 22.3374H148.319L145.737 19.1018V24.5774H143.637V14.124H144.322L148.662 19.6774L153.002 14.124Z" fill="black"/>
<path d="M162.675 24.5774L162.099 23.2396H157.899L157.324 24.5774H155.068L159.657 14.124H160.357L164.93 24.5774H162.675ZM161.368 21.5129L159.999 18.044L158.63 21.5129H161.368Z" fill="black"/>
<path d="M167.481 24.5774V16.2085H164.198V14.3107H172.878V16.2085H169.581V24.5774H167.481Z" fill="black"/>
<path d="M117.89 34.9996C117.843 32.0596 120.379 29.6174 123.334 29.6796C126.29 29.6174 128.857 32.0596 128.81 34.9996C128.857 37.9396 126.29 40.3818 123.334 40.3196C120.379 40.3818 117.843 37.9396 117.89 34.9996ZM126.648 34.9996C126.648 33.0551 125.232 31.624 123.35 31.624C121.452 31.624 120.052 33.024 120.052 34.9996C120.052 36.9751 121.452 38.3751 123.35 38.3751C125.232 38.3751 126.648 36.9751 126.648 34.9996Z" fill="black"/>
<path d="M130.588 40.1329V29.8662H137.339V31.764H132.688V34.3307H136.499V36.2285H132.688V40.1329H130.588Z" fill="black"/>
<path d="M144.345 40.1329V31.764H141.063V29.8662H149.743V31.764H146.445V40.1329H144.345Z" fill="black"/>
<path d="M151.126 40.1329V29.8662H153.226V33.8018H157.769V29.8662H159.869V40.1329H157.769V35.6996H153.226V40.1329H151.126Z" fill="black"/>
<path d="M162.216 40.1329V29.8662H169.122V31.764H164.316V33.8485H167.847V35.6374H164.316V38.2351H169.309V40.1329H162.216Z" fill="black"/>
<path d="M174.902 34.9996C174.855 32.0596 177.39 29.6174 180.377 29.6796C182.322 29.6796 183.986 30.6285 184.904 32.2307L183.317 33.3507C182.586 32.1996 181.606 31.624 180.377 31.624C178.464 31.624 177.064 33.0551 177.064 35.0151C177.064 36.9751 178.464 38.3751 180.377 38.3751C181.606 38.3751 182.586 37.7996 183.317 36.6485L184.904 37.7685C184.017 39.3707 182.337 40.3196 180.362 40.3196C177.359 40.3818 174.839 37.9396 174.902 34.9996Z" fill="black"/>
<path d="M186.688 40.1329V29.8662H188.788V40.1329H186.688Z" fill="black"/>
<path d="M193.457 40.1329V31.764H190.175V29.8662H198.855V31.764H195.557V40.1329H193.457Z" fill="black"/>
<path d="M208.499 29.8662L204.968 36.0885V40.1329H202.868V36.104L199.321 29.8662H201.654L203.925 33.9418L206.181 29.8662H208.499Z" fill="black"/>
<path d="M117.89 50.5551C117.843 47.6151 120.379 45.1729 123.334 45.2351C126.29 45.1729 128.857 47.6151 128.81 50.5551C128.857 53.4951 126.29 55.9374 123.334 55.8751C120.379 55.9374 117.843 53.4951 117.89 50.5551ZM126.648 50.5551C126.648 48.6107 125.232 47.1796 123.35 47.1796C121.452 47.1796 120.052 48.5796 120.052 50.5551C120.052 52.5307 121.452 53.9307 123.35 53.9307C125.232 53.9307 126.648 52.5307 126.648 50.5551Z" fill="black"/>
<path d="M130.588 55.6885V45.4218H137.339V47.3196H132.688V49.8862H136.499V51.784H132.688V55.6885H130.588Z" fill="black"/>
<path d="M148.654 55.6885L148.078 54.3507H143.878L143.303 55.6885H141.047L145.636 45.2351H146.336L150.909 55.6885H148.654ZM147.347 52.624L145.978 49.1551L144.609 52.624H147.347Z" fill="black"/>
<path d="M151.52 53.604L152.966 52.5151C153.635 53.4329 154.366 54.0085 155.486 54.0085C156.404 54.0085 156.949 53.5729 156.949 52.8729C156.949 52.2662 156.622 52.0485 155.642 51.5974L154.538 51.0996C152.966 50.3996 152.049 49.5129 152.049 48.144C152.049 46.3862 153.511 45.2351 155.455 45.2351C157.026 45.2351 158.209 45.9974 158.846 47.1796L157.415 48.284C156.886 47.4907 156.233 47.1018 155.455 47.1018C154.724 47.1018 154.18 47.4596 154.18 48.0974C154.18 48.6418 154.506 48.8907 155.378 49.2796L156.544 49.7929C158.271 50.5551 159.08 51.4107 159.08 52.7951C159.08 54.6774 157.54 55.8751 155.486 55.8751C153.744 55.8751 152.313 54.9885 151.52 53.604Z" fill="black"/>
<path d="M163.242 55.6885V47.3196H159.96V45.4218H168.64V47.3196H165.342V55.6885H163.242Z" fill="black"/>
<path d="M175.481 55.6885L174.905 54.3507H170.705L170.13 55.6885H167.874L172.463 45.2351H173.163L177.736 55.6885H175.481ZM174.174 52.624L172.805 49.1551L171.436 52.624H174.174Z" fill="black"/>
<path d="M185.781 45.4218H187.881V55.8751H187.181L181.239 49.5285V55.6885H179.139V45.2351H179.823L185.781 51.5507V45.4218Z" fill="black"/>
<path d="M196.855 55.6885L196.279 54.3507H192.079L191.503 55.6885H189.248L193.837 45.2351H194.537L199.11 55.6885H196.855ZM195.548 52.624L194.179 49.1551L192.81 52.624H195.548Z" fill="black"/>
<path d="M66.501 70C85.8309 70 101.501 54.33 101.501 35C101.501 15.67 85.8309 0 66.501 0C47.171 0 31.501 15.67 31.501 35C31.501 54.33 47.171 70 66.501 70Z" fill="#EE2E24"/>
<path d="M66.5009 69.5849C85.6015 69.5849 101.086 54.1008 101.086 35.0002C101.086 15.8996 85.6015 0.415527 66.5009 0.415527C47.4003 0.415527 31.9163 15.8996 31.9163 35.0002C31.9163 54.1008 47.4003 69.5849 66.5009 69.5849Z" fill="#FFDE00"/>
<path fill-rule="evenodd" clip-rule="evenodd" d="M74.047 34.0174C74.411 34.0174 74.705 34.3114 74.705 34.6754V35.3334C74.705 35.6974 74.411 35.9914 74.047 35.9914H73.389V34.0221H74.047V34.0174ZM74.047 36.6401C74.7704 36.6401 75.3584 36.0521 75.3584 35.3288V34.6708C75.3584 33.9474 74.7704 33.3594 74.047 33.3594H72.7334V36.6424H74.047V36.6401ZM71.422 33.3548H72.08V36.6378H71.422V33.3548ZM70.1107 33.3548H70.7687V36.6378H70.1107L68.7994 34.5774V36.6378H68.1414V33.3548H68.7994L70.1107 35.4151V33.3548ZM60.2664 33.3548H62.2357V34.0128H60.9244V34.6708H62.2357V35.3288H60.9244V35.9868H62.2357V36.6448H60.2664V33.3594V33.3548ZM57.6414 33.3548H58.2994V35.9798H59.6107V36.6378H57.6414V33.3548ZM64.5317 35.9798H65.1897C65.7334 35.9798 66.1744 35.5388 66.1744 34.9951C66.1744 34.4514 65.724 34.0128 65.1897 34.0104H64.5317V34.6684H65.1897C65.3694 34.6684 65.5187 34.8178 65.5187 34.9974C65.5187 35.1771 65.374 35.3264 65.1897 35.3264H64.5317V35.9844V35.9798ZM65.1897 32.6968C66.459 32.6968 67.4857 33.7258 67.4857 34.9928C67.4857 36.2598 66.459 37.2888 65.1897 37.2888C63.9204 37.2888 62.8937 36.2598 62.8937 34.9928C62.8937 33.7258 63.9204 32.6968 65.1897 32.6968ZM65.1897 33.3548C66.095 33.3548 66.83 34.0898 66.83 34.9951C66.83 35.9004 66.0974 36.6354 65.1897 36.6354C64.282 36.6354 63.5494 35.9004 63.5494 34.9951C63.547 34.0898 64.282 33.3548 65.1897 33.3548Z" fill="#A90000"/>
<path d="M66.5009 60.3772C80.5164 60.3772 91.8782 49.0154 91.8782 34.9999C91.8782 20.9844 80.5164 9.62256 66.5009 9.62256C52.4854 9.62256 41.1235 20.9844 41.1235 34.9999C41.1235 49.0154 52.4854 60.3772 66.5009 60.3772Z" fill="#009BC9"/>
<path fill-rule="evenodd" clip-rule="evenodd" d="M51.5444 13.7036L49.8621 15.2296C58.6307 22.9763 61.8227 35.5086 62.8004 49.4596H63.2227C62.6324 42.4386 62.8611 25.5639 51.5444 13.7036ZM60.8194 24.9456C61.1601 26.0656 61.5684 27.5939 61.7084 28.7046C62.7374 30.8466 64.4244 32.8719 64.6484 45.8919H65.0707C64.9751 37.2633 64.7744 29.3976 60.8194 24.9456ZM66.2607 29.3323H66.7437V43.6333H66.2607V29.3323ZM72.1874 24.9456C71.8467 26.0656 71.4384 27.5939 71.2984 28.7046C70.2694 30.8466 68.5824 32.8719 68.3584 45.8919H67.9361C68.0317 37.2633 68.2301 29.3976 72.1874 24.9456ZM81.4601 13.7036L83.1424 15.2296C74.3737 22.9763 71.1817 35.5086 70.2041 49.4596H69.7817C70.3721 42.4386 70.1457 25.5639 81.4601 13.7036Z" fill="#FFDE00"/>
<path fill-rule="evenodd" clip-rule="evenodd" d="M66.501 9.29834C80.6923 9.29834 92.2026 20.8087 92.2026 35C92.2026 49.1913 80.6923 60.7017 66.501 60.7017C52.3097 60.7017 40.7993 49.1937 40.7993 35C40.7993 20.8063 52.3097 9.29834 66.501 9.29834ZM66.501 9.62734C80.5126 9.62734 91.8783 20.9883 91.8783 35.0047C91.8783 49.021 80.5173 60.382 66.501 60.382C52.4847 60.382 41.126 49.014 41.126 35.0023C41.126 20.9907 52.487 9.62734 66.501 9.62734Z" fill="#EE2E24"/>
<path fill-rule="evenodd" clip-rule="evenodd" d="M66.501 43.0176C65.5513 43.9136 65.5863 45.0102 66.0413 46.0229L66.0343 46.0299C65.598 45.7196 65.1967 45.5936 64.8513 45.5912C64.2003 45.5889 63.6217 46.2656 63.6007 46.7812C63.5844 47.2479 63.6357 47.6819 64.0557 47.9526C64.3404 48.1346 64.7463 48.1882 65.0427 47.9619C64.6507 47.8336 64.6507 47.3832 64.7697 47.1826C64.8933 46.9726 65.0987 46.8209 65.3623 46.8302C65.8383 46.8442 66.109 47.2432 66.0997 47.6282C66.088 48.1882 65.2947 48.9209 64.877 49.1519C65.157 49.6839 65.5537 50.5332 65.717 51.1842L65.493 51.3336C61.1483 45.9272 56.6823 47.5279 53.166 43.7736C53.6163 48.5056 58.0053 50.2952 60.6583 50.9066C59.4193 51.6229 59.1253 52.7826 59.1603 53.8116C59.2093 55.2746 60.432 56.3806 62.0397 56.3456C63.7127 56.3082 64.9097 54.6866 64.0417 53.1629C63.7127 53.8046 63.3767 54.3856 62.6207 54.3436C61.8647 54.3039 61.5824 53.6342 61.573 53.0229C61.5637 52.2809 62.112 51.7466 62.8143 51.6229C63.3137 51.5342 63.862 51.6579 64.3427 51.8866C65.1897 52.2949 65.8243 53.2539 65.7963 54.2572C65.766 55.2606 65.129 56.3992 63.708 57.5052C64.604 58.6112 65.577 60.0439 66.4987 62.0692C67.4204 60.0439 68.3933 58.6112 69.2893 57.5052C67.866 56.3992 67.229 55.2606 67.201 54.2572C67.1707 53.2539 67.8077 52.2949 68.6547 51.8866C69.133 51.6556 69.6837 51.5342 70.183 51.6229C70.89 51.7489 71.436 52.2856 71.4244 53.0229C71.4174 53.6342 71.1327 54.3039 70.3767 54.3436C69.6207 54.3832 69.287 53.8046 68.9557 53.1629C68.09 54.6866 69.287 56.3082 70.9577 56.3456C72.563 56.3806 73.788 55.2746 73.837 53.8116C73.872 52.7849 73.578 51.6229 72.339 50.9066C74.992 50.2976 79.381 48.5056 79.8314 43.7736C76.315 47.5279 71.849 45.9272 67.5043 51.3336L67.2803 51.1842C67.4437 50.5332 67.8404 49.6839 68.1203 49.1519C67.7027 48.9209 66.9093 48.1859 66.8977 47.6282C66.8883 47.2432 67.159 46.8466 67.635 46.8302C67.8987 46.8209 68.104 46.9726 68.2277 47.1826C68.349 47.3879 68.3467 47.8336 67.9547 47.9619C68.251 48.1859 68.6594 48.1346 68.9417 47.9526C69.3617 47.6842 69.413 47.2456 69.3967 46.7812C69.378 46.2656 68.7993 45.5889 68.146 45.5912C67.8007 45.5912 67.3993 45.7172 66.963 46.0299L66.956 46.0229C67.411 45.0102 67.4483 43.9112 66.4963 43.0176H66.501Z" fill="#FFDE00"/>
<path d="M67.1006 47.6138C67.1006 47.3291 67.2896 47.0351 67.649 47.0235C67.8753 47.0165 68.006 47.1798 68.0643 47.2778C68.1063 47.3501 68.125 47.4855 68.083 47.6021C68.0503 47.6861 67.992 47.7421 67.8986 47.7725L67.5463 47.8891C67.852 48.1248 68.111 48.3418 68.5286 48.2998C68.7223 48.2811 68.9066 48.2111 69.0536 48.1178C69.5646 47.7888 69.616 47.2545 69.5996 46.7738C69.5763 46.1508 68.9066 45.3901 68.153 45.3925C67.8846 45.3925 67.607 45.4671 67.3246 45.5978C67.4156 45.2945 67.4646 44.9981 67.4646 44.7158C67.4646 44.0158 67.1846 43.3951 66.634 42.8725L66.4986 42.7441L66.3633 42.8725C65.8103 43.3928 65.5326 44.0158 65.5326 44.7158C65.5326 44.9981 65.5816 45.2945 65.6726 45.5978C65.3926 45.4671 65.1173 45.3948 64.8443 45.3925C64.093 45.3901 63.4186 46.1485 63.3976 46.7738C63.3813 47.2521 63.4326 47.7888 63.9436 48.1178C64.1163 48.2298 64.3403 48.3045 64.5713 48.3068C64.9446 48.3115 65.178 48.1015 65.4556 47.8915C65.283 47.8355 64.989 47.7981 64.9166 47.6021C64.8723 47.4855 64.8933 47.3501 64.9353 47.2778C64.9913 47.1798 65.122 47.0165 65.3506 47.0235C65.7076 47.0351 65.899 47.3291 65.899 47.6138C65.8896 48.0781 65.1663 48.7595 64.779 48.9765L64.611 49.0698L64.6996 49.2401C64.9586 49.7301 65.2643 50.4021 65.444 50.9691C63.071 48.1295 60.7003 47.3011 58.409 46.5101C56.5773 45.8755 54.8436 45.2758 53.306 43.6355L52.9116 43.2155L52.9653 43.7895C53.4226 48.5868 57.8606 50.3788 60.173 50.9878C59.3726 51.6061 58.9526 52.5161 58.9526 53.6548C58.9526 53.7061 58.9526 53.7621 58.955 53.8135C59.0063 55.4048 60.334 56.5738 62.035 56.5365C62.9613 56.5178 63.806 56.0325 64.2353 55.2741C64.625 54.5858 64.6156 53.7785 64.205 53.0598L64.0253 52.7448L63.8596 53.0691C63.526 53.7178 63.2413 54.1751 62.6253 54.1425C61.839 54.1005 61.769 53.2675 61.7666 53.0131C61.7596 52.4088 62.1936 51.9235 62.8446 51.8091C63.267 51.7345 63.7663 51.8208 64.2516 52.0588C65.066 52.4508 65.619 53.3515 65.5956 54.2475C65.5653 55.2718 64.87 56.3451 63.582 57.3461L63.4233 57.4698L63.5493 57.6261C64.653 58.9888 65.5326 60.4261 66.3143 62.1481L66.494 62.5425L66.6736 62.1481C67.4553 60.4261 68.335 58.9888 69.4386 57.6261L69.5646 57.4698L69.406 57.3461C68.1203 56.3428 67.4226 55.2718 67.3923 54.2475C67.3666 53.3515 67.9173 52.4531 68.7363 52.0588C69.2216 51.8231 69.7233 51.7345 70.1433 51.8091C70.7966 51.9258 71.233 52.4088 71.226 53.0131C71.2236 53.2675 71.149 54.1005 70.3673 54.1425C69.749 54.1751 69.4666 53.7178 69.133 53.0691L68.9673 52.7448L68.7876 53.0598C68.377 53.7785 68.3676 54.5858 68.7573 55.2741C69.1866 56.0325 70.0313 56.5155 70.9576 56.5365C72.661 56.5738 73.9863 55.4025 74.0376 53.8135C74.04 53.7598 74.04 53.7061 74.04 53.6548C74.04 52.5161 73.62 51.6061 72.8196 50.9878C75.1343 50.3788 79.5746 48.5891 80.0273 43.7895L80.081 43.2155L79.6866 43.6355C78.1513 45.2758 76.42 45.8755 74.5836 46.5101C72.29 47.3035 69.9216 48.1295 67.5486 50.9691C67.726 50.4045 68.0316 49.7301 68.293 49.2401L68.3816 49.0698L68.2136 48.9765C67.824 48.7595 67.103 48.0781 67.0936 47.6138H67.1006ZM66.7063 47.6185C66.7203 48.2275 67.4086 48.9041 67.8683 49.2191C67.5206 49.9028 67.1496 50.6495 67.0586 51.4195L67.551 51.5921L67.663 51.4521C70.0336 48.5028 72.416 47.6791 74.7213 46.8811C76.4386 46.2885 78.0626 45.7121 79.5513 44.3191C78.779 48.7361 74.2686 50.2551 72.2993 50.7078L71.8093 50.8198L72.2433 51.0695C73.1743 51.6085 73.6456 52.4741 73.6456 53.6455C73.6456 53.6945 73.6456 53.7435 73.6433 53.7971C73.599 55.1645 72.4463 56.1725 70.967 56.1398C70.1783 56.1235 69.462 55.7151 69.1026 55.0781C68.944 54.7981 68.8646 54.5041 68.8646 54.2031C68.8646 54.0025 68.9113 53.8065 68.9813 53.6058C69.2613 54.0865 69.658 54.5695 70.3883 54.5298C71.2843 54.4831 71.611 53.6828 71.6203 53.0131C71.6296 52.2198 71.0533 51.5641 70.2156 51.4148C69.714 51.3261 69.1283 51.4265 68.5683 51.6971C67.6373 52.1451 67.0026 53.1601 67.0026 54.1821V54.2521C67.0353 55.3558 67.733 56.4828 69.0186 57.5258C68.0433 58.7555 67.215 60.1018 66.4963 61.6138C65.7776 60.1018 64.9493 58.7555 63.974 57.5258C65.2573 56.4828 65.9573 55.3558 65.99 54.2521V54.1821C65.99 53.1601 65.353 52.1451 64.4243 51.6971C63.8643 51.4288 63.2786 51.3261 62.777 51.4148C61.9393 51.5641 61.363 52.2198 61.3723 53.0131C61.3816 53.6828 61.7083 54.4831 62.6043 54.5298C63.3346 54.5695 63.736 54.0888 64.0113 53.6058C64.0813 53.8041 64.128 54.0025 64.128 54.2031C64.128 54.5018 64.0486 54.7981 63.89 55.0781C63.526 55.7151 62.8143 56.1235 62.0233 56.1398C60.5416 56.1725 59.3913 55.1645 59.347 53.7971C59.3446 53.7481 59.3446 53.6968 59.3446 53.6455C59.3446 52.4718 59.816 51.6061 60.747 51.0671L61.181 50.8175L60.691 50.7055C58.7193 50.2528 54.2113 48.7338 53.439 44.3168C54.9276 45.7098 56.5563 46.2815 58.269 46.8788C60.572 47.6768 62.9566 48.5005 65.3273 51.4498L65.4393 51.5898L65.9316 51.4171C65.8406 50.6471 65.472 49.9005 65.122 49.2168C65.584 48.9018 66.2723 48.2275 66.284 47.6161C66.284 47.1378 65.941 46.6478 65.3553 46.6291C65.0426 46.6198 64.7603 46.7831 64.5876 47.0795C64.5223 47.1891 64.492 47.3268 64.492 47.4621C64.492 47.5578 64.506 47.6558 64.541 47.7421C64.5666 47.8028 64.6086 47.8518 64.6483 47.9031C64.471 47.9218 64.2866 47.8728 64.1513 47.7865C63.8246 47.5765 63.771 47.2358 63.785 46.7878C63.799 46.3911 64.2773 45.7845 64.8373 45.7868C65.3483 45.7891 65.7496 46.0785 66.1463 46.3561L66.319 46.1951C66.1113 45.7191 65.913 45.2478 65.913 44.7135C65.913 44.1791 66.1113 43.7171 66.487 43.3088C66.8626 43.7195 67.061 44.1885 67.061 44.7135C67.061 45.2385 66.858 45.7121 66.6666 46.1951L66.8206 46.3561C67.2266 46.0855 67.6256 45.7891 68.139 45.7868C68.699 45.7845 69.1773 46.3911 69.1913 46.7878C69.2076 47.2358 69.1516 47.5788 68.825 47.7865C68.692 47.8728 68.5053 47.9218 68.328 47.9031C68.3676 47.8518 68.4096 47.8051 68.4353 47.7421C68.468 47.6558 68.4843 47.5601 68.4843 47.4621C68.4843 47.3245 68.4516 47.1891 68.3886 47.0795C68.216 46.7831 67.9336 46.6198 67.621 46.6291C67.054 46.6525 66.7086 47.1401 66.7086 47.6185H66.7063Z" fill="#009933"/>
<path fill-rule="evenodd" clip-rule="evenodd" d="M66.501 51.8935C66.7997 50.9998 67.1287 50.0571 67.5067 49.3525C67.1567 49.1425 66.8254 48.7785 66.501 48.3491C66.1767 48.7808 65.8477 49.1425 65.4954 49.3525C65.8757 50.0571 66.2024 51.0021 66.501 51.8935Z" fill="#009BC9"/>
<path fill-rule="evenodd" clip-rule="evenodd" d="M66.501 60.7319C66.9864 59.7682 67.5767 58.7112 68.3444 57.8432C67.7074 57.2995 67.068 56.5342 66.501 55.6172C65.934 56.5342 65.297 57.2995 64.6577 57.8432C65.423 58.7135 66.0157 59.7705 66.501 60.7319Z" fill="#009BC9"/>
<path d="M67.0144 56.7982C66.921 56.7982 66.8207 56.8496 66.7227 56.9499C66.5034 57.1716 66.403 57.5169 66.3237 57.7992L66.3144 57.8296C66.298 57.8902 66.2794 57.9602 66.263 58.0256C66.207 58.0069 66.144 57.9882 66.0764 57.9766C66.1324 57.8319 66.1697 57.6896 66.1627 57.5472C66.1604 57.4982 66.1207 57.4609 66.0717 57.4632C66.0227 57.4656 65.9854 57.5052 65.9877 57.5542C65.9947 57.7759 65.8734 58.0186 65.7287 58.2892C65.7054 58.3312 65.7217 58.3849 65.7637 58.4082C65.8057 58.4316 65.8594 58.4152 65.8827 58.3732C65.9247 58.2939 65.9667 58.2169 66.0017 58.1446C66.0834 58.1539 66.1534 58.1749 66.2187 58.1959C66.102 58.6579 65.9994 59.1572 65.934 59.5189C65.934 59.5236 65.9317 59.5282 65.9317 59.5329C65.9317 59.5749 65.962 59.6122 66.004 59.6192C66.0507 59.6262 66.0974 59.5959 66.1044 59.5469C66.1697 59.1922 66.2677 58.7022 66.382 58.2496C66.4567 58.2776 66.5267 58.3032 66.606 58.3079C66.991 58.3406 67.1964 57.9836 67.2547 57.6709C67.3014 57.4259 67.3154 57.0059 67.1754 56.8612C67.138 56.8216 67.082 56.7959 67.0167 56.7959L67.0144 56.7982ZM66.4824 57.8762L66.4917 57.8436C66.5664 57.5846 66.6597 57.2602 66.8464 57.0712C66.9327 56.9849 66.9887 56.9732 67.0144 56.9732C67.033 56.9732 67.047 56.9802 67.0517 56.9849C67.1054 57.0386 67.145 57.3209 67.0844 57.6382C67.04 57.8809 66.8907 58.1562 66.6224 58.1352C66.564 58.1306 66.4987 58.1049 66.4287 58.0792C66.4427 58.0116 66.4614 57.9416 66.48 57.8762H66.4824Z" fill="#FFDE00"/>
<path fill-rule="evenodd" clip-rule="evenodd" d="M66.5009 1.31152C85.1046 1.31152 100.19 16.3965 100.19 35.0002C100.19 45.2692 95.5906 54.4625 88.3456 60.6412L84.3906 55.0949C88.9476 51.0349 92.1163 45.4512 93.0916 39.1442C93.1079 39.0299 93.0963 38.9855 93.2223 38.9459C93.3319 38.9132 93.4486 38.8782 93.5489 38.8339C93.5909 38.8175 93.6306 38.7895 93.6703 38.7522C93.7006 38.7219 93.7123 38.6682 93.7239 38.6075C93.7473 38.4932 93.7753 38.3415 93.9689 38.2832C94.1836 38.2179 94.3679 38.3672 94.6036 38.5562C94.7366 38.6635 94.8883 38.7825 95.0703 38.8922C95.5323 39.1605 95.9523 39.2772 96.5216 39.2912C97.0163 39.3029 97.4456 39.2305 97.9449 38.8222C98.1386 38.6635 98.2809 38.4955 98.4373 38.2949C98.5726 38.1199 98.7313 37.9565 98.9646 37.9589C99.1443 37.9612 99.2866 38.0452 99.3543 38.1875C99.3823 38.2459 99.3963 38.3135 99.3963 38.3812C99.3963 38.3929 99.3916 38.4045 99.3916 38.4162C99.4686 38.3275 99.5129 38.2342 99.5176 38.1432V38.1292C99.5176 37.9659 99.4336 37.8469 99.3613 37.7745C99.2259 37.6369 99.0206 37.5505 98.8269 37.5529C98.4466 37.5575 98.1339 37.7465 97.8026 37.9425C97.6369 38.0405 97.4666 38.1432 97.2893 38.2225C96.8949 38.3929 96.4399 38.4652 95.8613 38.4489C95.0073 38.4255 94.4636 38.0382 94.1579 37.7162C93.8103 37.3499 93.5933 36.8692 93.6026 36.4935C93.6189 35.8309 93.8686 35.6535 93.8989 35.6372L93.9176 35.6255L95.0003 35.5532L94.9139 35.6955C94.9139 35.6955 94.7576 35.9569 94.7459 36.5005V36.5402C94.7459 37.2192 95.2126 37.4945 95.3199 37.5482C95.3596 37.5389 95.5626 37.4875 95.7329 37.4455C95.5136 37.2775 95.1543 36.9229 95.1543 36.3955V36.3652C95.1706 35.6885 95.6116 35.3245 96.3886 35.3479C96.9206 35.3619 97.4829 35.7142 97.4713 36.2555C97.4666 36.4562 97.4013 36.6125 97.2846 36.7269C97.1143 36.8902 96.8879 36.9019 96.7993 36.8995C96.6429 36.8949 96.5099 36.8132 96.4119 36.7292C96.4283 36.8179 96.4656 36.9229 96.5426 37.0139C96.6803 37.1772 96.9113 37.2635 97.2216 37.2705C97.5553 37.2799 98.0663 36.9649 98.0803 36.4702C98.0849 36.2555 98.0499 36.1389 98.0266 36.0525C97.9893 35.9219 97.9729 35.8355 98.0943 35.6885C98.2366 35.5159 98.4489 35.5905 98.5889 35.6395L98.7079 35.6722C98.8176 35.6745 99.1303 35.3852 99.4499 34.9979C99.1303 34.6082 98.8199 34.3212 98.7079 34.3235L98.5889 34.3562C98.4489 34.4052 98.2389 34.4775 98.0943 34.3072C97.9706 34.1579 97.9869 34.0715 98.0266 33.9432C98.0523 33.8569 98.0849 33.7402 98.0803 33.5255C98.0686 33.0309 97.5553 32.7182 97.2216 32.7252C96.9089 32.7322 96.6779 32.8185 96.5426 32.9819C96.4656 33.0729 96.4283 33.1755 96.4119 33.2665C96.5099 33.1825 96.6406 33.1009 96.7993 33.0962C96.8879 33.0939 97.1143 33.1055 97.2846 33.2689C97.4036 33.3832 97.4666 33.5395 97.4713 33.7402C97.4853 34.2839 96.9206 34.6362 96.3886 34.6479C95.6093 34.6665 95.1706 34.3072 95.1543 33.6305V33.6002C95.1543 33.0752 95.5159 32.7205 95.7329 32.5502C95.5603 32.5059 95.3573 32.4569 95.3199 32.4475C95.2103 32.5012 94.7459 32.7742 94.7459 33.4555V33.4952C94.7599 34.0389 94.9139 34.2979 94.9139 34.3002L95.0003 34.4425L94.8323 34.4332L93.9176 34.3749L93.8989 34.3632C93.8686 34.3469 93.6189 34.1672 93.6026 33.5069C93.5933 33.1289 93.8103 32.6505 94.1579 32.2842C94.4636 31.9599 95.0073 31.5725 95.8613 31.5515C96.4399 31.5375 96.8926 31.6075 97.2893 31.7779C97.4666 31.8549 97.6393 31.9575 97.8026 32.0579C98.1363 32.2585 98.4489 32.4452 98.8293 32.4475C99.0229 32.4499 99.2259 32.3635 99.3636 32.2259C99.4359 32.1512 99.5199 32.0322 99.5199 31.8712V31.8572C99.5176 31.7639 99.4709 31.6705 99.3939 31.5795C99.3939 31.5912 99.4009 31.6052 99.4009 31.6145C99.4009 31.6845 99.3869 31.7475 99.3589 31.8082C99.2913 31.9505 99.1489 32.0345 98.9693 32.0369C98.7336 32.0392 98.5773 31.8759 98.4419 31.7009C98.2856 31.4979 98.1433 31.3299 97.9496 31.1735C97.4526 30.7652 97.0209 30.6929 96.5263 30.7045C95.9569 30.7185 95.5346 30.8352 95.0749 31.1035C94.8906 31.2132 94.7389 31.3322 94.6083 31.4395C94.3726 31.6262 94.1883 31.7779 93.9736 31.7125C93.7799 31.6565 93.7519 31.5002 93.7286 31.3882C93.7169 31.3275 93.7053 31.2715 93.6749 31.2435C93.6306 31.2015 93.5839 31.1735 93.5396 31.1572C93.4486 31.1199 93.3506 31.0895 93.2526 31.0615C93.1033 31.0172 93.1173 30.9752 93.0939 30.8399C91.0943 17.9575 79.9503 8.09452 66.5079 8.09452C53.0656 8.09452 41.9193 17.9622 39.9219 30.8492C39.9056 30.9635 39.9196 31.0149 39.7913 31.0545C39.6839 31.0872 39.5789 31.1199 39.4809 31.1572C39.3596 31.2062 39.3153 31.2645 39.2919 31.3882C39.2686 31.5025 39.2406 31.6542 39.0469 31.7125C38.8323 31.7779 38.6479 31.6285 38.4123 31.4395C38.2793 31.3322 38.1276 31.2132 37.9456 31.1035C37.4836 30.8352 37.0636 30.7185 36.4943 30.7045C35.9996 30.6929 35.5703 30.7652 35.0709 31.1735C34.8773 31.3322 34.7349 31.5002 34.5786 31.7009C34.4433 31.8759 34.2846 32.0392 34.0513 32.0369C33.8716 32.0345 33.7293 31.9505 33.6616 31.8082C33.6336 31.7499 33.6196 31.6822 33.6196 31.6145C33.6196 31.6029 33.6243 31.5889 33.6266 31.5795C33.5496 31.6682 33.5029 31.7615 33.5006 31.8572V31.8712C33.5006 32.0345 33.5846 32.1535 33.6569 32.2259C33.7923 32.3635 33.9976 32.4499 34.1913 32.4475C34.5716 32.4429 34.8843 32.2539 35.2179 32.0579C35.3836 31.9599 35.5539 31.8572 35.7313 31.7779C36.1256 31.6075 36.5806 31.5352 37.1593 31.5515C38.0133 31.5749 38.5569 31.9622 38.8626 32.2842C39.2103 32.6505 39.4273 33.1312 39.4179 33.5069C39.4016 34.1695 39.1519 34.3469 39.1216 34.3632L39.1029 34.3749L38.1883 34.4332L38.0203 34.4425L38.1066 34.3002C38.1066 34.3002 38.2629 34.0389 38.2746 33.4952V33.4555C38.2746 32.7742 37.8079 32.5012 37.7006 32.4475C37.6609 32.4569 37.4579 32.5082 37.2876 32.5502C37.5069 32.7182 37.8663 33.0729 37.8663 33.6002V33.6305C37.8499 34.3072 37.4089 34.6712 36.6319 34.6479C36.0999 34.6339 35.5376 34.2815 35.5493 33.7402C35.5539 33.5395 35.6193 33.3832 35.7359 33.2689C35.9063 33.1055 36.1326 33.0939 36.2213 33.0962C36.3776 33.1009 36.5106 33.1825 36.6086 33.2665C36.5923 33.1779 36.5549 33.0729 36.4779 32.9819C36.3403 32.8185 36.1093 32.7322 35.7989 32.7252C35.4653 32.7159 34.9543 33.0309 34.9403 33.5255C34.9356 33.7402 34.9706 33.8569 34.9939 33.9432C35.0313 34.0739 35.0476 34.1602 34.9263 34.3072C34.7839 34.4775 34.5716 34.4052 34.4316 34.3562L34.3033 34.3282C34.1936 34.3259 33.8809 34.6129 33.5613 35.0025C33.8809 35.3922 34.1913 35.6792 34.3033 35.6769L34.4223 35.6442C34.5623 35.5952 34.7723 35.5229 34.9169 35.6932C35.0406 35.8425 35.0243 35.9289 34.9846 36.0572C34.9589 36.1435 34.9263 36.2602 34.9309 36.4749C34.9426 36.9695 35.4559 37.2822 35.7896 37.2752C36.1023 37.2682 36.3333 37.1819 36.4686 37.0185C36.5456 36.9275 36.5829 36.8249 36.5993 36.7339C36.5013 36.8179 36.3706 36.8995 36.2119 36.9042C36.1233 36.9065 35.8969 36.8949 35.7266 36.7315C35.6076 36.6172 35.5446 36.4609 35.5399 36.2602C35.5259 35.7165 36.0906 35.3642 36.6226 35.3525C37.4019 35.3339 37.8406 35.6932 37.8569 36.3699V36.4002C37.8569 36.9252 37.4953 37.2799 37.2783 37.4502C37.4509 37.4945 37.6539 37.5435 37.6913 37.5529C37.8009 37.4992 38.2653 37.2239 38.2653 36.5449V36.5052C38.2513 35.9615 38.0973 35.7025 38.0973 35.7002L38.0109 35.5579L39.0936 35.6302L39.1123 35.6419C39.1426 35.6582 39.3923 35.8379 39.4086 36.4982C39.4179 36.8762 39.2009 37.3545 38.8533 37.7209C38.5476 38.0429 38.0039 38.4325 37.1499 38.4535C36.5713 38.4675 36.1186 38.3975 35.7219 38.2272C35.5446 38.1502 35.3719 38.0475 35.2086 37.9472C34.8749 37.7465 34.5623 37.5599 34.1819 37.5575C33.9883 37.5552 33.7853 37.6415 33.6476 37.7792C33.5753 37.8539 33.4913 37.9729 33.4913 38.1339V38.1479C33.4936 38.2389 33.5403 38.3322 33.6173 38.4209C33.6173 38.4092 33.6126 38.3975 33.6126 38.3859C33.6126 38.3159 33.6266 38.2529 33.6546 38.1922C33.7223 38.0499 33.8646 37.9659 34.0443 37.9635C34.2799 37.9612 34.4363 38.1245 34.5716 38.2995C34.7279 38.5025 34.8703 38.6705 35.0639 38.8269C35.5633 39.2352 35.9926 39.3075 36.4873 39.2959C37.0566 39.2819 37.4789 39.1652 37.9386 38.8969C38.1229 38.7872 38.2746 38.6682 38.4053 38.5609C38.6409 38.3742 38.8253 38.2225 39.0399 38.2879C39.2336 38.3439 39.2616 38.5002 39.2849 38.6122C39.3036 38.7195 39.3293 38.7662 39.4226 38.8199C39.5253 38.8782 39.6606 38.9132 39.7773 38.9482C39.9009 38.9832 39.8939 39.0135 39.9103 39.1255C40.8833 45.4419 44.0519 51.0325 48.6136 55.0972L44.6586 60.6435C37.4113 54.4625 32.8123 45.2692 32.8123 35.0002C32.8123 16.3965 47.8973 1.31152 66.5009 1.31152ZM84.0943 55.3585L88.0446 60.8979C87.9443 60.9819 87.8416 61.0659 87.7413 61.1499L83.7933 55.6152C83.8936 55.5289 83.9963 55.4449 84.0943 55.3585ZM83.4899 55.8649L87.4333 61.3949L87.1229 61.6399L83.1819 56.1122C83.2846 56.0305 83.3896 55.9489 83.4899 55.8649ZM82.8693 56.3549L86.8103 61.8802C86.5629 62.0669 86.3156 62.2512 86.0636 62.4285L82.1249 56.9102C82.3769 56.7305 82.6243 56.5439 82.8693 56.3572V56.3549ZM50.8769 56.9079L46.9383 62.4285C46.6863 62.2489 46.4389 62.0645 46.1916 61.8802L50.1326 56.3549C50.3776 56.5392 50.6249 56.7259 50.8769 56.9055V56.9079ZM49.8223 56.1122L45.8813 61.6399C45.7786 61.5582 45.6736 61.4789 45.5709 61.3949L49.5143 55.8649C49.6169 55.9489 49.7196 56.0305 49.8223 56.1122ZM49.2109 55.6129L45.2629 61.1475C45.1626 61.0635 45.0599 60.9795 44.9596 60.8955L48.9099 55.3562C49.0103 55.4449 49.1129 55.5289 49.2109 55.6129Z" fill="#EE2E24"/>
<path d="M66.5009 25.3729C72.3476 25.3729 77.0872 20.6332 77.0872 14.7865C77.0872 8.93986 72.3476 4.2002 66.5009 4.2002C60.6542 4.2002 55.9146 8.93986 55.9146 14.7865C55.9146 20.6332 60.6542 25.3729 66.5009 25.3729Z" fill="#009933"/>
<path d="M66.501 24.981C72.1311 24.981 76.6953 20.4168 76.6953 14.7866C76.6953 9.15644 72.1311 4.59229 66.501 4.59229C60.8708 4.59229 56.3066 9.15644 56.3066 14.7866C56.3066 20.4168 60.8708 24.981 66.501 24.981Z" fill="#FFDE00"/>
<path d="M66.5008 23.4714C71.2972 23.4714 75.1855 19.5831 75.1855 14.7867C75.1855 9.99031 71.2972 6.10205 66.5008 6.10205C61.7044 6.10205 57.8162 9.99031 57.8162 14.7867C57.8162 19.5831 61.7044 23.4714 66.5008 23.4714Z" fill="#EE2E24"/>
<path d="M66.5008 23.3404C71.225 23.3404 75.0548 19.5107 75.0548 14.7864C75.0548 10.0622 71.225 6.23242 66.5008 6.23242C61.7765 6.23242 57.9468 10.0622 57.9468 14.7864C57.9468 19.5107 61.7765 23.3404 66.5008 23.3404Z" fill="#009933"/>
<path d="M66.501 22.9463C71.0074 22.9463 74.6606 19.2931 74.6606 14.7866C74.6606 10.2802 71.0074 6.62695 66.501 6.62695C61.9945 6.62695 58.3413 10.2802 58.3413 14.7866C58.3413 19.2931 61.9945 22.9463 66.501 22.9463Z" fill="#EE2E24"/>
<path d="M66.5009 22.8153C70.9352 22.8153 74.5299 19.2206 74.5299 14.7863C74.5299 10.352 70.9352 6.75732 66.5009 6.75732C62.0666 6.75732 58.4719 10.352 58.4719 14.7863C58.4719 19.2206 62.0666 22.8153 66.5009 22.8153Z" fill="#FFDE00"/>
<path d="M66.5009 22.1365C70.5602 22.1365 73.8509 18.8458 73.8509 14.7865C73.8509 10.7272 70.5602 7.43652 66.5009 7.43652C62.4416 7.43652 59.1509 10.7272 59.1509 14.7865C59.1509 18.8458 62.4416 22.1365 66.5009 22.1365Z" fill="#EE2E24"/>
<path d="M66.5008 22.006C70.488 22.006 73.7202 18.7738 73.7202 14.7867C73.7202 10.7996 70.488 7.56738 66.5008 7.56738C62.5137 7.56738 59.2815 10.7996 59.2815 14.7867C59.2815 18.7738 62.5137 22.006 66.5008 22.006Z" fill="#009BC9"/>
<path fill-rule="evenodd" clip-rule="evenodd" d="M72.4299 10.9134L71.8839 10.3674L71.3612 10.89L71.3426 11.1724L69.0209 13.494L68.7386 13.5127L68.2159 14.0354L68.7619 14.5814L69.2846 14.0587L69.3032 13.7764L71.6249 11.4547L71.9072 11.436L72.4299 10.9134ZM71.6646 10.1667L71.1186 9.62069L70.5959 10.1434L70.5772 10.4257L68.2556 12.7474L67.9732 12.766L67.4506 13.2887L67.9966 13.8347L68.5192 13.312L68.5379 13.0297L70.8596 10.708L71.1419 10.6894L71.6646 10.1667ZM70.9062 9.40836L70.3602 8.86236L69.8376 9.38503L69.8189 9.66736L67.4972 11.989L67.2149 12.0077L66.6922 12.5304L67.2382 13.0764L67.7609 12.5537L67.7796 12.2714L70.1012 9.94969L70.3836 9.93103L70.9062 9.40836ZM62.6229 20.718L62.0769 20.172L62.5996 19.6494L62.8819 19.6307L65.2036 17.309L65.2222 17.0267L65.7449 16.504L66.2909 17.05L65.7682 17.5727L65.4859 17.5914L63.1642 19.913L63.1456 20.1954L62.6229 20.718ZM61.8739 19.9527L61.3279 19.4067L61.8506 18.884L62.1329 18.8654L64.4546 16.5437L64.4732 16.2614L64.9959 15.7387L65.5419 16.2847L65.0192 16.8074L64.7369 16.826L62.4152 19.1477L62.3966 19.43L61.8739 19.9527ZM61.1179 19.1967L60.5719 18.6507L61.0946 18.128L61.3769 18.1094L63.6986 15.7877L63.7172 15.5054L64.2399 14.9827L64.7859 15.5287L64.2632 16.0514L63.9809 16.07L61.6592 18.3917L61.6406 18.674L61.1179 19.1967ZM72.4276 18.66L71.8816 19.206L71.3589 18.6834L71.3402 18.401L69.0186 16.0794L68.7362 16.0607L68.2136 15.538L68.7596 14.992L69.2822 15.5147L69.3009 15.797L71.6226 18.1187L71.9049 18.1374L72.4276 18.66ZM71.6622 19.4067L71.1162 19.9527L70.5936 19.43L70.5749 19.1477L68.2532 16.826L67.9709 16.8074L67.4482 16.2847L67.9942 15.7387L68.5169 16.2614L68.5356 16.5437L70.8572 18.8654L71.1396 18.884L71.6622 19.4067ZM70.9039 20.165L70.3579 20.711L69.8352 20.1884L69.8166 19.906L67.4949 17.5844L67.2126 17.5657L66.6899 17.043L67.2359 16.497L67.7586 17.0197L67.7772 17.302L70.0989 19.6237L70.3812 19.6424L70.9039 20.165ZM62.6206 8.85303L62.0746 9.39903L62.5972 9.92169L62.8796 9.94036L65.2012 12.262L65.2199 12.5444L65.7426 13.067L66.2886 12.521L65.7659 11.9984L65.4836 11.9797L63.1619 9.65803L63.1432 9.37569L62.6206 8.85303ZM61.8716 9.62069L61.3256 10.1667L61.8482 10.6894L62.1306 10.708L64.4522 13.0297L64.4709 13.312L64.9936 13.8347L65.5396 13.2887L65.0169 12.766L64.7346 12.7474L62.4129 10.4257L62.3942 10.1434L61.8716 9.62069ZM61.1156 10.3767L60.5696 10.9227L61.0922 11.4454L61.3746 11.464L63.6962 13.7857L63.7149 14.068L64.2376 14.5907L64.7836 14.0447L64.2609 13.522L63.9786 13.5034L61.6569 11.1817L61.6382 10.8994L61.1156 10.3767ZM66.4916 15.755L67.0376 16.301L66.4916 16.847L65.9456 16.301L66.4916 15.755ZM65.7356 14.9967L66.2816 15.5427L65.7356 16.0887L65.1896 15.5427L65.7356 14.9967ZM64.9796 14.2407L65.5256 14.7867L64.9796 15.3327L64.4336 14.7867L64.9796 14.2407ZM65.7356 13.4824L66.2816 14.0284L65.7356 14.5744L65.1896 14.0284L65.7356 13.4824ZM66.4916 14.2407L67.0376 14.7867L66.4916 15.3327L65.9456 14.7867L66.4916 14.2407ZM67.2499 14.9967L67.7959 15.5427L67.2499 16.0887L66.7039 15.5427L67.2499 14.9967ZM68.0059 14.2407L68.5519 14.7867L68.0059 15.3327L67.4599 14.7867L68.0059 14.2407ZM67.2499 13.4824L67.7959 14.0284L67.2499 14.5744L66.7039 14.0284L67.2499 13.4824ZM66.4916 12.7264L67.0376 13.2724L66.4916 13.8184L65.9456 13.2724L66.4916 12.7264Z" fill="#FFDE00"/>
<path d="M66.501 6.76709C66.4776 6.76709 66.4566 6.77876 66.445 6.79976C66.445 6.79976 66.2373 7.14276 66.1626 7.26176C66.0786 7.14742 65.8383 6.82076 65.8383 6.82076C65.8243 6.80209 65.801 6.79042 65.78 6.79276C65.7566 6.79509 65.738 6.80676 65.7263 6.83009C65.7263 6.83009 65.549 7.19642 65.486 7.32242C65.3926 7.21509 65.1243 6.90942 65.1243 6.90942C65.1103 6.89309 65.0846 6.88376 65.0636 6.88609C65.0403 6.89076 65.0216 6.90476 65.0146 6.92809C65.0146 6.92809 64.8723 7.30842 64.821 7.43909C64.7183 7.34109 64.4243 7.06109 64.4243 7.06109C64.408 7.04709 64.3846 7.03776 64.3636 7.04709C64.3403 7.05176 64.324 7.07042 64.317 7.09142C64.317 7.09142 64.2073 7.48109 64.1723 7.61876C64.0603 7.53009 63.743 7.27809 63.743 7.27809C63.7266 7.26409 63.701 7.26176 63.6776 7.26876C63.6543 7.27576 63.6403 7.29676 63.6356 7.31776C63.6356 7.31776 63.561 7.71676 63.5376 7.85676C63.4186 7.77742 63.0803 7.55576 63.0803 7.55576C63.0616 7.54409 63.036 7.54176 63.015 7.55109C62.9963 7.56042 62.98 7.58142 62.9776 7.60242C62.9776 7.60242 62.9403 8.00842 62.9286 8.14842C62.8026 8.08076 62.448 7.88942 62.448 7.88942C62.4293 7.88009 62.4036 7.88009 62.3826 7.89176C62.364 7.90342 62.35 7.92442 62.35 7.94776V8.49609C62.2193 8.44009 61.846 8.28142 61.846 8.28142C61.8226 8.27209 61.7993 8.27442 61.7806 8.28842C61.7643 8.30009 61.7526 8.32109 61.7526 8.33976V8.34442C61.7526 8.34442 61.7876 8.75042 61.8016 8.89042C61.6663 8.84609 61.2813 8.72242 61.2813 8.72242C61.258 8.71542 61.2346 8.72009 61.216 8.73409C61.202 8.74576 61.1926 8.76442 61.1926 8.78309V8.79476C61.1926 8.79476 61.265 9.19376 61.2883 9.33376C61.1506 9.30109 60.754 9.21242 60.754 9.21242C60.7306 9.20776 60.7096 9.21476 60.6933 9.23109C60.6816 9.24276 60.677 9.26142 60.677 9.27542C60.677 9.28009 60.677 9.28709 60.6793 9.29176C60.6793 9.29176 60.7866 9.68142 60.824 9.81909C60.684 9.80042 60.2803 9.74676 60.2803 9.74676C60.257 9.74442 60.236 9.75142 60.222 9.77242C60.2126 9.78409 60.208 9.80042 60.208 9.81442C60.208 9.82142 60.2103 9.82842 60.2126 9.83776C60.2126 9.83776 60.3526 10.2181 60.4016 10.3511C60.2616 10.3464 59.8533 10.3254 59.8533 10.3254C59.83 10.3254 59.809 10.3348 59.7973 10.3558C59.7903 10.3651 59.788 10.3814 59.788 10.3931C59.788 10.4024 59.7903 10.4118 59.795 10.4211C59.795 10.4211 59.97 10.7874 60.033 10.9158C59.893 10.9228 59.4846 10.9414 59.4846 10.9414C59.4613 10.9414 59.4403 10.9554 59.431 10.9764C59.4263 10.9858 59.424 10.9951 59.424 11.0091C59.424 11.0231 59.4263 11.0324 59.4333 11.0441C59.4333 11.0441 59.641 11.3918 59.7133 11.5154C59.5733 11.5341 59.1696 11.5901 59.1696 11.5901C59.1463 11.5924 59.1276 11.6064 59.1183 11.6298C59.116 11.6368 59.1136 11.6461 59.1136 11.6554C59.1136 11.6671 59.1183 11.6834 59.1253 11.6951C59.1253 11.6951 59.3633 12.0241 59.4473 12.1408C59.3096 12.1734 58.913 12.2644 58.913 12.2644C58.8896 12.2691 58.8733 12.2878 58.8663 12.3088C58.864 12.3158 58.864 12.3204 58.864 12.3274C58.864 12.3414 58.8686 12.3601 58.8803 12.3694C58.8803 12.3694 59.1463 12.6751 59.242 12.7824C59.1066 12.8268 58.724 12.9528 58.724 12.9528C58.7006 12.9598 58.6843 12.9784 58.6796 12.9994C58.6796 13.0041 58.6773 13.0088 58.6773 13.0134C58.6773 13.0298 58.6843 13.0484 58.696 13.0601C58.696 13.0601 58.99 13.3401 59.0903 13.4381C58.9596 13.4941 58.5863 13.6528 58.5863 13.6528C58.563 13.6621 58.549 13.6831 58.5466 13.7041V13.7134C58.5466 13.7321 58.556 13.7531 58.5723 13.7648C58.5723 13.7648 58.8873 14.0191 58.9993 14.1078C58.8733 14.1754 58.5186 14.3691 58.5186 14.3691C58.5 14.3784 58.486 14.4018 58.4836 14.4228C58.4836 14.4484 58.493 14.4671 58.514 14.4788C58.514 14.4788 58.8523 14.7028 58.9713 14.7821C58.8523 14.8614 58.514 15.0831 58.514 15.0831C58.4976 15.0948 58.4836 15.1158 58.4836 15.1368C58.4836 15.1624 58.4976 15.1834 58.5186 15.1928C58.5186 15.1928 58.8756 15.3864 58.9993 15.4541C58.8873 15.5428 58.5723 15.7948 58.5723 15.7948C58.5583 15.8064 58.5466 15.8274 58.5466 15.8461V15.8554C58.549 15.8788 58.563 15.8974 58.5863 15.9068C58.5863 15.9068 58.9596 16.0678 59.0903 16.1238C58.99 16.2218 58.696 16.5018 58.696 16.5018C58.6843 16.5134 58.6773 16.5321 58.6773 16.5484C58.6773 16.5531 58.6773 16.5578 58.6796 16.5624C58.6843 16.5858 58.703 16.6021 58.724 16.6091C58.724 16.6091 59.109 16.7351 59.2443 16.7794C59.151 16.8868 58.8873 17.1924 58.8873 17.1924C58.878 17.2041 58.871 17.2204 58.871 17.2344C58.871 17.2414 58.871 17.2484 58.8733 17.2531C58.8803 17.2764 58.899 17.2928 58.92 17.2974C58.92 17.2974 59.3143 17.3884 59.4543 17.4211C59.3703 17.5378 59.1323 17.8621 59.1323 17.8621C59.1253 17.8738 59.1206 17.8878 59.1206 17.9018C59.1206 17.9111 59.123 17.9181 59.1253 17.9274C59.1346 17.9508 59.1556 17.9648 59.1766 17.9671C59.1766 17.9671 59.5803 18.0208 59.7203 18.0418C59.648 18.1631 59.4403 18.5108 59.4403 18.5108C59.4333 18.5201 59.431 18.5341 59.431 18.5458C59.431 18.5551 59.4333 18.5691 59.438 18.5784C59.4473 18.5971 59.4706 18.6111 59.4916 18.6134C59.4916 18.6134 59.8976 18.6321 60.04 18.6391C59.9793 18.7674 59.802 19.1338 59.802 19.1338C59.7973 19.1431 59.795 19.1524 59.795 19.1618C59.795 19.1734 59.7996 19.1874 59.8043 19.1991C59.816 19.2178 59.8393 19.2294 59.8603 19.2294C59.8603 19.2294 60.2663 19.2131 60.4063 19.2038C60.3573 19.3368 60.2173 19.7171 60.2173 19.7171C60.215 19.7241 60.2126 19.7311 60.2126 19.7404C60.2126 19.7544 60.2173 19.7708 60.2266 19.7824C60.2406 19.7988 60.264 19.8104 60.285 19.8081C60.285 19.8081 60.6886 19.7568 60.8286 19.7358C60.7913 19.8711 60.684 20.2631 60.684 20.2631C60.6816 20.2678 60.6816 20.2748 60.6816 20.2794C60.6816 20.2958 60.6886 20.3121 60.698 20.3238C60.712 20.3401 60.7376 20.3494 60.7586 20.3424C60.7586 20.3424 61.153 20.2538 61.293 20.2211C61.2673 20.3611 61.1973 20.7601 61.1973 20.7601V20.7718C61.1973 20.7904 61.2043 20.8091 61.2206 20.8208C61.237 20.8348 61.2626 20.8394 61.286 20.8324C61.286 20.8324 61.671 20.7088 61.8063 20.6644C61.7946 20.8044 61.7596 21.2104 61.7596 21.2104V21.2151C61.7596 21.2338 61.769 21.2548 61.7876 21.2664C61.8063 21.2781 61.8296 21.2828 61.853 21.2734C61.853 21.2734 62.2263 21.1148 62.357 21.0588V21.6071C62.357 21.6304 62.3686 21.6514 62.3896 21.6631C62.4083 21.6748 62.434 21.6748 62.455 21.6654C62.455 21.6654 62.812 21.4718 62.938 21.4064C62.9496 21.5464 62.987 21.9524 62.987 21.9524C62.9893 21.9758 63.0033 21.9944 63.0243 22.0061C63.043 22.0154 63.0686 22.0131 63.0896 22.0014C63.0896 22.0014 63.428 21.7798 63.547 21.7004C63.5726 21.8404 63.645 22.2394 63.645 22.2394C63.6496 22.2628 63.6636 22.2814 63.687 22.2884C63.7103 22.2954 63.7336 22.2931 63.7523 22.2791C63.7523 22.2791 64.072 22.0271 64.1816 21.9384C64.219 22.0738 64.3263 22.4658 64.3263 22.4658C64.331 22.4891 64.352 22.5054 64.373 22.5101C64.394 22.5148 64.4196 22.5101 64.4336 22.4961C64.4336 22.4961 64.7276 22.2161 64.828 22.1181C64.877 22.2511 65.024 22.6314 65.024 22.6314C65.031 22.6548 65.052 22.6688 65.073 22.6734C65.094 22.6781 65.1196 22.6688 65.1336 22.6501C65.1336 22.6501 65.3996 22.3468 65.4953 22.2371C65.556 22.3654 65.7333 22.7318 65.7333 22.7318C65.7426 22.7504 65.7636 22.7668 65.787 22.7691C65.8103 22.7714 65.8313 22.7621 65.8453 22.7411C65.8453 22.7411 66.0856 22.4121 66.1696 22.3001C66.2443 22.4214 66.452 22.7691 66.452 22.7691C66.4636 22.7878 66.4846 22.8018 66.508 22.8018C66.5313 22.8018 66.5523 22.7901 66.564 22.7691C66.564 22.7691 66.774 22.4214 66.8463 22.3001C66.9303 22.4144 67.1683 22.7411 67.1683 22.7411C67.18 22.7598 67.2056 22.7714 67.2266 22.7691C67.2476 22.7668 67.2686 22.7551 67.2803 22.7318C67.2803 22.7318 67.4576 22.3654 67.5206 22.2371C67.614 22.3444 67.8823 22.6501 67.8823 22.6501C67.8963 22.6664 67.922 22.6758 67.943 22.6734C67.9663 22.6688 67.985 22.6548 67.992 22.6314C67.992 22.6314 68.1343 22.2511 68.1856 22.1204C68.2883 22.2184 68.58 22.4984 68.58 22.4984C68.5963 22.5124 68.6196 22.5218 68.6406 22.5124C68.664 22.5078 68.6803 22.4891 68.685 22.4681C68.685 22.4681 68.7946 22.0784 68.8343 21.9408C68.9463 22.0294 69.2636 22.2814 69.2636 22.2814C69.28 22.2954 69.3056 22.2978 69.329 22.2908C69.3523 22.2838 69.3663 22.2628 69.371 22.2418C69.371 22.2418 69.4456 21.8451 69.469 21.7028C69.588 21.7821 69.9286 22.0038 69.9286 22.0038C69.9473 22.0154 69.973 22.0178 69.994 22.0084C70.015 21.9991 70.029 21.9781 70.0313 21.9571C70.0313 21.9571 70.0686 21.5511 70.0803 21.4111C70.2063 21.4788 70.561 21.6678 70.561 21.6678C70.5796 21.6771 70.6053 21.6771 70.6263 21.6654C70.6473 21.6538 70.659 21.6328 70.659 21.6094V21.0634C70.7896 21.1171 71.1653 21.2758 71.1653 21.2758C71.1886 21.2851 71.2096 21.2804 71.2306 21.2688C71.247 21.2571 71.2586 21.2361 71.2586 21.2174V21.2128C71.2586 21.2128 71.2236 20.8068 71.212 20.6668C71.3473 20.7111 71.7323 20.8348 71.7323 20.8348C71.7556 20.8418 71.779 20.8371 71.7976 20.8231C71.8116 20.8114 71.821 20.7928 71.821 20.7741V20.7624C71.821 20.7624 71.751 20.3728 71.7253 20.2281C71.87 20.2678 72.304 20.3891 72.304 20.3891C72.3273 20.3961 72.353 20.3891 72.3693 20.3728C72.381 20.3611 72.3856 20.3424 72.3856 20.3284C72.3856 20.3214 72.3856 20.3144 72.3833 20.3098C72.3833 20.3098 72.2456 19.8851 72.199 19.7404C72.3436 19.7591 72.738 19.8128 72.738 19.8128C72.7613 19.8151 72.7823 19.8081 72.7963 19.7871C72.8056 19.7754 72.8103 19.7591 72.8103 19.7451C72.8103 19.7381 72.808 19.7311 72.8056 19.7218C72.8056 19.7218 72.6656 19.3414 72.6166 19.2084C72.759 19.2154 73.165 19.2341 73.165 19.2341C73.1883 19.2341 73.2093 19.2248 73.221 19.2038C73.228 19.1944 73.2303 19.1781 73.2303 19.1664C73.2303 19.1571 73.228 19.1478 73.2233 19.1361C73.2233 19.1361 73.0483 18.7674 72.9853 18.6391C73.1276 18.6321 73.5336 18.6134 73.5336 18.6134C73.557 18.6134 73.578 18.5994 73.5873 18.5784C73.592 18.5691 73.5943 18.5598 73.5943 18.5458C73.5943 18.5318 73.592 18.5224 73.585 18.5108C73.585 18.5108 73.3773 18.1631 73.305 18.0418C73.445 18.0231 73.8486 17.9671 73.8486 17.9671C73.872 17.9648 73.8906 17.9508 73.9 17.9274C73.9023 17.9204 73.9046 17.9111 73.9046 17.9018C73.9046 17.8901 73.9 17.8738 73.893 17.8621C73.893 17.8621 73.655 17.5331 73.571 17.4164C73.7086 17.3838 74.1053 17.2928 74.1053 17.2928C74.1286 17.2881 74.145 17.2694 74.152 17.2484C74.1543 17.2414 74.1543 17.2368 74.1543 17.2298C74.1543 17.2158 74.1496 17.1971 74.1403 17.1878C74.1403 17.1878 73.8743 16.8821 73.7833 16.7748C73.9186 16.7304 74.3036 16.6044 74.3036 16.6044C74.327 16.5974 74.3433 16.5788 74.348 16.5578C74.348 16.5531 74.3503 16.5484 74.3503 16.5438C74.3503 16.5274 74.3433 16.5088 74.3316 16.4971C74.3316 16.4971 74.04 16.2148 73.9373 16.1191C74.068 16.0631 74.4413 15.9021 74.4413 15.9021C74.4646 15.8928 74.4786 15.8718 74.481 15.8508V15.8414C74.481 15.8228 74.4716 15.8018 74.4553 15.7901C74.4553 15.7901 74.1403 15.5358 74.0283 15.4494C74.1543 15.3818 74.509 15.1904 74.509 15.1904C74.5276 15.1811 74.5416 15.1578 74.544 15.1368C74.544 15.1111 74.5346 15.0924 74.5136 15.0808C74.5136 15.0808 74.1753 14.8568 74.0563 14.7774C74.1753 14.6981 74.5136 14.4741 74.5136 14.4741C74.53 14.4624 74.544 14.4414 74.544 14.4204C74.544 14.3948 74.53 14.3738 74.509 14.3644C74.509 14.3644 74.1543 14.1708 74.0283 14.1054C74.1403 14.0168 74.4553 13.7624 74.4553 13.7624C74.4693 13.7508 74.481 13.7298 74.481 13.7111V13.7018C74.4786 13.6784 74.4646 13.6598 74.4413 13.6504C74.4413 13.6504 74.0703 13.4894 73.9373 13.4358C74.04 13.3378 74.3316 13.0624 74.3316 13.0624C74.3433 13.0508 74.3503 13.0321 74.3503 13.0158C74.3503 13.0111 74.3503 13.0064 74.348 13.0018C74.3433 12.9784 74.3246 12.9598 74.3036 12.9551C74.3036 12.9551 73.921 12.8314 73.7856 12.7894C73.879 12.6798 74.1473 12.3764 74.1473 12.3764C74.1566 12.3648 74.1636 12.3484 74.1636 12.3344C74.1636 12.3274 74.1636 12.3228 74.1613 12.3158C74.1543 12.2924 74.1356 12.2761 74.1146 12.2714C74.1146 12.2714 73.7203 12.1804 73.5803 12.1478C73.6643 12.0311 73.9023 11.7021 73.9023 11.7021C73.9093 11.6904 73.914 11.6764 73.914 11.6624C73.914 11.6531 73.9116 11.6461 73.9093 11.6368C73.9 11.6134 73.879 11.5994 73.858 11.5971C73.858 11.5971 73.459 11.5434 73.3166 11.5224C73.389 11.4011 73.599 11.0511 73.599 11.0511C73.6036 11.0418 73.6083 11.0278 73.6083 11.0161C73.6083 11.0068 73.606 10.9928 73.6013 10.9834C73.592 10.9648 73.5686 10.9484 73.5476 10.9484C73.5476 10.9484 73.1416 10.9298 72.9993 10.9204C73.06 10.7921 73.2373 10.4258 73.2373 10.4258C73.242 10.4164 73.2443 10.4071 73.2443 10.3978C73.2443 10.3861 73.242 10.3721 73.235 10.3604C73.2233 10.3418 73.2 10.3301 73.179 10.3301C73.179 10.3301 72.773 10.3464 72.6306 10.3534C72.6796 10.2204 72.8243 9.84009 72.8243 9.84009C72.8266 9.83309 72.829 9.82609 72.829 9.81676C72.829 9.80276 72.8243 9.78642 72.815 9.77476C72.801 9.75842 72.7776 9.74676 72.7566 9.74909C72.7566 9.74909 72.353 9.80276 72.213 9.82142C72.2503 9.68609 72.3576 9.29409 72.3576 9.29409C72.36 9.28942 72.36 9.28242 72.36 9.27776C72.36 9.26142 72.353 9.24509 72.3436 9.23342C72.3296 9.21709 72.304 9.20776 72.283 9.21476C72.283 9.21476 71.8886 9.30342 71.7486 9.33609C71.7743 9.19609 71.8443 8.79709 71.8443 8.79709V8.78542C71.8443 8.76676 71.8373 8.74809 71.821 8.73642C71.8046 8.72242 71.779 8.71776 71.7556 8.72476C71.7556 8.72476 71.3683 8.84842 71.2353 8.89276C71.247 8.75276 71.2843 8.34676 71.2843 8.34676V8.34209C71.2843 8.32342 71.275 8.30242 71.2563 8.29076C71.2376 8.27909 71.2143 8.27442 71.191 8.28376C71.191 8.28376 70.8176 8.44242 70.687 8.49609V7.94776C70.687 7.92442 70.6753 7.90342 70.6543 7.89176C70.6333 7.88009 70.61 7.88009 70.589 7.88942C70.589 7.88942 70.232 8.07842 70.106 8.14609C70.0943 8.00609 70.057 7.60009 70.057 7.60009C70.0546 7.57676 70.0406 7.55809 70.0196 7.54642C70.001 7.53709 69.9753 7.53942 69.9543 7.55109C69.9543 7.55109 69.616 7.77276 69.497 7.84976C69.4713 7.70976 69.399 7.31076 69.399 7.31076C69.3943 7.28742 69.3803 7.26876 69.357 7.26176C69.3336 7.25476 69.3103 7.25709 69.2916 7.27109C69.2916 7.27109 68.972 7.52309 68.8623 7.61176C68.825 7.47642 68.7176 7.08442 68.7176 7.08442C68.7106 7.06109 68.692 7.04476 68.671 7.03776C68.65 7.03076 68.6243 7.03776 68.6103 7.05176C68.6103 7.05176 68.3163 7.33176 68.2136 7.42976C68.1646 7.29676 68.02 6.91642 68.02 6.91642C68.013 6.89309 67.992 6.87909 67.971 6.87442C67.95 6.86976 67.9243 6.87909 67.9103 6.89776C67.9103 6.89776 67.6443 7.20109 67.5486 7.30842C67.488 7.18009 67.3106 6.81376 67.3106 6.81376C67.3013 6.79509 67.2803 6.77876 67.257 6.77642C67.2336 6.77409 67.2126 6.78342 67.1986 6.80442C67.1986 6.80442 66.956 7.13576 66.8743 7.25009C66.7996 7.13109 66.5826 6.78576 66.5826 6.78576C66.5546 6.78109 66.5336 6.76942 66.5103 6.76942L66.501 6.76709ZM66.172 7.44609C66.1953 7.44609 66.214 7.43442 66.2256 7.41342C66.2256 7.41342 66.4263 7.08209 66.5033 6.95609C66.5826 7.08209 66.7903 7.41109 66.7903 7.41109C66.802 7.42742 66.823 7.44142 66.844 7.44142C66.865 7.44142 66.886 7.43209 66.8976 7.41342C66.8976 7.41342 67.124 7.10309 67.2126 6.97942C67.2803 7.11476 67.4483 7.46242 67.4483 7.46242C67.4576 7.48109 67.4763 7.49742 67.4973 7.49976C67.5183 7.50209 67.5416 7.49509 67.5556 7.47642C67.5556 7.47642 67.81 7.18709 67.9103 7.07276C67.9616 7.21276 68.0993 7.57676 68.0993 7.57676C68.1063 7.59542 68.125 7.61409 68.146 7.61876C68.167 7.62342 68.1903 7.61876 68.2043 7.60242C68.2043 7.60242 68.4843 7.33642 68.594 7.23142C68.6336 7.37609 68.7363 7.74942 68.7363 7.74942C68.741 7.77276 68.7596 7.78676 68.7783 7.79376C68.8016 7.80076 68.8226 7.79609 68.839 7.78442C68.839 7.78442 69.14 7.54409 69.259 7.45076C69.287 7.60009 69.3546 7.97809 69.3546 7.97809C69.3593 8.00142 69.371 8.01776 69.3943 8.02709C69.413 8.03409 69.4386 8.03409 69.455 8.02242C69.455 8.02242 69.7793 7.81009 69.9053 7.72842C69.917 7.88009 69.9543 8.26509 69.9543 8.26509C69.9566 8.28842 69.9683 8.30709 69.9893 8.31642C70.0103 8.32576 70.0313 8.32576 70.05 8.31642C70.05 8.31642 70.3906 8.13442 70.5236 8.06442V8.60342C70.5236 8.62676 70.533 8.64542 70.554 8.65709C70.5703 8.66876 70.596 8.67109 70.6146 8.66176C70.6146 8.66176 70.9693 8.51009 71.1093 8.45176C71.0976 8.60342 71.0626 8.98609 71.0626 8.98609V8.99076C71.0626 9.00942 71.072 9.03042 71.0883 9.04209C71.1046 9.05609 71.128 9.05842 71.149 9.05376C71.149 9.05376 71.5176 8.93476 71.66 8.88809C71.632 9.03742 71.5643 9.41542 71.5643 9.41542V9.42709C71.5643 9.44342 71.5713 9.46209 71.583 9.47376C71.597 9.48776 71.6226 9.49709 71.6413 9.49009C71.6413 9.49009 72.0193 9.40609 72.164 9.37109C72.1243 9.51576 72.0216 9.88909 72.0216 9.88909C72.0193 9.89376 72.0193 9.90076 72.0193 9.90542C72.0193 9.91942 72.024 9.93809 72.0356 9.94742C72.0496 9.96376 72.073 9.97309 72.094 9.97076C72.094 9.97076 72.4766 9.91942 72.6283 9.89842C72.577 10.0384 72.4416 10.4024 72.4416 10.4024C72.4393 10.4094 72.437 10.4164 72.437 10.4258C72.437 10.4398 72.4416 10.4538 72.4486 10.4654C72.4603 10.4818 72.4836 10.4934 72.5046 10.4934C72.5046 10.4934 72.8896 10.4771 73.0413 10.4701C72.9736 10.6054 72.8103 10.9531 72.8103 10.9531C72.8056 10.9624 72.8033 10.9718 72.8033 10.9834C72.8033 10.9951 72.8056 11.0068 72.8126 11.0184C72.8243 11.0371 72.8453 11.0511 72.8663 11.0511C72.8663 11.0511 73.2513 11.0698 73.403 11.0791C73.326 11.2074 73.1253 11.5411 73.1253 11.5411C73.1206 11.5504 73.116 11.5644 73.116 11.5761C73.116 11.5854 73.1183 11.5948 73.123 11.6041C73.1323 11.6228 73.1533 11.6391 73.172 11.6414C73.172 11.6414 73.5546 11.6928 73.704 11.7161C73.6153 11.8398 73.389 12.1501 73.389 12.1501C73.382 12.1618 73.3773 12.1758 73.3773 12.1898C73.3773 12.1968 73.3796 12.2038 73.382 12.2131C73.389 12.2318 73.4076 12.2504 73.4286 12.2551C73.4286 12.2551 73.8043 12.3414 73.9513 12.3764C73.8533 12.4908 73.599 12.7824 73.599 12.7824C73.5896 12.7941 73.5826 12.8104 73.5826 12.8244C73.5826 12.8291 73.5826 12.8361 73.585 12.8408C73.5896 12.8641 73.6083 12.8781 73.627 12.8851C73.627 12.8851 73.991 13.0018 74.1356 13.0484C74.0236 13.1511 73.7506 13.4148 73.7506 13.4148C73.739 13.4264 73.732 13.4451 73.732 13.4614V13.4731C73.7366 13.4964 73.7506 13.5128 73.7716 13.5221C73.7716 13.5221 74.1263 13.6761 74.2663 13.7344C74.1473 13.8278 73.8463 14.0704 73.8463 14.0704C73.8323 14.0821 73.8206 14.1031 73.8206 14.1218V14.1264C73.823 14.1498 73.8346 14.1684 73.8556 14.1778C73.8556 14.1778 74.194 14.3598 74.327 14.4321C74.201 14.5161 73.879 14.7284 73.879 14.7284C73.8626 14.7401 73.8486 14.7611 73.8486 14.7821C73.8486 14.8054 73.858 14.8241 73.879 14.8358C73.879 14.8358 74.201 15.0504 74.327 15.1321C74.194 15.2044 73.8533 15.3864 73.8533 15.3864C73.8346 15.3958 73.8206 15.4168 73.8183 15.4378V15.4424C73.8183 15.4611 73.8276 15.4821 73.844 15.4938C73.844 15.4938 74.145 15.7364 74.264 15.8298C74.1263 15.8881 73.7693 16.0421 73.7693 16.0421C73.7506 16.0514 73.7343 16.0701 73.7296 16.0911V16.1028C73.7296 16.1191 73.7366 16.1378 73.7483 16.1494C73.7483 16.1494 74.0283 16.4154 74.1356 16.5228C73.9933 16.5694 73.6246 16.6908 73.6246 16.6908C73.606 16.6978 73.5873 16.7164 73.5826 16.7351C73.5803 16.7398 73.5803 16.7468 73.5803 16.7514C73.5803 16.7654 73.585 16.7841 73.5943 16.7934C73.5943 16.7934 73.8486 17.0851 73.9466 17.1994C73.7973 17.2344 73.424 17.3208 73.424 17.3208C73.4006 17.3254 73.3843 17.3394 73.3773 17.3628C73.375 17.3698 73.3726 17.3768 73.3726 17.3861C73.3726 17.4001 73.3773 17.4141 73.3843 17.4258C73.3843 17.4258 73.6106 17.7384 73.6993 17.8598C73.55 17.8784 73.1673 17.9344 73.1673 17.9344C73.144 17.9368 73.1276 17.9508 73.1183 17.9718C73.1136 17.9811 73.1113 17.9904 73.1113 18.0021C73.1113 18.0138 73.1136 18.0254 73.1206 18.0371C73.1206 18.0371 73.319 18.3684 73.3936 18.4991C73.242 18.5061 72.857 18.5248 72.857 18.5248C72.8336 18.5248 72.815 18.5364 72.8033 18.5574C72.7986 18.5668 72.794 18.5808 72.794 18.5924C72.794 18.6018 72.7963 18.6111 72.801 18.6228C72.801 18.6228 72.969 18.9704 73.032 19.1081C72.8803 19.1011 72.493 19.0824 72.493 19.0824C72.4696 19.0824 72.451 19.0918 72.437 19.1104C72.43 19.1221 72.4253 19.1361 72.4253 19.1501C72.4253 19.1571 72.4276 19.1641 72.43 19.1734C72.43 19.1734 72.5653 19.5351 72.6166 19.6774C72.465 19.6588 72.0823 19.6051 72.0823 19.6051C72.059 19.6028 72.038 19.6098 72.024 19.6284C72.0146 19.6401 72.01 19.6564 72.01 19.6704C72.01 19.6774 72.01 19.6844 72.0123 19.6891C72.0123 19.6891 72.1406 20.0834 72.192 20.2421C72.031 20.1978 71.632 20.0858 71.632 20.0858C71.6086 20.0811 71.5876 20.0858 71.5713 20.0998C71.5573 20.1114 71.548 20.1301 71.548 20.1488V20.1604C71.548 20.1604 71.618 20.5408 71.6436 20.6878C71.5013 20.6411 71.1326 20.5221 71.1326 20.5221C71.114 20.5151 71.0883 20.5198 71.072 20.5338C71.058 20.5454 71.0463 20.5664 71.0463 20.5851V20.5898C71.0463 20.5898 71.0813 20.9748 71.093 21.1264C70.9553 21.0681 70.596 20.9164 70.596 20.9164C70.5773 20.9094 70.5516 20.9094 70.5353 20.9211C70.519 20.9328 70.505 20.9538 70.505 20.9748V21.5114C70.372 21.4391 70.0336 21.2594 70.0336 21.2594C70.015 21.2501 69.9916 21.2501 69.973 21.2594C69.9543 21.2688 69.9403 21.2898 69.938 21.3108C69.938 21.3108 69.903 21.6958 69.889 21.8474C69.763 21.7634 69.4363 21.5511 69.4363 21.5511C69.42 21.5394 69.3943 21.5371 69.3756 21.5464C69.357 21.5558 69.3406 21.5744 69.336 21.5954C69.336 21.5954 69.266 21.9758 69.2403 22.1228C69.1213 22.0294 68.818 21.7891 68.818 21.7891C68.8016 21.7774 68.7783 21.7728 68.7573 21.7798C68.7386 21.7868 68.72 21.8054 68.7153 21.8241C68.7153 21.8241 68.6126 22.1974 68.573 22.3398C68.4633 22.2371 68.1856 21.9688 68.1856 21.9688C68.1716 21.9548 68.146 21.9454 68.1273 21.9524C68.104 21.9571 68.0876 21.9711 68.0806 21.9944C68.0806 21.9944 67.9453 22.3561 67.8916 22.4984C67.7936 22.3841 67.5393 22.0948 67.5393 22.0948C67.5253 22.0784 67.502 22.0691 67.481 22.0714C67.4576 22.0738 67.4413 22.0878 67.432 22.1088C67.432 22.1088 67.264 22.4564 67.1963 22.5918C67.1076 22.4704 66.8813 22.1601 66.8813 22.1601C66.8696 22.1438 66.8463 22.1321 66.8253 22.1321C66.8043 22.1321 66.7833 22.1438 66.7716 22.1648C66.7716 22.1648 66.571 22.4961 66.494 22.6268C66.417 22.4984 66.2163 22.1648 66.2163 22.1648C66.2046 22.1461 66.1836 22.1344 66.1626 22.1321C66.1393 22.1321 66.1206 22.1414 66.1066 22.1601C66.1066 22.1601 65.8803 22.4704 65.7916 22.5941C65.724 22.4588 65.556 22.1111 65.556 22.1111C65.5466 22.0924 65.5256 22.0761 65.507 22.0738C65.4836 22.0714 65.4626 22.0784 65.4486 22.0971C65.4486 22.0971 65.1943 22.3888 65.0963 22.5031C65.0426 22.3631 64.9073 21.9991 64.9073 21.9991C64.9003 21.9804 64.8816 21.9618 64.8606 21.9594C64.8373 21.9548 64.8163 21.9618 64.8023 21.9758C64.8023 21.9758 64.5223 22.2418 64.415 22.3468C64.3753 22.2021 64.2726 21.8288 64.2726 21.8288C64.268 21.8054 64.2493 21.7914 64.2306 21.7844C64.212 21.7774 64.1863 21.7821 64.17 21.7938C64.17 21.7938 63.8666 22.0341 63.75 22.1274C63.722 21.9781 63.6543 21.6001 63.6543 21.6001C63.6496 21.5768 63.6356 21.5604 63.6146 21.5511C63.596 21.5418 63.5703 21.5441 63.554 21.5558C63.554 21.5558 63.2296 21.7681 63.1036 21.8521C63.0896 21.7004 63.0546 21.3178 63.0546 21.3178C63.0523 21.2944 63.0406 21.2758 63.0196 21.2664C62.9986 21.2571 62.9776 21.2571 62.959 21.2664C62.959 21.2664 62.6183 21.4484 62.4853 21.5208V20.9818C62.4853 20.9584 62.4736 20.9398 62.455 20.9281C62.4363 20.9164 62.413 20.9141 62.3943 20.9234C62.3943 20.9234 62.0396 21.0751 61.8996 21.1334C61.9113 20.9818 61.9463 20.5968 61.9463 20.5968V20.5921C61.9463 20.5734 61.937 20.5524 61.9206 20.5408C61.9043 20.5268 61.881 20.5244 61.86 20.5291C61.86 20.5291 61.4913 20.6481 61.349 20.6948C61.377 20.5454 61.4446 20.1674 61.4446 20.1674V20.1558C61.4446 20.1394 61.4376 20.1208 61.426 20.1091C61.412 20.0951 61.3863 20.0858 61.3676 20.0928C61.3676 20.0928 60.992 20.1768 60.845 20.2118C60.8846 20.0671 60.9873 19.6938 60.9873 19.6938C60.9896 19.6891 60.9896 19.6821 60.9896 19.6774C60.9896 19.6634 60.985 19.6448 60.9733 19.6354C60.9593 19.6191 60.936 19.6098 60.915 19.6121C60.915 19.6121 60.5323 19.6611 60.3806 19.6821C60.432 19.5421 60.5673 19.1781 60.5673 19.1781C60.5696 19.1711 60.572 19.1641 60.572 19.1548C60.572 19.1408 60.5673 19.1268 60.5603 19.1151C60.5486 19.0988 60.5253 19.0871 60.5043 19.0871C60.5043 19.0871 60.1193 19.1034 59.9676 19.1104C60.033 18.9751 60.1986 18.6274 60.1986 18.6274C60.2033 18.6181 60.2056 18.6088 60.2056 18.5994C60.2056 18.5878 60.2033 18.5761 60.1963 18.5644C60.1846 18.5458 60.1636 18.5318 60.1426 18.5318C60.1426 18.5318 59.7576 18.5154 59.606 18.5061C59.683 18.3778 59.879 18.0441 59.879 18.0441C59.886 18.0348 59.8883 18.0208 59.8883 18.0091C59.8883 17.9998 59.886 17.9904 59.8813 17.9788C59.872 17.9601 59.851 17.9438 59.8323 17.9414C59.8323 17.9414 59.4496 17.8901 59.298 17.8668C59.3866 17.7454 59.6106 17.4328 59.6106 17.4328C59.6176 17.4211 59.6223 17.4071 59.6223 17.3931C59.6223 17.3861 59.62 17.3791 59.6176 17.3698C59.6106 17.3511 59.592 17.3324 59.571 17.3278C59.571 17.3278 59.193 17.2414 59.0483 17.2064C59.1463 17.0921 59.4006 16.8004 59.4006 16.8004C59.41 16.7888 59.417 16.7724 59.417 16.7584C59.417 16.7538 59.417 16.7468 59.4146 16.7421C59.41 16.7188 59.3913 16.7048 59.3726 16.6978C59.3726 16.6978 59.004 16.5764 58.8616 16.5298C58.9713 16.4271 59.249 16.1588 59.249 16.1588C59.2606 16.1471 59.2676 16.1284 59.2676 16.1121V16.1004C59.263 16.0771 59.2513 16.0608 59.228 16.0514C59.228 16.0514 58.8733 15.8974 58.7333 15.8391C58.8523 15.7458 59.1533 15.5031 59.1533 15.5031C59.1673 15.4914 59.179 15.4704 59.179 15.4518V15.4471C59.1766 15.4238 59.165 15.4051 59.144 15.3958C59.144 15.3958 58.8033 15.2114 58.6726 15.1391C58.7986 15.0551 59.1206 14.8428 59.1206 14.8428C59.137 14.8311 59.151 14.8101 59.151 14.7891C59.151 14.7658 59.1416 14.7471 59.1206 14.7354C59.1206 14.7354 58.7986 14.5208 58.6726 14.4391C58.8056 14.3668 59.1463 14.1824 59.1463 14.1824C59.165 14.1731 59.179 14.1521 59.1813 14.1311V14.1264C59.1813 14.1078 59.172 14.0868 59.1556 14.0751C59.1556 14.0751 58.8546 13.8324 58.7356 13.7391C58.8733 13.6808 59.2303 13.5268 59.2303 13.5268C59.249 13.5174 59.2653 13.4988 59.27 13.4778V13.4661C59.27 13.4498 59.263 13.4311 59.2513 13.4194C59.2513 13.4194 58.9713 13.1534 58.864 13.0484C59.0063 13.0018 59.3726 12.8828 59.3726 12.8828C59.3913 12.8758 59.41 12.8571 59.4146 12.8384C59.417 12.8338 59.417 12.8268 59.417 12.8221C59.417 12.8081 59.4123 12.7894 59.4006 12.7801C59.4006 12.7801 59.1463 12.4884 59.0483 12.3741C59.1976 12.3391 59.571 12.2528 59.571 12.2528C59.5943 12.2481 59.6106 12.2341 59.6176 12.2108C59.62 12.2038 59.6223 12.1968 59.6223 12.1874C59.6223 12.1734 59.6176 12.1594 59.6106 12.1478C59.6106 12.1478 59.3843 11.8351 59.2956 11.7138C59.4473 11.6951 59.83 11.6391 59.83 11.6391C59.8533 11.6368 59.8696 11.6228 59.879 11.6018C59.8836 11.5924 59.886 11.5831 59.886 11.5714C59.886 11.5598 59.8836 11.5481 59.8766 11.5364C59.8766 11.5364 59.6783 11.2051 59.6036 11.0744C59.7553 11.0674 60.1403 11.0488 60.1403 11.0488C60.1636 11.0488 60.1823 11.0371 60.194 11.0161C60.1986 11.0068 60.2033 10.9928 60.2033 10.9811C60.2033 10.9718 60.201 10.9624 60.1963 10.9531C60.1963 10.9531 60.0283 10.6054 59.9653 10.4701C60.117 10.4771 60.502 10.4934 60.502 10.4934C60.5253 10.4934 60.544 10.4841 60.558 10.4654C60.565 10.4538 60.5696 10.4398 60.5696 10.4258C60.5696 10.4188 60.5673 10.4118 60.565 10.4024C60.565 10.4024 60.4296 10.0408 60.3783 9.89842C60.53 9.91709 60.9126 9.97076 60.9126 9.97076C60.936 9.97309 60.957 9.96609 60.971 9.94742C60.9803 9.93576 60.9873 9.91942 60.9873 9.90542C60.9873 9.90076 60.9873 9.89376 60.985 9.88909C60.985 9.88909 60.8846 9.51576 60.845 9.37109C60.9943 9.40609 61.3676 9.49009 61.3676 9.49009C61.391 9.49476 61.412 9.49009 61.426 9.47376C61.4376 9.46209 61.4446 9.44342 61.4446 9.42709V9.41542C61.4446 9.41542 61.3746 9.03509 61.3513 8.88809C61.4936 8.93476 61.8623 9.05376 61.8623 9.05376C61.881 9.06076 61.9066 9.05609 61.923 9.04209C61.937 9.03042 61.9486 9.00942 61.9486 8.99076V8.98609C61.9486 8.98609 61.9136 8.60109 61.902 8.44942C62.0396 8.50776 62.3966 8.65942 62.3966 8.65942C62.4153 8.66642 62.441 8.66642 62.4573 8.65476C62.4736 8.64309 62.4876 8.62209 62.4876 8.60109V8.06209C62.6206 8.13442 62.9613 8.31642 62.9613 8.31642C62.98 8.32576 63.0033 8.32576 63.022 8.31642C63.0406 8.30709 63.0546 8.28609 63.057 8.26509C63.057 8.26509 63.092 7.88009 63.106 7.72842C63.232 7.81242 63.5563 8.02242 63.5563 8.02242C63.5726 8.03409 63.5983 8.03642 63.617 8.02709C63.6356 8.02009 63.652 7.99909 63.6566 7.97809C63.6566 7.97809 63.7266 7.59776 63.7523 7.45076C63.8713 7.54409 64.1723 7.78442 64.1723 7.78442C64.1886 7.79842 64.212 7.80076 64.233 7.79376C64.2516 7.78676 64.2703 7.76809 64.275 7.74942C64.275 7.74942 64.3776 7.37609 64.4173 7.23142C64.527 7.33409 64.807 7.60242 64.807 7.60242C64.821 7.61642 64.8466 7.62576 64.8653 7.61876C64.8886 7.61409 64.905 7.60009 64.912 7.57909C64.912 7.57909 65.0473 7.21742 65.101 7.07742C65.199 7.19176 65.4533 7.48342 65.4533 7.48342C65.4673 7.49976 65.4906 7.50909 65.5116 7.50676C65.535 7.50442 65.5513 7.49042 65.5606 7.46942C65.5606 7.46942 65.7286 7.12176 65.7963 6.98642C65.885 7.10776 66.1113 7.42042 66.1113 7.42042C66.123 7.43442 66.1463 7.44609 66.1673 7.44609H66.172Z" fill="#EE2E24"/>
<path d="M71.8373 10.3206L71.3146 10.8433C71.3029 10.8549 71.2983 10.8713 71.2959 10.8853C71.2959 10.8853 71.2819 11.1023 71.2796 11.1419C71.2446 11.1769 69.0279 13.3936 68.9929 13.4286C68.9533 13.4309 68.7363 13.4449 68.7363 13.4449C68.7223 13.4449 68.7059 13.4519 68.6943 13.4636L68.1716 13.9863C68.1599 13.9979 68.1529 14.0166 68.1529 14.0329C68.1529 14.0493 68.1599 14.0679 68.1716 14.0796L68.7176 14.6256C68.7293 14.6373 68.7479 14.6443 68.7643 14.6443C68.7806 14.6443 68.7993 14.6373 68.8109 14.6256L69.3336 14.1029C69.3453 14.0913 69.3499 14.0749 69.3523 14.0609C69.3523 14.0609 69.3663 13.8439 69.3686 13.8043C69.4036 13.7693 71.6203 11.5526 71.6553 11.5176C71.6973 11.5153 71.9119 11.5013 71.9119 11.5013C71.9259 11.5013 71.9423 11.4943 71.9539 11.4826L72.4766 10.9599C72.4883 10.9483 72.4953 10.9296 72.4953 10.9133C72.4953 10.8969 72.4883 10.8783 72.4766 10.8666L71.9306 10.3206C71.9026 10.2949 71.8606 10.2949 71.8373 10.3206ZM71.8839 10.4606C71.9563 10.5329 72.2666 10.8433 72.3389 10.9156C72.2643 10.9903 71.9096 11.3449 71.8793 11.3753C71.8373 11.3776 71.6226 11.3916 71.6226 11.3916C71.6086 11.3916 71.5923 11.3986 71.5806 11.4103L69.2589 13.7319C69.2473 13.7436 69.2426 13.7599 69.2403 13.7739C69.2403 13.7739 69.2263 13.9909 69.2239 14.0306C69.1936 14.0609 68.8389 14.4156 68.7643 14.4903C68.6919 14.4179 68.3816 14.1076 68.3116 14.0353C68.3863 13.9606 68.7409 13.6059 68.7713 13.5756C68.8133 13.5733 69.0279 13.5593 69.0279 13.5593C69.0419 13.5593 69.0583 13.5523 69.0699 13.5406L71.3916 11.2189C71.4033 11.2073 71.4079 11.1909 71.4103 11.1769C71.4103 11.1769 71.4243 10.9599 71.4266 10.9203C71.4523 10.8899 71.8093 10.5353 71.8839 10.4606ZM71.0719 9.57393L70.5493 10.0966C70.5376 10.1083 70.5329 10.1246 70.5306 10.1386C70.5306 10.1386 70.5166 10.3556 70.5143 10.3953C70.4793 10.4303 68.2626 12.6469 68.2276 12.6819C68.1856 12.6843 67.9709 12.6983 67.9709 12.6983C67.9569 12.6983 67.9406 12.7053 67.9289 12.7169L67.4063 13.2396C67.3946 13.2513 67.3876 13.2699 67.3876 13.2863C67.3876 13.3026 67.3946 13.3213 67.4063 13.3329L67.9523 13.8789C67.9779 13.9046 68.0199 13.9046 68.0456 13.8789L68.5683 13.3563C68.5799 13.3446 68.5846 13.3283 68.5869 13.3143C68.5869 13.3143 68.6009 13.0973 68.6033 13.0576C68.6383 13.0226 70.8549 10.8059 70.8899 10.7709C70.9296 10.7686 71.1466 10.7546 71.1466 10.7546C71.1606 10.7546 71.1769 10.7476 71.1886 10.7359L71.7113 10.2133C71.7229 10.2016 71.7299 10.1829 71.7299 10.1666C71.7299 10.1503 71.7229 10.1316 71.7113 10.1199L71.1653 9.57393C71.1373 9.54593 71.0953 9.54593 71.0719 9.57393ZM71.1186 9.7116C71.1909 9.78393 71.5013 10.0943 71.5736 10.1666C71.4989 10.2413 71.1443 10.5959 71.1139 10.6263C71.0743 10.6286 70.8573 10.6426 70.8573 10.6426C70.8433 10.6426 70.8269 10.6496 70.8153 10.6613L68.4936 12.9829C68.4819 12.9946 68.4773 13.0109 68.4749 13.0249C68.4749 13.0249 68.4609 13.2419 68.4586 13.2816C68.4283 13.3119 68.0736 13.6666 67.9989 13.7413C67.9266 13.6689 67.6163 13.3586 67.5439 13.2863C67.6186 13.2116 67.9733 12.8569 68.0036 12.8266C68.0456 12.8243 68.2603 12.8103 68.2603 12.8103C68.2743 12.8103 68.2906 12.8033 68.3023 12.7916L70.6239 10.4699C70.6356 10.4583 70.6403 10.4419 70.6426 10.4279C70.6426 10.4279 70.6566 10.2109 70.6589 10.1713C70.6869 10.1433 71.0416 9.78626 71.1186 9.7116ZM70.3603 8.79693C70.3439 8.79693 70.3253 8.80393 70.3136 8.8156L69.7909 9.33826C69.7793 9.34993 69.7746 9.36626 69.7723 9.38026C69.7723 9.38026 69.7583 9.59726 69.7559 9.63693C69.7209 9.67193 67.5043 11.8886 67.4693 11.9236C67.4273 11.9259 67.2126 11.9399 67.2126 11.9399C67.1986 11.9399 67.1823 11.9469 67.1706 11.9586L66.6479 12.4813C66.6363 12.4929 66.6293 12.5116 66.6293 12.5279C66.6293 12.5443 66.6363 12.5629 66.6479 12.5746L67.1939 13.1206C67.2196 13.1463 67.2616 13.1463 67.2873 13.1206L67.8099 12.5979C67.8216 12.5863 67.8263 12.5699 67.8286 12.5559C67.8286 12.5559 67.8426 12.3389 67.8449 12.2993C67.8799 12.2643 70.0966 10.0476 70.1316 10.0126C70.1736 10.0103 70.3883 9.99626 70.3883 9.99626C70.4023 9.99626 70.4186 9.98926 70.4303 9.9776L70.9529 9.45493C70.9646 9.44326 70.9716 9.4246 70.9716 9.40826C70.9716 9.39193 70.9646 9.37326 70.9529 9.3616L70.4069 8.8156C70.3953 8.8016 70.3766 8.79693 70.3603 8.79693ZM70.3603 8.9556C70.4326 9.02793 70.7429 9.33826 70.8153 9.4106C70.7406 9.48526 70.3859 9.83993 70.3556 9.87026C70.3136 9.8726 70.0989 9.8866 70.0989 9.8866C70.0849 9.8866 70.0686 9.8936 70.0569 9.90526L67.7353 12.2269C67.7236 12.2386 67.7189 12.2549 67.7166 12.2689C67.7166 12.2689 67.7026 12.4859 67.7003 12.5256C67.6699 12.5559 67.3153 12.9106 67.2406 12.9853C67.1683 12.9129 66.8579 12.6026 66.7856 12.5303C66.8603 12.4556 67.2149 12.1009 67.2453 12.0706C67.2849 12.0683 67.5019 12.0543 67.5019 12.0543C67.5159 12.0543 67.5323 12.0473 67.5439 12.0356L69.8656 9.71393C69.8773 9.70226 69.8819 9.68593 69.8843 9.67193C69.8843 9.67193 69.8983 9.45493 69.9006 9.41526C69.9309 9.38493 70.2856 9.03026 70.3603 8.9556ZM65.7473 16.4386C65.7309 16.4386 65.7123 16.4456 65.7006 16.4573L65.1779 16.9799C65.1663 16.9916 65.1616 17.0079 65.1593 17.0219C65.1593 17.0219 65.1453 17.2389 65.1429 17.2786L62.8563 19.5653C62.8143 19.5676 62.5996 19.5816 62.5996 19.5816C62.5856 19.5816 62.5693 19.5886 62.5576 19.6003L62.0349 20.1229C62.0233 20.1346 62.0163 20.1533 62.0163 20.1696C62.0163 20.1859 62.0233 20.2046 62.0349 20.2163L62.5809 20.7623C62.5926 20.7739 62.6113 20.7809 62.6276 20.7809C62.6439 20.7809 62.6626 20.7739 62.6743 20.7623L63.1969 20.2396C63.2086 20.2279 63.2133 20.2116 63.2156 20.1976C63.2156 20.1976 63.2296 19.9806 63.2319 19.9409C63.2669 19.9059 65.4836 17.6893 65.5186 17.6543C65.5583 17.6519 65.7753 17.6379 65.7753 17.6379C65.7893 17.6379 65.8056 17.6309 65.8173 17.6193L66.3399 17.0966C66.3516 17.0849 66.3586 17.0663 66.3586 17.0499C66.3586 17.0336 66.3516 17.0149 66.3399 17.0033L65.7939 16.4573C65.7799 16.4433 65.7636 16.4386 65.7473 16.4386ZM65.7473 16.5973C65.8196 16.6696 66.1299 16.9799 66.2023 17.0523C66.1276 17.1269 65.7729 17.4816 65.7426 17.5119C65.7029 17.5143 65.4859 17.5283 65.4859 17.5283C65.4719 17.5283 65.4556 17.5353 65.4439 17.5469L63.1223 19.8686C63.1106 19.8803 63.1059 19.8966 63.1036 19.9106C63.1036 19.9106 63.0896 20.1276 63.0873 20.1673L62.6276 20.6269C62.5553 20.5546 62.2449 20.2443 62.1726 20.1743L62.6323 19.7146C62.6719 19.7123 62.8889 19.6983 62.8889 19.6983C62.9029 19.6983 62.9193 19.6913 62.9309 19.6796L65.2526 17.3579C65.2643 17.3463 65.2689 17.3299 65.2713 17.3159C65.2713 17.3159 65.2853 17.0989 65.2876 17.0593C65.3156 17.0266 65.6726 16.6719 65.7473 16.5973ZM64.9516 15.6919L64.4289 16.2146C64.4173 16.2263 64.4126 16.2426 64.4103 16.2566C64.4103 16.2566 64.3963 16.4736 64.3939 16.5133L62.1073 18.7999C62.0653 18.8023 61.8506 18.8163 61.8506 18.8163C61.8366 18.8163 61.8203 18.8233 61.8086 18.8349L61.2859 19.3576C61.2743 19.3693 61.2673 19.3879 61.2673 19.4043C61.2673 19.4206 61.2743 19.4393 61.2859 19.4509L61.8319 19.9969C61.8436 20.0086 61.8623 20.0156 61.8786 20.0156C61.8949 20.0156 61.9136 20.0086 61.9253 19.9969L62.4479 19.4743C62.4596 19.4626 62.4643 19.4463 62.4666 19.4323C62.4666 19.4323 62.4806 19.2153 62.4829 19.1756C62.5179 19.1406 64.7346 16.9239 64.7696 16.8889C64.8116 16.8866 65.0263 16.8726 65.0263 16.8726C65.0403 16.8726 65.0566 16.8656 65.0683 16.8539L65.5909 16.3313C65.6026 16.3196 65.6096 16.3009 65.6096 16.2846C65.6096 16.2683 65.6026 16.2496 65.5909 16.2379L65.0449 15.6919C65.0193 15.6663 64.9773 15.6663 64.9516 15.6919ZM64.9983 15.8319C65.0706 15.9043 65.3809 16.2146 65.4509 16.2869C65.3763 16.3616 65.0216 16.7163 64.9913 16.7466C64.9516 16.7489 64.7346 16.7629 64.7346 16.7629C64.7206 16.7629 64.7043 16.7699 64.6926 16.7816L62.3709 19.1033C62.3593 19.1149 62.3546 19.1313 62.3523 19.1453C62.3523 19.1453 62.3383 19.3623 62.3359 19.4019L61.8763 19.8616L61.4213 19.4066L61.8809 18.9469C61.9206 18.9446 62.1376 18.9306 62.1376 18.9306C62.1516 18.9306 62.1679 18.9236 62.1796 18.9119L64.5013 16.5903C64.5129 16.5786 64.5176 16.5623 64.5199 16.5483C64.5199 16.5483 64.5339 16.3313 64.5363 16.2916C64.5689 16.2613 64.9236 15.9066 64.9983 15.8319ZM64.2423 14.9149C64.2259 14.9149 64.2073 14.9219 64.1956 14.9336L63.6729 15.4563C63.6613 15.4679 63.6566 15.4843 63.6543 15.4983C63.6543 15.4983 63.6403 15.7153 63.6379 15.7549C63.6029 15.7899 61.3863 18.0066 61.3513 18.0416C61.3116 18.0439 61.0946 18.0579 61.0946 18.0579C61.0806 18.0579 61.0643 18.0649 61.0526 18.0766L60.5299 18.5993C60.5183 18.6109 60.5113 18.6296 60.5113 18.6459C60.5113 18.6623 60.5183 18.6809 60.5299 18.6926L61.0759 19.2386C61.0876 19.2503 61.1063 19.2573 61.1226 19.2573C61.1389 19.2573 61.1576 19.2503 61.1693 19.2386L61.6919 18.7159C61.7036 18.7043 61.7083 18.6879 61.7106 18.6739C61.7106 18.6739 61.7246 18.4569 61.7269 18.4173C61.7619 18.3823 63.9786 16.1656 64.0136 16.1306C64.0533 16.1283 64.2703 16.1143 64.2703 16.1143C64.2843 16.1143 64.3006 16.1073 64.3123 16.0956L64.8349 15.5729C64.8466 15.5613 64.8536 15.5426 64.8536 15.5263C64.8536 15.5099 64.8466 15.4913 64.8349 15.4796L64.2889 14.9336C64.2749 14.9219 64.2586 14.9149 64.2423 14.9149ZM64.2423 15.0736C64.3146 15.1459 64.6249 15.4563 64.6973 15.5286C64.6226 15.6033 64.2679 15.9579 64.2376 15.9883C64.1956 15.9906 63.9809 16.0046 63.9809 16.0046C63.9669 16.0046 63.9506 16.0116 63.9389 16.0233L61.6173 18.3449C61.6056 18.3566 61.6009 18.3729 61.5986 18.3869C61.5986 18.3869 61.5846 18.6039 61.5823 18.6436L61.1226 19.1033C61.0503 19.0309 60.7399 18.7206 60.6699 18.6483L61.1296 18.1886C61.1716 18.1863 61.3863 18.1723 61.3863 18.1723C61.4003 18.1723 61.4166 18.1653 61.4283 18.1536L63.7499 15.8319C63.7616 15.8203 63.7663 15.8039 63.7686 15.7899C63.7686 15.7899 63.7826 15.5729 63.7849 15.5333C63.8106 15.5053 64.1676 15.1483 64.2423 15.0736ZM68.7596 14.9243C68.7433 14.9243 68.7246 14.9313 68.7129 14.9429L68.1669 15.4889C68.1553 15.5006 68.1483 15.5193 68.1483 15.5356C68.1483 15.5519 68.1553 15.5706 68.1669 15.5823L68.6896 16.1049C68.7013 16.1166 68.7176 16.1213 68.7316 16.1236C68.7316 16.1236 68.9486 16.1376 68.9883 16.1399C69.0233 16.1749 71.2399 18.3916 71.2749 18.4266C71.2773 18.4663 71.2913 18.6833 71.2913 18.6833C71.2913 18.6973 71.2983 18.7136 71.3099 18.7253L71.8326 19.2479C71.8443 19.2596 71.8629 19.2666 71.8793 19.2666C71.8956 19.2666 71.9143 19.2596 71.9259 19.2479L72.4719 18.7019C72.4836 18.6903 72.4906 18.6716 72.4906 18.6553C72.4906 18.6389 72.4836 18.6203 72.4719 18.6086L71.9493 18.0859C71.9376 18.0743 71.9213 18.0696 71.9073 18.0673C71.9073 18.0673 71.6903 18.0533 71.6506 18.0509C71.6156 18.0159 69.3989 15.7993 69.3639 15.7643C69.3616 15.7223 69.3476 15.5076 69.3476 15.5076C69.3476 15.4936 69.3406 15.4773 69.3289 15.4656L68.8063 14.9429C68.7946 14.9313 68.7759 14.9243 68.7596 14.9243ZM68.7596 15.0829C68.8343 15.1576 69.1889 15.5123 69.2193 15.5426C69.2216 15.5823 69.2356 15.7993 69.2356 15.7993C69.2356 15.8133 69.2426 15.8296 69.2543 15.8413L71.5759 18.1629C71.5876 18.1746 71.6039 18.1793 71.6179 18.1816C71.6179 18.1816 71.8349 18.1956 71.8746 18.1979C71.9049 18.2283 72.2596 18.5829 72.3343 18.6576C72.2619 18.7299 71.9516 19.0403 71.8793 19.1126C71.8046 19.0379 71.4499 18.6833 71.4196 18.6529C71.4173 18.6133 71.4033 18.3963 71.4033 18.3963C71.4033 18.3823 71.3963 18.3659 71.3846 18.3543L69.0629 16.0326C69.0513 16.0209 69.0349 16.0163 69.0209 16.0139C69.0209 16.0139 68.8039 15.9999 68.7643 15.9976C68.7339 15.9673 68.3793 15.6126 68.3046 15.5379C68.3769 15.4656 68.6873 15.1553 68.7596 15.0829ZM67.9476 15.6896L67.4016 16.2356C67.3899 16.2473 67.3829 16.2659 67.3829 16.2823C67.3829 16.2986 67.3899 16.3173 67.4016 16.3289L67.9243 16.8516C67.9359 16.8633 67.9523 16.8679 67.9663 16.8703C67.9663 16.8703 68.1833 16.8843 68.2229 16.8866C68.2579 16.9216 70.4746 19.1383 70.5096 19.1733C70.5119 19.2153 70.5259 19.4299 70.5259 19.4299C70.5259 19.4439 70.5329 19.4603 70.5446 19.4719L71.0673 19.9946C71.0789 20.0063 71.0976 20.0133 71.1139 20.0133C71.1303 20.0133 71.1489 20.0063 71.1606 19.9946L71.7066 19.4486C71.7183 19.4369 71.7253 19.4183 71.7253 19.4019C71.7253 19.3856 71.7183 19.3669 71.7066 19.3553L71.1839 18.8326C71.1746 18.8209 71.1559 18.8163 71.1419 18.8139C71.1419 18.8139 70.9249 18.7999 70.8853 18.7976C70.8503 18.7626 68.6336 16.5459 68.5986 16.5109C68.5963 16.4713 68.5823 16.2543 68.5823 16.2543C68.5823 16.2403 68.5753 16.2239 68.5636 16.2123L68.0409 15.6896C68.0129 15.6639 67.9709 15.6639 67.9476 15.6896ZM67.9943 15.8296C68.0689 15.9043 68.4236 16.2589 68.4539 16.2893C68.4563 16.3289 68.4703 16.5459 68.4703 16.5459C68.4703 16.5599 68.4773 16.5763 68.4889 16.5879L70.8106 18.9096C70.8223 18.9213 70.8386 18.9259 70.8526 18.9283C70.8526 18.9283 71.0696 18.9423 71.1093 18.9446C71.1396 18.9749 71.4943 19.3296 71.5689 19.4043C71.4966 19.4766 71.1863 19.7869 71.1139 19.8593C71.0393 19.7846 70.6846 19.4299 70.6543 19.3996C70.6519 19.3576 70.6379 19.1429 70.6379 19.1429C70.6379 19.1289 70.6309 19.1126 70.6193 19.1009L68.2976 16.7793C68.2859 16.7676 68.2696 16.7629 68.2556 16.7606C68.2556 16.7606 68.0386 16.7466 67.9989 16.7443C67.9686 16.7139 67.6139 16.3593 67.5393 16.2846C67.6116 16.2123 67.9219 15.8996 67.9943 15.8296ZM67.2359 16.4269C67.2196 16.4269 67.2009 16.4339 67.1893 16.4456L66.6433 16.9916C66.6316 17.0033 66.6246 17.0219 66.6246 17.0383C66.6246 17.0546 66.6316 17.0733 66.6433 17.0849L67.1659 17.6076C67.1776 17.6193 67.1939 17.6239 67.2079 17.6263C67.2079 17.6263 67.4249 17.6403 67.4646 17.6426C67.4996 17.6776 69.7163 19.8943 69.7513 19.9293C69.7536 19.9713 69.7676 20.1859 69.7676 20.1859C69.7676 20.1999 69.7746 20.2163 69.7863 20.2279L70.3089 20.7506C70.3346 20.7763 70.3766 20.7763 70.4023 20.7506L70.9483 20.2046C70.9599 20.1929 70.9669 20.1743 70.9669 20.1579C70.9669 20.1416 70.9599 20.1229 70.9483 20.1113L70.4256 19.5886C70.4139 19.5769 70.3976 19.5723 70.3836 19.5699C70.3836 19.5699 70.1666 19.5559 70.1269 19.5536C70.0919 19.5186 67.8753 17.3019 67.8403 17.2669C67.8379 17.2249 67.8239 17.0103 67.8239 17.0103C67.8239 16.9963 67.8169 16.9799 67.8053 16.9683L67.2826 16.4456C67.2709 16.4339 67.2523 16.4269 67.2359 16.4269ZM67.2359 16.5856C67.3106 16.6603 67.6653 17.0149 67.6956 17.0453C67.6979 17.0849 67.7119 17.3019 67.7119 17.3019C67.7119 17.3159 67.7189 17.3323 67.7306 17.3439L70.0523 19.6656C70.0639 19.6773 70.0803 19.6819 70.0943 19.6843C70.0943 19.6843 70.3113 19.6983 70.3509 19.7006C70.3813 19.7309 70.7359 20.0856 70.8106 20.1603C70.7383 20.2326 70.4279 20.5429 70.3556 20.6153C70.2809 20.5406 69.9263 20.1859 69.8959 20.1556C69.8936 20.1159 69.8796 19.8989 69.8796 19.8989C69.8796 19.8849 69.8726 19.8686 69.8609 19.8569L67.5393 17.5353C67.5276 17.5236 67.5113 17.5189 67.4973 17.5166C67.4973 17.5166 67.2803 17.5026 67.2406 17.5003C67.2103 17.4699 66.8556 17.1153 66.7809 17.0406C66.8533 16.9683 67.1659 16.6579 67.2359 16.5856ZM62.6229 8.7876C62.6066 8.7876 62.5879 8.7946 62.5763 8.80626L62.0303 9.35226C62.0186 9.36393 62.0116 9.3826 62.0116 9.39893C62.0116 9.41526 62.0186 9.43393 62.0303 9.4456L62.5529 9.96826C62.5646 9.97993 62.5809 9.9846 62.5949 9.98693C62.5949 9.98693 62.8119 10.0009 62.8516 10.0033C62.8866 10.0383 65.1033 12.2549 65.1383 12.2899C65.1406 12.3319 65.1546 12.5466 65.1546 12.5466C65.1546 12.5606 65.1616 12.5769 65.1733 12.5886L65.6959 13.1113C65.7076 13.1229 65.7263 13.1299 65.7426 13.1299C65.7589 13.1299 65.7776 13.1229 65.7893 13.1113L66.3353 12.5653C66.3469 12.5536 66.3539 12.5349 66.3539 12.5186C66.3539 12.5023 66.3469 12.4836 66.3353 12.4719L65.8126 11.9493C65.8009 11.9376 65.7846 11.9329 65.7706 11.9306C65.7706 11.9306 65.5536 11.9166 65.5139 11.9143C65.4789 11.8793 63.2623 9.6626 63.2273 9.6276C63.2249 9.5856 63.2109 9.37093 63.2109 9.37093C63.2109 9.35693 63.2039 9.3406 63.1923 9.32893L62.6696 8.80626C62.6556 8.7946 62.6393 8.7876 62.6229 8.7876ZM62.6229 8.94626C62.6976 9.02093 63.0523 9.3756 63.0826 9.40593C63.0849 9.4456 63.0989 9.6626 63.0989 9.6626C63.0989 9.6766 63.1059 9.69293 63.1176 9.7046L65.4393 12.0263C65.4509 12.0379 65.4673 12.0426 65.4813 12.0449C65.4813 12.0449 65.6983 12.0589 65.7379 12.0613C65.7683 12.0916 66.1229 12.4463 66.1976 12.5209C66.1253 12.5933 65.8149 12.9036 65.7426 12.9759C65.6679 12.9013 65.3133 12.5466 65.2829 12.5163C65.2806 12.4766 65.2666 12.2596 65.2666 12.2596C65.2666 12.2456 65.2596 12.2293 65.2479 12.2176L62.9263 9.89593C62.9146 9.88426 62.8983 9.8796 62.8843 9.87726C62.8843 9.87726 62.6673 9.86326 62.6276 9.86093C62.5973 9.8306 62.2426 9.47593 62.1679 9.40126C62.2403 9.32893 62.5506 9.0186 62.6229 8.94626ZM61.8273 9.57393L61.2813 10.1199C61.2696 10.1316 61.2626 10.1503 61.2626 10.1666C61.2626 10.1829 61.2696 10.2016 61.2813 10.2133L61.8039 10.7359C61.8156 10.7476 61.8319 10.7523 61.8459 10.7546C61.8459 10.7546 62.0629 10.7686 62.1026 10.7709C62.1376 10.8059 64.3543 13.0226 64.3893 13.0576C64.3916 13.0996 64.4056 13.3143 64.4056 13.3143C64.4056 13.3283 64.4126 13.3446 64.4243 13.3563L64.9469 13.8789C64.9726 13.9046 65.0146 13.9046 65.0403 13.8789L65.5863 13.3329C65.5979 13.3213 65.6049 13.3026 65.6049 13.2863C65.6049 13.2699 65.5979 13.2513 65.5863 13.2396L65.0636 12.7169C65.0519 12.7053 65.0356 12.7006 65.0216 12.6983C65.0216 12.6983 64.8046 12.6843 64.7649 12.6819C64.7299 12.6469 62.5133 10.4303 62.4783 10.3953C62.4759 10.3556 62.4619 10.1386 62.4619 10.1386C62.4619 10.1246 62.4549 10.1083 62.4433 10.0966L61.9206 9.57393C61.8949 9.54593 61.8529 9.54593 61.8273 9.57393ZM61.8739 9.7116C61.9486 9.78626 62.3033 10.1409 62.3336 10.1713C62.3359 10.2109 62.3499 10.4279 62.3499 10.4279C62.3499 10.4419 62.3569 10.4583 62.3686 10.4699L64.6903 12.7916C64.7019 12.8033 64.7183 12.8079 64.7323 12.8103C64.7323 12.8103 64.9493 12.8243 64.9889 12.8266C65.0193 12.8569 65.3739 13.2116 65.4486 13.2863C65.3763 13.3586 65.0659 13.6689 64.9959 13.7413C64.9213 13.6666 64.5666 13.3119 64.5363 13.2816C64.5339 13.2396 64.5199 13.0249 64.5199 13.0249C64.5199 13.0109 64.5129 12.9946 64.5013 12.9829L62.1796 10.6613C62.1679 10.6496 62.1516 10.6449 62.1376 10.6426C62.1376 10.6426 61.9206 10.6286 61.8809 10.6263C61.8506 10.5959 61.4959 10.2413 61.4213 10.1666C61.4913 10.0943 61.8039 9.78393 61.8739 9.7116ZM61.0713 10.3299L60.5253 10.8759C60.5136 10.8876 60.5066 10.9063 60.5066 10.9226C60.5066 10.9389 60.5136 10.9576 60.5253 10.9693L61.0479 11.4919C61.0596 11.5036 61.0759 11.5083 61.0899 11.5106C61.0899 11.5106 61.3069 11.5246 61.3466 11.5269C61.3816 11.5619 63.5983 13.7786 63.6333 13.8136C63.6356 13.8556 63.6496 14.0703 63.6496 14.0703C63.6496 14.0843 63.6566 14.1006 63.6683 14.1123L64.1909 14.6349C64.2166 14.6606 64.2586 14.6606 64.2843 14.6349L64.8303 14.0889C64.8419 14.0773 64.8489 14.0586 64.8489 14.0423C64.8489 14.0259 64.8419 14.0073 64.8303 13.9956L64.3076 13.4729C64.2959 13.4613 64.2796 13.4566 64.2656 13.4543C64.2656 13.4543 64.0486 13.4403 64.0089 13.4379C63.9739 13.4029 61.7573 11.1863 61.7223 11.1513C61.7199 11.1116 61.7059 10.8946 61.7059 10.8946C61.7059 10.8806 61.6989 10.8643 61.6873 10.8526L61.1646 10.3299C61.1366 10.3043 61.0946 10.3043 61.0713 10.3299ZM61.1179 10.4699C61.1926 10.5446 61.5473 10.8993 61.5776 10.9296C61.5799 10.9693 61.5939 11.1863 61.5939 11.1863C61.5939 11.2003 61.6009 11.2166 61.6126 11.2283L63.9343 13.5499C63.9459 13.5616 63.9623 13.5663 63.9763 13.5686C63.9763 13.5686 64.1933 13.5826 64.2329 13.5849C64.2633 13.6153 64.6179 13.9699 64.6926 14.0446C64.6203 14.1169 64.3099 14.4273 64.2376 14.4996C64.1629 14.4249 63.8083 14.0703 63.7779 14.0399C63.7756 14.0003 63.7616 13.7833 63.7616 13.7833C63.7616 13.7693 63.7546 13.7529 63.7429 13.7413L61.4213 11.4196C61.4096 11.4079 61.3933 11.4033 61.3793 11.4009C61.3793 11.4009 61.1623 11.3869 61.1226 11.3846C61.0923 11.3543 60.7376 10.9996 60.6629 10.9249C60.7353 10.8526 61.0456 10.5399 61.1179 10.4699ZM66.4496 15.7083L65.9036 16.2543C65.8779 16.2799 65.8779 16.3219 65.9036 16.3476L66.4496 16.8936C66.4753 16.9193 66.5173 16.9193 66.5429 16.8936L67.0889 16.3476C67.1146 16.3219 67.1146 16.2799 67.0889 16.2543L66.5429 15.7083C66.5313 15.6966 66.5126 15.6896 66.4963 15.6896C66.4776 15.6896 66.4613 15.6966 66.4496 15.7083ZM66.4939 15.8459C66.5663 15.9183 66.8766 16.2286 66.9489 16.3009C66.8766 16.3733 66.5663 16.6836 66.4939 16.7559C66.4216 16.6836 66.1113 16.3733 66.0389 16.3009C66.1113 16.2286 66.4239 15.9183 66.4939 15.8459ZM65.6913 14.9499L65.1453 15.4959C65.1336 15.5076 65.1266 15.5263 65.1266 15.5426C65.1266 15.5589 65.1336 15.5776 65.1453 15.5893L65.6913 16.1353C65.7169 16.1609 65.7589 16.1609 65.7846 16.1353L66.3306 15.5893C66.3563 15.5636 66.3563 15.5216 66.3306 15.4959L65.7846 14.9499C65.7729 14.9383 65.7543 14.9313 65.7379 14.9313C65.7216 14.9336 65.7029 14.9383 65.6913 14.9499ZM65.7379 15.0899C65.8103 15.1623 66.1206 15.4726 66.1929 15.5449C66.1206 15.6173 65.8103 15.9276 65.7379 15.9999C65.6656 15.9276 65.3553 15.6173 65.2829 15.5449C65.3553 15.4726 65.6656 15.1599 65.7379 15.0899ZM64.9353 14.1939L64.3893 14.7399C64.3776 14.7516 64.3706 14.7703 64.3706 14.7866C64.3706 14.8029 64.3776 14.8216 64.3893 14.8333L64.9353 15.3793C64.9609 15.4049 65.0029 15.4049 65.0286 15.3793L65.5746 14.8333C65.6003 14.8076 65.6003 14.7656 65.5746 14.7399L65.0286 14.1939C65.0006 14.1683 64.9586 14.1683 64.9353 14.1939ZM64.9819 14.3316C65.0543 14.4039 65.3646 14.7143 65.4369 14.7866C65.3646 14.8589 65.0543 15.1693 64.9819 15.2416C64.9096 15.1693 64.5993 14.8589 64.5269 14.7866C64.5993 14.7143 64.9096 14.4039 64.9819 14.3316ZM65.6913 13.4379L65.1453 13.9839C65.1336 13.9956 65.1266 14.0143 65.1266 14.0306C65.1266 14.0469 65.1336 14.0656 65.1453 14.0773L65.6913 14.6233C65.7169 14.6489 65.7589 14.6489 65.7846 14.6233L66.3306 14.0773C66.3563 14.0516 66.3563 14.0096 66.3306 13.9839L65.7846 13.4379C65.7729 13.4263 65.7543 13.4193 65.7379 13.4193C65.7216 13.4193 65.7029 13.4263 65.6913 13.4379ZM65.7379 13.5756C65.8103 13.6479 66.1206 13.9583 66.1929 14.0306C66.1206 14.1029 65.8103 14.4133 65.7379 14.4856C65.6656 14.4133 65.3553 14.1029 65.2829 14.0306C65.3553 13.9583 65.6656 13.6479 65.7379 13.5756ZM66.4496 14.1939L65.9036 14.7399C65.8779 14.7656 65.8779 14.8076 65.9036 14.8333L66.4496 15.3793C66.4753 15.4049 66.5173 15.4049 66.5429 15.3793L67.0889 14.8333C67.1146 14.8076 67.1146 14.7656 67.0889 14.7399L66.5429 14.1939C66.5149 14.1683 66.4729 14.1683 66.4496 14.1939ZM66.4939 14.3316C66.5663 14.4039 66.8766 14.7143 66.9489 14.7866C66.8766 14.8589 66.5663 15.1693 66.4939 15.2416C66.4216 15.1693 66.1113 14.8589 66.0413 14.7866C66.1113 14.7143 66.4239 14.4039 66.4939 14.3316ZM67.2523 14.9313C67.2359 14.9313 67.2173 14.9383 67.2056 14.9499L66.6596 15.4959C66.6339 15.5216 66.6339 15.5636 66.6596 15.5893L67.2056 16.1353C67.2313 16.1609 67.2733 16.1609 67.2989 16.1353L67.8449 15.5893C67.8566 15.5776 67.8636 15.5589 67.8636 15.5426C67.8636 15.5263 67.8566 15.5076 67.8449 15.4959L67.2989 14.9499C67.2849 14.9359 67.2686 14.9313 67.2523 14.9313ZM67.2523 15.0899C67.3246 15.1623 67.6349 15.4726 67.7073 15.5449C67.6349 15.6173 67.3246 15.9276 67.2523 15.9999C67.1799 15.9276 66.8696 15.6173 66.7973 15.5449C66.8696 15.4726 67.1799 15.1599 67.2523 15.0899ZM67.9616 14.1939L67.4156 14.7399C67.4039 14.7516 67.3969 14.7703 67.3969 14.7866C67.3969 14.8029 67.4039 14.8216 67.4156 14.8333L67.9616 15.3793C67.9733 15.3909 67.9919 15.3979 68.0083 15.3979C68.0246 15.3979 68.0433 15.3909 68.0549 15.3793L68.6009 14.8333C68.6266 14.8076 68.6266 14.7656 68.6009 14.7399L68.0549 14.1939C68.0433 14.1823 68.0246 14.1753 68.0083 14.1753C67.9919 14.1753 67.9733 14.1823 67.9616 14.1939ZM68.0083 14.3316C68.0806 14.4039 68.3909 14.7143 68.4609 14.7866C68.3909 14.8589 68.0783 15.1693 68.0083 15.2416C67.9359 15.1693 67.6256 14.8589 67.5533 14.7866C67.6256 14.7143 67.9383 14.4039 68.0083 14.3316ZM67.2523 13.4169C67.2359 13.4169 67.2173 13.4239 67.2056 13.4356L66.6596 13.9816C66.6339 14.0073 66.6339 14.0493 66.6596 14.0749L67.2056 14.6209C67.2313 14.6466 67.2733 14.6466 67.2989 14.6209L67.8449 14.0749C67.8566 14.0633 67.8636 14.0446 67.8636 14.0283C67.8636 14.0119 67.8566 13.9933 67.8449 13.9816L67.2989 13.4356C67.2849 13.4239 67.2686 13.4169 67.2523 13.4169ZM67.2523 13.5756C67.3246 13.6479 67.6349 13.9583 67.7073 14.0306C67.6349 14.1029 67.3246 14.4133 67.2523 14.4856C67.1799 14.4133 66.8696 14.1029 66.7973 14.0306C66.8696 13.9583 67.1799 13.6479 67.2523 13.5756ZM66.4496 12.6796L65.9036 13.2256C65.8779 13.2513 65.8779 13.2933 65.9036 13.3189L66.4496 13.8649C66.4753 13.8906 66.5173 13.8906 66.5429 13.8649L67.0889 13.3189C67.1146 13.2933 67.1146 13.2513 67.0889 13.2256L66.5429 12.6796C66.5313 12.6679 66.5126 12.6609 66.4963 12.6609C66.4776 12.6633 66.4613 12.6679 66.4496 12.6796ZM66.4939 12.8196C66.5663 12.8919 66.8766 13.2023 66.9489 13.2746C66.8766 13.3469 66.5663 13.6573 66.4939 13.7273C66.4216 13.6549 66.1113 13.3446 66.0389 13.2746C66.1113 13.2023 66.4239 12.8896 66.4939 12.8196Z" fill="#EE2E24"/>
<path d="M52.4637 63.3499L51.2107 62.6872L50.7254 63.1842L49.5984 62.5892L52.8301 59.7285L54.0341 60.3655L53.4881 64.6472L52.3331 64.0359L52.4661 63.3522L52.4637 63.3499ZM52.6434 62.4562L52.9281 60.9628L51.8594 62.0409L52.6434 62.4562Z" fill="#EE2E24"/>
<path d="M55.8936 64.1597L57.0533 64.4327C57.023 64.624 57.03 64.7803 57.0766 64.8993C57.1513 65.093 57.3053 65.2236 57.534 65.2936C57.7043 65.345 57.849 65.345 57.9656 65.2936C58.0823 65.2423 58.157 65.163 58.1873 65.058C58.2176 64.9577 58.2013 64.855 58.136 64.75C58.073 64.645 57.891 64.5073 57.5923 64.3416C57.1046 64.0663 56.778 63.7957 56.6123 63.5343C56.4466 63.2707 56.4093 62.9883 56.5003 62.685C56.561 62.4866 56.6753 62.3163 56.8433 62.174C57.0113 62.0316 57.2283 61.9453 57.4896 61.915C57.751 61.8847 58.0846 61.929 58.486 62.0503C58.9806 62.1996 59.3283 62.405 59.5336 62.6686C59.7366 62.93 59.8043 63.2707 59.732 63.686L58.5863 63.4107C58.6096 63.2287 58.5863 63.0817 58.5116 62.9743C58.4393 62.867 58.3203 62.7876 58.15 62.7363C58.01 62.6943 57.898 62.692 57.8093 62.7293C57.7206 62.7666 57.6646 62.8273 57.639 62.9113C57.6203 62.972 57.632 63.0373 57.6763 63.105C57.716 63.1727 57.8373 63.2613 58.0333 63.3686C58.521 63.6393 58.8616 63.8656 59.053 64.05C59.2443 64.2343 59.3656 64.4257 59.417 64.6287C59.4683 64.8293 59.4613 65.037 59.3983 65.247C59.3236 65.4943 59.186 65.702 58.9853 65.87C58.7846 66.038 58.5443 66.1383 58.2666 66.1733C57.9866 66.206 57.66 66.1663 57.2866 66.0543C56.6286 65.856 56.211 65.5923 56.036 65.261C55.861 64.9297 55.812 64.5656 55.8983 64.1643L55.8936 64.1597Z" fill="#EE2E24"/>
<path d="M61.7155 62.9486L65.4885 63.35L65.3835 64.3416L64.1165 64.2063L63.7945 67.2326L62.5532 67.0996L62.8752 64.0733L61.6082 63.938L61.7132 62.9463L61.7155 62.9486Z" fill="#EE2E24"/>
<path d="M69.6138 66.5536L68.1998 66.654L68.0505 67.333L66.7788 67.4216L68.0085 63.2846L69.3665 63.189L71.1655 67.1136L69.8611 67.2046L69.6115 66.5536H69.6138ZM69.2941 65.6996L68.7481 64.281L68.4098 65.7603L69.2941 65.6973V65.6996Z" fill="#EE2E24"/>
<path d="M72.4558 62.7829L73.5781 62.4679L75.6455 64.2109L75.0435 62.0595L76.1775 61.7422L77.2671 65.6319L76.1331 65.9492L74.0775 64.2202L74.6771 66.3575L73.5455 66.6749L72.4558 62.7852V62.7829Z" fill="#EE2E24"/>
<path d="M81.7564 62.869L80.4964 63.5177L80.6271 64.2014L79.4931 64.7847L78.9961 60.496L80.2071 59.873L83.4061 62.771L82.2441 63.3684L81.7588 62.8667L81.7564 62.869ZM81.1264 62.211L80.0648 61.1237L80.3378 62.617L81.1264 62.211Z" fill="#EE2E24"/>
</svg>
