<svg width="240" height="70" viewBox="0 0 240 70" fill="none" xmlns="http://www.w3.org/2000/svg">
<g clip-path="url(#clip0_1775_2541)">
<path fill-rule="evenodd" clip-rule="evenodd" d="M37.0688 9H202.931V61H37.0688V9Z" fill="#CE1327"/>
<path fill-rule="evenodd" clip-rule="evenodd" d="M176.036 31.3805C176.036 30.3907 175.843 29.5927 175.456 28.9651C174.974 28.2416 174.273 27.9027 173.33 27.9027C172.22 27.9027 171.423 28.3376 170.988 29.2314C170.698 29.859 170.577 30.8004 170.577 32.0816V38.5547C170.577 38.5547 168.547 38.5547 168.547 38.5565V32.3245C168.547 31.0191 168.403 30.0294 168.089 29.3525C167.63 28.386 166.857 27.9036 165.696 27.9036C163.789 27.9036 162.823 29.3283 162.823 32.2268V38.5565H160.841V26.2118H162.702V27.8059C163.619 26.5991 164.732 26.0191 165.963 26.0191C166.881 26.0191 167.606 26.1885 168.16 26.5256C168.74 26.8887 169.247 27.4446 169.707 28.2416C170.528 26.7426 171.808 26.0182 173.572 26.0182C175.021 26.0182 176.158 26.5014 176.978 27.4437C177.776 28.3376 178.163 29.521 178.163 30.9949V38.5556H176.036V31.3805ZM163.018 45.6025H161.859C161.498 44.8296 160.869 44.4432 159.95 44.4432C159.347 44.4432 158.865 44.6853 158.477 45.1192C158.091 45.5783 157.897 46.0857 157.897 46.69C157.897 47.3176 158.091 47.8492 158.477 48.284C158.889 48.7431 159.395 48.9609 159.999 48.9609C160.941 48.9609 161.545 48.5494 161.858 47.7291H163.017C162.487 49.2263 161.473 49.974 159.999 49.974C159.081 49.974 158.308 49.6603 157.704 49.0327C157.1 48.4051 156.81 47.6332 156.81 46.7142C156.81 45.7719 157.1 44.9982 157.728 44.3706C158.333 43.743 159.106 43.4283 160.048 43.4283C160.772 43.4283 161.376 43.622 161.883 44.0084C162.415 44.3939 162.778 44.9265 163.018 45.6025ZM153.812 38.846C150.405 38.846 148.69 36.5267 148.69 33.3134V26.2127H150.743V32.6867C150.743 34.6914 151.42 36.7929 153.812 36.7929C156.203 36.7929 156.88 34.6914 156.88 32.6867V26.2127H158.933V33.3134C158.933 36.5267 157.218 38.846 153.812 38.846ZM148.789 49.8064H147.751V40.5056H148.789V49.8064ZM141.369 33.1449H137.238C137.432 34.2082 137.915 35.102 138.664 35.8023C139.413 36.5043 140.331 36.8656 141.369 36.8656H141.393C142.94 36.8656 144.123 36.1654 144.945 34.7398H147.312C146.129 37.494 144.172 38.8711 141.393 38.8711H141.369C139.606 38.8711 138.133 38.2418 136.876 36.9624C135.645 35.6821 135.016 34.1347 135.016 32.3729C135.016 30.5852 135.645 29.062 136.876 27.7826C138.108 26.5023 139.606 25.8496 141.369 25.8496C142.771 25.8496 144.003 26.2118 145.017 26.9371C146.056 27.6616 146.805 28.7007 147.264 30.0294C147.578 30.8981 147.723 31.9372 147.723 33.1458L141.369 33.1449ZM141.442 27.9036H141.369C140.379 27.9036 139.51 28.2174 138.809 28.7966C138.083 29.4251 137.576 30.223 137.287 31.237H141.369V31.2379H145.452C144.799 29.0154 143.471 27.9036 141.442 27.9036ZM127.744 44.185H127.648C125.787 44.185 124.388 43.7986 123.493 43.05C122.55 42.2771 121.995 41.3107 121.777 40.1272H124.217C124.363 40.8516 124.772 41.4075 125.498 41.7939C126.101 42.1077 126.803 42.2529 127.624 42.2529H127.648C129.001 42.2529 130.039 41.8181 130.764 41.0211C131.513 40.1756 131.877 39.0881 131.877 37.711V36.8665C130.596 38.1467 129.194 38.7752 127.648 38.7752H127.624C125.715 38.7752 124.145 38.1709 122.961 36.9624C121.754 35.7547 121.15 34.2082 121.15 32.3003C121.15 30.5126 121.754 28.9911 122.961 27.7593C124.192 26.5023 125.69 25.8747 127.455 25.8747H127.648C129.243 25.9223 130.644 26.5749 131.877 27.8068C131.877 27.8068 131.877 26.1867 131.877 26.1876H134.001V37.035C134.001 39.2334 133.519 40.9243 132.552 42.1561C131.465 43.509 129.871 44.185 127.744 44.185ZM130.715 29.2556C129.894 28.3376 128.88 27.9036 127.697 27.9036H127.648C126.487 27.9036 125.472 28.3385 124.628 29.2081C123.758 30.0778 123.348 31.116 123.348 32.3003C123.348 33.6048 123.758 34.6914 124.556 35.5378C125.352 36.3823 126.391 36.7938 127.648 36.8172H127.744C128.855 36.8172 129.847 36.359 130.692 35.4643C131.538 34.5462 131.972 33.5322 131.972 32.4205C131.972 31.2379 131.561 30.1746 130.715 29.2556ZM118.057 36.818C116.751 38.1467 115.302 38.7985 113.732 38.7985L113.684 38.7976C111.824 38.7976 110.302 38.1943 109.07 36.9624C107.839 35.7305 107.234 34.1831 107.234 32.3236C107.234 30.5359 107.838 29.0145 109.047 27.7817C110.278 26.5256 111.776 25.8971 113.539 25.8971H113.733C115.327 25.9447 116.752 26.5749 117.96 27.8301V26.2127H120.062V38.5574H118.057V36.818ZM116.8 29.2807C115.955 28.3627 114.941 27.9278 113.755 27.9278H113.732C112.549 27.9278 111.559 28.3618 110.688 29.2314C109.844 30.1011 109.41 31.1393 109.409 32.3236C109.409 33.5555 109.844 34.6197 110.688 35.5127C111.51 36.3823 112.524 36.8172 113.732 36.8414L113.805 36.8423C114.941 36.8423 115.931 36.3823 116.777 35.4894C117.622 34.5704 118.057 33.5564 118.057 32.4447C118.057 31.2612 117.622 30.1979 116.8 29.2807ZM104.021 20.0283H106.075V38.5565H104.021V20.0283ZM100.3 36.818C98.9946 38.1467 97.5458 38.7985 95.9759 38.7985L95.9526 38.7976C94.0922 38.7976 92.5448 38.1943 91.3138 36.9624C90.082 35.7305 89.4777 34.1831 89.4777 32.3236C89.4777 30.5359 90.0811 29.0145 91.3138 27.7817C92.5215 26.5256 94.0196 25.8971 95.8073 25.8971H95.9759C97.5951 25.9447 98.9946 26.5749 100.203 27.8301V26.2127H102.33V38.5574H100.3V36.818ZM99.0439 29.2807C98.2227 28.3627 97.2078 27.9278 96.0243 27.9278H95.9759C94.8176 27.9278 93.8018 28.3618 92.9563 29.2314C92.0875 30.1011 91.676 31.1393 91.676 32.3236C91.676 33.5555 92.0867 34.6197 92.9321 35.5127C93.7775 36.3823 94.7924 36.8172 95.9759 36.8414L96.0727 36.8423C97.1844 36.8423 98.1742 36.3823 99.0197 35.4894C99.8642 34.5704 100.301 33.5564 100.301 32.4447C100.301 31.2612 99.8911 30.1979 99.0439 29.2807ZM73.8678 46.178C66.959 46.178 61.3564 40.5764 61.3564 33.6685C61.3564 26.7587 66.959 21.1553 73.8678 21.1553C80.7767 21.1553 86.3783 26.7587 86.3783 33.6685C86.3783 40.5764 80.7767 46.178 73.8678 46.178ZM73.8678 22.6534C70.9397 22.6534 68.2805 23.7992 66.3072 25.6631L73.8607 28.7159L81.4276 25.6631C79.4551 23.7992 76.796 22.6534 73.8678 22.6534ZM81.5836 25.8111L81.6508 25.9536L74.0615 30.1459L75.002 44.6109H72.7328L73.6715 30.154L66.084 25.9536L66.1512 25.812C64.1169 27.8104 62.8537 30.5906 62.8537 33.6676C62.8537 39.748 67.7856 44.6808 73.8678 44.6808C79.9491 44.6808 84.8811 39.748 84.8811 33.6676C84.8811 30.5906 83.6178 27.8095 81.5836 25.8111ZM143.596 43.4283C144.296 43.4283 144.924 43.622 145.432 43.9833C145.939 44.3464 146.325 44.8529 146.567 45.5298C146.713 45.9647 146.784 46.4721 146.784 47.0764H143.596H141.518C141.616 47.6332 141.857 48.068 142.243 48.4302C142.63 48.7673 143.065 48.9609 143.596 48.9609H143.62C144.393 48.9609 144.996 48.5987 145.407 47.8976H146.59C145.987 49.2756 144.996 49.9749 143.62 49.9749H143.596C142.726 49.9749 141.977 49.6378 141.349 49.0094C140.721 48.3567 140.407 47.5838 140.407 46.69C140.407 45.7961 140.721 45.0475 141.349 44.3948C141.953 43.743 142.701 43.4283 143.596 43.4283ZM143.596 46.1341H145.648C145.31 45.0224 144.659 44.4432 143.644 44.4432H143.596C143.088 44.4674 142.677 44.6118 142.315 44.9032C141.953 45.2169 141.687 45.6267 141.543 46.1341H143.596ZM152.994 43.4283C153.693 43.4283 154.297 43.622 154.829 43.9833C155.336 44.3464 155.698 44.8529 155.94 45.5298C156.085 45.9647 156.182 46.4721 156.182 47.0764H152.994H150.916C151.012 47.6332 151.254 48.0671 151.616 48.4293C152.002 48.7673 152.46 48.9609 152.994 48.9609C153.767 48.9609 154.37 48.5978 154.781 47.8976H155.964C155.386 49.2747 154.394 49.974 152.994 49.974C152.099 49.974 151.351 49.6369 150.722 49.0094C150.119 48.3567 149.803 47.5838 149.803 46.69C149.803 45.7961 150.093 45.0466 150.722 44.3939C151.351 43.743 152.099 43.4283 152.994 43.4283ZM152.994 46.1341H155.047C154.708 45.0224 154.032 44.4432 153.016 44.4432H152.994C152.486 44.4674 152.05 44.6118 151.689 44.9032C151.326 45.2169 151.084 45.6267 150.939 46.1341H152.994ZM164.371 41.5922H165.385V43.622H166.28V44.5643H165.385V49.8064H164.371V44.5643H163.478V43.622H164.371V41.5922ZM168.091 44.3939C168.526 43.8147 169.034 43.5009 169.59 43.5009V44.6118C168.648 44.6118 168.164 45.1918 168.164 46.352V49.8064H167.125V43.5969H168.091V44.3939ZM171.45 42.1965H170.412V41.013H171.45V42.1965ZM171.45 49.8064H170.412V43.622H171.45V49.8064ZM175.678 43.4283C176.404 43.4283 177.007 43.622 177.514 44.0084C178.046 44.3939 178.408 44.9265 178.65 45.6025H177.49C177.128 44.8296 176.5 44.4432 175.582 44.4432C174.979 44.4432 174.495 44.6853 174.109 45.1192C173.721 45.5783 173.529 46.0857 173.529 46.69C173.529 47.3176 173.721 47.8492 174.109 48.284C174.519 48.7431 175.027 48.9609 175.63 48.9609C176.572 48.9609 177.177 48.5494 177.489 47.7291H178.649C178.118 49.2263 177.103 49.974 175.63 49.974C174.712 49.974 173.939 49.6603 173.336 49.0327C172.731 48.4051 172.44 47.6332 172.44 46.7142C172.44 45.7719 172.731 44.9982 173.359 44.3706C173.963 43.743 174.736 43.4283 175.678 43.4283Z" fill="white"/>
</g>
<defs>
<clipPath id="clip0_1775_2541">
<rect width="165.862" height="52" fill="white" transform="translate(37.0688 9)"/>
</clipPath>
</defs>
</svg>
