<svg width="195" height="80" viewBox="0 0 195 80" fill="none" xmlns="http://www.w3.org/2000/svg">
<rect width="194.593" height="80" rx="8" fill="#CF1F27"/>
<path d="M42.3125 17.04C42.2645 14.772 44.1965 12.912 46.4885 12.948C47.8685 12.948 49.0085 13.548 49.7645 14.604L48.8405 15.36C48.2525 14.532 47.4605 14.112 46.4765 14.112C44.8085 14.112 43.6325 15.36 43.6325 17.028C43.6325 18.72 44.8445 19.992 46.5485 19.992C47.5925 19.992 48.4205 19.548 48.9125 18.792V17.94H46.4765V16.812H50.1845V19.044C49.4765 20.304 48.0845 21.132 46.4885 21.132C44.1725 21.168 42.2765 19.308 42.3125 17.04ZM51.7456 21V13.08H56.9536V14.22H53.0176V16.248H55.9816V17.352H53.0176V19.86H57.0976V21H51.7456ZM63.8337 13.08H65.1057V21.132H64.6737L59.8497 15.636V21H58.5777V12.948H59.0217L63.8337 18.42V13.08ZM67.1089 21V13.08H72.3169V14.22H68.3809V16.248H71.3449V17.352H68.3809V19.86H72.4609V21H67.1089ZM80.3729 21H78.9209L76.6649 17.94H75.2129V21H73.9409V13.08H76.8329C78.4289 13.08 79.5209 14.076 79.5209 15.504C79.5209 16.548 78.9449 17.364 77.9969 17.736L80.3729 21ZM75.2129 14.208V16.812H76.8089C77.6849 16.812 78.2129 16.284 78.2129 15.516C78.2129 14.736 77.6849 14.208 76.8089 14.208H75.2129ZM86.8273 21L86.2633 19.68H82.6993L82.1353 21H80.7793L84.2713 12.948H84.7033L88.1953 21H86.8273ZM85.8073 18.588L84.4873 15.312L83.1553 18.588H85.8073ZM89.4566 21V13.08H90.7286V19.86H94.3526V21H89.4566ZM97.834 19.416L98.734 18.732C99.262 19.5 99.898 19.992 100.81 19.992C101.626 19.992 102.178 19.56 102.178 18.888C102.178 18.324 101.842 18.084 101.014 17.7L100.138 17.292C98.986 16.764 98.29 16.152 98.29 15.096C98.29 13.8 99.418 12.948 100.786 12.948C101.902 12.948 102.85 13.512 103.342 14.364L102.454 15.048C102.034 14.424 101.458 14.088 100.786 14.088C100.114 14.088 99.586 14.424 99.586 15.048C99.634 15.672 99.91 15.78 100.69 16.176L101.578 16.584C102.862 17.172 103.474 17.796 103.474 18.84C103.474 20.22 102.346 21.132 100.822 21.132C99.526 21.132 98.446 20.484 97.834 19.416ZM105.101 21V13.08H107.993C109.589 13.08 110.681 14.076 110.681 15.504C110.681 16.92 109.589 17.94 107.993 17.94H106.373V21H105.101ZM106.373 16.812H107.969C108.869 16.812 109.373 16.296 109.373 15.516C109.373 14.736 108.869 14.208 107.969 14.208H106.373V16.812ZM111.617 17.04C111.581 14.772 113.513 12.912 115.769 12.948C118.013 12.912 119.981 14.772 119.933 17.04C119.981 19.308 118.013 21.168 115.769 21.132C113.501 21.168 111.569 19.308 111.617 17.04ZM118.625 17.028C118.625 15.372 117.401 14.112 115.781 14.112C114.137 14.112 112.937 15.36 112.937 17.028C112.937 18.72 114.137 19.968 115.781 19.968C117.401 19.968 118.625 18.72 118.625 17.028ZM126.716 13.08H127.988V21.132H127.556L122.732 15.636V21H121.46V12.948H121.904L126.716 18.42V13.08ZM129.428 19.416L130.328 18.732C130.856 19.5 131.492 19.992 132.404 19.992C133.22 19.992 133.772 19.56 133.772 18.888C133.772 18.324 133.436 18.084 132.608 17.7L131.732 17.292C130.58 16.764 129.884 16.152 129.884 15.096C129.884 13.8 131.012 12.948 132.38 12.948C133.496 12.948 134.444 13.512 134.936 14.364L134.048 15.048C133.628 14.424 133.052 14.088 132.38 14.088C131.708 14.088 131.18 14.424 131.18 15.048C131.228 15.672 131.504 15.78 132.284 16.176L133.172 16.584C134.456 17.172 135.068 17.796 135.068 18.84C135.068 20.22 133.94 21.132 132.416 21.132C131.12 21.132 130.04 20.484 129.428 19.416ZM136.215 17.04C136.179 14.772 138.111 12.912 140.367 12.948C142.611 12.912 144.579 14.772 144.531 17.04C144.579 19.308 142.611 21.168 140.367 21.132C138.099 21.168 136.167 19.308 136.215 17.04ZM143.223 17.028C143.223 15.372 141.999 14.112 140.379 14.112C138.735 14.112 137.535 15.36 137.535 17.028C137.535 18.72 138.735 19.968 140.379 19.968C141.999 19.968 143.223 18.72 143.223 17.028ZM152.49 21H151.038L148.782 17.94H147.33V21H146.058V13.08H148.95C150.546 13.08 151.638 14.076 151.638 15.504C151.638 16.548 151.062 17.364 150.114 17.736L152.49 21ZM147.33 14.208V16.812H148.926C149.802 16.812 150.33 16.284 150.33 15.516C150.33 14.736 149.802 14.208 148.926 14.208H147.33Z" fill="white"/>
<g clip-path="url(#clip0_1401_2668)">
<path fill-rule="evenodd" clip-rule="evenodd" d="M169.719 59.1433C168.924 59.1433 168.288 59.4611 167.779 60.0337C167.27 60.6381 167.015 61.3057 167.015 62.1011C167.015 62.9285 167.27 63.6278 167.779 64.2004C168.319 64.8048 168.988 65.0914 169.782 65.0914C171.023 65.0914 171.818 64.5507 172.232 63.4692H173.759C173.059 65.4411 171.723 66.427 169.782 66.427C168.574 66.427 167.556 66.0137 166.761 65.1864C165.965 64.3596 165.584 63.3418 165.584 62.133C165.584 60.8923 165.965 59.8745 166.793 59.0478C167.588 58.2205 168.605 57.8071 169.846 57.8071C170.8 57.8071 171.596 58.0618 172.263 58.5707C172.963 59.0796 173.44 59.779 173.759 60.67H172.232C171.754 59.6522 170.928 59.1433 169.719 59.1433ZM170.898 41.9457C170.898 40.6419 170.644 39.5923 170.135 38.7649C169.499 37.8108 168.576 37.3656 167.336 37.3656C165.873 37.3656 164.823 37.9382 164.251 39.1152C163.868 39.9419 163.71 41.1826 163.71 42.8685V51.3929H161.037V43.1864C161.037 41.4686 160.847 40.1648 160.434 39.2738C159.829 38.0019 158.811 37.3656 157.285 37.3656C154.771 37.3656 153.5 39.2426 153.5 43.0596V51.3929H150.891V35.139H153.34V37.2383C154.549 35.6479 156.012 34.8848 157.634 34.8848C158.843 34.8848 159.797 35.1071 160.529 35.5524C161.292 36.03 161.96 36.7612 162.565 37.8108C163.646 35.8389 165.332 34.8848 167.654 34.8848C169.562 34.8848 171.057 35.5205 172.139 36.7612C173.188 37.9382 173.697 39.4967 173.697 41.4368V51.3929H170.898V41.9457ZM153.179 60.67H151.652C151.175 59.6522 150.348 59.1433 149.139 59.1433C148.344 59.1433 147.708 59.4611 147.199 60.0337C146.69 60.6381 146.435 61.3057 146.435 62.1011C146.435 62.9285 146.69 63.6278 147.199 64.2004C147.74 64.8048 148.408 65.0914 149.203 65.0914C150.443 65.0914 151.239 64.5507 151.652 63.4692H153.179C152.479 65.4411 151.143 66.427 149.203 66.427C147.994 66.427 146.977 66.0137 146.181 65.1864C145.386 64.3596 145.004 63.3418 145.004 62.133C145.004 60.8923 145.386 59.8745 146.213 59.0478C147.008 58.2205 148.026 57.8071 149.266 57.8071C150.221 57.8071 151.016 58.0618 151.684 58.5707C152.383 59.0796 152.861 59.779 153.179 60.67ZM141.635 51.7745C137.15 51.7745 134.892 48.7211 134.892 44.4907V35.139H137.595V43.6634C137.595 46.3034 138.486 49.0708 141.635 49.0708C144.784 49.0708 145.674 46.3034 145.674 43.6634V35.139H148.378V44.4907C148.378 48.7211 146.12 51.7745 141.635 51.7745ZM133.076 53.9583H134.444V66.2047H133.076V53.9583ZM119.815 44.2678C120.069 45.6677 120.705 46.8441 121.692 47.767C122.678 48.6893 123.886 49.1663 125.254 49.1663H125.286C127.321 49.1663 128.88 48.244 129.961 46.3671H133.079C131.52 49.993 128.944 51.8063 125.286 51.8063H125.254C122.932 51.8063 120.992 50.9796 119.338 49.2937C117.715 47.6078 116.889 45.5722 116.889 43.25C116.889 40.896 117.715 38.8923 119.338 37.2064C120.96 35.5205 122.932 34.6619 125.254 34.6619C127.099 34.6619 128.721 35.139 130.057 36.0937C131.425 37.0478 132.411 38.4153 133.015 40.1648C133.429 41.31 133.619 42.6775 133.619 44.2678H125.254H119.815ZM125.349 37.3656H125.254C123.95 37.3656 122.804 37.779 121.882 38.5426C120.928 39.3694 120.26 40.419 119.878 41.7552H125.254H130.629C129.771 38.8286 128.021 37.3656 125.349 37.3656ZM107.314 58.804H107.187C104.738 58.804 102.893 58.2951 101.716 57.3092C100.476 56.2914 99.7437 55.0189 99.4577 53.4604H102.67C102.861 54.4145 103.402 55.1463 104.356 55.6551C105.151 56.0685 106.074 56.2596 107.155 56.2596H107.187C108.968 56.2596 110.336 55.687 111.29 54.6374C112.276 53.524 112.753 52.0929 112.753 50.2796V49.1663C111.067 50.8522 109.223 51.6789 107.187 51.6789H107.155C104.643 51.6789 102.575 50.884 101.016 49.2937C99.4259 47.7033 98.631 45.6677 98.631 43.1545C98.631 40.8011 99.4259 38.7968 101.016 37.1746C102.638 35.5205 104.611 34.6938 106.933 34.6938C107.028 34.6938 107.124 34.6938 107.187 34.6938C109.287 34.7575 111.131 35.616 112.753 37.2383V35.1071H115.552V49.3892C115.552 52.2834 114.916 54.51 113.644 56.1322C112.212 57.9136 110.113 58.804 107.314 58.804ZM111.227 39.147C110.145 37.9382 108.809 37.3656 107.251 37.3656H107.187C105.661 37.3656 104.324 37.9382 103.211 39.0834C102.066 40.2285 101.525 41.596 101.525 43.1545C101.525 44.8723 102.066 46.3034 103.116 47.4167C104.165 48.53 105.533 49.0708 107.187 49.1026H107.314C108.778 49.1026 110.081 48.4982 111.195 47.3218C112.308 46.1129 112.881 44.7767 112.881 43.3137C112.881 41.7552 112.34 40.3553 111.227 39.147ZM94.5592 49.1026C92.8415 50.8522 90.9333 51.7114 88.8659 51.7114H88.8022C86.3527 51.7114 84.3489 50.9159 82.7267 49.2937C81.1045 47.6715 80.3096 45.6359 80.3096 43.1864C80.3096 40.8329 81.1045 38.8286 82.6949 37.2064C84.3171 35.5524 86.2896 34.7256 88.6111 34.7256C88.7067 34.7256 88.7703 34.7256 88.8659 34.7256C90.9651 34.7893 92.8415 35.616 94.4324 37.2701V35.139H97.1992V51.3929H94.5592V49.1026ZM92.9052 39.1789C91.7919 37.97 90.4562 37.3975 88.8977 37.3975H88.8659C87.3073 37.3975 86.003 37.97 84.8578 39.1152C83.7445 40.2604 83.1719 41.6278 83.1719 43.1864C83.1719 44.8086 83.7445 46.2085 84.8578 47.3849C85.9393 48.53 87.2755 49.1026 88.8659 49.1345H88.9614C90.4562 49.1345 91.76 48.53 92.8733 47.353C93.9867 46.1448 94.5592 44.8086 94.5592 43.3456C94.5592 41.787 93.9867 40.3871 92.9052 39.1789ZM76.0787 26.9961H78.7823V51.3929H76.0787V26.9961ZM71.1808 49.1026C69.463 50.8522 67.5542 51.7114 65.4868 51.7114H65.455C63.006 51.7114 60.9705 50.9159 59.3482 49.2937C57.7255 47.6715 56.9306 45.6359 56.9306 43.1864C56.9306 40.8329 57.7255 38.8286 59.3482 37.2064C60.9386 35.5524 62.9105 34.7256 65.2639 34.7256C65.3276 34.7256 65.4231 34.7256 65.4868 34.7256C67.6179 34.7893 69.463 35.616 71.0534 37.2701V35.139H73.852V51.3929H71.1808V49.1026ZM69.5267 39.1789C68.4452 37.97 67.109 37.3975 65.5505 37.3975H65.4868C63.9601 37.3975 62.6239 37.97 61.5112 39.1152C60.366 40.2604 59.8253 41.6278 59.8253 43.1864C59.8253 44.8086 60.366 46.2085 61.4794 47.3849C62.5921 48.53 63.9283 49.1026 65.4868 49.1345H65.6142C67.0772 49.1345 68.3816 48.53 69.4949 47.353C70.6082 46.1448 71.1808 44.8086 71.1808 43.3456C71.1808 41.787 70.64 40.3871 69.5267 39.1789ZM36.3774 60.9334C27.5536 60.9334 20.399 53.7782 20.399 44.955C20.399 36.1313 27.5536 28.9761 36.3774 28.9761C45.2011 28.9761 52.3563 36.1313 52.3563 44.955C52.3563 53.7782 45.2011 60.9334 36.3774 60.9334ZM36.3774 29.9591C28.0967 29.9591 21.3815 36.6738 21.3815 44.955C21.3815 53.2357 28.0967 59.9509 36.3774 59.9509C44.6586 59.9509 51.3732 53.2357 51.3732 44.955C51.3732 36.6738 44.6586 29.9591 36.3774 29.9591ZM26.4525 34.6938L36.3687 38.703L46.3022 34.6938L36.3669 40.1839L26.4525 34.6938ZM37.6076 59.1161H35.1477L36.3768 40.1851L37.6076 59.1161ZM127.605 57.8071C128.528 57.8071 129.355 58.0618 130.023 58.5389C130.691 59.0159 131.2 59.684 131.517 60.5745C131.709 61.147 131.804 61.8151 131.804 62.61H127.605H124.87C124.997 63.3418 125.315 63.9144 125.824 64.3915C126.333 64.8367 126.906 65.0914 127.605 65.0914H127.637C128.655 65.0914 129.45 64.6144 129.991 63.6915H131.549C130.754 65.5048 129.45 66.427 127.637 66.427H127.605C126.46 66.427 125.474 65.9818 124.647 65.1551C123.82 64.2959 123.406 63.2781 123.406 62.1011C123.406 60.9241 123.82 59.9382 124.647 59.0796C125.442 58.2205 126.429 57.8071 127.605 57.8071ZM127.605 61.3694H130.309C129.863 59.9064 129.005 59.1433 127.669 59.1433H127.605C126.937 59.1751 126.397 59.3656 125.92 59.7471C125.442 60.1611 125.092 60.7018 124.901 61.3694H127.605ZM139.979 57.8071C140.901 57.8071 141.696 58.0618 142.396 58.5389C143.064 59.0159 143.541 59.684 143.859 60.5745C144.05 61.147 144.177 61.8151 144.177 62.61H139.979H137.243C137.37 63.3418 137.688 63.9144 138.166 64.3915C138.674 64.8367 139.279 65.0914 139.979 65.0914C140.997 65.0914 141.791 64.6144 142.332 63.6915H143.891C143.128 65.5048 141.823 66.427 139.979 66.427C138.802 66.427 137.816 65.9818 136.989 65.1551C136.194 64.2959 135.78 63.2781 135.78 62.1011C135.78 60.9241 136.162 59.9382 136.989 59.0796C137.816 58.2205 138.802 57.8071 139.979 57.8071ZM139.979 61.3694H142.682C142.237 59.9064 141.346 59.1433 140.011 59.1433H139.979C139.311 59.1751 138.738 59.3656 138.261 59.7471C137.784 60.1611 137.466 60.7018 137.275 61.3694H139.979ZM154.96 55.39H156.296V58.0618H157.473V59.3019H156.296V66.2047H154.96V59.3019H153.783V58.0618H154.96V55.39ZM159.859 59.0796C160.431 58.316 161.099 57.9026 161.831 57.9026V59.3656C160.59 59.3656 159.954 60.1293 159.954 61.6559V66.2047H158.586V58.03H159.859V59.0796ZM164.28 56.1849H162.912V54.6264H164.28V56.1849ZM164.28 66.2047H162.912V58.0618H164.28V66.2047Z" fill="#FEFEFE"/>
</g>
<defs>
<clipPath id="clip0_1401_2668">
<rect width="154" height="39.9474" fill="white" transform="translate(20.2965 27)"/>
</clipPath>
</defs>
</svg>
