<svg width="240" height="70" viewBox="0 0 240 70" fill="none" xmlns="http://www.w3.org/2000/svg">
<g clip-path="url(#clip0_1775_2551)">
<path fill-rule="evenodd" clip-rule="evenodd" d="M154.096 37.6089C154.096 41.8 154.093 45.9922 154.102 50.1824C154.103 50.4306 154.033 50.5509 153.806 50.6636C152.166 51.4698 150.44 52.0174 148.649 52.3452C146.714 52.6986 144.753 52.8331 142.786 52.7336C140.771 52.6332 138.823 52.2391 137.045 51.2235C134.994 50.0488 133.756 48.2924 133.25 45.9997C133.07 45.185 133.025 44.3579 133.025 43.529C133.019 37.354 133.024 31.18 133.016 25.006C133.015 24.7332 133.077 24.6527 133.367 24.646C134.731 24.6195 135.928 25.006 136.877 26.0131C137.574 26.7549 137.933 27.6653 138.126 28.6506C138.263 29.3573 138.253 30.0697 138.253 30.7831C138.252 35.2405 138.248 39.6988 138.26 44.1552C138.262 44.9339 138.429 45.688 138.758 46.4033C139.32 47.6207 140.283 48.3691 141.531 48.7784C142.928 49.2369 144.364 49.2151 145.804 49.055C146.794 48.9451 147.739 48.6808 148.642 48.2611C148.8 48.1882 148.856 48.1038 148.856 47.9257C148.848 40.3231 148.846 32.7195 148.845 25.1159C148.845 24.6565 148.848 24.6565 149.308 24.6565C150.792 24.6565 152.28 24.6631 153.766 24.6498C154.021 24.6479 154.103 24.6944 154.103 24.9729C154.092 29.1849 154.096 33.3969 154.096 37.6089ZM127.407 51.2595C125.771 52.1766 124.004 52.6673 122.144 52.8852C120.389 53.0898 118.651 53.0074 116.922 52.6834C115.709 52.4551 114.553 52.0752 113.575 51.2898C112.554 50.4704 111.993 49.4235 112.065 48.0858C112.066 48.0546 112.079 48.0243 112.096 47.9579C112.548 48.1825 112.976 48.4155 113.421 48.6135C114.613 49.1422 115.867 49.4425 117.157 49.6196C118.207 49.7646 119.26 49.828 120.313 49.7352C122.161 49.5694 123.838 48.9934 125.04 47.4786C126.055 46.1987 126.184 44.3598 125.369 42.9549C125.007 42.3325 124.452 41.8957 123.835 41.5405C122.91 41.0062 121.915 40.6424 120.898 40.3335C118.977 39.748 117.057 39.1626 115.361 38.0362C114.062 37.174 112.989 36.1064 112.487 34.6029C111.57 31.8659 112.072 29.1015 114.448 27.023C115.947 25.7128 117.729 25.0146 119.665 24.6574C120.611 24.4831 121.568 24.394 122.525 24.4158C123.813 24.4433 125.101 24.5314 126.329 24.9767C127.559 25.4257 128.564 26.1164 128.961 27.4512C129.087 27.8766 129.099 28.3095 129.067 28.7453C129.058 28.8713 129.055 29.0191 128.843 28.8959C127.586 28.1665 126.217 27.7477 124.783 27.5725C122.925 27.3423 121.098 27.4209 119.428 28.4137C117.936 29.3024 117.201 30.8788 117.543 32.5679C117.711 33.4054 118.275 34.0155 118.952 34.5167C120.151 35.4015 121.533 35.8904 122.923 36.365C124.277 36.8292 125.685 37.1513 126.973 37.7832C129.247 38.8964 130.903 40.576 131.474 43.1216C131.854 44.8212 131.711 46.4829 130.801 48.0138C129.975 49.4065 128.818 50.4704 127.407 51.2595ZM109.539 52.3291C109.07 52.33 108.601 52.3509 108.133 52.2685C107.052 52.0762 106.434 51.3751 106.054 50.405C106.001 50.2686 105.953 50.1284 105.892 49.9578C105.441 50.2771 105.023 50.603 104.568 50.8777C103.019 51.8147 101.345 52.384 99.5512 52.6247C98.1784 52.8075 96.8028 52.8047 95.4301 52.6787C93.5174 52.5034 91.7107 51.9871 90.1334 50.8484C88.5134 49.6765 87.5309 48.0802 87.0904 46.1437C86.6111 44.0368 86.7285 41.9895 87.7621 40.0512C88.6612 38.3639 90.0254 37.1428 91.6975 36.2447C92.9546 35.5702 94.298 35.1382 95.7143 34.9923C97.6157 34.7962 99.4687 34.9667 101.117 36.0476C102.329 36.8406 103.164 37.9196 103.429 39.3805C103.452 39.515 103.499 39.6467 103.53 39.7803C103.559 39.9138 103.583 40.0493 103.619 40.2359C103.341 40.0332 103.182 39.785 103.004 39.5624C102.131 38.47 100.98 37.9083 99.6052 37.7671C97.4707 37.5464 95.6253 38.183 94.1038 39.6855C93.1488 40.6282 92.6392 41.8 92.5027 43.1377C92.3654 44.4764 92.5312 45.7686 93.1223 46.9859C93.7599 48.2999 94.82 49.109 96.242 49.4396C97.6583 49.7684 99.0623 49.6755 100.427 49.2056C102.129 48.6173 103.132 47.3507 103.667 45.6824C104.086 44.3769 104.225 43.0259 104.252 41.6636C104.29 39.7452 104.328 37.823 104.177 35.9093C104.038 34.151 103.756 32.422 102.985 30.7983C102.245 29.2379 100.997 28.3664 99.3437 28.0604C97.0255 27.6312 94.7707 27.9287 92.5795 28.7804C91.3507 29.2578 90.2234 29.9096 89.1727 30.6997C89.1509 30.7158 89.1206 30.7196 89.0486 30.7471C90.4432 28.0822 92.3976 26.1287 95.3003 25.2306C96.8445 24.754 98.4228 24.5485 100.028 24.6697C102.539 24.8583 104.679 25.8549 106.378 27.7373C107.915 29.4397 108.761 31.4804 109.247 33.6868C109.53 34.9733 109.697 36.2778 109.71 37.5994C109.76 42.4282 109.673 47.2569 109.697 52.0856C109.697 52.1984 109.73 52.3291 109.539 52.3291Z" fill="#344980"/>
<path fill-rule="evenodd" clip-rule="evenodd" d="M110.409 26.0494C110.464 24.4891 110.702 23.0036 111.208 21.574C111.566 20.5613 112.079 19.6291 112.789 18.8011C113.512 17.9551 114.363 17.3175 115.459 17.074C116.383 16.8684 117.238 17.0447 117.88 17.7779C118.547 18.5406 118.471 19.6442 117.791 20.4618C117.193 21.1809 116.395 21.6223 115.629 22.1131C114.214 23.0169 112.841 23.9728 111.712 25.2384C111.323 25.6761 110.956 26.1223 110.663 26.6282C110.618 26.7021 110.576 26.7912 110.471 26.7618C110.353 26.7268 110.411 26.6226 110.41 26.5449C110.407 26.3649 110.409 26.1839 110.409 26.0494Z" fill="#3ECEF4"/>
</g>
<defs>
<clipPath id="clip0_1775_2551">
<rect width="68.2105" height="36" fill="white" transform="translate(85.8948 17)"/>
</clipPath>
</defs>
</svg>
