<svg width="240" height="70" viewBox="0 0 240 70" fill="none" xmlns="http://www.w3.org/2000/svg">
<g clip-path="url(#clip0_1775_2535)">
<path fill-rule="evenodd" clip-rule="evenodd" d="M37.0688 9H202.931V61H37.0688V9Z" fill="#299877"/>
<path fill-rule="evenodd" clip-rule="evenodd" d="M175.635 45.0953H171.415L165.155 37.2003V45.0953H161.666V23.2078H165.155V35.3489L170.987 29.2218H175.068L168.534 36.0858L175.635 45.0953ZM147.817 50.4118C147.215 50.4235 146.615 50.3276 146.042 50.1312V46.9099C146.372 46.9969 146.713 47.0372 147.052 47.03C147.926 47.03 148.981 46.6553 149.64 44.8738L149.793 44.4507L143.868 29.2272H147.605L151.705 40.3902L155.671 29.2272H159.375L153.298 45.2845C152.09 48.4744 150.681 50.4118 147.817 50.4118ZM141.76 45.3777C138.897 45.3777 137.566 43.5936 137.566 40.5623V23.2078H141.071V40.0934C141.071 41.3585 141.698 42.0004 142.648 42.0004C142.939 41.9977 143.229 41.9502 143.506 41.8596V45.0953C142.944 45.2934 142.354 45.3894 141.76 45.3777ZM130.796 42.922C130.076 44.0329 128.452 45.3777 125.928 45.3777C122.224 45.3777 118.642 42.4047 118.642 37.1536C118.642 31.8909 122.224 28.9511 125.928 28.9511C128.452 28.9511 130.076 30.295 130.796 31.3897V29.2272H134.299V45.0953H130.796V42.922ZM126.555 32.3069C124.387 32.3069 122.27 34.0103 122.27 37.1536C122.27 40.296 124.382 42.0004 126.555 42.0004C128.729 42.0004 130.841 40.296 130.841 37.1536C130.841 34.0103 128.724 32.3069 126.555 32.3069ZM112.489 35.5434H102.342V45.1007H98.73V23.2078H102.342V32.1661H112.489V23.2078H116.102V45.0953H112.489V35.5434ZM89.344 38.6724V42.5338C89.344 44.0974 88.3631 45.0971 86.8336 45.0971H83.1013L80.2251 48.0369C79.7652 48.5076 79.2452 48.7577 78.6338 48.7577C78.0519 48.7577 77.5167 48.4905 77.0729 48.0369L74.2057 45.1025H69.2657C68.2876 45.1025 67.7371 44.5089 67.7371 43.5711C67.7227 42.073 67.9549 40.5847 68.4274 39.1655L65.1344 35.7774C64.6458 35.2771 64.3696 34.7446 64.3696 34.1206C64.3696 33.5289 64.6458 32.9972 65.1344 32.4969L67.9496 29.636V25.8069C67.9496 24.2101 68.9304 23.2105 70.4922 23.2105H74.2416L77.0576 20.3191C77.5337 19.8349 78.0474 19.583 78.6347 19.583C79.2461 19.583 79.7661 19.8663 80.2108 20.3191L83.0699 23.2105H88.0341C89.0114 23.2105 89.5627 23.8049 89.5627 24.7122C89.5627 26.4676 89.3807 27.9694 89.0033 29.2308L92.2255 32.4969C92.715 32.9972 92.9911 33.5289 92.9947 34.1305C92.9947 34.7545 92.715 35.322 92.2443 35.8016L89.344 38.6724ZM81.3925 23.5108L81.379 23.4965L79.2766 21.3662C79.048 21.1322 78.8498 21.022 78.6499 21.022C78.4204 21.022 78.2823 21.1 78.0223 21.3662L66.134 33.4814C65.9036 33.7162 65.8122 33.9045 65.8122 34.1233C65.8122 34.3411 65.8982 34.5545 66.134 34.7948L69.0254 37.7758C69.436 36.9815 69.9794 36.2651 70.6285 35.6609C73.0617 33.3406 75.8482 33.3782 78.4186 33.1389L78.9404 33.0914C82.2298 32.7937 83.7764 30.9809 83.7764 28.2769C83.7764 26.2614 82.7624 24.9274 81.3925 23.5108ZM91.2303 33.4769L88.4411 30.65C87.2191 33.0698 84.9607 34.3223 81.4821 34.6505L81.145 34.6809C76.0481 35.1023 73.8892 36.9788 73.8892 40.2467C73.8892 42.1277 74.6091 43.5021 76.1656 45.0971L78.0071 46.9888C78.2375 47.2237 78.4213 47.3178 78.6347 47.3178C78.8498 47.3178 79.0632 47.2291 79.2927 46.9888L91.2339 34.7787C91.4598 34.5447 91.5522 34.3385 91.5522 34.1188C91.5522 33.8983 91.4912 33.7422 91.2303 33.4769Z" fill="white"/>
</g>
<defs>
<clipPath id="clip0_1775_2535">
<rect width="165.862" height="52" fill="white" transform="translate(37.0688 9)"/>
</clipPath>
</defs>
</svg>
