<svg width="195" height="80" viewBox="0 0 195 80" fill="none" xmlns="http://www.w3.org/2000/svg">
<rect width="194.593" height="80" rx="8" fill="white"/>
<path d="M44.3125 17.04C44.2645 14.772 46.1965 12.912 48.4885 12.948C49.8685 12.948 51.0085 13.548 51.7645 14.604L50.8405 15.36C50.2525 14.532 49.4605 14.112 48.4765 14.112C46.8085 14.112 45.6325 15.36 45.6325 17.028C45.6325 18.72 46.8445 19.992 48.5485 19.992C49.5925 19.992 50.4205 19.548 50.9125 18.792V17.94H48.4765V16.812H52.1845V19.044C51.4765 20.304 50.0845 21.132 48.4885 21.132C46.1725 21.168 44.2765 19.308 44.3125 17.04ZM53.7456 21V13.08H58.9536V14.22H55.0176V16.248H57.9816V17.352H55.0176V19.86H59.0976V21H53.7456ZM65.8337 13.08H67.1057V21.132H66.6737L61.8497 15.636V21H60.5777V12.948H61.0217L65.8337 18.42V13.08ZM69.1089 21V13.08H74.3169V14.22H70.3809V16.248H73.3449V17.352H70.3809V19.86H74.4609V21H69.1089ZM82.3729 21H80.9209L78.6649 17.94H77.2129V21H75.9409V13.08H78.8329C80.4289 13.08 81.5209 14.076 81.5209 15.504C81.5209 16.548 80.9449 17.364 79.9969 17.736L82.3729 21ZM77.2129 14.208V16.812H78.8089C79.6849 16.812 80.2129 16.284 80.2129 15.516C80.2129 14.736 79.6849 14.208 78.8089 14.208H77.2129ZM88.8273 21L88.2633 19.68H84.6993L84.1353 21H82.7793L86.2713 12.948H86.7033L90.1953 21H88.8273ZM87.8073 18.588L86.4873 15.312L85.1553 18.588H87.8073ZM91.4566 21V13.08H92.7286V19.86H96.3526V21H91.4566ZM100.398 21V13.08H103.29C104.886 13.08 105.978 14.076 105.978 15.504C105.978 16.92 104.886 17.94 103.29 17.94H101.67V21H100.398ZM101.67 16.812H103.266C104.166 16.812 104.67 16.296 104.67 15.516C104.67 14.736 104.166 14.208 103.266 14.208H101.67V16.812ZM111.749 21L111.185 19.68H107.621L107.057 21H105.701L109.193 12.948H109.625L113.117 21H111.749ZM110.729 18.588L109.409 15.312L108.077 18.588H110.729ZM120.81 21H119.358L117.102 17.94H115.65V21H114.378V13.08H117.27C118.866 13.08 119.958 14.076 119.958 15.504C119.958 16.548 119.382 17.364 118.434 17.736L120.81 21ZM115.65 14.208V16.812H117.246C118.122 16.812 118.65 16.284 118.65 15.516C118.65 14.736 118.122 14.208 117.246 14.208H115.65ZM123.504 21V14.22H120.84V13.08H127.452V14.22H124.776V21H123.504ZM133.896 13.08H135.168V21.132H134.736L129.912 15.636V21H128.64V12.948H129.084L133.896 18.42V13.08ZM137.171 21V13.08H142.379V14.22H138.443V16.248H141.407V17.352H138.443V19.86H142.523V21H137.171ZM150.435 21H148.983L146.727 17.94H145.275V21H144.003V13.08H146.895C148.491 13.08 149.583 14.076 149.583 15.504C149.583 16.548 149.007 17.364 148.059 17.736L150.435 21ZM145.275 14.208V16.812H146.871C147.747 16.812 148.275 16.284 148.275 15.516C148.275 14.736 147.747 14.208 146.871 14.208H145.275Z" fill="#625747"/>
<path d="M39.8619 65.7086C39.1389 65.7086 38.4064 65.4327 37.8546 64.881L34.0016 61.028H28.5503C26.9806 61.028 25.7153 59.7531 25.7153 58.1929V52.7416L21.8528 48.8791C20.7492 47.7756 20.7492 45.968 21.8528 44.8644L25.7058 41.0114V35.5601C25.7058 33.9904 26.9806 32.7251 28.5408 32.7251H33.9921L37.8451 28.8721C38.9486 27.7685 40.7562 27.7685 41.8598 28.8721L45.7128 32.7251H51.164C52.7338 32.7251 53.9991 33.9999 53.9991 35.5601V41.0114L57.8521 44.8644C58.9557 45.968 58.9557 47.7756 57.8521 48.8791L53.9991 52.7321V58.1834C53.9991 59.7531 52.7243 61.0184 51.164 61.0184H45.7318L41.8788 64.8714C41.3175 65.4327 40.5945 65.7086 39.8619 65.7086Z" fill="#F8AE00"/>
<path d="M58.9557 44.9878L54.6936 40.7257V34.6941C54.6936 33.229 53.5044 32.0398 52.0393 32.0398H46.0077L41.7456 27.7777C40.7086 26.7408 39.0247 26.7408 37.9878 27.7777L33.7257 32.0398H27.6941C26.229 32.0398 25.0398 33.229 25.0398 34.6941V40.7257L20.7777 44.9878C19.7408 46.0247 19.7408 47.7086 20.7777 48.7456L25.0398 53.0077V59.0393C25.0398 60.5044 26.229 61.6936 27.6941 61.6936H33.7257L37.9878 65.9557C39.0247 66.9926 40.7086 66.9926 41.7456 65.9557L46.0077 61.6936H52.0393C53.5044 61.6936 54.6936 60.5044 54.6936 59.0393V53.0077L58.9557 48.7456C59.9926 47.7086 59.9926 46.0247 58.9557 44.9878ZM57.1861 48.1843L53.0477 52.3227V58.1831C53.0477 59.2105 52.2105 60.0477 51.1831 60.0477H45.3227L41.1843 64.1861C40.4518 64.9187 39.2721 64.9187 38.5491 64.1861L34.4107 60.0477H28.5503C27.5229 60.0477 26.6857 59.2105 26.6857 58.1831V52.3227L22.5473 48.1843C21.8147 47.4518 21.8147 46.2721 22.5473 45.5491L26.6857 41.4107V35.5503C26.6857 34.5229 27.5229 33.6857 28.5503 33.6857H34.4107L38.5491 29.5473C39.2816 28.8147 40.4613 28.8147 41.1843 29.5473L45.3227 33.6857H51.1831C52.2105 33.6857 53.0477 34.5229 53.0477 35.5503V41.4107L57.1861 45.5491C57.9187 46.2816 57.9187 47.4613 57.1861 48.1843Z" stroke="#008669" stroke-miterlimit="10"/>
<path d="M38.5015 31.7629L24.7639 45.5005C24.0124 46.2521 24.0124 47.4793 24.7639 48.2404L28.1413 51.6177C29.2353 50.2858 30.9192 48.7351 33.3642 47.584C38.5967 45.1295 41.7647 47.3556 45.0088 43.5312C47.0352 41.1433 46.569 38.5651 46.0172 37.0715C45.7984 36.5007 45.4559 35.9869 45.0278 35.5493L41.2414 31.7629C40.4803 31.0113 39.2531 31.0113 38.5015 31.7629Z" fill="#008669"/>
<path d="M41.2319 61.9686L54.9695 48.231C55.721 47.4794 55.721 46.2522 54.9695 45.4911L51.5921 42.1138C50.4981 43.4457 48.8142 44.9964 46.3692 46.1475C41.1367 48.602 37.9687 46.3758 34.7246 50.2003C32.6982 52.5882 33.1644 55.1664 33.7162 56.66C33.935 57.2308 34.2775 57.7446 34.7056 58.1822L38.492 61.9686C39.2531 62.7201 40.4803 62.7201 41.2319 61.9686Z" fill="#008669"/>
<path d="M58.9557 44.9878L54.6936 40.7257V34.6941C54.6936 33.229 53.5044 32.0398 52.0393 32.0398H46.0077L41.7456 27.7777C40.7086 26.7408 39.0247 26.7408 37.9878 27.7777L33.7257 32.0398H27.6941C26.229 32.0398 25.0398 33.229 25.0398 34.6941V40.7257L20.7777 44.9878C19.7408 46.0247 19.7408 47.7086 20.7777 48.7456L25.0398 53.0077V59.0393C25.0398 60.5044 26.229 61.6936 27.6941 61.6936H33.7257L37.9878 65.9557C39.0247 66.9926 40.7086 66.9926 41.7456 65.9557L46.0077 61.6936H52.0393C53.5044 61.6936 54.6936 60.5044 54.6936 59.0393V53.0077L58.9557 48.7456C59.9926 47.7086 59.9926 46.0247 58.9557 44.9878ZM57.1861 48.1843L53.0477 52.3227V58.1831C53.0477 59.2105 52.2105 60.0477 51.1831 60.0477H45.3227L41.1843 64.1861C40.4518 64.9187 39.2721 64.9187 38.5491 64.1861L34.4107 60.0477H28.5503C27.5229 60.0477 26.6857 59.2105 26.6857 58.1831V52.3227L22.5473 48.1843C21.8147 47.4518 21.8147 46.2721 22.5473 45.5491L26.6857 41.4107V35.5503C26.6857 34.5229 27.5229 33.6857 28.5503 33.6857H34.4107L38.5491 29.5473C39.2816 28.8147 40.4613 28.8147 41.1843 29.5473L45.3227 33.6857H51.1831C52.2105 33.6857 53.0477 34.5229 53.0477 35.5503V41.4107L57.1861 45.5491C57.9187 46.2816 57.9187 47.4613 57.1861 48.1843Z" fill="#008669"/>
<path d="M155.157 61.7686H160.009V51.0183L168.714 61.7686H174.593L164.718 49.5057L173.803 40.1633H168.124L160.018 48.5067V31.9722H155.166V61.7686H155.157ZM130.412 40.1633L138.651 60.8934L138.441 61.4642C137.528 63.8902 136.054 64.4039 134.845 64.4039C134.398 64.4039 133.865 64.3659 133.437 64.2327V68.6184C133.865 68.7896 134.779 68.999 135.911 68.999C139.888 68.999 141.847 66.3637 143.531 62.016L151.979 40.1538H146.832L141.324 55.347L135.616 40.1538H130.412V40.1633ZM121.65 55.5943C121.65 59.7232 123.505 62.1492 127.482 62.1492C128.614 62.1492 129.48 61.9399 129.908 61.7686V57.3639C129.546 57.4685 129.185 57.5541 128.719 57.5541C127.396 57.5541 126.53 56.6789 126.53 54.9569V31.9722H121.66V55.5943H121.65ZM100.378 50.9612C100.378 46.6801 103.317 44.3588 106.333 44.3588C109.359 44.3588 112.289 46.6801 112.289 50.9612C112.289 55.2423 109.349 57.5637 106.333 57.5637C103.308 57.5541 100.378 55.2328 100.378 50.9612ZM95.326 50.9612C95.326 58.1154 100.311 62.1587 105.458 62.1587C108.968 62.1587 111.223 60.3321 112.232 58.8194V61.7782H117.103V40.1633H112.232V43.103C111.233 41.6094 108.978 39.7828 105.458 39.7828C100.311 39.7828 95.326 43.788 95.326 50.9612ZM67.6415 61.7686H72.6647V48.7636H86.7733V61.7686H91.7965V31.9722H86.7733V44.1686H72.6647V31.9722H67.6415V61.7686Z" fill="#008669"/>
</svg>
