<svg width="100" height="100" viewBox="0 0 100 100" fill="none" xmlns="http://www.w3.org/2000/svg">
<path d="M98.7848 51.0017C98.7848 77.9418 76.9417 99.7785 50.0016 99.7785C36.5315 99.7785 24.3349 94.3185 15.5082 85.4918C35.3034 95.2452 59.1101 91.3082 74.7091 75.7092C90.3146 60.1038 94.2451 36.3003 84.4949 16.5083C93.3216 25.335 98.7816 37.5284 98.7816 51.0017H98.7848Z" fill="#D1C9B6"/>
<path d="M50 100C22.4298 100 0 77.5696 0 50C0 22.4294 22.4298 0 50 0C77.5703 0 100 22.4298 100 50C100 77.5696 77.5703 100 50 100ZM50 2.43925C23.7751 2.43925 2.43893 23.7745 2.43893 50.0003C2.43893 76.2252 23.7751 97.5614 50 97.5614C76.2249 97.5614 97.5611 76.2252 97.5611 50.0003C97.5611 23.7748 76.2249 2.43925 50 2.43925Z" fill="#A83600"/>
<path d="M73.6122 35.6436H68.8367L64.5918 57.3418H37.7959L31.4286 64.5745H65.3878L70.7551 74.2182L76 38.0545L73.6122 35.6436ZM61.2366 53.52L66.0612 29.4109L63.6735 27H33.6327L31.2449 29.4109L26 63.1636L35.551 53.52L61.2366 53.52Z" fill="#A83600"/>
</svg>
