<svg width="100" height="100" viewBox="0 0 100 100" fill="none" xmlns="http://www.w3.org/2000/svg">
<g clip-path="url(#clip0_1922_5424)">
<path d="M97.3531 50.231C97.3531 76.2538 76.2538 97.3469 50.2309 97.3469C37.2195 97.3469 25.4382 92.0729 16.912 83.5468C36.0332 92.9681 59.0294 89.1651 74.0972 74.0973C89.1713 59.0232 92.968 36.0302 83.5498 16.9121C92.076 25.4382 97.35 37.2164 97.35 50.231H97.3531Z" fill="#D1C9B6"/>
<path fill-rule="evenodd" clip-rule="evenodd" d="M27.5402 15.2331L29.0944 13.6963L36.3825 14.328L38.3975 16.1305L39.7807 21.6036L37.7928 26.102L35.5228 27.2119L31.8097 25.7629L28.085 22.8593L27.5402 15.2331ZM26.3791 22.8342L31.0785 31.2631L31.0205 35.8223L32.0812 39.7972L40.824 38.5927L43.6107 35.492L48.427 36.8211L47.5383 40.683L42.0913 42.1387L32.3352 47.0129L29.3572 46.2517L25.6769 39.2032C23.3113 34.6748 21.3011 32.6125 17.6363 31.1896L17.4518 31.5258C19.0485 32.1286 20.9312 33.5533 22.1232 35.1375H7.86864L4.75345 33.648C6.02368 29.9745 7.72375 26.5048 9.79475 23.294C15.6223 22.0247 21.7078 21.7204 26.3791 22.8342ZM8.8626 60.058L4.9621 65.8335C3.50448 61.7967 2.58103 57.5079 2.24971 53.053L13.6924 57.1602L8.8626 60.058ZM17.8701 57.3891L7.71216 52.1218L2.12027 50.1851C2.11641 49.9329 2.10095 49.6847 2.10095 49.4326C2.10095 44.456 2.85536 39.6552 4.25309 35.1375H7.86864L7.63295 37.7282L18.1753 47.6407L25.7658 54.7772L24.3178 61.9899L8.31781 73.1273C7.31322 71.3481 6.41875 69.4992 5.64309 67.5886L11.5296 60.456L17.8701 57.3891ZM79.9024 50.8718L79.8039 52.23L77.0355 54.1522L73.42 54.611L71.9807 53.8364L71.5518 51.6214L62.3724 47.5374C56.9563 47.0167 54.6177 44.3285 55.349 39.4765L54.5974 39.4562C53.2239 42.2498 54.4777 44.4637 55.7576 46.0489L51.3538 49.9745L43.0601 63.3597L43.1026 71.9866L39.4427 80.0059L53.6895 86.5222L56.0985 92.2338L55.2939 94.4391L55.2707 97.4857C53.8701 97.6258 52.4492 97.6963 51.0157 97.7146L51.3828 93.137L49.0741 90.1281L28.0077 88.1247L27.9073 86.6207L35.2301 81.6084L35.1084 81.3225L26.0005 86.0189L24.6965 81.7088L24.2956 85.1177L29.0374 92.7516C20.6491 88.6067 13.6402 82.101 8.87516 74.0981C14.2343 70.6497 23.5924 64.8868 26.2497 62.9559L27.9063 54.4468L21.2113 48.1527H23.462L26.8302 44.6376L28.6462 48.115L32.5458 49.1109L42.4893 44.1015L48.396 42.584L50.6071 36.2L43.3306 33.2742L40.2164 36.74L33.872 37.4036C39.7547 32.7864 45.2847 30.0344 52.3932 27.2206L53.8469 28.2242L57.2586 28.7216V28.3739L53.4963 27.2718L49.7841 23.6127L49.6837 23.0109L52.4714 23.8929L52.4936 23.0109L58.7819 25.2935L62.354 25.4828L66.637 28.3237L70.6515 33.987L70.7839 34.9433L78.7008 45.6393L80.4067 46.5405L81.3089 48.37L79.9024 50.8718Z" fill="#A83600"/>
<path fill-rule="evenodd" clip-rule="evenodd" d="M49.4325 1.13501C76.1062 1.13501 97.73 22.7588 97.73 49.4325C97.73 76.1063 76.1062 97.73 49.4325 97.73C22.7587 97.73 1.13498 76.1063 1.13498 49.4325C1.13498 22.7588 22.7587 1.13501 49.4325 1.13501Z" stroke="#A83600" stroke-width="2.35"/>
</g>
<defs>
<clipPath id="clip0_1922_5424">
<rect width="100" height="100" fill="white"/>
</clipPath>
</defs>
</svg>
