<svg width="260" height="70" viewBox="0 0 260 70" fill="none" xmlns="http://www.w3.org/2000/svg">
<path d="M91.5622 24.5028C90.3492 24.5028 89.2492 24.3589 88.2618 24.0712C87.2746 23.7836 86.4309 23.3287 85.7313 22.7067C85.0316 22.0848 84.4912 21.2918 84.1103 20.3277C83.7294 19.3637 83.5389 18.2053 83.5389 16.8525V7.84973H89.0899V16.7827C89.0899 17.7934 89.327 18.5279 89.8012 18.9866C90.2755 19.4453 90.8779 19.6748 91.6089 19.6748C92.3552 19.6748 92.9616 19.4609 93.4279 19.0334C93.8944 18.6056 94.1278 17.8944 94.1278 16.8992V7.84986H99.6787V16.7363C99.6787 18.1356 99.4843 19.325 99.0955 20.3046C98.707 21.2841 98.1588 22.085 97.4514 22.7068C96.7438 23.3288 95.8884 23.7837 94.8857 24.0713C93.8828 24.3591 92.7749 24.503 91.5621 24.503L91.5622 24.5028ZM101.405 7.84986H106.862V19.5116H114.536V24.1762H101.405V7.84986ZM117.568 12.4679H112.763V7.84986H127.83V12.4679H123.025V24.1762H117.568V12.4679H117.568ZM133.241 12.4679H128.436V7.84986H143.503V12.4679H138.698V24.1762H133.241V12.4679H133.241ZM149.59 18.392L143.433 7.84986H149.544L152.343 13.2142L155.165 7.84986H161.206L155.048 18.3222V24.1762H149.59V18.392ZM175.526 24.6662L173.73 23.0568C173 23.5233 172.21 23.8847 171.363 24.1413C170.516 24.3979 169.61 24.5261 168.646 24.5261C167.386 24.5261 166.216 24.3083 165.136 23.8731C164.055 23.4377 163.114 22.8392 162.313 22.0773C161.513 21.3153 160.887 20.4173 160.436 19.3834C159.985 18.3494 159.76 17.2416 159.76 16.0598V16.0131C159.76 14.8316 159.989 13.7235 160.448 12.6896C160.906 11.6553 161.536 10.7537 162.337 9.9841C163.137 9.21426 164.082 8.60779 165.171 8.16481C166.259 7.72169 167.433 7.5 168.692 7.5C169.952 7.5 171.122 7.71777 172.203 8.15303C173.283 8.58857 174.224 9.18719 175.025 9.94877C175.826 10.7108 176.451 11.6088 176.902 12.6427C177.353 13.6769 177.579 14.7845 177.579 15.9664V16.013C177.579 16.8992 177.451 17.7351 177.194 18.5202C176.938 19.3055 176.584 20.0324 176.133 20.7011L177.812 22.1239L175.526 24.6662H175.526ZM168.692 19.8613C169.066 19.8613 169.439 19.7992 169.812 19.675L167.969 18.089L170.255 15.5234L172.004 17.1093C172.082 16.7515 172.121 16.4251 172.121 16.1298V16.0831C172.121 15.6011 172.039 15.1346 171.876 14.6838C171.713 14.2329 171.48 13.8326 171.176 13.4826C170.873 13.1327 170.508 12.8528 170.08 12.6428C169.652 12.433 169.174 12.3281 168.646 12.3281C168.133 12.3281 167.666 12.433 167.246 12.6428C166.826 12.8528 166.469 13.1327 166.173 13.4826C165.878 13.8326 165.653 14.2289 165.497 14.672C165.342 15.1152 165.264 15.5778 165.264 16.0598V16.1064C165.264 16.5885 165.342 17.0549 165.497 17.5057C165.653 17.9565 165.878 18.357 166.173 18.7069C166.469 19.0567 166.83 19.3367 167.258 19.5467C167.686 19.7564 168.164 19.8613 168.692 19.8613H168.692Z" fill="#FFCC00"/>
<path d="M91.8338 49.8254C89.9086 49.8254 88.1136 49.5602 86.449 49.0293C84.7846 48.4985 83.3495 47.7022 82.1439 46.6405L85.5179 42.6189C86.5436 43.4105 87.6233 43.9774 88.7569 44.3194C89.8904 44.6613 91.0151 44.8321 92.1309 44.8321C92.7065 44.8321 93.1204 44.7602 93.3725 44.6162C93.6244 44.4722 93.7504 44.2743 93.7504 44.0224V43.9684C93.7504 43.6986 93.5659 43.4736 93.197 43.2937C92.8281 43.1137 92.1398 42.9247 91.1322 42.7268C90.0706 42.5108 89.0583 42.2589 88.0956 41.971C87.1328 41.683 86.2872 41.3142 85.5583 40.8643C84.8296 40.4144 84.2493 39.8521 83.8176 39.1773C83.3857 38.5024 83.1698 37.6613 83.1698 36.6535V36.5998C83.1698 35.6999 83.3452 34.8633 83.696 34.0893C84.0468 33.3157 84.5598 32.6408 85.2346 32.0651C85.9094 31.4892 86.7461 31.0392 87.7448 30.7154C88.7435 30.3914 89.8906 30.2294 91.1862 30.2294C93.0217 30.2294 94.6277 30.4454 96.0043 30.8772C97.381 31.3092 98.6179 31.957 99.7157 32.8206L96.6387 37.0854C95.7388 36.4376 94.7899 35.9654 93.7909 35.6683C92.7923 35.3713 91.852 35.2231 90.9702 35.2231C90.5026 35.2231 90.1561 35.2951 89.931 35.4389C89.7061 35.5829 89.5937 35.7718 89.5937 36.0058V36.0598C89.5937 36.1859 89.6296 36.3027 89.7016 36.4107C89.7736 36.5187 89.904 36.6223 90.0929 36.7211C90.282 36.8203 90.5382 36.9145 90.8623 37.0046C91.1861 37.0945 91.5999 37.1845 92.104 37.2743C93.3096 37.4903 94.4072 37.7513 95.397 38.0572C96.3865 38.3629 97.2369 38.7546 97.9477 39.2313C98.6584 39.7082 99.2072 40.2795 99.5942 40.9451C99.9811 41.611 100.175 42.4209 100.175 43.3745V43.4285C100.175 44.418 99.9766 45.3089 99.5808 46.1006C99.1847 46.8924 98.627 47.5626 97.9072 48.1114C97.1876 48.6604 96.3103 49.0833 95.2755 49.38C94.2408 49.6771 93.0937 49.8253 91.834 49.8253L91.8338 49.8254ZM101.632 30.5804H110.134C111.394 30.5804 112.541 30.7199 113.576 30.9989C114.61 31.2777 115.496 31.6961 116.234 32.2539C116.972 32.8118 117.548 33.5135 117.962 34.3593C118.376 35.2049 118.583 36.1859 118.583 37.3013V37.3553C118.583 38.4889 118.376 39.4921 117.962 40.3648C117.548 41.2376 116.963 41.9709 116.207 42.5647C115.451 43.1584 114.547 43.6038 113.494 43.9008C112.442 44.1976 111.277 44.346 109.999 44.346H107.948V49.4745H101.632V30.5802L101.632 30.5804ZM109.648 39.8386C110.458 39.8386 111.11 39.663 111.605 39.3167C112.1 38.9659 112.348 38.453 112.348 37.7738V37.7198C112.348 37.0406 112.114 36.5276 111.646 36.1768C111.178 35.8304 110.521 35.655 109.675 35.655H107.948V39.8387H109.648V39.8386ZM129.784 49.8794C128.327 49.8794 126.972 49.6276 125.722 49.1238C124.471 48.6198 123.383 47.9271 122.456 47.0453C121.529 46.1636 120.805 45.1245 120.283 43.9278C119.761 42.7311 119.5 41.449 119.5 40.0814V40.0275C119.5 38.6599 119.766 37.3777 120.296 36.1812C120.827 34.9845 121.556 33.9408 122.483 33.0501C123.409 32.1593 124.503 31.4575 125.762 30.9447C127.022 30.4319 128.38 30.1753 129.838 30.1753C131.295 30.1753 132.65 30.4273 133.9 30.9312C135.151 31.4352 136.239 32.1278 137.166 33.0095C138.093 33.8913 138.817 34.9303 139.339 36.1272C139.861 37.3237 140.122 38.6058 140.122 39.9735V40.0275C140.122 41.395 139.856 42.6771 139.326 43.8738C138.795 45.0704 138.066 46.1142 137.139 47.0047C136.213 47.8954 135.119 48.5972 133.86 49.1103C132.6 49.623 131.242 49.8794 129.784 49.8794ZM129.838 44.2922C130.432 44.2922 130.972 44.1754 131.458 43.9414C131.943 43.7074 132.357 43.3969 132.699 43.0101C133.041 42.6233 133.302 42.1778 133.482 41.674C133.662 41.1701 133.752 40.6393 133.752 40.0815V40.0276C133.752 39.4696 133.657 38.9345 133.468 38.4215C133.279 37.9088 133.014 37.4543 132.672 37.0585C132.33 36.6626 131.917 36.3478 131.431 36.1138C130.945 35.8798 130.396 35.7628 129.784 35.7628C129.19 35.7628 128.65 35.8798 128.165 36.1138C127.679 36.3478 127.265 36.6581 126.923 37.0451C126.581 37.4319 126.32 37.8773 126.14 38.3809C125.96 38.8849 125.87 39.4159 125.87 39.9735V40.0275C125.87 40.5852 125.965 41.1207 126.154 41.6334C126.342 42.1463 126.608 42.6008 126.95 42.9965C127.292 43.3924 127.706 43.7074 128.192 43.9414C128.677 44.1754 129.226 44.2922 129.838 44.2922ZM141.849 30.5804H151.08C152.772 30.5804 154.162 30.7739 155.251 31.1607C156.339 31.5475 157.217 32.0739 157.882 32.7396C158.458 33.3155 158.89 33.9634 159.178 34.683C159.466 35.4029 159.61 36.2487 159.61 37.2205V37.2742C159.61 38.6598 159.277 39.8296 158.611 40.7833C157.945 41.737 157.037 42.4928 155.885 43.0505L160.285 49.4745H153.078L149.515 44.0762H148.166V49.4745H141.85V30.5802L141.849 30.5804ZM150.891 39.5687C151.647 39.5687 152.241 39.4067 152.673 39.0827C153.105 38.7589 153.321 38.309 153.321 37.7332V37.6793C153.321 37.0673 153.105 36.6132 152.673 36.3161C152.241 36.019 151.656 35.8708 150.918 35.8708H148.165V39.5687H150.891H150.891ZM165.98 35.9248H160.419V30.5804H177.856V35.9248H172.296V49.4745H165.98V35.9248H165.98Z" fill="#FFCC00"/>
<path d="M90.4032 62.4997L89.5917 61.7725C89.2615 61.9834 88.9048 62.1466 88.522 62.2627C88.1391 62.3786 87.7297 62.4365 87.294 62.4365C86.7247 62.4365 86.1961 62.3381 85.7079 62.1415C85.2193 61.9447 84.7945 61.6741 84.4325 61.3298C84.0705 60.9855 83.7879 60.5796 83.5841 60.1125C83.3803 59.645 83.2785 59.1444 83.2785 58.6105V58.5894C83.2785 58.0554 83.382 57.5545 83.5892 57.0873C83.7966 56.6201 84.0813 56.2126 84.4431 55.8646C84.8049 55.5169 85.2316 55.2427 85.7236 55.0426C86.2154 54.8422 86.746 54.7421 87.3151 54.7421C87.8844 54.7421 88.413 54.8405 88.9012 55.0373C89.3898 55.2341 89.8146 55.5046 90.1765 55.8488C90.5386 56.1931 90.8212 56.599 91.025 57.0662C91.2288 57.5336 91.3306 58.0342 91.3306 58.5683V58.5894C91.3306 58.9897 91.2725 59.3676 91.1568 59.7225C91.0408 60.0772 90.881 60.4057 90.6772 60.7078L91.4362 61.3506L90.4031 62.4994L90.4032 62.4997ZM87.3151 60.3287C87.4837 60.3287 87.6525 60.3004 87.8209 60.2442L86.9882 59.5276L88.0212 58.3681L88.8117 59.0847C88.8468 58.9231 88.8642 58.7757 88.8642 58.6421V58.621C88.8642 58.4031 88.8274 58.1924 88.7537 57.9886C88.6799 57.7847 88.5745 57.6038 88.4375 57.4457C88.3005 57.2875 88.1353 57.1611 87.942 57.0663C87.749 56.9713 87.5329 56.9241 87.294 56.9241C87.062 56.9241 86.8514 56.9713 86.6615 57.0663C86.4719 57.1612 86.3102 57.2876 86.1766 57.4457C86.0431 57.6038 85.9414 57.783 85.8711 57.9833C85.8007 58.1835 85.7657 58.3926 85.7657 58.6105V58.6316C85.7657 58.8495 85.8007 59.0602 85.8711 59.2641C85.9414 59.4679 86.0431 59.6487 86.1766 59.8069C86.3102 59.965 86.4737 60.0914 86.6669 60.1863C86.8599 60.2812 87.0761 60.3287 87.315 60.3287H87.3151ZM94.5771 54.8479H97.0223L100.132 62.2784H97.4546L97.0647 61.2878H94.4822L94.1028 62.2784H91.4678L94.5772 54.8479H94.5771ZM96.4532 59.5381L95.7785 57.7463L95.1041 59.5381H96.4532ZM103.684 62.426C103.136 62.426 102.638 62.361 102.192 62.2311C101.746 62.101 101.365 61.8954 101.049 61.6143C100.732 61.3333 100.488 60.9751 100.316 60.5394C100.144 60.1036 100.058 59.5802 100.058 58.9689V54.9006H102.566V58.9373C102.566 59.3941 102.673 59.726 102.888 59.9333C103.102 60.1405 103.374 60.2442 103.705 60.2442C104.042 60.2442 104.316 60.1476 104.527 59.9543C104.737 59.761 104.843 59.4396 104.843 58.9897V54.9004H107.351V58.9159C107.351 59.5484 107.264 60.0861 107.088 60.5287C106.912 60.9711 106.665 61.3332 106.345 61.6142C106.025 61.8953 105.639 62.1009 105.185 62.2309C104.732 62.3609 104.232 62.4258 103.684 62.4258V62.426ZM110.324 59.6645L107.541 54.9006H110.302L111.567 57.3248L112.843 54.9006H115.572L112.79 59.6329V62.2786H110.324V59.6647L110.324 59.6645ZM115.826 54.9006H118.397L119.978 57.4932L121.559 54.9006H124.131V62.2784H121.675V58.621L119.978 61.2455H119.936L118.239 58.621V62.2784H115.826V54.9006ZM124.974 54.9006H127.799C128.53 54.9006 129.171 54.9867 129.722 55.1587C130.274 55.331 130.732 55.5751 131.098 55.8913C131.463 56.2075 131.737 56.5887 131.92 57.0349C132.102 57.4809 132.194 57.9782 132.194 58.5262V58.5474C132.194 59.0954 132.101 59.5977 131.915 60.0546C131.728 60.5114 131.447 60.9048 131.072 61.2351C130.696 61.5652 130.229 61.8216 129.67 62.0044C129.111 62.1871 128.459 62.2786 127.715 62.2786H124.974V54.9007L124.974 54.9006ZM127.441 57.0506V60.1282H127.851C128.421 60.1282 128.872 60.0071 129.206 59.7646C129.54 59.5222 129.707 59.1339 129.707 58.5998V58.5788C129.707 58.0447 129.54 57.6566 129.206 57.414C128.872 57.1718 128.421 57.0504 127.851 57.0504H127.441V57.0506ZM134.913 54.8479H137.358L140.468 62.2784H137.791L137.401 61.2878H134.818L134.439 62.2784H131.804L134.913 54.8479H134.913ZM136.789 59.5381L136.115 57.7463L135.44 59.5381H136.789ZM143.84 62.4154C143.088 62.4154 142.388 62.3119 141.738 62.1046C141.088 61.8973 140.527 61.5864 140.056 61.1719L141.374 59.6013C141.774 59.9105 142.196 60.1317 142.639 60.2652C143.081 60.3988 143.52 60.4656 143.956 60.4656C144.181 60.4656 144.343 60.4375 144.441 60.3812C144.539 60.325 144.588 60.2477 144.588 60.1493V60.1281C144.588 60.0228 144.516 59.935 144.372 59.8646C144.228 59.7945 143.96 59.7207 143.566 59.6433C143.152 59.5588 142.756 59.4606 142.38 59.3481C142.005 59.2358 141.674 59.0916 141.39 58.9158C141.105 58.7403 140.879 58.5207 140.71 58.2572C140.541 57.9939 140.457 57.6654 140.457 57.2718V57.2505C140.457 56.8993 140.525 56.5726 140.662 56.2705C140.8 55.9683 141 55.7048 141.263 55.4801C141.527 55.255 141.853 55.0795 142.243 54.953C142.633 54.8265 143.081 54.7635 143.587 54.7635C144.304 54.7635 144.931 54.8478 145.469 55.0164C146.006 55.1849 146.489 55.4379 146.918 55.7752L145.716 57.4404C145.365 57.1875 144.994 57.0031 144.604 56.8871C144.214 56.7712 143.847 56.7132 143.503 56.7132C143.32 56.7132 143.185 56.7415 143.097 56.7976C143.009 56.8539 142.965 56.9276 142.965 57.019V57.0401C142.965 57.0892 142.979 57.1351 143.007 57.1771C143.036 57.2193 143.087 57.2597 143.16 57.2982C143.234 57.337 143.334 57.374 143.461 57.4089C143.587 57.444 143.749 57.4791 143.946 57.5142C144.416 57.5987 144.845 57.7004 145.231 57.8198C145.618 57.9393 145.95 58.0922 146.227 58.2783C146.505 58.4644 146.719 58.6878 146.87 58.9476C147.021 59.2075 147.097 59.5236 147.097 59.8962V59.9174C147.097 60.3039 147.02 60.6516 146.865 60.9607C146.711 61.2698 146.493 61.5317 146.212 61.7459C145.931 61.9602 145.588 62.1252 145.184 62.2413C144.78 62.3573 144.332 62.4151 143.84 62.4151L143.84 62.4154ZM149.289 56.9874H147.118V54.9006H153.927V56.9874H151.756V62.2784H149.289V56.9874ZM156.678 59.6645L153.895 54.9006H156.657L157.921 57.3248L159.197 54.9006H161.927L159.144 59.6329V62.2786H156.678V59.6647L156.678 59.6645ZM172.319 59.6645L169.536 54.9006H172.298L173.563 57.3248L174.838 54.9006H177.568L174.785 59.6329V62.2786H172.319V59.6647L172.319 59.6645ZM166.153 62.4365C165.577 62.4365 165.038 62.345 164.535 62.1624C164.033 61.9797 163.594 61.7199 163.218 61.3826C162.842 61.0454 162.547 60.6413 162.333 60.1706C162.118 59.6997 162.011 59.1797 162.011 58.6106V58.5895C162.011 58.0414 162.113 57.5321 162.317 57.0612C162.521 56.5905 162.805 56.183 163.17 55.8385C163.536 55.4943 163.966 55.2255 164.462 55.0323C164.957 54.839 165.496 54.7424 166.079 54.7424C166.719 54.7424 167.293 54.8408 167.803 55.0375C168.312 55.2343 168.767 55.5083 169.168 55.8598L167.787 57.525C167.541 57.3212 167.285 57.163 167.018 57.0506C166.751 56.9383 166.462 56.8821 166.153 56.8821C165.914 56.8821 165.693 56.926 165.489 57.0138C165.285 57.1017 165.11 57.2229 164.962 57.3775C164.815 57.5322 164.701 57.7149 164.62 57.9256C164.539 58.1364 164.498 58.3682 164.498 58.6213V58.6424C164.498 58.9023 164.542 59.1414 164.63 59.3591C164.718 59.577 164.839 59.7631 164.994 59.9178C165.149 60.0725 165.333 60.1917 165.547 60.2762C165.762 60.3605 165.999 60.4027 166.259 60.4027C166.47 60.4027 166.638 60.3886 166.765 60.3605C166.891 60.3323 167.003 60.2901 167.102 60.2341V59.4962H165.837V57.9154H169.41V61.3302C169.01 61.6604 168.535 61.9275 167.987 62.1313C167.439 62.3351 166.828 62.4368 166.153 62.4368V62.4365ZM166.016 54.3947C165.405 54.3947 164.917 54.2612 164.551 53.9943C164.186 53.7273 163.957 53.3196 163.866 52.7715H165.184C165.247 52.9121 165.345 53.0208 165.479 53.0983C165.612 53.1755 165.791 53.2141 166.016 53.2141C166.241 53.2141 166.418 53.1755 166.549 53.0983C166.679 53.0208 166.779 52.9121 166.849 52.7715H168.156C168.072 53.3196 167.847 53.7273 167.481 53.9943C167.116 54.2612 166.628 54.3947 166.016 54.3947H166.016Z" fill="#00A6C8"/>
</svg>
