<svg width="240" height="70" viewBox="0 0 240 70" fill="none" xmlns="http://www.w3.org/2000/svg">
<path fill-rule="evenodd" clip-rule="evenodd" d="M136.563 19.7285C136.581 18.1072 136.374 16.5124 135.894 14.9675C135.534 13.8103 135.318 12.6025 134.636 11.5515C134.234 10.9311 133.954 10.2327 133.599 9.57946C133.394 9.20264 133.179 8.82363 132.915 8.48766C132.411 7.84683 131.905 7.20186 131.335 6.62229C130.515 5.78916 129.696 4.93683 128.769 4.23279C127.77 3.47235 126.681 2.80939 125.568 2.22204C124.599 1.71055 123.56 1.31015 122.519 0.959342C121.646 0.664696 120.731 0.47653 119.823 0.306355C118.995 0.151495 118.151 -0.0104147 117.316 0.000525144C115.97 0.0172996 114.618 0.109437 113.284 0.28642C111.35 0.543142 109.481 1.10691 107.745 1.99182C106.487 2.63265 105.273 3.36149 104.149 4.25248C102.906 5.2395 101.747 6.29823 100.8 7.56434C100.064 8.54941 99.4327 9.61276 98.7508 10.6394C98.5998 10.867 98.3512 11.1266 98.6049 11.3571C98.7456 11.4854 99.0802 11.4679 99.309 11.4225C100.634 11.1589 101.954 10.8694 103.275 10.5849C107.647 9.64437 112.019 8.70184 116.39 7.76077C117.051 7.61879 117.712 7.4773 118.374 7.34214C118.801 7.2551 119.128 7.39124 119.132 7.67033C119.144 8.50541 119.08 9.33708 118.749 10.1143C118.366 11.0104 117.795 11.7273 116.94 12.266C116.406 12.602 115.883 12.8901 115.278 13.026C114.297 13.246 113.31 13.4456 112.326 13.6564C103.89 15.4651 95.4556 17.2765 87.0196 19.0828C85.1077 19.4919 84.0955 19.7239 82.1854 20.1415C81.8177 20.2222 81.4546 20.3226 81.0919 20.4272L80.9514 20.4573C80.991 20.4488 81.0336 20.4405 81.0771 20.4315C83.5673 19.9164 90.7861 18.5628 94.5414 19.9723C95.3859 20.2896 96.0101 20.7537 96.2988 21.4105L96.3008 21.4101C96.4165 21.7258 96.6029 21.8355 96.9275 21.7635C97.5593 21.6233 98.1936 21.4961 98.8264 21.3626C103.44 20.3856 108.054 19.4064 112.668 18.4322C113.181 18.3238 113.382 18.4461 113.416 18.9639C113.443 19.3862 113.372 19.815 113.332 20.24C113.234 21.2603 112.669 22.0886 112.03 22.7933C111.357 23.536 110.437 24.0006 109.422 24.217C105.079 25.1396 100.737 26.0682 96.3945 26.9959L96.3888 26.9935L95.5867 27.1681L89.1672 28.5688L85.5744 29.3524C85.5744 29.3524 86.4407 29.2525 87.7375 29.154C88.113 29.1253 88.5257 29.0976 88.963 29.0714C89.2612 29.0327 89.5596 28.9957 89.8596 28.9751C91.406 28.8657 92.9602 28.8304 94.4998 28.6578C95.5513 28.5402 96.5358 28.5776 97.5168 29.0018C98.16 29.2797 98.6933 29.6998 99.0836 30.2385C99.0841 30.239 99.0845 30.2395 99.0845 30.24C99.712 31.1049 99.6719 31.1346 100.719 30.9095C107.214 29.5138 113.711 28.1249 120.202 26.7144C121.113 26.517 122.004 26.5275 122.886 26.763C124.461 27.1836 125.427 28.3017 126.111 29.7098C126.308 30.116 126.233 30.344 125.81 30.486C125.377 30.6319 124.922 30.7131 124.473 30.8101C117.641 32.2823 110.811 33.7573 103.977 35.2212L104.176 35.1787L95.103 37.1583L93.3609 37.5381C93.3609 37.5381 94.0475 37.4095 95.1201 37.2541C98.4535 36.7728 103.608 35.9712 107.583 38.1128C107.586 38.1154 107.589 38.1181 107.592 38.121L107.597 38.1191C108.205 38.4079 108.811 38.7013 109.435 38.9513C110.348 39.3169 111.304 39.5911 112.259 39.8325C112.863 39.9849 113.507 39.9699 114.122 40.0863C115.78 40.3994 117.442 40.2949 119.09 40.0846C120.185 39.9453 121.295 39.7477 122.331 39.383C123.785 38.8718 125.182 38.1945 126.59 37.558C127.003 37.371 127.391 37.1092 127.754 36.8338C128.39 36.351 129.024 35.8599 129.608 35.3187C130.421 34.5658 131.252 33.8171 131.962 32.9715C133.731 30.8618 135.034 28.4694 135.817 25.8315C136.3 24.2036 136.604 22.5235 136.575 20.8062C136.569 20.4469 136.558 20.0878 136.563 19.7285Z" fill="#FF5826"/>
<path fill-rule="evenodd" clip-rule="evenodd" d="M90.0808 44.6372H93.2692L95.1669 50.9363L97.2668 44.6061H99.8647L101.964 50.9363L103.862 44.6372H106.988L103.349 55.6028H100.72L98.5269 49.3343L96.3489 55.6028H93.7204L90.0808 44.6372Z" fill="black"/>
<path fill-rule="evenodd" clip-rule="evenodd" d="M143.378 55.5479H139.24V44.6603H143.44C147.329 44.6603 149.584 46.9001 149.584 50.042V50.0731C149.584 53.215 147.297 55.5479 143.378 55.5479ZM146.488 50.0889C146.488 48.3463 145.291 47.3355 143.487 47.3355H142.258V52.8728H143.487C145.291 52.8728 146.488 51.8775 146.488 50.12V50.0889ZM130.069 44.6603H133.087V52.9039H138.36V55.5479H130.069V44.6603ZM125.266 61.2112C124.535 61.2112 124.177 61.5224 124.177 61.9106V61.942C124.177 62.4397 124.55 62.658 126.059 62.9998C128.563 63.5446 130.119 64.3534 130.119 66.3909V66.422C130.119 68.646 128.361 69.9685 125.717 69.9685C123.788 69.9685 121.953 69.3619 120.615 68.1641L122.295 66.1573C123.368 67.0132 124.566 67.464 125.826 67.464C126.635 67.464 127.07 67.1839 127.07 66.7174V66.6863C127.07 66.2348 126.712 65.9866 125.234 65.6443C122.917 65.1153 121.128 64.4618 121.128 62.2226V62.1914C121.128 60.1693 122.73 58.7075 125.344 58.7075C127.194 58.7075 128.641 59.2046 129.823 60.1535L128.314 62.2843C127.319 61.5844 126.23 61.2112 125.266 61.2112ZM125.982 55.5479L123.789 52.2509H122.467V55.5479H119.45V44.6603H124.598C126.262 44.6603 127.413 45.0957 128.145 45.8423C128.782 46.4647 129.109 47.3044 129.109 48.3774V48.4086C129.109 50.0731 128.222 51.1773 126.869 51.7532L129.466 55.5479H125.982ZM126.076 48.5646C126.076 47.7087 125.453 47.2733 124.443 47.2733H122.467V49.8864H124.458C125.484 49.8864 126.076 49.3888 126.076 48.5958V48.5646ZM112.594 55.7659C109.234 55.7659 106.745 53.2618 106.745 50.1355V50.1044C106.745 46.9782 109.265 44.4424 112.625 44.4424C115.985 44.4424 118.473 46.9469 118.473 50.0732V50.1044C118.473 53.2307 115.954 55.7659 112.594 55.7659ZM115.393 50.1044C115.393 48.5329 114.258 47.1645 112.594 47.1645C110.945 47.1645 109.841 48.5018 109.841 50.0732V50.1044C109.841 51.6753 110.976 53.0443 112.625 53.0443C114.289 53.0443 115.393 51.7064 115.393 50.1355V50.1044ZM114.644 58.6757C118.004 58.6757 120.492 61.1802 120.492 64.3066V64.3377C120.492 67.4641 117.972 69.9997 114.613 69.9997C111.253 69.9997 108.764 67.4952 108.764 64.3691V64.3377C108.764 61.2116 111.284 58.6757 114.644 58.6757ZM111.86 64.3377C111.86 65.9087 112.995 67.2776 114.644 67.2776C116.308 67.2776 117.412 65.9398 117.412 64.3691V64.3377C117.412 62.7665 116.277 61.3978 114.613 61.3978C112.964 61.3978 111.86 62.7351 111.86 64.3066V64.3377Z" fill="black"/>
<path fill-rule="evenodd" clip-rule="evenodd" d="M169.668 61.5382V69.7817H166.651V61.5382H163.384V58.8941H172.935V61.5382H169.668ZM163.384 69.7821H159.9L157.707 66.4848H156.385V69.7821H153.368V58.894H158.516C160.18 58.894 161.331 59.3294 162.063 60.076C162.7 60.6986 163.027 61.538 163.027 62.6111V62.6422C163.027 64.3068 162.14 65.411 160.787 65.9869L163.384 69.7821ZM159.994 62.7983C159.994 61.9423 159.371 61.5069 158.361 61.5069H156.385V64.1201H158.376C159.403 64.1201 159.994 63.6225 159.994 62.8292V62.7983ZM146.473 69.9999C143.113 69.9999 140.624 67.4954 140.624 64.3693V64.3379C140.624 61.2118 143.144 58.6759 146.504 58.6759C149.864 58.6759 152.352 61.1804 152.352 64.3068V64.3379C152.352 67.4643 149.833 69.9999 146.473 69.9999ZM149.273 64.3379C149.273 62.7667 148.137 61.398 146.473 61.398C144.824 61.398 143.72 62.7354 143.72 64.3068V64.3379C143.72 65.9089 144.856 67.2778 146.504 67.2778C148.168 67.2778 149.273 65.94 149.273 64.3693V64.3379ZM135.21 66.671H133.716V69.7821H130.699V58.894H135.365C138.118 58.894 139.892 60.3096 139.892 62.7205V62.7512C139.892 65.3181 137.916 66.671 135.21 66.671ZM136.874 62.8606C136.874 61.927 136.221 61.4294 135.132 61.4294H133.716V64.3068H135.147C136.221 64.3068 136.874 63.7467 136.874 62.8917V62.8606ZM100.42 63.8092V69.7821H97.4337V58.894H100.249L104.728 64.6491V58.894H107.715V69.7821H105.071L100.42 63.8092ZM93.3525 65.6446H89.4795V69.7821H86.4621V58.894H89.4795V62.969H93.3525V58.894H96.37V69.7821H93.3525V65.6446ZM82.7386 69.7817H79.7209V61.5382H76.4545V58.8941H86.0047V61.5382H82.7386V69.7817ZM67.0652 58.894H75.8219V61.4605H70.0515V63.109H75.2781V65.4893H70.0515V67.2153H75.9V69.7821H67.0652V58.894Z" fill="black"/>
</svg>
