<svg width="307" height="100" viewBox="0 0 307 100" fill="none" xmlns="http://www.w3.org/2000/svg">
<g xmlns="http://www.w3.org/2000/svg" clip-path="url(#clip0_1023_1514)">
<path d="M116.969 99.7776H118.39L114.765 91.4126H114.315L110.69 99.7776H112.098L112.684 98.4059H116.385L116.969 99.7776ZM115.911 97.2719H113.158L114.54 93.8685L115.911 97.2719ZM133.845 99.7776H135.167V92.7329H137.944V91.5492H131.079V92.7329H133.845V99.7776ZM145.404 99.7776H146.824L143.198 91.4126H142.75L139.123 99.7776H140.531L141.117 98.4059H144.819L145.404 99.7776ZM144.345 97.2719H141.59L142.974 93.8685L144.345 97.2719ZM165.792 99.7776H167.213L163.586 91.4126H163.138L159.513 99.7776H160.921L161.506 98.4059H165.206L165.792 99.7776ZM164.734 97.2719H161.979L163.363 93.8685L164.734 97.2719ZM175.089 98.6291L176.534 97.0969C177.107 96.4865 177.543 95.9629 177.831 95.5019C178.13 95.0394 178.279 94.5286 178.279 93.9681C178.279 92.5225 177.12 91.4126 175.549 91.4126C173.867 91.4126 172.783 92.696 172.783 94.0435C172.783 94.2925 172.809 94.5286 172.871 94.7535H174.204C174.167 94.5045 174.141 94.2925 174.141 94.1174C174.141 93.2694 174.702 92.6221 175.538 92.6221C176.371 92.6221 176.908 93.2324 176.908 94.0676C176.908 94.7663 176.509 95.3638 175.599 96.3243L172.671 99.4772V99.7776H178.565V98.6291H175.089ZM181.626 95.5887C181.626 98.0188 182.66 99.9141 184.765 99.9141C186.885 99.9141 187.894 98.0188 187.894 95.5887C187.894 94.3294 187.633 93.3192 187.097 92.5594C186.573 91.7981 185.801 91.4126 184.765 91.4126C183.731 91.4126 182.959 91.7981 182.423 92.5723C181.888 93.332 181.626 94.3423 181.626 95.5887ZM186.523 95.6015C186.523 97.545 185.974 98.7046 184.765 98.7046C183.558 98.7046 182.996 97.545 182.996 95.6015C182.996 93.6195 183.582 92.6221 184.765 92.6221C185.937 92.6221 186.523 93.6195 186.523 95.6015ZM193.284 98.6291L194.729 97.0969C195.304 96.4865 195.739 95.9629 196.027 95.5019C196.325 95.0394 196.475 94.5286 196.475 93.9681C196.475 92.5225 195.315 91.4126 193.745 91.4126C192.064 91.4126 190.979 92.696 190.979 94.0435C190.979 94.2925 191.004 94.5286 191.065 94.7535H192.4C192.363 94.5045 192.337 94.2925 192.337 94.1174C192.337 93.2694 192.899 92.6221 193.732 92.6221C194.569 92.6221 195.103 93.2324 195.103 94.0676C195.103 94.7663 194.705 95.3638 193.795 96.3243L190.868 99.4772V99.7776H196.762V98.6291H193.284ZM205.84 97.2093H204.719V94.678H203.398V97.2093H200.943L203.274 91.5492H201.916L199.286 97.9819V98.3433H203.398V99.7776H204.719V98.3433H205.84V97.2093ZM120.84 95.6642C120.79 98.0188 122.821 99.951 125.164 99.9141C126.697 99.9141 127.993 99.1785 128.691 98.0188L127.694 97.2832C127.108 98.1939 126.261 98.7046 125.177 98.7046C123.494 98.7046 122.211 97.4085 122.211 95.6642C122.211 93.9183 123.494 92.6221 125.177 92.6221C126.261 92.6221 127.108 93.1328 127.694 94.0435L128.691 93.3079C127.98 92.1483 126.672 91.4126 125.164 91.4126C122.821 91.3757 120.79 93.3079 120.84 95.6642ZM149.772 99.7776H151.094V96.0127H155.231V99.7776H156.551V91.5492H155.231V94.8273H151.094V91.5492H149.772V99.7776Z" fill="#FEFEFE"/>
<path d="M280.838 33.9581L273.509 17.1978H272.387L265.031 33.9581H268.646L272.936 23.9565L277.224 33.9581H280.838Z" fill="#FEFEFE"/>
<path d="M248.676 29.2697L243.801 25.7522V25.2784L248.551 22.1849L242.395 19.9572L243.273 17.1978L253.762 20.7875V21.6854L248.525 25.5273L253.762 29.7692V30.6687L243.011 34.2585L242.101 31.3947L248.676 29.2697Z" fill="#FEFEFE"/>
<path d="M306.667 32.9511L300.362 25.2543L305.859 18.4923L302.903 17.1978L296.372 25.129V17.4965H293.007V33.9581H296.372V25.378L303.684 34.2585L306.667 32.9511Z" fill="#FEFEFE"/>
<path d="M284.48 33.9582H287.845V17.4966H284.48V33.9582Z" fill="#FEFEFE"/>
<path d="M258.075 33.9582H261.44V17.4966H258.075V33.9582Z" fill="#FEFEFE"/>
<path d="M213.606 17.4965H210.239V23.8842H207.898L204.106 17.1978L200.782 18.2546L204.825 25.3282L200.355 33.2257L203.598 34.2585L207.879 26.7496H210.239V33.9581H213.606V26.7512H215.967L220.248 34.2585L223.489 33.2257L219.021 25.3282L223.064 18.2546L219.739 17.1978L215.95 23.8794L213.606 23.881V17.4965Z" fill="#FEFEFE"/>
<path d="M185.78 33.9582H197.15V30.9161H189.147V26.7497H194.806V23.8811H189.147V20.5387H196.85V17.4966H185.78V33.9582Z" fill="#FEFEFE"/>
<path d="M147.333 33.9582H150.7V26.8493H157.98V33.9582H161.345V17.4966H157.98V23.8072H150.7V17.4966H147.333V33.9582Z" fill="#FEFEFE"/>
<path d="M119.732 23.1584L123.249 30.9162H116.192L119.732 23.1584ZM126.64 30.9162L120.282 17.1963H119.185L112.827 30.9162H110.706V33.9583H114.073H125.392H128.759V30.9162H126.64Z" fill="#FEFEFE"/>
<path d="M272.486 58.6404L265.155 41.8784H264.033L256.678 58.6404H260.294L264.582 48.6388L268.87 58.6404H272.486Z" fill="#FEFEFE"/>
<path d="M236.832 47.8405L240.346 55.5967H233.29L236.832 47.8405ZM243.737 55.5967L237.379 41.8784H236.283L229.925 55.5967H227.805V58.6404H231.172H242.491H245.857V55.5967H243.737Z" fill="#FEFEFE"/>
<path d="M295.174 49.8851V45.1469H297.992C299.514 45.1469 300.485 46.0945 300.485 47.4919C300.485 48.9134 299.564 49.8851 297.992 49.8851H295.174ZM291.809 58.6403H295.174V52.8292H297.992C301.433 52.8292 303.926 50.6336 303.926 47.4919C303.926 44.3229 301.433 42.1787 297.992 42.1787H291.809V58.6403Z" fill="#FEFEFE"/>
<path d="M276.126 58.6403H287.495V55.5982H279.493V51.4318H285.152V48.5632H279.493V45.2208H287.196V42.1787H276.126V58.6403Z" fill="#FEFEFE"/>
<path d="M249.723 58.6403H253.088V42.1787H249.723V58.6403Z" fill="#FEFEFE"/>
<path d="M209.953 58.6403H213.32V51.5314H220.6V58.6403H223.966V42.1787H220.6V48.4893H213.32V42.1787H209.953V58.6403Z" fill="#FEFEFE"/>
<path d="M194.27 58.6403H205.641V55.5982H197.635V51.4318H203.297V48.5632H197.635V45.2208H205.34V42.1787H194.27V58.6403Z" fill="#FEFEFE"/>
<path d="M175.345 58.6403H178.712V45.2208H185.743V58.6403H189.11V42.1787H175.345V58.6403Z" fill="#FEFEFE"/>
<path d="M149.266 58.6403H170.185V42.1787H166.818V55.5982H161.408V42.1787H158.042V55.5982H152.632V42.1787H149.266V58.6403Z" fill="#FEFEFE"/>
<path d="M141.512 51.6325C141.012 54.2008 138.944 55.8969 136.276 55.8969C133.584 55.8969 131.514 54.2265 131.04 51.6325H141.512ZM131.14 48.7623C131.763 46.443 133.759 44.9219 136.276 44.9219C138.769 44.9219 140.789 46.443 141.412 48.7623H131.14ZM145.028 50.4102C145.102 45.6945 140.988 41.7787 136.25 41.8798C131.514 41.7787 127.45 45.6945 127.524 50.4102C127.45 55.1227 131.514 59.0402 136.25 58.9406C140.988 59.0402 145.102 55.1227 145.028 50.4102Z" fill="#FEFEFE"/>
<path d="M224.702 80.2788H218.742L221.735 73.3209L224.702 80.2788ZM222.282 66.5605H221.16L214.205 82.4247V83.3225H229.213V82.4247L222.282 66.5605Z" fill="#FEFEFE"/>
<path d="M202.486 72.5226L206.002 80.2788H198.946L202.486 72.5226ZM209.393 80.2788L203.035 66.5605H201.937L195.579 80.2788H193.459V83.3225H196.826H208.145H211.512V80.2788H209.393Z" fill="#FEFEFE"/>
<path d="M264.444 83.3225H267.809V66.8608H264.444V83.3225ZM252.826 80.3543V75.4651H255.817C257.413 75.4651 258.386 76.4641 258.386 77.9354C258.386 79.4066 257.413 80.3543 255.817 80.3543H252.826ZM249.459 83.3225H255.817C259.333 83.3225 261.827 81.1525 261.827 77.9097C261.827 74.768 259.333 72.5226 255.817 72.5226H252.826V66.8608H249.459V83.3225Z" fill="#FEFEFE"/>
<path d="M236.62 74.5672V69.829H239.436C240.958 69.829 241.929 70.7767 241.929 72.174C241.929 73.5955 241.008 74.5672 239.436 74.5672H236.62ZM233.253 83.3225H236.62V77.5113H239.436C242.878 77.5113 245.37 75.3157 245.37 72.174C245.37 69.0051 242.878 66.8608 239.436 66.8608H233.253V83.3225Z" fill="#FEFEFE"/>
<path d="M175.607 83.3225H178.974V76.2136H186.255V83.3225H189.62V66.8608H186.255V73.1715H178.974V66.8608H175.607V83.3225Z" fill="#FEFEFE"/>
<path d="M167.08 83.3225H170.447V66.8608H167.08V83.3225ZM155.462 80.3543V75.4651H158.453C160.049 75.4651 161.022 76.4641 161.022 77.9354C161.022 79.4066 160.049 80.3543 158.453 80.3543H155.462ZM152.095 83.3225H158.453C161.97 83.3225 164.463 81.1525 164.463 77.9097C164.463 74.768 161.97 72.5226 158.453 72.5226H155.462V66.8608H152.095V83.3225Z" fill="#FEFEFE"/>
<path d="M125.117 75.0908C125.117 78.2598 122.849 80.5036 119.832 80.5036C116.791 80.5036 114.546 78.2598 114.546 75.0908C114.546 71.9234 116.791 69.6796 119.832 69.6796C122.849 69.6796 125.117 71.9732 125.117 75.0908ZM111.08 75.0908C111.006 79.8065 115.07 83.7208 119.808 83.6212C124.544 83.7208 128.659 79.8065 128.584 75.0908C128.659 70.3767 124.544 66.4609 119.808 66.5605C115.07 66.4609 111.006 70.3767 111.08 75.0908Z" fill="#FEFEFE"/>
<path d="M140.067 17.1978L136.286 24.032L132.481 17.1978L129.31 18.2064L134.59 27.4981V33.9581H137.957V27.474L143.217 18.2L140.067 17.1978Z" fill="#FEFEFE"/>
<path d="M177.203 26.2231L167.653 34.2588H166.557V17.4968H169.922V27.9337L177.203 22.1996V17.1948L180.57 17.1964V33.96H177.203V26.2231Z" fill="#FEFEFE"/>
<path d="M143.519 75.5948L133.969 83.6305H132.872V66.8685H136.238V77.3038L143.519 71.5714V66.5649L146.886 66.5682V83.3301H143.519V75.5948Z" fill="#FEFEFE"/>
<path d="M137.4 65.3813H142.358V62.5625H137.4V65.3813Z" fill="#FEFEFE"/>
<path d="M236.437 17.1978L232.656 24.032L228.85 17.1978L225.678 18.2064L230.96 27.4981V33.9581H234.325V27.474L239.587 18.2L236.437 17.1978Z" fill="#FEFEFE"/>
<path d="M125.689 57.6317L119.384 49.9366L124.881 43.1746L121.926 41.8784L115.394 49.8113V42.1788H112.027V58.6404H115.394V50.0602L122.704 58.9408L125.689 57.6317Z" fill="#FEFEFE"/>
<path fill-rule="evenodd" clip-rule="evenodd" d="M39.3441 0.262468C24.1186 1.27275 15.37 11.0431 9.3588 19.0209C-1.45298 33.372 -3.82598 58.4379 7.18649 76.2037C10.465 81.4912 13.8897 86.4125 18.4237 89.4193C22.4633 92.1 29.6193 95.7637 34.7554 97.5577C42.6965 100.332 47.6978 100.478 56.3003 99.1607C67.316 97.4742 72.9178 93.4829 79.7462 86.4414C81.9554 84.1623 83.3057 82.7585 85.3383 79.6168C91.8071 69.6184 98.2999 58.1038 94.4402 42.3473C90.6848 27.0228 88.8641 16.9393 77.6236 10.2368C64.9061 2.65566 57.437 -0.940553 39.3441 0.262468Z" fill="#fff"/>
<path fill-rule="evenodd" clip-rule="evenodd" d="M19.408 48.7495C19.408 64.4354 32.1207 77.1498 47.8005 77.1498C63.4787 77.1498 76.1899 64.4354 76.1899 48.7495C76.1899 33.0637 63.4787 20.3477 47.8005 20.3477C32.1207 20.3477 19.408 33.0637 19.408 48.7495Z" fill="#fff"/>
<path fill-rule="evenodd" clip-rule="evenodd" d="M38.6264 45.5001C37.7128 43.9983 37.2954 42.3279 37.2616 40.5258C38.8238 39.856 43.1026 43.0443 46.1323 43.8088C48.9356 44.6553 48.8746 47.0983 45.9332 48.4153C43.1572 49.3356 40.7152 48.4009 38.6264 45.5001ZM48.2805 42.5046C44.5348 41.9312 39.7663 39.8095 36.8313 37.3584L36.4027 34.6777L36.4573 34.6488C37.6711 34.0979 41.1856 32.9238 41.8118 33.8795C42.7606 37.5785 45.3199 39.4481 49.1122 39.9123C50.5861 40.7442 50.0482 42.8532 48.2805 42.5046ZM49.4879 37.8917C48.3624 37.8371 47.1342 37.3327 45.8112 36.3498C44.774 35.6945 44.5894 33.8731 45.8112 33.6675C47.5773 33.4763 49.8363 34.1991 50.9955 34.4176C52.6059 34.9155 51.4178 38.4105 49.4879 37.8917ZM51.0292 32.8821C49.809 32.9511 47.4007 32.6652 46.6573 32.2894C45.4355 31.8589 45.5993 30.2351 47.6528 29.485C48.8264 29.1766 50.1221 29.1365 51.4868 29.2521C53.2465 29.1429 53.8341 32.5544 51.0292 32.8821ZM63.7677 70.7571C59.285 74.0192 53.7651 75.937 47.8021 75.937C41.8198 75.937 36.2871 74.0048 31.7979 70.7298L31.92 70.6415C36.8859 67.1738 54.2098 66.936 63.7677 70.7571ZM54.4683 35.2431C55.772 35.3266 57.5317 35.2238 58.9655 35.1885C60.8953 35.0456 59.871 37.6668 57.8801 38.2194C56.5844 38.8458 55.2454 38.8875 53.8951 38.6289C52.2173 38.3141 52.8997 35.0391 54.4683 35.2431ZM58.7455 34.1991C57.8384 34.077 56.0161 34.0562 54.905 33.5165C53.6013 33.1214 54.1809 29.7982 55.9213 29.962C57.3471 29.9749 58.5079 30.7266 59.5435 31.8172C60.6288 33.5791 60.2531 34.2955 58.7455 34.1991ZM39.0904 60.4054C39.4516 58.3848 38.5653 58.4314 38.811 55.839C39.5897 54.3646 43.3194 53.9486 45.5928 53.9486C49.5762 53.7847 53.5066 53.8602 57.0404 55.0681C58.5882 56.0848 60.1584 57.4083 61.9052 62.0694C62.5186 65.0584 61.4268 65.7828 58.4661 65.1693C52.7825 63.2226 39.4179 65.415 39.2268 62.4597C38.9876 62.0356 38.933 61.3675 39.0904 60.4054ZM28.3926 67.4548L28.2288 67.6187C23.5149 62.7247 20.6153 56.0783 20.6153 48.7494C20.6153 33.7285 32.787 21.5537 47.8021 21.5537C57.164 21.5537 65.4246 26.2903 70.3103 33.5036C68.0111 33.7687 63.917 34.4176 63.925 33.6257C63.4064 29.6617 59.5643 28.8425 56.1124 27.662C55.3963 27.3215 55.5938 25.7314 55.9213 25.1708C56.7867 23.396 54.592 23.0957 54.7541 24.8094C54.6722 26.0847 54.372 27.0131 53.6013 27.1577C49.3514 26.6517 45.7422 26.822 43.9407 28.8698C42.9373 29.7436 42.6033 32.1384 41.5131 32.1464C39.5062 32.1593 37.883 32.5753 36.4637 33.2242L36.3754 33.237C36.2871 32.4869 36.0751 31.7899 35.4072 30.9787C35.8568 28.7687 35.1616 28.3848 34.7249 28.4121C34.2801 29.4079 34.7168 30.4118 34.1517 30.7539C33.3312 31.2438 32.5542 31.2936 31.647 31.4686C30.125 31.777 27.6219 32.5672 26.8512 33.8104C26.1898 35.1612 27.6974 35.9402 28.7891 34.8817C30.4605 34.1654 31.9055 35.3058 33.4613 35.264C33.776 36.0077 33.7551 36.8332 33.4757 37.7214C33.434 37.8435 33.2783 38.3414 33.2301 38.4378C32.6906 39.6103 31.7289 40.1435 30.4605 40.219L25.9024 40.4102C24.1009 40.4359 24.2101 41.2759 25.9024 41.0446C27.0214 40.9691 31.7979 40.5194 32.1447 41.7947C32.2812 42.2942 31.6069 42.6074 30.6789 42.5448C28.1068 42.5448 25.4994 42.6684 22.8326 42.9688C21.8628 43.0089 21.9527 44.061 22.8326 43.91C25.965 43.3575 30.4734 43.1053 31.8172 43.6514C31.9826 43.7269 31.9746 43.9919 31.7707 44.1766C31.0738 44.7966 27.9093 44.8994 26.1143 45.0022C25.342 45.0375 25.4929 45.7667 26.1143 45.6913C26.4964 45.6639 31.7771 45.317 31.7771 45.7603C32.3567 52.3312 36.5729 54.1188 36.9341 55.6479C37.3917 57.7295 36.6403 59.2248 37.207 60.513C37.6373 61.6341 37.7738 62.6636 37.5683 63.592C36.3272 65.2576 31.0674 65.5644 28.3926 67.4548ZM47.8021 78.441C31.4078 78.441 18.1187 65.1484 18.1187 48.7494C18.1187 32.3504 31.4078 19.0562 47.8021 19.0562C64.1899 19.0562 77.4807 32.3504 77.4807 48.7494C77.4807 65.1484 64.1899 78.441 47.8021 78.441ZM63.453 53.4378C67.3962 54.1477 70.5222 55.8117 73.4829 57.6813C72.2 61.361 70.153 64.6842 67.5343 67.4468C65.3507 67.3039 64.3954 64.1782 64.1562 62.4115C63.917 60.6704 63.3037 58.4603 62.1846 55.5467C61.5777 53.9967 61.9117 53.2258 63.453 53.4378ZM74.9841 48.7494C74.9841 51.1988 74.6565 53.5663 74.056 55.8262C68.2295 52.8981 63.8704 52.1063 59.8919 51.8605C58.084 51.0414 48.6964 50.8101 51.3632 45.166C51.7533 44.1975 57.7228 44.9556 60.5678 44.2441C64.1498 43.5631 66.4618 42.2123 64.9815 40.6816C63.734 39.8368 61.5424 42.7231 60.0219 42.9816C59.0056 43.282 55.1635 44.2039 52.3458 43.0507C51.5896 42.5175 52.1483 40.6222 53.2545 40.5868C59.6607 40.6752 60.2258 40.1708 64.4356 35.7764C65.2416 35.0456 68.7144 35.3315 71.4502 35.3315C73.7012 39.2907 74.9841 43.8699 74.9841 48.7494Z" fill="#A83600"/>
<path d="M118.128 6.68369C118.128 5.02292 116.794 4.11222 115.322 4.11222C114.946 4.11222 114.598 4.15077 114.274 4.22465V2.29082H117.666V1.10547H112.976V5.24778H114.872C116.083 5.24778 116.769 5.773 116.769 6.70939C116.769 7.65703 116.044 8.26898 115.059 8.26898C114.174 8.26898 113.562 7.80641 113.063 7.04508L112.14 7.70682C112.702 8.7685 113.737 9.47843 115.097 9.47843C116.732 9.47843 118.128 8.34447 118.128 6.68369ZM127.486 9.3419H135.955V3.21437H134.646V8.20634H132.375V3.21437H131.064V8.20634H128.794V3.21437H127.486V9.3419ZM121.097 5.93522H124.165V4.82375H121.097V5.93522ZM139.611 9.3419H140.921V3.21437H139.611V9.3419ZM139.375 0.930397C139.375 1.41707 139.773 1.7913 140.272 1.7913C140.759 1.7913 141.158 1.41707 141.158 0.930397C141.158 0.443727 140.759 0.0566406 140.272 0.0566406C139.773 0.0566406 139.375 0.443727 139.375 0.930397Z" fill="#FEFEFE"/>
</g>
<defs>
<linearGradient id="paint0_linear_1023_1514" x1="70.5468" y1="62.3653" x2="24.7053" y2="36.0869" gradientUnits="userSpaceOnUse">
<stop stop-color="#A83600"/>
<stop offset="0.490196" stop-color="#A83600"/>
<stop offset="1" stop-color="#E85222"/>
</linearGradient>
<clipPath id="clip0_1023_1514">
<rect width="306.667" height="100" fill="white"/>
</clipPath>
</defs>
</svg>
