<svg width="100" height="100" viewBox="0 0 100 100" fill="none" xmlns="http://www.w3.org/2000/svg">
<g clip-path="url(#clip0_1991_3032)">
<path fill-rule="evenodd" clip-rule="evenodd" d="M98.785 50.0021C98.785 76.9421 76.942 98.7781 50.002 98.7781C36.531 98.7781 24.335 93.3181 15.508 84.4921C35.303 94.2451 59.11 90.3081 74.709 74.7091C90.315 59.1041 94.245 35.3001 84.495 15.5081C93.322 24.3351 98.782 36.5281 98.782 50.0021H98.785Z" fill="#D1C9B6"/>
<path fill-rule="evenodd" clip-rule="evenodd" d="M50 100C22.43 100 0 77.57 0 50C0 22.429 22.43 0 50 0C77.57 0 100 22.43 100 50C100 77.57 77.57 100 50 100ZM50 2.439C23.775 2.439 2.439 23.774 2.439 50C2.439 76.225 23.775 97.561 50 97.561C76.225 97.561 97.561 76.225 97.561 50C97.561 23.775 76.225 2.439 50 2.439Z" fill="#A83600"/>
<path fill-rule="evenodd" clip-rule="evenodd" d="M63.038 77.4371H44.785H22.62V53.9681H26.531V47.4491H29.139V53.9681H33.05V22.1731L51.304 28.2561V22.6771H53.911V29.1251L56.519 29.9931V22.6771H59.127V30.8641L63.038 32.1681V37.0191H77.38V77.4371H63.038ZM31.747 59.1841H27.835V61.7911H31.747V59.1841ZM31.747 64.3991H27.835V67.0061H31.747V64.3991ZM31.747 69.6141H27.835V72.2221H31.747V69.6141ZM35.658 72.2221H39.57V69.6141H35.658V72.2221ZM35.658 67.0061H39.57V64.3991H35.658V67.0061ZM35.658 61.7911H39.57V59.1841H35.658V61.7911ZM60.43 34.0471L35.658 25.7911V53.9681H44.785V74.8291H51.304V70.7291C49.067 70.1431 47.392 68.1151 47.392 65.7031C47.392 62.8381 49.743 60.4871 52.608 60.4871C55.472 60.4871 57.823 62.8381 57.823 65.7031C57.823 68.1151 56.148 70.1431 53.911 70.7291V74.8291H60.43V34.0471ZM72.165 42.2341H65.646V46.1461H72.165V42.2341ZM72.165 48.7531H65.646V52.6651H72.165V48.7531ZM72.165 55.2721H65.646V59.1841H72.165V55.2721ZM72.165 61.7911H65.646V65.7031H72.165V61.7911ZM72.165 68.3101H65.646V72.2221H72.165V68.3101ZM47.392 53.9681H57.823V56.5761H47.392V53.9681ZM38.266 48.7531H57.823V51.3611H38.266V48.7531ZM51.304 43.5381H57.823V46.1461H51.304V43.5381ZM38.266 38.3231H57.823V40.9301H38.266V38.3231ZM38.266 33.1071H46.089V35.7151H38.266V33.1071ZM48.696 46.1461H38.266V43.5381H48.696V46.1461Z" fill="#A83600"/>
</g>
<defs>
<clipPath id="clip0_1991_3032">
<rect width="100" height="100" fill="white"/>
</clipPath>
</defs>
</svg>
