<svg xmlns="http://www.w3.org/2000/svg" width="18" height="18" viewBox="0 0 18 18">
    <defs>
        <style>
            .cls-1 {
            fill: #fff;
            fill-rule: evenodd;
            }
        </style>
    </defs>
    <path id="Layer" class="cls-1" d="M53.789,178.38a5.46,5.46,0,0,1-4.661,5.026,17.493,17.493,0,0,1-5.641.385c-0.344.377-.75,0.871-1.095,1.2-0.574.594-.918,1.147-1.554,0.98a0.932,0.932,0,0,1-.459-0.871v-1.8c-4.484-1.2-4.423-5.57-4.37-7.915s0.521-4.205,1.9-5.512c2.472-2.135,7.477-1.859,7.477-1.859,4.264,0,6.162,1.315,6.621,1.751C53.56,171.068,54.425,173.908,53.789,178.38Zm-11.176-3.719,0.459-.326a0.78,0.78,0,0,0,.115-0.93,6.6,6.6,0,0,0-.574-0.821c-0.177-.218-0.636-0.762-0.636-0.762a0.8,0.8,0,0,0-.918-0.109,3.873,3.873,0,0,0-.8.821,1.744,1.744,0,0,0-.344.712v0.109a0.615,0.615,0,0,0,.062.326,10.686,10.686,0,0,0,.98,1.969,11.833,11.833,0,0,0,1.148,1.641c0.23,0.268.459,0.545,0.689,0.763h0.062a8.279,8.279,0,0,0,.75.653,9.159,9.159,0,0,0,1.73,1.089,11.523,11.523,0,0,0,2.075.929,0.71,0.71,0,0,0,.344.059h0.115a1.283,1.283,0,0,0,.75-0.327,3.533,3.533,0,0,0,.75-0.871,0.535,0.535,0,0,0-.115-0.821l-0.8-.6a8.23,8.23,0,0,0-.865-0.544,0.743,0.743,0,0,0-.98.109l-0.344.435a0.836,0.836,0,0,1-.521.168,4.94,4.94,0,0,1-3.3-3.174A0.551,0.551,0,0,1,42.614,174.661Zm4.793-.913a2.544,2.544,0,0,1,.688,1.91,0.2,0.2,0,0,0,.23.218,0.361,0.361,0,0,0,.291-0.168,3.014,3.014,0,0,0-.865-2.236,3.576,3.576,0,0,0-2.419-.98,0.218,0.218,0,1,0,0,.436A2.819,2.819,0,0,1,47.407,173.748Zm-1.969.1a0.241,0.241,0,0,0,.23.218h0.176a1.422,1.422,0,0,1,.75.385,0.987,0.987,0,0,1,.291.762,0.223,0.223,0,0,0,.23.277,0.279,0.279,0,0,0,.282-0.227,1.6,1.6,0,0,0-.406-1.088,1.767,1.767,0,0,0-1.095-.545H45.668A0.241,0.241,0,0,0,45.438,173.849Zm2.949-1.248a4.83,4.83,0,0,0-3.513-1.307,0.218,0.218,0,1,0,0,.436,4.838,4.838,0,0,1,3.169,1.2,4.053,4.053,0,0,1,1.324,3.224,0.235,0.235,0,0,0,.459.05A4.756,4.756,0,0,0,48.387,172.6Z" transform="translate(-36 -168)"/>
</svg>