<svg xmlns="http://www.w3.org/2000/svg" clip-rule="evenodd" fill-rule="evenodd" image-rendering="optimizeQuality" text-rendering="geometricPrecision" shape-rendering="geometricPrecision" viewBox="0 0 669.1 556.94" height="25.212" width="30.289">
    <path d="M45.15 239.47c205.82-90.66 472.3-201 509-216.31 96.52-40.03 126.09-32.34 111.36 56.26-10.57 63.62-41.18 274.42-65.57 405.7-14.52 77.76-46.95 86.98-97.94 53.38-24.62-16.23-148.42-98.14-175.34-117.35-24.5-17.62-58.32-38.67-15.87-80.2C325.87 326.22 424.81 231.64 502 158.01c10.14-9.54-2.62-25.42-14.25-17.71-104.01 68.9-248.18 164.62-266.47 177.05-27.72 18.88-54.31 27.51-102.18 13.69-35.99-10.34-71.31-22.64-85-27.39-52.93-18.18-40.39-41.65 11.05-64.18z" fill="#ffffff" fill-rule="nonzero"/>
</svg>
