<svg width="240" height="70" viewBox="0 0 240 70" fill="none" xmlns="http://www.w3.org/2000/svg">
<g clip-path="url(#clip0_1775_2557)">
<path fill-rule="evenodd" clip-rule="evenodd" d="M168.996 36.6532C168.996 35.2844 170.173 34.176 171.624 34.176H179.429V46.8384H175.973L175.451 44.1745C173.532 46.3779 171.194 47.3974 167.984 47.3974C161.077 47.3974 156.297 42.4315 156.297 35.2284C156.297 27.9933 161.321 22.9287 168.508 22.9287C174.16 22.9287 178.451 26.1836 179.114 31.1167H175.665C174.719 31.1167 173.811 30.6465 173.4 29.843C172.545 28.1693 170.79 27.236 168.437 27.236C164.286 27.236 161.775 30.2287 161.775 35.2284C161.775 40.3268 164.286 43.2857 168.613 43.2857C172.031 43.2857 174.404 41.1489 174.543 37.9918H168.996V36.6532ZM146.332 31.1167C151.267 31.1167 154.542 34.2756 154.542 39.0646C154.542 44.1674 150.493 47.8116 144.823 47.8116C139.595 47.8116 135.728 45.2091 135.434 40.2459H139.34C140.017 40.2459 140.6 40.661 140.824 41.2618C141.403 42.8164 142.897 43.8208 144.823 43.8208C147.436 43.8208 149.278 41.9116 149.278 39.1695C149.278 36.4274 147.51 34.6915 144.786 34.6915C143.056 34.6915 141.913 35.2826 140.921 36.7048H136.244L139.245 23.3411H143.265H143.86H153.066C153.066 27.0351 152.472 27.604 149.363 27.6289L142.828 27.6315L141.582 32.8179C142.834 31.6366 144.27 31.1167 146.332 31.1167ZM123.738 42.3604V24.669C127.657 24.669 128.261 25.229 128.286 28.1604L128.29 46.3788C124.353 46.3788 123.773 45.3416 123.738 42.3604ZM114.898 42.3604V24.669C118.814 24.669 119.415 25.229 119.447 28.1604L119.452 46.3788C115.513 46.3788 114.929 45.3416 114.898 42.3604ZM100.023 39.5019C100.098 40.5099 100.153 43.4812 104.122 43.4812C106.08 43.4812 107.056 42.4289 107.248 42.228C107.702 41.6973 108.188 41.4458 108.856 41.4458H111.765C111.122 43.3328 109.539 46.705 103.958 46.705C97.8156 46.705 95.4382 42.3693 95.4382 38.4611C95.4382 33.9334 98.6843 30.1612 103.959 30.1612C109.842 30.1612 112.397 34.9449 112.056 39.5019H100.023ZM103.836 33.4178C100.29 33.4178 100.023 36.447 100.023 36.7652H107.477C107.032 34.6711 106.179 33.4178 103.836 33.4178ZM85.5969 43.483C87.3705 43.483 88.4141 42.7613 88.9864 41.2885C89.382 40.253 90.4292 40.2859 90.4292 40.2859H93.6646C93.0274 44.7843 89.6965 46.7068 85.6311 46.7068C80.9782 46.7068 77.2156 43.7648 77.2156 38.6477C77.2156 34.0818 79.9832 30.162 85.724 30.162C89.6199 30.162 93.3257 32.0668 93.569 36.1235H90.3472C89.3396 36.1235 89.0107 35.6506 88.7971 35.1217C88.3943 34.1636 87.4597 33.417 85.6969 33.417C82.8743 33.417 81.7947 36.0497 81.7947 38.4611C81.7947 41.0032 82.8437 43.483 85.5969 43.483ZM78.097 46.3779H75.6529C72.2815 46.3779 71.3739 45.8793 69.4877 43.2101C67.6033 40.5392 64.8032 36.6168 64.8032 36.6168L61.9004 39.3881V46.3779H56.8572V24.661C61.3272 24.661 61.8968 25.7436 61.9004 28.8875V33.6676C61.9004 33.6676 67.0247 28.5275 68.9316 26.6432C70.8287 24.7508 72.3743 24.6682 74.7598 24.6682H77.2255L68.2296 33.2401L78.097 46.3779Z" fill="#652D86"/>
</g>
<defs>
<clipPath id="clip0_1775_2557">
<rect width="126.286" height="26" fill="white" transform="translate(56.8572 22)"/>
</clipPath>
</defs>
</svg>
