<svg width="240" height="70" viewBox="0 0 240 70" fill="none" xmlns="http://www.w3.org/2000/svg">
<path d="M119.09 23.5751L118.515 22.2373H114.315L113.739 23.5751H111.483L116.072 13.1218H116.772L121.346 23.5751H119.09ZM117.783 20.5107L116.415 17.0418L115.046 20.5107H117.783Z" fill="black"/>
<path d="M121.929 18.4418C121.882 15.5018 124.418 13.0595 127.404 13.1218C129.349 13.1218 131.013 14.0707 131.931 15.6729L130.344 16.7929C129.613 15.6418 128.633 15.0662 127.404 15.0662C125.491 15.0662 124.091 16.4973 124.091 18.4573C124.091 20.4173 125.491 21.8173 127.404 21.8173C128.633 21.8173 129.613 21.2418 130.344 20.0907L131.931 21.2107C131.044 22.8129 129.364 23.7618 127.389 23.7618C124.386 23.824 121.866 21.3818 121.929 18.4418Z" fill="black"/>
<path d="M136.033 23.5751V15.2062H132.751V13.3084H141.431V15.2062H138.133V23.5751H136.033Z" fill="black"/>
<path d="M148.272 23.5751L147.696 22.2373H143.496L142.921 23.5751H140.665L145.254 13.1218H145.954L150.527 23.5751H148.272ZM146.965 20.5107L145.596 17.0418L144.227 20.5107H146.965Z" fill="black"/>
<path d="M151.93 23.5751V13.3084H154.03V17.244H158.572V13.3084H160.672V23.5751H158.572V19.1418H154.03V23.5751H151.93Z" fill="black"/>
<path d="M169.646 23.5751L169.07 22.2373H164.87L164.295 23.5751H162.039L166.628 13.1218H167.328L171.901 23.5751H169.646ZM168.339 20.5107L166.97 17.0418L165.601 20.5107H168.339Z" fill="black"/>
<path d="M119.977 37.2329H121.657V41.324H119.65V39.1307H118.966L114.563 33.7795V39.1307H112.463V28.864H114.563V33.624L118.483 28.864H120.988L117.068 33.6862L119.977 37.2329Z" fill="black"/>
<path d="M129.557 39.1307L128.981 37.7929H124.781L124.206 39.1307H121.95L126.539 28.6773H127.239L131.812 39.1307H129.557ZM128.25 36.0662L126.881 32.5973L125.512 36.0662H128.25Z" fill="black"/>
<path d="M134.241 28.864H141.288V39.1307H139.188V30.7618H136.232C136.108 37.3884 135.112 39.2395 132.919 39.2862C132.623 39.2862 132.328 39.2395 132.032 39.1307V37.3418C132.094 37.3573 132.234 37.3729 132.452 37.3729C133.712 37.3729 134.163 35.3818 134.225 30.7618L134.241 28.864Z" fill="black"/>
<path d="M150.277 39.1307L149.702 37.7929H145.502L144.926 39.1307H142.67L147.259 28.6773H147.959L152.533 39.1307H150.277ZM148.97 36.0662L147.602 32.5973L146.233 36.0662H148.97Z" fill="black"/>
<path d="M153.116 33.9973C153.069 31.0573 155.605 28.6151 158.591 28.6773C160.536 28.6773 162.2 29.6262 163.118 31.2284L161.531 32.3484C160.8 31.1973 159.82 30.6218 158.591 30.6218C156.678 30.6218 155.278 32.0529 155.278 34.0129C155.278 35.9729 156.678 37.3729 158.591 37.3729C159.82 37.3729 160.8 36.7973 161.531 35.6462L163.118 36.7662C162.231 38.3684 160.551 39.3173 158.576 39.3173C155.574 39.3795 153.054 36.9373 153.116 33.9973Z" fill="black"/>
<path d="M164.903 39.1307V28.864H167.003V32.3951H168.869C171.063 32.3951 172.618 33.7951 172.618 35.7551C172.618 37.7773 171.063 39.1307 168.869 39.1307H164.903ZM167.003 37.2795H168.869C169.865 37.2795 170.472 36.6884 170.472 35.7707C170.472 34.8529 169.865 34.2307 168.869 34.2307H167.003V37.2795ZM174.252 39.1307V28.864H176.352V39.1307H174.252Z" fill="black"/>
<path d="M178.696 39.1307V28.864H180.796V32.7995H185.338V28.864H187.438V39.1307H185.338V34.6973H180.796V39.1307H178.696Z" fill="black"/>
<path d="M189.785 39.1307V28.864H191.885V32.3951H193.752C195.945 32.3951 197.501 33.7951 197.501 35.7551C197.501 37.7773 195.945 39.1307 193.752 39.1307H189.785ZM191.885 37.2795H193.752C194.748 37.2795 195.354 36.6884 195.354 35.7707C195.354 34.8529 194.748 34.2307 193.752 34.2307H191.885V37.2795ZM199.134 39.1307V28.864H201.234V39.1307H199.134Z" fill="black"/>
<path d="M211.668 41.324V39.1307H210.221V34.6973H205.679V39.1307H203.579V28.864H205.679V32.7995H210.221V28.864H212.321V37.2329H213.69V41.324H211.668Z" fill="black"/>
<path d="M122.077 49.5373C122.123 52.4773 119.666 54.9195 116.772 54.8729C114.05 54.9195 111.826 52.8662 111.872 50.1751C111.872 49.724 111.919 49.2729 112.012 48.8218H119.883C119.619 47.204 118.437 46.1618 116.819 46.1618C115.621 46.1618 114.626 46.6907 113.848 47.7484L112.432 46.5196C113.428 45.104 114.952 44.2329 116.819 44.2329C119.79 44.1862 122.123 46.5973 122.077 49.5373ZM119.837 50.5329H113.91C113.941 52.0884 115.326 52.9284 116.819 52.9284C118.328 52.9284 119.479 51.9795 119.837 50.5329Z" fill="black"/>
<path d="M132.91 54.6862H130.374L125.972 49.3351V54.6862H123.872V44.4195H125.972V49.1795L129.892 44.4195H132.396L128.461 49.2573L132.91 54.6862Z" fill="black"/>
<path d="M134.293 54.6862V44.4195H136.393V54.6862H134.293Z" fill="black"/>
<path d="M148.108 44.2329H148.793V54.6862H146.693V49.2107L144.11 52.4462H143.426L140.844 49.2107V54.6862H138.744V44.2329H139.428L143.768 49.7862L148.108 44.2329Z" fill="black"/>
<path d="M159.446 52.7884H160.815V56.8795H158.715V54.6862H152.321V56.8795H150.221V52.7884H151.046C151.933 52.0573 152.306 49.9573 152.306 46.1151V44.4195H159.446V52.7884ZM153.333 52.7884H157.346V46.3173H154.281C154.235 49.4907 153.955 51.5907 153.333 52.7884Z" fill="black"/>
<path d="M162.366 54.6862V44.4195H164.466V54.6862H162.366Z" fill="black"/>
<path d="M166.817 54.6862V44.4195H173.412V46.3173H168.917V54.6862H166.817Z" fill="black"/>
<path d="M174.974 54.6862V44.4195H177.074V54.6862H174.974Z" fill="black"/>
<path d="M61.3101 70C80.64 70 96.3101 54.33 96.3101 35C96.3101 15.67 80.64 0 61.3101 0C41.9801 0 26.3101 15.67 26.3101 35C26.3101 54.33 41.9801 70 61.3101 70Z" fill="#EE2E24"/>
<path d="M61.31 69.5849C80.4106 69.5849 95.8947 54.1008 95.8947 35.0002C95.8947 15.8996 80.4106 0.415527 61.31 0.415527C42.2094 0.415527 26.7253 15.8996 26.7253 35.0002C26.7253 54.1008 42.2094 69.5849 61.31 69.5849Z" fill="#FFDE00"/>
<path fill-rule="evenodd" clip-rule="evenodd" d="M68.8561 34.0174C69.2201 34.0174 69.5141 34.3114 69.5141 34.6754V35.3334C69.5141 35.6974 69.2201 35.9914 68.8561 35.9914H68.1981V34.0221H68.8561V34.0174ZM68.8561 36.6401C69.5794 36.6401 70.1674 36.0521 70.1674 35.3288V34.6708C70.1674 33.9474 69.5794 33.3594 68.8561 33.3594H67.5424V36.6424H68.8561V36.6401ZM66.2311 33.3548H66.8891V36.6378H66.2311V33.3548ZM64.9198 33.3548H65.5778V36.6378H64.9198L63.6084 34.5774V36.6378H62.9504V33.3548H63.6084L64.9198 35.4151V33.3548ZM55.0754 33.3548H57.0448V34.0128H55.7334V34.6708H57.0448V35.3288H55.7334V35.9868H57.0448V36.6448H55.0754V33.3594V33.3548ZM52.4504 33.3548H53.1084V35.9798H54.4198V36.6378H52.4504V33.3548ZM59.3408 35.9798H59.9988C60.5424 35.9798 60.9834 35.5388 60.9834 34.9951C60.9834 34.4514 60.5331 34.0128 59.9988 34.0104H59.3408V34.6684H59.9988C60.1784 34.6684 60.3278 34.8178 60.3278 34.9974C60.3278 35.1771 60.1831 35.3264 59.9988 35.3264H59.3408V35.9844V35.9798ZM59.9988 32.6968C61.2681 32.6968 62.2948 33.7258 62.2948 34.9928C62.2948 36.2598 61.2681 37.2888 59.9988 37.2888C58.7294 37.2888 57.7028 36.2598 57.7028 34.9928C57.7028 33.7258 58.7294 32.6968 59.9988 32.6968ZM59.9988 33.3548C60.9041 33.3548 61.6391 34.0898 61.6391 34.9951C61.6391 35.9004 60.9064 36.6354 59.9988 36.6354C59.0911 36.6354 58.3584 35.9004 58.3584 34.9951C58.3561 34.0898 59.0911 33.3548 59.9988 33.3548Z" fill="#A90000"/>
<path d="M61.3099 60.3772C75.3255 60.3772 86.6873 49.0154 86.6873 34.9999C86.6873 20.9844 75.3255 9.62256 61.3099 9.62256C47.2944 9.62256 35.9326 20.9844 35.9326 34.9999C35.9326 49.0154 47.2944 60.3772 61.3099 60.3772Z" fill="#009BC9"/>
<path fill-rule="evenodd" clip-rule="evenodd" d="M46.3535 13.7036L44.6711 15.2296C53.4398 22.9763 56.6318 35.5086 57.6095 49.4596H58.0318C57.4415 42.4386 57.6701 25.5639 46.3535 13.7036ZM55.6285 24.9456C55.9691 26.0656 56.3775 27.5939 56.5175 28.7046C57.5465 30.8466 59.2335 32.8719 59.4575 45.8919H59.8798C59.7841 37.2633 59.5835 29.3976 55.6285 24.9456ZM61.0698 29.3323H61.5528V43.6333H61.0698V29.3323ZM66.9965 24.9456C66.6558 26.0656 66.2475 27.5939 66.1075 28.7046C65.0785 30.8466 63.3915 32.8719 63.1675 45.8919H62.7451C62.8408 37.2633 63.0391 29.3976 66.9965 24.9456ZM76.2691 13.7036L77.9515 15.2296C69.1828 22.9763 65.9908 35.5086 65.0131 49.4596H64.5908C65.1811 42.4386 64.9548 25.5639 76.2691 13.7036Z" fill="#FFDE00"/>
<path fill-rule="evenodd" clip-rule="evenodd" d="M61.3101 9.29834C75.5014 9.29834 87.0117 20.8087 87.0117 35C87.0117 49.1913 75.5014 60.7017 61.3101 60.7017C47.1187 60.7017 35.6084 49.1937 35.6084 35C35.6084 20.8063 47.1187 9.29834 61.3101 9.29834ZM61.3101 9.62734C75.3217 9.62734 86.6874 20.9883 86.6874 35.0047C86.6874 49.021 75.3264 60.382 61.3101 60.382C47.2937 60.382 35.9351 49.014 35.9351 35.0023C35.9351 20.9907 47.2961 9.62734 61.3101 9.62734Z" fill="#EE2E24"/>
<path fill-rule="evenodd" clip-rule="evenodd" d="M61.3101 43.0176C60.3604 43.9136 60.3954 45.0102 60.8504 46.0229L60.8434 46.0299C60.4071 45.7196 60.0058 45.5936 59.6604 45.5912C59.0094 45.5889 58.4308 46.2656 58.4098 46.7812C58.3934 47.2479 58.4448 47.6819 58.8648 47.9526C59.1494 48.1346 59.5554 48.1882 59.8518 47.9619C59.4598 47.8336 59.4598 47.3832 59.5788 47.1826C59.7024 46.9726 59.9078 46.8209 60.1714 46.8302C60.6474 46.8442 60.9181 47.2432 60.9088 47.6282C60.8971 48.1882 60.1038 48.9209 59.6861 49.1519C59.9661 49.6839 60.3628 50.5332 60.5261 51.1842L60.3021 51.3336C55.9574 45.9272 51.4914 47.5279 47.9751 43.7736C48.4254 48.5056 52.8144 50.2952 55.4674 50.9066C54.2284 51.6229 53.9344 52.7826 53.9694 53.8116C54.0184 55.2746 55.2411 56.3806 56.8488 56.3456C58.5218 56.3082 59.7188 54.6866 58.8508 53.1629C58.5218 53.8046 58.1858 54.3856 57.4298 54.3436C56.6738 54.3039 56.3914 53.6342 56.3821 53.0229C56.3728 52.2809 56.9211 51.7466 57.6234 51.6229C58.1228 51.5342 58.6711 51.6579 59.1518 51.8866C59.9988 52.2949 60.6334 53.2539 60.6054 54.2572C60.5751 55.2606 59.9381 56.3992 58.5171 57.5052C59.4131 58.6112 60.3861 60.0439 61.3078 62.0692C62.2294 60.0439 63.2024 58.6112 64.0984 57.5052C62.6751 56.3992 62.0381 55.2606 62.0101 54.2572C61.9798 53.2539 62.6168 52.2949 63.4638 51.8866C63.9421 51.6556 64.4928 51.5342 64.9921 51.6229C65.6991 51.7489 66.2451 52.2856 66.2334 53.0229C66.2264 53.6342 65.9418 54.3039 65.1858 54.3436C64.4298 54.3832 64.0961 53.8046 63.7648 53.1629C62.8991 54.6866 64.0961 56.3082 65.7668 56.3456C67.3721 56.3806 68.5971 55.2746 68.6461 53.8116C68.6811 52.7849 68.3871 51.6229 67.1481 50.9066C69.8011 50.2976 74.1901 48.5056 74.6404 43.7736C71.1241 47.5279 66.6581 45.9272 62.3134 51.3336L62.0894 51.1842C62.2528 50.5332 62.6494 49.6839 62.9294 49.1519C62.5118 48.9209 61.7184 48.1859 61.7068 47.6282C61.6974 47.2432 61.9681 46.8466 62.4441 46.8302C62.7078 46.8209 62.9131 46.9726 63.0368 47.1826C63.1581 47.3879 63.1558 47.8336 62.7638 47.9619C63.0601 48.1859 63.4684 48.1346 63.7508 47.9526C64.1708 47.6842 64.2221 47.2456 64.2058 46.7812C64.1871 46.2656 63.6084 45.5889 62.9551 45.5912C62.6098 45.5912 62.2084 45.7172 61.7721 46.0299L61.7651 46.0229C62.2201 45.0102 62.2574 43.9112 61.3054 43.0176H61.3101Z" fill="#FFDE00"/>
<path d="M61.9097 47.6138C61.9097 47.3291 62.0987 47.0351 62.458 47.0235C62.6844 47.0165 62.815 47.1798 62.8734 47.2778C62.9154 47.3501 62.934 47.4855 62.892 47.6021C62.8594 47.6861 62.801 47.7421 62.7077 47.7725L62.3554 47.8891C62.661 48.1248 62.92 48.3418 63.3377 48.2998C63.5314 48.2811 63.7157 48.2111 63.8627 48.1178C64.3737 47.7888 64.425 47.2545 64.4087 46.7738C64.3854 46.1508 63.7157 45.3901 62.962 45.3925C62.6937 45.3925 62.416 45.4671 62.1337 45.5978C62.2247 45.2945 62.2737 44.9981 62.2737 44.7158C62.2737 44.0158 61.9937 43.3951 61.443 42.8725L61.3077 42.7441L61.1724 42.8725C60.6194 43.3928 60.3417 44.0158 60.3417 44.7158C60.3417 44.9981 60.3907 45.2945 60.4817 45.5978C60.2017 45.4671 59.9264 45.3948 59.6534 45.3925C58.902 45.3901 58.2277 46.1485 58.2067 46.7738C58.1904 47.2521 58.2417 47.7888 58.7527 48.1178C58.9254 48.2298 59.1494 48.3045 59.3804 48.3068C59.7537 48.3115 59.987 48.1015 60.2647 47.8915C60.092 47.8355 59.798 47.7981 59.7257 47.6021C59.6814 47.4855 59.7024 47.3501 59.7444 47.2778C59.8004 47.1798 59.931 47.0165 60.1597 47.0235C60.5167 47.0351 60.708 47.3291 60.708 47.6138C60.6987 48.0781 59.9754 48.7595 59.588 48.9765L59.42 49.0698L59.5087 49.2401C59.7677 49.7301 60.0734 50.4021 60.253 50.9691C57.88 48.1295 55.5094 47.3011 53.218 46.5101C51.3864 45.8755 49.6527 45.2758 48.115 43.6355L47.7207 43.2155L47.7744 43.7895C48.2317 48.5868 52.6697 50.3788 54.982 50.9878C54.1817 51.6061 53.7617 52.5161 53.7617 53.6548C53.7617 53.7061 53.7617 53.7621 53.764 53.8135C53.8154 55.4048 55.143 56.5738 56.844 56.5365C57.7704 56.5178 58.615 56.0325 59.0444 55.2741C59.434 54.5858 59.4247 53.7785 59.014 53.0598L58.8344 52.7448L58.6687 53.0691C58.335 53.7178 58.0504 54.1751 57.4344 54.1425C56.648 54.1005 56.578 53.2675 56.5757 53.0131C56.5687 52.4088 57.0027 51.9235 57.6537 51.8091C58.076 51.7345 58.5754 51.8208 59.0607 52.0588C59.875 52.4508 60.428 53.3515 60.4047 54.2475C60.3744 55.2718 59.679 56.3451 58.391 57.3461L58.2324 57.4698L58.3584 57.6261C59.462 58.9888 60.3417 60.4261 61.1234 62.1481L61.303 62.5425L61.4827 62.1481C62.2644 60.4261 63.144 58.9888 64.2477 57.6261L64.3737 57.4698L64.215 57.3461C62.9294 56.3428 62.2317 55.2718 62.2014 54.2475C62.1757 53.3515 62.7264 52.4531 63.5454 52.0588C64.0307 51.8231 64.5324 51.7345 64.9524 51.8091C65.6057 51.9258 66.042 52.4088 66.035 53.0131C66.0327 53.2675 65.958 54.1005 65.1764 54.1425C64.558 54.1751 64.2757 53.7178 63.942 53.0691L63.7764 52.7448L63.5967 53.0598C63.186 53.7785 63.1767 54.5858 63.5664 55.2741C63.9957 56.0325 64.8404 56.5155 65.7667 56.5365C67.47 56.5738 68.7954 55.4025 68.8467 53.8135C68.849 53.7598 68.849 53.7061 68.849 53.6548C68.849 52.5161 68.429 51.6061 67.6287 50.9878C69.9434 50.3788 74.3837 48.5891 74.8364 43.7895L74.89 43.2155L74.4957 43.6355C72.9604 45.2758 71.229 45.8755 69.3927 46.5101C67.099 47.3035 64.7307 48.1295 62.3577 50.9691C62.535 50.4045 62.8407 49.7301 63.102 49.2401L63.1907 49.0698L63.0227 48.9765C62.633 48.7595 61.912 48.0781 61.9027 47.6138H61.9097ZM61.5154 47.6185C61.5294 48.2275 62.2177 48.9041 62.6774 49.2191C62.3297 49.9028 61.9587 50.6495 61.8677 51.4195L62.36 51.5921L62.472 51.4521C64.8427 48.5028 67.225 47.6791 69.5304 46.8811C71.2477 46.2885 72.8717 45.7121 74.3604 44.3191C73.588 48.7361 69.0777 50.2551 67.1084 50.7078L66.6184 50.8198L67.0524 51.0695C67.9834 51.6085 68.4547 52.4741 68.4547 53.6455C68.4547 53.6945 68.4547 53.7435 68.4524 53.7971C68.408 55.1645 67.2554 56.1725 65.776 56.1398C64.9874 56.1235 64.271 55.7151 63.9117 55.0781C63.753 54.7981 63.6737 54.5041 63.6737 54.2031C63.6737 54.0025 63.7204 53.8065 63.7904 53.6058C64.0704 54.0865 64.467 54.5695 65.1974 54.5298C66.0934 54.4831 66.42 53.6828 66.4294 53.0131C66.4387 52.2198 65.8624 51.5641 65.0247 51.4148C64.523 51.3261 63.9374 51.4265 63.3774 51.6971C62.4464 52.1451 61.8117 53.1601 61.8117 54.1821V54.2521C61.8444 55.3558 62.542 56.4828 63.8277 57.5258C62.8524 58.7555 62.024 60.1018 61.3054 61.6138C60.5867 60.1018 59.7584 58.7555 58.783 57.5258C60.0664 56.4828 60.7664 55.3558 60.799 54.2521V54.1821C60.799 53.1601 60.162 52.1451 59.2334 51.6971C58.6734 51.4288 58.0877 51.3261 57.586 51.4148C56.7484 51.5641 56.172 52.2198 56.1814 53.0131C56.1907 53.6828 56.5174 54.4831 57.4134 54.5298C58.1437 54.5695 58.545 54.0888 58.8204 53.6058C58.8904 53.8041 58.937 54.0025 58.937 54.2031C58.937 54.5018 58.8577 54.7981 58.699 55.0781C58.335 55.7151 57.6234 56.1235 56.8324 56.1398C55.3507 56.1725 54.2004 55.1645 54.156 53.7971C54.1537 53.7481 54.1537 53.6968 54.1537 53.6455C54.1537 52.4718 54.625 51.6061 55.556 51.0671L55.99 50.8175L55.5 50.7055C53.5284 50.2528 49.0204 48.7338 48.248 44.3168C49.7367 45.7098 51.3654 46.2815 53.078 46.8788C55.381 47.6768 57.7657 48.5005 60.1364 51.4498L60.2484 51.5898L60.7407 51.4171C60.6497 50.6471 60.281 49.9005 59.931 49.2168C60.393 48.9018 61.0814 48.2275 61.093 47.6161C61.093 47.1378 60.75 46.6478 60.1644 46.6291C59.8517 46.6198 59.5694 46.7831 59.3967 47.0795C59.3314 47.1891 59.301 47.3268 59.301 47.4621C59.301 47.5578 59.315 47.6558 59.35 47.7421C59.3757 47.8028 59.4177 47.8518 59.4574 47.9031C59.28 47.9218 59.0957 47.8728 58.9604 47.7865C58.6337 47.5765 58.58 47.2358 58.594 46.7878C58.608 46.3911 59.0864 45.7845 59.6464 45.7868C60.1574 45.7891 60.5587 46.0785 60.9554 46.3561L61.128 46.1951C60.9204 45.7191 60.722 45.2478 60.722 44.7135C60.722 44.1791 60.9204 43.7171 61.296 43.3088C61.6717 43.7195 61.87 44.1885 61.87 44.7135C61.87 45.2385 61.667 45.7121 61.4757 46.1951L61.6297 46.3561C62.0357 46.0855 62.4347 45.7891 62.948 45.7868C63.508 45.7845 63.9864 46.3911 64.0004 46.7878C64.0167 47.2358 63.9607 47.5788 63.634 47.7865C63.501 47.8728 63.3144 47.9218 63.137 47.9031C63.1767 47.8518 63.2187 47.8051 63.2444 47.7421C63.277 47.6558 63.2934 47.5601 63.2934 47.4621C63.2934 47.3245 63.2607 47.1891 63.1977 47.0795C63.025 46.7831 62.7427 46.6198 62.43 46.6291C61.863 46.6525 61.5177 47.1401 61.5177 47.6185H61.5154Z" fill="#009933"/>
<path fill-rule="evenodd" clip-rule="evenodd" d="M61.3101 51.8935C61.6088 50.9998 61.9378 50.0571 62.3158 49.3525C61.9658 49.1425 61.6344 48.7785 61.3101 48.3491C60.9858 48.7808 60.6568 49.1425 60.3044 49.3525C60.6848 50.0571 61.0114 51.0021 61.3101 51.8935Z" fill="#009BC9"/>
<path fill-rule="evenodd" clip-rule="evenodd" d="M61.3101 60.7319C61.7955 59.7682 62.3858 58.7112 63.1535 57.8432C62.5165 57.2995 61.8771 56.5342 61.3101 55.6172C60.7431 56.5342 60.1061 57.2995 59.4668 57.8432C60.2321 58.7135 60.8248 59.7705 61.3101 60.7319Z" fill="#009BC9"/>
<path d="M61.8234 56.7982C61.7301 56.7982 61.6298 56.8496 61.5318 56.9499C61.3124 57.1716 61.2121 57.5169 61.1328 57.7992L61.1234 57.8296C61.1071 57.8902 61.0884 57.9602 61.0721 58.0256C61.0161 58.0069 60.9531 57.9882 60.8854 57.9766C60.9414 57.8319 60.9788 57.6896 60.9718 57.5472C60.9694 57.4982 60.9298 57.4609 60.8808 57.4632C60.8318 57.4656 60.7944 57.5052 60.7968 57.5542C60.8038 57.7759 60.6824 58.0186 60.5378 58.2892C60.5144 58.3312 60.5308 58.3849 60.5728 58.4082C60.6148 58.4316 60.6684 58.4152 60.6918 58.3732C60.7338 58.2939 60.7758 58.2169 60.8108 58.1446C60.8924 58.1539 60.9624 58.1749 61.0278 58.1959C60.9111 58.6579 60.8084 59.1572 60.7431 59.5189C60.7431 59.5236 60.7408 59.5282 60.7408 59.5329C60.7408 59.5749 60.7711 59.6122 60.8131 59.6192C60.8598 59.6262 60.9064 59.5959 60.9134 59.5469C60.9788 59.1922 61.0768 58.7022 61.1911 58.2496C61.2658 58.2776 61.3358 58.3032 61.4151 58.3079C61.8001 58.3406 62.0054 57.9836 62.0638 57.6709C62.1104 57.4259 62.1244 57.0059 61.9844 56.8612C61.9471 56.8216 61.8911 56.7959 61.8258 56.7959L61.8234 56.7982ZM61.2914 57.8762L61.3008 57.8436C61.3754 57.5846 61.4688 57.2602 61.6554 57.0712C61.7418 56.9849 61.7978 56.9732 61.8234 56.9732C61.8421 56.9732 61.8561 56.9802 61.8608 56.9849C61.9144 57.0386 61.9541 57.3209 61.8934 57.6382C61.8491 57.8809 61.6998 58.1562 61.4314 58.1352C61.3731 58.1306 61.3078 58.1049 61.2378 58.0792C61.2518 58.0116 61.2704 57.9416 61.2891 57.8762H61.2914Z" fill="#FFDE00"/>
<path fill-rule="evenodd" clip-rule="evenodd" d="M61.31 1.31152C79.9137 1.31152 94.9987 16.3965 94.9987 35.0002C94.9987 45.2692 90.3997 54.4625 83.1547 60.6412L79.1997 55.0949C83.7567 51.0349 86.9253 45.4512 87.9007 39.1442C87.917 39.0299 87.9053 38.9855 88.0313 38.9459C88.141 38.9132 88.2577 38.8782 88.358 38.8339C88.4 38.8175 88.4397 38.7895 88.4793 38.7522C88.5097 38.7219 88.5213 38.6682 88.533 38.6075C88.5563 38.4932 88.5843 38.3415 88.778 38.2832C88.9927 38.2179 89.177 38.3672 89.4127 38.5562C89.5457 38.6635 89.6973 38.7825 89.8793 38.8922C90.3413 39.1605 90.7613 39.2772 91.3307 39.2912C91.8253 39.3029 92.2547 39.2305 92.754 38.8222C92.9477 38.6635 93.09 38.4955 93.2463 38.2949C93.3817 38.1199 93.5403 37.9565 93.7737 37.9589C93.9533 37.9612 94.0957 38.0452 94.1633 38.1875C94.1913 38.2459 94.2053 38.3135 94.2053 38.3812C94.2053 38.3929 94.2007 38.4045 94.2007 38.4162C94.2777 38.3275 94.322 38.2342 94.3267 38.1432V38.1292C94.3267 37.9659 94.2427 37.8469 94.1703 37.7745C94.035 37.6369 93.8297 37.5505 93.636 37.5529C93.2557 37.5575 92.943 37.7465 92.6117 37.9425C92.446 38.0405 92.2757 38.1432 92.0983 38.2225C91.704 38.3929 91.249 38.4652 90.6703 38.4489C89.8163 38.4255 89.2727 38.0382 88.967 37.7162C88.6193 37.3499 88.4023 36.8692 88.4117 36.4935C88.428 35.8309 88.6777 35.6535 88.708 35.6372L88.7267 35.6255L89.8093 35.5532L89.723 35.6955C89.723 35.6955 89.5667 35.9569 89.555 36.5005V36.5402C89.555 37.2192 90.0217 37.4945 90.129 37.5482C90.1687 37.5389 90.3717 37.4875 90.542 37.4455C90.3227 37.2775 89.9633 36.9229 89.9633 36.3955V36.3652C89.9797 35.6885 90.4207 35.3245 91.1977 35.3479C91.7297 35.3619 92.292 35.7142 92.2803 36.2555C92.2757 36.4562 92.2103 36.6125 92.0937 36.7269C91.9233 36.8902 91.697 36.9019 91.6083 36.8995C91.452 36.8949 91.319 36.8132 91.221 36.7292C91.2373 36.8179 91.2747 36.9229 91.3517 37.0139C91.4893 37.1772 91.7203 37.2635 92.0307 37.2705C92.3643 37.2799 92.8753 36.9649 92.8893 36.4702C92.894 36.2555 92.859 36.1389 92.8357 36.0525C92.7983 35.9219 92.782 35.8355 92.9033 35.6885C93.0457 35.5159 93.258 35.5905 93.398 35.6395L93.517 35.6722C93.6267 35.6745 93.9393 35.3852 94.259 34.9979C93.9393 34.6082 93.629 34.3212 93.517 34.3235L93.398 34.3562C93.258 34.4052 93.048 34.4775 92.9033 34.3072C92.7797 34.1579 92.796 34.0715 92.8357 33.9432C92.8613 33.8569 92.894 33.7402 92.8893 33.5255C92.8777 33.0309 92.3643 32.7182 92.0307 32.7252C91.718 32.7322 91.487 32.8185 91.3517 32.9819C91.2747 33.0729 91.2373 33.1755 91.221 33.2665C91.319 33.1825 91.4497 33.1009 91.6083 33.0962C91.697 33.0939 91.9233 33.1055 92.0937 33.2689C92.2127 33.3832 92.2757 33.5395 92.2803 33.7402C92.2943 34.2839 91.7297 34.6362 91.1977 34.6479C90.4183 34.6665 89.9797 34.3072 89.9633 33.6305V33.6002C89.9633 33.0752 90.325 32.7205 90.542 32.5502C90.3693 32.5059 90.1663 32.4569 90.129 32.4475C90.0193 32.5012 89.555 32.7742 89.555 33.4555V33.4952C89.569 34.0389 89.723 34.2979 89.723 34.3002L89.8093 34.4425L89.6413 34.4332L88.7267 34.3749L88.708 34.3632C88.6777 34.3469 88.428 34.1672 88.4117 33.5069C88.4023 33.1289 88.6193 32.6505 88.967 32.2842C89.2727 31.9599 89.8163 31.5725 90.6703 31.5515C91.249 31.5375 91.7017 31.6075 92.0983 31.7779C92.2757 31.8549 92.4483 31.9575 92.6117 32.0579C92.9453 32.2585 93.258 32.4452 93.6383 32.4475C93.832 32.4499 94.035 32.3635 94.1727 32.2259C94.245 32.1512 94.329 32.0322 94.329 31.8712V31.8572C94.3267 31.7639 94.28 31.6705 94.203 31.5795C94.203 31.5912 94.21 31.6052 94.21 31.6145C94.21 31.6845 94.196 31.7475 94.168 31.8082C94.1003 31.9505 93.958 32.0345 93.7783 32.0369C93.5427 32.0392 93.3863 31.8759 93.251 31.7009C93.0947 31.4979 92.9523 31.3299 92.7587 31.1735C92.2617 30.7652 91.83 30.6929 91.3353 30.7045C90.766 30.7185 90.3437 30.8352 89.884 31.1035C89.6997 31.2132 89.548 31.3322 89.4173 31.4395C89.1817 31.6262 88.9973 31.7779 88.7827 31.7125C88.589 31.6565 88.561 31.5002 88.5377 31.3882C88.526 31.3275 88.5143 31.2715 88.484 31.2435C88.4397 31.2015 88.393 31.1735 88.3487 31.1572C88.2577 31.1199 88.1597 31.0895 88.0617 31.0615C87.9123 31.0172 87.9263 30.9752 87.903 30.8399C85.9033 17.9575 74.7593 8.09452 61.317 8.09452C47.8747 8.09452 36.7283 17.9622 34.731 30.8492C34.7147 30.9635 34.7287 31.0149 34.6003 31.0545C34.493 31.0872 34.388 31.1199 34.29 31.1572C34.1687 31.2062 34.1243 31.2645 34.101 31.3882C34.0777 31.5025 34.0497 31.6542 33.856 31.7125C33.6413 31.7779 33.457 31.6285 33.2213 31.4395C33.0883 31.3322 32.9367 31.2132 32.7547 31.1035C32.2927 30.8352 31.8727 30.7185 31.3033 30.7045C30.8087 30.6929 30.3793 30.7652 29.88 31.1735C29.6863 31.3322 29.544 31.5002 29.3877 31.7009C29.2523 31.8759 29.0937 32.0392 28.8603 32.0369C28.6807 32.0345 28.5383 31.9505 28.4707 31.8082C28.4427 31.7499 28.4287 31.6822 28.4287 31.6145C28.4287 31.6029 28.4333 31.5889 28.4357 31.5795C28.3587 31.6682 28.312 31.7615 28.3097 31.8572V31.8712C28.3097 32.0345 28.3937 32.1535 28.466 32.2259C28.6013 32.3635 28.8067 32.4499 29.0003 32.4475C29.3807 32.4429 29.6933 32.2539 30.027 32.0579C30.1927 31.9599 30.363 31.8572 30.5403 31.7779C30.9347 31.6075 31.3897 31.5352 31.9683 31.5515C32.8223 31.5749 33.366 31.9622 33.6717 32.2842C34.0193 32.6505 34.2363 33.1312 34.227 33.5069C34.2107 34.1695 33.961 34.3469 33.9307 34.3632L33.912 34.3749L32.9973 34.4332L32.8293 34.4425L32.9157 34.3002C32.9157 34.3002 33.072 34.0389 33.0837 33.4952V33.4555C33.0837 32.7742 32.617 32.5012 32.5097 32.4475C32.47 32.4569 32.267 32.5082 32.0967 32.5502C32.316 32.7182 32.6753 33.0729 32.6753 33.6002V33.6305C32.659 34.3072 32.218 34.6712 31.441 34.6479C30.909 34.6339 30.3467 34.2815 30.3583 33.7402C30.363 33.5395 30.4283 33.3832 30.545 33.2689C30.7153 33.1055 30.9417 33.0939 31.0303 33.0962C31.1867 33.1009 31.3197 33.1825 31.4177 33.2665C31.4013 33.1779 31.364 33.0729 31.287 32.9819C31.1493 32.8185 30.9183 32.7322 30.608 32.7252C30.2743 32.7159 29.7633 33.0309 29.7493 33.5255C29.7447 33.7402 29.7797 33.8569 29.803 33.9432C29.8403 34.0739 29.8567 34.1602 29.7353 34.3072C29.593 34.4775 29.3807 34.4052 29.2407 34.3562L29.1123 34.3282C29.0027 34.3259 28.69 34.6129 28.3703 35.0025C28.69 35.3922 29.0003 35.6792 29.1123 35.6769L29.2313 35.6442C29.3713 35.5952 29.5813 35.5229 29.726 35.6932C29.8497 35.8425 29.8333 35.9289 29.7937 36.0572C29.768 36.1435 29.7353 36.2602 29.74 36.4749C29.7517 36.9695 30.265 37.2822 30.5987 37.2752C30.9113 37.2682 31.1423 37.1819 31.2777 37.0185C31.3547 36.9275 31.392 36.8249 31.4083 36.7339C31.3103 36.8179 31.1797 36.8995 31.021 36.9042C30.9323 36.9065 30.706 36.8949 30.5357 36.7315C30.4167 36.6172 30.3537 36.4609 30.349 36.2602C30.335 35.7165 30.8997 35.3642 31.4317 35.3525C32.211 35.3339 32.6497 35.6932 32.666 36.3699V36.4002C32.666 36.9252 32.3043 37.2799 32.0873 37.4502C32.26 37.4945 32.463 37.5435 32.5003 37.5529C32.61 37.4992 33.0743 37.2239 33.0743 36.5449V36.5052C33.0603 35.9615 32.9063 35.7025 32.9063 35.7002L32.82 35.5579L33.9027 35.6302L33.9213 35.6419C33.9517 35.6582 34.2013 35.8379 34.2177 36.4982C34.227 36.8762 34.01 37.3545 33.6623 37.7209C33.3567 38.0429 32.813 38.4325 31.959 38.4535C31.3803 38.4675 30.9277 38.3975 30.531 38.2272C30.3537 38.1502 30.181 38.0475 30.0177 37.9472C29.684 37.7465 29.3713 37.5599 28.991 37.5575C28.7973 37.5552 28.5943 37.6415 28.4567 37.7792C28.3843 37.8539 28.3003 37.9729 28.3003 38.1339V38.1479C28.3027 38.2389 28.3493 38.3322 28.4263 38.4209C28.4263 38.4092 28.4217 38.3975 28.4217 38.3859C28.4217 38.3159 28.4357 38.2529 28.4637 38.1922C28.5313 38.0499 28.6737 37.9659 28.8533 37.9635C29.089 37.9612 29.2453 38.1245 29.3807 38.2995C29.537 38.5025 29.6793 38.6705 29.873 38.8269C30.3723 39.2352 30.8017 39.3075 31.2963 39.2959C31.8657 39.2819 32.288 39.1652 32.7477 38.8969C32.932 38.7872 33.0837 38.6682 33.2143 38.5609C33.45 38.3742 33.6343 38.2225 33.849 38.2879C34.0427 38.3439 34.0707 38.5002 34.094 38.6122C34.1127 38.7195 34.1383 38.7662 34.2317 38.8199C34.3343 38.8782 34.4697 38.9132 34.5863 38.9482C34.71 38.9832 34.703 39.0135 34.7193 39.1255C35.6923 45.4419 38.861 51.0325 43.4227 55.0972L39.4677 60.6435C32.2203 54.4625 27.6213 45.2692 27.6213 35.0002C27.6213 16.3965 42.7063 1.31152 61.31 1.31152ZM78.9033 55.3585L82.8537 60.8979C82.7533 60.9819 82.6507 61.0659 82.5503 61.1499L78.6023 55.6152C78.7027 55.5289 78.8053 55.4449 78.9033 55.3585ZM78.299 55.8649L82.2423 61.3949L81.932 61.6399L77.991 56.1122C78.0937 56.0305 78.1987 55.9489 78.299 55.8649ZM77.6783 56.3549L81.6193 61.8802C81.372 62.0669 81.1247 62.2512 80.8727 62.4285L76.934 56.9102C77.186 56.7305 77.4333 56.5439 77.6783 56.3572V56.3549ZM45.686 56.9079L41.7473 62.4285C41.4953 62.2489 41.248 62.0645 41.0007 61.8802L44.9417 56.3549C45.1867 56.5392 45.434 56.7259 45.686 56.9055V56.9079ZM44.6313 56.1122L40.6903 61.6399C40.5877 61.5582 40.4827 61.4789 40.38 61.3949L44.3233 55.8649C44.426 55.9489 44.5287 56.0305 44.6313 56.1122ZM44.02 55.6129L40.072 61.1475C39.9717 61.0635 39.869 60.9795 39.7687 60.8955L43.719 55.3562C43.8193 55.4449 43.922 55.5289 44.02 55.6129Z" fill="#EE2E24"/>
<path d="M61.31 25.3729C67.1566 25.3729 71.8963 20.6332 71.8963 14.7865C71.8963 8.93986 67.1566 4.2002 61.31 4.2002C55.4633 4.2002 50.7236 8.93986 50.7236 14.7865C50.7236 20.6332 55.4633 25.3729 61.31 25.3729Z" fill="#009933"/>
<path d="M61.3101 24.981C66.9402 24.981 71.5044 20.4168 71.5044 14.7866C71.5044 9.15644 66.9402 4.59229 61.3101 4.59229C55.6799 4.59229 51.1157 9.15644 51.1157 14.7866C51.1157 20.4168 55.6799 24.981 61.3101 24.981Z" fill="#FFDE00"/>
<path d="M61.3099 23.4714C66.1063 23.4714 69.9946 19.5831 69.9946 14.7867C69.9946 9.99031 66.1063 6.10205 61.3099 6.10205C56.5135 6.10205 52.6252 9.99031 52.6252 14.7867C52.6252 19.5831 56.5135 23.4714 61.3099 23.4714Z" fill="#EE2E24"/>
<path d="M61.3099 23.3404C66.0341 23.3404 69.8639 19.5107 69.8639 14.7864C69.8639 10.0622 66.0341 6.23242 61.3099 6.23242C56.5856 6.23242 52.7559 10.0622 52.7559 14.7864C52.7559 19.5107 56.5856 23.3404 61.3099 23.3404Z" fill="#009933"/>
<path d="M61.3101 22.9463C65.8165 22.9463 69.4697 19.2931 69.4697 14.7866C69.4697 10.2802 65.8165 6.62695 61.3101 6.62695C56.8036 6.62695 53.1504 10.2802 53.1504 14.7866C53.1504 19.2931 56.8036 22.9463 61.3101 22.9463Z" fill="#EE2E24"/>
<path d="M61.31 22.8153C65.7443 22.8153 69.339 19.2206 69.339 14.7863C69.339 10.352 65.7443 6.75732 61.31 6.75732C56.8757 6.75732 53.281 10.352 53.281 14.7863C53.281 19.2206 56.8757 22.8153 61.31 22.8153Z" fill="#FFDE00"/>
<path d="M61.31 22.1365C65.3693 22.1365 68.66 18.8458 68.66 14.7865C68.66 10.7272 65.3693 7.43652 61.31 7.43652C57.2507 7.43652 53.96 10.7272 53.96 14.7865C53.96 18.8458 57.2507 22.1365 61.31 22.1365Z" fill="#EE2E24"/>
<path d="M61.3099 22.006C65.297 22.006 68.5292 18.7738 68.5292 14.7867C68.5292 10.7996 65.297 7.56738 61.3099 7.56738C57.3228 7.56738 54.0906 10.7996 54.0906 14.7867C54.0906 18.7738 57.3228 22.006 61.3099 22.006Z" fill="#009BC9"/>
<path fill-rule="evenodd" clip-rule="evenodd" d="M67.239 10.9134L66.693 10.3674L66.1703 10.89L66.1517 11.1724L63.83 13.494L63.5477 13.5127L63.025 14.0354L63.571 14.5814L64.0937 14.0587L64.1123 13.7764L66.434 11.4547L66.7163 11.436L67.239 10.9134ZM66.4737 10.1667L65.9277 9.62069L65.405 10.1434L65.3863 10.4257L63.0647 12.7474L62.7823 12.766L62.2597 13.2887L62.8057 13.8347L63.3283 13.312L63.347 13.0297L65.6687 10.708L65.951 10.6894L66.4737 10.1667ZM65.7153 9.40836L65.1693 8.86236L64.6467 9.38503L64.628 9.66736L62.3063 11.989L62.024 12.0077L61.5013 12.5304L62.0473 13.0764L62.57 12.5537L62.5887 12.2714L64.9103 9.94969L65.1927 9.93103L65.7153 9.40836ZM57.432 20.718L56.886 20.172L57.4087 19.6494L57.691 19.6307L60.0127 17.309L60.0313 17.0267L60.554 16.504L61.1 17.05L60.5773 17.5727L60.295 17.5914L57.9733 19.913L57.9547 20.1954L57.432 20.718ZM56.683 19.9527L56.137 19.4067L56.6597 18.884L56.942 18.8654L59.2637 16.5437L59.2823 16.2614L59.805 15.7387L60.351 16.2847L59.8283 16.8074L59.546 16.826L57.2243 19.1477L57.2057 19.43L56.683 19.9527ZM55.927 19.1967L55.381 18.6507L55.9037 18.128L56.186 18.1094L58.5077 15.7877L58.5263 15.5054L59.049 14.9827L59.595 15.5287L59.0723 16.0514L58.79 16.07L56.4683 18.3917L56.4497 18.674L55.927 19.1967ZM67.2367 18.66L66.6907 19.206L66.168 18.6834L66.1493 18.401L63.8277 16.0794L63.5453 16.0607L63.0227 15.538L63.5687 14.992L64.0913 15.5147L64.11 15.797L66.4317 18.1187L66.714 18.1374L67.2367 18.66ZM66.4713 19.4067L65.9253 19.9527L65.4027 19.43L65.384 19.1477L63.0623 16.826L62.78 16.8074L62.2573 16.2847L62.8033 15.7387L63.326 16.2614L63.3447 16.5437L65.6663 18.8654L65.9487 18.884L66.4713 19.4067ZM65.713 20.165L65.167 20.711L64.6443 20.1884L64.6257 19.906L62.304 17.5844L62.0217 17.5657L61.499 17.043L62.045 16.497L62.5677 17.0197L62.5863 17.302L64.908 19.6237L65.1903 19.6424L65.713 20.165ZM57.4297 8.85303L56.8837 9.39903L57.4063 9.92169L57.6887 9.94036L60.0103 12.262L60.029 12.5444L60.5517 13.067L61.0977 12.521L60.575 11.9984L60.2927 11.9797L57.971 9.65803L57.9523 9.37569L57.4297 8.85303ZM56.6807 9.62069L56.1347 10.1667L56.6573 10.6894L56.9397 10.708L59.2613 13.0297L59.28 13.312L59.8027 13.8347L60.3487 13.2887L59.826 12.766L59.5437 12.7474L57.222 10.4257L57.2033 10.1434L56.6807 9.62069ZM55.9247 10.3767L55.3787 10.9227L55.9013 11.4454L56.1837 11.464L58.5053 13.7857L58.524 14.068L59.0467 14.5907L59.5927 14.0447L59.07 13.522L58.7877 13.5034L56.466 11.1817L56.4473 10.8994L55.9247 10.3767ZM61.3007 15.755L61.8467 16.301L61.3007 16.847L60.7547 16.301L61.3007 15.755ZM60.5447 14.9967L61.0907 15.5427L60.5447 16.0887L59.9987 15.5427L60.5447 14.9967ZM59.7887 14.2407L60.3347 14.7867L59.7887 15.3327L59.2427 14.7867L59.7887 14.2407ZM60.5447 13.4824L61.0907 14.0284L60.5447 14.5744L59.9987 14.0284L60.5447 13.4824ZM61.3007 14.2407L61.8467 14.7867L61.3007 15.3327L60.7547 14.7867L61.3007 14.2407ZM62.059 14.9967L62.605 15.5427L62.059 16.0887L61.513 15.5427L62.059 14.9967ZM62.815 14.2407L63.361 14.7867L62.815 15.3327L62.269 14.7867L62.815 14.2407ZM62.059 13.4824L62.605 14.0284L62.059 14.5744L61.513 14.0284L62.059 13.4824ZM61.3007 12.7264L61.8467 13.2724L61.3007 13.8184L60.7547 13.2724L61.3007 12.7264Z" fill="#FFDE00"/>
<path d="M61.3101 6.76709C61.2867 6.76709 61.2657 6.77876 61.2541 6.79976C61.2541 6.79976 61.0464 7.14276 60.9717 7.26176C60.8877 7.14742 60.6474 6.82076 60.6474 6.82076C60.6334 6.80209 60.6101 6.79042 60.5891 6.79276C60.5657 6.79509 60.5471 6.80676 60.5354 6.83009C60.5354 6.83009 60.3581 7.19642 60.2951 7.32242C60.2017 7.21509 59.9334 6.90942 59.9334 6.90942C59.9194 6.89309 59.8937 6.88376 59.8727 6.88609C59.8494 6.89076 59.8307 6.90476 59.8237 6.92809C59.8237 6.92809 59.6814 7.30842 59.6301 7.43909C59.5274 7.34109 59.2334 7.06109 59.2334 7.06109C59.2171 7.04709 59.1937 7.03776 59.1727 7.04709C59.1494 7.05176 59.1331 7.07042 59.1261 7.09142C59.1261 7.09142 59.0164 7.48109 58.9814 7.61876C58.8694 7.53009 58.5521 7.27809 58.5521 7.27809C58.5357 7.26409 58.5101 7.26176 58.4867 7.26876C58.4634 7.27576 58.4494 7.29676 58.4447 7.31776C58.4447 7.31776 58.3701 7.71676 58.3467 7.85676C58.2277 7.77742 57.8894 7.55576 57.8894 7.55576C57.8707 7.54409 57.8451 7.54176 57.8241 7.55109C57.8054 7.56042 57.7891 7.58142 57.7867 7.60242C57.7867 7.60242 57.7494 8.00842 57.7377 8.14842C57.6117 8.08076 57.2571 7.88942 57.2571 7.88942C57.2384 7.88009 57.2127 7.88009 57.1917 7.89176C57.1731 7.90342 57.1591 7.92442 57.1591 7.94776V8.49609C57.0284 8.44009 56.6551 8.28142 56.6551 8.28142C56.6317 8.27209 56.6084 8.27442 56.5897 8.28842C56.5734 8.30009 56.5617 8.32109 56.5617 8.33976V8.34442C56.5617 8.34442 56.5967 8.75042 56.6107 8.89042C56.4754 8.84609 56.0904 8.72242 56.0904 8.72242C56.0671 8.71542 56.0437 8.72009 56.0251 8.73409C56.0111 8.74576 56.0017 8.76442 56.0017 8.78309V8.79476C56.0017 8.79476 56.0741 9.19376 56.0974 9.33376C55.9597 9.30109 55.5631 9.21242 55.5631 9.21242C55.5397 9.20776 55.5187 9.21476 55.5024 9.23109C55.4907 9.24276 55.4861 9.26142 55.4861 9.27542C55.4861 9.28009 55.4861 9.28709 55.4884 9.29176C55.4884 9.29176 55.5957 9.68142 55.6331 9.81909C55.4931 9.80042 55.0894 9.74676 55.0894 9.74676C55.0661 9.74442 55.0451 9.75142 55.0311 9.77242C55.0217 9.78409 55.0171 9.80042 55.0171 9.81442C55.0171 9.82142 55.0194 9.82842 55.0217 9.83776C55.0217 9.83776 55.1617 10.2181 55.2107 10.3511C55.0707 10.3464 54.6624 10.3254 54.6624 10.3254C54.6391 10.3254 54.6181 10.3348 54.6064 10.3558C54.5994 10.3651 54.5971 10.3814 54.5971 10.3931C54.5971 10.4024 54.5994 10.4118 54.6041 10.4211C54.6041 10.4211 54.7791 10.7874 54.8421 10.9158C54.7021 10.9228 54.2937 10.9414 54.2937 10.9414C54.2704 10.9414 54.2494 10.9554 54.2401 10.9764C54.2354 10.9858 54.2331 10.9951 54.2331 11.0091C54.2331 11.0231 54.2354 11.0324 54.2424 11.0441C54.2424 11.0441 54.4501 11.3918 54.5224 11.5154C54.3824 11.5341 53.9787 11.5901 53.9787 11.5901C53.9554 11.5924 53.9367 11.6064 53.9274 11.6298C53.9251 11.6368 53.9227 11.6461 53.9227 11.6554C53.9227 11.6671 53.9274 11.6834 53.9344 11.6951C53.9344 11.6951 54.1724 12.0241 54.2564 12.1408C54.1187 12.1734 53.7221 12.2644 53.7221 12.2644C53.6987 12.2691 53.6824 12.2878 53.6754 12.3088C53.6731 12.3158 53.6731 12.3204 53.6731 12.3274C53.6731 12.3414 53.6777 12.3601 53.6894 12.3694C53.6894 12.3694 53.9554 12.6751 54.0511 12.7824C53.9157 12.8268 53.5331 12.9528 53.5331 12.9528C53.5097 12.9598 53.4934 12.9784 53.4887 12.9994C53.4887 13.0041 53.4864 13.0088 53.4864 13.0134C53.4864 13.0298 53.4934 13.0484 53.5051 13.0601C53.5051 13.0601 53.7991 13.3401 53.8994 13.4381C53.7687 13.4941 53.3954 13.6528 53.3954 13.6528C53.3721 13.6621 53.3581 13.6831 53.3557 13.7041V13.7134C53.3557 13.7321 53.3651 13.7531 53.3814 13.7648C53.3814 13.7648 53.6964 14.0191 53.8084 14.1078C53.6824 14.1754 53.3277 14.3691 53.3277 14.3691C53.3091 14.3784 53.2951 14.4018 53.2927 14.4228C53.2927 14.4484 53.3021 14.4671 53.3231 14.4788C53.3231 14.4788 53.6614 14.7028 53.7804 14.7821C53.6614 14.8614 53.3231 15.0831 53.3231 15.0831C53.3067 15.0948 53.2927 15.1158 53.2927 15.1368C53.2927 15.1624 53.3067 15.1834 53.3277 15.1928C53.3277 15.1928 53.6847 15.3864 53.8084 15.4541C53.6964 15.5428 53.3814 15.7948 53.3814 15.7948C53.3674 15.8064 53.3557 15.8274 53.3557 15.8461V15.8554C53.3581 15.8788 53.3721 15.8974 53.3954 15.9068C53.3954 15.9068 53.7687 16.0678 53.8994 16.1238C53.7991 16.2218 53.5051 16.5018 53.5051 16.5018C53.4934 16.5134 53.4864 16.5321 53.4864 16.5484C53.4864 16.5531 53.4864 16.5578 53.4887 16.5624C53.4934 16.5858 53.5121 16.6021 53.5331 16.6091C53.5331 16.6091 53.9181 16.7351 54.0534 16.7794C53.9601 16.8868 53.6964 17.1924 53.6964 17.1924C53.6871 17.2041 53.6801 17.2204 53.6801 17.2344C53.6801 17.2414 53.6801 17.2484 53.6824 17.2531C53.6894 17.2764 53.7081 17.2928 53.7291 17.2974C53.7291 17.2974 54.1234 17.3884 54.2634 17.4211C54.1794 17.5378 53.9414 17.8621 53.9414 17.8621C53.9344 17.8738 53.9297 17.8878 53.9297 17.9018C53.9297 17.9111 53.9321 17.9181 53.9344 17.9274C53.9437 17.9508 53.9647 17.9648 53.9857 17.9671C53.9857 17.9671 54.3894 18.0208 54.5294 18.0418C54.4571 18.1631 54.2494 18.5108 54.2494 18.5108C54.2424 18.5201 54.2401 18.5341 54.2401 18.5458C54.2401 18.5551 54.2424 18.5691 54.2471 18.5784C54.2564 18.5971 54.2797 18.6111 54.3007 18.6134C54.3007 18.6134 54.7067 18.6321 54.8491 18.6391C54.7884 18.7674 54.6111 19.1338 54.6111 19.1338C54.6064 19.1431 54.6041 19.1524 54.6041 19.1618C54.6041 19.1734 54.6087 19.1874 54.6134 19.1991C54.6251 19.2178 54.6484 19.2294 54.6694 19.2294C54.6694 19.2294 55.0754 19.2131 55.2154 19.2038C55.1664 19.3368 55.0264 19.7171 55.0264 19.7171C55.0241 19.7241 55.0217 19.7311 55.0217 19.7404C55.0217 19.7544 55.0264 19.7708 55.0357 19.7824C55.0497 19.7988 55.0731 19.8104 55.0941 19.8081C55.0941 19.8081 55.4977 19.7568 55.6377 19.7358C55.6004 19.8711 55.4931 20.2631 55.4931 20.2631C55.4907 20.2678 55.4907 20.2748 55.4907 20.2794C55.4907 20.2958 55.4977 20.3121 55.5071 20.3238C55.5211 20.3401 55.5467 20.3494 55.5677 20.3424C55.5677 20.3424 55.9621 20.2538 56.1021 20.2211C56.0764 20.3611 56.0064 20.7601 56.0064 20.7601V20.7718C56.0064 20.7904 56.0134 20.8091 56.0297 20.8208C56.0461 20.8348 56.0717 20.8394 56.0951 20.8324C56.0951 20.8324 56.4801 20.7088 56.6154 20.6644C56.6037 20.8044 56.5687 21.2104 56.5687 21.2104V21.2151C56.5687 21.2338 56.5781 21.2548 56.5967 21.2664C56.6154 21.2781 56.6387 21.2828 56.6621 21.2734C56.6621 21.2734 57.0354 21.1148 57.1661 21.0588V21.6071C57.1661 21.6304 57.1777 21.6514 57.1987 21.6631C57.2174 21.6748 57.2431 21.6748 57.2641 21.6654C57.2641 21.6654 57.6211 21.4718 57.7471 21.4064C57.7587 21.5464 57.7961 21.9524 57.7961 21.9524C57.7984 21.9758 57.8124 21.9944 57.8334 22.0061C57.8521 22.0154 57.8777 22.0131 57.8987 22.0014C57.8987 22.0014 58.2371 21.7798 58.3561 21.7004C58.3817 21.8404 58.4541 22.2394 58.4541 22.2394C58.4587 22.2628 58.4727 22.2814 58.4961 22.2884C58.5194 22.2954 58.5427 22.2931 58.5614 22.2791C58.5614 22.2791 58.8811 22.0271 58.9907 21.9384C59.0281 22.0738 59.1354 22.4658 59.1354 22.4658C59.1401 22.4891 59.1611 22.5054 59.1821 22.5101C59.2031 22.5148 59.2287 22.5101 59.2427 22.4961C59.2427 22.4961 59.5367 22.2161 59.6371 22.1181C59.6861 22.2511 59.8331 22.6314 59.8331 22.6314C59.8401 22.6548 59.8611 22.6688 59.8821 22.6734C59.9031 22.6781 59.9287 22.6688 59.9427 22.6501C59.9427 22.6501 60.2087 22.3468 60.3044 22.2371C60.3651 22.3654 60.5424 22.7318 60.5424 22.7318C60.5517 22.7504 60.5727 22.7668 60.5961 22.7691C60.6194 22.7714 60.6404 22.7621 60.6544 22.7411C60.6544 22.7411 60.8947 22.4121 60.9787 22.3001C61.0534 22.4214 61.2611 22.7691 61.2611 22.7691C61.2727 22.7878 61.2937 22.8018 61.3171 22.8018C61.3404 22.8018 61.3614 22.7901 61.3731 22.7691C61.3731 22.7691 61.5831 22.4214 61.6554 22.3001C61.7394 22.4144 61.9774 22.7411 61.9774 22.7411C61.9891 22.7598 62.0147 22.7714 62.0357 22.7691C62.0567 22.7668 62.0777 22.7551 62.0894 22.7318C62.0894 22.7318 62.2667 22.3654 62.3297 22.2371C62.4231 22.3444 62.6914 22.6501 62.6914 22.6501C62.7054 22.6664 62.7311 22.6758 62.7521 22.6734C62.7754 22.6688 62.7941 22.6548 62.8011 22.6314C62.8011 22.6314 62.9434 22.2511 62.9947 22.1204C63.0974 22.2184 63.3891 22.4984 63.3891 22.4984C63.4054 22.5124 63.4287 22.5218 63.4497 22.5124C63.4731 22.5078 63.4894 22.4891 63.4941 22.4681C63.4941 22.4681 63.6037 22.0784 63.6434 21.9408C63.7554 22.0294 64.0727 22.2814 64.0727 22.2814C64.0891 22.2954 64.1147 22.2978 64.1381 22.2908C64.1614 22.2838 64.1754 22.2628 64.1801 22.2418C64.1801 22.2418 64.2547 21.8451 64.2781 21.7028C64.3971 21.7821 64.7377 22.0038 64.7377 22.0038C64.7564 22.0154 64.7821 22.0178 64.8031 22.0084C64.8241 21.9991 64.8381 21.9781 64.8404 21.9571C64.8404 21.9571 64.8777 21.5511 64.8894 21.4111C65.0154 21.4788 65.3701 21.6678 65.3701 21.6678C65.3887 21.6771 65.4144 21.6771 65.4354 21.6654C65.4564 21.6538 65.4681 21.6328 65.4681 21.6094V21.0634C65.5987 21.1171 65.9744 21.2758 65.9744 21.2758C65.9977 21.2851 66.0187 21.2804 66.0397 21.2688C66.0561 21.2571 66.0677 21.2361 66.0677 21.2174V21.2128C66.0677 21.2128 66.0327 20.8068 66.0211 20.6668C66.1564 20.7111 66.5414 20.8348 66.5414 20.8348C66.5647 20.8418 66.5881 20.8371 66.6067 20.8231C66.6207 20.8114 66.6301 20.7928 66.6301 20.7741V20.7624C66.6301 20.7624 66.5601 20.3728 66.5344 20.2281C66.6791 20.2678 67.1131 20.3891 67.1131 20.3891C67.1364 20.3961 67.1621 20.3891 67.1784 20.3728C67.1901 20.3611 67.1947 20.3424 67.1947 20.3284C67.1947 20.3214 67.1947 20.3144 67.1924 20.3098C67.1924 20.3098 67.0547 19.8851 67.0081 19.7404C67.1527 19.7591 67.5471 19.8128 67.5471 19.8128C67.5704 19.8151 67.5914 19.8081 67.6054 19.7871C67.6147 19.7754 67.6194 19.7591 67.6194 19.7451C67.6194 19.7381 67.6171 19.7311 67.6147 19.7218C67.6147 19.7218 67.4747 19.3414 67.4257 19.2084C67.5681 19.2154 67.9741 19.2341 67.9741 19.2341C67.9974 19.2341 68.0184 19.2248 68.0301 19.2038C68.0371 19.1944 68.0394 19.1781 68.0394 19.1664C68.0394 19.1571 68.0371 19.1478 68.0324 19.1361C68.0324 19.1361 67.8574 18.7674 67.7944 18.6391C67.9367 18.6321 68.3427 18.6134 68.3427 18.6134C68.3661 18.6134 68.3871 18.5994 68.3964 18.5784C68.4011 18.5691 68.4034 18.5598 68.4034 18.5458C68.4034 18.5318 68.4011 18.5224 68.3941 18.5108C68.3941 18.5108 68.1864 18.1631 68.1141 18.0418C68.2541 18.0231 68.6577 17.9671 68.6577 17.9671C68.6811 17.9648 68.6997 17.9508 68.7091 17.9274C68.7114 17.9204 68.7137 17.9111 68.7137 17.9018C68.7137 17.8901 68.7091 17.8738 68.7021 17.8621C68.7021 17.8621 68.4641 17.5331 68.3801 17.4164C68.5177 17.3838 68.9144 17.2928 68.9144 17.2928C68.9377 17.2881 68.9541 17.2694 68.9611 17.2484C68.9634 17.2414 68.9634 17.2368 68.9634 17.2298C68.9634 17.2158 68.9587 17.1971 68.9494 17.1878C68.9494 17.1878 68.6834 16.8821 68.5924 16.7748C68.7277 16.7304 69.1127 16.6044 69.1127 16.6044C69.1361 16.5974 69.1524 16.5788 69.1571 16.5578C69.1571 16.5531 69.1594 16.5484 69.1594 16.5438C69.1594 16.5274 69.1524 16.5088 69.1407 16.4971C69.1407 16.4971 68.8491 16.2148 68.7464 16.1191C68.8771 16.0631 69.2504 15.9021 69.2504 15.9021C69.2737 15.8928 69.2877 15.8718 69.2901 15.8508V15.8414C69.2901 15.8228 69.2807 15.8018 69.2644 15.7901C69.2644 15.7901 68.9494 15.5358 68.8374 15.4494C68.9634 15.3818 69.3181 15.1904 69.3181 15.1904C69.3367 15.1811 69.3507 15.1578 69.3531 15.1368C69.3531 15.1111 69.3437 15.0924 69.3227 15.0808C69.3227 15.0808 68.9844 14.8568 68.8654 14.7774C68.9844 14.6981 69.3227 14.4741 69.3227 14.4741C69.3391 14.4624 69.3531 14.4414 69.3531 14.4204C69.3531 14.3948 69.3391 14.3738 69.3181 14.3644C69.3181 14.3644 68.9634 14.1708 68.8374 14.1054C68.9494 14.0168 69.2644 13.7624 69.2644 13.7624C69.2784 13.7508 69.2901 13.7298 69.2901 13.7111V13.7018C69.2877 13.6784 69.2737 13.6598 69.2504 13.6504C69.2504 13.6504 68.8794 13.4894 68.7464 13.4358C68.8491 13.3378 69.1407 13.0624 69.1407 13.0624C69.1524 13.0508 69.1594 13.0321 69.1594 13.0158C69.1594 13.0111 69.1594 13.0064 69.1571 13.0018C69.1524 12.9784 69.1337 12.9598 69.1127 12.9551C69.1127 12.9551 68.7301 12.8314 68.5947 12.7894C68.6881 12.6798 68.9564 12.3764 68.9564 12.3764C68.9657 12.3648 68.9727 12.3484 68.9727 12.3344C68.9727 12.3274 68.9727 12.3228 68.9704 12.3158C68.9634 12.2924 68.9447 12.2761 68.9237 12.2714C68.9237 12.2714 68.5294 12.1804 68.3894 12.1478C68.4734 12.0311 68.7114 11.7021 68.7114 11.7021C68.7184 11.6904 68.7231 11.6764 68.7231 11.6624C68.7231 11.6531 68.7207 11.6461 68.7184 11.6368C68.7091 11.6134 68.6881 11.5994 68.6671 11.5971C68.6671 11.5971 68.2681 11.5434 68.1257 11.5224C68.1981 11.4011 68.4081 11.0511 68.4081 11.0511C68.4127 11.0418 68.4174 11.0278 68.4174 11.0161C68.4174 11.0068 68.4151 10.9928 68.4104 10.9834C68.4011 10.9648 68.3777 10.9484 68.3567 10.9484C68.3567 10.9484 67.9507 10.9298 67.8084 10.9204C67.8691 10.7921 68.0464 10.4258 68.0464 10.4258C68.0511 10.4164 68.0534 10.4071 68.0534 10.3978C68.0534 10.3861 68.0511 10.3721 68.0441 10.3604C68.0324 10.3418 68.0091 10.3301 67.9881 10.3301C67.9881 10.3301 67.5821 10.3464 67.4397 10.3534C67.4887 10.2204 67.6334 9.84009 67.6334 9.84009C67.6357 9.83309 67.6381 9.82609 67.6381 9.81676C67.6381 9.80276 67.6334 9.78642 67.6241 9.77476C67.6101 9.75842 67.5867 9.74676 67.5657 9.74909C67.5657 9.74909 67.1621 9.80276 67.0221 9.82142C67.0594 9.68609 67.1667 9.29409 67.1667 9.29409C67.1691 9.28942 67.1691 9.28242 67.1691 9.27776C67.1691 9.26142 67.1621 9.24509 67.1527 9.23342C67.1387 9.21709 67.1131 9.20776 67.0921 9.21476C67.0921 9.21476 66.6977 9.30342 66.5577 9.33609C66.5834 9.19609 66.6534 8.79709 66.6534 8.79709V8.78542C66.6534 8.76676 66.6464 8.74809 66.6301 8.73642C66.6137 8.72242 66.5881 8.71776 66.5647 8.72476C66.5647 8.72476 66.1774 8.84842 66.0444 8.89276C66.0561 8.75276 66.0934 8.34676 66.0934 8.34676V8.34209C66.0934 8.32342 66.0841 8.30242 66.0654 8.29076C66.0467 8.27909 66.0234 8.27442 66.0001 8.28376C66.0001 8.28376 65.6267 8.44242 65.4961 8.49609V7.94776C65.4961 7.92442 65.4844 7.90342 65.4634 7.89176C65.4424 7.88009 65.4191 7.88009 65.3981 7.88942C65.3981 7.88942 65.0411 8.07842 64.9151 8.14609C64.9034 8.00609 64.8661 7.60009 64.8661 7.60009C64.8637 7.57676 64.8497 7.55809 64.8287 7.54642C64.8101 7.53709 64.7844 7.53942 64.7634 7.55109C64.7634 7.55109 64.4251 7.77276 64.3061 7.84976C64.2804 7.70976 64.2081 7.31076 64.2081 7.31076C64.2034 7.28742 64.1894 7.26876 64.1661 7.26176C64.1427 7.25476 64.1194 7.25709 64.1007 7.27109C64.1007 7.27109 63.7811 7.52309 63.6714 7.61176C63.6341 7.47642 63.5267 7.08442 63.5267 7.08442C63.5197 7.06109 63.5011 7.04476 63.4801 7.03776C63.4591 7.03076 63.4334 7.03776 63.4194 7.05176C63.4194 7.05176 63.1254 7.33176 63.0227 7.42976C62.9737 7.29676 62.8291 6.91642 62.8291 6.91642C62.8221 6.89309 62.8011 6.87909 62.7801 6.87442C62.7591 6.86976 62.7334 6.87909 62.7194 6.89776C62.7194 6.89776 62.4534 7.20109 62.3577 7.30842C62.2971 7.18009 62.1197 6.81376 62.1197 6.81376C62.1104 6.79509 62.0894 6.77876 62.0661 6.77642C62.0427 6.77409 62.0217 6.78342 62.0077 6.80442C62.0077 6.80442 61.7651 7.13576 61.6834 7.25009C61.6087 7.13109 61.3917 6.78576 61.3917 6.78576C61.3637 6.78109 61.3427 6.76942 61.3194 6.76942L61.3101 6.76709ZM60.9811 7.44609C61.0044 7.44609 61.0231 7.43442 61.0347 7.41342C61.0347 7.41342 61.2354 7.08209 61.3124 6.95609C61.3917 7.08209 61.5994 7.41109 61.5994 7.41109C61.6111 7.42742 61.6321 7.44142 61.6531 7.44142C61.6741 7.44142 61.6951 7.43209 61.7067 7.41342C61.7067 7.41342 61.9331 7.10309 62.0217 6.97942C62.0894 7.11476 62.2574 7.46242 62.2574 7.46242C62.2667 7.48109 62.2854 7.49742 62.3064 7.49976C62.3274 7.50209 62.3507 7.49509 62.3647 7.47642C62.3647 7.47642 62.6191 7.18709 62.7194 7.07276C62.7707 7.21276 62.9084 7.57676 62.9084 7.57676C62.9154 7.59542 62.9341 7.61409 62.9551 7.61876C62.9761 7.62342 62.9994 7.61876 63.0134 7.60242C63.0134 7.60242 63.2934 7.33642 63.4031 7.23142C63.4427 7.37609 63.5454 7.74942 63.5454 7.74942C63.5501 7.77276 63.5687 7.78676 63.5874 7.79376C63.6107 7.80076 63.6317 7.79609 63.6481 7.78442C63.6481 7.78442 63.9491 7.54409 64.0681 7.45076C64.0961 7.60009 64.1637 7.97809 64.1637 7.97809C64.1684 8.00142 64.1801 8.01776 64.2034 8.02709C64.2221 8.03409 64.2477 8.03409 64.2641 8.02242C64.2641 8.02242 64.5884 7.81009 64.7144 7.72842C64.7261 7.88009 64.7634 8.26509 64.7634 8.26509C64.7657 8.28842 64.7774 8.30709 64.7984 8.31642C64.8194 8.32576 64.8404 8.32576 64.8591 8.31642C64.8591 8.31642 65.1997 8.13442 65.3327 8.06442V8.60342C65.3327 8.62676 65.3421 8.64542 65.3631 8.65709C65.3794 8.66876 65.4051 8.67109 65.4237 8.66176C65.4237 8.66176 65.7784 8.51009 65.9184 8.45176C65.9067 8.60342 65.8717 8.98609 65.8717 8.98609V8.99076C65.8717 9.00942 65.8811 9.03042 65.8974 9.04209C65.9137 9.05609 65.9371 9.05842 65.9581 9.05376C65.9581 9.05376 66.3267 8.93476 66.4691 8.88809C66.4411 9.03742 66.3734 9.41542 66.3734 9.41542V9.42709C66.3734 9.44342 66.3804 9.46209 66.3921 9.47376C66.4061 9.48776 66.4317 9.49709 66.4504 9.49009C66.4504 9.49009 66.8284 9.40609 66.9731 9.37109C66.9334 9.51576 66.8307 9.88909 66.8307 9.88909C66.8284 9.89376 66.8284 9.90076 66.8284 9.90542C66.8284 9.91942 66.8331 9.93809 66.8447 9.94742C66.8587 9.96376 66.8821 9.97309 66.9031 9.97076C66.9031 9.97076 67.2857 9.91942 67.4374 9.89842C67.3861 10.0384 67.2507 10.4024 67.2507 10.4024C67.2484 10.4094 67.2461 10.4164 67.2461 10.4258C67.2461 10.4398 67.2507 10.4538 67.2577 10.4654C67.2694 10.4818 67.2927 10.4934 67.3137 10.4934C67.3137 10.4934 67.6987 10.4771 67.8504 10.4701C67.7827 10.6054 67.6194 10.9531 67.6194 10.9531C67.6147 10.9624 67.6124 10.9718 67.6124 10.9834C67.6124 10.9951 67.6147 11.0068 67.6217 11.0184C67.6334 11.0371 67.6544 11.0511 67.6754 11.0511C67.6754 11.0511 68.0604 11.0698 68.2121 11.0791C68.1351 11.2074 67.9344 11.5411 67.9344 11.5411C67.9297 11.5504 67.9251 11.5644 67.9251 11.5761C67.9251 11.5854 67.9274 11.5948 67.9321 11.6041C67.9414 11.6228 67.9624 11.6391 67.9811 11.6414C67.9811 11.6414 68.3637 11.6928 68.5131 11.7161C68.4244 11.8398 68.1981 12.1501 68.1981 12.1501C68.1911 12.1618 68.1864 12.1758 68.1864 12.1898C68.1864 12.1968 68.1887 12.2038 68.1911 12.2131C68.1981 12.2318 68.2167 12.2504 68.2377 12.2551C68.2377 12.2551 68.6134 12.3414 68.7604 12.3764C68.6624 12.4908 68.4081 12.7824 68.4081 12.7824C68.3987 12.7941 68.3917 12.8104 68.3917 12.8244C68.3917 12.8291 68.3917 12.8361 68.3941 12.8408C68.3987 12.8641 68.4174 12.8781 68.4361 12.8851C68.4361 12.8851 68.8001 13.0018 68.9447 13.0484C68.8327 13.1511 68.5597 13.4148 68.5597 13.4148C68.5481 13.4264 68.5411 13.4451 68.5411 13.4614V13.4731C68.5457 13.4964 68.5597 13.5128 68.5807 13.5221C68.5807 13.5221 68.9354 13.6761 69.0754 13.7344C68.9564 13.8278 68.6554 14.0704 68.6554 14.0704C68.6414 14.0821 68.6297 14.1031 68.6297 14.1218V14.1264C68.6321 14.1498 68.6437 14.1684 68.6647 14.1778C68.6647 14.1778 69.0031 14.3598 69.1361 14.4321C69.0101 14.5161 68.6881 14.7284 68.6881 14.7284C68.6717 14.7401 68.6577 14.7611 68.6577 14.7821C68.6577 14.8054 68.6671 14.8241 68.6881 14.8358C68.6881 14.8358 69.0101 15.0504 69.1361 15.1321C69.0031 15.2044 68.6624 15.3864 68.6624 15.3864C68.6437 15.3958 68.6297 15.4168 68.6274 15.4378V15.4424C68.6274 15.4611 68.6367 15.4821 68.6531 15.4938C68.6531 15.4938 68.9541 15.7364 69.0731 15.8298C68.9354 15.8881 68.5784 16.0421 68.5784 16.0421C68.5597 16.0514 68.5434 16.0701 68.5387 16.0911V16.1028C68.5387 16.1191 68.5457 16.1378 68.5574 16.1494C68.5574 16.1494 68.8374 16.4154 68.9447 16.5228C68.8024 16.5694 68.4337 16.6908 68.4337 16.6908C68.4151 16.6978 68.3964 16.7164 68.3917 16.7351C68.3894 16.7398 68.3894 16.7468 68.3894 16.7514C68.3894 16.7654 68.3941 16.7841 68.4034 16.7934C68.4034 16.7934 68.6577 17.0851 68.7557 17.1994C68.6064 17.2344 68.2331 17.3208 68.2331 17.3208C68.2097 17.3254 68.1934 17.3394 68.1864 17.3628C68.1841 17.3698 68.1817 17.3768 68.1817 17.3861C68.1817 17.4001 68.1864 17.4141 68.1934 17.4258C68.1934 17.4258 68.4197 17.7384 68.5084 17.8598C68.3591 17.8784 67.9764 17.9344 67.9764 17.9344C67.9531 17.9368 67.9367 17.9508 67.9274 17.9718C67.9227 17.9811 67.9204 17.9904 67.9204 18.0021C67.9204 18.0138 67.9227 18.0254 67.9297 18.0371C67.9297 18.0371 68.1281 18.3684 68.2027 18.4991C68.0511 18.5061 67.6661 18.5248 67.6661 18.5248C67.6427 18.5248 67.6241 18.5364 67.6124 18.5574C67.6077 18.5668 67.6031 18.5808 67.6031 18.5924C67.6031 18.6018 67.6054 18.6111 67.6101 18.6228C67.6101 18.6228 67.7781 18.9704 67.8411 19.1081C67.6894 19.1011 67.3021 19.0824 67.3021 19.0824C67.2787 19.0824 67.2601 19.0918 67.2461 19.1104C67.2391 19.1221 67.2344 19.1361 67.2344 19.1501C67.2344 19.1571 67.2367 19.1641 67.2391 19.1734C67.2391 19.1734 67.3744 19.5351 67.4257 19.6774C67.2741 19.6588 66.8914 19.6051 66.8914 19.6051C66.8681 19.6028 66.8471 19.6098 66.8331 19.6284C66.8237 19.6401 66.8191 19.6564 66.8191 19.6704C66.8191 19.6774 66.8191 19.6844 66.8214 19.6891C66.8214 19.6891 66.9497 20.0834 67.0011 20.2421C66.8401 20.1978 66.4411 20.0858 66.4411 20.0858C66.4177 20.0811 66.3967 20.0858 66.3804 20.0998C66.3664 20.1114 66.3571 20.1301 66.3571 20.1488V20.1604C66.3571 20.1604 66.4271 20.5408 66.4527 20.6878C66.3104 20.6411 65.9417 20.5221 65.9417 20.5221C65.9231 20.5151 65.8974 20.5198 65.8811 20.5338C65.8671 20.5454 65.8554 20.5664 65.8554 20.5851V20.5898C65.8554 20.5898 65.8904 20.9748 65.9021 21.1264C65.7644 21.0681 65.4051 20.9164 65.4051 20.9164C65.3864 20.9094 65.3607 20.9094 65.3444 20.9211C65.3281 20.9328 65.3141 20.9538 65.3141 20.9748V21.5114C65.1811 21.4391 64.8427 21.2594 64.8427 21.2594C64.8241 21.2501 64.8007 21.2501 64.7821 21.2594C64.7634 21.2688 64.7494 21.2898 64.7471 21.3108C64.7471 21.3108 64.7121 21.6958 64.6981 21.8474C64.5721 21.7634 64.2454 21.5511 64.2454 21.5511C64.2291 21.5394 64.2034 21.5371 64.1847 21.5464C64.1661 21.5558 64.1497 21.5744 64.1451 21.5954C64.1451 21.5954 64.0751 21.9758 64.0494 22.1228C63.9304 22.0294 63.6271 21.7891 63.6271 21.7891C63.6107 21.7774 63.5874 21.7728 63.5664 21.7798C63.5477 21.7868 63.5291 21.8054 63.5244 21.8241C63.5244 21.8241 63.4217 22.1974 63.3821 22.3398C63.2724 22.2371 62.9947 21.9688 62.9947 21.9688C62.9807 21.9548 62.9551 21.9454 62.9364 21.9524C62.9131 21.9571 62.8967 21.9711 62.8897 21.9944C62.8897 21.9944 62.7544 22.3561 62.7007 22.4984C62.6027 22.3841 62.3484 22.0948 62.3484 22.0948C62.3344 22.0784 62.3111 22.0691 62.2901 22.0714C62.2667 22.0738 62.2504 22.0878 62.2411 22.1088C62.2411 22.1088 62.0731 22.4564 62.0054 22.5918C61.9167 22.4704 61.6904 22.1601 61.6904 22.1601C61.6787 22.1438 61.6554 22.1321 61.6344 22.1321C61.6134 22.1321 61.5924 22.1438 61.5807 22.1648C61.5807 22.1648 61.3801 22.4961 61.3031 22.6268C61.2261 22.4984 61.0254 22.1648 61.0254 22.1648C61.0137 22.1461 60.9927 22.1344 60.9717 22.1321C60.9484 22.1321 60.9297 22.1414 60.9157 22.1601C60.9157 22.1601 60.6894 22.4704 60.6007 22.5941C60.5331 22.4588 60.3651 22.1111 60.3651 22.1111C60.3557 22.0924 60.3347 22.0761 60.3161 22.0738C60.2927 22.0714 60.2717 22.0784 60.2577 22.0971C60.2577 22.0971 60.0034 22.3888 59.9054 22.5031C59.8517 22.3631 59.7164 21.9991 59.7164 21.9991C59.7094 21.9804 59.6907 21.9618 59.6697 21.9594C59.6464 21.9548 59.6254 21.9618 59.6114 21.9758C59.6114 21.9758 59.3314 22.2418 59.2241 22.3468C59.1844 22.2021 59.0817 21.8288 59.0817 21.8288C59.0771 21.8054 59.0584 21.7914 59.0397 21.7844C59.0211 21.7774 58.9954 21.7821 58.9791 21.7938C58.9791 21.7938 58.6757 22.0341 58.5591 22.1274C58.5311 21.9781 58.4634 21.6001 58.4634 21.6001C58.4587 21.5768 58.4447 21.5604 58.4237 21.5511C58.4051 21.5418 58.3794 21.5441 58.3631 21.5558C58.3631 21.5558 58.0387 21.7681 57.9127 21.8521C57.8987 21.7004 57.8637 21.3178 57.8637 21.3178C57.8614 21.2944 57.8497 21.2758 57.8287 21.2664C57.8077 21.2571 57.7867 21.2571 57.7681 21.2664C57.7681 21.2664 57.4274 21.4484 57.2944 21.5208V20.9818C57.2944 20.9584 57.2827 20.9398 57.2641 20.9281C57.2454 20.9164 57.2221 20.9141 57.2034 20.9234C57.2034 20.9234 56.8487 21.0751 56.7087 21.1334C56.7204 20.9818 56.7554 20.5968 56.7554 20.5968V20.5921C56.7554 20.5734 56.7461 20.5524 56.7297 20.5408C56.7134 20.5268 56.6901 20.5244 56.6691 20.5291C56.6691 20.5291 56.3004 20.6481 56.1581 20.6948C56.1861 20.5454 56.2537 20.1674 56.2537 20.1674V20.1558C56.2537 20.1394 56.2467 20.1208 56.2351 20.1091C56.2211 20.0951 56.1954 20.0858 56.1767 20.0928C56.1767 20.0928 55.8011 20.1768 55.6541 20.2118C55.6937 20.0671 55.7964 19.6938 55.7964 19.6938C55.7987 19.6891 55.7987 19.6821 55.7987 19.6774C55.7987 19.6634 55.7941 19.6448 55.7824 19.6354C55.7684 19.6191 55.7451 19.6098 55.7241 19.6121C55.7241 19.6121 55.3414 19.6611 55.1897 19.6821C55.2411 19.5421 55.3764 19.1781 55.3764 19.1781C55.3787 19.1711 55.3811 19.1641 55.3811 19.1548C55.3811 19.1408 55.3764 19.1268 55.3694 19.1151C55.3577 19.0988 55.3344 19.0871 55.3134 19.0871C55.3134 19.0871 54.9284 19.1034 54.7767 19.1104C54.8421 18.9751 55.0077 18.6274 55.0077 18.6274C55.0124 18.6181 55.0147 18.6088 55.0147 18.5994C55.0147 18.5878 55.0124 18.5761 55.0054 18.5644C54.9937 18.5458 54.9727 18.5318 54.9517 18.5318C54.9517 18.5318 54.5667 18.5154 54.4151 18.5061C54.4921 18.3778 54.6881 18.0441 54.6881 18.0441C54.6951 18.0348 54.6974 18.0208 54.6974 18.0091C54.6974 17.9998 54.6951 17.9904 54.6904 17.9788C54.6811 17.9601 54.6601 17.9438 54.6414 17.9414C54.6414 17.9414 54.2587 17.8901 54.1071 17.8668C54.1957 17.7454 54.4197 17.4328 54.4197 17.4328C54.4267 17.4211 54.4314 17.4071 54.4314 17.3931C54.4314 17.3861 54.4291 17.3791 54.4267 17.3698C54.4197 17.3511 54.4011 17.3324 54.3801 17.3278C54.3801 17.3278 54.0021 17.2414 53.8574 17.2064C53.9554 17.0921 54.2097 16.8004 54.2097 16.8004C54.2191 16.7888 54.2261 16.7724 54.2261 16.7584C54.2261 16.7538 54.2261 16.7468 54.2237 16.7421C54.2191 16.7188 54.2004 16.7048 54.1817 16.6978C54.1817 16.6978 53.8131 16.5764 53.6707 16.5298C53.7804 16.4271 54.0581 16.1588 54.0581 16.1588C54.0697 16.1471 54.0767 16.1284 54.0767 16.1121V16.1004C54.0721 16.0771 54.0604 16.0608 54.0371 16.0514C54.0371 16.0514 53.6824 15.8974 53.5424 15.8391C53.6614 15.7458 53.9624 15.5031 53.9624 15.5031C53.9764 15.4914 53.9881 15.4704 53.9881 15.4518V15.4471C53.9857 15.4238 53.9741 15.4051 53.9531 15.3958C53.9531 15.3958 53.6124 15.2114 53.4817 15.1391C53.6077 15.0551 53.9297 14.8428 53.9297 14.8428C53.9461 14.8311 53.9601 14.8101 53.9601 14.7891C53.9601 14.7658 53.9507 14.7471 53.9297 14.7354C53.9297 14.7354 53.6077 14.5208 53.4817 14.4391C53.6147 14.3668 53.9554 14.1824 53.9554 14.1824C53.9741 14.1731 53.9881 14.1521 53.9904 14.1311V14.1264C53.9904 14.1078 53.9811 14.0868 53.9647 14.0751C53.9647 14.0751 53.6637 13.8324 53.5447 13.7391C53.6824 13.6808 54.0394 13.5268 54.0394 13.5268C54.0581 13.5174 54.0744 13.4988 54.0791 13.4778V13.4661C54.0791 13.4498 54.0721 13.4311 54.0604 13.4194C54.0604 13.4194 53.7804 13.1534 53.6731 13.0484C53.8154 13.0018 54.1817 12.8828 54.1817 12.8828C54.2004 12.8758 54.2191 12.8571 54.2237 12.8384C54.2261 12.8338 54.2261 12.8268 54.2261 12.8221C54.2261 12.8081 54.2214 12.7894 54.2097 12.7801C54.2097 12.7801 53.9554 12.4884 53.8574 12.3741C54.0067 12.3391 54.3801 12.2528 54.3801 12.2528C54.4034 12.2481 54.4197 12.2341 54.4267 12.2108C54.4291 12.2038 54.4314 12.1968 54.4314 12.1874C54.4314 12.1734 54.4267 12.1594 54.4197 12.1478C54.4197 12.1478 54.1934 11.8351 54.1047 11.7138C54.2564 11.6951 54.6391 11.6391 54.6391 11.6391C54.6624 11.6368 54.6787 11.6228 54.6881 11.6018C54.6927 11.5924 54.6951 11.5831 54.6951 11.5714C54.6951 11.5598 54.6927 11.5481 54.6857 11.5364C54.6857 11.5364 54.4874 11.2051 54.4127 11.0744C54.5644 11.0674 54.9494 11.0488 54.9494 11.0488C54.9727 11.0488 54.9914 11.0371 55.0031 11.0161C55.0077 11.0068 55.0124 10.9928 55.0124 10.9811C55.0124 10.9718 55.0101 10.9624 55.0054 10.9531C55.0054 10.9531 54.8374 10.6054 54.7744 10.4701C54.9261 10.4771 55.3111 10.4934 55.3111 10.4934C55.3344 10.4934 55.3531 10.4841 55.3671 10.4654C55.3741 10.4538 55.3787 10.4398 55.3787 10.4258C55.3787 10.4188 55.3764 10.4118 55.3741 10.4024C55.3741 10.4024 55.2387 10.0408 55.1874 9.89842C55.3391 9.91709 55.7217 9.97076 55.7217 9.97076C55.7451 9.97309 55.7661 9.96609 55.7801 9.94742C55.7894 9.93576 55.7964 9.91942 55.7964 9.90542C55.7964 9.90076 55.7964 9.89376 55.7941 9.88909C55.7941 9.88909 55.6937 9.51576 55.6541 9.37109C55.8034 9.40609 56.1767 9.49009 56.1767 9.49009C56.2001 9.49476 56.2211 9.49009 56.2351 9.47376C56.2467 9.46209 56.2537 9.44342 56.2537 9.42709V9.41542C56.2537 9.41542 56.1837 9.03509 56.1604 8.88809C56.3027 8.93476 56.6714 9.05376 56.6714 9.05376C56.6901 9.06076 56.7157 9.05609 56.7321 9.04209C56.7461 9.03042 56.7577 9.00942 56.7577 8.99076V8.98609C56.7577 8.98609 56.7227 8.60109 56.7111 8.44942C56.8487 8.50776 57.2057 8.65942 57.2057 8.65942C57.2244 8.66642 57.2501 8.66642 57.2664 8.65476C57.2827 8.64309 57.2967 8.62209 57.2967 8.60109V8.06209C57.4297 8.13442 57.7704 8.31642 57.7704 8.31642C57.7891 8.32576 57.8124 8.32576 57.8311 8.31642C57.8497 8.30709 57.8637 8.28609 57.8661 8.26509C57.8661 8.26509 57.9011 7.88009 57.9151 7.72842C58.0411 7.81242 58.3654 8.02242 58.3654 8.02242C58.3817 8.03409 58.4074 8.03642 58.4261 8.02709C58.4447 8.02009 58.4611 7.99909 58.4657 7.97809C58.4657 7.97809 58.5357 7.59776 58.5614 7.45076C58.6804 7.54409 58.9814 7.78442 58.9814 7.78442C58.9977 7.79842 59.0211 7.80076 59.0421 7.79376C59.0607 7.78676 59.0794 7.76809 59.0841 7.74942C59.0841 7.74942 59.1867 7.37609 59.2264 7.23142C59.3361 7.33409 59.6161 7.60242 59.6161 7.60242C59.6301 7.61642 59.6557 7.62576 59.6744 7.61876C59.6977 7.61409 59.7141 7.60009 59.7211 7.57909C59.7211 7.57909 59.8564 7.21742 59.9101 7.07742C60.0081 7.19176 60.2624 7.48342 60.2624 7.48342C60.2764 7.49976 60.2997 7.50909 60.3207 7.50676C60.3441 7.50442 60.3604 7.49042 60.3697 7.46942C60.3697 7.46942 60.5377 7.12176 60.6054 6.98642C60.6941 7.10776 60.9204 7.42042 60.9204 7.42042C60.9321 7.43442 60.9554 7.44609 60.9764 7.44609H60.9811Z" fill="#EE2E24"/>
<path d="M66.6463 10.3206L66.1237 10.8433C66.112 10.8549 66.1073 10.8713 66.105 10.8853C66.105 10.8853 66.091 11.1023 66.0887 11.1419C66.0537 11.1769 63.837 13.3936 63.802 13.4286C63.7623 13.4309 63.5453 13.4449 63.5453 13.4449C63.5313 13.4449 63.515 13.4519 63.5033 13.4636L62.9807 13.9863C62.969 13.9979 62.962 14.0166 62.962 14.0329C62.962 14.0493 62.969 14.0679 62.9807 14.0796L63.5267 14.6256C63.5383 14.6373 63.557 14.6443 63.5733 14.6443C63.5897 14.6443 63.6083 14.6373 63.62 14.6256L64.1427 14.1029C64.1543 14.0913 64.159 14.0749 64.1613 14.0609C64.1613 14.0609 64.1753 13.8439 64.1777 13.8043C64.2127 13.7693 66.4293 11.5526 66.4643 11.5176C66.5063 11.5153 66.721 11.5013 66.721 11.5013C66.735 11.5013 66.7513 11.4943 66.763 11.4826L67.2857 10.9599C67.2973 10.9483 67.3043 10.9296 67.3043 10.9133C67.3043 10.8969 67.2973 10.8783 67.2857 10.8666L66.7397 10.3206C66.7117 10.2949 66.6697 10.2949 66.6463 10.3206ZM66.693 10.4606C66.7653 10.5329 67.0757 10.8433 67.148 10.9156C67.0733 10.9903 66.7187 11.3449 66.6883 11.3753C66.6463 11.3776 66.4317 11.3916 66.4317 11.3916C66.4177 11.3916 66.4013 11.3986 66.3897 11.4103L64.068 13.7319C64.0563 13.7436 64.0517 13.7599 64.0493 13.7739C64.0493 13.7739 64.0353 13.9909 64.033 14.0306C64.0027 14.0609 63.648 14.4156 63.5733 14.4903C63.501 14.4179 63.1907 14.1076 63.1207 14.0353C63.1953 13.9606 63.55 13.6059 63.5803 13.5756C63.6223 13.5733 63.837 13.5593 63.837 13.5593C63.851 13.5593 63.8673 13.5523 63.879 13.5406L66.2007 11.2189C66.2123 11.2073 66.217 11.1909 66.2193 11.1769C66.2193 11.1769 66.2333 10.9599 66.2357 10.9203C66.2613 10.8899 66.6183 10.5353 66.693 10.4606ZM65.881 9.57393L65.3583 10.0966C65.3467 10.1083 65.342 10.1246 65.3397 10.1386C65.3397 10.1386 65.3257 10.3556 65.3233 10.3953C65.2883 10.4303 63.0717 12.6469 63.0367 12.6819C62.9947 12.6843 62.78 12.6983 62.78 12.6983C62.766 12.6983 62.7497 12.7053 62.738 12.7169L62.2153 13.2396C62.2037 13.2513 62.1967 13.2699 62.1967 13.2863C62.1967 13.3026 62.2037 13.3213 62.2153 13.3329L62.7613 13.8789C62.787 13.9046 62.829 13.9046 62.8547 13.8789L63.3773 13.3563C63.389 13.3446 63.3937 13.3283 63.396 13.3143C63.396 13.3143 63.41 13.0973 63.4123 13.0576C63.4473 13.0226 65.664 10.8059 65.699 10.7709C65.7387 10.7686 65.9557 10.7546 65.9557 10.7546C65.9697 10.7546 65.986 10.7476 65.9977 10.7359L66.5203 10.2133C66.532 10.2016 66.539 10.1829 66.539 10.1666C66.539 10.1503 66.532 10.1316 66.5203 10.1199L65.9743 9.57393C65.9463 9.54593 65.9043 9.54593 65.881 9.57393ZM65.9277 9.7116C66 9.78393 66.3103 10.0943 66.3827 10.1666C66.308 10.2413 65.9533 10.5959 65.923 10.6263C65.8833 10.6286 65.6663 10.6426 65.6663 10.6426C65.6523 10.6426 65.636 10.6496 65.6243 10.6613L63.3027 12.9829C63.291 12.9946 63.2863 13.0109 63.284 13.0249C63.284 13.0249 63.27 13.2419 63.2677 13.2816C63.2373 13.3119 62.8827 13.6666 62.808 13.7413C62.7357 13.6689 62.4253 13.3586 62.353 13.2863C62.4277 13.2116 62.7823 12.8569 62.8127 12.8266C62.8547 12.8243 63.0693 12.8103 63.0693 12.8103C63.0833 12.8103 63.0997 12.8033 63.1113 12.7916L65.433 10.4699C65.4447 10.4583 65.4493 10.4419 65.4517 10.4279C65.4517 10.4279 65.4657 10.2109 65.468 10.1713C65.496 10.1433 65.8507 9.78626 65.9277 9.7116ZM65.1693 8.79693C65.153 8.79693 65.1343 8.80393 65.1227 8.8156L64.6 9.33826C64.5883 9.34993 64.5837 9.36626 64.5813 9.38026C64.5813 9.38026 64.5673 9.59726 64.565 9.63693C64.53 9.67193 62.3133 11.8886 62.2783 11.9236C62.2363 11.9259 62.0217 11.9399 62.0217 11.9399C62.0077 11.9399 61.9913 11.9469 61.9797 11.9586L61.457 12.4813C61.4453 12.4929 61.4383 12.5116 61.4383 12.5279C61.4383 12.5443 61.4453 12.5629 61.457 12.5746L62.003 13.1206C62.0287 13.1463 62.0707 13.1463 62.0963 13.1206L62.619 12.5979C62.6307 12.5863 62.6353 12.5699 62.6377 12.5559C62.6377 12.5559 62.6517 12.3389 62.654 12.2993C62.689 12.2643 64.9057 10.0476 64.9407 10.0126C64.9827 10.0103 65.1973 9.99626 65.1973 9.99626C65.2113 9.99626 65.2277 9.98926 65.2393 9.9776L65.762 9.45493C65.7737 9.44326 65.7807 9.4246 65.7807 9.40826C65.7807 9.39193 65.7737 9.37326 65.762 9.3616L65.216 8.8156C65.2043 8.8016 65.1857 8.79693 65.1693 8.79693ZM65.1693 8.9556C65.2417 9.02793 65.552 9.33826 65.6243 9.4106C65.5497 9.48526 65.195 9.83993 65.1647 9.87026C65.1227 9.8726 64.908 9.8866 64.908 9.8866C64.894 9.8866 64.8777 9.8936 64.866 9.90526L62.5443 12.2269C62.5327 12.2386 62.528 12.2549 62.5257 12.2689C62.5257 12.2689 62.5117 12.4859 62.5093 12.5256C62.479 12.5559 62.1243 12.9106 62.0497 12.9853C61.9773 12.9129 61.667 12.6026 61.5947 12.5303C61.6693 12.4556 62.024 12.1009 62.0543 12.0706C62.094 12.0683 62.311 12.0543 62.311 12.0543C62.325 12.0543 62.3413 12.0473 62.353 12.0356L64.6747 9.71393C64.6863 9.70226 64.691 9.68593 64.6933 9.67193C64.6933 9.67193 64.7073 9.45493 64.7097 9.41526C64.74 9.38493 65.0947 9.03026 65.1693 8.9556ZM60.5563 16.4386C60.54 16.4386 60.5213 16.4456 60.5097 16.4573L59.987 16.9799C59.9753 16.9916 59.9707 17.0079 59.9683 17.0219C59.9683 17.0219 59.9543 17.2389 59.952 17.2786L57.6653 19.5653C57.6233 19.5676 57.4087 19.5816 57.4087 19.5816C57.3947 19.5816 57.3783 19.5886 57.3667 19.6003L56.844 20.1229C56.8323 20.1346 56.8253 20.1533 56.8253 20.1696C56.8253 20.1859 56.8323 20.2046 56.844 20.2163L57.39 20.7623C57.4017 20.7739 57.4203 20.7809 57.4367 20.7809C57.453 20.7809 57.4717 20.7739 57.4833 20.7623L58.006 20.2396C58.0177 20.2279 58.0223 20.2116 58.0247 20.1976C58.0247 20.1976 58.0387 19.9806 58.041 19.9409C58.076 19.9059 60.2927 17.6893 60.3277 17.6543C60.3673 17.6519 60.5843 17.6379 60.5843 17.6379C60.5983 17.6379 60.6147 17.6309 60.6263 17.6193L61.149 17.0966C61.1607 17.0849 61.1677 17.0663 61.1677 17.0499C61.1677 17.0336 61.1607 17.0149 61.149 17.0033L60.603 16.4573C60.589 16.4433 60.5727 16.4386 60.5563 16.4386ZM60.5563 16.5973C60.6287 16.6696 60.939 16.9799 61.0113 17.0523C60.9367 17.1269 60.582 17.4816 60.5517 17.5119C60.512 17.5143 60.295 17.5283 60.295 17.5283C60.281 17.5283 60.2647 17.5353 60.253 17.5469L57.9313 19.8686C57.9197 19.8803 57.915 19.8966 57.9127 19.9106C57.9127 19.9106 57.8987 20.1276 57.8963 20.1673L57.4367 20.6269C57.3643 20.5546 57.054 20.2443 56.9817 20.1743L57.4413 19.7146C57.481 19.7123 57.698 19.6983 57.698 19.6983C57.712 19.6983 57.7283 19.6913 57.74 19.6796L60.0617 17.3579C60.0733 17.3463 60.078 17.3299 60.0803 17.3159C60.0803 17.3159 60.0943 17.0989 60.0967 17.0593C60.1247 17.0266 60.4817 16.6719 60.5563 16.5973ZM59.7607 15.6919L59.238 16.2146C59.2263 16.2263 59.2217 16.2426 59.2193 16.2566C59.2193 16.2566 59.2053 16.4736 59.203 16.5133L56.9163 18.7999C56.8743 18.8023 56.6597 18.8163 56.6597 18.8163C56.6457 18.8163 56.6293 18.8233 56.6177 18.8349L56.095 19.3576C56.0833 19.3693 56.0763 19.3879 56.0763 19.4043C56.0763 19.4206 56.0833 19.4393 56.095 19.4509L56.641 19.9969C56.6527 20.0086 56.6713 20.0156 56.6877 20.0156C56.704 20.0156 56.7227 20.0086 56.7343 19.9969L57.257 19.4743C57.2687 19.4626 57.2733 19.4463 57.2757 19.4323C57.2757 19.4323 57.2897 19.2153 57.292 19.1756C57.327 19.1406 59.5437 16.9239 59.5787 16.8889C59.6207 16.8866 59.8353 16.8726 59.8353 16.8726C59.8493 16.8726 59.8657 16.8656 59.8773 16.8539L60.4 16.3313C60.4117 16.3196 60.4187 16.3009 60.4187 16.2846C60.4187 16.2683 60.4117 16.2496 60.4 16.2379L59.854 15.6919C59.8283 15.6663 59.7863 15.6663 59.7607 15.6919ZM59.8073 15.8319C59.8797 15.9043 60.19 16.2146 60.26 16.2869C60.1853 16.3616 59.8307 16.7163 59.8003 16.7466C59.7607 16.7489 59.5437 16.7629 59.5437 16.7629C59.5297 16.7629 59.5133 16.7699 59.5017 16.7816L57.18 19.1033C57.1683 19.1149 57.1637 19.1313 57.1613 19.1453C57.1613 19.1453 57.1473 19.3623 57.145 19.4019L56.6853 19.8616L56.2303 19.4066L56.69 18.9469C56.7297 18.9446 56.9467 18.9306 56.9467 18.9306C56.9607 18.9306 56.977 18.9236 56.9887 18.9119L59.3103 16.5903C59.322 16.5786 59.3267 16.5623 59.329 16.5483C59.329 16.5483 59.343 16.3313 59.3453 16.2916C59.378 16.2613 59.7327 15.9066 59.8073 15.8319ZM59.0513 14.9149C59.035 14.9149 59.0163 14.9219 59.0047 14.9336L58.482 15.4563C58.4703 15.4679 58.4657 15.4843 58.4633 15.4983C58.4633 15.4983 58.4493 15.7153 58.447 15.7549C58.412 15.7899 56.1953 18.0066 56.1603 18.0416C56.1207 18.0439 55.9037 18.0579 55.9037 18.0579C55.8897 18.0579 55.8733 18.0649 55.8617 18.0766L55.339 18.5993C55.3273 18.6109 55.3203 18.6296 55.3203 18.6459C55.3203 18.6623 55.3273 18.6809 55.339 18.6926L55.885 19.2386C55.8967 19.2503 55.9153 19.2573 55.9317 19.2573C55.948 19.2573 55.9667 19.2503 55.9783 19.2386L56.501 18.7159C56.5127 18.7043 56.5173 18.6879 56.5197 18.6739C56.5197 18.6739 56.5337 18.4569 56.536 18.4173C56.571 18.3823 58.7877 16.1656 58.8227 16.1306C58.8623 16.1283 59.0793 16.1143 59.0793 16.1143C59.0933 16.1143 59.1097 16.1073 59.1213 16.0956L59.644 15.5729C59.6557 15.5613 59.6627 15.5426 59.6627 15.5263C59.6627 15.5099 59.6557 15.4913 59.644 15.4796L59.098 14.9336C59.084 14.9219 59.0677 14.9149 59.0513 14.9149ZM59.0513 15.0736C59.1237 15.1459 59.434 15.4563 59.5063 15.5286C59.4317 15.6033 59.077 15.9579 59.0467 15.9883C59.0047 15.9906 58.79 16.0046 58.79 16.0046C58.776 16.0046 58.7597 16.0116 58.748 16.0233L56.4263 18.3449C56.4147 18.3566 56.41 18.3729 56.4077 18.3869C56.4077 18.3869 56.3937 18.6039 56.3913 18.6436L55.9317 19.1033C55.8593 19.0309 55.549 18.7206 55.479 18.6483L55.9387 18.1886C55.9807 18.1863 56.1953 18.1723 56.1953 18.1723C56.2093 18.1723 56.2257 18.1653 56.2373 18.1536L58.559 15.8319C58.5707 15.8203 58.5753 15.8039 58.5777 15.7899C58.5777 15.7899 58.5917 15.5729 58.594 15.5333C58.6197 15.5053 58.9767 15.1483 59.0513 15.0736ZM63.5687 14.9243C63.5523 14.9243 63.5337 14.9313 63.522 14.9429L62.976 15.4889C62.9643 15.5006 62.9573 15.5193 62.9573 15.5356C62.9573 15.5519 62.9643 15.5706 62.976 15.5823L63.4987 16.1049C63.5103 16.1166 63.5267 16.1213 63.5407 16.1236C63.5407 16.1236 63.7577 16.1376 63.7973 16.1399C63.8323 16.1749 66.049 18.3916 66.084 18.4266C66.0863 18.4663 66.1003 18.6833 66.1003 18.6833C66.1003 18.6973 66.1073 18.7136 66.119 18.7253L66.6417 19.2479C66.6533 19.2596 66.672 19.2666 66.6883 19.2666C66.7047 19.2666 66.7233 19.2596 66.735 19.2479L67.281 18.7019C67.2927 18.6903 67.2997 18.6716 67.2997 18.6553C67.2997 18.6389 67.2927 18.6203 67.281 18.6086L66.7583 18.0859C66.7467 18.0743 66.7303 18.0696 66.7163 18.0673C66.7163 18.0673 66.4993 18.0533 66.4597 18.0509C66.4247 18.0159 64.208 15.7993 64.173 15.7643C64.1707 15.7223 64.1567 15.5076 64.1567 15.5076C64.1567 15.4936 64.1497 15.4773 64.138 15.4656L63.6153 14.9429C63.6037 14.9313 63.585 14.9243 63.5687 14.9243ZM63.5687 15.0829C63.6433 15.1576 63.998 15.5123 64.0283 15.5426C64.0307 15.5823 64.0447 15.7993 64.0447 15.7993C64.0447 15.8133 64.0517 15.8296 64.0633 15.8413L66.385 18.1629C66.3967 18.1746 66.413 18.1793 66.427 18.1816C66.427 18.1816 66.644 18.1956 66.6837 18.1979C66.714 18.2283 67.0687 18.5829 67.1433 18.6576C67.071 18.7299 66.7607 19.0403 66.6883 19.1126C66.6137 19.0379 66.259 18.6833 66.2287 18.6529C66.2263 18.6133 66.2123 18.3963 66.2123 18.3963C66.2123 18.3823 66.2053 18.3659 66.1937 18.3543L63.872 16.0326C63.8603 16.0209 63.844 16.0163 63.83 16.0139C63.83 16.0139 63.613 15.9999 63.5733 15.9976C63.543 15.9673 63.1883 15.6126 63.1137 15.5379C63.186 15.4656 63.4963 15.1553 63.5687 15.0829ZM62.7567 15.6896L62.2107 16.2356C62.199 16.2473 62.192 16.2659 62.192 16.2823C62.192 16.2986 62.199 16.3173 62.2107 16.3289L62.7333 16.8516C62.745 16.8633 62.7613 16.8679 62.7753 16.8703C62.7753 16.8703 62.9923 16.8843 63.032 16.8866C63.067 16.9216 65.2837 19.1383 65.3187 19.1733C65.321 19.2153 65.335 19.4299 65.335 19.4299C65.335 19.4439 65.342 19.4603 65.3537 19.4719L65.8763 19.9946C65.888 20.0063 65.9067 20.0133 65.923 20.0133C65.9393 20.0133 65.958 20.0063 65.9697 19.9946L66.5157 19.4486C66.5273 19.4369 66.5343 19.4183 66.5343 19.4019C66.5343 19.3856 66.5273 19.3669 66.5157 19.3553L65.993 18.8326C65.9837 18.8209 65.965 18.8163 65.951 18.8139C65.951 18.8139 65.734 18.7999 65.6943 18.7976C65.6593 18.7626 63.4427 16.5459 63.4077 16.5109C63.4053 16.4713 63.3913 16.2543 63.3913 16.2543C63.3913 16.2403 63.3843 16.2239 63.3727 16.2123L62.85 15.6896C62.822 15.6639 62.78 15.6639 62.7567 15.6896ZM62.8033 15.8296C62.878 15.9043 63.2327 16.2589 63.263 16.2893C63.2653 16.3289 63.2793 16.5459 63.2793 16.5459C63.2793 16.5599 63.2863 16.5763 63.298 16.5879L65.6197 18.9096C65.6313 18.9213 65.6477 18.9259 65.6617 18.9283C65.6617 18.9283 65.8787 18.9423 65.9183 18.9446C65.9487 18.9749 66.3033 19.3296 66.378 19.4043C66.3057 19.4766 65.9953 19.7869 65.923 19.8593C65.8483 19.7846 65.4937 19.4299 65.4633 19.3996C65.461 19.3576 65.447 19.1429 65.447 19.1429C65.447 19.1289 65.44 19.1126 65.4283 19.1009L63.1067 16.7793C63.095 16.7676 63.0787 16.7629 63.0647 16.7606C63.0647 16.7606 62.8477 16.7466 62.808 16.7443C62.7777 16.7139 62.423 16.3593 62.3483 16.2846C62.4207 16.2123 62.731 15.8996 62.8033 15.8296ZM62.045 16.4269C62.0287 16.4269 62.01 16.4339 61.9983 16.4456L61.4523 16.9916C61.4407 17.0033 61.4337 17.0219 61.4337 17.0383C61.4337 17.0546 61.4407 17.0733 61.4523 17.0849L61.975 17.6076C61.9867 17.6193 62.003 17.6239 62.017 17.6263C62.017 17.6263 62.234 17.6403 62.2737 17.6426C62.3087 17.6776 64.5253 19.8943 64.5603 19.9293C64.5627 19.9713 64.5767 20.1859 64.5767 20.1859C64.5767 20.1999 64.5837 20.2163 64.5953 20.2279L65.118 20.7506C65.1437 20.7763 65.1857 20.7763 65.2113 20.7506L65.7573 20.2046C65.769 20.1929 65.776 20.1743 65.776 20.1579C65.776 20.1416 65.769 20.1229 65.7573 20.1113L65.2347 19.5886C65.223 19.5769 65.2067 19.5723 65.1927 19.5699C65.1927 19.5699 64.9757 19.5559 64.936 19.5536C64.901 19.5186 62.6843 17.3019 62.6493 17.2669C62.647 17.2249 62.633 17.0103 62.633 17.0103C62.633 16.9963 62.626 16.9799 62.6143 16.9683L62.0917 16.4456C62.08 16.4339 62.0613 16.4269 62.045 16.4269ZM62.045 16.5856C62.1197 16.6603 62.4743 17.0149 62.5047 17.0453C62.507 17.0849 62.521 17.3019 62.521 17.3019C62.521 17.3159 62.528 17.3323 62.5397 17.3439L64.8613 19.6656C64.873 19.6773 64.8893 19.6819 64.9033 19.6843C64.9033 19.6843 65.1203 19.6983 65.16 19.7006C65.1903 19.7309 65.545 20.0856 65.6197 20.1603C65.5473 20.2326 65.237 20.5429 65.1647 20.6153C65.09 20.5406 64.7353 20.1859 64.705 20.1556C64.7027 20.1159 64.6887 19.8989 64.6887 19.8989C64.6887 19.8849 64.6817 19.8686 64.67 19.8569L62.3483 17.5353C62.3367 17.5236 62.3203 17.5189 62.3063 17.5166C62.3063 17.5166 62.0893 17.5026 62.0497 17.5003C62.0193 17.4699 61.6647 17.1153 61.59 17.0406C61.6623 16.9683 61.975 16.6579 62.045 16.5856ZM57.432 8.7876C57.4157 8.7876 57.397 8.7946 57.3853 8.80626L56.8393 9.35226C56.8277 9.36393 56.8207 9.3826 56.8207 9.39893C56.8207 9.41526 56.8277 9.43393 56.8393 9.4456L57.362 9.96826C57.3737 9.97993 57.39 9.9846 57.404 9.98693C57.404 9.98693 57.621 10.0009 57.6607 10.0033C57.6957 10.0383 59.9123 12.2549 59.9473 12.2899C59.9497 12.3319 59.9637 12.5466 59.9637 12.5466C59.9637 12.5606 59.9707 12.5769 59.9823 12.5886L60.505 13.1113C60.5167 13.1229 60.5353 13.1299 60.5517 13.1299C60.568 13.1299 60.5867 13.1229 60.5983 13.1113L61.1443 12.5653C61.156 12.5536 61.163 12.5349 61.163 12.5186C61.163 12.5023 61.156 12.4836 61.1443 12.4719L60.6217 11.9493C60.61 11.9376 60.5937 11.9329 60.5797 11.9306C60.5797 11.9306 60.3627 11.9166 60.323 11.9143C60.288 11.8793 58.0713 9.6626 58.0363 9.6276C58.034 9.5856 58.02 9.37093 58.02 9.37093C58.02 9.35693 58.013 9.3406 58.0013 9.32893L57.4787 8.80626C57.4647 8.7946 57.4483 8.7876 57.432 8.7876ZM57.432 8.94626C57.5067 9.02093 57.8613 9.3756 57.8917 9.40593C57.894 9.4456 57.908 9.6626 57.908 9.6626C57.908 9.6766 57.915 9.69293 57.9267 9.7046L60.2483 12.0263C60.26 12.0379 60.2763 12.0426 60.2903 12.0449C60.2903 12.0449 60.5073 12.0589 60.547 12.0613C60.5773 12.0916 60.932 12.4463 61.0067 12.5209C60.9343 12.5933 60.624 12.9036 60.5517 12.9759C60.477 12.9013 60.1223 12.5466 60.092 12.5163C60.0897 12.4766 60.0757 12.2596 60.0757 12.2596C60.0757 12.2456 60.0687 12.2293 60.057 12.2176L57.7353 9.89593C57.7237 9.88426 57.7073 9.8796 57.6933 9.87726C57.6933 9.87726 57.4763 9.86326 57.4367 9.86093C57.4063 9.8306 57.0517 9.47593 56.977 9.40126C57.0493 9.32893 57.3597 9.0186 57.432 8.94626ZM56.6363 9.57393L56.0903 10.1199C56.0787 10.1316 56.0717 10.1503 56.0717 10.1666C56.0717 10.1829 56.0787 10.2016 56.0903 10.2133L56.613 10.7359C56.6247 10.7476 56.641 10.7523 56.655 10.7546C56.655 10.7546 56.872 10.7686 56.9117 10.7709C56.9467 10.8059 59.1633 13.0226 59.1983 13.0576C59.2007 13.0996 59.2147 13.3143 59.2147 13.3143C59.2147 13.3283 59.2217 13.3446 59.2333 13.3563L59.756 13.8789C59.7817 13.9046 59.8237 13.9046 59.8493 13.8789L60.3953 13.3329C60.407 13.3213 60.414 13.3026 60.414 13.2863C60.414 13.2699 60.407 13.2513 60.3953 13.2396L59.8727 12.7169C59.861 12.7053 59.8447 12.7006 59.8307 12.6983C59.8307 12.6983 59.6137 12.6843 59.574 12.6819C59.539 12.6469 57.3223 10.4303 57.2873 10.3953C57.285 10.3556 57.271 10.1386 57.271 10.1386C57.271 10.1246 57.264 10.1083 57.2523 10.0966L56.7297 9.57393C56.704 9.54593 56.662 9.54593 56.6363 9.57393ZM56.683 9.7116C56.7577 9.78626 57.1123 10.1409 57.1427 10.1713C57.145 10.2109 57.159 10.4279 57.159 10.4279C57.159 10.4419 57.166 10.4583 57.1777 10.4699L59.4993 12.7916C59.511 12.8033 59.5273 12.8079 59.5413 12.8103C59.5413 12.8103 59.7583 12.8243 59.798 12.8266C59.8283 12.8569 60.183 13.2116 60.2577 13.2863C60.1853 13.3586 59.875 13.6689 59.805 13.7413C59.7303 13.6666 59.3757 13.3119 59.3453 13.2816C59.343 13.2396 59.329 13.0249 59.329 13.0249C59.329 13.0109 59.322 12.9946 59.3103 12.9829L56.9887 10.6613C56.977 10.6496 56.9607 10.6449 56.9467 10.6426C56.9467 10.6426 56.7297 10.6286 56.69 10.6263C56.6597 10.5959 56.305 10.2413 56.2303 10.1666C56.3003 10.0943 56.613 9.78393 56.683 9.7116ZM55.8803 10.3299L55.3343 10.8759C55.3227 10.8876 55.3157 10.9063 55.3157 10.9226C55.3157 10.9389 55.3227 10.9576 55.3343 10.9693L55.857 11.4919C55.8687 11.5036 55.885 11.5083 55.899 11.5106C55.899 11.5106 56.116 11.5246 56.1557 11.5269C56.1907 11.5619 58.4073 13.7786 58.4423 13.8136C58.4447 13.8556 58.4587 14.0703 58.4587 14.0703C58.4587 14.0843 58.4657 14.1006 58.4773 14.1123L59 14.6349C59.0257 14.6606 59.0677 14.6606 59.0933 14.6349L59.6393 14.0889C59.651 14.0773 59.658 14.0586 59.658 14.0423C59.658 14.0259 59.651 14.0073 59.6393 13.9956L59.1167 13.4729C59.105 13.4613 59.0887 13.4566 59.0747 13.4543C59.0747 13.4543 58.8577 13.4403 58.818 13.4379C58.783 13.4029 56.5663 11.1863 56.5313 11.1513C56.529 11.1116 56.515 10.8946 56.515 10.8946C56.515 10.8806 56.508 10.8643 56.4963 10.8526L55.9737 10.3299C55.9457 10.3043 55.9037 10.3043 55.8803 10.3299ZM55.927 10.4699C56.0017 10.5446 56.3563 10.8993 56.3867 10.9296C56.389 10.9693 56.403 11.1863 56.403 11.1863C56.403 11.2003 56.41 11.2166 56.4217 11.2283L58.7433 13.5499C58.755 13.5616 58.7713 13.5663 58.7853 13.5686C58.7853 13.5686 59.0023 13.5826 59.042 13.5849C59.0723 13.6153 59.427 13.9699 59.5017 14.0446C59.4293 14.1169 59.119 14.4273 59.0467 14.4996C58.972 14.4249 58.6173 14.0703 58.587 14.0399C58.5847 14.0003 58.5707 13.7833 58.5707 13.7833C58.5707 13.7693 58.5637 13.7529 58.552 13.7413L56.2303 11.4196C56.2187 11.4079 56.2023 11.4033 56.1883 11.4009C56.1883 11.4009 55.9713 11.3869 55.9317 11.3846C55.9013 11.3543 55.5467 10.9996 55.472 10.9249C55.5443 10.8526 55.8547 10.5399 55.927 10.4699ZM61.2587 15.7083L60.7127 16.2543C60.687 16.2799 60.687 16.3219 60.7127 16.3476L61.2587 16.8936C61.2843 16.9193 61.3263 16.9193 61.352 16.8936L61.898 16.3476C61.9237 16.3219 61.9237 16.2799 61.898 16.2543L61.352 15.7083C61.3403 15.6966 61.3217 15.6896 61.3053 15.6896C61.2867 15.6896 61.2703 15.6966 61.2587 15.7083ZM61.303 15.8459C61.3753 15.9183 61.6857 16.2286 61.758 16.3009C61.6857 16.3733 61.3753 16.6836 61.303 16.7559C61.2307 16.6836 60.9203 16.3733 60.848 16.3009C60.9203 16.2286 61.233 15.9183 61.303 15.8459ZM60.5003 14.9499L59.9543 15.4959C59.9427 15.5076 59.9357 15.5263 59.9357 15.5426C59.9357 15.5589 59.9427 15.5776 59.9543 15.5893L60.5003 16.1353C60.526 16.1609 60.568 16.1609 60.5937 16.1353L61.1397 15.5893C61.1653 15.5636 61.1653 15.5216 61.1397 15.4959L60.5937 14.9499C60.582 14.9383 60.5633 14.9313 60.547 14.9313C60.5307 14.9336 60.512 14.9383 60.5003 14.9499ZM60.547 15.0899C60.6193 15.1623 60.9297 15.4726 61.002 15.5449C60.9297 15.6173 60.6193 15.9276 60.547 15.9999C60.4747 15.9276 60.1643 15.6173 60.092 15.5449C60.1643 15.4726 60.4747 15.1599 60.547 15.0899ZM59.7443 14.1939L59.1983 14.7399C59.1867 14.7516 59.1797 14.7703 59.1797 14.7866C59.1797 14.8029 59.1867 14.8216 59.1983 14.8333L59.7443 15.3793C59.77 15.4049 59.812 15.4049 59.8377 15.3793L60.3837 14.8333C60.4093 14.8076 60.4093 14.7656 60.3837 14.7399L59.8377 14.1939C59.8097 14.1683 59.7677 14.1683 59.7443 14.1939ZM59.791 14.3316C59.8633 14.4039 60.1737 14.7143 60.246 14.7866C60.1737 14.8589 59.8633 15.1693 59.791 15.2416C59.7187 15.1693 59.4083 14.8589 59.336 14.7866C59.4083 14.7143 59.7187 14.4039 59.791 14.3316ZM60.5003 13.4379L59.9543 13.9839C59.9427 13.9956 59.9357 14.0143 59.9357 14.0306C59.9357 14.0469 59.9427 14.0656 59.9543 14.0773L60.5003 14.6233C60.526 14.6489 60.568 14.6489 60.5937 14.6233L61.1397 14.0773C61.1653 14.0516 61.1653 14.0096 61.1397 13.9839L60.5937 13.4379C60.582 13.4263 60.5633 13.4193 60.547 13.4193C60.5307 13.4193 60.512 13.4263 60.5003 13.4379ZM60.547 13.5756C60.6193 13.6479 60.9297 13.9583 61.002 14.0306C60.9297 14.1029 60.6193 14.4133 60.547 14.4856C60.4747 14.4133 60.1643 14.1029 60.092 14.0306C60.1643 13.9583 60.4747 13.6479 60.547 13.5756ZM61.2587 14.1939L60.7127 14.7399C60.687 14.7656 60.687 14.8076 60.7127 14.8333L61.2587 15.3793C61.2843 15.4049 61.3263 15.4049 61.352 15.3793L61.898 14.8333C61.9237 14.8076 61.9237 14.7656 61.898 14.7399L61.352 14.1939C61.324 14.1683 61.282 14.1683 61.2587 14.1939ZM61.303 14.3316C61.3753 14.4039 61.6857 14.7143 61.758 14.7866C61.6857 14.8589 61.3753 15.1693 61.303 15.2416C61.2307 15.1693 60.9203 14.8589 60.8503 14.7866C60.9203 14.7143 61.233 14.4039 61.303 14.3316ZM62.0613 14.9313C62.045 14.9313 62.0263 14.9383 62.0147 14.9499L61.4687 15.4959C61.443 15.5216 61.443 15.5636 61.4687 15.5893L62.0147 16.1353C62.0403 16.1609 62.0823 16.1609 62.108 16.1353L62.654 15.5893C62.6657 15.5776 62.6727 15.5589 62.6727 15.5426C62.6727 15.5263 62.6657 15.5076 62.654 15.4959L62.108 14.9499C62.094 14.9359 62.0777 14.9313 62.0613 14.9313ZM62.0613 15.0899C62.1337 15.1623 62.444 15.4726 62.5163 15.5449C62.444 15.6173 62.1337 15.9276 62.0613 15.9999C61.989 15.9276 61.6787 15.6173 61.6063 15.5449C61.6787 15.4726 61.989 15.1599 62.0613 15.0899ZM62.7707 14.1939L62.2247 14.7399C62.213 14.7516 62.206 14.7703 62.206 14.7866C62.206 14.8029 62.213 14.8216 62.2247 14.8333L62.7707 15.3793C62.7823 15.3909 62.801 15.3979 62.8173 15.3979C62.8337 15.3979 62.8523 15.3909 62.864 15.3793L63.41 14.8333C63.4357 14.8076 63.4357 14.7656 63.41 14.7399L62.864 14.1939C62.8523 14.1823 62.8337 14.1753 62.8173 14.1753C62.801 14.1753 62.7823 14.1823 62.7707 14.1939ZM62.8173 14.3316C62.8897 14.4039 63.2 14.7143 63.27 14.7866C63.2 14.8589 62.8873 15.1693 62.8173 15.2416C62.745 15.1693 62.4347 14.8589 62.3623 14.7866C62.4347 14.7143 62.7473 14.4039 62.8173 14.3316ZM62.0613 13.4169C62.045 13.4169 62.0263 13.4239 62.0147 13.4356L61.4687 13.9816C61.443 14.0073 61.443 14.0493 61.4687 14.0749L62.0147 14.6209C62.0403 14.6466 62.0823 14.6466 62.108 14.6209L62.654 14.0749C62.6657 14.0633 62.6727 14.0446 62.6727 14.0283C62.6727 14.0119 62.6657 13.9933 62.654 13.9816L62.108 13.4356C62.094 13.4239 62.0777 13.4169 62.0613 13.4169ZM62.0613 13.5756C62.1337 13.6479 62.444 13.9583 62.5163 14.0306C62.444 14.1029 62.1337 14.4133 62.0613 14.4856C61.989 14.4133 61.6787 14.1029 61.6063 14.0306C61.6787 13.9583 61.989 13.6479 62.0613 13.5756ZM61.2587 12.6796L60.7127 13.2256C60.687 13.2513 60.687 13.2933 60.7127 13.3189L61.2587 13.8649C61.2843 13.8906 61.3263 13.8906 61.352 13.8649L61.898 13.3189C61.9237 13.2933 61.9237 13.2513 61.898 13.2256L61.352 12.6796C61.3403 12.6679 61.3217 12.6609 61.3053 12.6609C61.2867 12.6633 61.2703 12.6679 61.2587 12.6796ZM61.303 12.8196C61.3753 12.8919 61.6857 13.2023 61.758 13.2746C61.6857 13.3469 61.3753 13.6573 61.303 13.7273C61.2307 13.6549 60.9203 13.3446 60.848 13.2746C60.9203 13.2023 61.233 12.8896 61.303 12.8196Z" fill="#EE2E24"/>
<path d="M47.2728 63.3499L46.0198 62.6872L45.5345 63.1842L44.4075 62.5892L47.6391 59.7285L48.8431 60.3655L48.2971 64.6472L47.1421 64.0359L47.2751 63.3522L47.2728 63.3499ZM47.4525 62.4562L47.7371 60.9628L46.6685 62.0409L47.4525 62.4562Z" fill="#EE2E24"/>
<path d="M50.7027 64.1597L51.8624 64.4327C51.8321 64.624 51.8391 64.7803 51.8857 64.8993C51.9604 65.093 52.1144 65.2236 52.3431 65.2936C52.5134 65.345 52.6581 65.345 52.7747 65.2936C52.8914 65.2423 52.9661 65.163 52.9964 65.058C53.0267 64.9577 53.0104 64.855 52.9451 64.75C52.8821 64.645 52.7001 64.5073 52.4014 64.3416C51.9137 64.0663 51.5871 63.7957 51.4214 63.5343C51.2557 63.2707 51.2184 62.9883 51.3094 62.685C51.3701 62.4866 51.4844 62.3163 51.6524 62.174C51.8204 62.0316 52.0374 61.9453 52.2987 61.915C52.5601 61.8847 52.8937 61.929 53.2951 62.0503C53.7897 62.1996 54.1374 62.405 54.3427 62.6686C54.5457 62.93 54.6134 63.2707 54.5411 63.686L53.3954 63.4107C53.4187 63.2287 53.3954 63.0817 53.3207 62.9743C53.2484 62.867 53.1294 62.7876 52.9591 62.7363C52.8191 62.6943 52.7071 62.692 52.6184 62.7293C52.5297 62.7666 52.4737 62.8273 52.4481 62.9113C52.4294 62.972 52.4411 63.0373 52.4854 63.105C52.5251 63.1727 52.6464 63.2613 52.8424 63.3686C53.3301 63.6393 53.6707 63.8656 53.8621 64.05C54.0534 64.2343 54.1747 64.4257 54.2261 64.6287C54.2774 64.8293 54.2704 65.037 54.2074 65.247C54.1327 65.4943 53.9951 65.702 53.7944 65.87C53.5937 66.038 53.3534 66.1383 53.0757 66.1733C52.7957 66.206 52.4691 66.1663 52.0957 66.0543C51.4377 65.856 51.0201 65.5923 50.8451 65.261C50.6701 64.9297 50.6211 64.5656 50.7074 64.1643L50.7027 64.1597Z" fill="#EE2E24"/>
<path d="M56.5246 62.9486L60.2976 63.35L60.1926 64.3416L58.9256 64.2063L58.6036 67.2326L57.3622 67.0996L57.6842 64.0733L56.4172 63.938L56.5222 62.9463L56.5246 62.9486Z" fill="#EE2E24"/>
<path d="M64.4229 66.5536L63.0089 66.654L62.8596 67.333L61.5879 67.4216L62.8176 63.2846L64.1756 63.189L65.9746 67.1136L64.6702 67.2046L64.4206 66.5536H64.4229ZM64.1032 65.6996L63.5572 64.281L63.2189 65.7603L64.1032 65.6973V65.6996Z" fill="#EE2E24"/>
<path d="M67.2649 62.7829L68.3872 62.4679L70.4546 64.2109L69.8526 62.0595L70.9866 61.7422L72.0762 65.6319L70.9422 65.9492L68.8866 64.2202L69.4862 66.3575L68.3546 66.6749L67.2649 62.7852V62.7829Z" fill="#EE2E24"/>
<path d="M76.5655 62.869L75.3055 63.5177L75.4362 64.2014L74.3022 64.7847L73.8052 60.496L75.0162 59.873L78.2152 62.771L77.0532 63.3684L76.5678 62.8667L76.5655 62.869ZM75.9355 62.211L74.8738 61.1237L75.1468 62.617L75.9355 62.211Z" fill="#EE2E24"/>
</svg>
