<svg width="260" height="70" viewBox="0 0 260 70" fill="none" xmlns="http://www.w3.org/2000/svg">
<path d="M129.09 23.5751L128.515 22.2373H124.315L123.739 23.5751H121.483L126.072 13.1218H126.772L131.346 23.5751H129.09ZM127.783 20.5107L126.415 17.0418L125.046 20.5107H127.783Z" fill="white"/>
<path d="M131.929 18.4418C131.882 15.5018 134.418 13.0595 137.404 13.1218C139.349 13.1218 141.013 14.0707 141.931 15.6729L140.344 16.7929C139.613 15.6418 138.633 15.0662 137.404 15.0662C135.491 15.0662 134.091 16.4973 134.091 18.4573C134.091 20.4173 135.491 21.8173 137.404 21.8173C138.633 21.8173 139.613 21.2418 140.344 20.0907L141.931 21.2107C141.044 22.8129 139.364 23.7618 137.389 23.7618C134.386 23.824 131.866 21.3818 131.929 18.4418Z" fill="white"/>
<path d="M146.033 23.5751V15.2062H142.751V13.3084H151.431V15.2062H148.133V23.5751H146.033Z" fill="white"/>
<path d="M158.272 23.5751L157.696 22.2373H153.496L152.921 23.5751H150.665L155.254 13.1218H155.954L160.527 23.5751H158.272ZM156.965 20.5107L155.596 17.0418L154.227 20.5107H156.965Z" fill="white"/>
<path d="M161.93 23.5751V13.3084H164.03V17.244H168.572V13.3084H170.672V23.5751H168.572V19.1418H164.03V23.5751H161.93Z" fill="white"/>
<path d="M179.646 23.5751L179.07 22.2373H174.87L174.295 23.5751H172.039L176.628 13.1218H177.328L181.901 23.5751H179.646ZM178.339 20.5107L176.97 17.0418L175.601 20.5107H178.339Z" fill="white"/>
<path d="M129.977 37.2329H131.657V41.324H129.65V39.1307H128.966L124.563 33.7795V39.1307H122.463V28.864H124.563V33.624L128.483 28.864H130.988L127.068 33.6862L129.977 37.2329Z" fill="white"/>
<path d="M139.557 39.1307L138.981 37.7929H134.781L134.206 39.1307H131.95L136.539 28.6773H137.239L141.812 39.1307H139.557ZM138.25 36.0662L136.881 32.5973L135.512 36.0662H138.25Z" fill="white"/>
<path d="M144.241 28.864H151.288V39.1307H149.188V30.7618H146.232C146.108 37.3884 145.112 39.2395 142.919 39.2862C142.623 39.2862 142.328 39.2395 142.032 39.1307V37.3418C142.094 37.3573 142.234 37.3729 142.452 37.3729C143.712 37.3729 144.163 35.3818 144.225 30.7618L144.241 28.864Z" fill="white"/>
<path d="M160.277 39.1307L159.702 37.7929H155.502L154.926 39.1307H152.67L157.259 28.6773H157.959L162.533 39.1307H160.277ZM158.97 36.0662L157.602 32.5973L156.233 36.0662H158.97Z" fill="white"/>
<path d="M163.116 33.9973C163.069 31.0573 165.605 28.6151 168.591 28.6773C170.536 28.6773 172.2 29.6262 173.118 31.2284L171.531 32.3484C170.8 31.1973 169.82 30.6218 168.591 30.6218C166.678 30.6218 165.278 32.0529 165.278 34.0129C165.278 35.9729 166.678 37.3729 168.591 37.3729C169.82 37.3729 170.8 36.7973 171.531 35.6462L173.118 36.7662C172.231 38.3684 170.551 39.3173 168.576 39.3173C165.574 39.3795 163.054 36.9373 163.116 33.9973Z" fill="white"/>
<path d="M174.903 39.1307V28.864H177.003V32.3951H178.869C181.063 32.3951 182.618 33.7951 182.618 35.7551C182.618 37.7773 181.063 39.1307 178.869 39.1307H174.903ZM177.003 37.2795H178.869C179.865 37.2795 180.472 36.6884 180.472 35.7707C180.472 34.8529 179.865 34.2307 178.869 34.2307H177.003V37.2795ZM184.252 39.1307V28.864H186.352V39.1307H184.252Z" fill="white"/>
<path d="M188.696 39.1307V28.864H190.796V32.7995H195.338V28.864H197.438V39.1307H195.338V34.6973H190.796V39.1307H188.696Z" fill="white"/>
<path d="M199.785 39.1307V28.864H201.885V32.3951H203.752C205.945 32.3951 207.501 33.7951 207.501 35.7551C207.501 37.7773 205.945 39.1307 203.752 39.1307H199.785ZM201.885 37.2795H203.752C204.748 37.2795 205.354 36.6884 205.354 35.7707C205.354 34.8529 204.748 34.2307 203.752 34.2307H201.885V37.2795ZM209.134 39.1307V28.864H211.234V39.1307H209.134Z" fill="white"/>
<path d="M221.668 41.324V39.1307H220.221V34.6973H215.679V39.1307H213.579V28.864H215.679V32.7995H220.221V28.864H222.321V37.2329H223.69V41.324H221.668Z" fill="white"/>
<path d="M132.077 49.5373C132.123 52.4773 129.666 54.9195 126.772 54.8729C124.05 54.9195 121.826 52.8662 121.872 50.1751C121.872 49.724 121.919 49.2729 122.012 48.8218H129.883C129.619 47.204 128.437 46.1618 126.819 46.1618C125.621 46.1618 124.626 46.6907 123.848 47.7484L122.432 46.5195C123.428 45.104 124.952 44.2329 126.819 44.2329C129.79 44.1862 132.123 46.5973 132.077 49.5373ZM129.837 50.5329H123.91C123.941 52.0884 125.326 52.9284 126.819 52.9284C128.328 52.9284 129.479 51.9795 129.837 50.5329Z" fill="white"/>
<path d="M142.91 54.6862H140.374L135.972 49.3351V54.6862H133.872V44.4195H135.972V49.1795L139.892 44.4195H142.396L138.461 49.2573L142.91 54.6862Z" fill="white"/>
<path d="M144.293 54.6862V44.4195H146.393V54.6862H144.293Z" fill="white"/>
<path d="M158.108 44.2329H158.793V54.6862H156.693V49.2107L154.11 52.4462H153.426L150.844 49.2107V54.6862H148.744V44.2329H149.428L153.768 49.7862L158.108 44.2329Z" fill="white"/>
<path d="M169.446 52.7884H170.815V56.8795H168.715V54.6862H162.321V56.8795H160.221V52.7884H161.046C161.933 52.0573 162.306 49.9573 162.306 46.1151V44.4195H169.446V52.7884ZM163.333 52.7884H167.346V46.3173H164.281C164.235 49.4907 163.955 51.5907 163.333 52.7884Z" fill="white"/>
<path d="M172.366 54.6862V44.4195H174.466V54.6862H172.366Z" fill="white"/>
<path d="M176.817 54.6862V44.4195H183.412V46.3173H178.917V54.6862H176.817Z" fill="white"/>
<path d="M184.974 54.6862V44.4195H187.074V54.6862H184.974Z" fill="white"/>
<path d="M71.31 70C90.64 70 106.31 54.33 106.31 35C106.31 15.67 90.64 0 71.31 0C51.98 0 36.31 15.67 36.31 35C36.31 54.33 51.98 70 71.31 70Z" fill="#EE2E24"/>
<path d="M71.31 69.5849C90.4106 69.5849 105.895 54.1008 105.895 35.0002C105.895 15.8996 90.4106 0.415527 71.31 0.415527C52.2094 0.415527 36.7253 15.8996 36.7253 35.0002C36.7253 54.1008 52.2094 69.5849 71.31 69.5849Z" fill="#FFDE00"/>
<path fill-rule="evenodd" clip-rule="evenodd" d="M78.856 34.0174C79.22 34.0174 79.514 34.3114 79.514 34.6754V35.3334C79.514 35.6974 79.22 35.9914 78.856 35.9914H78.198V34.0221H78.856V34.0174ZM78.856 36.6401C79.5793 36.6401 80.1673 36.0521 80.1673 35.3288V34.6708C80.1673 33.9474 79.5793 33.3594 78.856 33.3594H77.5423V36.6424H78.856V36.6401ZM76.231 33.3548H76.889V36.6378H76.231V33.3548ZM74.9197 33.3548H75.5776V36.6378H74.9197L73.6083 34.5774V36.6378H72.9503V33.3548H73.6083L74.9197 35.4151V33.3548ZM65.0753 33.3548H67.0447V34.0128H65.7333V34.6708H67.0447V35.3288H65.7333V35.9868H67.0447V36.6448H65.0753V33.3594V33.3548ZM62.4503 33.3548H63.1083V35.9798H64.4197V36.6378H62.4503V33.3548ZM69.3407 35.9798H69.9987C70.5423 35.9798 70.9833 35.5388 70.9833 34.9951C70.9833 34.4514 70.533 34.0128 69.9987 34.0104H69.3407V34.6684H69.9987C70.1783 34.6684 70.3276 34.8178 70.3276 34.9974C70.3276 35.1771 70.183 35.3264 69.9987 35.3264H69.3407V35.9844V35.9798ZM69.9987 32.6968C71.268 32.6968 72.2947 33.7258 72.2947 34.9928C72.2947 36.2598 71.268 37.2888 69.9987 37.2888C68.7293 37.2888 67.7026 36.2598 67.7026 34.9928C67.7026 33.7258 68.7293 32.6968 69.9987 32.6968ZM69.9987 33.3548C70.904 33.3548 71.639 34.0898 71.639 34.9951C71.639 35.9004 70.9063 36.6354 69.9987 36.6354C69.091 36.6354 68.3583 35.9004 68.3583 34.9951C68.356 34.0898 69.091 33.3548 69.9987 33.3548Z" fill="#A90000"/>
<path d="M71.31 60.3772C85.3255 60.3772 96.6873 49.0154 96.6873 34.9999C96.6873 20.9844 85.3255 9.62256 71.31 9.62256C57.2945 9.62256 45.9327 20.9844 45.9327 34.9999C45.9327 49.0154 57.2945 60.3772 71.31 60.3772Z" fill="#009BC9"/>
<path fill-rule="evenodd" clip-rule="evenodd" d="M56.3533 13.7036L54.671 15.2296C63.4397 22.9763 66.6317 35.5086 67.6093 49.4596H68.0317C67.4413 42.4386 67.67 25.5639 56.3533 13.7036ZM65.6283 24.9456C65.969 26.0656 66.3773 27.5939 66.5173 28.7046C67.5463 30.8466 69.2333 32.8719 69.4573 45.8919H69.8797C69.784 37.2633 69.5833 29.3976 65.6283 24.9456ZM71.0697 29.3323H71.5527V43.6333H71.0697V29.3323ZM76.9963 24.9456C76.6557 26.0656 76.2473 27.5939 76.1073 28.7046C75.0783 30.8466 73.3913 32.8719 73.1673 45.8919H72.745C72.8407 37.2633 73.039 29.3976 76.9963 24.9456ZM86.269 13.7036L87.9513 15.2296C79.1827 22.9763 75.9907 35.5086 75.013 49.4596H74.5907C75.181 42.4386 74.9547 25.5639 86.269 13.7036Z" fill="#FFDE00"/>
<path fill-rule="evenodd" clip-rule="evenodd" d="M71.31 9.29834C85.5013 9.29834 97.0117 20.8087 97.0117 35C97.0117 49.1913 85.5013 60.7017 71.31 60.7017C57.1187 60.7017 45.6083 49.1937 45.6083 35C45.6083 20.8063 57.1187 9.29834 71.31 9.29834ZM71.31 9.62734C85.3217 9.62734 96.6873 20.9883 96.6873 35.0047C96.6873 49.021 85.3263 60.382 71.31 60.382C57.2937 60.382 45.935 49.014 45.935 35.0023C45.935 20.9907 57.296 9.62734 71.31 9.62734Z" fill="#EE2E24"/>
<path fill-rule="evenodd" clip-rule="evenodd" d="M71.31 43.0176C70.3603 43.9136 70.3953 45.0102 70.8503 46.0229L70.8433 46.0299C70.407 45.7196 70.0057 45.5936 69.6603 45.5912C69.0093 45.5889 68.4307 46.2656 68.4097 46.7812C68.3933 47.2479 68.4447 47.6819 68.8647 47.9526C69.1493 48.1346 69.5553 48.1882 69.8517 47.9619C69.4597 47.8336 69.4597 47.3832 69.5787 47.1826C69.7023 46.9726 69.9077 46.8209 70.1713 46.8302C70.6473 46.8442 70.918 47.2432 70.9087 47.6282C70.897 48.1882 70.1037 48.9209 69.686 49.1519C69.966 49.6839 70.3627 50.5332 70.526 51.1842L70.302 51.3336C65.9573 45.9272 61.4913 47.5279 57.975 43.7736C58.4253 48.5056 62.8143 50.2952 65.4673 50.9066C64.2283 51.6229 63.9343 52.7826 63.9693 53.8116C64.0183 55.2746 65.241 56.3806 66.8487 56.3456C68.5217 56.3082 69.7187 54.6866 68.8507 53.1629C68.5217 53.8046 68.1857 54.3856 67.4297 54.3436C66.6737 54.3039 66.3913 53.6342 66.382 53.0229C66.3727 52.2809 66.921 51.7466 67.6233 51.6229C68.1227 51.5342 68.671 51.6579 69.1517 51.8866C69.9987 52.2949 70.6333 53.2539 70.6053 54.2572C70.575 55.2606 69.938 56.3992 68.517 57.5052C69.413 58.6112 70.386 60.0439 71.3077 62.0692C72.2293 60.0439 73.2023 58.6112 74.0983 57.5052C72.675 56.3992 72.038 55.2606 72.01 54.2572C71.9797 53.2539 72.6167 52.2949 73.4637 51.8866C73.942 51.6556 74.4927 51.5342 74.992 51.6229C75.699 51.7489 76.245 52.2856 76.2333 53.0229C76.2263 53.6342 75.9417 54.3039 75.1857 54.3436C74.4297 54.3832 74.096 53.8046 73.7647 53.1629C72.899 54.6866 74.096 56.3082 75.7667 56.3456C77.372 56.3806 78.597 55.2746 78.646 53.8116C78.681 52.7849 78.387 51.6229 77.148 50.9066C79.801 50.2976 84.19 48.5056 84.6403 43.7736C81.124 47.5279 76.658 45.9272 72.3133 51.3336L72.0893 51.1842C72.2527 50.5332 72.6493 49.6839 72.9293 49.1519C72.5117 48.9209 71.7183 48.1859 71.7067 47.6282C71.6973 47.2432 71.968 46.8466 72.444 46.8302C72.7077 46.8209 72.913 46.9726 73.0367 47.1826C73.158 47.3879 73.1557 47.8336 72.7637 47.9619C73.06 48.1859 73.4683 48.1346 73.7507 47.9526C74.1707 47.6842 74.222 47.2456 74.2057 46.7812C74.187 46.2656 73.6083 45.5889 72.955 45.5912C72.6097 45.5912 72.2083 45.7172 71.772 46.0299L71.765 46.0229C72.22 45.0102 72.2573 43.9112 71.3053 43.0176H71.31Z" fill="#FFDE00"/>
<path d="M71.9097 47.6138C71.9097 47.3291 72.0987 47.0351 72.458 47.0235C72.6843 47.0165 72.815 47.1798 72.8733 47.2778C72.9153 47.3501 72.934 47.4855 72.892 47.6021C72.8593 47.6861 72.801 47.7421 72.7077 47.7725L72.3553 47.8891C72.661 48.1248 72.92 48.3418 73.3377 48.2998C73.5313 48.2811 73.7157 48.2111 73.8627 48.1178C74.3737 47.7888 74.425 47.2545 74.4087 46.7738C74.3853 46.1508 73.7157 45.3901 72.962 45.3925C72.6937 45.3925 72.416 45.4671 72.1337 45.5978C72.2247 45.2945 72.2737 44.9981 72.2737 44.7158C72.2737 44.0158 71.9937 43.3951 71.443 42.8725L71.3077 42.7441L71.1723 42.8725C70.6193 43.3928 70.3417 44.0158 70.3417 44.7158C70.3417 44.9981 70.3907 45.2945 70.4817 45.5978C70.2017 45.4671 69.9263 45.3948 69.6533 45.3925C68.902 45.3901 68.2277 46.1485 68.2067 46.7738C68.1903 47.2521 68.2417 47.7888 68.7527 48.1178C68.9253 48.2298 69.1493 48.3045 69.3803 48.3068C69.7537 48.3115 69.987 48.1015 70.2647 47.8915C70.092 47.8355 69.798 47.7981 69.7257 47.6021C69.6813 47.4855 69.7023 47.3501 69.7443 47.2778C69.8003 47.1798 69.931 47.0165 70.1597 47.0235C70.5167 47.0351 70.708 47.3291 70.708 47.6138C70.6987 48.0781 69.9753 48.7595 69.588 48.9765L69.42 49.0698L69.5087 49.2401C69.7677 49.7301 70.0733 50.4021 70.253 50.9691C67.88 48.1295 65.5093 47.3011 63.218 46.5101C61.3863 45.8755 59.6527 45.2758 58.115 43.6355L57.7207 43.2155L57.7743 43.7895C58.2317 48.5868 62.6697 50.3788 64.982 50.9878C64.1817 51.6061 63.7617 52.5161 63.7617 53.6548C63.7617 53.7061 63.7617 53.7621 63.764 53.8135C63.8153 55.4048 65.143 56.5738 66.844 56.5365C67.7703 56.5178 68.615 56.0325 69.0443 55.2741C69.434 54.5858 69.4247 53.7785 69.014 53.0598L68.8343 52.7448L68.6687 53.0691C68.335 53.7178 68.0503 54.1751 67.4343 54.1425C66.648 54.1005 66.578 53.2675 66.5757 53.0131C66.5687 52.4088 67.0027 51.9235 67.6537 51.8091C68.076 51.7345 68.5753 51.8208 69.0607 52.0588C69.875 52.4508 70.428 53.3515 70.4047 54.2475C70.3743 55.2718 69.679 56.3451 68.391 57.3461L68.2323 57.4698L68.3583 57.6261C69.462 58.9888 70.3417 60.4261 71.1233 62.1481L71.303 62.5425L71.4827 62.1481C72.2643 60.4261 73.144 58.9888 74.2477 57.6261L74.3737 57.4698L74.215 57.3461C72.9293 56.3428 72.2317 55.2718 72.2013 54.2475C72.1757 53.3515 72.7263 52.4531 73.5453 52.0588C74.0307 51.8231 74.5323 51.7345 74.9523 51.8091C75.6057 51.9258 76.042 52.4088 76.035 53.0131C76.0327 53.2675 75.958 54.1005 75.1763 54.1425C74.558 54.1751 74.2757 53.7178 73.942 53.0691L73.7763 52.7448L73.5967 53.0598C73.186 53.7785 73.1767 54.5858 73.5663 55.2741C73.9957 56.0325 74.8403 56.5155 75.7667 56.5365C77.47 56.5738 78.7953 55.4025 78.8467 53.8135C78.849 53.7598 78.849 53.7061 78.849 53.6548C78.849 52.5161 78.429 51.6061 77.6287 50.9878C79.9433 50.3788 84.3837 48.5891 84.8363 43.7895L84.89 43.2155L84.4957 43.6355C82.9603 45.2758 81.229 45.8755 79.3927 46.5101C77.099 47.3035 74.7307 48.1295 72.3577 50.9691C72.535 50.4045 72.8407 49.7301 73.102 49.2401L73.1907 49.0698L73.0227 48.9765C72.633 48.7595 71.912 48.0781 71.9027 47.6138H71.9097ZM71.5153 47.6185C71.5293 48.2275 72.2177 48.9041 72.6773 49.2191C72.3297 49.9028 71.9587 50.6495 71.8677 51.4195L72.36 51.5921L72.472 51.4521C74.8427 48.5028 77.225 47.6791 79.5303 46.8811C81.2477 46.2885 82.8717 45.7121 84.3603 44.3191C83.588 48.7361 79.0777 50.2551 77.1083 50.7078L76.6183 50.8198L77.0523 51.0695C77.9833 51.6085 78.4547 52.4741 78.4547 53.6455C78.4547 53.6945 78.4547 53.7435 78.4523 53.7971C78.408 55.1645 77.2553 56.1725 75.776 56.1398C74.9873 56.1235 74.271 55.7151 73.9117 55.0781C73.753 54.7981 73.6737 54.5041 73.6737 54.2031C73.6737 54.0025 73.7203 53.8065 73.7903 53.6058C74.0703 54.0865 74.467 54.5695 75.1973 54.5298C76.0933 54.4831 76.42 53.6828 76.4293 53.0131C76.4387 52.2198 75.8623 51.5641 75.0247 51.4148C74.523 51.3261 73.9373 51.4265 73.3773 51.6971C72.4463 52.1451 71.8117 53.1601 71.8117 54.1821V54.2521C71.8443 55.3558 72.542 56.4828 73.8277 57.5258C72.8523 58.7555 72.024 60.1018 71.3053 61.6138C70.5867 60.1018 69.7583 58.7555 68.783 57.5258C70.0663 56.4828 70.7663 55.3558 70.799 54.2521V54.1821C70.799 53.1601 70.162 52.1451 69.2333 51.6971C68.6733 51.4288 68.0877 51.3261 67.586 51.4148C66.7483 51.5641 66.172 52.2198 66.1813 53.0131C66.1907 53.6828 66.5173 54.4831 67.4133 54.5298C68.1437 54.5695 68.545 54.0888 68.8203 53.6058C68.8903 53.8041 68.937 54.0025 68.937 54.2031C68.937 54.5018 68.8577 54.7981 68.699 55.0781C68.335 55.7151 67.6233 56.1235 66.8323 56.1398C65.3507 56.1725 64.2003 55.1645 64.156 53.7971C64.1537 53.7481 64.1537 53.6968 64.1537 53.6455C64.1537 52.4718 64.625 51.6061 65.556 51.0671L65.99 50.8175L65.5 50.7055C63.5283 50.2528 59.0203 48.7338 58.248 44.3168C59.7367 45.7098 61.3653 46.2815 63.078 46.8788C65.381 47.6768 67.7657 48.5005 70.1363 51.4498L70.2483 51.5898L70.7407 51.4171C70.6497 50.6471 70.281 49.9005 69.931 49.2168C70.393 48.9018 71.0813 48.2275 71.093 47.6161C71.093 47.1378 70.75 46.6478 70.1643 46.6291C69.8517 46.6198 69.5693 46.7831 69.3967 47.0795C69.3313 47.1891 69.301 47.3268 69.301 47.4621C69.301 47.5578 69.315 47.6558 69.35 47.7421C69.3757 47.8028 69.4177 47.8518 69.4573 47.9031C69.28 47.9218 69.0957 47.8728 68.9603 47.7865C68.6337 47.5765 68.58 47.2358 68.594 46.7878C68.608 46.3911 69.0863 45.7845 69.6463 45.7868C70.1573 45.7891 70.5587 46.0785 70.9553 46.3561L71.128 46.1951C70.9203 45.7191 70.722 45.2478 70.722 44.7135C70.722 44.1791 70.9203 43.7171 71.296 43.3088C71.6717 43.7195 71.87 44.1885 71.87 44.7135C71.87 45.2385 71.667 45.7121 71.4757 46.1951L71.6297 46.3561C72.0357 46.0855 72.4347 45.7891 72.948 45.7868C73.508 45.7845 73.9863 46.3911 74.0003 46.7878C74.0167 47.2358 73.9607 47.5788 73.634 47.7865C73.501 47.8728 73.3143 47.9218 73.137 47.9031C73.1767 47.8518 73.2187 47.8051 73.2443 47.7421C73.277 47.6558 73.2933 47.5601 73.2933 47.4621C73.2933 47.3245 73.2607 47.1891 73.1977 47.0795C73.025 46.7831 72.7427 46.6198 72.43 46.6291C71.863 46.6525 71.5177 47.1401 71.5177 47.6185H71.5153Z" fill="#009933"/>
<path fill-rule="evenodd" clip-rule="evenodd" d="M71.31 51.8935C71.6087 50.9998 71.9377 50.0571 72.3157 49.3525C71.9657 49.1425 71.6343 48.7785 71.31 48.3491C70.9857 48.7808 70.6567 49.1425 70.3043 49.3525C70.6847 50.0571 71.0113 51.0021 71.31 51.8935Z" fill="#009BC9"/>
<path fill-rule="evenodd" clip-rule="evenodd" d="M71.31 60.7319C71.7953 59.7682 72.3857 58.7112 73.1533 57.8432C72.5163 57.2995 71.877 56.5342 71.31 55.6172C70.743 56.5342 70.106 57.2995 69.4667 57.8432C70.232 58.7135 70.8247 59.7705 71.31 60.7319Z" fill="#009BC9"/>
<path d="M71.8233 56.7982C71.73 56.7982 71.6297 56.8496 71.5317 56.9499C71.3123 57.1716 71.212 57.5169 71.1327 57.7992L71.1233 57.8296C71.107 57.8902 71.0883 57.9602 71.072 58.0256C71.016 58.0069 70.953 57.9882 70.8853 57.9766C70.9413 57.8319 70.9787 57.6896 70.9717 57.5472C70.9693 57.4982 70.9297 57.4609 70.8807 57.4632C70.8317 57.4656 70.7943 57.5052 70.7967 57.5542C70.8037 57.7759 70.6823 58.0186 70.5377 58.2892C70.5143 58.3312 70.5307 58.3849 70.5727 58.4082C70.6147 58.4316 70.6683 58.4152 70.6917 58.3732C70.7337 58.2939 70.7757 58.2169 70.8107 58.1446C70.8923 58.1539 70.9623 58.1749 71.0277 58.1959C70.911 58.6579 70.8083 59.1572 70.743 59.5189C70.743 59.5236 70.7407 59.5282 70.7407 59.5329C70.7407 59.5749 70.771 59.6122 70.813 59.6192C70.8597 59.6262 70.9063 59.5959 70.9133 59.5469C70.9787 59.1922 71.0767 58.7022 71.191 58.2496C71.2657 58.2776 71.3357 58.3032 71.415 58.3079C71.8 58.3406 72.0053 57.9836 72.0637 57.6709C72.1103 57.4259 72.1243 57.0059 71.9843 56.8612C71.947 56.8216 71.891 56.7959 71.8257 56.7959L71.8233 56.7982ZM71.2913 57.8762L71.3007 57.8436C71.3753 57.5846 71.4687 57.2602 71.6553 57.0712C71.7417 56.9849 71.7977 56.9732 71.8233 56.9732C71.842 56.9732 71.856 56.9802 71.8607 56.9849C71.9143 57.0386 71.954 57.3209 71.8933 57.6382C71.849 57.8809 71.6997 58.1562 71.4313 58.1352C71.373 58.1306 71.3077 58.1049 71.2377 58.0792C71.2517 58.0116 71.2703 57.9416 71.289 57.8762H71.2913Z" fill="#FFDE00"/>
<path fill-rule="evenodd" clip-rule="evenodd" d="M71.31 1.31152C89.9137 1.31152 104.999 16.3965 104.999 35.0002C104.999 45.2692 100.4 54.4625 93.1547 60.6412L89.1997 55.0949C93.7567 51.0349 96.9253 45.4512 97.9007 39.1442C97.917 39.0299 97.9053 38.9855 98.0313 38.9459C98.141 38.9132 98.2577 38.8782 98.358 38.8339C98.4 38.8175 98.4397 38.7895 98.4793 38.7522C98.5097 38.7219 98.5213 38.6682 98.533 38.6075C98.5563 38.4932 98.5843 38.3415 98.778 38.2832C98.9927 38.2179 99.177 38.3672 99.4127 38.5562C99.5457 38.6635 99.6973 38.7825 99.8793 38.8922C100.341 39.1605 100.761 39.2772 101.331 39.2912C101.825 39.3029 102.255 39.2305 102.754 38.8222C102.948 38.6635 103.09 38.4955 103.246 38.2949C103.382 38.1199 103.54 37.9565 103.774 37.9589C103.953 37.9612 104.096 38.0452 104.163 38.1875C104.191 38.2459 104.205 38.3135 104.205 38.3812C104.205 38.3929 104.201 38.4045 104.201 38.4162C104.278 38.3275 104.322 38.2342 104.327 38.1432V38.1292C104.327 37.9659 104.243 37.8469 104.17 37.7745C104.035 37.6369 103.83 37.5505 103.636 37.5529C103.256 37.5575 102.943 37.7465 102.612 37.9425C102.446 38.0405 102.276 38.1432 102.098 38.2225C101.704 38.3929 101.249 38.4652 100.67 38.4489C99.8163 38.4255 99.2727 38.0382 98.967 37.7162C98.6193 37.3499 98.4023 36.8692 98.4117 36.4935C98.428 35.8309 98.6777 35.6535 98.708 35.6372L98.7267 35.6255L99.8093 35.5532L99.723 35.6955C99.723 35.6955 99.5667 35.9569 99.555 36.5005V36.5402C99.555 37.2192 100.022 37.4945 100.129 37.5482C100.169 37.5389 100.372 37.4875 100.542 37.4455C100.323 37.2775 99.9633 36.9229 99.9633 36.3955V36.3652C99.9797 35.6885 100.421 35.3245 101.198 35.3479C101.73 35.3619 102.292 35.7142 102.28 36.2555C102.276 36.4562 102.21 36.6125 102.094 36.7269C101.923 36.8902 101.697 36.9019 101.608 36.8995C101.452 36.8949 101.319 36.8132 101.221 36.7292C101.237 36.8179 101.275 36.9229 101.352 37.0139C101.489 37.1772 101.72 37.2635 102.031 37.2705C102.364 37.2799 102.875 36.9649 102.889 36.4702C102.894 36.2555 102.859 36.1389 102.836 36.0525C102.798 35.9219 102.782 35.8355 102.903 35.6885C103.046 35.5159 103.258 35.5905 103.398 35.6395L103.517 35.6722C103.627 35.6745 103.939 35.3852 104.259 34.9979C103.939 34.6082 103.629 34.3212 103.517 34.3235L103.398 34.3562C103.258 34.4052 103.048 34.4775 102.903 34.3072C102.78 34.1579 102.796 34.0715 102.836 33.9432C102.861 33.8569 102.894 33.7402 102.889 33.5255C102.878 33.0309 102.364 32.7182 102.031 32.7252C101.718 32.7322 101.487 32.8185 101.352 32.9819C101.275 33.0729 101.237 33.1755 101.221 33.2665C101.319 33.1825 101.45 33.1009 101.608 33.0962C101.697 33.0939 101.923 33.1055 102.094 33.2689C102.213 33.3832 102.276 33.5395 102.28 33.7402C102.294 34.2839 101.73 34.6362 101.198 34.6479C100.418 34.6665 99.9797 34.3072 99.9633 33.6305V33.6002C99.9633 33.0752 100.325 32.7205 100.542 32.5502C100.369 32.5059 100.166 32.4569 100.129 32.4475C100.019 32.5012 99.555 32.7742 99.555 33.4555V33.4952C99.569 34.0389 99.723 34.2979 99.723 34.3002L99.8093 34.4425L99.6413 34.4332L98.7267 34.3749L98.708 34.3632C98.6777 34.3469 98.428 34.1672 98.4117 33.5069C98.4023 33.1289 98.6193 32.6505 98.967 32.2842C99.2727 31.9599 99.8163 31.5725 100.67 31.5515C101.249 31.5375 101.702 31.6075 102.098 31.7779C102.276 31.8549 102.448 31.9575 102.612 32.0579C102.945 32.2585 103.258 32.4452 103.638 32.4475C103.832 32.4499 104.035 32.3635 104.173 32.2259C104.245 32.1512 104.329 32.0322 104.329 31.8712V31.8572C104.327 31.7639 104.28 31.6705 104.203 31.5795C104.203 31.5912 104.21 31.6052 104.21 31.6145C104.21 31.6845 104.196 31.7475 104.168 31.8082C104.1 31.9505 103.958 32.0345 103.778 32.0369C103.543 32.0392 103.386 31.8759 103.251 31.7009C103.095 31.4979 102.952 31.3299 102.759 31.1735C102.262 30.7652 101.83 30.6929 101.335 30.7045C100.766 30.7185 100.344 30.8352 99.884 31.1035C99.6997 31.2132 99.548 31.3322 99.4173 31.4395C99.1817 31.6262 98.9973 31.7779 98.7827 31.7125C98.589 31.6565 98.561 31.5002 98.5377 31.3882C98.526 31.3275 98.5143 31.2715 98.484 31.2435C98.4397 31.2015 98.393 31.1735 98.3487 31.1572C98.2577 31.1199 98.1597 31.0895 98.0617 31.0615C97.9123 31.0172 97.9263 30.9752 97.903 30.8399C95.9033 17.9575 84.7593 8.09452 71.317 8.09452C57.8747 8.09452 46.7283 17.9622 44.731 30.8492C44.7147 30.9635 44.7287 31.0149 44.6003 31.0545C44.493 31.0872 44.388 31.1199 44.29 31.1572C44.1687 31.2062 44.1243 31.2645 44.101 31.3882C44.0777 31.5025 44.0497 31.6542 43.856 31.7125C43.6413 31.7779 43.457 31.6285 43.2213 31.4395C43.0883 31.3322 42.9367 31.2132 42.7547 31.1035C42.2927 30.8352 41.8727 30.7185 41.3033 30.7045C40.8087 30.6929 40.3793 30.7652 39.88 31.1735C39.6863 31.3322 39.544 31.5002 39.3877 31.7009C39.2523 31.8759 39.0937 32.0392 38.8603 32.0369C38.6807 32.0345 38.5383 31.9505 38.4707 31.8082C38.4427 31.7499 38.4287 31.6822 38.4287 31.6145C38.4287 31.6029 38.4333 31.5889 38.4357 31.5795C38.3587 31.6682 38.312 31.7615 38.3097 31.8572V31.8712C38.3097 32.0345 38.3937 32.1535 38.466 32.2259C38.6013 32.3635 38.8067 32.4499 39.0003 32.4475C39.3807 32.4429 39.6933 32.2539 40.027 32.0579C40.1927 31.9599 40.363 31.8572 40.5403 31.7779C40.9347 31.6075 41.3897 31.5352 41.9683 31.5515C42.8223 31.5749 43.366 31.9622 43.6717 32.2842C44.0193 32.6505 44.2363 33.1312 44.227 33.5069C44.2107 34.1695 43.961 34.3469 43.9307 34.3632L43.912 34.3749L42.9973 34.4332L42.8293 34.4425L42.9157 34.3002C42.9157 34.3002 43.072 34.0389 43.0837 33.4952V33.4555C43.0837 32.7742 42.617 32.5012 42.5097 32.4475C42.47 32.4569 42.267 32.5082 42.0967 32.5502C42.316 32.7182 42.6753 33.0729 42.6753 33.6002V33.6305C42.659 34.3072 42.218 34.6712 41.441 34.6479C40.909 34.6339 40.3467 34.2815 40.3583 33.7402C40.363 33.5395 40.4283 33.3832 40.545 33.2689C40.7153 33.1055 40.9417 33.0939 41.0303 33.0962C41.1867 33.1009 41.3197 33.1825 41.4177 33.2665C41.4013 33.1779 41.364 33.0729 41.287 32.9819C41.1493 32.8185 40.9183 32.7322 40.608 32.7252C40.2743 32.7159 39.7633 33.0309 39.7493 33.5255C39.7447 33.7402 39.7797 33.8569 39.803 33.9432C39.8403 34.0739 39.8567 34.1602 39.7353 34.3072C39.593 34.4775 39.3807 34.4052 39.2407 34.3562L39.1123 34.3282C39.0027 34.3259 38.69 34.6129 38.3703 35.0025C38.69 35.3922 39.0003 35.6792 39.1123 35.6769L39.2313 35.6442C39.3713 35.5952 39.5813 35.5229 39.726 35.6932C39.8497 35.8425 39.8333 35.9289 39.7937 36.0572C39.768 36.1435 39.7353 36.2602 39.74 36.4749C39.7517 36.9695 40.265 37.2822 40.5987 37.2752C40.9113 37.2682 41.1423 37.1819 41.2777 37.0185C41.3547 36.9275 41.392 36.8249 41.4083 36.7339C41.3103 36.8179 41.1797 36.8995 41.021 36.9042C40.9323 36.9065 40.706 36.8949 40.5357 36.7315C40.4167 36.6172 40.3537 36.4609 40.349 36.2602C40.335 35.7165 40.8997 35.3642 41.4317 35.3525C42.211 35.3339 42.6497 35.6932 42.666 36.3699V36.4002C42.666 36.9252 42.3043 37.2799 42.0873 37.4502C42.26 37.4945 42.463 37.5435 42.5003 37.5529C42.61 37.4992 43.0743 37.2239 43.0743 36.5449V36.5052C43.0603 35.9615 42.9063 35.7025 42.9063 35.7002L42.82 35.5579L43.9027 35.6302L43.9213 35.6419C43.9517 35.6582 44.2013 35.8379 44.2177 36.4982C44.227 36.8762 44.01 37.3545 43.6623 37.7209C43.3567 38.0429 42.813 38.4325 41.959 38.4535C41.3803 38.4675 40.9277 38.3975 40.531 38.2272C40.3537 38.1502 40.181 38.0475 40.0177 37.9472C39.684 37.7465 39.3713 37.5599 38.991 37.5575C38.7973 37.5552 38.5943 37.6415 38.4567 37.7792C38.3843 37.8539 38.3003 37.9729 38.3003 38.1339V38.1479C38.3027 38.2389 38.3493 38.3322 38.4263 38.4209C38.4263 38.4092 38.4217 38.3975 38.4217 38.3859C38.4217 38.3159 38.4357 38.2529 38.4637 38.1922C38.5313 38.0499 38.6737 37.9659 38.8533 37.9635C39.089 37.9612 39.2453 38.1245 39.3807 38.2995C39.537 38.5025 39.6793 38.6705 39.873 38.8269C40.3723 39.2352 40.8017 39.3075 41.2963 39.2959C41.8657 39.2819 42.288 39.1652 42.7477 38.8969C42.932 38.7872 43.0837 38.6682 43.2143 38.5609C43.45 38.3742 43.6343 38.2225 43.849 38.2879C44.0427 38.3439 44.0707 38.5002 44.094 38.6122C44.1127 38.7195 44.1383 38.7662 44.2317 38.8199C44.3343 38.8782 44.4697 38.9132 44.5863 38.9482C44.71 38.9832 44.703 39.0135 44.7193 39.1255C45.6923 45.4419 48.861 51.0325 53.4227 55.0972L49.4677 60.6435C42.2203 54.4625 37.6213 45.2692 37.6213 35.0002C37.6213 16.3965 52.7063 1.31152 71.31 1.31152ZM88.9033 55.3585L92.8537 60.8979C92.7533 60.9819 92.6507 61.0659 92.5503 61.1499L88.6023 55.6152C88.7027 55.5289 88.8053 55.4449 88.9033 55.3585ZM88.299 55.8649L92.2423 61.3949L91.932 61.6399L87.991 56.1122C88.0937 56.0305 88.1987 55.9489 88.299 55.8649ZM87.6783 56.3549L91.6193 61.8802C91.372 62.0669 91.1247 62.2512 90.8727 62.4285L86.934 56.9102C87.186 56.7305 87.4333 56.5439 87.6783 56.3572V56.3549ZM55.686 56.9079L51.7473 62.4285C51.4953 62.2489 51.248 62.0645 51.0007 61.8802L54.9417 56.3549C55.1867 56.5392 55.434 56.7259 55.686 56.9055V56.9079ZM54.6313 56.1122L50.6903 61.6399C50.5877 61.5582 50.4827 61.4789 50.38 61.3949L54.3233 55.8649C54.426 55.9489 54.5287 56.0305 54.6313 56.1122ZM54.02 55.6129L50.072 61.1475C49.9717 61.0635 49.869 60.9795 49.7687 60.8955L53.719 55.3562C53.8193 55.4449 53.922 55.5289 54.02 55.6129Z" fill="#EE2E24"/>
<path d="M71.31 25.3729C77.1567 25.3729 81.8963 20.6332 81.8963 14.7865C81.8963 8.93986 77.1567 4.2002 71.31 4.2002C65.4633 4.2002 60.7237 8.93986 60.7237 14.7865C60.7237 20.6332 65.4633 25.3729 71.31 25.3729Z" fill="#009933"/>
<path d="M71.31 24.981C76.9402 24.981 81.5043 20.4168 81.5043 14.7866C81.5043 9.15644 76.9402 4.59229 71.31 4.59229C65.6798 4.59229 61.1157 9.15644 61.1157 14.7866C61.1157 20.4168 65.6798 24.981 71.31 24.981Z" fill="#FFDE00"/>
<path d="M71.31 23.4714C76.1064 23.4714 79.9947 19.5831 79.9947 14.7867C79.9947 9.99031 76.1064 6.10205 71.31 6.10205C66.5136 6.10205 62.6253 9.99031 62.6253 14.7867C62.6253 19.5831 66.5136 23.4714 71.31 23.4714Z" fill="#EE2E24"/>
<path d="M71.31 23.3404C76.0342 23.3404 79.864 19.5107 79.864 14.7864C79.864 10.0622 76.0342 6.23242 71.31 6.23242C66.5857 6.23242 62.756 10.0622 62.756 14.7864C62.756 19.5107 66.5857 23.3404 71.31 23.3404Z" fill="#009933"/>
<path d="M71.31 22.9463C75.8165 22.9463 79.4697 19.2931 79.4697 14.7866C79.4697 10.2802 75.8165 6.62695 71.31 6.62695C66.8035 6.62695 63.1503 10.2802 63.1503 14.7866C63.1503 19.2931 66.8035 22.9463 71.31 22.9463Z" fill="#EE2E24"/>
<path d="M71.31 22.8153C75.7443 22.8153 79.339 19.2206 79.339 14.7863C79.339 10.352 75.7443 6.75732 71.31 6.75732C66.8757 6.75732 63.281 10.352 63.281 14.7863C63.281 19.2206 66.8757 22.8153 71.31 22.8153Z" fill="#FFDE00"/>
<path d="M71.31 22.1365C75.3693 22.1365 78.66 18.8458 78.66 14.7865C78.66 10.7272 75.3693 7.43652 71.31 7.43652C67.2507 7.43652 63.96 10.7272 63.96 14.7865C63.96 18.8458 67.2507 22.1365 71.31 22.1365Z" fill="#EE2E24"/>
<path d="M71.31 22.006C75.2971 22.006 78.5293 18.7738 78.5293 14.7867C78.5293 10.7996 75.2971 7.56738 71.31 7.56738C67.3229 7.56738 64.0907 10.7996 64.0907 14.7867C64.0907 18.7738 67.3229 22.006 71.31 22.006Z" fill="#009BC9"/>
<path fill-rule="evenodd" clip-rule="evenodd" d="M77.239 10.9134L76.693 10.3674L76.1703 10.89L76.1517 11.1724L73.83 13.494L73.5477 13.5127L73.025 14.0354L73.571 14.5814L74.0937 14.0587L74.1123 13.7764L76.434 11.4547L76.7163 11.436L77.239 10.9134ZM76.4737 10.1667L75.9277 9.62069L75.405 10.1434L75.3863 10.4257L73.0647 12.7474L72.7823 12.766L72.2597 13.2887L72.8057 13.8347L73.3283 13.312L73.347 13.0297L75.6687 10.708L75.951 10.6894L76.4737 10.1667ZM75.7153 9.40836L75.1693 8.86236L74.6467 9.38503L74.628 9.66736L72.3063 11.989L72.024 12.0077L71.5013 12.5304L72.0473 13.0764L72.57 12.5537L72.5887 12.2714L74.9103 9.94969L75.1927 9.93103L75.7153 9.40836ZM67.432 20.718L66.886 20.172L67.4087 19.6494L67.691 19.6307L70.0127 17.309L70.0313 17.0267L70.554 16.504L71.1 17.05L70.5773 17.5727L70.295 17.5914L67.9733 19.913L67.9547 20.1954L67.432 20.718ZM66.683 19.9527L66.137 19.4067L66.6597 18.884L66.942 18.8654L69.2637 16.5437L69.2823 16.2614L69.805 15.7387L70.351 16.2847L69.8283 16.8074L69.546 16.826L67.2243 19.1477L67.2057 19.43L66.683 19.9527ZM65.927 19.1967L65.381 18.6507L65.9037 18.128L66.186 18.1094L68.5077 15.7877L68.5263 15.5054L69.049 14.9827L69.595 15.5287L69.0723 16.0514L68.79 16.07L66.4683 18.3917L66.4497 18.674L65.927 19.1967ZM77.2367 18.66L76.6907 19.206L76.168 18.6834L76.1493 18.401L73.8277 16.0794L73.5453 16.0607L73.0227 15.538L73.5687 14.992L74.0913 15.5147L74.11 15.797L76.4317 18.1187L76.714 18.1374L77.2367 18.66ZM76.4713 19.4067L75.9253 19.9527L75.4027 19.43L75.384 19.1477L73.0623 16.826L72.78 16.8074L72.2573 16.2847L72.8033 15.7387L73.326 16.2614L73.3447 16.5437L75.6663 18.8654L75.9487 18.884L76.4713 19.4067ZM75.713 20.165L75.167 20.711L74.6443 20.1884L74.6257 19.906L72.304 17.5844L72.0217 17.5657L71.499 17.043L72.045 16.497L72.5677 17.0197L72.5863 17.302L74.908 19.6237L75.1903 19.6424L75.713 20.165ZM67.4297 8.85303L66.8837 9.39903L67.4063 9.92169L67.6887 9.94036L70.0103 12.262L70.029 12.5444L70.5517 13.067L71.0977 12.521L70.575 11.9984L70.2927 11.9797L67.971 9.65803L67.9523 9.37569L67.4297 8.85303ZM66.6807 9.62069L66.1347 10.1667L66.6573 10.6894L66.9397 10.708L69.2613 13.0297L69.28 13.312L69.8027 13.8347L70.3487 13.2887L69.826 12.766L69.5437 12.7474L67.222 10.4257L67.2033 10.1434L66.6807 9.62069ZM65.9247 10.3767L65.3787 10.9227L65.9013 11.4454L66.1837 11.464L68.5053 13.7857L68.524 14.068L69.0467 14.5907L69.5927 14.0447L69.07 13.522L68.7877 13.5034L66.466 11.1817L66.4473 10.8994L65.9247 10.3767ZM71.3007 15.755L71.8467 16.301L71.3007 16.847L70.7547 16.301L71.3007 15.755ZM70.5447 14.9967L71.0907 15.5427L70.5447 16.0887L69.9987 15.5427L70.5447 14.9967ZM69.7887 14.2407L70.3347 14.7867L69.7887 15.3327L69.2427 14.7867L69.7887 14.2407ZM70.5447 13.4824L71.0907 14.0284L70.5447 14.5744L69.9987 14.0284L70.5447 13.4824ZM71.3007 14.2407L71.8467 14.7867L71.3007 15.3327L70.7547 14.7867L71.3007 14.2407ZM72.059 14.9967L72.605 15.5427L72.059 16.0887L71.513 15.5427L72.059 14.9967ZM72.815 14.2407L73.361 14.7867L72.815 15.3327L72.269 14.7867L72.815 14.2407ZM72.059 13.4824L72.605 14.0284L72.059 14.5744L71.513 14.0284L72.059 13.4824ZM71.3007 12.7264L71.8467 13.2724L71.3007 13.8184L70.7547 13.2724L71.3007 12.7264Z" fill="#FFDE00"/>
<path d="M71.31 6.76709C71.2867 6.76709 71.2657 6.77876 71.254 6.79976C71.254 6.79976 71.0463 7.14276 70.9717 7.26176C70.8877 7.14742 70.6473 6.82076 70.6473 6.82076C70.6333 6.80209 70.61 6.79042 70.589 6.79276C70.5657 6.79509 70.547 6.80676 70.5353 6.83009C70.5353 6.83009 70.358 7.19642 70.295 7.32242C70.2017 7.21509 69.9333 6.90942 69.9333 6.90942C69.9193 6.89309 69.8937 6.88376 69.8727 6.88609C69.8493 6.89076 69.8307 6.90476 69.8237 6.92809C69.8237 6.92809 69.6813 7.30842 69.63 7.43909C69.5273 7.34109 69.2333 7.06109 69.2333 7.06109C69.217 7.04709 69.1937 7.03776 69.1727 7.04709C69.1493 7.05176 69.133 7.07042 69.126 7.09142C69.126 7.09142 69.0163 7.48109 68.9813 7.61876C68.8693 7.53009 68.552 7.27809 68.552 7.27809C68.5357 7.26409 68.51 7.26176 68.4867 7.26876C68.4633 7.27576 68.4493 7.29676 68.4447 7.31776C68.4447 7.31776 68.37 7.71676 68.3467 7.85676C68.2277 7.77742 67.8893 7.55576 67.8893 7.55576C67.8707 7.54409 67.845 7.54176 67.824 7.55109C67.8053 7.56042 67.789 7.58142 67.7867 7.60242C67.7867 7.60242 67.7493 8.00842 67.7377 8.14842C67.6117 8.08076 67.257 7.88942 67.257 7.88942C67.2383 7.88009 67.2127 7.88009 67.1917 7.89176C67.173 7.90342 67.159 7.92442 67.159 7.94776V8.49609C67.0283 8.44009 66.655 8.28142 66.655 8.28142C66.6317 8.27209 66.6083 8.27442 66.5897 8.28842C66.5733 8.30009 66.5617 8.32109 66.5617 8.33976V8.34442C66.5617 8.34442 66.5967 8.75042 66.6107 8.89042C66.4753 8.84609 66.0903 8.72242 66.0903 8.72242C66.067 8.71542 66.0437 8.72009 66.025 8.73409C66.011 8.74576 66.0017 8.76442 66.0017 8.78309V8.79476C66.0017 8.79476 66.074 9.19376 66.0973 9.33376C65.9597 9.30109 65.563 9.21242 65.563 9.21242C65.5397 9.20776 65.5187 9.21476 65.5023 9.23109C65.4907 9.24276 65.486 9.26142 65.486 9.27542C65.486 9.28009 65.486 9.28709 65.4883 9.29176C65.4883 9.29176 65.5957 9.68142 65.633 9.81909C65.493 9.80042 65.0893 9.74676 65.0893 9.74676C65.066 9.74442 65.045 9.75142 65.031 9.77242C65.0217 9.78409 65.017 9.80042 65.017 9.81442C65.017 9.82142 65.0193 9.82842 65.0217 9.83776C65.0217 9.83776 65.1617 10.2181 65.2107 10.3511C65.0707 10.3464 64.6623 10.3254 64.6623 10.3254C64.639 10.3254 64.618 10.3348 64.6063 10.3558C64.5993 10.3651 64.597 10.3814 64.597 10.3931C64.597 10.4024 64.5993 10.4118 64.604 10.4211C64.604 10.4211 64.779 10.7874 64.842 10.9158C64.702 10.9228 64.2937 10.9414 64.2937 10.9414C64.2703 10.9414 64.2493 10.9554 64.24 10.9764C64.2353 10.9858 64.233 10.9951 64.233 11.0091C64.233 11.0231 64.2353 11.0324 64.2423 11.0441C64.2423 11.0441 64.45 11.3918 64.5223 11.5154C64.3823 11.5341 63.9787 11.5901 63.9787 11.5901C63.9553 11.5924 63.9367 11.6064 63.9273 11.6298C63.925 11.6368 63.9227 11.6461 63.9227 11.6554C63.9227 11.6671 63.9273 11.6834 63.9343 11.6951C63.9343 11.6951 64.1723 12.0241 64.2563 12.1408C64.1187 12.1734 63.722 12.2644 63.722 12.2644C63.6987 12.2691 63.6823 12.2878 63.6753 12.3088C63.673 12.3158 63.673 12.3204 63.673 12.3274C63.673 12.3414 63.6777 12.3601 63.6893 12.3694C63.6893 12.3694 63.9553 12.6751 64.051 12.7824C63.9157 12.8268 63.533 12.9528 63.533 12.9528C63.5097 12.9598 63.4933 12.9784 63.4887 12.9994C63.4887 13.0041 63.4863 13.0088 63.4863 13.0134C63.4863 13.0298 63.4933 13.0484 63.505 13.0601C63.505 13.0601 63.799 13.3401 63.8993 13.4381C63.7687 13.4941 63.3953 13.6528 63.3953 13.6528C63.372 13.6621 63.358 13.6831 63.3557 13.7041V13.7134C63.3557 13.7321 63.365 13.7531 63.3813 13.7648C63.3813 13.7648 63.6963 14.0191 63.8083 14.1078C63.6823 14.1754 63.3277 14.3691 63.3277 14.3691C63.309 14.3784 63.295 14.4018 63.2927 14.4228C63.2927 14.4484 63.302 14.4671 63.323 14.4788C63.323 14.4788 63.6613 14.7028 63.7803 14.7821C63.6613 14.8614 63.323 15.0831 63.323 15.0831C63.3067 15.0948 63.2927 15.1158 63.2927 15.1368C63.2927 15.1624 63.3067 15.1834 63.3277 15.1928C63.3277 15.1928 63.6847 15.3864 63.8083 15.4541C63.6963 15.5428 63.3813 15.7948 63.3813 15.7948C63.3673 15.8064 63.3557 15.8274 63.3557 15.8461V15.8554C63.358 15.8788 63.372 15.8974 63.3953 15.9068C63.3953 15.9068 63.7687 16.0678 63.8993 16.1238C63.799 16.2218 63.505 16.5018 63.505 16.5018C63.4933 16.5134 63.4863 16.5321 63.4863 16.5484C63.4863 16.5531 63.4863 16.5578 63.4887 16.5624C63.4933 16.5858 63.512 16.6021 63.533 16.6091C63.533 16.6091 63.918 16.7351 64.0533 16.7794C63.96 16.8868 63.6963 17.1924 63.6963 17.1924C63.687 17.2041 63.68 17.2204 63.68 17.2344C63.68 17.2414 63.68 17.2484 63.6823 17.2531C63.6893 17.2764 63.708 17.2928 63.729 17.2974C63.729 17.2974 64.1233 17.3884 64.2633 17.4211C64.1793 17.5378 63.9413 17.8621 63.9413 17.8621C63.9343 17.8738 63.9297 17.8878 63.9297 17.9018C63.9297 17.9111 63.932 17.9181 63.9343 17.9274C63.9437 17.9508 63.9647 17.9648 63.9857 17.9671C63.9857 17.9671 64.3893 18.0208 64.5293 18.0418C64.457 18.1631 64.2493 18.5108 64.2493 18.5108C64.2423 18.5201 64.24 18.5341 64.24 18.5458C64.24 18.5551 64.2423 18.5691 64.247 18.5784C64.2563 18.5971 64.2797 18.6111 64.3007 18.6134C64.3007 18.6134 64.7067 18.6321 64.849 18.6391C64.7883 18.7674 64.611 19.1338 64.611 19.1338C64.6063 19.1431 64.604 19.1524 64.604 19.1618C64.604 19.1734 64.6087 19.1874 64.6133 19.1991C64.625 19.2178 64.6483 19.2294 64.6693 19.2294C64.6693 19.2294 65.0753 19.2131 65.2153 19.2038C65.1663 19.3368 65.0263 19.7171 65.0263 19.7171C65.024 19.7241 65.0217 19.7311 65.0217 19.7404C65.0217 19.7544 65.0263 19.7708 65.0357 19.7824C65.0497 19.7988 65.073 19.8104 65.094 19.8081C65.094 19.8081 65.4977 19.7568 65.6377 19.7358C65.6003 19.8711 65.493 20.2631 65.493 20.2631C65.4907 20.2678 65.4907 20.2748 65.4907 20.2794C65.4907 20.2958 65.4977 20.3121 65.507 20.3238C65.521 20.3401 65.5467 20.3494 65.5677 20.3424C65.5677 20.3424 65.962 20.2538 66.102 20.2211C66.0763 20.3611 66.0063 20.7601 66.0063 20.7601V20.7718C66.0063 20.7904 66.0133 20.8091 66.0297 20.8208C66.046 20.8348 66.0717 20.8394 66.095 20.8324C66.095 20.8324 66.48 20.7088 66.6153 20.6644C66.6037 20.8044 66.5687 21.2104 66.5687 21.2104V21.2151C66.5687 21.2338 66.578 21.2548 66.5967 21.2664C66.6153 21.2781 66.6387 21.2828 66.662 21.2734C66.662 21.2734 67.0353 21.1148 67.166 21.0588V21.6071C67.166 21.6304 67.1777 21.6514 67.1987 21.6631C67.2173 21.6748 67.243 21.6748 67.264 21.6654C67.264 21.6654 67.621 21.4718 67.747 21.4064C67.7587 21.5464 67.796 21.9524 67.796 21.9524C67.7983 21.9758 67.8123 21.9944 67.8333 22.0061C67.852 22.0154 67.8777 22.0131 67.8987 22.0014C67.8987 22.0014 68.237 21.7798 68.356 21.7004C68.3817 21.8404 68.454 22.2394 68.454 22.2394C68.4587 22.2628 68.4727 22.2814 68.496 22.2884C68.5193 22.2954 68.5427 22.2931 68.5613 22.2791C68.5613 22.2791 68.881 22.0271 68.9907 21.9384C69.028 22.0738 69.1353 22.4658 69.1353 22.4658C69.14 22.4891 69.161 22.5054 69.182 22.5101C69.203 22.5148 69.2287 22.5101 69.2427 22.4961C69.2427 22.4961 69.5367 22.2161 69.637 22.1181C69.686 22.2511 69.833 22.6314 69.833 22.6314C69.84 22.6548 69.861 22.6688 69.882 22.6734C69.903 22.6781 69.9287 22.6688 69.9427 22.6501C69.9427 22.6501 70.2087 22.3468 70.3043 22.2371C70.365 22.3654 70.5423 22.7318 70.5423 22.7318C70.5517 22.7504 70.5727 22.7668 70.596 22.7691C70.6193 22.7714 70.6403 22.7621 70.6543 22.7411C70.6543 22.7411 70.8947 22.4121 70.9787 22.3001C71.0533 22.4214 71.261 22.7691 71.261 22.7691C71.2727 22.7878 71.2937 22.8018 71.317 22.8018C71.3403 22.8018 71.3613 22.7901 71.373 22.7691C71.373 22.7691 71.583 22.4214 71.6553 22.3001C71.7393 22.4144 71.9773 22.7411 71.9773 22.7411C71.989 22.7598 72.0147 22.7714 72.0357 22.7691C72.0567 22.7668 72.0777 22.7551 72.0893 22.7318C72.0893 22.7318 72.2667 22.3654 72.3297 22.2371C72.423 22.3444 72.6913 22.6501 72.6913 22.6501C72.7053 22.6664 72.731 22.6758 72.752 22.6734C72.7753 22.6688 72.794 22.6548 72.801 22.6314C72.801 22.6314 72.9433 22.2511 72.9947 22.1204C73.0973 22.2184 73.389 22.4984 73.389 22.4984C73.4053 22.5124 73.4287 22.5218 73.4497 22.5124C73.473 22.5078 73.4893 22.4891 73.494 22.4681C73.494 22.4681 73.6037 22.0784 73.6433 21.9408C73.7553 22.0294 74.0727 22.2814 74.0727 22.2814C74.089 22.2954 74.1147 22.2978 74.138 22.2908C74.1613 22.2838 74.1753 22.2628 74.18 22.2418C74.18 22.2418 74.2547 21.8451 74.278 21.7028C74.397 21.7821 74.7377 22.0038 74.7377 22.0038C74.7563 22.0154 74.782 22.0178 74.803 22.0084C74.824 21.9991 74.838 21.9781 74.8403 21.9571C74.8403 21.9571 74.8777 21.5511 74.8893 21.4111C75.0153 21.4788 75.37 21.6678 75.37 21.6678C75.3887 21.6771 75.4143 21.6771 75.4353 21.6654C75.4563 21.6538 75.468 21.6328 75.468 21.6094V21.0634C75.5987 21.1171 75.9743 21.2758 75.9743 21.2758C75.9977 21.2851 76.0187 21.2804 76.0397 21.2688C76.056 21.2571 76.0677 21.2361 76.0677 21.2174V21.2128C76.0677 21.2128 76.0327 20.8068 76.021 20.6668C76.1563 20.7111 76.5413 20.8348 76.5413 20.8348C76.5647 20.8418 76.588 20.8371 76.6067 20.8231C76.6207 20.8114 76.63 20.7928 76.63 20.7741V20.7624C76.63 20.7624 76.56 20.3728 76.5343 20.2281C76.679 20.2678 77.113 20.3891 77.113 20.3891C77.1363 20.3961 77.162 20.3891 77.1783 20.3728C77.19 20.3611 77.1947 20.3424 77.1947 20.3284C77.1947 20.3214 77.1947 20.3144 77.1923 20.3098C77.1923 20.3098 77.0547 19.8851 77.008 19.7404C77.1527 19.7591 77.547 19.8128 77.547 19.8128C77.5703 19.8151 77.5913 19.8081 77.6053 19.7871C77.6147 19.7754 77.6193 19.7591 77.6193 19.7451C77.6193 19.7381 77.617 19.7311 77.6147 19.7218C77.6147 19.7218 77.4747 19.3414 77.4257 19.2084C77.568 19.2154 77.974 19.2341 77.974 19.2341C77.9973 19.2341 78.0183 19.2248 78.03 19.2038C78.037 19.1944 78.0393 19.1781 78.0393 19.1664C78.0393 19.1571 78.037 19.1478 78.0323 19.1361C78.0323 19.1361 77.8573 18.7674 77.7943 18.6391C77.9367 18.6321 78.3427 18.6134 78.3427 18.6134C78.366 18.6134 78.387 18.5994 78.3963 18.5784C78.401 18.5691 78.4033 18.5598 78.4033 18.5458C78.4033 18.5318 78.401 18.5224 78.394 18.5108C78.394 18.5108 78.1863 18.1631 78.114 18.0418C78.254 18.0231 78.6577 17.9671 78.6577 17.9671C78.681 17.9648 78.6997 17.9508 78.709 17.9274C78.7113 17.9204 78.7137 17.9111 78.7137 17.9018C78.7137 17.8901 78.709 17.8738 78.702 17.8621C78.702 17.8621 78.464 17.5331 78.38 17.4164C78.5177 17.3838 78.9143 17.2928 78.9143 17.2928C78.9377 17.2881 78.954 17.2694 78.961 17.2484C78.9633 17.2414 78.9633 17.2368 78.9633 17.2298C78.9633 17.2158 78.9587 17.1971 78.9493 17.1878C78.9493 17.1878 78.6833 16.8821 78.5923 16.7748C78.7277 16.7304 79.1127 16.6044 79.1127 16.6044C79.136 16.5974 79.1523 16.5788 79.157 16.5578C79.157 16.5531 79.1593 16.5484 79.1593 16.5438C79.1593 16.5274 79.1523 16.5088 79.1407 16.4971C79.1407 16.4971 78.849 16.2148 78.7463 16.1191C78.877 16.0631 79.2503 15.9021 79.2503 15.9021C79.2737 15.8928 79.2877 15.8718 79.29 15.8508V15.8414C79.29 15.8228 79.2807 15.8018 79.2643 15.7901C79.2643 15.7901 78.9493 15.5358 78.8373 15.4494C78.9633 15.3818 79.318 15.1904 79.318 15.1904C79.3367 15.1811 79.3507 15.1578 79.353 15.1368C79.353 15.1111 79.3437 15.0924 79.3227 15.0808C79.3227 15.0808 78.9843 14.8568 78.8653 14.7774C78.9843 14.6981 79.3227 14.4741 79.3227 14.4741C79.339 14.4624 79.353 14.4414 79.353 14.4204C79.353 14.3948 79.339 14.3738 79.318 14.3644C79.318 14.3644 78.9633 14.1708 78.8373 14.1054C78.9493 14.0168 79.2643 13.7624 79.2643 13.7624C79.2783 13.7508 79.29 13.7298 79.29 13.7111V13.7018C79.2877 13.6784 79.2737 13.6598 79.2503 13.6504C79.2503 13.6504 78.8793 13.4894 78.7463 13.4358C78.849 13.3378 79.1407 13.0624 79.1407 13.0624C79.1523 13.0508 79.1593 13.0321 79.1593 13.0158C79.1593 13.0111 79.1593 13.0064 79.157 13.0018C79.1523 12.9784 79.1337 12.9598 79.1127 12.9551C79.1127 12.9551 78.73 12.8314 78.5947 12.7894C78.688 12.6798 78.9563 12.3764 78.9563 12.3764C78.9657 12.3648 78.9727 12.3484 78.9727 12.3344C78.9727 12.3274 78.9727 12.3228 78.9703 12.3158C78.9633 12.2924 78.9447 12.2761 78.9237 12.2714C78.9237 12.2714 78.5293 12.1804 78.3893 12.1478C78.4733 12.0311 78.7113 11.7021 78.7113 11.7021C78.7183 11.6904 78.723 11.6764 78.723 11.6624C78.723 11.6531 78.7207 11.6461 78.7183 11.6368C78.709 11.6134 78.688 11.5994 78.667 11.5971C78.667 11.5971 78.268 11.5434 78.1257 11.5224C78.198 11.4011 78.408 11.0511 78.408 11.0511C78.4127 11.0418 78.4173 11.0278 78.4173 11.0161C78.4173 11.0068 78.415 10.9928 78.4103 10.9834C78.401 10.9648 78.3777 10.9484 78.3567 10.9484C78.3567 10.9484 77.9507 10.9298 77.8083 10.9204C77.869 10.7921 78.0463 10.4258 78.0463 10.4258C78.051 10.4164 78.0533 10.4071 78.0533 10.3978C78.0533 10.3861 78.051 10.3721 78.044 10.3604C78.0323 10.3418 78.009 10.3301 77.988 10.3301C77.988 10.3301 77.582 10.3464 77.4397 10.3534C77.4887 10.2204 77.6333 9.84009 77.6333 9.84009C77.6357 9.83309 77.638 9.82609 77.638 9.81676C77.638 9.80276 77.6333 9.78642 77.624 9.77476C77.61 9.75842 77.5867 9.74676 77.5657 9.74909C77.5657 9.74909 77.162 9.80276 77.022 9.82142C77.0593 9.68609 77.1667 9.29409 77.1667 9.29409C77.169 9.28942 77.169 9.28242 77.169 9.27776C77.169 9.26142 77.162 9.24509 77.1527 9.23342C77.1387 9.21709 77.113 9.20776 77.092 9.21476C77.092 9.21476 76.6977 9.30342 76.5577 9.33609C76.5833 9.19609 76.6533 8.79709 76.6533 8.79709V8.78542C76.6533 8.76676 76.6463 8.74809 76.63 8.73642C76.6137 8.72242 76.588 8.71776 76.5647 8.72476C76.5647 8.72476 76.1773 8.84842 76.0443 8.89276C76.056 8.75276 76.0933 8.34676 76.0933 8.34676V8.34209C76.0933 8.32342 76.084 8.30242 76.0653 8.29076C76.0467 8.27909 76.0233 8.27442 76 8.28376C76 8.28376 75.6267 8.44242 75.496 8.49609V7.94776C75.496 7.92442 75.4843 7.90342 75.4633 7.89176C75.4423 7.88009 75.419 7.88009 75.398 7.88942C75.398 7.88942 75.041 8.07842 74.915 8.14609C74.9033 8.00609 74.866 7.60009 74.866 7.60009C74.8637 7.57676 74.8497 7.55809 74.8287 7.54642C74.81 7.53709 74.7843 7.53942 74.7633 7.55109C74.7633 7.55109 74.425 7.77276 74.306 7.84976C74.2803 7.70976 74.208 7.31076 74.208 7.31076C74.2033 7.28742 74.1893 7.26876 74.166 7.26176C74.1427 7.25476 74.1193 7.25709 74.1007 7.27109C74.1007 7.27109 73.781 7.52309 73.6713 7.61176C73.634 7.47642 73.5267 7.08442 73.5267 7.08442C73.5197 7.06109 73.501 7.04476 73.48 7.03776C73.459 7.03076 73.4333 7.03776 73.4193 7.05176C73.4193 7.05176 73.1253 7.33176 73.0227 7.42976C72.9737 7.29676 72.829 6.91642 72.829 6.91642C72.822 6.89309 72.801 6.87909 72.78 6.87442C72.759 6.86976 72.7333 6.87909 72.7193 6.89776C72.7193 6.89776 72.4533 7.20109 72.3577 7.30842C72.297 7.18009 72.1197 6.81376 72.1197 6.81376C72.1103 6.79509 72.0893 6.77876 72.066 6.77642C72.0427 6.77409 72.0217 6.78342 72.0077 6.80442C72.0077 6.80442 71.765 7.13576 71.6833 7.25009C71.6087 7.13109 71.3917 6.78576 71.3917 6.78576C71.3637 6.78109 71.3427 6.76942 71.3193 6.76942L71.31 6.76709ZM70.981 7.44609C71.0043 7.44609 71.023 7.43442 71.0347 7.41342C71.0347 7.41342 71.2353 7.08209 71.3123 6.95609C71.3917 7.08209 71.5993 7.41109 71.5993 7.41109C71.611 7.42742 71.632 7.44142 71.653 7.44142C71.674 7.44142 71.695 7.43209 71.7067 7.41342C71.7067 7.41342 71.933 7.10309 72.0217 6.97942C72.0893 7.11476 72.2573 7.46242 72.2573 7.46242C72.2667 7.48109 72.2853 7.49742 72.3063 7.49976C72.3273 7.50209 72.3507 7.49509 72.3647 7.47642C72.3647 7.47642 72.619 7.18709 72.7193 7.07276C72.7707 7.21276 72.9083 7.57676 72.9083 7.57676C72.9153 7.59542 72.934 7.61409 72.955 7.61876C72.976 7.62342 72.9993 7.61876 73.0133 7.60242C73.0133 7.60242 73.2933 7.33642 73.403 7.23142C73.4427 7.37609 73.5453 7.74942 73.5453 7.74942C73.55 7.77276 73.5687 7.78676 73.5873 7.79376C73.6107 7.80076 73.6317 7.79609 73.648 7.78442C73.648 7.78442 73.949 7.54409 74.068 7.45076C74.096 7.60009 74.1637 7.97809 74.1637 7.97809C74.1683 8.00142 74.18 8.01776 74.2033 8.02709C74.222 8.03409 74.2477 8.03409 74.264 8.02242C74.264 8.02242 74.5883 7.81009 74.7143 7.72842C74.726 7.88009 74.7633 8.26509 74.7633 8.26509C74.7657 8.28842 74.7773 8.30709 74.7983 8.31642C74.8193 8.32576 74.8403 8.32576 74.859 8.31642C74.859 8.31642 75.1997 8.13442 75.3327 8.06442V8.60342C75.3327 8.62676 75.342 8.64542 75.363 8.65709C75.3793 8.66876 75.405 8.67109 75.4237 8.66176C75.4237 8.66176 75.7783 8.51009 75.9183 8.45176C75.9067 8.60342 75.8717 8.98609 75.8717 8.98609V8.99076C75.8717 9.00942 75.881 9.03042 75.8973 9.04209C75.9137 9.05609 75.937 9.05842 75.958 9.05376C75.958 9.05376 76.3267 8.93476 76.469 8.88809C76.441 9.03742 76.3733 9.41542 76.3733 9.41542V9.42709C76.3733 9.44342 76.3803 9.46209 76.392 9.47376C76.406 9.48776 76.4317 9.49709 76.4503 9.49009C76.4503 9.49009 76.8283 9.40609 76.973 9.37109C76.9333 9.51576 76.8307 9.88909 76.8307 9.88909C76.8283 9.89376 76.8283 9.90076 76.8283 9.90542C76.8283 9.91942 76.833 9.93809 76.8447 9.94742C76.8587 9.96376 76.882 9.97309 76.903 9.97076C76.903 9.97076 77.2857 9.91942 77.4373 9.89842C77.386 10.0384 77.2507 10.4024 77.2507 10.4024C77.2483 10.4094 77.246 10.4164 77.246 10.4258C77.246 10.4398 77.2507 10.4538 77.2577 10.4654C77.2693 10.4818 77.2927 10.4934 77.3137 10.4934C77.3137 10.4934 77.6987 10.4771 77.8503 10.4701C77.7827 10.6054 77.6193 10.9531 77.6193 10.9531C77.6147 10.9624 77.6123 10.9718 77.6123 10.9834C77.6123 10.9951 77.6147 11.0068 77.6217 11.0184C77.6333 11.0371 77.6543 11.0511 77.6753 11.0511C77.6753 11.0511 78.0603 11.0698 78.212 11.0791C78.135 11.2074 77.9343 11.5411 77.9343 11.5411C77.9297 11.5504 77.925 11.5644 77.925 11.5761C77.925 11.5854 77.9273 11.5948 77.932 11.6041C77.9413 11.6228 77.9623 11.6391 77.981 11.6414C77.981 11.6414 78.3637 11.6928 78.513 11.7161C78.4243 11.8398 78.198 12.1501 78.198 12.1501C78.191 12.1618 78.1863 12.1758 78.1863 12.1898C78.1863 12.1968 78.1887 12.2038 78.191 12.2131C78.198 12.2318 78.2167 12.2504 78.2377 12.2551C78.2377 12.2551 78.6133 12.3414 78.7603 12.3764C78.6623 12.4908 78.408 12.7824 78.408 12.7824C78.3987 12.7941 78.3917 12.8104 78.3917 12.8244C78.3917 12.8291 78.3917 12.8361 78.394 12.8408C78.3987 12.8641 78.4173 12.8781 78.436 12.8851C78.436 12.8851 78.8 13.0018 78.9447 13.0484C78.8327 13.1511 78.5597 13.4148 78.5597 13.4148C78.548 13.4264 78.541 13.4451 78.541 13.4614V13.4731C78.5457 13.4964 78.5597 13.5128 78.5807 13.5221C78.5807 13.5221 78.9353 13.6761 79.0753 13.7344C78.9563 13.8278 78.6553 14.0704 78.6553 14.0704C78.6413 14.0821 78.6297 14.1031 78.6297 14.1218V14.1264C78.632 14.1498 78.6437 14.1684 78.6647 14.1778C78.6647 14.1778 79.003 14.3598 79.136 14.4321C79.01 14.5161 78.688 14.7284 78.688 14.7284C78.6717 14.7401 78.6577 14.7611 78.6577 14.7821C78.6577 14.8054 78.667 14.8241 78.688 14.8358C78.688 14.8358 79.01 15.0504 79.136 15.1321C79.003 15.2044 78.6623 15.3864 78.6623 15.3864C78.6437 15.3958 78.6297 15.4168 78.6273 15.4378V15.4424C78.6273 15.4611 78.6367 15.4821 78.653 15.4938C78.653 15.4938 78.954 15.7364 79.073 15.8298C78.9353 15.8881 78.5783 16.0421 78.5783 16.0421C78.5597 16.0514 78.5433 16.0701 78.5387 16.0911V16.1028C78.5387 16.1191 78.5457 16.1378 78.5573 16.1494C78.5573 16.1494 78.8373 16.4154 78.9447 16.5228C78.8023 16.5694 78.4337 16.6908 78.4337 16.6908C78.415 16.6978 78.3963 16.7164 78.3917 16.7351C78.3893 16.7398 78.3893 16.7468 78.3893 16.7514C78.3893 16.7654 78.394 16.7841 78.4033 16.7934C78.4033 16.7934 78.6577 17.0851 78.7557 17.1994C78.6063 17.2344 78.233 17.3208 78.233 17.3208C78.2097 17.3254 78.1933 17.3394 78.1863 17.3628C78.184 17.3698 78.1817 17.3768 78.1817 17.3861C78.1817 17.4001 78.1863 17.4141 78.1933 17.4258C78.1933 17.4258 78.4197 17.7384 78.5083 17.8598C78.359 17.8784 77.9763 17.9344 77.9763 17.9344C77.953 17.9368 77.9367 17.9508 77.9273 17.9718C77.9227 17.9811 77.9203 17.9904 77.9203 18.0021C77.9203 18.0138 77.9227 18.0254 77.9297 18.0371C77.9297 18.0371 78.128 18.3684 78.2027 18.4991C78.051 18.5061 77.666 18.5248 77.666 18.5248C77.6427 18.5248 77.624 18.5364 77.6123 18.5574C77.6077 18.5668 77.603 18.5808 77.603 18.5924C77.603 18.6018 77.6053 18.6111 77.61 18.6228C77.61 18.6228 77.778 18.9704 77.841 19.1081C77.6893 19.1011 77.302 19.0824 77.302 19.0824C77.2787 19.0824 77.26 19.0918 77.246 19.1104C77.239 19.1221 77.2343 19.1361 77.2343 19.1501C77.2343 19.1571 77.2367 19.1641 77.239 19.1734C77.239 19.1734 77.3743 19.5351 77.4257 19.6774C77.274 19.6588 76.8913 19.6051 76.8913 19.6051C76.868 19.6028 76.847 19.6098 76.833 19.6284C76.8237 19.6401 76.819 19.6564 76.819 19.6704C76.819 19.6774 76.819 19.6844 76.8213 19.6891C76.8213 19.6891 76.9497 20.0834 77.001 20.2421C76.84 20.1978 76.441 20.0858 76.441 20.0858C76.4177 20.0811 76.3967 20.0858 76.3803 20.0998C76.3663 20.1114 76.357 20.1301 76.357 20.1488V20.1604C76.357 20.1604 76.427 20.5408 76.4527 20.6878C76.3103 20.6411 75.9417 20.5221 75.9417 20.5221C75.923 20.5151 75.8973 20.5198 75.881 20.5338C75.867 20.5454 75.8553 20.5664 75.8553 20.5851V20.5898C75.8553 20.5898 75.8903 20.9748 75.902 21.1264C75.7643 21.0681 75.405 20.9164 75.405 20.9164C75.3863 20.9094 75.3607 20.9094 75.3443 20.9211C75.328 20.9328 75.314 20.9538 75.314 20.9748V21.5114C75.181 21.4391 74.8427 21.2594 74.8427 21.2594C74.824 21.2501 74.8007 21.2501 74.782 21.2594C74.7633 21.2688 74.7493 21.2898 74.747 21.3108C74.747 21.3108 74.712 21.6958 74.698 21.8474C74.572 21.7634 74.2453 21.5511 74.2453 21.5511C74.229 21.5394 74.2033 21.5371 74.1847 21.5464C74.166 21.5558 74.1497 21.5744 74.145 21.5954C74.145 21.5954 74.075 21.9758 74.0493 22.1228C73.9303 22.0294 73.627 21.7891 73.627 21.7891C73.6107 21.7774 73.5873 21.7728 73.5663 21.7798C73.5477 21.7868 73.529 21.8054 73.5243 21.8241C73.5243 21.8241 73.4217 22.1974 73.382 22.3398C73.2723 22.2371 72.9947 21.9688 72.9947 21.9688C72.9807 21.9548 72.955 21.9454 72.9363 21.9524C72.913 21.9571 72.8967 21.9711 72.8897 21.9944C72.8897 21.9944 72.7543 22.3561 72.7007 22.4984C72.6027 22.3841 72.3483 22.0948 72.3483 22.0948C72.3343 22.0784 72.311 22.0691 72.29 22.0714C72.2667 22.0738 72.2503 22.0878 72.241 22.1088C72.241 22.1088 72.073 22.4564 72.0053 22.5918C71.9167 22.4704 71.6903 22.1601 71.6903 22.1601C71.6787 22.1438 71.6553 22.1321 71.6343 22.1321C71.6133 22.1321 71.5923 22.1438 71.5807 22.1648C71.5807 22.1648 71.38 22.4961 71.303 22.6268C71.226 22.4984 71.0253 22.1648 71.0253 22.1648C71.0137 22.1461 70.9927 22.1344 70.9717 22.1321C70.9483 22.1321 70.9297 22.1414 70.9157 22.1601C70.9157 22.1601 70.6893 22.4704 70.6007 22.5941C70.533 22.4588 70.365 22.1111 70.365 22.1111C70.3557 22.0924 70.3347 22.0761 70.316 22.0738C70.2927 22.0714 70.2717 22.0784 70.2577 22.0971C70.2577 22.0971 70.0033 22.3888 69.9053 22.5031C69.8517 22.3631 69.7163 21.9991 69.7163 21.9991C69.7093 21.9804 69.6907 21.9618 69.6697 21.9594C69.6463 21.9548 69.6253 21.9618 69.6113 21.9758C69.6113 21.9758 69.3313 22.2418 69.224 22.3468C69.1843 22.2021 69.0817 21.8288 69.0817 21.8288C69.077 21.8054 69.0583 21.7914 69.0397 21.7844C69.021 21.7774 68.9953 21.7821 68.979 21.7938C68.979 21.7938 68.6757 22.0341 68.559 22.1274C68.531 21.9781 68.4633 21.6001 68.4633 21.6001C68.4587 21.5768 68.4447 21.5604 68.4237 21.5511C68.405 21.5418 68.3793 21.5441 68.363 21.5558C68.363 21.5558 68.0387 21.7681 67.9127 21.8521C67.8987 21.7004 67.8637 21.3178 67.8637 21.3178C67.8613 21.2944 67.8497 21.2758 67.8287 21.2664C67.8077 21.2571 67.7867 21.2571 67.768 21.2664C67.768 21.2664 67.4273 21.4484 67.2943 21.5208V20.9818C67.2943 20.9584 67.2827 20.9398 67.264 20.9281C67.2453 20.9164 67.222 20.9141 67.2033 20.9234C67.2033 20.9234 66.8487 21.0751 66.7087 21.1334C66.7203 20.9818 66.7553 20.5968 66.7553 20.5968V20.5921C66.7553 20.5734 66.746 20.5524 66.7297 20.5408C66.7133 20.5268 66.69 20.5244 66.669 20.5291C66.669 20.5291 66.3003 20.6481 66.158 20.6948C66.186 20.5454 66.2537 20.1674 66.2537 20.1674V20.1558C66.2537 20.1394 66.2467 20.1208 66.235 20.1091C66.221 20.0951 66.1953 20.0858 66.1767 20.0928C66.1767 20.0928 65.801 20.1768 65.654 20.2118C65.6937 20.0671 65.7963 19.6938 65.7963 19.6938C65.7987 19.6891 65.7987 19.6821 65.7987 19.6774C65.7987 19.6634 65.794 19.6448 65.7823 19.6354C65.7683 19.6191 65.745 19.6098 65.724 19.6121C65.724 19.6121 65.3413 19.6611 65.1897 19.6821C65.241 19.5421 65.3763 19.1781 65.3763 19.1781C65.3787 19.1711 65.381 19.1641 65.381 19.1548C65.381 19.1408 65.3763 19.1268 65.3693 19.1151C65.3577 19.0988 65.3343 19.0871 65.3133 19.0871C65.3133 19.0871 64.9283 19.1034 64.7767 19.1104C64.842 18.9751 65.0077 18.6274 65.0077 18.6274C65.0123 18.6181 65.0147 18.6088 65.0147 18.5994C65.0147 18.5878 65.0123 18.5761 65.0053 18.5644C64.9937 18.5458 64.9727 18.5318 64.9517 18.5318C64.9517 18.5318 64.5667 18.5154 64.415 18.5061C64.492 18.3778 64.688 18.0441 64.688 18.0441C64.695 18.0348 64.6973 18.0208 64.6973 18.0091C64.6973 17.9998 64.695 17.9904 64.6903 17.9788C64.681 17.9601 64.66 17.9438 64.6413 17.9414C64.6413 17.9414 64.2587 17.8901 64.107 17.8668C64.1957 17.7454 64.4197 17.4328 64.4197 17.4328C64.4267 17.4211 64.4313 17.4071 64.4313 17.3931C64.4313 17.3861 64.429 17.3791 64.4267 17.3698C64.4197 17.3511 64.401 17.3324 64.38 17.3278C64.38 17.3278 64.002 17.2414 63.8573 17.2064C63.9553 17.0921 64.2097 16.8004 64.2097 16.8004C64.219 16.7888 64.226 16.7724 64.226 16.7584C64.226 16.7538 64.226 16.7468 64.2237 16.7421C64.219 16.7188 64.2003 16.7048 64.1817 16.6978C64.1817 16.6978 63.813 16.5764 63.6707 16.5298C63.7803 16.4271 64.058 16.1588 64.058 16.1588C64.0697 16.1471 64.0767 16.1284 64.0767 16.1121V16.1004C64.072 16.0771 64.0603 16.0608 64.037 16.0514C64.037 16.0514 63.6823 15.8974 63.5423 15.8391C63.6613 15.7458 63.9623 15.5031 63.9623 15.5031C63.9763 15.4914 63.988 15.4704 63.988 15.4518V15.4471C63.9857 15.4238 63.974 15.4051 63.953 15.3958C63.953 15.3958 63.6123 15.2114 63.4817 15.1391C63.6077 15.0551 63.9297 14.8428 63.9297 14.8428C63.946 14.8311 63.96 14.8101 63.96 14.7891C63.96 14.7658 63.9507 14.7471 63.9297 14.7354C63.9297 14.7354 63.6077 14.5208 63.4817 14.4391C63.6147 14.3668 63.9553 14.1824 63.9553 14.1824C63.974 14.1731 63.988 14.1521 63.9903 14.1311V14.1264C63.9903 14.1078 63.981 14.0868 63.9647 14.0751C63.9647 14.0751 63.6637 13.8324 63.5447 13.7391C63.6823 13.6808 64.0393 13.5268 64.0393 13.5268C64.058 13.5174 64.0743 13.4988 64.079 13.4778V13.4661C64.079 13.4498 64.072 13.4311 64.0603 13.4194C64.0603 13.4194 63.7803 13.1534 63.673 13.0484C63.8153 13.0018 64.1817 12.8828 64.1817 12.8828C64.2003 12.8758 64.219 12.8571 64.2237 12.8384C64.226 12.8338 64.226 12.8268 64.226 12.8221C64.226 12.8081 64.2213 12.7894 64.2097 12.7801C64.2097 12.7801 63.9553 12.4884 63.8573 12.3741C64.0067 12.3391 64.38 12.2528 64.38 12.2528C64.4033 12.2481 64.4197 12.2341 64.4267 12.2108C64.429 12.2038 64.4313 12.1968 64.4313 12.1874C64.4313 12.1734 64.4267 12.1594 64.4197 12.1478C64.4197 12.1478 64.1933 11.8351 64.1047 11.7138C64.2563 11.6951 64.639 11.6391 64.639 11.6391C64.6623 11.6368 64.6787 11.6228 64.688 11.6018C64.6927 11.5924 64.695 11.5831 64.695 11.5714C64.695 11.5598 64.6927 11.5481 64.6857 11.5364C64.6857 11.5364 64.4873 11.2051 64.4127 11.0744C64.5643 11.0674 64.9493 11.0488 64.9493 11.0488C64.9727 11.0488 64.9913 11.0371 65.003 11.0161C65.0077 11.0068 65.0123 10.9928 65.0123 10.9811C65.0123 10.9718 65.01 10.9624 65.0053 10.9531C65.0053 10.9531 64.8373 10.6054 64.7743 10.4701C64.926 10.4771 65.311 10.4934 65.311 10.4934C65.3343 10.4934 65.353 10.4841 65.367 10.4654C65.374 10.4538 65.3787 10.4398 65.3787 10.4258C65.3787 10.4188 65.3763 10.4118 65.374 10.4024C65.374 10.4024 65.2387 10.0408 65.1873 9.89842C65.339 9.91709 65.7217 9.97076 65.7217 9.97076C65.745 9.97309 65.766 9.96609 65.78 9.94742C65.7893 9.93576 65.7963 9.91942 65.7963 9.90542C65.7963 9.90076 65.7963 9.89376 65.794 9.88909C65.794 9.88909 65.6937 9.51576 65.654 9.37109C65.8033 9.40609 66.1767 9.49009 66.1767 9.49009C66.2 9.49476 66.221 9.49009 66.235 9.47376C66.2467 9.46209 66.2537 9.44342 66.2537 9.42709V9.41542C66.2537 9.41542 66.1837 9.03509 66.1603 8.88809C66.3027 8.93476 66.6713 9.05376 66.6713 9.05376C66.69 9.06076 66.7157 9.05609 66.732 9.04209C66.746 9.03042 66.7577 9.00942 66.7577 8.99076V8.98609C66.7577 8.98609 66.7227 8.60109 66.711 8.44942C66.8487 8.50776 67.2057 8.65942 67.2057 8.65942C67.2243 8.66642 67.25 8.66642 67.2663 8.65476C67.2827 8.64309 67.2967 8.62209 67.2967 8.60109V8.06209C67.4297 8.13442 67.7703 8.31642 67.7703 8.31642C67.789 8.32576 67.8123 8.32576 67.831 8.31642C67.8497 8.30709 67.8637 8.28609 67.866 8.26509C67.866 8.26509 67.901 7.88009 67.915 7.72842C68.041 7.81242 68.3653 8.02242 68.3653 8.02242C68.3817 8.03409 68.4073 8.03642 68.426 8.02709C68.4447 8.02009 68.461 7.99909 68.4657 7.97809C68.4657 7.97809 68.5357 7.59776 68.5613 7.45076C68.6803 7.54409 68.9813 7.78442 68.9813 7.78442C68.9977 7.79842 69.021 7.80076 69.042 7.79376C69.0607 7.78676 69.0793 7.76809 69.084 7.74942C69.084 7.74942 69.1867 7.37609 69.2263 7.23142C69.336 7.33409 69.616 7.60242 69.616 7.60242C69.63 7.61642 69.6557 7.62576 69.6743 7.61876C69.6977 7.61409 69.714 7.60009 69.721 7.57909C69.721 7.57909 69.8563 7.21742 69.91 7.07742C70.008 7.19176 70.2623 7.48342 70.2623 7.48342C70.2763 7.49976 70.2997 7.50909 70.3207 7.50676C70.344 7.50442 70.3603 7.49042 70.3697 7.46942C70.3697 7.46942 70.5377 7.12176 70.6053 6.98642C70.694 7.10776 70.9203 7.42042 70.9203 7.42042C70.932 7.43442 70.9553 7.44609 70.9763 7.44609H70.981Z" fill="#EE2E24"/>
<path d="M76.6463 10.3206L76.1237 10.8433C76.112 10.8549 76.1073 10.8713 76.105 10.8853C76.105 10.8853 76.091 11.1023 76.0887 11.1419C76.0537 11.1769 73.837 13.3936 73.802 13.4286C73.7623 13.4309 73.5453 13.4449 73.5453 13.4449C73.5313 13.4449 73.515 13.4519 73.5033 13.4636L72.9807 13.9863C72.969 13.9979 72.962 14.0166 72.962 14.0329C72.962 14.0493 72.969 14.0679 72.9807 14.0796L73.5267 14.6256C73.5383 14.6373 73.557 14.6443 73.5733 14.6443C73.5897 14.6443 73.6083 14.6373 73.62 14.6256L74.1427 14.1029C74.1543 14.0913 74.159 14.0749 74.1613 14.0609C74.1613 14.0609 74.1753 13.8439 74.1777 13.8043C74.2127 13.7693 76.4293 11.5526 76.4643 11.5176C76.5063 11.5153 76.721 11.5013 76.721 11.5013C76.735 11.5013 76.7513 11.4943 76.763 11.4826L77.2857 10.9599C77.2973 10.9483 77.3043 10.9296 77.3043 10.9133C77.3043 10.8969 77.2973 10.8783 77.2857 10.8666L76.7397 10.3206C76.7117 10.2949 76.6697 10.2949 76.6463 10.3206ZM76.693 10.4606C76.7653 10.5329 77.0757 10.8433 77.148 10.9156C77.0733 10.9903 76.7187 11.3449 76.6883 11.3753C76.6463 11.3776 76.4317 11.3916 76.4317 11.3916C76.4177 11.3916 76.4013 11.3986 76.3897 11.4103L74.068 13.7319C74.0563 13.7436 74.0517 13.7599 74.0493 13.7739C74.0493 13.7739 74.0353 13.9909 74.033 14.0306C74.0027 14.0609 73.648 14.4156 73.5733 14.4903C73.501 14.4179 73.1907 14.1076 73.1207 14.0353C73.1953 13.9606 73.55 13.6059 73.5803 13.5756C73.6223 13.5733 73.837 13.5593 73.837 13.5593C73.851 13.5593 73.8673 13.5523 73.879 13.5406L76.2007 11.2189C76.2123 11.2073 76.217 11.1909 76.2193 11.1769C76.2193 11.1769 76.2333 10.9599 76.2357 10.9203C76.2613 10.8899 76.6183 10.5353 76.693 10.4606ZM75.881 9.57393L75.3583 10.0966C75.3467 10.1083 75.342 10.1246 75.3397 10.1386C75.3397 10.1386 75.3257 10.3556 75.3233 10.3953C75.2883 10.4303 73.0717 12.6469 73.0367 12.6819C72.9947 12.6843 72.78 12.6983 72.78 12.6983C72.766 12.6983 72.7497 12.7053 72.738 12.7169L72.2153 13.2396C72.2037 13.2513 72.1967 13.2699 72.1967 13.2863C72.1967 13.3026 72.2037 13.3213 72.2153 13.3329L72.7613 13.8789C72.787 13.9046 72.829 13.9046 72.8547 13.8789L73.3773 13.3563C73.389 13.3446 73.3937 13.3283 73.396 13.3143C73.396 13.3143 73.41 13.0973 73.4123 13.0576C73.4473 13.0226 75.664 10.8059 75.699 10.7709C75.7387 10.7686 75.9557 10.7546 75.9557 10.7546C75.9697 10.7546 75.986 10.7476 75.9977 10.7359L76.5203 10.2133C76.532 10.2016 76.539 10.1829 76.539 10.1666C76.539 10.1503 76.532 10.1316 76.5203 10.1199L75.9743 9.57393C75.9463 9.54593 75.9043 9.54593 75.881 9.57393ZM75.9277 9.7116C76 9.78393 76.3103 10.0943 76.3827 10.1666C76.308 10.2413 75.9533 10.5959 75.923 10.6263C75.8833 10.6286 75.6663 10.6426 75.6663 10.6426C75.6523 10.6426 75.636 10.6496 75.6243 10.6613L73.3027 12.9829C73.291 12.9946 73.2863 13.0109 73.284 13.0249C73.284 13.0249 73.27 13.2419 73.2677 13.2816C73.2373 13.3119 72.8827 13.6666 72.808 13.7413C72.7357 13.6689 72.4253 13.3586 72.353 13.2863C72.4277 13.2116 72.7823 12.8569 72.8127 12.8266C72.8547 12.8243 73.0693 12.8103 73.0693 12.8103C73.0833 12.8103 73.0997 12.8033 73.1113 12.7916L75.433 10.4699C75.4447 10.4583 75.4493 10.4419 75.4517 10.4279C75.4517 10.4279 75.4657 10.2109 75.468 10.1713C75.496 10.1433 75.8507 9.78626 75.9277 9.7116ZM75.1693 8.79693C75.153 8.79693 75.1343 8.80393 75.1227 8.8156L74.6 9.33826C74.5883 9.34993 74.5837 9.36626 74.5813 9.38026C74.5813 9.38026 74.5673 9.59726 74.565 9.63693C74.53 9.67193 72.3133 11.8886 72.2783 11.9236C72.2363 11.9259 72.0217 11.9399 72.0217 11.9399C72.0077 11.9399 71.9913 11.9469 71.9797 11.9586L71.457 12.4813C71.4453 12.4929 71.4383 12.5116 71.4383 12.5279C71.4383 12.5443 71.4453 12.5629 71.457 12.5746L72.003 13.1206C72.0287 13.1463 72.0707 13.1463 72.0963 13.1206L72.619 12.5979C72.6307 12.5863 72.6353 12.5699 72.6377 12.5559C72.6377 12.5559 72.6517 12.3389 72.654 12.2993C72.689 12.2643 74.9057 10.0476 74.9407 10.0126C74.9827 10.0103 75.1973 9.99626 75.1973 9.99626C75.2113 9.99626 75.2277 9.98926 75.2393 9.9776L75.762 9.45493C75.7737 9.44326 75.7807 9.4246 75.7807 9.40826C75.7807 9.39193 75.7737 9.37326 75.762 9.3616L75.216 8.8156C75.2043 8.8016 75.1857 8.79693 75.1693 8.79693ZM75.1693 8.9556C75.2417 9.02793 75.552 9.33826 75.6243 9.4106C75.5497 9.48526 75.195 9.83993 75.1647 9.87026C75.1227 9.8726 74.908 9.8866 74.908 9.8866C74.894 9.8866 74.8777 9.8936 74.866 9.90526L72.5443 12.2269C72.5327 12.2386 72.528 12.2549 72.5257 12.2689C72.5257 12.2689 72.5117 12.4859 72.5093 12.5256C72.479 12.5559 72.1243 12.9106 72.0497 12.9853C71.9773 12.9129 71.667 12.6026 71.5947 12.5303C71.6693 12.4556 72.024 12.1009 72.0543 12.0706C72.094 12.0683 72.311 12.0543 72.311 12.0543C72.325 12.0543 72.3413 12.0473 72.353 12.0356L74.6747 9.71393C74.6863 9.70226 74.691 9.68593 74.6933 9.67193C74.6933 9.67193 74.7073 9.45493 74.7097 9.41526C74.74 9.38493 75.0947 9.03026 75.1693 8.9556ZM70.5563 16.4386C70.54 16.4386 70.5213 16.4456 70.5097 16.4573L69.987 16.9799C69.9753 16.9916 69.9707 17.0079 69.9683 17.0219C69.9683 17.0219 69.9543 17.2389 69.952 17.2786L67.6653 19.5653C67.6233 19.5676 67.4087 19.5816 67.4087 19.5816C67.3947 19.5816 67.3783 19.5886 67.3667 19.6003L66.844 20.1229C66.8323 20.1346 66.8253 20.1533 66.8253 20.1696C66.8253 20.1859 66.8323 20.2046 66.844 20.2163L67.39 20.7623C67.4017 20.7739 67.4203 20.7809 67.4367 20.7809C67.453 20.7809 67.4717 20.7739 67.4833 20.7623L68.006 20.2396C68.0177 20.2279 68.0223 20.2116 68.0247 20.1976C68.0247 20.1976 68.0387 19.9806 68.041 19.9409C68.076 19.9059 70.2927 17.6893 70.3277 17.6543C70.3673 17.6519 70.5843 17.6379 70.5843 17.6379C70.5983 17.6379 70.6147 17.6309 70.6263 17.6193L71.149 17.0966C71.1607 17.0849 71.1677 17.0663 71.1677 17.0499C71.1677 17.0336 71.1607 17.0149 71.149 17.0033L70.603 16.4573C70.589 16.4433 70.5727 16.4386 70.5563 16.4386ZM70.5563 16.5973C70.6287 16.6696 70.939 16.9799 71.0113 17.0523C70.9367 17.1269 70.582 17.4816 70.5517 17.5119C70.512 17.5143 70.295 17.5283 70.295 17.5283C70.281 17.5283 70.2647 17.5353 70.253 17.5469L67.9313 19.8686C67.9197 19.8803 67.915 19.8966 67.9127 19.9106C67.9127 19.9106 67.8987 20.1276 67.8963 20.1673L67.4367 20.6269C67.3643 20.5546 67.054 20.2443 66.9817 20.1743L67.4413 19.7146C67.481 19.7123 67.698 19.6983 67.698 19.6983C67.712 19.6983 67.7283 19.6913 67.74 19.6796L70.0617 17.3579C70.0733 17.3463 70.078 17.3299 70.0803 17.3159C70.0803 17.3159 70.0943 17.0989 70.0967 17.0593C70.1247 17.0266 70.4817 16.6719 70.5563 16.5973ZM69.7607 15.6919L69.238 16.2146C69.2263 16.2263 69.2217 16.2426 69.2193 16.2566C69.2193 16.2566 69.2053 16.4736 69.203 16.5133L66.9163 18.7999C66.8743 18.8023 66.6597 18.8163 66.6597 18.8163C66.6457 18.8163 66.6293 18.8233 66.6177 18.8349L66.095 19.3576C66.0833 19.3693 66.0763 19.3879 66.0763 19.4043C66.0763 19.4206 66.0833 19.4393 66.095 19.4509L66.641 19.9969C66.6527 20.0086 66.6713 20.0156 66.6877 20.0156C66.704 20.0156 66.7227 20.0086 66.7343 19.9969L67.257 19.4743C67.2687 19.4626 67.2733 19.4463 67.2757 19.4323C67.2757 19.4323 67.2897 19.2153 67.292 19.1756C67.327 19.1406 69.5437 16.9239 69.5787 16.8889C69.6207 16.8866 69.8353 16.8726 69.8353 16.8726C69.8493 16.8726 69.8657 16.8656 69.8773 16.8539L70.4 16.3313C70.4117 16.3196 70.4187 16.3009 70.4187 16.2846C70.4187 16.2683 70.4117 16.2496 70.4 16.2379L69.854 15.6919C69.8283 15.6663 69.7863 15.6663 69.7607 15.6919ZM69.8073 15.8319C69.8797 15.9043 70.19 16.2146 70.26 16.2869C70.1853 16.3616 69.8307 16.7163 69.8003 16.7466C69.7607 16.7489 69.5437 16.7629 69.5437 16.7629C69.5297 16.7629 69.5133 16.7699 69.5017 16.7816L67.18 19.1033C67.1683 19.1149 67.1637 19.1313 67.1613 19.1453C67.1613 19.1453 67.1473 19.3623 67.145 19.4019L66.6853 19.8616L66.2303 19.4066L66.69 18.9469C66.7297 18.9446 66.9467 18.9306 66.9467 18.9306C66.9607 18.9306 66.977 18.9236 66.9887 18.9119L69.3103 16.5903C69.322 16.5786 69.3267 16.5623 69.329 16.5483C69.329 16.5483 69.343 16.3313 69.3453 16.2916C69.378 16.2613 69.7327 15.9066 69.8073 15.8319ZM69.0513 14.9149C69.035 14.9149 69.0163 14.9219 69.0047 14.9336L68.482 15.4563C68.4703 15.4679 68.4657 15.4843 68.4633 15.4983C68.4633 15.4983 68.4493 15.7153 68.447 15.7549C68.412 15.7899 66.1953 18.0066 66.1603 18.0416C66.1207 18.0439 65.9037 18.0579 65.9037 18.0579C65.8897 18.0579 65.8733 18.0649 65.8617 18.0766L65.339 18.5993C65.3273 18.6109 65.3203 18.6296 65.3203 18.6459C65.3203 18.6623 65.3273 18.6809 65.339 18.6926L65.885 19.2386C65.8967 19.2503 65.9153 19.2573 65.9317 19.2573C65.948 19.2573 65.9667 19.2503 65.9783 19.2386L66.501 18.7159C66.5127 18.7043 66.5173 18.6879 66.5197 18.6739C66.5197 18.6739 66.5337 18.4569 66.536 18.4173C66.571 18.3823 68.7877 16.1656 68.8227 16.1306C68.8623 16.1283 69.0793 16.1143 69.0793 16.1143C69.0933 16.1143 69.1097 16.1073 69.1213 16.0956L69.644 15.5729C69.6557 15.5613 69.6627 15.5426 69.6627 15.5263C69.6627 15.5099 69.6557 15.4913 69.644 15.4796L69.098 14.9336C69.084 14.9219 69.0677 14.9149 69.0513 14.9149ZM69.0513 15.0736C69.1237 15.1459 69.434 15.4563 69.5063 15.5286C69.4317 15.6033 69.077 15.9579 69.0467 15.9883C69.0047 15.9906 68.79 16.0046 68.79 16.0046C68.776 16.0046 68.7597 16.0116 68.748 16.0233L66.4263 18.3449C66.4147 18.3566 66.41 18.3729 66.4077 18.3869C66.4077 18.3869 66.3937 18.6039 66.3913 18.6436L65.9317 19.1033C65.8593 19.0309 65.549 18.7206 65.479 18.6483L65.9387 18.1886C65.9807 18.1863 66.1953 18.1723 66.1953 18.1723C66.2093 18.1723 66.2257 18.1653 66.2373 18.1536L68.559 15.8319C68.5707 15.8203 68.5753 15.8039 68.5777 15.7899C68.5777 15.7899 68.5917 15.5729 68.594 15.5333C68.6197 15.5053 68.9767 15.1483 69.0513 15.0736ZM73.5687 14.9243C73.5523 14.9243 73.5337 14.9313 73.522 14.9429L72.976 15.4889C72.9643 15.5006 72.9573 15.5193 72.9573 15.5356C72.9573 15.5519 72.9643 15.5706 72.976 15.5823L73.4987 16.1049C73.5103 16.1166 73.5267 16.1213 73.5407 16.1236C73.5407 16.1236 73.7577 16.1376 73.7973 16.1399C73.8323 16.1749 76.049 18.3916 76.084 18.4266C76.0863 18.4663 76.1003 18.6833 76.1003 18.6833C76.1003 18.6973 76.1073 18.7136 76.119 18.7253L76.6417 19.2479C76.6533 19.2596 76.672 19.2666 76.6883 19.2666C76.7047 19.2666 76.7233 19.2596 76.735 19.2479L77.281 18.7019C77.2927 18.6903 77.2997 18.6716 77.2997 18.6553C77.2997 18.6389 77.2927 18.6203 77.281 18.6086L76.7583 18.0859C76.7467 18.0743 76.7303 18.0696 76.7163 18.0673C76.7163 18.0673 76.4993 18.0533 76.4597 18.0509C76.4247 18.0159 74.208 15.7993 74.173 15.7643C74.1707 15.7223 74.1567 15.5076 74.1567 15.5076C74.1567 15.4936 74.1497 15.4773 74.138 15.4656L73.6153 14.9429C73.6037 14.9313 73.585 14.9243 73.5687 14.9243ZM73.5687 15.0829C73.6433 15.1576 73.998 15.5123 74.0283 15.5426C74.0307 15.5823 74.0447 15.7993 74.0447 15.7993C74.0447 15.8133 74.0517 15.8296 74.0633 15.8413L76.385 18.1629C76.3967 18.1746 76.413 18.1793 76.427 18.1816C76.427 18.1816 76.644 18.1956 76.6837 18.1979C76.714 18.2283 77.0687 18.5829 77.1433 18.6576C77.071 18.7299 76.7607 19.0403 76.6883 19.1126C76.6137 19.0379 76.259 18.6833 76.2287 18.6529C76.2263 18.6133 76.2123 18.3963 76.2123 18.3963C76.2123 18.3823 76.2053 18.3659 76.1937 18.3543L73.872 16.0326C73.8603 16.0209 73.844 16.0163 73.83 16.0139C73.83 16.0139 73.613 15.9999 73.5733 15.9976C73.543 15.9673 73.1883 15.6126 73.1137 15.5379C73.186 15.4656 73.4963 15.1553 73.5687 15.0829ZM72.7567 15.6896L72.2107 16.2356C72.199 16.2473 72.192 16.2659 72.192 16.2823C72.192 16.2986 72.199 16.3173 72.2107 16.3289L72.7333 16.8516C72.745 16.8633 72.7613 16.8679 72.7753 16.8703C72.7753 16.8703 72.9923 16.8843 73.032 16.8866C73.067 16.9216 75.2837 19.1383 75.3187 19.1733C75.321 19.2153 75.335 19.4299 75.335 19.4299C75.335 19.4439 75.342 19.4603 75.3537 19.4719L75.8763 19.9946C75.888 20.0063 75.9067 20.0133 75.923 20.0133C75.9393 20.0133 75.958 20.0063 75.9697 19.9946L76.5157 19.4486C76.5273 19.4369 76.5343 19.4183 76.5343 19.4019C76.5343 19.3856 76.5273 19.3669 76.5157 19.3553L75.993 18.8326C75.9837 18.8209 75.965 18.8163 75.951 18.8139C75.951 18.8139 75.734 18.7999 75.6943 18.7976C75.6593 18.7626 73.4427 16.5459 73.4077 16.5109C73.4053 16.4713 73.3913 16.2543 73.3913 16.2543C73.3913 16.2403 73.3843 16.2239 73.3727 16.2123L72.85 15.6896C72.822 15.6639 72.78 15.6639 72.7567 15.6896ZM72.8033 15.8296C72.878 15.9043 73.2327 16.2589 73.263 16.2893C73.2653 16.3289 73.2793 16.5459 73.2793 16.5459C73.2793 16.5599 73.2863 16.5763 73.298 16.5879L75.6197 18.9096C75.6313 18.9213 75.6477 18.9259 75.6617 18.9283C75.6617 18.9283 75.8787 18.9423 75.9183 18.9446C75.9487 18.9749 76.3033 19.3296 76.378 19.4043C76.3057 19.4766 75.9953 19.7869 75.923 19.8593C75.8483 19.7846 75.4937 19.4299 75.4633 19.3996C75.461 19.3576 75.447 19.1429 75.447 19.1429C75.447 19.1289 75.44 19.1126 75.4283 19.1009L73.1067 16.7793C73.095 16.7676 73.0787 16.7629 73.0647 16.7606C73.0647 16.7606 72.8477 16.7466 72.808 16.7443C72.7777 16.7139 72.423 16.3593 72.3483 16.2846C72.4207 16.2123 72.731 15.8996 72.8033 15.8296ZM72.045 16.4269C72.0287 16.4269 72.01 16.4339 71.9983 16.4456L71.4523 16.9916C71.4407 17.0033 71.4337 17.0219 71.4337 17.0383C71.4337 17.0546 71.4407 17.0733 71.4523 17.0849L71.975 17.6076C71.9867 17.6193 72.003 17.6239 72.017 17.6263C72.017 17.6263 72.234 17.6403 72.2737 17.6426C72.3087 17.6776 74.5253 19.8943 74.5603 19.9293C74.5627 19.9713 74.5767 20.1859 74.5767 20.1859C74.5767 20.1999 74.5837 20.2163 74.5953 20.2279L75.118 20.7506C75.1437 20.7763 75.1857 20.7763 75.2113 20.7506L75.7573 20.2046C75.769 20.1929 75.776 20.1743 75.776 20.1579C75.776 20.1416 75.769 20.1229 75.7573 20.1113L75.2347 19.5886C75.223 19.5769 75.2067 19.5723 75.1927 19.5699C75.1927 19.5699 74.9757 19.5559 74.936 19.5536C74.901 19.5186 72.6843 17.3019 72.6493 17.2669C72.647 17.2249 72.633 17.0103 72.633 17.0103C72.633 16.9963 72.626 16.9799 72.6143 16.9683L72.0917 16.4456C72.08 16.4339 72.0613 16.4269 72.045 16.4269ZM72.045 16.5856C72.1197 16.6603 72.4743 17.0149 72.5047 17.0453C72.507 17.0849 72.521 17.3019 72.521 17.3019C72.521 17.3159 72.528 17.3323 72.5397 17.3439L74.8613 19.6656C74.873 19.6773 74.8893 19.6819 74.9033 19.6843C74.9033 19.6843 75.1203 19.6983 75.16 19.7006C75.1903 19.7309 75.545 20.0856 75.6197 20.1603C75.5473 20.2326 75.237 20.5429 75.1647 20.6153C75.09 20.5406 74.7353 20.1859 74.705 20.1556C74.7027 20.1159 74.6887 19.8989 74.6887 19.8989C74.6887 19.8849 74.6817 19.8686 74.67 19.8569L72.3483 17.5353C72.3367 17.5236 72.3203 17.5189 72.3063 17.5166C72.3063 17.5166 72.0893 17.5026 72.0497 17.5003C72.0193 17.4699 71.6647 17.1153 71.59 17.0406C71.6623 16.9683 71.975 16.6579 72.045 16.5856ZM67.432 8.7876C67.4157 8.7876 67.397 8.7946 67.3853 8.80626L66.8393 9.35226C66.8277 9.36393 66.8207 9.3826 66.8207 9.39893C66.8207 9.41526 66.8277 9.43393 66.8393 9.4456L67.362 9.96826C67.3737 9.97993 67.39 9.9846 67.404 9.98693C67.404 9.98693 67.621 10.0009 67.6607 10.0033C67.6957 10.0383 69.9123 12.2549 69.9473 12.2899C69.9497 12.3319 69.9637 12.5466 69.9637 12.5466C69.9637 12.5606 69.9707 12.5769 69.9823 12.5886L70.505 13.1113C70.5167 13.1229 70.5353 13.1299 70.5517 13.1299C70.568 13.1299 70.5867 13.1229 70.5983 13.1113L71.1443 12.5653C71.156 12.5536 71.163 12.5349 71.163 12.5186C71.163 12.5023 71.156 12.4836 71.1443 12.4719L70.6217 11.9493C70.61 11.9376 70.5937 11.9329 70.5797 11.9306C70.5797 11.9306 70.3627 11.9166 70.323 11.9143C70.288 11.8793 68.0713 9.6626 68.0363 9.6276C68.034 9.5856 68.02 9.37093 68.02 9.37093C68.02 9.35693 68.013 9.3406 68.0013 9.32893L67.4787 8.80626C67.4647 8.7946 67.4483 8.7876 67.432 8.7876ZM67.432 8.94626C67.5067 9.02093 67.8613 9.3756 67.8917 9.40593C67.894 9.4456 67.908 9.6626 67.908 9.6626C67.908 9.6766 67.915 9.69293 67.9267 9.7046L70.2483 12.0263C70.26 12.0379 70.2763 12.0426 70.2903 12.0449C70.2903 12.0449 70.5073 12.0589 70.547 12.0613C70.5773 12.0916 70.932 12.4463 71.0067 12.5209C70.9343 12.5933 70.624 12.9036 70.5517 12.9759C70.477 12.9013 70.1223 12.5466 70.092 12.5163C70.0897 12.4766 70.0757 12.2596 70.0757 12.2596C70.0757 12.2456 70.0687 12.2293 70.057 12.2176L67.7353 9.89593C67.7237 9.88426 67.7073 9.8796 67.6933 9.87726C67.6933 9.87726 67.4763 9.86326 67.4367 9.86093C67.4063 9.8306 67.0517 9.47593 66.977 9.40126C67.0493 9.32893 67.3597 9.0186 67.432 8.94626ZM66.6363 9.57393L66.0903 10.1199C66.0787 10.1316 66.0717 10.1503 66.0717 10.1666C66.0717 10.1829 66.0787 10.2016 66.0903 10.2133L66.613 10.7359C66.6247 10.7476 66.641 10.7523 66.655 10.7546C66.655 10.7546 66.872 10.7686 66.9117 10.7709C66.9467 10.8059 69.1633 13.0226 69.1983 13.0576C69.2007 13.0996 69.2147 13.3143 69.2147 13.3143C69.2147 13.3283 69.2217 13.3446 69.2333 13.3563L69.756 13.8789C69.7817 13.9046 69.8237 13.9046 69.8493 13.8789L70.3953 13.3329C70.407 13.3213 70.414 13.3026 70.414 13.2863C70.414 13.2699 70.407 13.2513 70.3953 13.2396L69.8727 12.7169C69.861 12.7053 69.8447 12.7006 69.8307 12.6983C69.8307 12.6983 69.6137 12.6843 69.574 12.6819C69.539 12.6469 67.3223 10.4303 67.2873 10.3953C67.285 10.3556 67.271 10.1386 67.271 10.1386C67.271 10.1246 67.264 10.1083 67.2523 10.0966L66.7297 9.57393C66.704 9.54593 66.662 9.54593 66.6363 9.57393ZM66.683 9.7116C66.7577 9.78626 67.1123 10.1409 67.1427 10.1713C67.145 10.2109 67.159 10.4279 67.159 10.4279C67.159 10.4419 67.166 10.4583 67.1777 10.4699L69.4993 12.7916C69.511 12.8033 69.5273 12.8079 69.5413 12.8103C69.5413 12.8103 69.7583 12.8243 69.798 12.8266C69.8283 12.8569 70.183 13.2116 70.2577 13.2863C70.1853 13.3586 69.875 13.6689 69.805 13.7413C69.7303 13.6666 69.3757 13.3119 69.3453 13.2816C69.343 13.2396 69.329 13.0249 69.329 13.0249C69.329 13.0109 69.322 12.9946 69.3103 12.9829L66.9887 10.6613C66.977 10.6496 66.9607 10.6449 66.9467 10.6426C66.9467 10.6426 66.7297 10.6286 66.69 10.6263C66.6597 10.5959 66.305 10.2413 66.2303 10.1666C66.3003 10.0943 66.613 9.78393 66.683 9.7116ZM65.8803 10.3299L65.3343 10.8759C65.3227 10.8876 65.3157 10.9063 65.3157 10.9226C65.3157 10.9389 65.3227 10.9576 65.3343 10.9693L65.857 11.4919C65.8687 11.5036 65.885 11.5083 65.899 11.5106C65.899 11.5106 66.116 11.5246 66.1557 11.5269C66.1907 11.5619 68.4073 13.7786 68.4423 13.8136C68.4447 13.8556 68.4587 14.0703 68.4587 14.0703C68.4587 14.0843 68.4657 14.1006 68.4773 14.1123L69 14.6349C69.0257 14.6606 69.0677 14.6606 69.0933 14.6349L69.6393 14.0889C69.651 14.0773 69.658 14.0586 69.658 14.0423C69.658 14.0259 69.651 14.0073 69.6393 13.9956L69.1167 13.4729C69.105 13.4613 69.0887 13.4566 69.0747 13.4543C69.0747 13.4543 68.8577 13.4403 68.818 13.4379C68.783 13.4029 66.5663 11.1863 66.5313 11.1513C66.529 11.1116 66.515 10.8946 66.515 10.8946C66.515 10.8806 66.508 10.8643 66.4963 10.8526L65.9737 10.3299C65.9457 10.3043 65.9037 10.3043 65.8803 10.3299ZM65.927 10.4699C66.0017 10.5446 66.3563 10.8993 66.3867 10.9296C66.389 10.9693 66.403 11.1863 66.403 11.1863C66.403 11.2003 66.41 11.2166 66.4217 11.2283L68.7433 13.5499C68.755 13.5616 68.7713 13.5663 68.7853 13.5686C68.7853 13.5686 69.0023 13.5826 69.042 13.5849C69.0723 13.6153 69.427 13.9699 69.5017 14.0446C69.4293 14.1169 69.119 14.4273 69.0467 14.4996C68.972 14.4249 68.6173 14.0703 68.587 14.0399C68.5847 14.0003 68.5707 13.7833 68.5707 13.7833C68.5707 13.7693 68.5637 13.7529 68.552 13.7413L66.2303 11.4196C66.2187 11.4079 66.2023 11.4033 66.1883 11.4009C66.1883 11.4009 65.9713 11.3869 65.9317 11.3846C65.9013 11.3543 65.5467 10.9996 65.472 10.9249C65.5443 10.8526 65.8547 10.5399 65.927 10.4699ZM71.2587 15.7083L70.7127 16.2543C70.687 16.2799 70.687 16.3219 70.7127 16.3476L71.2587 16.8936C71.2843 16.9193 71.3263 16.9193 71.352 16.8936L71.898 16.3476C71.9237 16.3219 71.9237 16.2799 71.898 16.2543L71.352 15.7083C71.3403 15.6966 71.3217 15.6896 71.3053 15.6896C71.2867 15.6896 71.2703 15.6966 71.2587 15.7083ZM71.303 15.8459C71.3753 15.9183 71.6857 16.2286 71.758 16.3009C71.6857 16.3733 71.3753 16.6836 71.303 16.7559C71.2307 16.6836 70.9203 16.3733 70.848 16.3009C70.9203 16.2286 71.233 15.9183 71.303 15.8459ZM70.5003 14.9499L69.9543 15.4959C69.9427 15.5076 69.9357 15.5263 69.9357 15.5426C69.9357 15.5589 69.9427 15.5776 69.9543 15.5893L70.5003 16.1353C70.526 16.1609 70.568 16.1609 70.5937 16.1353L71.1397 15.5893C71.1653 15.5636 71.1653 15.5216 71.1397 15.4959L70.5937 14.9499C70.582 14.9383 70.5633 14.9313 70.547 14.9313C70.5307 14.9336 70.512 14.9383 70.5003 14.9499ZM70.547 15.0899C70.6193 15.1623 70.9297 15.4726 71.002 15.5449C70.9297 15.6173 70.6193 15.9276 70.547 15.9999C70.4747 15.9276 70.1643 15.6173 70.092 15.5449C70.1643 15.4726 70.4747 15.1599 70.547 15.0899ZM69.7443 14.1939L69.1983 14.7399C69.1867 14.7516 69.1797 14.7703 69.1797 14.7866C69.1797 14.8029 69.1867 14.8216 69.1983 14.8333L69.7443 15.3793C69.77 15.4049 69.812 15.4049 69.8377 15.3793L70.3837 14.8333C70.4093 14.8076 70.4093 14.7656 70.3837 14.7399L69.8377 14.1939C69.8097 14.1683 69.7677 14.1683 69.7443 14.1939ZM69.791 14.3316C69.8633 14.4039 70.1737 14.7143 70.246 14.7866C70.1737 14.8589 69.8633 15.1693 69.791 15.2416C69.7187 15.1693 69.4083 14.8589 69.336 14.7866C69.4083 14.7143 69.7187 14.4039 69.791 14.3316ZM70.5003 13.4379L69.9543 13.9839C69.9427 13.9956 69.9357 14.0143 69.9357 14.0306C69.9357 14.0469 69.9427 14.0656 69.9543 14.0773L70.5003 14.6233C70.526 14.6489 70.568 14.6489 70.5937 14.6233L71.1397 14.0773C71.1653 14.0516 71.1653 14.0096 71.1397 13.9839L70.5937 13.4379C70.582 13.4263 70.5633 13.4193 70.547 13.4193C70.5307 13.4193 70.512 13.4263 70.5003 13.4379ZM70.547 13.5756C70.6193 13.6479 70.9297 13.9583 71.002 14.0306C70.9297 14.1029 70.6193 14.4133 70.547 14.4856C70.4747 14.4133 70.1643 14.1029 70.092 14.0306C70.1643 13.9583 70.4747 13.6479 70.547 13.5756ZM71.2587 14.1939L70.7127 14.7399C70.687 14.7656 70.687 14.8076 70.7127 14.8333L71.2587 15.3793C71.2843 15.4049 71.3263 15.4049 71.352 15.3793L71.898 14.8333C71.9237 14.8076 71.9237 14.7656 71.898 14.7399L71.352 14.1939C71.324 14.1683 71.282 14.1683 71.2587 14.1939ZM71.303 14.3316C71.3753 14.4039 71.6857 14.7143 71.758 14.7866C71.6857 14.8589 71.3753 15.1693 71.303 15.2416C71.2307 15.1693 70.9203 14.8589 70.8503 14.7866C70.9203 14.7143 71.233 14.4039 71.303 14.3316ZM72.0613 14.9313C72.045 14.9313 72.0263 14.9383 72.0147 14.9499L71.4687 15.4959C71.443 15.5216 71.443 15.5636 71.4687 15.5893L72.0147 16.1353C72.0403 16.1609 72.0823 16.1609 72.108 16.1353L72.654 15.5893C72.6657 15.5776 72.6727 15.5589 72.6727 15.5426C72.6727 15.5263 72.6657 15.5076 72.654 15.4959L72.108 14.9499C72.094 14.9359 72.0777 14.9313 72.0613 14.9313ZM72.0613 15.0899C72.1337 15.1623 72.444 15.4726 72.5163 15.5449C72.444 15.6173 72.1337 15.9276 72.0613 15.9999C71.989 15.9276 71.6787 15.6173 71.6063 15.5449C71.6787 15.4726 71.989 15.1599 72.0613 15.0899ZM72.7707 14.1939L72.2247 14.7399C72.213 14.7516 72.206 14.7703 72.206 14.7866C72.206 14.8029 72.213 14.8216 72.2247 14.8333L72.7707 15.3793C72.7823 15.3909 72.801 15.3979 72.8173 15.3979C72.8337 15.3979 72.8523 15.3909 72.864 15.3793L73.41 14.8333C73.4357 14.8076 73.4357 14.7656 73.41 14.7399L72.864 14.1939C72.8523 14.1823 72.8337 14.1753 72.8173 14.1753C72.801 14.1753 72.7823 14.1823 72.7707 14.1939ZM72.8173 14.3316C72.8897 14.4039 73.2 14.7143 73.27 14.7866C73.2 14.8589 72.8873 15.1693 72.8173 15.2416C72.745 15.1693 72.4347 14.8589 72.3623 14.7866C72.4347 14.7143 72.7473 14.4039 72.8173 14.3316ZM72.0613 13.4169C72.045 13.4169 72.0263 13.4239 72.0147 13.4356L71.4687 13.9816C71.443 14.0073 71.443 14.0493 71.4687 14.0749L72.0147 14.6209C72.0403 14.6466 72.0823 14.6466 72.108 14.6209L72.654 14.0749C72.6657 14.0633 72.6727 14.0446 72.6727 14.0283C72.6727 14.0119 72.6657 13.9933 72.654 13.9816L72.108 13.4356C72.094 13.4239 72.0777 13.4169 72.0613 13.4169ZM72.0613 13.5756C72.1337 13.6479 72.444 13.9583 72.5163 14.0306C72.444 14.1029 72.1337 14.4133 72.0613 14.4856C71.989 14.4133 71.6787 14.1029 71.6063 14.0306C71.6787 13.9583 71.989 13.6479 72.0613 13.5756ZM71.2587 12.6796L70.7127 13.2256C70.687 13.2513 70.687 13.2933 70.7127 13.3189L71.2587 13.8649C71.2843 13.8906 71.3263 13.8906 71.352 13.8649L71.898 13.3189C71.9237 13.2933 71.9237 13.2513 71.898 13.2256L71.352 12.6796C71.3403 12.6679 71.3217 12.6609 71.3053 12.6609C71.2867 12.6633 71.2703 12.6679 71.2587 12.6796ZM71.303 12.8196C71.3753 12.8919 71.6857 13.2023 71.758 13.2746C71.6857 13.3469 71.3753 13.6573 71.303 13.7273C71.2307 13.6549 70.9203 13.3446 70.848 13.2746C70.9203 13.2023 71.233 12.8896 71.303 12.8196Z" fill="#EE2E24"/>
<path d="M57.2727 63.3499L56.0197 62.6872L55.5343 63.1842L54.4073 62.5892L57.639 59.7285L58.843 60.3655L58.297 64.6472L57.142 64.0359L57.275 63.3522L57.2727 63.3499ZM57.4523 62.4562L57.737 60.9628L56.6683 62.0409L57.4523 62.4562Z" fill="#EE2E24"/>
<path d="M60.7027 64.1597L61.8623 64.4327C61.832 64.624 61.839 64.7803 61.8857 64.8993C61.9603 65.093 62.1143 65.2236 62.343 65.2936C62.5133 65.345 62.658 65.345 62.7747 65.2936C62.8913 65.2423 62.966 65.163 62.9963 65.058C63.0267 64.9577 63.0103 64.855 62.945 64.75C62.882 64.645 62.7 64.5073 62.4013 64.3416C61.9137 64.0663 61.587 63.7957 61.4213 63.5343C61.2557 63.2707 61.2183 62.9883 61.3093 62.685C61.37 62.4866 61.4843 62.3163 61.6523 62.174C61.8203 62.0316 62.0373 61.9453 62.2987 61.915C62.56 61.8847 62.8937 61.929 63.295 62.0503C63.7897 62.1996 64.1373 62.405 64.3427 62.6686C64.5457 62.93 64.6133 63.2707 64.541 63.686L63.3953 63.4107C63.4187 63.2287 63.3953 63.0817 63.3207 62.9743C63.2483 62.867 63.1293 62.7876 62.959 62.7363C62.819 62.6943 62.707 62.692 62.6183 62.7293C62.5297 62.7666 62.4737 62.8273 62.448 62.9113C62.4293 62.972 62.441 63.0373 62.4853 63.105C62.525 63.1727 62.6463 63.2613 62.8423 63.3686C63.33 63.6393 63.6707 63.8656 63.862 64.05C64.0533 64.2343 64.1747 64.4257 64.226 64.6287C64.2773 64.8293 64.2703 65.037 64.2073 65.247C64.1327 65.4943 63.995 65.702 63.7943 65.87C63.5937 66.038 63.3533 66.1383 63.0757 66.1733C62.7957 66.206 62.469 66.1663 62.0957 66.0543C61.4377 65.856 61.02 65.5923 60.845 65.261C60.67 64.9297 60.621 64.5656 60.7073 64.1643L60.7027 64.1597Z" fill="#EE2E24"/>
<path d="M66.5243 62.9486L70.2973 63.35L70.1923 64.3416L68.9253 64.2063L68.6033 67.2326L67.362 67.0996L67.684 64.0733L66.417 63.938L66.522 62.9463L66.5243 62.9486Z" fill="#EE2E24"/>
<path d="M74.4226 66.5536L73.0086 66.654L72.8593 67.333L71.5876 67.4216L72.8173 63.2846L74.1753 63.189L75.9743 67.1136L74.67 67.2046L74.4203 66.5536H74.4226ZM74.103 65.6996L73.557 64.281L73.2186 65.7603L74.103 65.6973V65.6996Z" fill="#EE2E24"/>
<path d="M77.2646 62.7829L78.387 62.4679L80.4543 64.2109L79.8523 62.0595L80.9863 61.7422L82.076 65.6319L80.942 65.9492L78.8863 64.2202L79.486 66.3575L78.3543 66.6749L77.2646 62.7852V62.7829Z" fill="#EE2E24"/>
<path d="M86.5653 62.869L85.3053 63.5177L85.436 64.2014L84.302 64.7847L83.805 60.496L85.016 59.873L88.215 62.771L87.053 63.3684L86.5677 62.8667L86.5653 62.869ZM85.9353 62.211L84.8737 61.1237L85.1467 62.617L85.9353 62.211Z" fill="#EE2E24"/>
</svg>
