<svg width="240" height="58" viewBox="0 0 240 58" fill="none" xmlns="http://www.w3.org/2000/svg">
<g clip-path="url(#clip0_1725_4663)">
<path fill-rule="evenodd" clip-rule="evenodd" d="M27.5 0H212.5V58H27.5V0Z" fill="#CE1327"/>
<path fill-rule="evenodd" clip-rule="evenodd" d="M182.502 24.9628C182.502 23.8588 182.287 22.9688 181.855 22.2688C181.317 21.4618 180.535 21.0838 179.484 21.0838C178.245 21.0838 177.356 21.5688 176.871 22.5658C176.548 23.2658 176.413 24.3158 176.413 25.7448V32.9648C176.413 32.9648 174.149 32.9648 174.149 32.9668V26.0158C174.149 24.5598 173.988 23.4558 173.638 22.7008C173.126 21.6228 172.264 21.0848 170.969 21.0848C168.842 21.0848 167.764 22.6738 167.764 25.9068V32.9668H165.554V19.1978H167.629V20.9758C168.652 19.6298 169.893 18.9828 171.266 18.9828C172.29 18.9828 173.099 19.1718 173.717 19.5478C174.364 19.9528 174.93 20.5728 175.443 21.4618C176.358 19.7898 177.786 18.9818 179.754 18.9818C181.37 18.9818 182.638 19.5208 183.553 20.5718C184.443 21.5688 184.874 22.8888 184.874 24.5328V32.9658H182.502V24.9628ZM167.982 40.8258H166.689C166.286 39.9638 165.585 39.5328 164.56 39.5328C163.887 39.5328 163.349 39.8028 162.917 40.2868C162.486 40.7988 162.27 41.3648 162.27 42.0388C162.27 42.7388 162.486 43.3318 162.917 43.8168C163.376 44.3288 163.941 44.5718 164.614 44.5718C165.665 44.5718 166.339 44.1128 166.688 43.1978H167.981C167.389 44.8678 166.258 45.7018 164.614 45.7018C163.59 45.7018 162.728 45.3518 162.055 44.6518C161.381 43.9518 161.057 43.0908 161.057 42.0658C161.057 41.0148 161.381 40.1518 162.081 39.4518C162.756 38.7518 163.618 38.4008 164.669 38.4008C165.477 38.4008 166.15 38.6168 166.716 39.0478C167.309 39.4778 167.714 40.0718 167.982 40.8258ZM157.713 33.2898C153.913 33.2898 152 30.7028 152 27.1188V19.1988H154.29V26.4198C154.29 28.6558 155.046 30.9998 157.713 30.9998C160.38 30.9998 161.135 28.6558 161.135 26.4198V19.1988H163.425V27.1188C163.425 30.7028 161.512 33.2898 157.713 33.2898ZM152.111 45.5148H150.953V35.1408H152.111V45.5148ZM143.835 26.9308H139.227C139.444 28.1168 139.982 29.1138 140.818 29.8948C141.653 30.6778 142.677 31.0808 143.835 31.0808H143.862C145.587 31.0808 146.907 30.2998 147.823 28.7098H150.463C149.144 31.7818 146.961 33.3178 143.862 33.3178H143.835C141.868 33.3178 140.225 32.6158 138.823 31.1888C137.45 29.7608 136.749 28.0348 136.749 26.0698C136.749 24.0758 137.45 22.3768 138.823 20.9498C140.198 19.5218 141.868 18.7938 143.835 18.7938C145.398 18.7938 146.773 19.1978 147.904 20.0068C149.063 20.8148 149.898 21.9738 150.41 23.4558C150.76 24.4248 150.922 25.5838 150.922 26.9318L143.835 26.9308ZM143.916 21.0848H143.835C142.73 21.0848 141.761 21.4348 140.979 22.0808C140.17 22.7818 139.604 23.6718 139.282 24.8028H143.835V24.8038H148.389C147.661 22.3248 146.179 21.0848 143.916 21.0848ZM128.638 39.2448H128.531C126.455 39.2448 124.894 38.8138 123.896 37.9788C122.844 37.1168 122.225 36.0388 121.982 34.7188H124.704C124.866 35.5268 125.323 36.1468 126.132 36.5778C126.805 36.9278 127.588 37.0898 128.504 37.0898H128.531C130.04 37.0898 131.198 36.6048 132.006 35.7158C132.842 34.7728 133.247 33.5598 133.247 32.0238V31.0818C131.819 32.5098 130.255 33.2108 128.531 33.2108H128.504C126.375 33.2108 124.623 32.5368 123.303 31.1888C121.956 29.8418 121.283 28.1168 121.283 25.9888C121.283 23.9948 121.956 22.2978 123.303 20.9238C124.676 19.5218 126.347 18.8218 128.315 18.8218H128.531C130.31 18.8748 131.872 19.6028 133.247 20.9768C133.247 20.9768 133.247 19.1698 133.247 19.1708H135.617V31.2698C135.617 33.7218 135.079 35.6078 134 36.9818C132.788 38.4908 131.01 39.2448 128.638 39.2448ZM131.952 22.5928C131.036 21.5688 129.905 21.0848 128.585 21.0848H128.531C127.236 21.0848 126.104 21.5698 125.162 22.5398C124.192 23.5098 123.734 24.6678 123.734 25.9888C123.734 27.4438 124.192 28.6558 125.082 29.5998C125.97 30.5418 127.129 31.0008 128.531 31.0268H128.638C129.877 31.0268 130.983 30.5158 131.926 29.5178C132.869 28.4938 133.354 27.3628 133.354 26.1228C133.354 24.8038 132.895 23.6178 131.952 22.5928ZM117.833 31.0278C116.376 32.5098 114.76 33.2368 113.009 33.2368L112.955 33.2358C110.881 33.2358 109.183 32.5628 107.809 31.1888C106.436 29.8148 105.761 28.0888 105.761 26.0148C105.761 24.0208 106.435 22.3238 107.783 20.9488C109.156 19.5478 110.827 18.8468 112.794 18.8468H113.01C114.788 18.8998 116.377 19.6028 117.725 21.0028V19.1988H120.069V32.9678H117.833V31.0278ZM116.431 22.6208C115.488 21.5968 114.357 21.1118 113.035 21.1118H113.009C111.689 21.1118 110.585 21.5958 109.614 22.5658C108.672 23.5358 108.188 24.6938 108.187 26.0148C108.187 27.3888 108.672 28.5758 109.614 29.5718C110.531 30.5418 111.662 31.0268 113.009 31.0538L113.09 31.0548C114.357 31.0548 115.462 30.5418 116.405 29.5458C117.348 28.5208 117.833 27.3898 117.833 26.1498C117.833 24.8298 117.348 23.6438 116.431 22.6208ZM102.177 12.3008H104.468V32.9668H102.177V12.3008ZM98.027 31.0278C96.571 32.5098 94.955 33.2368 93.204 33.2368L93.178 33.2358C91.103 33.2358 89.377 32.5628 88.004 31.1888C86.63 29.8148 85.956 28.0888 85.956 26.0148C85.956 24.0208 86.629 22.3238 88.004 20.9488C89.351 19.5478 91.022 18.8468 93.016 18.8468H93.204C95.01 18.8998 96.571 19.6028 97.919 21.0028V19.1988H100.291V32.9678H98.027V31.0278ZM96.626 22.6208C95.71 21.5968 94.578 21.1118 93.258 21.1118H93.204C91.912 21.1118 90.779 21.5958 89.836 22.5658C88.867 23.5358 88.408 24.6938 88.408 26.0148C88.408 27.3888 88.866 28.5758 89.809 29.5718C90.752 30.5418 91.884 31.0268 93.204 31.0538L93.312 31.0548C94.552 31.0548 95.656 30.5418 96.599 29.5458C97.541 28.5208 98.028 27.3898 98.028 26.1498C98.028 24.8298 97.571 23.6438 96.626 22.6208ZM68.545 41.4678C60.839 41.4678 54.59 35.2198 54.59 27.5148C54.59 19.8078 60.839 13.5578 68.545 13.5578C76.251 13.5578 82.499 19.8078 82.499 27.5148C82.499 35.2198 76.251 41.4678 68.545 41.4678ZM68.545 15.2288C65.279 15.2288 62.313 16.5068 60.112 18.5858L68.537 21.9908L76.977 18.5858C74.777 16.5068 71.811 15.2288 68.545 15.2288ZM77.151 18.7508L77.226 18.9098L68.761 23.5858L69.81 39.7198H67.279L68.326 23.5948L59.863 18.9098L59.938 18.7518C57.669 20.9808 56.26 24.0818 56.26 27.5138C56.26 34.2958 61.761 39.7978 68.545 39.7978C75.328 39.7978 80.829 34.2958 80.829 27.5138C80.829 24.0818 79.42 20.9798 77.151 18.7508ZM146.319 38.4008C147.099 38.4008 147.8 38.6168 148.367 39.0198C148.932 39.4248 149.363 39.9898 149.632 40.7448C149.795 41.2298 149.875 41.7958 149.875 42.4698H146.319H144.001C144.11 43.0908 144.379 43.5758 144.81 43.9798C145.241 44.3558 145.726 44.5718 146.319 44.5718H146.346C147.208 44.5718 147.88 44.1678 148.339 43.3858H149.658C148.986 44.9228 147.88 45.7028 146.346 45.7028H146.319C145.348 45.7028 144.513 45.3268 143.813 44.6258C143.112 43.8978 142.762 43.0358 142.762 42.0388C142.762 41.0418 143.112 40.2068 143.813 39.4788C144.486 38.7518 145.321 38.4008 146.319 38.4008ZM146.319 41.4188H148.608C148.23 40.1788 147.504 39.5328 146.372 39.5328H146.319C145.752 39.5598 145.294 39.7208 144.89 40.0458C144.486 40.3958 144.19 40.8528 144.029 41.4188H146.319ZM156.801 38.4008C157.581 38.4008 158.255 38.6168 158.848 39.0198C159.413 39.4248 159.817 39.9898 160.087 40.7448C160.249 41.2298 160.357 41.7958 160.357 42.4698H156.801H154.483C154.59 43.0908 154.86 43.5748 155.264 43.9788C155.695 44.3558 156.206 44.5718 156.801 44.5718C157.663 44.5718 158.336 44.1668 158.794 43.3858H160.114C159.469 44.9218 158.363 45.7018 156.801 45.7018C155.803 45.7018 154.968 45.3258 154.267 44.6258C153.594 43.8978 153.242 43.0358 153.242 42.0388C153.242 41.0418 153.565 40.2058 154.267 39.4778C154.968 38.7518 155.803 38.4008 156.801 38.4008ZM156.801 41.4188H159.091C158.713 40.1788 157.959 39.5328 156.826 39.5328H156.801C156.234 39.5598 155.748 39.7208 155.345 40.0458C154.941 40.3958 154.671 40.8528 154.509 41.4188H156.801ZM169.491 36.3528H170.622V38.6168H171.62V39.6678H170.622V45.5148H169.491V39.6678H168.495V38.6168H169.491V36.3528ZM173.64 39.4778C174.125 38.8318 174.692 38.4818 175.312 38.4818V39.7208C174.261 39.7208 173.722 40.3678 173.722 41.6618V45.5148H172.563V38.5888H173.64V39.4778ZM177.387 37.0268H176.229V35.7068H177.387V37.0268ZM177.387 45.5148H176.229V38.6168H177.387V45.5148ZM182.103 38.4008C182.912 38.4008 183.585 38.6168 184.15 39.0478C184.744 39.4778 185.148 40.0718 185.417 40.8258H184.124C183.72 39.9638 183.019 39.5328 181.995 39.5328C181.323 39.5328 180.783 39.8028 180.353 40.2868C179.92 40.7988 179.706 41.3648 179.706 42.0388C179.706 42.7388 179.92 43.3318 180.353 43.8168C180.81 44.3288 181.376 44.5718 182.049 44.5718C183.1 44.5718 183.774 44.1128 184.123 43.1978H185.416C184.824 44.8678 183.692 45.7018 182.049 45.7018C181.025 45.7018 180.163 45.3518 179.49 44.6518C178.816 43.9518 178.491 43.0908 178.491 42.0658C178.491 41.0148 178.816 40.1518 179.516 39.4518C180.19 38.7518 181.052 38.4008 182.103 38.4008Z" fill="white"/>
</g>
<defs>
<clipPath id="clip0_1725_4663">
<rect width="185" height="58" fill="white" transform="translate(27.5)"/>
</clipPath>
</defs>
</svg>
