<svg width="195" height="80" viewBox="0 0 195 80" fill="none" xmlns="http://www.w3.org/2000/svg">
<rect width="194.593" height="80" rx="8" fill="#CF1F27"/>
<path d="M57.2925 21V13.08H62.2845V14.22H58.5645V16.248H60.2685C61.8645 16.248 62.9325 17.22 62.9325 18.612C62.9325 20.016 61.8645 21 60.2685 21H57.2925ZM58.5645 19.884H60.2205C61.1205 19.884 61.6485 19.38 61.6485 18.612C61.6485 17.844 61.1205 17.34 60.2205 17.34H58.5645V19.884ZM69.5812 21L69.0172 19.68H65.4532L64.8892 21H63.5332L67.0252 12.948H67.4572L70.9492 21H69.5812ZM68.5612 18.588L67.2412 15.312L65.9092 18.588H68.5612ZM71.543 17.04C71.495 14.772 73.451 12.912 75.707 12.948C77.159 12.948 78.419 13.656 79.103 14.772L78.143 15.48C77.579 14.604 76.763 14.112 75.719 14.112C74.099 14.112 72.863 15.36 72.863 17.04C72.863 18.72 74.099 19.968 75.719 19.968C76.763 19.968 77.579 19.476 78.143 18.6L79.103 19.308C78.431 20.424 77.183 21.132 75.707 21.132C73.451 21.168 71.495 19.308 71.543 17.04ZM90.0238 19.86H91.0318V22.692H89.7598V21H84.4198V22.692H83.1478V19.86H83.7718C84.5398 19.176 84.8878 17.436 84.8878 14.208V13.08H90.0238V19.86ZM85.1638 19.86H88.7518V14.22H86.0638C86.0518 17.04 85.7518 18.924 85.1638 19.86ZM92.355 21V13.08H97.563V14.22H93.627V16.248H96.591V17.352H93.627V19.86H97.707V21H92.355ZM106.279 12.948H106.711V21H105.439V16.032L103.171 19.008H102.739L100.459 16.02V21H99.187V12.948H99.631L102.955 17.376L106.279 12.948ZM108.703 21V13.08H113.911V14.22H109.975V16.248H112.939V17.352H109.975V19.86H114.055V21H108.703ZM120.803 13.08H122.135L119.351 19.068C118.679 20.508 118.211 21.096 116.927 21.132C116.699 21.132 116.435 21.084 116.159 21V19.908C116.351 19.944 116.555 19.956 116.783 19.956C117.275 19.956 117.647 19.776 117.947 19.284L114.887 13.08H116.315L118.643 17.856L120.803 13.08ZM123.398 21V13.08H124.67V19.86H127.622V13.08H128.894V19.86H131.846V13.08H133.118V21H123.398ZM135.105 21V13.08H136.377V21H135.105Z" fill="white"/>
<g clip-path="url(#clip0_1401_2668)">
<path fill-rule="evenodd" clip-rule="evenodd" d="M169.719 59.1433C168.924 59.1433 168.288 59.4611 167.779 60.0337C167.27 60.6381 167.015 61.3057 167.015 62.1011C167.015 62.9285 167.27 63.6278 167.779 64.2004C168.319 64.8048 168.988 65.0914 169.782 65.0914C171.023 65.0914 171.818 64.5507 172.232 63.4692H173.759C173.059 65.4411 171.723 66.427 169.782 66.427C168.574 66.427 167.556 66.0137 166.761 65.1864C165.965 64.3596 165.584 63.3418 165.584 62.133C165.584 60.8923 165.965 59.8745 166.793 59.0478C167.588 58.2205 168.605 57.8071 169.846 57.8071C170.8 57.8071 171.596 58.0618 172.263 58.5707C172.963 59.0796 173.44 59.779 173.759 60.67H172.232C171.754 59.6522 170.928 59.1433 169.719 59.1433ZM170.898 41.9457C170.898 40.6419 170.644 39.5923 170.135 38.7649C169.499 37.8108 168.576 37.3656 167.336 37.3656C165.873 37.3656 164.823 37.9382 164.251 39.1152C163.868 39.9419 163.71 41.1826 163.71 42.8685V51.3929H161.037V43.1864C161.037 41.4686 160.847 40.1648 160.434 39.2738C159.829 38.0019 158.811 37.3656 157.285 37.3656C154.771 37.3656 153.5 39.2426 153.5 43.0596V51.3929H150.891V35.139H153.34V37.2383C154.549 35.6479 156.012 34.8848 157.634 34.8848C158.843 34.8848 159.797 35.1071 160.529 35.5524C161.292 36.03 161.96 36.7612 162.565 37.8108C163.646 35.8389 165.332 34.8848 167.654 34.8848C169.562 34.8848 171.057 35.5205 172.139 36.7612C173.188 37.9382 173.697 39.4967 173.697 41.4368V51.3929H170.898V41.9457ZM153.179 60.67H151.652C151.175 59.6522 150.348 59.1433 149.139 59.1433C148.344 59.1433 147.708 59.4611 147.199 60.0337C146.69 60.6381 146.435 61.3057 146.435 62.1011C146.435 62.9285 146.69 63.6278 147.199 64.2004C147.74 64.8048 148.408 65.0914 149.203 65.0914C150.443 65.0914 151.239 64.5507 151.652 63.4692H153.179C152.479 65.4411 151.143 66.427 149.203 66.427C147.994 66.427 146.977 66.0137 146.181 65.1864C145.386 64.3596 145.004 63.3418 145.004 62.133C145.004 60.8923 145.386 59.8745 146.213 59.0478C147.008 58.2205 148.026 57.8071 149.266 57.8071C150.221 57.8071 151.016 58.0618 151.684 58.5707C152.383 59.0796 152.861 59.779 153.179 60.67ZM141.635 51.7745C137.15 51.7745 134.892 48.7211 134.892 44.4907V35.139H137.595V43.6634C137.595 46.3034 138.486 49.0708 141.635 49.0708C144.784 49.0708 145.674 46.3034 145.674 43.6634V35.139H148.378V44.4907C148.378 48.7211 146.12 51.7745 141.635 51.7745ZM133.076 53.9583H134.444V66.2047H133.076V53.9583ZM119.815 44.2678C120.069 45.6677 120.705 46.8441 121.692 47.767C122.678 48.6893 123.886 49.1663 125.254 49.1663H125.286C127.321 49.1663 128.88 48.244 129.961 46.3671H133.079C131.52 49.993 128.944 51.8063 125.286 51.8063H125.254C122.932 51.8063 120.992 50.9796 119.338 49.2937C117.715 47.6078 116.889 45.5722 116.889 43.25C116.889 40.896 117.715 38.8923 119.338 37.2064C120.96 35.5205 122.932 34.6619 125.254 34.6619C127.099 34.6619 128.721 35.139 130.057 36.0937C131.425 37.0478 132.411 38.4153 133.015 40.1648C133.429 41.31 133.619 42.6775 133.619 44.2678H125.254H119.815ZM125.349 37.3656H125.254C123.95 37.3656 122.804 37.779 121.882 38.5426C120.928 39.3694 120.26 40.419 119.878 41.7552H125.254H130.629C129.771 38.8286 128.021 37.3656 125.349 37.3656ZM107.314 58.804H107.187C104.738 58.804 102.893 58.2951 101.716 57.3092C100.476 56.2914 99.7437 55.0189 99.4577 53.4604H102.67C102.861 54.4145 103.402 55.1463 104.356 55.6551C105.151 56.0685 106.074 56.2596 107.155 56.2596H107.187C108.968 56.2596 110.336 55.687 111.29 54.6374C112.276 53.524 112.753 52.0929 112.753 50.2796V49.1663C111.067 50.8522 109.223 51.6789 107.187 51.6789H107.155C104.643 51.6789 102.575 50.884 101.016 49.2937C99.4259 47.7033 98.631 45.6677 98.631 43.1545C98.631 40.8011 99.4259 38.7968 101.016 37.1746C102.638 35.5205 104.611 34.6938 106.933 34.6938C107.028 34.6938 107.124 34.6938 107.187 34.6938C109.287 34.7575 111.131 35.616 112.753 37.2383V35.1071H115.552V49.3892C115.552 52.2834 114.916 54.51 113.644 56.1322C112.212 57.9136 110.113 58.804 107.314 58.804ZM111.227 39.147C110.145 37.9382 108.809 37.3656 107.251 37.3656H107.187C105.661 37.3656 104.324 37.9382 103.211 39.0834C102.066 40.2285 101.525 41.596 101.525 43.1545C101.525 44.8723 102.066 46.3034 103.116 47.4167C104.165 48.53 105.533 49.0708 107.187 49.1026H107.314C108.778 49.1026 110.081 48.4982 111.195 47.3218C112.308 46.1129 112.881 44.7767 112.881 43.3137C112.881 41.7552 112.34 40.3553 111.227 39.147ZM94.5592 49.1026C92.8415 50.8522 90.9333 51.7114 88.8659 51.7114H88.8022C86.3527 51.7114 84.3489 50.9159 82.7267 49.2937C81.1045 47.6715 80.3096 45.6359 80.3096 43.1864C80.3096 40.8329 81.1045 38.8286 82.6949 37.2064C84.3171 35.5524 86.2896 34.7256 88.6111 34.7256C88.7067 34.7256 88.7703 34.7256 88.8659 34.7256C90.9651 34.7893 92.8415 35.616 94.4324 37.2701V35.139H97.1992V51.3929H94.5592V49.1026ZM92.9052 39.1789C91.7919 37.97 90.4562 37.3975 88.8977 37.3975H88.8659C87.3073 37.3975 86.003 37.97 84.8578 39.1152C83.7445 40.2604 83.1719 41.6278 83.1719 43.1864C83.1719 44.8086 83.7445 46.2085 84.8578 47.3849C85.9393 48.53 87.2755 49.1026 88.8659 49.1345H88.9614C90.4562 49.1345 91.76 48.53 92.8733 47.353C93.9867 46.1448 94.5592 44.8086 94.5592 43.3456C94.5592 41.787 93.9867 40.3871 92.9052 39.1789ZM76.0787 26.9961H78.7823V51.3929H76.0787V26.9961ZM71.1808 49.1026C69.463 50.8522 67.5542 51.7114 65.4868 51.7114H65.455C63.006 51.7114 60.9705 50.9159 59.3482 49.2937C57.7255 47.6715 56.9306 45.6359 56.9306 43.1864C56.9306 40.8329 57.7255 38.8286 59.3482 37.2064C60.9386 35.5524 62.9105 34.7256 65.2639 34.7256C65.3276 34.7256 65.4231 34.7256 65.4868 34.7256C67.6179 34.7893 69.463 35.616 71.0534 37.2701V35.139H73.852V51.3929H71.1808V49.1026ZM69.5267 39.1789C68.4452 37.97 67.109 37.3975 65.5505 37.3975H65.4868C63.9601 37.3975 62.6239 37.97 61.5112 39.1152C60.366 40.2604 59.8253 41.6278 59.8253 43.1864C59.8253 44.8086 60.366 46.2085 61.4794 47.3849C62.5921 48.53 63.9283 49.1026 65.4868 49.1345H65.6142C67.0772 49.1345 68.3816 48.53 69.4949 47.353C70.6082 46.1448 71.1808 44.8086 71.1808 43.3456C71.1808 41.787 70.64 40.3871 69.5267 39.1789ZM36.3774 60.9334C27.5536 60.9334 20.399 53.7782 20.399 44.955C20.399 36.1313 27.5536 28.9761 36.3774 28.9761C45.2011 28.9761 52.3563 36.1313 52.3563 44.955C52.3563 53.7782 45.2011 60.9334 36.3774 60.9334ZM36.3774 29.9591C28.0967 29.9591 21.3815 36.6738 21.3815 44.955C21.3815 53.2357 28.0967 59.9509 36.3774 59.9509C44.6586 59.9509 51.3732 53.2357 51.3732 44.955C51.3732 36.6738 44.6586 29.9591 36.3774 29.9591ZM26.4525 34.6938L36.3687 38.703L46.3022 34.6938L36.3669 40.1839L26.4525 34.6938ZM37.6076 59.1161H35.1477L36.3768 40.1851L37.6076 59.1161ZM127.605 57.8071C128.528 57.8071 129.355 58.0618 130.023 58.5389C130.691 59.0159 131.2 59.684 131.517 60.5745C131.709 61.147 131.804 61.8151 131.804 62.61H127.605H124.87C124.997 63.3418 125.315 63.9144 125.824 64.3915C126.333 64.8367 126.906 65.0914 127.605 65.0914H127.637C128.655 65.0914 129.45 64.6144 129.991 63.6915H131.549C130.754 65.5048 129.45 66.427 127.637 66.427H127.605C126.46 66.427 125.474 65.9818 124.647 65.1551C123.82 64.2959 123.406 63.2781 123.406 62.1011C123.406 60.9241 123.82 59.9382 124.647 59.0796C125.442 58.2205 126.429 57.8071 127.605 57.8071ZM127.605 61.3694H130.309C129.863 59.9064 129.005 59.1433 127.669 59.1433H127.605C126.937 59.1751 126.397 59.3656 125.92 59.7471C125.442 60.1611 125.092 60.7018 124.901 61.3694H127.605ZM139.979 57.8071C140.901 57.8071 141.696 58.0618 142.396 58.5389C143.064 59.0159 143.541 59.684 143.859 60.5745C144.05 61.147 144.177 61.8151 144.177 62.61H139.979H137.243C137.37 63.3418 137.688 63.9144 138.166 64.3915C138.674 64.8367 139.279 65.0914 139.979 65.0914C140.997 65.0914 141.791 64.6144 142.332 63.6915H143.891C143.128 65.5048 141.823 66.427 139.979 66.427C138.802 66.427 137.816 65.9818 136.989 65.1551C136.194 64.2959 135.78 63.2781 135.78 62.1011C135.78 60.9241 136.162 59.9382 136.989 59.0796C137.816 58.2205 138.802 57.8071 139.979 57.8071ZM139.979 61.3694H142.682C142.237 59.9064 141.346 59.1433 140.011 59.1433H139.979C139.311 59.1751 138.738 59.3656 138.261 59.7471C137.784 60.1611 137.466 60.7018 137.275 61.3694H139.979ZM154.96 55.39H156.296V58.0618H157.473V59.3019H156.296V66.2047H154.96V59.3019H153.783V58.0618H154.96V55.39ZM159.859 59.0796C160.431 58.316 161.099 57.9026 161.831 57.9026V59.3656C160.59 59.3656 159.954 60.1293 159.954 61.6559V66.2047H158.586V58.03H159.859V59.0796ZM164.28 56.1849H162.912V54.6264H164.28V56.1849ZM164.28 66.2047H162.912V58.0618H164.28V66.2047Z" fill="#FEFEFE"/>
</g>
<defs>
<clipPath id="clip0_1401_2668">
<rect width="154" height="39.9474" fill="white" transform="translate(20.2965 27)"/>
</clipPath>
</defs>
</svg>
