<svg width="195" height="80" viewBox="0 0 195 80" fill="none" xmlns="http://www.w3.org/2000/svg">
<rect width="194.593" height="80" rx="8" fill="white"/>
<path d="M56.7925 21V13.08H61.7845V14.22H58.0645V16.248H59.7685C61.3645 16.248 62.4325 17.22 62.4325 18.612C62.4325 20.016 61.3645 21 59.7685 21H56.7925ZM58.0645 19.884H59.7205C60.6205 19.884 61.1485 19.38 61.1485 18.612C61.1485 17.844 60.6205 17.34 59.7205 17.34H58.0645V19.884ZM69.0812 21L68.5172 19.68H64.9532L64.3892 21H63.0332L66.5252 12.948H66.9572L70.4492 21H69.0812ZM68.0612 18.588L66.7412 15.312L65.4092 18.588H68.0612ZM71.043 17.04C70.995 14.772 72.951 12.912 75.207 12.948C76.659 12.948 77.919 13.656 78.603 14.772L77.643 15.48C77.079 14.604 76.263 14.112 75.219 14.112C73.599 14.112 72.363 15.36 72.363 17.04C72.363 18.72 73.599 19.968 75.219 19.968C76.263 19.968 77.079 19.476 77.643 18.6L78.603 19.308C77.931 20.424 76.683 21.132 75.207 21.132C72.951 21.168 70.995 19.308 71.043 17.04ZM83.0078 17.04C82.9598 14.772 84.9158 12.912 87.1718 12.948C88.6238 12.948 89.8838 13.656 90.5678 14.772L89.6078 15.48C89.0438 14.604 88.2278 14.112 87.1838 14.112C85.5638 14.112 84.3278 15.36 84.3278 17.04C84.3278 18.72 85.5638 19.968 87.1838 19.968C88.2278 19.968 89.0438 19.476 89.6078 18.6L90.5678 19.308C89.8958 20.424 88.6478 21.132 87.1718 21.132C84.9158 21.168 82.9598 19.308 83.0078 17.04ZM92.0894 21V13.08H97.2974V14.22H93.3614V16.248H96.3254V17.352H93.3614V19.86H97.4414V21H92.0894ZM98.9214 21V13.08H101.813C103.409 13.08 104.501 14.076 104.501 15.504C104.501 16.92 103.409 17.94 101.813 17.94H100.193V21H98.9214ZM100.193 16.812H101.789C102.689 16.812 103.193 16.296 103.193 15.516C103.193 14.736 102.689 14.208 101.789 14.208H100.193V16.812ZM105.918 21V13.08H107.19V21H105.918ZM109.187 21V13.08H110.459V21H109.187ZM112.091 16.788L115.739 21H114.167L110.495 16.788L113.819 13.08H115.379L112.091 16.788ZM118.863 21V14.22H116.199V13.08H122.811V14.22H120.135V21H118.863ZM124 21V13.08H129.208V14.22H125.272V16.248H128.236V17.352H125.272V19.86H129.352V21H124ZM130.117 17.04C130.069 14.772 132.025 12.912 134.281 12.948C135.733 12.948 136.993 13.656 137.677 14.772L136.717 15.48C136.153 14.604 135.337 14.112 134.293 14.112C132.673 14.112 131.437 15.36 131.437 17.04C131.437 18.72 132.673 19.968 134.293 19.968C135.337 19.968 136.153 19.476 136.717 18.6L137.677 19.308C137.005 20.424 135.757 21.132 134.281 21.132C132.025 21.168 130.069 19.308 130.117 17.04Z" fill="#625747"/>
<path d="M39.8619 65.7086C39.1389 65.7086 38.4064 65.4327 37.8546 64.881L34.0016 61.028H28.5503C26.9806 61.028 25.7153 59.7531 25.7153 58.1929V52.7416L21.8528 48.8791C20.7492 47.7756 20.7492 45.968 21.8528 44.8644L25.7058 41.0114V35.5601C25.7058 33.9904 26.9806 32.7251 28.5408 32.7251H33.9921L37.8451 28.8721C38.9486 27.7685 40.7562 27.7685 41.8598 28.8721L45.7128 32.7251H51.164C52.7338 32.7251 53.9991 33.9999 53.9991 35.5601V41.0114L57.8521 44.8644C58.9557 45.968 58.9557 47.7756 57.8521 48.8791L53.9991 52.7321V58.1834C53.9991 59.7531 52.7243 61.0184 51.164 61.0184H45.7318L41.8788 64.8714C41.3175 65.4327 40.5945 65.7086 39.8619 65.7086Z" fill="#F8AE00"/>
<path d="M58.9557 44.9878L54.6936 40.7257V34.6941C54.6936 33.229 53.5044 32.0398 52.0393 32.0398H46.0077L41.7456 27.7777C40.7086 26.7408 39.0247 26.7408 37.9878 27.7777L33.7257 32.0398H27.6941C26.229 32.0398 25.0398 33.229 25.0398 34.6941V40.7257L20.7777 44.9878C19.7408 46.0247 19.7408 47.7086 20.7777 48.7456L25.0398 53.0077V59.0393C25.0398 60.5044 26.229 61.6936 27.6941 61.6936H33.7257L37.9878 65.9557C39.0247 66.9926 40.7086 66.9926 41.7456 65.9557L46.0077 61.6936H52.0393C53.5044 61.6936 54.6936 60.5044 54.6936 59.0393V53.0077L58.9557 48.7456C59.9926 47.7086 59.9926 46.0247 58.9557 44.9878ZM57.1861 48.1843L53.0477 52.3227V58.1831C53.0477 59.2105 52.2105 60.0477 51.1831 60.0477H45.3227L41.1843 64.1861C40.4518 64.9187 39.2721 64.9187 38.5491 64.1861L34.4107 60.0477H28.5503C27.5229 60.0477 26.6857 59.2105 26.6857 58.1831V52.3227L22.5473 48.1843C21.8147 47.4518 21.8147 46.2721 22.5473 45.5491L26.6857 41.4107V35.5503C26.6857 34.5229 27.5229 33.6857 28.5503 33.6857H34.4107L38.5491 29.5473C39.2816 28.8147 40.4613 28.8147 41.1843 29.5473L45.3227 33.6857H51.1831C52.2105 33.6857 53.0477 34.5229 53.0477 35.5503V41.4107L57.1861 45.5491C57.9187 46.2816 57.9187 47.4613 57.1861 48.1843Z" stroke="#008669" stroke-miterlimit="10"/>
<path d="M38.5015 31.7629L24.7639 45.5005C24.0124 46.2521 24.0124 47.4793 24.7639 48.2404L28.1413 51.6177C29.2353 50.2858 30.9192 48.7351 33.3642 47.584C38.5967 45.1295 41.7647 47.3556 45.0088 43.5312C47.0352 41.1433 46.569 38.5651 46.0172 37.0715C45.7984 36.5007 45.4559 35.9869 45.0278 35.5493L41.2414 31.7629C40.4803 31.0113 39.2531 31.0113 38.5015 31.7629Z" fill="#008669"/>
<path d="M41.2319 61.9686L54.9695 48.231C55.721 47.4794 55.721 46.2522 54.9695 45.4911L51.5921 42.1138C50.4981 43.4457 48.8142 44.9964 46.3692 46.1475C41.1367 48.602 37.9687 46.3758 34.7246 50.2003C32.6982 52.5882 33.1644 55.1664 33.7162 56.66C33.935 57.2308 34.2775 57.7446 34.7056 58.1822L38.492 61.9686C39.2531 62.7201 40.4803 62.7201 41.2319 61.9686Z" fill="#008669"/>
<path d="M58.9557 44.9878L54.6936 40.7257V34.6941C54.6936 33.229 53.5044 32.0398 52.0393 32.0398H46.0077L41.7456 27.7777C40.7086 26.7408 39.0247 26.7408 37.9878 27.7777L33.7257 32.0398H27.6941C26.229 32.0398 25.0398 33.229 25.0398 34.6941V40.7257L20.7777 44.9878C19.7408 46.0247 19.7408 47.7086 20.7777 48.7456L25.0398 53.0077V59.0393C25.0398 60.5044 26.229 61.6936 27.6941 61.6936H33.7257L37.9878 65.9557C39.0247 66.9926 40.7086 66.9926 41.7456 65.9557L46.0077 61.6936H52.0393C53.5044 61.6936 54.6936 60.5044 54.6936 59.0393V53.0077L58.9557 48.7456C59.9926 47.7086 59.9926 46.0247 58.9557 44.9878ZM57.1861 48.1843L53.0477 52.3227V58.1831C53.0477 59.2105 52.2105 60.0477 51.1831 60.0477H45.3227L41.1843 64.1861C40.4518 64.9187 39.2721 64.9187 38.5491 64.1861L34.4107 60.0477H28.5503C27.5229 60.0477 26.6857 59.2105 26.6857 58.1831V52.3227L22.5473 48.1843C21.8147 47.4518 21.8147 46.2721 22.5473 45.5491L26.6857 41.4107V35.5503C26.6857 34.5229 27.5229 33.6857 28.5503 33.6857H34.4107L38.5491 29.5473C39.2816 28.8147 40.4613 28.8147 41.1843 29.5473L45.3227 33.6857H51.1831C52.2105 33.6857 53.0477 34.5229 53.0477 35.5503V41.4107L57.1861 45.5491C57.9187 46.2816 57.9187 47.4613 57.1861 48.1843Z" fill="#008669"/>
<path d="M155.157 61.7686H160.009V51.0183L168.714 61.7686H174.593L164.718 49.5057L173.803 40.1633H168.124L160.018 48.5067V31.9722H155.166V61.7686H155.157ZM130.412 40.1633L138.651 60.8934L138.441 61.4642C137.528 63.8902 136.054 64.4039 134.845 64.4039C134.398 64.4039 133.865 64.3659 133.437 64.2327V68.6184C133.865 68.7896 134.779 68.999 135.911 68.999C139.888 68.999 141.847 66.3637 143.531 62.016L151.979 40.1538H146.832L141.324 55.347L135.616 40.1538H130.412V40.1633ZM121.65 55.5943C121.65 59.7232 123.505 62.1492 127.482 62.1492C128.614 62.1492 129.48 61.9399 129.908 61.7686V57.3639C129.546 57.4685 129.185 57.5541 128.719 57.5541C127.396 57.5541 126.53 56.6789 126.53 54.9569V31.9722H121.66V55.5943H121.65ZM100.378 50.9612C100.378 46.6801 103.317 44.3588 106.333 44.3588C109.359 44.3588 112.289 46.6801 112.289 50.9612C112.289 55.2423 109.349 57.5637 106.333 57.5637C103.308 57.5541 100.378 55.2328 100.378 50.9612ZM95.326 50.9612C95.326 58.1154 100.311 62.1587 105.458 62.1587C108.968 62.1587 111.223 60.3321 112.232 58.8194V61.7782H117.103V40.1633H112.232V43.103C111.233 41.6094 108.978 39.7828 105.458 39.7828C100.311 39.7828 95.326 43.788 95.326 50.9612ZM67.6415 61.7686H72.6647V48.7636H86.7733V61.7686H91.7965V31.9722H86.7733V44.1686H72.6647V31.9722H67.6415V61.7686Z" fill="#008669"/>
</svg>
