<svg width="260" height="70" viewBox="0 0 260 70" fill="none" xmlns="http://www.w3.org/2000/svg">
<path d="M57.8125 68.5413C76.3371 68.5413 91.3542 53.5242 91.3542 34.9997C91.3542 16.4751 76.3371 1.45801 57.8125 1.45801C39.288 1.45801 24.2709 16.4751 24.2709 34.9997C24.2709 53.5242 39.288 68.5413 57.8125 68.5413Z" fill="white"/>
<path fill-rule="evenodd" clip-rule="evenodd" d="M57.2099 14.5024C52.3675 14.5024 47.0293 16.1591 42.3582 20.9942C40.5419 22.8711 39.4204 24.9142 38.6322 26.7743C38.0452 28.1736 37.0389 31.6072 37.0389 33.358V35.9757C37.0389 39.8417 39.6618 46.0192 43.2952 49.3187C46.0011 51.7723 48.7435 53.2394 51.3518 53.9948C51.6026 54.0656 54.8685 54.8399 55.6713 54.8399H58.7382C63.0388 54.8399 70.531 51.3604 73.5323 46.5099C69.7661 49.7846 65.8418 50.9542 62.1062 50.9542C53.3314 50.9542 45.5133 44.0337 45.5133 34.6945C45.5133 25.3568 53.2104 18.4305 62.1062 18.4305C65.8607 18.4305 69.947 19.5949 73.5753 22.9199C72.4772 21.1298 70.2204 19.11 68.5572 17.9725C64.9288 15.4824 60.8841 14.5024 57.2099 14.5024Z" fill="#00ACC8"/>
<path fill-rule="evenodd" clip-rule="evenodd" d="M87.4991 44.383C84.037 46.1453 80.906 42.3653 77.5212 42.6242C80.0762 44.66 82.653 47.2931 85.6331 48.8877C81.937 50.0872 79.436 45.8617 76.0512 45.5897C78.2569 48.0003 80.3904 51.0031 83.0854 53.0455C79.2471 53.6514 77.438 49.0868 74.1371 48.2891C75.9389 51.0147 77.5766 54.3142 79.9187 56.7525C76.0329 56.7511 74.9603 51.9597 71.8249 50.6552C73.1775 53.6295 74.2793 57.1448 76.2116 59.9193C72.3733 59.3105 72.0634 54.4097 69.1708 52.6313C70.0414 55.7806 70.5795 59.4242 72.0539 62.467C68.3592 61.2653 68.8186 56.3785 66.2417 54.1684C66.6092 57.4146 66.5691 61.0976 67.5491 64.3329C64.0885 62.5684 65.3054 57.8127 63.107 55.2271C62.9619 58.4909 62.3465 62.1228 62.808 65.4712C59.6653 63.1867 61.6122 58.6804 59.8447 55.7827C59.1907 58.9831 58.0152 62.4743 57.9467 65.854C55.2007 63.1058 57.8286 58.9597 56.5358 55.8207C55.3895 58.8802 53.6818 62.144 53.0861 65.4712C50.8038 62.3277 54.0471 58.6433 53.2618 55.3409C51.6511 58.1832 49.4541 61.1399 48.345 64.3329C46.5826 60.8709 50.3626 57.7398 50.103 54.355C48.0679 56.91 45.4349 59.4869 43.8402 62.467C42.64 58.7709 46.8663 56.2698 47.1368 52.885C44.7269 55.0908 41.7249 57.2243 39.6825 59.9193C39.0759 56.081 43.6412 54.2719 44.4389 50.9717C41.7125 52.7727 38.4138 54.4105 35.9747 56.7525C35.9762 52.8668 40.7683 51.7942 42.072 48.6588C39.0977 50.0114 35.5831 51.1132 32.8079 53.0455C33.4175 49.2071 38.3183 48.8972 40.0967 46.0046C36.9474 46.876 33.3038 47.4134 30.2602 48.8877C31.4626 45.1931 36.3495 45.6524 38.5596 43.0756C35.3134 43.4431 31.6296 43.4029 28.3943 44.383C30.1596 40.9223 34.9145 42.14 37.5009 39.9409C34.2371 39.7958 30.6051 39.1803 27.2561 39.6419C29.5413 36.4999 34.0468 38.4461 36.9452 36.6786C33.7442 36.0252 30.2537 34.8491 26.874 34.7806C29.6222 32.0345 33.7675 34.6624 36.9066 33.3696C33.8477 32.2234 30.584 30.5157 27.2561 29.9199C30.4002 27.6376 34.084 30.8817 37.3864 30.0957C34.5448 28.4849 31.588 26.288 28.3943 25.1789C31.8571 23.4165 34.9882 27.1965 38.3729 26.9376C35.8172 24.9018 33.2411 22.2688 30.2602 20.6741C33.9564 19.4746 36.4574 23.7001 39.8422 23.9714C37.6365 21.5615 35.5029 18.5588 32.8079 16.5164C36.6463 15.9097 38.4553 20.475 41.7563 21.2727C39.9545 18.5464 38.3175 15.2476 35.9747 12.8086C39.8604 12.81 40.9338 17.6021 44.0677 18.9059C42.7159 15.9316 41.6148 12.417 39.6825 9.64253C43.5201 10.2514 43.83 15.1521 46.7234 16.9306C45.852 13.7813 45.3139 10.1376 43.8402 7.09482C47.5342 8.29649 47.0755 13.1834 49.6517 15.3935C49.2849 12.1472 49.3243 8.4642 48.345 5.22889C51.8057 6.99347 50.5879 11.7484 52.7871 14.3347C52.9322 11.071 53.5469 7.43899 53.0861 4.09066C56.228 6.37514 54.2819 10.8807 56.0487 13.7791C56.7027 10.5781 57.8789 7.08753 57.9467 3.70785C60.6927 6.45607 58.0655 10.6021 59.3576 13.7404C60.5039 10.6816 62.2116 7.41785 62.808 4.09066C65.0903 7.2341 61.8463 10.9178 62.6316 14.2202C64.2416 11.3787 66.44 8.42191 67.5491 5.22889C69.3115 8.69097 65.5315 11.822 65.7903 15.2068C67.8262 12.6518 70.4585 10.0749 72.0539 7.09482C73.2534 10.791 69.0278 13.2913 68.7559 16.6768C71.1665 14.4711 74.1692 12.3368 76.2109 9.64253C76.8175 13.4801 72.2529 15.2899 71.4552 18.5901C74.1809 16.7891 77.4803 15.1514 79.9187 12.8086C79.9172 16.695 75.1259 17.7676 73.8214 20.9031C76.7957 19.5497 80.311 18.4487 83.0854 16.5164C82.4759 20.3547 77.5759 20.6646 75.7967 23.5572C78.9467 22.6859 82.5903 22.1477 85.6331 20.6741C84.4315 24.3681 79.5446 23.9094 77.3345 26.4863C80.58 26.1188 84.2638 26.1582 87.4991 25.1789C85.7338 28.6395 80.9789 27.4218 78.3933 29.621C81.657 29.7661 85.289 30.3815 88.6373 29.9199C86.3528 33.0619 81.8466 31.1158 78.9489 32.8833C82.1492 33.5366 85.6404 34.7127 89.0201 34.7806C86.2719 37.5266 82.1259 34.8994 78.9868 36.1915C82.0457 37.3385 85.3101 39.0462 88.6373 39.6419C86.312 41.4546 83.1365 39.7243 80.7076 39.4727C80.012 39.3626 79.2923 39.1847 78.507 39.4655C81.3493 41.0769 84.3061 43.2739 87.4991 44.383ZM23.3375 34.7806C23.3375 53.8949 38.8323 69.3905 57.9467 69.3905C77.0611 69.3905 92.5566 53.8949 92.5566 34.7806C92.5566 15.6662 77.0611 0.171387 57.9467 0.171387C38.8323 0.171387 23.3375 15.6662 23.3375 34.7806Z" fill="#00ACC8"/>
<path fill-rule="evenodd" clip-rule="evenodd" d="M67.4776 32.7428L69.6848 27.6124L64.5537 29.8189L62.4865 24.6309L60.4193 29.8189L55.2889 27.6124L57.4961 32.7428L52.3073 34.81L57.4961 36.8779L55.2889 42.0084L60.4193 39.8012L62.4865 44.9899L64.5537 39.8012L69.6848 42.0084L67.4776 36.8779L72.6656 34.81L67.4776 32.7428Z" fill="#00ACC8"/>
<path fill-rule="evenodd" clip-rule="evenodd" d="M103.148 29.4904C103.76 30.1029 104.519 30.4091 105.409 30.4091C106.298 30.4091 107.042 30.1029 107.655 29.4758C108.282 28.848 108.588 28.0751 108.588 27.1862C108.588 26.2959 108.282 25.5368 107.669 24.9105C107.056 24.2834 106.298 23.9618 105.409 23.9618C104.519 23.9618 103.76 24.2834 103.148 24.9105C102.535 25.5368 102.228 26.2959 102.228 27.1862C102.228 28.105 102.535 28.864 103.148 29.4904ZM101.557 23.4521C102.622 22.4306 103.906 21.9194 105.409 21.9194C106.911 21.9194 108.194 22.4306 109.244 23.4521C110.309 24.473 110.835 25.7118 110.835 27.1862C110.835 28.6584 110.309 29.9133 109.26 30.9341C108.209 31.9411 106.926 32.4515 105.409 32.4515C103.906 32.4515 102.622 31.9411 101.557 30.9341C100.507 29.9133 99.9824 28.6584 99.9824 27.1862C99.9824 25.7118 100.507 24.473 101.557 23.4521Z" fill="white"/>
<path fill-rule="evenodd" clip-rule="evenodd" d="M114.566 26.8799H116.345C117.221 26.8799 117.804 26.3243 117.804 25.4646C117.804 24.691 117.25 24.123 116.535 24.123H114.566V26.8799ZM112.334 32.2473V22.0806H116.593C117.542 22.0806 118.358 22.4007 119.029 23.0576C119.715 23.7 120.05 24.4875 120.05 25.4362C120.05 26.7334 119.335 27.857 118.242 28.3237L120.721 32.2473H118.183L116.069 28.864H116.04H114.566V32.2473H112.334Z" fill="white"/>
<path fill-rule="evenodd" clip-rule="evenodd" d="M129.777 22.7813V24.9834C128.917 24.298 127.881 23.9618 126.686 23.9618C125.781 23.9618 125.022 24.2681 124.395 24.8806C123.768 25.4945 123.462 26.2521 123.462 27.1709C123.462 28.0904 123.768 28.848 124.381 29.4605C125.008 30.0584 125.766 30.3661 126.686 30.3661C127.574 30.3661 128.319 30.1029 128.902 29.5771V28.207H126.234V26.2237H131.003V30.3362C130.054 31.6057 128.45 32.407 126.686 32.407C125.154 32.407 123.87 31.9112 122.805 30.9203C121.74 29.9133 121.215 28.673 121.215 27.1709C121.215 25.6695 121.74 24.4292 122.805 23.4222C123.87 22.4167 125.154 21.9194 126.686 21.9194C127.867 21.9194 128.888 22.2118 129.777 22.7813Z" fill="white"/>
<path fill-rule="evenodd" clip-rule="evenodd" d="M135.61 28.7173H138.192L136.894 26.0485L135.61 28.7173ZM131.614 32.2479L136.908 21.4971L142.203 32.2479H139.811L139.023 30.6284H134.778L133.99 32.2479H131.614Z" fill="white"/>
<path fill-rule="evenodd" clip-rule="evenodd" d="M143.353 32.2478V21.6865L150.179 27.8575V22.081H152.396V32.6408L145.57 26.4859V32.2478H143.353Z" fill="white"/>
<path fill-rule="evenodd" clip-rule="evenodd" d="M154.437 32.2473H156.682V22.0806H154.437V32.2473Z" fill="white"/>
<path fill-rule="evenodd" clip-rule="evenodd" d="M157.906 32.2478L163.26 24.1227H158.927V22.0811H166.994L161.685 30.2054H166.775V32.2478H157.906Z" fill="white"/>
<path fill-rule="evenodd" clip-rule="evenodd" d="M171.105 28.7173H173.687L172.39 26.0485L171.105 28.7173ZM167.11 32.2479L172.403 21.4971L177.699 32.2479H175.307L174.519 30.6284H170.273L169.486 32.2479H167.11Z" fill="white"/>
<path fill-rule="evenodd" clip-rule="evenodd" d="M179.52 32.2478V24.1227H176.763V22.0811H184.48V24.1227H181.765V32.2478H179.52Z" fill="white"/>
<path fill-rule="evenodd" clip-rule="evenodd" d="M185.717 32.2473H187.963V22.0806H185.717V32.2473Z" fill="white"/>
<path fill-rule="evenodd" clip-rule="evenodd" d="M192.703 29.4904C193.315 30.1029 194.074 30.4091 194.964 30.4091C195.853 30.4091 196.597 30.1029 197.21 29.4758C197.838 28.848 198.144 28.0751 198.144 27.1862C198.144 26.2959 197.838 25.5368 197.224 24.9105C196.611 24.2834 195.853 23.9618 194.964 23.9618C194.074 23.9618 193.315 24.2834 192.703 24.9105C192.089 25.5368 191.783 26.2959 191.783 27.1862C191.783 28.105 192.089 28.864 192.703 29.4904ZM191.112 23.4521C192.177 22.4306 193.461 21.9194 194.964 21.9194C196.465 21.9194 197.75 22.4306 198.799 23.4521C199.864 24.473 200.39 25.7118 200.39 27.1862C200.39 28.6584 199.864 29.9133 198.815 30.9341C197.763 31.9411 196.481 32.4515 194.964 32.4515C193.461 32.4515 192.177 31.9411 191.112 30.9341C190.062 29.9133 189.537 28.6584 189.537 27.1862C189.537 25.7118 190.062 24.473 191.112 23.4521Z" fill="white"/>
<path fill-rule="evenodd" clip-rule="evenodd" d="M201.89 32.2478V21.6865L208.716 27.8575V22.081H210.932V32.6408L204.107 26.4859V32.2478H201.89Z" fill="white"/>
<path fill-rule="evenodd" clip-rule="evenodd" d="M220.95 29.4904C221.563 30.1029 222.322 30.4091 223.212 30.4091C224.101 30.4091 224.845 30.1029 225.459 29.4758C226.086 28.848 226.392 28.0751 226.392 27.1862C226.392 26.2959 226.086 25.5368 225.472 24.9105C224.859 24.2834 224.101 23.9618 223.212 23.9618C222.322 23.9618 221.563 24.2834 220.95 24.9105C220.338 25.5368 220.031 26.2959 220.031 27.1862C220.031 28.105 220.338 28.864 220.95 29.4904ZM219.36 23.4521C220.425 22.4306 221.708 21.9194 223.212 21.9194C224.713 21.9194 225.998 22.4306 227.047 23.4521C228.112 24.473 228.638 25.7118 228.638 27.1862C228.638 28.6584 228.112 29.9133 227.063 30.9341C226.011 31.9411 224.729 32.4515 223.212 32.4515C221.708 32.4515 220.425 31.9411 219.36 30.9341C218.311 29.9133 217.785 28.6584 217.785 27.1862C217.785 25.7118 218.311 24.473 219.36 23.4521Z" fill="white"/>
<path fill-rule="evenodd" clip-rule="evenodd" d="M230.138 32.2478V22.0811H236.833V24.1227H232.385V26.2081H236.44V28.2075H232.385V32.2478H230.138Z" fill="white"/>
<path fill-rule="evenodd" clip-rule="evenodd" d="M102.418 47.2044V39.0793H99.6616V37.0376H107.378V39.0793H104.664V47.2044H102.418Z" fill="white"/>
<path fill-rule="evenodd" clip-rule="evenodd" d="M108.456 37.0371H110.701V42.8573C110.701 44.5052 111.401 45.3226 112.787 45.3226C114.173 45.3226 114.858 44.5052 114.858 42.8573V37.0371H117.105V43.0914C117.105 44.4629 116.697 45.5122 115.88 46.2574C115.063 47.0004 114.028 47.365 112.787 47.365C111.533 47.365 110.497 47.0004 109.681 46.2713C108.864 45.5268 108.456 44.4768 108.456 43.0914V37.0371Z" fill="white"/>
<path fill-rule="evenodd" clip-rule="evenodd" d="M121.216 41.8365H122.995C123.871 41.8365 124.454 41.2823 124.454 40.4226C124.454 39.649 123.9 39.0795 123.185 39.0795H121.216V41.8365ZM118.984 47.2039V37.0371H123.243C124.192 37.0371 125.008 37.3587 125.679 38.0157C126.365 38.6566 126.7 39.4441 126.7 40.3927C126.7 41.6914 125.985 42.8136 124.892 43.2802L127.371 47.2039H124.833L122.719 43.8205H122.69H121.216V47.2039H118.984Z" fill="white"/>
<path fill-rule="evenodd" clip-rule="evenodd" d="M128.551 47.2044V37.0376H130.798V41.6029L134.43 37.0376H137.142L133.059 42.0258L137.303 47.2044H134.561L130.798 42.5661V47.2044H128.551Z" fill="white"/>
<path fill-rule="evenodd" clip-rule="evenodd" d="M138.409 47.2039H140.655V37.0371H138.409V47.2039Z" fill="white"/>
<path fill-rule="evenodd" clip-rule="evenodd" d="M150.85 37.9272V40.2758C149.946 39.371 148.895 38.9196 147.7 38.9196C146.795 38.9196 146.036 39.2258 145.409 39.8383C144.782 40.4508 144.476 41.2099 144.476 42.1287C144.476 43.0467 144.782 43.8065 145.396 44.4182C146.022 45.0169 146.78 45.3231 147.7 45.3231C148.895 45.3231 149.946 44.8696 150.85 43.9654V46.3141C149.96 47.0148 148.91 47.3648 147.7 47.3648C146.168 47.3648 144.884 46.8697 143.819 45.8766C142.754 44.8696 142.23 43.6307 142.23 42.1287C142.23 40.6258 142.754 39.3855 143.819 38.38C144.884 37.373 146.168 36.8779 147.7 36.8779C148.91 36.8779 149.96 37.2279 150.85 37.9272Z" fill="white"/>
<path fill-rule="evenodd" clip-rule="evenodd" d="M158.125 44.1122C159.058 44.9282 160.197 45.3372 161.553 45.3372C162.676 45.3372 163.333 44.9282 163.333 44.3317C163.333 43.9956 163.172 43.7331 162.866 43.5428C162.56 43.3532 161.947 43.0914 161.057 42.7706C159.322 42.1428 158.315 41.2524 158.315 39.7358C158.315 38.8455 158.665 38.1608 159.351 37.6511C160.051 37.1392 160.911 36.8774 161.947 36.8774C162.983 36.8774 163.887 37.1108 164.674 37.5629V39.7941C163.974 39.2261 163.099 38.9337 162.034 38.9337C161.101 38.9337 160.576 39.2545 160.576 39.7219C160.576 40.0136 160.707 40.2316 161.101 40.4649L161.597 40.7129L162.268 40.9761L162.91 41.224C163.887 41.617 164.572 42.0414 164.967 42.4928C165.374 42.9456 165.579 43.5581 165.579 44.3317C165.579 46.1247 164.208 47.365 161.656 47.365C160.358 47.365 159.175 47.0588 158.125 46.4463V44.1122Z" fill="white"/>
<path fill-rule="evenodd" clip-rule="evenodd" d="M168.509 47.2044V39.0793H165.752V37.0376H173.469V39.0793H170.755V47.2044H168.509Z" fill="white"/>
<path fill-rule="evenodd" clip-rule="evenodd" d="M176.53 43.6753H179.112L177.814 41.0051L176.53 43.6753ZM172.534 47.2045L177.828 36.4551L183.123 47.2045H180.731L179.943 45.585H175.698L174.911 47.2045H172.534Z" fill="white"/>
<path fill-rule="evenodd" clip-rule="evenodd" d="M184.945 47.2044V39.0793H182.188V37.0376H189.905V39.0793H187.191V47.2044H184.945Z" fill="white"/>
<path fill-rule="evenodd" clip-rule="evenodd" d="M191.083 47.2044V37.0376H198.026V39.0793H193.33V40.9911H197.72V42.9891H193.33V45.162H198.128V47.2044H191.083Z" fill="white"/>
<path fill-rule="evenodd" clip-rule="evenodd" d="M199.482 44.1122C200.415 44.9282 201.554 45.3372 202.91 45.3372C204.033 45.3372 204.69 44.9282 204.69 44.3317C204.69 43.9956 204.53 43.7331 204.224 43.5428C203.917 43.3532 203.303 43.0914 202.414 42.7706C200.679 42.1428 199.673 41.2524 199.673 39.7358C199.673 38.8455 200.021 38.1608 200.708 37.6511C201.408 37.1392 202.268 36.8774 203.303 36.8774C204.339 36.8774 205.244 37.1108 206.031 37.5629V39.7941C205.331 39.2261 204.456 38.9337 203.391 38.9337C202.458 38.9337 201.932 39.2545 201.932 39.7219C201.932 40.0136 202.064 40.2316 202.458 40.4649L202.955 40.7129L203.626 40.9761L204.267 41.224C205.244 41.617 205.93 42.0414 206.324 42.4928C206.731 42.9456 206.937 43.5581 206.937 44.3317C206.937 46.1247 205.565 47.365 203.013 47.365C201.715 47.365 200.532 47.0588 199.482 46.4463V44.1122Z" fill="white"/>
</svg>
