<svg width="240" height="70" viewBox="0 0 240 70" fill="none" xmlns="http://www.w3.org/2000/svg">
<g clip-path="url(#clip0_1775_2544)">
<path fill-rule="evenodd" clip-rule="evenodd" d="M72.562 17.0989C81.6952 18.0412 88.8187 25.6903 88.8214 34.9909C88.825 44.9305 80.6971 52.9918 70.6693 52.9954C60.6397 52.999 52.5082 44.9431 52.5037 35.0035C52.501 25.063 60.628 17.0026 70.6567 16.999C71.3002 16.999 71.9356 17.035 72.562 17.0989Z" fill="white"/>
<path fill-rule="evenodd" clip-rule="evenodd" d="M73.4987 51.7381C71.9291 52.0009 70.373 52.0405 68.8664 51.8848C63.9983 51.3799 59.6135 48.8158 56.7911 44.962L84.5228 37.0816C84.9215 36.9673 84.8189 36.5875 84.4895 36.61L72.8624 37.4155C74.5013 35.8477 75.7469 33.9262 75.5966 31.2676C75.2897 26.962 70.868 22.7608 62.6456 19.9951C64.2269 19.1644 65.9621 18.5659 67.8224 18.2572C69.392 17.9953 70.9472 17.953 72.4547 18.1105C79.9184 18.8845 86.2481 24.4933 87.5504 32.1856C89.1191 41.4313 82.8281 50.1847 73.4987 51.7381ZM65.8685 35.3923C64.487 40.5376 60.6008 42.8479 56.1809 44.0683C54.9983 42.2179 54.1577 40.1074 53.7698 37.8106C52.5908 30.8626 55.8524 24.1927 61.5044 20.6458C65.6543 23.7922 67.3895 29.7268 65.8685 35.3923Z" fill="#E62D22"/>
<path fill-rule="evenodd" clip-rule="evenodd" d="M183.274 39.4612C181.834 39.4612 181.159 39.9841 181.159 40.8913C181.159 41.8453 181.972 42.1423 183.436 42.6868C185.319 43.6165 187.504 44.026 187.504 47.2048C187.504 49.9525 185.295 51.451 182.345 51.451C180.532 51.451 179.09 51.1342 177.975 50.6572V47.9545C179.021 48.4324 180.368 48.9085 181.762 48.9085C183.366 48.9085 184.18 48.3622 184.18 47.3182C184.18 46.0915 183.088 45.9565 180.904 45.0241C179.417 44.3662 177.998 43.3447 177.998 40.9831C177.998 38.2363 180.114 36.9412 183.042 36.9412C184.599 36.9412 185.923 37.3039 186.667 37.5775V40.2109C185.923 39.8707 184.599 39.4612 183.274 39.4612ZM182.791 26.9395H176.804V32.857H173.518V18.7621H176.804V24.3772H182.791V18.7621H186.101V32.857H182.791V26.9395ZM166.756 24.2881C168.64 25.2187 170.824 25.6282 170.824 28.807C170.824 31.5538 168.615 33.0532 165.664 33.0532C163.852 33.0532 162.411 32.7355 161.296 32.2576V29.5567C162.341 30.0337 163.689 30.5098 165.083 30.5098C166.687 30.5098 167.5 29.9644 167.5 28.9195C167.5 27.6937 166.408 27.5587 164.223 26.6263C162.736 25.9684 161.318 24.946 161.318 22.5844C161.318 19.8367 163.432 18.5425 166.361 18.5425C167.918 18.5425 169.243 18.9061 169.987 19.1788V21.8131C169.243 21.472 167.918 21.0634 166.593 21.0634C165.153 21.0634 164.479 21.5854 164.479 22.4926C164.479 23.4466 165.292 23.7436 166.756 24.2881ZM160.533 37.1599H163.414V51.2539H159.811L154.987 43.6282C154.538 42.928 154.067 42.091 153.735 41.4574H153.69C153.712 42.0685 153.76 42.7921 153.76 43.4707V51.2539H150.879V37.1599H152.916C153.883 37.1599 154.781 37.654 155.293 38.4676L159.261 44.7829C159.708 45.4849 160.228 46.4128 160.533 47.0689H160.606C160.558 46.4353 160.533 45.5524 160.533 44.9197V37.1599ZM155.332 18.7288H158.579V32.8597H155.332V18.7288ZM153.503 32.8606H150.887C150.015 32.8606 149.209 32.4691 148.675 31.7869L144.477 26.4229L144.365 26.2843L144.364 26.5354V32.8525H141.077V18.7567H144.364V24.7246L144.365 24.9784L144.48 24.8317L149.014 18.7567H152.434L147.49 25.054L147.4 25.1656L147.49 25.2781L153.503 32.8606ZM136.794 32.8552C135.82 32.8552 134.902 32.3431 134.399 31.5178L131.842 27.3337H130.22V32.8552H126.937V18.7612H132.793C134.297 18.7612 135.475 19.15 136.294 19.9186C137.111 20.6845 137.526 21.733 137.526 23.0353C137.526 23.6977 137.347 24.3673 136.996 25.0279C136.65 25.6759 136.037 26.2078 135.172 26.6074L134.983 26.6938L138.973 32.8552H136.794ZM133.711 21.8122C133.373 21.4405 132.843 21.2533 132.138 21.2533H130.22V25.2124H132.138C132.826 25.2124 133.353 25.0252 133.7 24.6562C134.042 24.2899 134.215 23.8156 134.215 23.2441C134.215 22.66 134.045 22.1785 133.711 21.8122ZM129.252 38.3146C130.069 39.0805 130.483 40.1299 130.483 41.4322C130.483 42.0946 130.304 42.7642 129.954 43.4248C129.608 44.0737 128.995 44.6047 128.131 45.0043L127.941 45.0907L131.93 51.2521H129.751C128.778 51.2521 127.86 50.74 127.357 49.9147L124.8 45.7297H123.178V51.2521H119.895V37.1572H125.75C127.255 37.1572 128.433 37.5469 129.252 38.3146ZM126.671 40.2091C126.331 39.8365 125.8 39.6502 125.096 39.6502H123.178V43.6093H125.096C125.783 43.6093 126.311 43.423 126.657 43.0522C127 42.6868 127.174 42.2125 127.174 41.6401C127.174 41.056 127.005 40.5745 126.671 40.2091ZM122.344 31.777C121.853 32.2153 121.239 32.5366 120.521 32.7364C119.791 32.9389 118.956 33.0451 118.041 33.0451C117.125 33.0451 116.284 32.9389 115.538 32.7355C114.802 32.5366 114.161 32.2135 113.627 31.7734C113.1 31.3378 112.687 30.7717 112.403 30.0922C112.118 29.4055 111.973 28.5622 111.973 27.5857V18.7612H115.26V27.493C115.26 28.384 115.487 29.1031 115.936 29.6278C116.391 30.1642 117.1 30.4351 118.041 30.4351C118.999 30.4351 119.713 30.1642 120.162 29.6269C120.6 29.0995 120.824 28.3813 120.824 27.493V18.7612H123.899V27.5857C123.899 28.5658 123.762 29.4109 123.49 30.0949C123.222 30.7753 122.836 31.3423 122.344 31.777ZM107.227 48.6529H101.459L100.909 50.3071C100.719 50.8723 100.189 51.2521 99.5879 51.2521H97.2209L102.584 37.1572H106.359L111.631 51.2521H108.071L107.227 48.6529ZM105.142 42.5536C104.855 41.7319 104.569 40.93 104.401 40.2829H104.353C104.161 40.9084 103.875 41.7535 103.587 42.5536L102.297 46.1167H106.384L105.142 42.5536ZM108.286 21.3937H105.781V32.8597H102.494V21.3937H98.6303V18.7621H109.668V20.0239C109.668 20.7781 109.048 21.3937 108.286 21.3937ZM116.879 51.2503H113.593V37.1635H116.88L116.879 51.2503ZM137.224 38.8312V48.7141H142.469V51.253H133.937V37.1572H135.535C136.466 37.1572 137.224 37.9078 137.224 38.8312ZM147.869 51.2503H144.583V37.1635H147.871L147.869 51.2503ZM175.336 38.437C175.336 39.1831 174.724 39.7897 173.97 39.7897H169.716V42.8209H174.493V45.1753H169.716V48.6232H175.336V51.2548H166.43V37.1581H175.336V38.437Z" fill="#010101"/>
</g>
<defs>
<clipPath id="clip0_1775_2544">
<rect width="135" height="36" fill="white" transform="translate(52.5 17)"/>
</clipPath>
</defs>
</svg>
