<svg width="240" height="70" viewBox="0 0 240 70" fill="none" xmlns="http://www.w3.org/2000/svg">
<path fill-rule="evenodd" clip-rule="evenodd" d="M32.3625 27.854H207.638V64.9995H32.3625V27.854Z" fill="#FEFEFE"/>
<path fill-rule="evenodd" clip-rule="evenodd" d="M32.3621 65V27.8545H207.638V65H32.3621ZM69.7326 38.6935L57.6405 34.998L45.5485 38.6946L45.5468 39.7896L57.6387 36.0912L69.7326 39.79V38.6935ZM67.5238 42.0748C66.6379 42.0748 66.6379 42.8356 66.6379 42.8356V51.9108C66.6379 51.9108 66.6379 52.6708 67.4742 52.6708C68.3612 52.6708 68.3612 51.9108 68.3612 51.9108V42.8356C68.3612 42.8356 68.4121 42.0748 67.5238 42.0748ZM45.5472 53.2246V54.2383H69.7309V53.2246H45.5472ZM63.4695 52.1135C63.2792 52.1135 63.2413 51.9108 63.2413 51.9108V42.8356C63.2413 42.8356 63.2413 42.6072 63.4695 42.6072C63.6722 42.6072 63.6722 42.8356 63.6722 42.8356V45.2181H64.3057V42.8356C64.3057 42.8356 64.2805 42.0748 63.4695 42.0748C62.6591 42.0748 62.6591 42.8356 62.6591 42.8356V51.9108C62.6591 51.9108 62.6323 52.6708 63.4695 52.6708C64.3057 52.6708 64.3057 51.9108 64.3057 51.9108V49.2489H63.6722V51.9108C63.6722 51.9108 63.6722 52.1135 63.4695 52.1135ZM59.5026 52.101C59.3369 52.0882 59.3369 51.9108 59.3369 51.9108V49.2489H58.6788V51.9108C58.6788 51.9108 58.6535 52.6708 59.4891 52.6708C60.3265 52.6708 60.3265 51.9108 60.3265 51.9108C60.3265 51.9108 60.3265 50.1359 60.3251 49.6184C60.3234 48.3752 59.3369 46.0045 59.3369 45.2198V42.8356C59.3369 42.8356 59.3117 42.6072 59.4891 42.6072C59.667 42.6072 59.667 42.8356 59.667 42.8356V45.2181H60.3265V42.8356C60.3265 42.8356 60.3511 42.0498 59.5148 42.0748C58.6788 42.1001 58.6788 42.8356 58.6788 42.8356V44.8632C58.6788 46.1941 59.667 48.4379 59.667 49.4645V51.9108C59.667 51.9108 59.667 52.1135 59.5026 52.101ZM56.3716 47.3225V46.7393H55.6871V42.6072H56.3716V42.0748H54.9775V52.6708H56.5993V52.1135H55.6871V47.3225H56.3716ZM51.4537 42.0748H50.9471V52.6708H51.4537V46.3006L52.0873 52.6708H52.6194V42.0748H52.0873V47.7381L51.4537 42.0748ZM47.7775 52.1135C47.5491 52.1135 47.6008 51.8855 47.6008 51.8855V42.0748H46.9672V51.9108C46.9672 51.9108 46.9672 52.6708 47.828 52.6708C48.6904 52.6708 48.6402 51.9108 48.6402 51.9108V42.0748H48.0055V51.936C48.0055 51.936 48.0055 52.1135 47.7775 52.1135ZM69.7302 41.4555V40.4418H45.5468V41.4555H69.7302ZM67.7622 39.7889L57.6387 36.6944L47.5099 39.7889H50.4394L57.6387 37.6341L64.8363 39.7889H67.7622ZM71.0494 54.9485H44.1782V55.9616H71.0494V54.9485ZM72.3681 56.6735H42.9111V57.6859H72.3681V56.6735ZM206.864 28.6281H83.2122V64.2258H206.864V28.6281ZM99.2683 47.2147C99.2683 47.9087 99.3372 48.9849 100.136 49.7132C100.483 50.0247 101.107 50.4416 102.218 50.4416C103.155 50.4416 103.883 50.1295 104.334 49.7132C105.064 49.0194 105.167 47.9782 105.167 47.2147V38.6782H110.164V47.7002C110.164 49.4702 109.99 51.1354 108.43 52.6619C106.66 54.3969 104.057 54.6752 102.218 54.6752C100.309 54.6752 97.7418 54.3969 95.9716 52.6619C94.5494 51.2748 94.2712 49.7132 94.2712 48.0121V38.6782H99.2683V47.2147ZM119.047 40.518C120.573 38.5739 122.378 38.262 123.836 38.262C125.188 38.262 126.959 38.5047 128.277 39.8235C129.735 41.2809 129.838 43.1195 129.838 44.3689V54.1546H124.842V46.2076C124.842 45.2017 124.807 43.9181 124.009 43.1195C123.627 42.739 123.002 42.4255 122.101 42.4255C121.059 42.4255 120.4 42.8424 120.018 43.2589C119.185 44.0914 119.047 45.2017 119.047 46.2076V54.1546H114.05V38.6782H119.047V40.518ZM141.254 38.1574C142.989 38.1574 145.488 38.47 147.396 40.4825C149.235 42.4259 149.582 44.8554 149.582 46.763V47.2835H138.027C138.027 48.1167 138.339 49.2274 138.964 49.9215C139.728 50.7535 140.769 50.8929 141.532 50.8929C142.26 50.8929 143.024 50.7535 143.544 50.442C143.613 50.4068 144.204 50.0245 144.62 49.1579L149.339 49.6432C148.645 51.8286 147.257 52.9739 146.355 53.5301C144.863 54.4317 143.198 54.6747 141.463 54.6747C139.137 54.6747 137.09 54.2585 135.286 52.4539C133.933 51.1006 132.961 49.0535 132.961 46.4854C132.961 44.2646 133.758 41.9751 135.32 40.3788C137.194 38.5045 139.519 38.1574 141.254 38.1574ZM144.967 44.2996C144.931 44.1609 144.689 43.1895 143.961 42.4951C143.406 41.9751 142.607 41.6278 141.601 41.6278C140.317 41.6278 139.554 42.1484 139.068 42.6337C138.686 43.0507 138.339 43.6058 138.201 44.2996H144.967ZM155.62 50.2327C156.313 50.5801 157.042 50.7194 157.701 50.7194C158.013 50.7194 158.812 50.7194 159.262 50.372C159.576 50.1293 159.783 49.7473 159.783 49.3668C159.783 49.0881 159.679 48.7414 159.228 48.4645C158.881 48.2549 158.431 48.1167 157.701 47.9087L156.453 47.527C155.55 47.249 154.613 46.7634 153.954 46.1048C153.225 45.3401 152.844 44.4728 152.844 43.293C152.844 41.8017 153.433 40.5521 154.335 39.7189C155.723 38.4354 157.598 38.1578 159.02 38.1578C161.311 38.1578 162.906 38.7475 164.156 39.4763L162.177 42.6342C161.414 42.1827 160.408 41.7665 159.436 41.7665C158.916 41.7665 158.327 41.9051 158.013 42.2168C157.84 42.3912 157.701 42.6683 157.701 42.9118C157.701 43.2591 157.944 43.4662 158.187 43.6051C158.533 43.8136 159.055 43.9177 159.679 44.1262L160.998 44.5426C161.866 44.8195 162.768 45.1667 163.565 45.8957C164.468 46.7288 164.78 47.6652 164.78 48.8457C164.78 50.8926 163.878 52.2107 163.184 52.9058C161.657 54.4324 159.783 54.6741 158.153 54.6741C156.07 54.6741 153.815 54.2239 151.802 52.4544L153.919 49.0881C154.405 49.5043 155.099 49.9904 155.62 50.2327ZM174.969 38.1583C176.687 38.1583 178.337 38.6828 179.738 39.6755L179.808 39.7251L177.953 43.6683L177.85 43.5664C177.082 42.8092 176.067 42.3923 174.991 42.3923C172.745 42.3923 170.917 44.2203 170.917 46.4648C170.917 48.7108 172.745 50.5371 174.991 50.5371C176.075 50.5371 177.097 50.1162 177.866 49.3497L177.97 49.2443L179.8 53.1351L179.729 53.1856C178.329 54.1727 176.683 54.6969 174.969 54.6969C170.409 54.6969 166.7 50.9868 166.7 46.4267C166.7 41.8677 170.409 38.1583 174.969 38.1583ZM189.583 38.1869C194.135 38.1869 197.838 41.8899 197.838 46.4413C197.838 50.9939 194.135 54.6967 189.583 54.6967C185.031 54.6967 181.328 50.9939 181.328 46.4413C181.328 41.8899 185.031 38.1869 189.583 38.1869ZM189.604 50.5459C191.846 50.5459 193.67 48.7212 193.67 46.4794C193.67 44.2378 191.846 42.4133 189.604 42.4133C187.362 42.4133 185.538 44.2378 185.538 46.4794C185.538 48.7212 187.362 50.5459 189.604 50.5459ZM67.5245 52.1135C67.2715 52.1135 67.2715 51.9103 67.2715 51.9103V42.8356C67.2715 42.8356 67.2715 42.6067 67.4994 42.6067C67.7529 42.6067 67.7529 42.8356 67.7529 42.8356V51.9103C67.7529 51.9103 67.7781 52.1135 67.5245 52.1135Z" fill="#0077D4"/>
<path fill-rule="evenodd" clip-rule="evenodd" d="M140.834 5.85395C140.799 5.95285 140.728 6.05174 140.609 6.15119C140.501 6.23741 140.395 6.23741 140.287 6.11372C140.05 5.89114 139.717 5.65562 139.325 5.65562C139.015 5.65562 138.825 5.80437 138.695 6.02695C138.54 6.2622 138.409 6.85666 138.421 7.9084V8.40315H139.824C139.895 8.51471 139.836 8.81194 139.705 8.88604H138.421V12.4503C138.421 13.3663 138.504 13.404 139.443 13.5026V13.812H136.638V13.49C137.399 13.4161 137.482 13.3542 137.482 12.5371V8.88604H136.65L136.602 8.76236L136.924 8.40315H137.482V8.13153C137.482 7.74753 137.529 7.38859 137.613 7.11615C137.696 6.84372 137.886 6.23741 138.528 5.66856C138.944 5.28456 139.372 5.06198 139.836 5C140.24 5.01212 140.585 5.18567 140.775 5.42092C140.882 5.55672 140.894 5.7176 140.834 5.85395ZM133.585 13.9607C131.957 13.9607 130.982 12.5991 130.982 11.2253C130.982 9.18328 132.504 8.25522 133.585 8.25522C135.059 8.25522 136.165 9.48051 136.165 11.0149C136.165 13.0079 134.762 13.9607 133.585 13.9607ZM135.059 11.287C135.059 9.83944 134.5 8.66347 133.466 8.66347C132.729 8.66347 132.087 9.43065 132.087 10.8292C132.087 12.3886 132.741 13.5519 133.716 13.5519C134.453 13.5519 135.059 12.9831 135.059 11.287ZM124.387 10.7424C124.399 12.4264 125.326 13.1189 126.158 13.1189C126.634 13.1189 127.086 12.9211 127.514 12.5002L127.704 12.7597C126.955 13.7382 126.135 13.9607 125.767 13.9607C124.304 13.9607 123.448 12.7228 123.448 11.3242C123.448 10.4703 123.746 9.71576 124.233 9.15821C124.72 8.58936 125.362 8.25522 125.981 8.25522C126.967 8.25522 127.763 9.17116 127.763 10.1358C127.763 10.3835 127.704 10.4829 127.49 10.532C127.288 10.5697 125.802 10.6934 124.387 10.7424ZM125.695 8.71305C125.148 8.71305 124.625 9.23286 124.447 10.2356C125.112 10.2356 125.767 10.2226 126.455 10.1978C126.669 10.1978 126.741 10.124 126.741 9.95046C126.753 9.30696 126.349 8.71305 125.695 8.71305ZM122.107 9.08438C122.334 9.35655 122.464 9.74 122.464 10.1857C122.464 11.5226 121.394 12.1661 120.384 12.1661C120.182 12.1661 119.968 12.1291 119.777 12.1041C119.611 12.2159 119.421 12.4382 119.421 12.6118C119.421 12.8594 119.635 13.0938 120.17 13.0938C120.598 13.0938 121.026 13.0817 121.418 13.0817C122.155 13.0817 123.13 13.3294 123.13 14.5423C123.13 15.7923 121.739 16.9926 120.158 16.9926C118.838 16.9926 118.113 16.1885 118.101 15.483C118.101 15.2108 118.208 14.9753 118.386 14.7899C118.624 14.5423 119.088 14.1464 119.373 13.9238C118.945 13.7872 118.648 13.5026 118.494 13.2426C118.386 13.0569 118.351 12.8465 118.363 12.7228C118.838 12.5371 119.218 12.2159 119.409 11.9677C118.874 11.733 118.363 11.1512 118.363 10.3094C118.363 8.89872 119.575 8.25522 120.49 8.25522C120.895 8.25522 121.287 8.36623 121.632 8.56457C122.215 8.53978 122.821 8.46568 123.249 8.39103L123.32 8.48992C123.213 8.68826 122.976 9.00973 122.785 9.12129L122.107 9.08438ZM119.041 15.1858C119.041 15.8543 119.73 16.362 120.61 16.362C121.739 16.362 122.321 15.7554 122.321 14.9882C122.321 14.5673 122.12 14.258 121.775 14.1092C121.477 13.9855 121.133 13.9478 120.633 13.9478C120.062 13.9478 119.801 14.0224 119.587 14.2202C119.278 14.4805 119.041 14.8268 119.041 15.1858ZM120.372 8.62655C119.849 8.62655 119.385 9.14609 119.385 10.1119C119.385 11.0766 119.837 11.7699 120.503 11.7699C121.026 11.7578 121.49 11.2752 121.49 10.2973C121.49 9.31963 121.049 8.62655 120.372 8.62655ZM116.177 13.7252C116.023 13.5519 115.952 13.3789 115.892 13.1685C115.417 13.5026 114.846 13.9607 114.489 13.9607C113.645 13.9607 113.063 13.2305 113.063 12.4503C113.063 11.844 113.372 11.4606 114.026 11.2253C114.739 10.978 115.607 10.6435 115.869 10.4212V10.1978C115.869 9.30696 115.464 8.79927 114.87 8.79927C114.632 8.79927 114.454 8.89872 114.335 9.04747C114.181 9.20807 114.073 9.48051 113.978 9.86369C113.93 10.062 113.8 10.1488 113.634 10.1488C113.42 10.1488 113.111 9.90142 113.111 9.61631C113.111 9.43065 113.265 9.29484 113.491 9.12129C113.824 8.87392 114.596 8.39103 115.274 8.25522C115.631 8.25522 115.987 8.36623 116.249 8.58936C116.665 8.94775 116.784 9.45544 116.784 10.0989V12.4013C116.784 12.958 116.998 13.1437 117.2 13.1437C117.343 13.1437 117.509 13.0817 117.628 13.0079L117.746 13.3294L116.736 13.9607C116.558 13.9607 116.308 13.8492 116.177 13.7252ZM115.869 10.8422C115.619 10.978 115.048 11.2375 114.799 11.3617C114.335 11.5843 114.073 11.8198 114.073 12.265C114.073 12.9084 114.549 13.2183 114.917 13.2183C115.227 13.2057 115.643 12.9952 115.869 12.7726V10.8422ZM110.046 13.49C110.748 13.4161 110.831 13.3172 110.831 12.4633V10.3962C110.831 9.54221 110.546 8.98549 109.749 8.98549C109.274 8.98549 108.81 9.29484 108.453 9.61631V12.525C108.453 13.3663 108.524 13.4161 109.226 13.49V13.812H106.646V13.49C107.455 13.404 107.514 13.342 107.514 12.525V9.96313C107.514 9.17116 107.443 9.13342 106.801 9.00973V8.72517C107.372 8.61361 107.93 8.46568 108.453 8.21748V9.20807C108.691 9.0224 108.952 8.83701 109.25 8.62655C109.582 8.40315 109.892 8.25522 110.237 8.25522C111.176 8.25522 111.77 8.93563 111.77 10.1358V12.525C111.77 13.3663 111.829 13.4161 112.519 13.49V13.812H110.046V13.49ZM103.617 13.9607C101.989 13.9607 101.014 12.5991 101.014 11.2253C101.014 9.18328 102.536 8.25522 103.617 8.25522C105.091 8.25522 106.197 9.48051 106.197 11.0149C106.197 13.0079 104.794 13.9607 103.617 13.9607ZM105.091 11.287C105.091 9.83944 104.533 8.66347 103.499 8.66347C102.761 8.66347 102.119 9.43065 102.119 10.8292C102.119 12.3886 102.773 13.5519 103.748 13.5519C104.485 13.5519 105.091 12.9831 105.091 11.287ZM100.029 9.45544C99.863 9.27005 99.7201 9.1954 99.5303 9.1954C99.2209 9.1954 98.8405 9.567 98.5791 10.2598V12.525C98.5791 13.342 98.6386 13.4161 99.5537 13.49V13.812H96.8199V13.49C97.5565 13.4161 97.6397 13.342 97.6397 12.525V9.96313C97.6397 9.14609 97.5805 9.0965 96.9031 8.99761V8.72517C97.4855 8.62655 98.0086 8.4778 98.5791 8.21748V9.567H98.603C98.9592 8.94775 99.4705 8.25522 100.041 8.25522C100.445 8.25522 100.73 8.57669 100.73 8.87392C100.73 9.1213 100.576 9.36867 100.35 9.48051C100.208 9.54221 100.1 9.52954 100.029 9.45544ZM94.9781 13.9607C94.2294 13.9607 93.8135 13.4657 93.8135 12.4881V8.88604H92.9928L92.9454 8.76236L93.2666 8.40315H93.8135V7.50016L94.5856 6.68312L94.752 6.70791V8.40315H96.096C96.2026 8.52766 96.1671 8.79927 96.0241 8.88604H94.752V12.0672C94.752 13.0699 95.1445 13.2553 95.4417 13.2553C95.739 13.2553 96.0128 13.1316 96.1792 13.0448L96.2858 13.3663L95.4773 13.7999C95.2754 13.9109 95.0856 13.9607 94.9781 13.9607ZM91.9612 13.9607C91.7827 13.9607 91.5331 13.8492 91.4023 13.7252C91.248 13.5519 91.1769 13.3789 91.1172 13.1685C90.6414 13.5026 90.0712 13.9607 89.7142 13.9607C88.8704 13.9607 88.2881 13.2305 88.2881 12.4503C88.2881 11.844 88.5972 11.4606 89.2509 11.2253C89.964 10.978 90.8321 10.6435 91.0937 10.4212V10.1978C91.0937 9.30696 90.6891 8.79927 90.0946 8.79927C89.8572 8.79927 89.6787 8.89872 89.5599 9.04747C89.4057 9.20807 89.2982 9.48051 89.2032 9.86369C89.1561 10.062 89.0252 10.1488 88.8589 10.1488C88.6448 10.1488 88.3357 9.90142 88.3357 9.61631C88.3357 9.43065 88.49 9.29484 88.7159 9.12129C89.0487 8.87392 89.8216 8.39103 90.4993 8.25522C90.8555 8.25522 91.2125 8.36623 91.4742 8.58936C91.8901 8.94775 92.0089 9.45544 92.0089 10.0989V12.4013C92.0089 12.958 92.2229 13.1437 92.4248 13.1437C92.5678 13.1437 92.7342 13.0817 92.8529 13.0079L92.9716 13.3294L91.9612 13.9607ZM91.0937 10.8422C90.8442 10.978 90.2731 11.2375 90.0235 11.3617C89.5599 11.5843 89.2982 11.8198 89.2982 12.265C89.2982 12.9084 89.774 13.2183 90.1423 13.2183C90.4516 13.2057 90.8676 12.9952 91.0937 12.7726V10.8422ZM83.8084 13.7382V15.3593C83.8084 16.3 83.8916 16.362 84.8194 16.4485V16.7821H82.0016V16.4485C82.7625 16.3738 82.8699 16.3 82.8699 15.483V9.88848C82.8699 9.08438 82.8222 9.05931 82.0848 8.9607V8.66347C82.5839 8.57669 83.2503 8.36623 83.8084 8.13153V9.10917L84.9026 8.44089C85.1166 8.3172 85.3422 8.25522 85.4849 8.25522C86.8047 8.25522 87.5889 9.36867 87.5889 10.594C87.5889 12.4633 86.1741 13.6635 84.629 13.9607C84.2841 13.9478 83.9635 13.8241 83.8084 13.7382ZM84.9263 13.3542C85.9246 13.3542 86.5906 12.4633 86.5906 11.0647C86.5906 9.74 85.8653 8.99761 84.9973 8.99761C84.6169 8.99761 84.1299 9.27005 83.8084 9.51742V12.8713C84.0701 13.1558 84.5221 13.3542 84.9263 13.3542ZM75.6449 10.7424C75.657 12.4264 76.5842 13.1189 77.4161 13.1189C77.8919 13.1189 78.3439 12.9211 78.7715 12.5002L78.9618 12.7597C78.2131 13.7382 77.3927 13.9607 77.0244 13.9607C75.5617 13.9607 74.7064 12.7228 74.7064 11.3242C74.7064 10.4703 75.0036 9.71576 75.4906 9.15821C75.9776 8.58936 76.6198 8.25522 77.2382 8.25522C78.2246 8.25522 79.021 9.17116 79.021 10.1358C79.021 10.3835 78.9618 10.4829 78.7478 10.532C78.5458 10.5697 77.06 10.6934 75.6449 10.7424ZM76.9525 8.71305C76.4057 8.71305 75.8832 9.23286 75.7047 10.2356C76.3702 10.2356 77.0244 10.2226 77.7134 10.1978C77.9274 10.1978 77.999 10.124 77.999 9.95046C78.0106 9.30696 77.6068 8.71305 76.9525 8.71305ZM71.796 13.49C72.4858 13.4161 72.5803 13.342 72.5803 12.5371V10.4829C72.5803 9.46756 72.212 8.9607 71.4156 8.9607C70.9641 8.9607 70.5118 9.1954 70.179 9.59125V12.5371C70.179 13.3294 70.2388 13.4161 70.9399 13.49V13.812H68.4199V13.49C69.1331 13.428 69.2405 13.3542 69.2405 12.5371V6.63326C69.2405 5.85395 69.2163 5.79225 68.432 5.7176V5.43304C69.0022 5.34626 69.7154 5.14875 70.179 5V9.15821C70.595 8.71305 71.2371 8.25522 71.8792 8.25522C72.842 8.25522 73.5196 8.88604 73.5196 10.3714V12.5371C73.5196 13.3542 73.6028 13.428 74.3044 13.49V13.812H71.796V13.49ZM66.6742 13.9607C65.9255 13.9607 65.5095 13.4657 65.5095 12.4881V8.88604H64.6892L64.6415 8.76236L64.9627 8.40315H65.5095V7.50016L66.282 6.68312L66.4483 6.70791V8.40315H67.7921C67.8987 8.52766 67.8631 8.79927 67.7202 8.88604H66.4483V12.0672C66.4483 13.0699 66.8406 13.2553 67.1378 13.2553C67.4351 13.2553 67.7089 13.1316 67.8753 13.0448L67.9819 13.3663L67.1734 13.7999C66.9715 13.9109 66.7817 13.9607 66.6742 13.9607ZM61.1502 9.45544C60.9839 9.27005 60.8409 9.1954 60.6511 9.1954C60.3417 9.1954 59.9613 9.567 59.6996 10.2598V12.525C59.6996 13.342 59.7594 13.4161 60.6745 13.49V13.812H57.9405V13.49C58.6771 13.4161 58.7603 13.342 58.7603 12.525V9.96313C58.7603 9.14609 58.7013 9.0965 58.0237 8.99761V8.72517C58.606 8.62655 59.1294 8.4778 59.6996 8.21748V9.567H59.7239C60.08 8.94775 60.5913 8.25522 61.1624 8.25522C61.5662 8.25522 61.8513 8.57669 61.8513 8.87392C61.8513 9.1213 61.697 9.36867 61.4709 9.48051C61.3287 9.54221 61.2213 9.52954 61.1502 9.45544ZM54.1024 10.7424C54.1145 12.4264 55.0417 13.1189 55.8736 13.1189C56.3494 13.1189 56.8014 12.9211 57.2289 12.5002L57.4193 12.7597C56.6706 13.7382 55.8502 13.9607 55.4816 13.9607C54.0192 13.9607 53.1638 12.7228 53.1638 11.3242C53.1638 10.4703 53.4611 9.71576 53.9481 9.15821C54.4359 8.58936 55.0772 8.25522 55.6957 8.25522C56.6821 8.25522 57.4791 9.17116 57.4791 10.1358C57.4791 10.3835 57.4193 10.4829 57.2052 10.532C57.0033 10.5697 55.5174 10.6934 54.1024 10.7424ZM55.41 8.71305C54.8632 8.71305 54.3406 9.23286 54.1621 10.2356C54.8277 10.2356 55.4816 10.2226 56.1709 10.1978C56.3849 10.1978 56.4565 10.124 56.4565 9.95046C56.4681 9.30696 56.0642 8.71305 55.41 8.71305ZM50.9546 13.1558L50.2293 13.6015C49.7656 13.8861 49.445 13.9607 49.302 13.9607C48.3514 13.9607 47.1027 13.0569 47.1027 11.3242C47.1027 9.60419 48.5533 8.25522 50.1703 8.25522C50.3367 8.25522 50.6816 8.29213 50.9546 8.39103V6.6462C50.9546 5.82916 50.8956 5.79225 50.0395 5.73027V5.43304C50.6573 5.34626 51.4537 5.16087 51.8939 5V12.3886C51.8939 13.0321 51.9771 13.0938 52.417 13.1437L52.7975 13.1806V13.49C52.536 13.5398 51.6443 13.7004 50.9546 13.9607V13.1558ZM50.9546 9.34387C50.6695 8.91084 50.1816 8.71305 49.7301 8.71305C49.1833 8.71305 48.185 9.1954 48.185 10.9901C48.185 12.4633 49.0525 13.1806 49.8133 13.1806C50.2414 13.1806 50.6695 12.9831 50.9546 12.7597V9.34387ZM44.2053 13.49C44.9072 13.4161 44.9904 13.3172 44.9904 12.4633V10.3962C44.9904 9.54221 44.7053 8.98549 43.9081 8.98549C43.4332 8.98549 42.9695 9.29484 42.6125 9.61631V12.525C42.6125 13.3663 42.6836 13.4161 43.3855 13.49V13.812H40.8057V13.49C41.6142 13.404 41.6732 13.342 41.6732 12.525V9.96313C41.6732 9.17116 41.6021 9.13342 40.96 9.00973V8.72517C41.531 8.61361 42.0891 8.46568 42.6125 8.21748V9.20807C42.85 9.0224 43.1117 8.83701 43.4089 8.62655C43.7417 8.40315 44.051 8.25522 44.3959 8.25522C45.3353 8.25522 45.9295 8.93563 45.9295 10.1358V12.525C45.9295 13.3663 45.9887 13.4161 46.6782 13.49V13.812H44.2053V13.49ZM39.7507 6.84372C39.7151 7.17814 39.6915 7.71062 39.6915 8.84886V9.87636C39.6915 11.3369 39.4774 12.3886 38.7879 13.1437C38.2411 13.7382 37.4447 13.9977 36.6596 13.9977C35.9707 13.9977 35.2809 13.8241 34.7584 13.404C34.0443 12.8343 33.7116 11.9057 33.7116 10.4581V7.36353C33.7116 6.25008 33.6165 6.20022 32.6777 6.11372V5.76718H35.7567V6.11372C34.8173 6.17543 34.722 6.25008 34.722 7.36353V10.1857C34.722 12.1782 35.4828 13.3172 36.9569 13.3172C38.6692 13.3172 39.2039 11.8319 39.2039 9.78958V8.84886C39.2039 7.71062 39.1683 7.19081 39.1207 6.8068C39.0496 6.32418 38.8 6.17543 37.9681 6.11372V5.76718H40.7972V6.11372C40.084 6.16331 39.8102 6.33685 39.7507 6.84372Z" fill="#0077D4"/>
</svg>
