<svg width="104" height="70" viewBox="0 0 104 70" fill="none" xmlns="http://www.w3.org/2000/svg">
<rect x="0.870667" width="102.259" height="70" fill="#00AEEF"/>
<path d="M79.6506 14.6631C75.7255 14.6631 72.5499 17.8515 72.5499 21.7639C72.5499 25.6763 75.7382 28.8647 79.6506 28.8647C83.5631 28.8647 86.7514 25.6763 86.7514 21.7639C86.7641 17.8515 83.5758 14.6631 79.6506 14.6631ZM85.189 17.8006C84.8206 18.042 84.4396 18.2706 84.0458 18.4612C83.8171 17.9912 83.525 17.5466 83.1947 17.1274C83.4869 16.9496 83.7663 16.7463 84.0204 16.5304C84.465 16.9115 84.8587 17.3306 85.189 17.8006ZM82.2039 15.4379C82.7755 15.6666 83.309 15.9715 83.7917 16.3525C83.5504 16.5558 83.2836 16.7336 83.0042 16.8988C82.6612 16.505 82.2674 16.1366 81.8355 15.819C81.9752 15.7047 82.1023 15.5777 82.2039 15.4379ZM82.7501 17.0512C82.369 17.2544 81.9625 17.4196 81.556 17.5466C81.3782 17.1528 81.1877 16.759 80.959 16.3906C81.1877 16.289 81.4036 16.162 81.6069 16.0096C82.026 16.3271 82.4198 16.6701 82.7501 17.0512ZM81.9117 15.3363C81.8101 15.4507 81.7085 15.5523 81.5942 15.6539C81.2258 15.3998 80.8193 15.1712 80.4001 14.9934C80.9336 15.0569 81.429 15.1712 81.9117 15.3363ZM81.3655 15.8444C81.2004 15.9715 81.0098 16.0731 80.8193 16.1493C80.616 15.819 80.3747 15.5015 80.1334 15.1966C80.5652 15.3744 80.9717 15.5904 81.3655 15.8444ZM79.8031 15.2474C80.0698 15.565 80.3112 15.8952 80.5398 16.2509C80.2985 16.3271 80.0571 16.3652 79.8031 16.3779V15.2474ZM79.8031 16.6701C80.1079 16.6574 80.4128 16.6066 80.6923 16.505C80.9082 16.8606 81.0988 17.2417 81.2766 17.6355C80.7939 17.7625 80.2985 17.8261 79.8031 17.8388V16.6701ZM79.4982 15.2601V16.3779C79.2569 16.3652 79.0155 16.3271 78.7742 16.2509C79.0028 15.9079 79.2442 15.5777 79.4982 15.2601ZM78.4947 16.1493C78.3042 16.0731 78.1136 15.9588 77.9485 15.8444C78.3296 15.5904 78.7488 15.3744 79.1807 15.1966C78.9393 15.5015 78.7107 15.819 78.4947 16.1493ZM78.9139 14.9934C78.4947 15.1712 78.0882 15.3998 77.7198 15.6539C77.6055 15.5523 77.5039 15.4379 77.4023 15.3363C77.885 15.1585 78.3931 15.0442 78.9139 14.9934ZM83.779 27.1879C82.839 26.6671 82.8136 25.9558 82.8644 25.689C82.9152 25.4222 83.0931 25.5366 83.2201 25.5366C83.8425 25.5366 84.4904 25.3587 85.3033 24.5331C86.2052 23.6058 86.4974 21.5479 85.1001 20.2015C83.6012 18.7533 82.0006 19.0074 80.9717 20.3031C80.7558 20.5698 80.2477 20.7604 79.8031 20.7477C79.1425 20.7223 79.5617 21.2431 79.5617 21.3574C79.5617 21.4717 79.4601 21.5479 79.3966 21.5225C79.1679 21.459 79.2569 21.7893 79.2569 21.8909C79.2569 21.9925 79.168 22.0433 79.1171 22.0433C78.8377 22.0433 78.9139 22.2974 78.9266 22.3609C78.9393 22.4244 78.9139 22.5387 78.8123 22.5896C78.7234 22.6404 78.6217 22.8563 78.6217 23.0214C78.6217 23.3263 78.9012 23.5296 79.3585 23.8725C79.8158 24.2155 79.8793 24.5458 79.8793 24.7744C79.892 25.0031 79.9047 25.3841 80.019 25.6382C80.1461 25.9431 80.1206 26.4893 79.4855 26.5147C78.7106 26.5401 77.3261 27.1752 77.199 27.2133C76.7544 27.3658 76.1828 27.4293 75.7255 27.3149C75.4842 27.1371 75.2428 26.9593 75.0269 26.7433C74.938 26.4258 75.0904 26.0955 75.2555 25.8668C75.5223 26.1336 75.9034 26.1082 76.1193 26.1209C76.3353 26.1336 77.4023 25.9685 77.5547 25.9177C77.7071 25.8668 77.7707 25.8795 77.8596 25.9177C78.2661 26.0701 78.825 26.1082 79.0536 25.3333C79.2823 24.5585 78.7488 24.7744 78.6725 24.7998C78.609 24.8379 78.5074 24.8252 78.5455 24.7617C78.6471 24.5585 78.4947 24.5839 78.4058 24.5712C78.1898 24.5458 77.8977 24.7871 77.8088 24.8633C77.7198 24.9522 77.6182 24.9395 77.5928 24.9268C77.3007 24.7871 76.4369 24.9904 76.1701 24.5204C76.1955 24.3933 75.9542 22.5006 75.8271 22.1704C75.8017 22.0941 75.7763 21.9798 75.8653 21.8655C76.0812 21.5352 76.6909 21.8909 77.0212 21.8782C77.415 21.8655 77.4785 21.7004 77.5801 21.5733C77.6817 21.4463 77.7579 21.5225 77.8088 21.4844C77.885 21.4336 77.8088 21.3447 77.8342 21.2939C77.8596 21.2431 77.885 21.2685 77.9485 21.205C78.012 21.1414 77.9358 21.0144 77.9739 20.9763C78.0755 20.8366 78.3296 20.9509 78.1771 20.5698C78.0882 20.3666 78.2152 20.1379 78.3296 19.9855C78.5201 19.7442 79.2569 18.7025 77.9612 17.6355C76.729 16.6193 75.4715 16.6955 74.6712 17.572C73.8709 18.4485 74.2647 19.7187 74.3536 20.049C74.4426 20.3793 74.2012 20.6842 73.9217 20.8239C73.7058 20.9255 73.1977 21.2685 72.8166 21.5987C72.8801 18.8677 74.5442 16.4542 77.0847 15.4252C77.199 15.565 77.3134 15.692 77.4404 15.8063C77.1609 16.0096 76.5385 16.5685 76.5385 16.5685C76.5385 16.5685 76.6274 16.5812 76.7036 16.6066C76.7544 16.6193 76.8688 16.6574 76.8688 16.6574C76.8688 16.6574 77.415 16.2001 77.669 16.0096C77.8723 16.162 78.0882 16.289 78.3169 16.3906C78.1898 16.5939 77.885 17.1782 77.885 17.1782C77.885 17.1782 77.9612 17.2163 78.0247 17.2671C78.0882 17.3052 78.1263 17.3434 78.1263 17.3434C78.1263 17.3434 78.4693 16.7082 78.5963 16.4923C78.8758 16.5812 79.1806 16.6447 79.4855 16.6574V17.8261C79.3204 17.8261 78.8885 17.8006 78.7107 17.7879L78.5963 17.7752L78.6598 17.8642C78.7106 17.9277 78.7361 18.0039 78.7742 18.0547L78.7869 18.0801H78.8123C78.9393 18.0928 79.3331 18.1055 79.4728 18.1055V20.2396H79.765V19.7569C80.1969 19.7315 80.5652 19.706 80.9971 19.6679H81.0098L81.3909 19.325L81.1877 19.3377C80.7304 19.4012 80.3239 19.4266 79.9555 19.452C79.9555 19.452 79.8285 19.4647 79.765 19.4647V18.1182C80.2985 18.1055 80.832 18.0293 81.3655 17.8896C81.5052 18.2452 81.7847 19.0963 81.7847 19.0963L82.0642 19.0074C82.0642 19.0074 81.7974 18.1563 81.6577 17.8133C82.1023 17.6736 82.5342 17.4958 82.9279 17.2671C83.2582 17.6736 83.5377 18.1055 83.7663 18.5755C83.5631 18.6771 83.1693 18.8042 83.1693 18.8042C83.4742 18.8423 83.7028 18.9058 83.7028 18.9058C83.7028 18.9058 83.8171 18.855 83.8806 18.8296C83.906 18.8931 83.9569 19.0201 83.9569 19.0201L84.3379 19.1852L84.2871 19.0836C84.2871 19.0836 84.1601 18.7788 84.1347 18.7152C84.5412 18.512 84.935 18.2833 85.316 18.0293C86.0401 19.1344 86.4212 20.4301 86.4212 21.7512C86.472 23.9741 85.4177 25.9431 83.779 27.1879Z" fill="white"/>
<path d="M71.902 16.543L71.7877 16.6446C71.3685 17.013 70.4158 17.9911 70.5682 19.0581L70.5809 19.1344L70.6318 19.3503L70.7588 19.2233C71.3431 18.6898 71.775 17.7879 71.9528 16.7463L72.0036 16.4541L71.902 16.543Z" fill="white"/>
<path d="M69.9712 18.3975L69.9204 18.5246C69.8569 18.7024 69.7299 19.0835 69.6664 19.5789C69.5774 20.2902 69.6028 21.281 70.2126 22.0305L70.2761 22.1194L70.3523 22.2083L70.4412 21.751C70.5428 20.9508 70.4031 19.274 70.111 18.5246L70.0093 18.2705L69.9712 18.3975Z" fill="white"/>
<path d="M69.2599 21.2808L69.2472 21.4079C69.1963 22.1319 69.2345 23.8976 70.6699 24.8376L70.835 24.9519L70.8223 24.7487C70.7969 24.0754 70.0093 22.0684 69.425 21.3444L69.2599 21.1411V21.2808Z" fill="white"/>
<path d="M69.5139 24.4566L69.5393 24.5836C69.7552 25.5999 70.7206 27.2512 72.2069 27.7339L72.4101 27.7974L72.3339 27.5942C72.0544 26.832 70.619 25.0536 69.6917 24.4693L69.4885 24.3423L69.5139 24.4566Z" fill="white"/>
<path d="M72.499 18.0801L72.3847 18.1563C71.2795 18.8296 70.7587 19.6553 70.7968 20.6715L70.8095 20.9001L70.9747 20.7604C71.5717 20.265 72.3212 18.9947 72.5498 18.2707L72.626 18.0039L72.499 18.0801Z" fill="white"/>
<path d="M71.8512 20.3028L71.7623 20.379C71.4828 20.6458 70.5555 21.6239 70.6444 22.8433C70.6571 23.0339 70.6952 23.2244 70.7715 23.4403L70.835 23.6309L70.9493 23.4657C71.3939 22.8433 71.9655 21.2174 71.9401 20.4552L71.9274 20.2266L71.8512 20.3028Z" fill="white"/>
<path d="M71.902 22.399L71.8385 22.4879C71.3685 23.1738 71.1399 23.8852 71.1526 24.533C71.1653 25.0157 71.3177 25.473 71.6099 25.9049L71.7115 26.0447L71.7877 25.8922C71.9909 25.5111 72.1434 24.2917 72.118 23.3263C72.1053 22.9833 72.0799 22.7038 72.0163 22.5133L71.9528 22.2974L71.902 22.399Z" fill="white"/>
<path d="M72.4355 24.6475L72.4101 24.7491C72.2704 25.1937 72.2069 25.6383 72.2196 26.0448C72.245 26.9848 72.6642 27.7216 73.4518 28.2297L73.5915 28.3186L73.6169 28.1407L73.6296 28.001C73.6042 27.2389 73.0326 25.3208 72.588 24.7237L72.461 24.5586L72.4355 24.6475Z" fill="white"/>
<path d="M70.8731 27.6324L70.9366 27.734C71.5336 28.7375 72.5498 30.0332 74.4425 29.7029L74.595 29.6775L74.506 29.5505C74.1504 29.0297 71.8512 27.7213 71.0382 27.5943L70.8096 27.5562L70.8731 27.6324Z" fill="white"/>
<path d="M73.6804 30.1729L73.3882 30.2492L73.6677 30.3635C74.8744 30.8589 76.386 30.9986 77.2625 30.7065C77.5928 30.5921 77.796 30.4143 78.0374 30.1729C79.5871 30.3381 81.0225 31.6211 81.8736 32.6627L81.9244 32.7135L81.9879 32.6881C82.0768 32.65 82.2293 32.5483 82.2928 32.4721L82.3563 32.4086L82.3055 32.3324C81.429 31.1892 80.0444 30.4651 79.9936 30.4397C78.736 29.8681 76.5512 29.3981 73.6804 30.1729Z" fill="white"/>
<path d="M73.7439 26.9717L73.7566 27.0734C73.9345 28.2166 74.4045 29.7028 76.3226 29.5377L76.4496 29.525L76.4242 29.4107C76.2972 28.8898 74.5315 27.3909 73.9218 26.9717L73.7439 26.8701V26.9717Z" fill="white"/>
<path d="M87.3231 16.4541L87.3739 16.7463C87.5517 17.7879 87.9963 18.6898 88.5679 19.2233L88.7076 19.3503L88.7585 19.1344L88.7712 19.0581C88.9236 17.9911 87.9709 17.013 87.5517 16.6446L87.4374 16.543L87.3231 16.4541Z" fill="white"/>
<path d="M89.3174 18.2705L89.2157 18.5246C88.9236 19.274 88.7839 20.9508 88.8855 21.751L88.9744 22.2083L89.0506 22.1194L89.1141 22.0305C89.7238 21.281 89.7493 20.2902 89.6603 19.5789C89.5968 19.0835 89.4825 18.7024 89.4063 18.5246L89.3555 18.3975L89.3174 18.2705Z" fill="white"/>
<path d="M90.0668 21.1538L89.9017 21.3571C89.3174 22.0811 88.5298 24.0881 88.5044 24.7614L88.4917 24.9646L88.6568 24.8503C90.0922 23.9103 90.1303 22.1319 90.0795 21.4206L90.0668 21.2935V21.1538Z" fill="white"/>
<path d="M89.8509 24.3296L89.6476 24.4566C88.7203 25.0409 87.2849 26.8193 87.0055 27.5815L86.9293 27.7847L87.1325 27.7212C88.6187 27.2385 89.5841 25.5872 89.8001 24.5709L89.8255 24.4439L89.8509 24.3296Z" fill="white"/>
<path d="M86.7642 17.9785L86.8404 18.2453C87.0436 18.9693 87.7677 20.2523 88.3647 20.7604L88.5298 20.9001L88.5425 20.6715C88.606 19.6553 88.0979 18.8296 87.0055 18.1309L86.8912 18.0547L86.7642 17.9785Z" fill="white"/>
<path d="M87.3993 20.2266L87.3866 20.4552C87.3611 21.2174 87.9328 22.8433 88.3774 23.4657L88.4917 23.6309L88.5552 23.4403C88.6314 23.2371 88.6695 23.0339 88.6822 22.8433C88.7584 21.6366 87.8439 20.6585 87.5644 20.379L87.4755 20.3028L87.3993 20.2266Z" fill="white"/>
<path d="M87.3739 22.3101L87.3104 22.526C87.2596 22.7165 87.2214 22.996 87.2087 23.339C87.1833 24.3044 87.3485 25.5238 87.539 25.9049L87.6152 26.0573L87.7168 25.9176C88.009 25.4857 88.1614 25.0284 88.1741 24.5457C88.1868 23.8979 87.9582 23.1865 87.4882 22.5006L87.4247 22.4117L87.3739 22.3101Z" fill="white"/>
<path d="M86.8658 24.5586L86.7387 24.7237C86.2941 25.3081 85.7225 27.2389 85.6971 28.001L85.7098 28.1407L85.7352 28.3186L85.8749 28.2297C86.6752 27.7216 87.0817 26.9848 87.1071 26.0448C87.1198 25.6256 87.0563 25.1937 86.9166 24.7491L86.8912 24.6475L86.8658 24.5586Z" fill="white"/>
<path d="M88.5171 27.5308L88.3012 27.5689C87.4882 27.6959 85.189 29.0043 84.8333 29.5251L84.7444 29.6521L84.8968 29.6775C86.8022 30.0078 87.8057 28.7121 88.4028 27.7086L88.4663 27.607L88.5171 27.5308Z" fill="white"/>
<path d="M79.3585 30.4774C79.295 30.5028 77.9231 31.2141 77.0466 32.3701L76.9958 32.4463L77.0593 32.5098C77.1228 32.5733 77.2626 32.6876 77.3642 32.7257L77.4277 32.7511L77.4785 32.7003C78.3169 31.646 79.765 30.363 81.3147 30.2106C81.5561 30.452 81.7593 30.6298 82.0896 30.7441C82.9661 31.0363 84.4777 30.8965 85.6844 30.4011L85.9766 30.2868L85.6844 30.2106C82.7882 29.3976 80.5907 29.8676 79.3585 30.4774Z" fill="white"/>
<path d="M85.6082 26.8701L85.4303 26.9717C84.8206 27.3909 83.055 28.8898 82.9279 29.4107L82.9025 29.525L83.0295 29.5377C84.9476 29.7028 85.4176 28.2166 85.5955 27.0734L85.6082 26.9717V26.8701Z" fill="white"/>
<path d="M36.4869 15.1582H38.9131V17.3685H37.6302H36.4869V15.1582ZM36.6775 19.8836H37.6175H38.7099V30.6682H36.6648V19.8836H36.6775Z" fill="white"/>
<path d="M21.2692 19.8965H23.3143V30.6811H21.32V29.0932H21.2692C20.4562 30.4524 19.0716 30.9986 17.5727 30.9986C15.3116 30.9986 14.0286 29.2838 14.0286 27.1116V19.8965H16.0738V26.2732C16.0738 28.1405 16.5057 29.5124 18.4619 29.5124C19.3003 29.5124 20.4435 29.0805 20.8627 27.9627C21.2438 26.9465 21.2692 25.6889 21.2692 25.4221V19.8965Z" fill="white"/>
<path d="M27.3918 21.484H27.4299C28.1159 20.1375 29.6148 19.5786 30.6945 19.5786C31.444 19.5786 34.7721 19.7692 34.7721 23.2243V30.6807H32.7269V23.8975C32.7269 22.1191 31.9775 21.1537 30.2626 21.1537C30.2626 21.1537 29.1448 21.0902 28.281 21.954C27.9761 22.2589 27.4172 22.7289 27.4172 24.8375V30.7062H25.3721V19.9216H27.3664V21.484H27.3918Z" fill="white"/>
<path d="M47.2588 23.3513C47.1572 22.0048 46.5094 21.0648 45.0613 21.0648C43.1178 21.0648 42.3683 22.7416 42.3683 25.2694C42.3683 27.7845 43.1178 29.474 45.0613 29.474C46.4078 29.474 47.2334 28.5975 47.3478 27.0605H49.3802C49.2024 29.474 47.4113 30.9475 45.0486 30.9475C41.6189 30.9475 40.247 28.5213 40.247 25.3583C40.247 22.2208 41.8221 19.5913 45.2264 19.5913C47.4875 19.5913 49.1897 21.0267 49.2913 23.3513H47.2588Z" fill="white"/>
<path d="M52.4288 25.6632C52.2764 27.5432 53.0512 29.4867 55.1218 29.4867C56.6969 29.4867 57.4972 28.8643 57.7258 27.3018H59.8599C59.5423 29.7407 57.6623 30.9475 55.0964 30.9475C51.6539 30.9475 50.2948 28.5213 50.2948 25.3583C50.2948 22.2208 51.8826 19.5913 55.2742 19.5913C58.4753 19.6548 59.9869 21.6872 59.9869 24.647V25.6505H52.4288V25.6632ZM57.8401 24.2532C57.8783 22.4621 57.0653 21.0775 55.1091 21.0775C53.4196 21.0775 52.4161 22.5002 52.4161 24.2532H57.8401Z" fill="white"/>
<path d="M62.2734 30.6303V21.332H60.4315V19.922H62.2734V17.6228C62.3369 15.2728 64.1026 14.6631 65.6269 14.6631C66.1223 14.6631 66.5923 14.7901 67.075 14.879V16.5685C66.732 16.5558 66.389 16.505 66.0461 16.505C64.8901 16.505 64.2296 16.8098 64.2931 17.9785V19.9474H66.7701V21.332H64.2931V30.6303H62.2734Z" fill="white"/>
<path d="M13.9906 38.061H89.3301V38.4675H52.2764H13.9906V38.061Z" fill="white"/>
<path d="M15.2481 52.7455V46.6863H13.8762V45.9369H15.2481V44.4888C15.2481 43.3201 15.7181 42.7993 16.8868 42.7993C17.1408 42.7993 17.4203 42.8882 17.6616 42.9517V43.5996C17.4965 43.5742 17.3186 43.5488 17.1662 43.5488C16.0484 43.5488 16.023 44.1077 16.0738 45.0858V45.9496H17.6235V46.699H16.0611V52.7582H15.2481V52.7455Z" fill="white"/>
<path d="M24.2543 49.3414C24.2543 51.1325 23.2508 52.949 21.0786 52.949C18.9065 52.949 17.9029 51.1325 17.9029 49.3414C17.9029 47.5504 18.9065 45.7339 21.0786 45.7339C23.2508 45.7339 24.2543 47.5504 24.2543 49.3414ZM21.0786 46.4833C19.44 46.4833 18.7921 48.0839 18.7921 49.3414C18.7921 50.599 19.44 52.1995 21.0786 52.1995C22.7173 52.1995 23.3651 50.599 23.3651 49.3414C23.3651 48.0712 22.7173 46.4833 21.0786 46.4833Z" fill="white"/>
<path d="M26.2486 52.7456H25.4356V47.474C25.4483 46.9405 25.3975 46.407 25.3721 45.937H26.2105L26.2486 46.9405H26.274C26.5153 46.2546 27.1251 45.7592 27.811 45.7338C28.0778 45.7211 28.3572 45.7338 28.624 45.7465V46.534C28.4588 46.5213 28.281 46.4832 28.1159 46.4832C26.9091 46.4832 26.274 47.347 26.2486 48.6554V52.7456Z" fill="white"/>
<path d="M32.5618 49.532C32.5872 50.9801 33.2478 52.1995 34.9245 52.1995C35.8899 52.1995 36.6902 51.5136 36.8935 50.5736H37.7445C37.3253 52.1995 36.3091 52.949 34.6705 52.949C32.6381 52.949 31.6854 51.196 31.6854 49.3414C31.6854 47.4996 32.7016 45.7339 34.7213 45.7339C36.9951 45.7339 37.8207 47.3979 37.8207 49.532H32.5618ZM36.9443 48.7825C36.8553 47.4614 36.144 46.4833 34.734 46.4833C33.4002 46.4833 32.7016 47.6012 32.5872 48.7825H36.9443Z" fill="white"/>
<path d="M38.9259 45.937L41.2632 51.6151L43.537 45.937H44.4262L41.7332 52.7329H40.8059L38.024 45.937H38.9259Z" fill="white"/>
<path d="M45.4805 49.532C45.5059 50.9801 46.1664 52.1995 47.8432 52.1995C48.8086 52.1995 49.6088 51.5136 49.8121 50.5736H50.6632C50.244 52.1995 49.2278 52.949 47.5891 52.949C45.5567 52.949 44.604 51.196 44.604 49.3414C44.604 47.4996 45.6202 45.7339 47.6399 45.7339C49.9137 45.7339 50.7394 47.3979 50.7394 49.532H45.4805ZM49.8502 48.7825C49.7613 47.4614 49.0499 46.4833 47.6399 46.4833C46.3062 46.4833 45.6075 47.6012 45.4932 48.7825H49.8502Z" fill="white"/>
<path d="M52.8099 52.7456H51.997V47.474C52.0097 46.9405 51.9589 46.407 51.9335 45.937H52.7718L52.8099 46.9405H52.8354C53.0767 46.2546 53.6864 45.7592 54.3724 45.7338C54.6391 45.7211 54.9186 45.7338 55.1853 45.7465V46.534C55.0202 46.5213 54.8424 46.4832 54.6772 46.4832C53.4705 46.4832 52.8354 47.347 52.8099 48.6554V52.7456Z" fill="white"/>
<path d="M56.9382 45.937L59.2247 51.6278L61.4985 45.937H62.3877L58.6277 55.337H57.7385L58.7674 52.7329L55.9474 45.937H56.9382Z" fill="white"/>
<path d="M70.1363 48.0204C70.0728 46.9788 69.3996 46.4706 68.2817 46.4706C67.0369 46.4706 66.262 47.7663 66.262 49.316C66.262 50.8785 67.0369 52.1869 68.2817 52.1869C69.3361 52.1869 70.0728 51.539 70.1363 50.599H71.0128C70.7969 52.1614 69.9077 52.9363 68.358 52.9363C66.3255 52.9363 65.3728 51.1833 65.3728 49.3287C65.3728 47.4869 66.389 45.7212 68.4088 45.7212C69.8061 45.7212 70.9493 46.5596 71.0128 48.0077H70.1363V48.0204Z" fill="white"/>
<path d="M72.969 46.9657H72.9944C73.4644 46.1273 74.2393 45.7335 75.1285 45.7335C77.3515 45.7335 77.5293 47.7025 77.5293 48.49V52.7454H76.7163V48.3503C76.7163 47.1689 76.0431 46.483 74.9252 46.483C73.5788 46.483 72.969 47.6135 72.969 48.833V52.7454H72.1561V42.9644H72.969V46.9657Z" fill="white"/>
<path d="M79.7776 43.9684H79.1298H78.8249V42.9521H79.7776V43.9684ZM79.7014 52.7459H78.8885V45.9373H79.3839H79.7014V52.7459Z" fill="white"/>
<path d="M82.115 52.7459H81.302V49.3289V42.9521H81.9244H82.115V52.7459Z" fill="white"/>
<path d="M88.5171 51.7424L88.4917 51.6916C87.9328 52.5046 87.1071 52.9491 86.1544 52.9491C84.1347 52.9491 83.3598 51.0183 83.3598 49.3162C83.3598 47.5505 84.1347 45.734 86.1544 45.734C87.069 45.734 88.009 46.1659 88.4917 46.9662L88.5171 46.9408V42.9521H89.3301V51.2089C89.3301 51.7424 89.3682 52.2759 89.3936 52.7459H88.5552L88.5171 51.7424ZM86.2941 46.4835C84.7444 46.4835 84.249 47.9189 84.249 49.2273C84.249 50.4848 84.6174 52.2124 86.1798 52.2124C87.9582 52.2124 88.4917 50.7389 88.4917 49.1892C88.4917 47.7919 87.882 46.4835 86.2941 46.4835Z" fill="white"/>
</svg>
