<svg width="240" height="70" viewBox="0 0 240 70" fill="none" xmlns="http://www.w3.org/2000/svg">
<path d="M81.5621 24.5028C80.3492 24.5028 79.2491 24.3589 78.2618 24.0712C77.2746 23.7836 76.4308 23.3287 75.7312 22.7067C75.0315 22.0848 74.4911 21.2918 74.1102 20.3277C73.7294 19.3637 73.5388 18.2053 73.5388 16.8525V7.84973H79.0898V16.7827C79.0898 17.7934 79.3269 18.5279 79.8012 18.9866C80.2754 19.4453 80.8778 19.6748 81.6088 19.6748C82.3551 19.6748 82.9616 19.4609 83.4278 19.0334C83.8944 18.6056 84.1277 17.8944 84.1277 16.8992V7.84986H89.6787V16.7363C89.6787 18.1356 89.4842 19.325 89.0955 20.3046C88.7069 21.2841 88.1588 22.085 87.4513 22.7068C86.7438 23.3288 85.8884 23.7837 84.8856 24.0713C83.8827 24.3591 82.7748 24.503 81.562 24.503L81.5621 24.5028ZM91.4047 7.84986H96.8623V19.5116H104.536V24.1762H91.4047V7.84986ZM107.568 12.4679H102.763V7.84986H117.83V12.4679H113.025V24.1762H107.568V12.4679H107.568ZM123.241 12.4679H118.436V7.84986H133.503V12.4679H128.698V24.1762H123.241V12.4679H123.241ZM139.59 18.392L133.433 7.84986H139.544L142.343 13.2142L145.165 7.84986H151.205L145.048 18.3222V24.1762H139.59V18.392ZM165.526 24.6662L163.73 23.0568C162.999 23.5233 162.21 23.8847 161.363 24.1413C160.516 24.3979 159.61 24.5261 158.646 24.5261C157.386 24.5261 156.216 24.3083 155.135 23.8731C154.055 23.4377 153.114 22.8392 152.313 22.0773C151.513 21.3153 150.887 20.4173 150.436 19.3834C149.985 18.3494 149.759 17.2416 149.759 16.0598V16.0131C149.759 14.8316 149.989 13.7235 150.448 12.6896C150.906 11.6553 151.536 10.7537 152.337 9.9841C153.137 9.21426 154.082 8.60779 155.171 8.16481C156.259 7.72169 157.433 7.5 158.692 7.5C159.952 7.5 161.122 7.71777 162.203 8.15303C163.283 8.58857 164.224 9.18719 165.025 9.94877C165.825 10.7108 166.451 11.6088 166.902 12.6427C167.353 13.6769 167.579 14.7845 167.579 15.9664V16.013C167.579 16.8992 167.451 17.7351 167.194 18.5202C166.937 19.3055 166.584 20.0324 166.133 20.7011L167.812 22.1239L165.526 24.6662H165.526ZM158.692 19.8613C159.065 19.8613 159.439 19.7992 159.812 19.675L157.969 18.089L160.255 15.5234L162.004 17.1093C162.082 16.7515 162.121 16.4251 162.121 16.1298V16.0831C162.121 15.6011 162.039 15.1346 161.876 14.6838C161.713 14.2329 161.48 13.8326 161.176 13.4826C160.873 13.1327 160.508 12.8528 160.08 12.6428C159.652 12.433 159.174 12.3281 158.646 12.3281C158.133 12.3281 157.666 12.433 157.246 12.6428C156.826 12.8528 156.469 13.1327 156.173 13.4826C155.878 13.8326 155.652 14.2289 155.497 14.672C155.341 15.1152 155.264 15.5778 155.264 16.0598V16.1064C155.264 16.5885 155.341 17.0549 155.497 17.5057C155.652 17.9565 155.878 18.357 156.173 18.7069C156.469 19.0567 156.83 19.3367 157.258 19.5467C157.685 19.7564 158.164 19.8613 158.692 19.8613H158.692Z" fill="#FFCC00"/>
<path d="M81.8337 49.8254C79.9085 49.8254 78.1135 49.5602 76.4489 49.0293C74.7845 48.4985 73.3494 47.7022 72.1438 46.6405L75.5178 42.6189C76.5436 43.4105 77.6232 43.9774 78.7568 44.3194C79.8903 44.6613 81.015 44.8321 82.1308 44.8321C82.7064 44.8321 83.1203 44.7602 83.3724 44.6162C83.6243 44.4722 83.7503 44.2743 83.7503 44.0224V43.9684C83.7503 43.6986 83.5659 43.4736 83.1969 43.2937C82.828 43.1137 82.1397 42.9247 81.1321 42.7268C80.0705 42.5108 79.0582 42.2589 78.0955 41.971C77.1327 41.683 76.2871 41.3142 75.5582 40.8643C74.8296 40.4144 74.2492 39.8521 73.8175 39.1773C73.3856 38.5024 73.1697 37.6613 73.1697 36.6535V36.5998C73.1697 35.6999 73.3451 34.8633 73.6959 34.0893C74.0467 33.3157 74.5597 32.6408 75.2345 32.0651C75.9093 31.4892 76.746 31.0392 77.7447 30.7154C78.7434 30.3914 79.8905 30.2294 81.1861 30.2294C83.0216 30.2294 84.6276 30.4454 86.0042 30.8772C87.3809 31.3092 88.6178 31.957 89.7156 32.8206L86.6386 37.0854C85.7387 36.4376 84.7898 35.9654 83.7908 35.6683C82.7922 35.3713 81.8519 35.2231 80.9701 35.2231C80.5025 35.2231 80.156 35.2951 79.9309 35.4389C79.706 35.5829 79.5937 35.7718 79.5937 36.0058V36.0598C79.5937 36.1859 79.6295 36.3027 79.7015 36.4107C79.7735 36.5187 79.9039 36.6223 80.0928 36.7211C80.2819 36.8203 80.5381 36.9145 80.8622 37.0046C81.186 37.0945 81.5999 37.1845 82.1039 37.2743C83.3095 37.4903 84.4072 37.7513 85.3969 38.0572C86.3864 38.3629 87.2368 38.7546 87.9476 39.2313C88.6583 39.7082 89.2071 40.2795 89.5941 40.9451C89.981 41.611 90.1744 42.4209 90.1744 43.3745V43.4285C90.1744 44.418 89.9765 45.3089 89.5807 46.1006C89.1846 46.8924 88.6269 47.5626 87.9071 48.1114C87.1875 48.6604 86.3102 49.0833 85.2754 49.38C84.2407 49.6771 83.0936 49.8253 81.8339 49.8253L81.8337 49.8254ZM91.6318 30.5804H100.134C101.394 30.5804 102.541 30.7199 103.576 30.9989C104.61 31.2777 105.496 31.6961 106.234 32.2539C106.972 32.8118 107.548 33.5135 107.962 34.3593C108.375 35.2049 108.583 36.1859 108.583 37.3013V37.3553C108.583 38.4889 108.375 39.4921 107.962 40.3648C107.548 41.2376 106.963 41.9709 106.207 42.5647C105.451 43.1584 104.547 43.6038 103.494 43.9008C102.442 44.1976 101.277 44.346 99.9989 44.346H97.9477V49.4745H91.6317V30.5802L91.6318 30.5804ZM99.6483 39.8386C100.458 39.8386 101.11 39.663 101.605 39.3167C102.1 38.9659 102.347 38.453 102.347 37.7738V37.7198C102.347 37.0406 102.113 36.5276 101.646 36.1768C101.178 35.8304 100.521 35.655 99.6753 35.655H97.9479V39.8387H99.6483V39.8386ZM119.784 49.8794C118.326 49.8794 116.972 49.6276 115.722 49.1238C114.471 48.6198 113.382 47.9271 112.456 47.0453C111.529 46.1636 110.805 45.1245 110.283 43.9278C109.761 42.7311 109.5 41.449 109.5 40.0814V40.0275C109.5 38.6599 109.766 37.3777 110.296 36.1812C110.827 34.9845 111.556 33.9408 112.483 33.0501C113.409 32.1593 114.503 31.4575 115.762 30.9447C117.022 30.4319 118.38 30.1753 119.838 30.1753C121.295 30.1753 122.649 30.4273 123.9 30.9312C125.151 31.4352 126.239 32.1278 127.166 33.0095C128.093 33.8913 128.817 34.9303 129.339 36.1272C129.861 37.3237 130.122 38.6058 130.122 39.9735V40.0275C130.122 41.395 129.856 42.6771 129.325 43.8738C128.795 45.0704 128.066 46.1142 127.139 47.0047C126.213 47.8954 125.119 48.5972 123.86 49.1103C122.6 49.623 121.242 49.8794 119.784 49.8794ZM119.838 44.2922C120.432 44.2922 120.972 44.1754 121.457 43.9414C121.943 43.7074 122.357 43.3969 122.699 43.0101C123.041 42.6233 123.302 42.1778 123.482 41.674C123.662 41.1701 123.752 40.6393 123.752 40.0815V40.0276C123.752 39.4696 123.657 38.9345 123.468 38.4215C123.279 37.9088 123.014 37.4543 122.672 37.0585C122.33 36.6626 121.916 36.3478 121.43 36.1138C120.945 35.8798 120.396 35.7628 119.784 35.7628C119.19 35.7628 118.65 35.8798 118.164 36.1138C117.678 36.3478 117.265 36.6581 116.923 37.0451C116.581 37.4319 116.32 37.8773 116.14 38.3809C115.96 38.8849 115.87 39.4159 115.87 39.9735V40.0275C115.87 40.5852 115.965 41.1207 116.153 41.6334C116.342 42.1463 116.608 42.6008 116.95 42.9965C117.292 43.3924 117.705 43.7074 118.191 43.9414C118.677 44.1754 119.226 44.2922 119.838 44.2922ZM131.849 30.5804H141.08C142.772 30.5804 144.162 30.7739 145.251 31.1607C146.339 31.5475 147.216 32.0739 147.882 32.7396C148.458 33.3155 148.89 33.9634 149.178 34.683C149.466 35.4029 149.61 36.2487 149.61 37.2205V37.2742C149.61 38.6598 149.277 39.8296 148.611 40.7833C147.945 41.737 147.037 42.4928 145.885 43.0505L150.285 49.4745H143.078L139.515 44.0762H138.166V49.4745H131.85V30.5802L131.849 30.5804ZM140.891 39.5687C141.647 39.5687 142.241 39.4067 142.673 39.0827C143.105 38.7589 143.32 38.309 143.32 37.7332V37.6793C143.32 37.0673 143.104 36.6132 142.673 36.3161C142.241 36.019 141.656 35.8708 140.918 35.8708H138.165V39.5687H140.891H140.891ZM155.98 35.9248H150.419V30.5804H167.856V35.9248H162.296V49.4745H155.98V35.9248H155.98Z" fill="#FFCC00"/>
<path d="M80.4031 62.4997L79.5916 61.7725C79.2613 61.9834 78.9047 62.1466 78.5218 62.2627C78.1389 62.3786 77.7295 62.4365 77.2938 62.4365C76.7246 62.4365 76.1959 62.3381 75.7077 62.1415C75.2191 61.9447 74.7943 61.6741 74.4324 61.3298C74.0704 60.9855 73.7878 60.5796 73.5839 60.1125C73.3801 59.645 73.2783 59.1444 73.2783 58.6105V58.5894C73.2783 58.0554 73.3819 57.5545 73.5891 57.0873C73.7964 56.6201 74.0812 56.2126 74.443 55.8646C74.8047 55.5169 75.2315 55.2427 75.7234 55.0426C76.2153 54.8422 76.7458 54.7421 77.3149 54.7421C77.8842 54.7421 78.4129 54.8405 78.901 55.0373C79.3896 55.2341 79.8145 55.5046 80.1764 55.8488C80.5384 56.1931 80.821 56.599 81.0248 57.0662C81.2287 57.5336 81.3305 58.0342 81.3305 58.5683V58.5894C81.3305 58.9897 81.2724 59.3676 81.1567 59.7225C81.0407 60.0772 80.8808 60.4057 80.677 60.7078L81.436 61.3506L80.4029 62.4994L80.4031 62.4997ZM77.3149 60.3287C77.4836 60.3287 77.6524 60.3004 77.8207 60.2442L76.9881 59.5276L78.021 58.3681L78.8116 59.0847C78.8466 58.9231 78.8641 58.7757 78.8641 58.6421V58.621C78.8641 58.4031 78.8273 58.1924 78.7535 57.9886C78.6797 57.7847 78.5743 57.6038 78.4373 57.4457C78.3004 57.2875 78.1351 57.1611 77.9419 57.0663C77.7489 56.9713 77.5327 56.9241 77.2938 56.9241C77.0619 56.9241 76.8513 56.9713 76.6614 57.0663C76.4718 57.1612 76.31 57.2876 76.1764 57.4457C76.043 57.6038 75.9412 57.783 75.871 57.9833C75.8006 58.1835 75.7655 58.3926 75.7655 58.6105V58.6316C75.7655 58.8495 75.8006 59.0602 75.871 59.2641C75.9412 59.4679 76.043 59.6487 76.1764 59.8069C76.31 59.965 76.4735 60.0914 76.6668 60.1863C76.8598 60.2812 77.0759 60.3287 77.3148 60.3287H77.3149ZM84.5769 54.8479H87.0222L90.1314 62.2784H87.4545L87.0646 61.2878H84.4821L84.1027 62.2784H81.4677L84.5771 54.8479H84.5769ZM86.4531 59.5381L85.7784 57.7463L85.104 59.5381H86.4531ZM93.6834 62.426C93.1354 62.426 92.6383 62.361 92.1919 62.2311C91.7458 62.101 91.3646 61.8954 91.0484 61.6143C90.7322 61.3333 90.4879 60.9751 90.3159 60.5394C90.1439 60.1036 90.0575 59.5802 90.0575 58.9689V54.9006H92.5663V58.9373C92.5663 59.3941 92.6733 59.726 92.8876 59.9333C93.102 60.1405 93.3741 60.2442 93.7044 60.2442C94.0418 60.2442 94.3159 60.1476 94.5266 59.9543C94.7373 59.761 94.8428 59.4396 94.8428 58.9897V54.9004H97.3512V58.9159C97.3512 59.5484 97.2634 60.0861 97.0878 60.5287C96.9122 60.9711 96.6645 61.3332 96.3448 61.6142C96.025 61.8953 95.6387 62.1009 95.1853 62.2309C94.7322 62.3609 94.2315 62.4258 93.6834 62.4258V62.426ZM100.323 59.6645L97.5408 54.9006H100.302L101.567 57.3248L102.842 54.9006H105.572L102.79 59.6329V62.2786H100.323V59.6647L100.323 59.6645ZM105.825 54.9006H108.397L109.978 57.4932L111.559 54.9006H114.131V62.2784H111.675V58.621L109.978 61.2455H109.936L108.239 58.621V62.2784H105.825V54.9006ZM114.974 54.9006H117.799C118.529 54.9006 119.171 54.9867 119.722 55.1587C120.274 55.331 120.732 55.5751 121.098 55.8913C121.463 56.2075 121.737 56.5887 121.92 57.0349C122.102 57.4809 122.194 57.9782 122.194 58.5262V58.5474C122.194 59.0954 122.101 59.5977 121.914 60.0546C121.728 60.5114 121.447 60.9048 121.071 61.2351C120.695 61.5652 120.228 61.8216 119.67 62.0044C119.111 62.1871 118.459 62.2786 117.714 62.2786H114.974V54.9007L114.974 54.9006ZM117.44 57.0506V60.1282H117.851C118.421 60.1282 118.872 60.0071 119.206 59.7646C119.539 59.5222 119.706 59.1339 119.706 58.5998V58.5788C119.706 58.0447 119.539 57.6566 119.206 57.414C118.872 57.1718 118.421 57.0504 117.851 57.0504H117.44V57.0506ZM124.913 54.8479H127.358L130.468 62.2784H127.79L127.4 61.2878H124.818L124.439 62.2784H121.804L124.913 54.8479H124.913ZM126.789 59.5381L126.114 57.7463L125.44 59.5381H126.789ZM133.84 62.4154C133.088 62.4154 132.387 62.3119 131.737 62.1046C131.087 61.8973 130.527 61.5864 130.056 61.1719L131.374 59.6013C131.774 59.9105 132.196 60.1317 132.639 60.2652C133.081 60.3988 133.52 60.4656 133.956 60.4656C134.181 60.4656 134.342 60.4375 134.441 60.3812C134.539 60.325 134.588 60.2477 134.588 60.1493V60.1281C134.588 60.0228 134.516 59.935 134.372 59.8646C134.228 59.7945 133.959 59.7207 133.566 59.6433C133.151 59.5588 132.756 59.4606 132.38 59.3481C132.004 59.2358 131.674 59.0916 131.39 58.9158C131.105 58.7403 130.878 58.5207 130.71 58.2572C130.541 57.9939 130.457 57.6654 130.457 57.2718V57.2505C130.457 56.8993 130.525 56.5726 130.662 56.2705C130.8 55.9683 131 55.7048 131.263 55.4801C131.527 55.255 131.853 55.0795 132.243 54.953C132.633 54.8265 133.081 54.7635 133.587 54.7635C134.304 54.7635 134.931 54.8478 135.468 55.0164C136.006 55.1849 136.489 55.4379 136.918 55.7752L135.716 57.4404C135.365 57.1875 134.994 57.0031 134.604 56.8871C134.214 56.7712 133.847 56.7132 133.503 56.7132C133.32 56.7132 133.185 56.7415 133.097 56.7976C133.009 56.8539 132.965 56.9276 132.965 57.019V57.0401C132.965 57.0892 132.979 57.1351 133.007 57.1771C133.035 57.2193 133.086 57.2597 133.16 57.2982C133.234 57.337 133.334 57.374 133.46 57.4089C133.587 57.444 133.749 57.4791 133.945 57.5142C134.416 57.5987 134.845 57.7004 135.231 57.8198C135.618 57.9393 135.95 58.0922 136.227 58.2783C136.505 58.4644 136.719 58.6878 136.87 58.9476C137.021 59.2075 137.097 59.5236 137.097 59.8962V59.9174C137.097 60.3039 137.019 60.6516 136.865 60.9607C136.71 61.2698 136.493 61.5317 136.212 61.7459C135.931 61.9602 135.588 62.1252 135.184 62.2413C134.78 62.3573 134.332 62.4151 133.84 62.4151L133.84 62.4154ZM139.289 56.9874H137.118V54.9006H143.927V56.9874H141.756V62.2784H139.289V56.9874ZM146.678 59.6645L143.895 54.9006H146.657L147.921 57.3248L149.197 54.9006H151.927L149.144 59.6329V62.2786H146.678V59.6647L146.678 59.6645ZM162.319 59.6645L159.536 54.9006H162.298L163.563 57.3248L164.838 54.9006H167.568L164.785 59.6329V62.2786H162.319V59.6647L162.319 59.6645ZM156.153 62.4365C155.577 62.4365 155.038 62.345 154.535 62.1624C154.033 61.9797 153.594 61.7199 153.218 61.3826C152.842 61.0454 152.547 60.6413 152.332 60.1706C152.118 59.6997 152.011 59.1797 152.011 58.6106V58.5895C152.011 58.0414 152.113 57.5321 152.317 57.0612C152.52 56.5905 152.805 56.183 153.17 55.8385C153.536 55.4943 153.966 55.2255 154.461 55.0323C154.957 54.839 155.496 54.7424 156.079 54.7424C156.719 54.7424 157.293 54.8408 157.802 55.0375C158.312 55.2343 158.767 55.5083 159.168 55.8598L157.787 57.525C157.541 57.3212 157.284 57.163 157.017 57.0506C156.75 56.9383 156.462 56.8821 156.153 56.8821C155.914 56.8821 155.693 56.926 155.489 57.0138C155.285 57.1017 155.11 57.2229 154.962 57.3775C154.814 57.5322 154.7 57.7149 154.62 57.9256C154.539 58.1364 154.498 58.3682 154.498 58.6213V58.6424C154.498 58.9023 154.542 59.1414 154.63 59.3591C154.718 59.577 154.839 59.7631 154.994 59.9178C155.148 60.0725 155.333 60.1917 155.547 60.2762C155.761 60.3605 155.999 60.4027 156.259 60.4027C156.469 60.4027 156.638 60.3886 156.764 60.3605C156.891 60.3323 157.003 60.2901 157.102 60.2341V59.4962H155.837V57.9154H159.41V61.3302C159.009 61.6604 158.535 61.9275 157.987 62.1313C157.439 62.3351 156.828 62.4368 156.153 62.4368V62.4365ZM156.016 54.3947C155.405 54.3947 154.916 54.2612 154.551 53.9943C154.186 53.7273 153.957 53.3196 153.866 52.7715H155.183C155.247 52.9121 155.345 53.0208 155.479 53.0983C155.612 53.1755 155.791 53.2141 156.016 53.2141C156.241 53.2141 156.418 53.1755 156.548 53.0983C156.678 53.0208 156.779 52.9121 156.849 52.7715H158.156C158.071 53.3196 157.847 53.7273 157.481 53.9943C157.116 54.2612 156.628 54.3947 156.016 54.3947H156.016Z" fill="#00A6C8"/>
</svg>
