<svg width="289" height="100" viewBox="0 0 289 100" fill="none" xmlns="http://www.w3.org/2000/svg">
    <g xmlns="http://www.w3.org/2000/svg" clip-path="url(#clip0_1023_1554)">
        <path d="M117.018 99.7789H118.438L114.812 91.4131H114.363L110.736 99.7789H112.143L112.73 98.4077H116.432L117.018 99.7789ZM115.958 97.2719H113.204L114.587 93.8694L115.958 97.2719ZM133.9 99.7789H135.221V92.7352H138.001V91.5504H131.132V92.7352H133.9V99.7789ZM145.464 99.7789H146.885L143.256 91.4131H142.809L139.181 99.7789H140.589L141.176 98.4077H144.878L145.464 99.7789ZM144.404 97.2719H141.648L143.033 93.8694L144.404 97.2719ZM165.862 99.7789H167.282L163.655 91.4131H163.206L159.578 99.7789H160.987L161.573 98.4077H165.275L165.862 99.7789ZM164.801 97.2719H162.046L163.43 93.8694L164.801 97.2719ZM175.161 98.6316L176.607 97.0987C177.181 96.4875 177.617 95.9629 177.903 95.502C178.202 95.0412 178.352 94.5296 178.352 93.9691C178.352 92.5228 177.192 91.4131 175.621 91.4131C173.938 91.4131 172.855 92.6976 172.855 94.0443C172.855 94.2927 172.879 94.5296 172.941 94.7552H174.276C174.239 94.5051 174.213 94.2927 174.213 94.1178C174.213 93.2713 174.775 92.6224 175.61 92.6224C176.445 92.6224 176.981 93.2337 176.981 94.0688C176.981 94.7666 176.582 95.3647 175.672 96.3257L172.742 99.4798V99.7789H178.638V98.6316H175.161ZM181.701 95.5903C181.701 98.0204 182.735 99.9162 184.842 99.9162C186.962 99.9162 187.972 98.0204 187.972 95.5903C187.972 94.3303 187.71 93.3203 187.174 92.5603C186.649 91.8004 185.876 91.4131 184.842 91.4131C183.808 91.4131 183.034 91.8004 182.498 92.5734C181.962 93.3334 181.701 94.3433 181.701 95.5903ZM186.6 95.6017C186.6 97.5465 186.051 98.7068 184.842 98.7068C183.633 98.7068 183.072 97.5465 183.072 95.6017C183.072 93.6194 183.659 92.6224 184.842 92.6224C186.014 92.6224 186.6 93.6194 186.6 95.6017ZM193.365 98.6316L194.809 97.0987C195.383 96.4875 195.819 95.9629 196.107 95.502C196.406 95.0412 196.555 94.5296 196.555 93.9691C196.555 92.5228 195.396 91.4131 193.826 91.4131C192.142 91.4131 191.057 92.6976 191.057 94.0443C191.057 94.2927 191.083 94.5296 191.145 94.7552H192.479C192.441 94.5051 192.417 94.2927 192.417 94.1178C192.417 93.2713 192.977 92.6224 193.812 92.6224C194.648 92.6224 195.184 93.2337 195.184 94.0688C195.184 94.7666 194.785 95.3647 193.875 96.3257L190.946 99.4798V99.7789H196.842V98.6316H193.365ZM205.926 97.2098H204.803V94.68H203.482V97.2098H201.026L203.357 91.5504H201.999L199.367 97.9828V98.344H203.482V99.7789H204.803V98.344H205.926V97.2098ZM120.89 95.6638C120.841 98.0204 122.872 99.9538 125.216 99.9162C126.749 99.9162 128.046 99.1808 128.744 98.0204L127.747 97.285C127.161 98.1953 126.314 98.7068 125.229 98.7068C123.546 98.7068 122.261 97.4092 122.261 95.6638C122.261 93.9184 123.546 92.6224 125.229 92.6224C126.314 92.6224 127.161 93.134 127.747 94.0443L128.744 93.3088C128.033 92.1485 126.724 91.4131 125.216 91.4131C122.872 91.3771 120.841 93.3088 120.89 95.6638ZM149.834 99.7789H151.156V96.0135H155.294V99.7789H156.617V91.5504H155.294V94.8287H151.156V91.5504H149.834V99.7789Z" fill="#FEFEFE"/>
        <path fill-rule="evenodd" clip-rule="evenodd" d="M39.3596 0.260426C24.1266 1.27204 15.3768 11.0417 9.36265 19.0218C-1.45292 33.3707 -3.82914 58.4387 7.18908 76.2048C10.4674 81.4932 13.8961 86.4124 18.4296 89.4194C22.4727 92.1013 29.6308 95.7669 34.769 97.5597C42.7148 100.333 47.7172 100.479 56.3233 99.1613C67.3431 97.4747 72.947 93.4839 79.7783 86.4434C81.9894 84.1653 83.3393 82.7598 85.374 79.6171C91.8441 69.6203 98.3403 58.1036 94.4785 42.3477C90.7213 27.0232 88.9007 16.9381 77.6554 10.236C64.9326 2.65463 57.4591 -0.940759 39.3596 0.260426Z" fill="#fff"/>
        <path fill-rule="evenodd" clip-rule="evenodd" d="M19.4166 48.7491C19.4166 64.4364 32.1329 77.1526 47.8185 77.1526C63.5042 77.1526 76.2204 64.4364 76.2204 48.7491C76.2204 33.0618 63.5042 20.3472 47.8185 20.3472C32.1329 20.3472 19.4166 33.0618 19.4166 48.7491Z" fill="#fff" style="&#10;"/>
        <path fill-rule="evenodd" clip-rule="evenodd" d="M38.6422 45.5002C37.727 44 37.3119 42.3265 37.2776 40.5255C38.8399 39.8571 43.1201 43.0439 46.15 43.8087C48.956 44.6553 48.8939 47.0985 45.9523 48.4141C43.174 49.3358 40.7308 48.401 38.6422 45.5002ZM48.3007 42.5046C44.5533 41.931 39.7829 39.8097 36.8478 37.3599L36.4179 34.6765L36.4719 34.6487C37.6861 34.0979 41.2014 32.9245 41.829 33.8789C42.7785 37.5773 45.3378 39.4485 49.1325 39.911C50.6066 40.7445 50.0673 42.8527 48.3007 42.5046ZM49.5084 37.8911C48.3824 37.8371 47.1534 37.3321 45.8297 36.35C44.7919 35.6946 44.6073 33.8724 45.8297 33.6665C47.5963 33.4769 49.8565 34.2009 51.0168 34.4182C52.6282 34.9151 51.4401 38.4108 49.5084 37.8911ZM51.0495 32.882C49.8287 32.9507 47.4198 32.6647 46.6762 32.2888C45.4538 31.859 45.6172 30.2345 47.6715 29.4844C48.8465 29.1772 50.1425 29.1363 51.5071 29.2523C53.2689 29.1428 53.8556 32.5552 51.0495 32.882ZM63.7935 70.7578C59.3091 74.0198 53.7869 75.9384 47.8219 75.9384C41.8372 75.9384 36.3019 74.0067 31.811 70.7316L31.9335 70.6418C36.9017 67.1755 54.2314 66.9369 63.7935 70.7578ZM54.4897 35.2436C55.7938 35.3253 57.5555 35.2239 58.9888 35.1896C60.9205 35.0458 59.8958 37.6655 57.9036 38.2196C56.606 38.8471 55.2676 38.888 53.916 38.6281C52.2376 38.3143 52.9208 35.0393 54.4897 35.2436ZM58.7698 34.1993C57.8628 34.0767 56.0406 34.0554 54.9276 33.5178C53.6235 33.1206 54.2037 29.7982 55.9442 29.9616C57.3709 29.9747 58.5312 30.7264 59.569 31.8181C60.6541 33.5782 60.2782 34.2957 58.7698 34.1993ZM39.1063 60.4063C39.4675 58.3848 38.5801 58.4338 38.8269 55.8402C39.6048 54.3661 43.3374 53.9494 45.6107 53.9494C49.5967 53.7859 53.5287 53.8611 57.0636 55.0688C58.6129 56.0853 60.1834 57.4091 61.9305 62.0717C62.545 65.0607 61.4533 65.7831 58.4903 65.1702C52.8047 63.2238 39.4348 65.4154 39.2436 62.4606C39.0034 62.0357 38.9494 61.3689 39.1063 60.4063ZM28.4035 67.4549L28.2401 67.6184C23.5236 62.7254 20.6228 56.0788 20.6228 48.7491C20.6228 33.7286 32.7997 21.5533 47.8219 21.5533C57.1862 21.5533 65.4523 26.2894 70.3388 33.5031C68.0394 33.7694 63.9439 34.4183 63.9504 33.6256C63.4324 29.6609 59.5886 28.8421 56.1354 27.6622C55.4196 27.3206 55.6173 25.7305 55.9442 25.1699C56.8103 23.3968 54.6139 23.0961 54.7773 24.8088C54.6956 26.0851 54.3949 27.0134 53.6235 27.1572C49.3711 26.6522 45.761 26.8222 43.9585 28.8699C42.955 29.7426 42.6216 32.1384 41.5299 32.1466C39.5214 32.1581 37.8986 32.5748 36.4784 33.2236L36.3902 33.2367C36.3019 32.4865 36.0895 31.7904 35.421 30.9781C35.8705 28.7686 35.1743 28.3845 34.7379 28.4123C34.295 29.4092 34.7314 30.411 34.1643 30.7542C33.3455 31.2445 32.5676 31.2935 31.659 31.47C30.1375 31.7773 27.6338 32.5683 26.8624 33.8103C26.2005 35.1618 27.7073 35.9398 28.8006 34.8824C30.4725 34.1649 31.9188 35.3057 33.4746 35.2632C33.7884 36.0084 33.7688 36.8337 33.4893 37.7211C33.4485 37.8437 33.2916 38.3421 33.2442 38.4385C32.7049 39.6119 31.7423 40.1431 30.4725 40.2183L25.9129 40.4095C24.1119 40.4373 24.2214 41.2773 25.9129 41.0452C27.0324 40.97 31.8093 40.519 32.1591 41.7953C32.2947 42.2938 31.6197 42.6076 30.6915 42.5455C28.1175 42.5455 25.5109 42.668 22.8421 42.9687C21.873 43.0096 21.9612 44.0621 22.8421 43.9101C25.975 43.3577 30.4856 43.106 31.8306 43.6519C31.994 43.727 31.9875 43.9934 31.7832 44.1765C31.087 44.7975 27.9198 44.9004 26.1253 45.0018C25.3523 45.0361 25.5027 45.7666 26.1253 45.6914C26.5061 45.6653 31.7897 45.3155 31.7897 45.7601C32.3699 52.3314 36.5879 54.121 36.9491 55.649C37.4067 57.7311 36.6549 59.2248 37.222 60.5142C37.6535 61.6353 37.7891 62.6649 37.5832 63.5932C36.3411 65.2585 31.0804 65.5641 28.4035 67.4549ZM47.8219 78.4421C31.4204 78.4421 18.1256 65.149 18.1256 48.7491C18.1256 32.3509 31.4204 19.0562 47.8219 19.0562C64.2168 19.0562 77.5132 32.3509 77.5132 48.7491C77.5132 65.149 64.2168 78.4421 47.8219 78.4421ZM63.4798 53.4378C67.4249 54.1471 70.5512 55.8124 73.5125 57.6837C72.2296 61.3608 70.1819 64.6849 67.5622 67.4484C65.3771 67.3046 64.4211 64.1799 64.1825 62.4132C63.9439 60.6727 63.3294 58.4616 62.2099 55.5477C61.602 53.9968 61.937 53.2254 63.4798 53.4378ZM75.0144 48.7491C75.0144 51.1989 74.6859 53.5669 74.0861 55.8255C68.2567 52.8985 63.8965 52.1075 59.9171 51.8608C58.1079 51.042 48.7158 50.8099 51.3846 45.1668C51.7735 44.1977 57.7451 44.9544 60.592 44.2451C64.176 43.5636 66.4901 42.2121 65.0078 40.6824C63.7592 39.8375 61.5677 42.7236 60.0462 42.9834C59.0297 43.2825 55.1875 44.2042 52.3684 43.0504C51.6101 42.5193 52.1706 40.6219 53.2754 40.5876C59.685 40.6759 60.2504 40.1709 64.462 35.7763C65.2676 35.0458 68.7421 35.3318 71.4795 35.3318C73.7299 39.29 75.0144 43.8708 75.0144 48.7491Z" fill="#A83600"/>
        <path d="M118.177 6.6829C118.177 5.02248 116.842 4.1122 115.369 4.1122C114.995 4.1122 114.645 4.14979 114.32 4.22496V2.28999H117.715V1.10352H113.023V5.24801H114.92C116.129 5.24801 116.816 5.77261 116.816 6.70741C116.816 7.65692 116.092 8.26814 115.106 8.26814C114.22 8.26814 113.608 7.80564 113.109 7.04407L112.186 7.70595C112.748 8.76659 113.782 9.47913 115.144 9.47913C116.78 9.47913 118.177 8.34331 118.177 6.6829ZM121.148 5.93441H124.217V4.8231H121.148V5.93441ZM133.039 6.70578C133.103 6.41978 133.14 6.14359 133.14 5.88211C133.14 4.2838 131.928 3.07281 130.305 3.07281C128.569 3.03522 127.095 4.52077 127.133 6.2825C127.133 8.09327 128.556 9.47913 130.431 9.47913C131.366 9.47913 132.178 9.15391 132.877 8.49203L132.253 7.59318C131.704 8.0802 131.104 8.31716 130.467 8.31716C129.419 8.31716 128.631 7.70595 128.47 6.70578H133.039ZM128.494 5.68273C128.694 4.77081 129.393 4.18411 130.254 4.18411C131.117 4.18411 131.817 4.74629 131.828 5.68273H128.494Z" fill="#FEFEFE"/>
        <path d="M267.817 33.959H279.206V30.9111H271.188V26.7404H276.859V23.8674H271.188V20.5204H278.907V17.4741H267.817V33.959Z" fill="#FEFEFE"/>
        <path d="M259.275 33.959H262.646V17.4741H259.275V33.959ZM247.635 30.9862V26.09H250.633C252.231 26.09 253.205 27.0901 253.205 28.5626C253.205 30.0367 252.231 30.9862 250.633 30.9862H247.635ZM244.264 33.959H250.633C254.154 33.959 256.653 31.7854 256.653 28.5381C256.653 25.3921 254.154 23.1434 250.633 23.1434H247.635V17.4741H244.264V33.959Z" fill="#FEFEFE"/>
        <path d="M225.056 33.959H228.428V26.8401H235.722V33.959H239.093V17.4741H235.722V23.7922H228.428V17.4741H225.056V33.959Z" fill="#FEFEFE"/>
        <path d="M212.193 25.1911V20.4469H215.015C216.539 20.4469 217.513 21.3947 217.513 22.7937C217.513 24.2171 216.589 25.1911 215.015 25.1911H212.193ZM208.822 33.959H212.193V28.1393H215.015C218.462 28.1393 220.961 25.9413 220.961 22.7937C220.961 19.6215 218.462 17.4741 215.015 17.4741H208.822V33.959Z" fill="#FEFEFE"/>
        <path d="M146.713 33.959H158.102V30.9111H150.084V26.7404H155.755V23.8674H150.084V20.5204H157.803V17.4741H146.713V33.959Z" fill="#FEFEFE"/>
        <path d="M121.508 28.9875C121.508 30.2868 120.635 31.0614 119.161 31.0614H115.314V26.9153H119.161C120.635 26.9153 121.508 27.7144 121.508 28.9875ZM117.636 20.3717C119.01 20.3717 119.785 21.0695 119.785 22.2445C119.785 23.4179 119.01 24.1419 117.636 24.1419H115.314V20.3717H117.636ZM124.83 29.1134C124.83 27.1147 123.732 25.7157 121.908 25.0408C122.732 24.2678 123.132 23.2692 123.132 22.0697C123.132 19.3715 120.958 17.4741 117.912 17.4741H112.066V33.959H119.411C122.581 33.959 124.83 31.9603 124.83 29.1134Z" fill="#FEFEFE"/>
        <path d="M177.107 58.6411H180.478V42.1562H177.107V58.6411ZM165.468 55.6684V50.7737H168.465C170.063 50.7737 171.037 51.7723 171.037 53.2464C171.037 54.7188 170.063 55.6684 168.465 55.6684H165.468ZM162.096 58.6411H168.465C171.987 58.6411 174.486 56.4675 174.486 53.2202C174.486 50.0743 171.987 47.8255 168.465 47.8255H165.468V42.1562H162.096V58.6411Z" fill="#FEFEFE"/>
        <path d="M149.233 49.8733V45.129H152.055C153.578 45.129 154.552 46.0769 154.552 47.4758C154.552 48.8992 153.629 49.8733 152.055 49.8733H149.233ZM145.861 58.6411H149.233V52.8215H152.055C155.502 52.8215 158.001 50.6234 158.001 47.4758C158.001 44.3037 155.502 42.1562 152.055 42.1562H145.861V58.6411Z" fill="#FEFEFE"/>
        <path d="M284.861 78.3539C284.861 79.6515 283.986 80.4262 282.512 80.4262H278.667V76.28H282.512C283.986 76.28 284.861 77.0792 284.861 78.3539ZM280.989 69.7364C282.362 69.7364 283.138 70.4359 283.138 71.6093C283.138 72.7827 282.362 73.5083 280.989 73.5083H278.667V69.7364H280.989ZM288.183 78.4781C288.183 76.4794 287.083 75.0805 285.261 74.4072C286.085 73.6325 286.484 72.634 286.484 71.4344C286.484 68.7362 284.312 66.8389 281.264 66.8389H275.42V83.3237H282.762C285.934 83.3237 288.183 81.325 288.183 78.4781Z" fill="#FEFEFE"/>
        <path d="M267.701 75.0802C267.701 78.2523 265.429 80.501 262.406 80.501C259.36 80.501 257.111 78.2523 257.111 75.0802C257.111 71.9097 259.36 69.661 262.406 69.661C265.429 69.661 267.701 71.9587 267.701 75.0802ZM253.64 75.0802C253.565 79.8016 257.635 83.7238 262.381 83.6225C267.127 83.7238 271.247 79.8016 271.174 75.0802C271.247 70.3604 267.127 66.4382 262.381 66.5395C257.635 66.4382 253.565 70.3604 253.64 75.0802Z" fill="#FEFEFE"/>
        <path d="M199.601 83.3237H202.973V76.2048H210.266V83.3237H213.638V66.8389H210.266V73.1586H202.973V66.8389H199.601V83.3237Z" fill="#FEFEFE"/>
        <path d="M192.132 78.3539C192.132 79.6515 191.258 80.4262 189.784 80.4262H185.939V76.28H189.784C191.258 76.28 192.132 77.0792 192.132 78.3539ZM188.261 69.7364C189.634 69.7364 190.408 70.4359 190.408 71.6093C190.408 72.7827 189.634 73.5083 188.261 73.5083H185.939V69.7364H188.261ZM195.455 78.4781C195.455 76.4794 194.355 75.0805 192.531 74.4072C193.356 73.6325 193.755 72.634 193.755 71.4344C193.755 68.7362 191.583 66.8389 188.535 66.8389H182.691V83.3237H190.034C193.206 83.3237 195.455 81.325 195.455 78.4781Z" fill="#FEFEFE"/>
        <path d="M166.979 83.3237H178.369V80.2758H170.353V76.1052H176.022V73.2321H170.353V69.8868H178.07V66.8389H166.979V83.3237Z" fill="#FEFEFE"/>
        <path d="M141.653 75.0802C141.653 78.2523 139.38 80.501 136.358 80.501C133.31 80.501 131.063 78.2523 131.063 75.0802C131.063 71.9097 133.31 69.661 136.358 69.661C139.38 69.661 141.653 71.9587 141.653 75.0802ZM127.59 75.0802C127.515 79.8016 131.588 83.7238 136.334 83.6225C141.08 83.7238 145.2 79.8016 145.124 75.0802C145.2 70.3604 141.08 66.4382 136.334 66.5395C131.588 66.4382 127.515 70.3604 127.59 75.0802Z" fill="#FEFEFE"/>
        <path d="M183.481 34.3299L179.048 23.7154L175.505 28.2521V32.3901H172.485V28.2374L168.942 23.6647L164.507 34.3299L161.189 33.2775L167.476 17.2764H168.573L174.007 25.0293L179.416 17.2764H180.514L186.801 33.2775L183.485 34.3299H183.481Z" fill="#FEFEFE"/>
        <path d="M122.738 50.9097L113.189 58.9405H112.093V42.1876H115.459V52.6175L122.738 46.8877V41.8853L126.105 41.8885V58.6414H122.738V50.9097Z" fill="#FEFEFE"/>
        <path d="M141.341 33.9574H137.002C131.792 34.0325 127.952 30.4355 128.027 25.6667C127.952 20.7966 131.792 17.4251 137.002 17.4742H141.341V20.5204H139.318H137.027C133.662 20.5204 131.491 22.4701 131.491 25.6667C131.491 28.8372 133.711 30.9111 137.027 30.9111H138.542H141.341V33.9574Z" fill="#FEFEFE"/>
        <path d="M200.222 26.2124L190.673 34.2448H189.576V17.4903H192.943V27.9218L200.222 22.1905V17.188L203.589 17.1913V33.9441H200.222V26.2124Z" fill="#FEFEFE"/>
        <path d="M132.496 42.1875L142.264 45.3939L141.467 48.3601L134.74 46.1751V58.6413H131.374V42.1875H132.496Z" fill="#FEFEFE"/>
        <path d="M125.732 82.304L119.426 74.6082L124.925 67.8472L121.968 66.5513L115.435 74.4824V66.8503H112.066V83.3123H115.435V74.7324L122.748 83.613L125.732 82.304Z" fill="#FEFEFE"/>
        <path d="M158.413 66.8389V75.4041L151.794 73.2468V66.8389H148.422V75.3746L158.413 78.6546V83.3237H161.784V66.8389H158.413Z" fill="#FEFEFE"/>
        <path d="M229.516 75.5772L219.967 83.6096H218.871V66.8551H222.237V77.2866L229.516 71.5552V66.5527L232.881 66.556V83.3105H229.516V75.5772Z" fill="#FEFEFE"/>
        <path d="M251.781 82.304L245.473 74.6082L250.974 67.8472L248.016 66.5513L241.482 74.4824V66.8503H238.116V83.3123H241.482V74.7324L248.796 83.613L251.781 82.304Z" fill="#FEFEFE"/>
    </g>
    <defs>
        <linearGradient id="paint0_linear_1023_1554" x1="70.5752" y1="62.3672" x2="24.7234" y2="36.0744" gradientUnits="userSpaceOnUse">
            <stop stop-color="#A83600"/>
            <stop offset="0.490196" stop-color="#A83600"/>
            <stop offset="1" stop-color="#E85222"/>
        </linearGradient>
        <clipPath id="clip0_1023_1554">
            <rect width="288.183" height="100" fill="white"/>
        </clipPath>
    </defs>
</svg>
