<svg width="206" height="100" viewBox="0 0 206 100" fill="none" xmlns="http://www.w3.org/2000/svg">
<g xmlns="http://www.w3.org/2000/svg" clip-path="url(#clip0_1023_1585)">
<path d="M117.125 99.8628H118.547L114.919 91.4971H114.47L110.841 99.8628H112.25L112.836 98.4902H116.539L117.125 99.8628ZM116.066 97.3558H113.31L114.693 93.9526L116.066 97.3558ZM120.848 98.2161C121.484 99.3265 122.605 99.9999 123.953 99.9999C125.537 99.9999 126.707 99.0523 126.707 97.618C126.707 96.5333 126.071 95.8856 124.738 95.2738L123.815 94.8506C123.004 94.4393 122.718 94.3262 122.668 93.6785C122.668 93.029 123.217 92.6812 123.914 92.6812C124.613 92.6812 125.211 93.029 125.648 93.6785L126.57 92.9673C126.059 92.0831 125.074 91.4971 123.914 91.4971C122.493 91.4971 121.321 92.3813 121.321 93.7282C121.321 94.8249 122.045 95.4606 123.242 96.009L124.152 96.4339C125.012 96.8332 125.362 97.0817 125.362 97.6677C125.362 98.3651 124.788 98.8158 123.94 98.8158C122.992 98.8158 122.331 98.3035 121.784 97.5066L120.848 98.2161ZM131.976 99.8628H133.298V92.8182H136.079V91.6342H129.209V92.8182H131.976V99.8628ZM143.542 99.8628H144.962L141.334 91.4971H140.885L137.258 99.8628H138.666L139.252 98.4902H142.955L143.542 99.8628ZM142.483 97.3558H139.727L141.11 93.9526L142.483 97.3558ZM153.372 91.6342V97.181L148.374 91.4971H147.913V99.8628H149.234V94.2885L154.246 99.9999H154.695V91.6342H153.372ZM163.94 99.8628H165.362L161.733 91.4971H161.284L157.656 99.8628H159.067L159.651 98.4902H163.354L163.94 99.8628ZM162.881 97.3558H160.126L161.51 93.9526L162.881 97.3558ZM173.241 98.7147L174.688 97.181C175.26 96.571 175.697 96.0467 175.985 95.5857C176.283 95.1247 176.434 94.6124 176.434 94.052C176.434 92.6058 175.274 91.4971 173.702 91.4971C172.02 91.4971 170.935 92.7805 170.935 94.1274C170.935 94.3759 170.961 94.6124 171.022 94.8386H172.356C172.32 94.5884 172.294 94.3759 172.294 94.2028C172.294 93.3546 172.854 92.7051 173.69 92.7051C174.525 92.7051 175.061 93.3169 175.061 94.1514C175.061 94.8506 174.662 95.4486 173.752 96.4082L170.824 99.5629V99.8628H176.72V98.7147H173.241ZM179.782 95.6731C179.782 98.1047 180.817 99.9999 182.923 99.9999C185.043 99.9999 186.052 98.1047 186.052 95.6731C186.052 94.4136 185.792 93.4043 185.255 92.6435C184.731 91.8826 183.958 91.4971 182.923 91.4971C181.888 91.4971 181.115 91.8826 180.579 92.6555C180.044 93.4163 179.782 94.4256 179.782 95.6731ZM184.681 95.6851C184.681 97.63 184.133 98.7901 182.923 98.7901C181.713 98.7901 181.153 97.63 181.153 95.6851C181.153 93.7025 181.739 92.7051 182.923 92.7051C184.095 92.7051 184.681 93.7025 184.681 95.6851ZM191.447 98.7147L192.893 97.181C193.465 96.571 193.902 96.0467 194.188 95.5857C194.488 95.1247 194.637 94.6124 194.637 94.052C194.637 92.6058 193.479 91.4971 191.908 91.4971C190.225 91.4971 189.14 92.7805 189.14 94.1274C189.14 94.3759 189.164 94.6124 189.228 94.8386H190.561C190.525 94.5884 190.499 94.3759 190.499 94.2028C190.499 93.3546 191.059 92.7051 191.896 92.7051C192.73 92.7051 193.266 93.3169 193.266 94.1514C193.266 94.8506 192.867 95.4486 191.957 96.4082L189.027 99.5629V99.8628H194.925V98.7147H191.447ZM204.009 97.2941H202.887V94.7632H201.565V97.2941H199.108L201.44 91.6342H200.081L197.451 98.067V98.4285H201.565V99.8628H202.887V98.4285H204.009V97.2941Z" fill="#FEFEFE"/>
<path d="M118.184 6.695C118.184 5.03796 116.849 4.12633 115.378 4.12633C115.005 4.12633 114.655 4.16402 114.331 4.23942V2.30649H117.723V1.1224H113.034V5.26072H114.929C116.139 5.26072 116.825 5.78508 116.825 6.7207C116.825 7.66832 116.102 8.27836 115.116 8.27836C114.232 8.27836 113.62 7.8174 113.122 7.05657L112.198 7.71801C112.76 8.77701 113.795 9.48815 115.154 9.48815C116.787 9.48815 118.184 8.35375 118.184 6.695ZM125.023 8.24066C124.661 8.27836 124.4 8.30406 124.212 8.30406C123.415 8.30406 123.004 8.02989 123.004 7.24335V4.36451H124.824V3.23012H123.004V1.62106H121.683V3.23012H120.684V4.36451H121.683V7.35644C121.683 8.78901 122.529 9.48815 123.938 9.48815C124.25 9.48815 124.611 9.43846 125.023 9.35106V8.24066ZM133.333 5.5229C133.333 4.07663 132.461 3.09303 131.065 3.09303C130.329 3.09303 129.706 3.3535 129.294 3.84016V0H127.985V9.35106H129.294V5.70968C129.294 4.87516 129.881 4.28912 130.691 4.28912C131.502 4.28912 132.024 4.86317 132.024 5.70968V9.35106H133.333V5.5229Z" fill="#FEFEFE"/>
<path d="M194.925 30.9922V20.6147H196.92C200.289 20.6147 202.458 22.5614 202.458 25.7538C202.458 28.9222 200.239 30.9922 196.92 30.9922H194.925ZM191.556 34.0356H196.945C202.16 34.111 206 30.5176 205.926 25.7538C206 20.8889 202.16 17.52 196.945 17.5714H191.556V34.0356Z" fill="#FEFEFE"/>
<path d="M163.092 20.5392H165.911C167.432 20.5392 168.406 21.4868 168.406 22.8851C168.406 24.3057 167.482 25.255 165.911 25.255H163.092V20.5392ZM173.116 33.338L168.954 27.5752C170.75 26.6773 171.848 24.9791 171.848 22.8851C171.848 19.7167 169.353 17.5713 165.911 17.5713H159.723V34.0355H163.092V28.223H165.561L170.047 34.3371L173.116 33.338Z" fill="#FEFEFE"/>
<path d="M152.015 25.8034C152.015 28.9718 149.746 31.2166 146.727 31.2166C143.682 31.2166 141.437 28.9718 141.437 25.8034C141.437 22.6349 143.682 20.3901 146.727 20.3901C149.746 20.3901 152.015 22.6846 152.015 25.8034ZM137.971 25.8034C137.895 30.5174 141.961 34.4347 146.701 34.3353C151.441 34.4347 155.557 30.5174 155.483 25.8034C155.557 21.0875 151.441 17.172 146.701 17.2714C141.961 17.172 137.895 21.0875 137.971 25.8034Z" fill="#FEFEFE"/>
<path d="M133.527 17.2715L129.094 27.8923L125.547 23.353V19.2113H122.526V23.3667L118.979 27.9437L114.542 17.2715L111.223 18.3236L117.514 34.3354H118.61L124.049 26.578L129.463 34.3354H130.559L136.85 18.3236L133.532 17.2732L133.527 17.2715Z" fill="#FEFEFE"/>
<path d="M178.211 34.0355L187.983 30.8259L187.187 27.858L180.456 30.0445V17.5713H177.087V34.0355H178.211Z" fill="#FEFEFE"/>
<path d="M182.826 55.678H176.862L179.856 48.7174L182.826 55.678ZM180.404 41.9556H179.282L172.321 57.8217V58.7196H187.341V57.8217L180.404 41.9556Z" fill="#FEFEFE"/>
<path d="M122.852 49.9923L113.297 41.9556H112.2V58.7213H115.567V48.2821L122.852 54.0175V59.0229L126.221 59.0195V42.2554H122.852V49.9923Z" fill="#FEFEFE"/>
<path d="M130.436 50.4874C130.36 55.2032 134.427 59.1205 139.167 59.0211C143.908 59.1205 148.024 55.2032 147.949 50.4874C148.024 45.7716 143.908 41.8561 139.167 41.9555C134.427 41.8561 130.36 45.7716 130.436 50.4874ZM144.482 50.4874C144.482 53.6559 142.212 55.9007 139.192 55.9007C136.149 55.9007 133.904 53.6559 133.904 50.4874C133.904 47.319 136.149 45.0742 139.192 45.0742C142.212 45.0742 144.482 47.3687 144.482 50.4874Z" fill="#FEFEFE"/>
<path d="M167.208 41.9556L160.247 47.8846L153.288 41.9556H152.19V58.7213H155.559V48.373L159.699 51.9732H160.797L164.939 48.373V58.7213H168.306V41.9556H167.208Z" fill="#FEFEFE"/>
<path d="M191.381 58.7213H196.771C201.983 58.795 205.827 55.2033 205.752 50.4378C205.827 45.5729 201.983 42.2057 196.771 42.2554H191.381V58.7213ZM194.75 55.678V45.2988H196.745C200.114 45.2988 202.283 47.2454 202.283 50.4378C202.283 53.6062 200.062 55.678 196.745 55.678H194.75Z" fill="#FEFEFE"/>
<path d="M167.208 66.6416L160.247 72.5706L153.288 66.6416H152.19V83.4057H155.559V73.059L159.699 76.6575H160.797L164.939 73.059V83.4057H168.306V66.6416H167.208Z" fill="#FEFEFE"/>
<path d="M175.032 83.4056H186.407V80.3622H178.401V76.1965H184.063V73.3262H178.401V69.9847H186.109V66.9414H175.032V83.4056Z" fill="#FEFEFE"/>
<path d="M142.186 80.3623H136.224L139.218 73.4017L142.186 80.3623ZM139.766 66.6416H138.644L131.683 82.5077V83.4057H146.701V82.5077L139.766 66.6416Z" fill="#FEFEFE"/>
<path d="M126.221 83.4054H120.232C115.019 83.4791 111.175 79.8874 111.251 75.1219C111.175 70.257 115.019 66.8898 120.232 66.9395H126.221V69.9828H122.55H120.257C116.888 69.9828 114.719 71.9295 114.719 75.1219C114.719 78.2903 116.94 80.3621 120.257 80.3621H122.852V76.7824H126.221V83.4054Z" fill="#FEFEFE"/>
<path d="M198.411 83.6523L189.946 80.8728L190.742 77.8998L196.166 79.6613V77.168V73.1771V66.6929H197.288L205.753 69.4723L204.957 72.4471L199.533 70.6838V73.1771V77.168V83.6523H198.411Z" fill="#FEFEFE"/>
<path fill-rule="evenodd" clip-rule="evenodd" d="M39.4185 0.228149C24.1761 1.24088 15.4197 11.0169 9.40153 19.0005C-1.42151 33.3604 -3.79825 58.444 7.22699 76.2225C10.5085 81.514 13.9374 86.4372 18.4767 89.4462C22.5208 92.1297 29.6853 95.7968 34.8244 97.5909C42.7754 100.367 47.7825 100.513 56.3933 99.1949C67.4203 97.507 73.0289 93.5126 79.8644 86.4663C82.0766 84.1872 83.4269 82.7821 85.4627 79.6377C91.9383 69.6337 98.4397 58.1098 94.5738 42.3431C90.8142 27.0081 88.9927 16.9168 77.7395 10.2098C65.0076 2.62375 57.5312 -0.974792 39.4185 0.228149Z" fill="#fff"/>
<path fill-rule="evenodd" clip-rule="evenodd" d="M19.4619 48.7483C19.4619 64.4448 32.187 77.1699 47.8835 77.1699C63.58 77.1699 76.3051 64.4448 76.3051 48.7483C76.3051 33.0518 63.58 20.3267 47.8835 20.3267C32.187 20.3267 19.4619 33.0518 19.4619 48.7483Z" fill="#fff"/>
<path fill-rule="evenodd" clip-rule="evenodd" d="M38.7004 45.4974C37.7854 43.9946 37.369 42.3221 37.3347 40.5194C38.8992 39.8494 43.1815 43.0384 46.2145 43.8044C49.0197 44.6509 48.9597 47.0962 46.0158 48.4139C43.2363 49.3358 40.791 48.4002 38.7004 45.4974ZM48.3651 42.5003C44.6158 41.9263 39.8417 39.8014 36.9046 37.351L36.4745 34.6675L36.5293 34.6384C37.7443 34.0866 41.2623 32.9128 41.8912 33.8673C42.8405 37.5686 45.4006 39.4399 49.1979 39.9042C50.6733 40.7388 50.1335 42.8482 48.3651 42.5003ZM49.5749 37.8839C48.4474 37.8291 47.217 37.3236 45.8924 36.34C44.8557 35.6854 44.6706 33.8604 45.8924 33.6565C47.6625 33.4646 49.9228 34.1894 51.0829 34.407C52.6953 34.9057 51.5061 38.4031 49.5749 37.8839ZM51.1171 32.8717C49.8953 32.9385 47.4843 32.6523 46.7406 32.277C45.5171 31.8469 45.6816 30.2207 47.7362 29.4702C48.9117 29.1617 50.2089 29.1223 51.5747 29.2371C53.3362 29.1292 53.9257 32.5427 51.1171 32.8717ZM63.8697 70.7711C59.3818 74.0355 53.8554 75.9548 47.887 75.9548C41.898 75.9548 36.358 74.0218 31.8649 70.7454L31.9866 70.6563C36.9594 67.1863 54.2993 66.9481 63.8697 70.7711ZM54.5597 35.233C55.8638 35.3152 57.6271 35.2141 59.0613 35.1782C60.9925 35.0359 59.9695 37.6577 57.9749 38.2112C56.6777 38.8384 55.3377 38.8795 53.9857 38.6208C52.3064 38.3072 52.9884 35.0291 54.5597 35.233ZM58.842 34.1894C57.9338 34.066 56.1105 34.0455 54.9967 33.5057C53.6927 33.1099 54.2718 29.7838 56.0146 29.9483C57.442 29.962 58.6038 30.7125 59.6405 31.8058C60.7269 33.5674 60.3517 34.2837 58.842 34.1894ZM39.1648 60.4125C39.5264 58.3905 38.6388 58.4384 38.8855 55.8441C39.6635 54.3687 43.3991 53.9523 45.6748 53.9523C49.6623 53.7877 53.5967 53.8631 57.1335 55.0729C58.6843 56.0891 60.2557 57.4137 62.0053 62.0781C62.6187 65.07 61.5255 65.7932 58.5627 65.1797C52.8718 63.2331 39.4938 65.4247 39.3019 62.4671C39.062 62.0438 39.0089 61.3755 39.1648 60.4125ZM28.4566 67.4673L28.2921 67.6301C23.5729 62.7344 20.6701 56.0822 20.6701 48.7481C20.6701 33.7182 32.8554 21.5345 47.887 21.5345C57.2569 21.5345 65.5284 26.2743 70.419 33.492C68.1177 33.7576 64.0187 34.407 64.0256 33.6154C63.5064 29.6467 59.6628 28.8293 56.2065 27.6469C55.4885 27.3059 55.6873 25.714 56.0146 25.1537C56.8816 23.3784 54.6831 23.0785 54.8476 24.7921C54.7636 26.0687 54.4638 26.9975 53.6927 27.1414C49.4378 26.6359 45.8238 26.8073 44.0212 28.855C43.017 29.7289 42.6828 32.1263 41.5896 32.1331C39.5812 32.1468 37.9568 32.5632 36.5362 33.2127L36.4471 33.2264C36.358 32.4758 36.1455 31.7784 35.4772 30.9662C35.9279 28.7539 35.2321 28.3701 34.7952 28.3975C34.3514 29.3948 34.7883 30.399 34.2194 30.74C33.4003 31.2318 32.6223 31.2797 31.7141 31.458C30.1908 31.7647 27.6838 32.5564 26.9127 33.8004C26.2495 35.1525 27.7592 35.9304 28.8524 34.8714C30.5266 34.1534 31.9729 35.2947 33.5305 35.2536C33.8441 35.9973 33.8236 36.8249 33.5443 37.7126C33.5031 37.8359 33.3472 38.3346 33.2992 38.4288C32.7594 39.6044 31.7964 40.1373 30.5266 40.2127L25.9633 40.4029C24.1606 40.4303 24.2703 41.27 25.9633 41.0386C27.084 40.9632 31.8649 40.5126 32.2128 41.7892C32.3482 42.2878 31.673 42.6014 30.7442 42.5415C28.1704 42.5415 25.5606 42.6631 22.8909 42.9647C21.9193 43.0041 22.0084 44.0563 22.8909 43.9072C26.025 43.3537 30.5386 43.1018 31.8838 43.6467C32.0483 43.7221 32.0414 43.9877 31.8375 44.1728C31.1401 44.7931 27.9717 44.8959 26.1741 44.9987C25.403 45.033 25.5538 45.7647 26.1741 45.6893C26.5579 45.6619 31.8444 45.314 31.8444 45.7579C32.4236 52.3329 36.6459 54.1219 37.0074 55.6521C37.465 57.7359 36.7127 59.2318 37.2799 60.5222C37.7117 61.6411 37.8471 62.6727 37.6415 63.6015C36.3991 65.2671 31.1332 65.5755 28.4566 67.4673ZM47.887 78.4617C31.4742 78.4617 18.1699 65.1574 18.1699 48.7481C18.1699 32.3387 31.4742 19.0361 47.887 19.0361C64.2929 19.0361 77.5972 32.3387 77.5972 48.7481C77.5972 65.1574 64.2929 78.4617 47.887 78.4617ZM63.5544 53.4399C67.5025 54.1493 70.6315 55.8166 73.5943 57.6879C72.3108 61.3687 70.2614 64.6948 67.6396 67.4588C65.453 67.3165 64.4986 64.1892 64.2569 62.4191C64.0188 60.6798 63.4036 58.4658 62.2846 55.551C61.6763 54.0002 62.0121 53.2291 63.5544 53.4399ZM75.0971 48.7481C75.0971 51.2002 74.7698 53.5684 74.1683 55.8303C68.3353 52.9001 63.9708 52.1084 59.9901 51.8617C58.1805 51.0426 48.7815 50.8112 51.453 45.1632C51.842 44.1934 57.8173 44.9508 60.6653 44.2413C64.2518 43.5593 66.5669 42.2056 65.0846 40.6754C63.8337 39.8288 61.642 42.718 60.1203 42.9784C59.1007 43.2783 55.2572 44.2002 52.4366 43.0452C51.6775 42.514 52.2378 40.6154 53.3448 40.5811C59.757 40.6685 60.3242 40.1647 64.538 35.7659C65.3451 35.0359 68.8202 35.3221 71.5585 35.3221C73.8136 39.2839 75.0971 43.8661 75.0971 48.7481Z" fill="#A83600"/>
</g>
<defs>
<linearGradient id="paint0_linear_1023_1585" x1="70.656" y1="62.3747" x2="24.7731" y2="36.0632" gradientUnits="userSpaceOnUse">
<stop stop-color="#A83600"/>
<stop offset="0.490196" stop-color="#A83600"/>
<stop offset="1" stop-color="#E85222"/>
</linearGradient>
<clipPath id="clip0_1023_1585">
<rect width="205.961" height="100" fill="white"/>
</clipPath>
</defs>
</svg>
