<svg width="240" height="58" viewBox="0 0 240 58" fill="none" xmlns="http://www.w3.org/2000/svg">
<g clip-path="url(#clip0_1725_4885)">
<path fill-rule="evenodd" clip-rule="evenodd" d="M199.179 38.2679C194.418 38.2679 192.056 35.9409 192.056 32.5789C192.056 27.9879 196.5 27.0259 201.812 26.5089L201.803 25.4029V25.2079V25.1889C201.797 22.9359 200.374 22.3239 198.337 22.3239C196.697 22.3239 194.607 23.0729 193.144 23.8599V21.7269C194.228 20.6679 196.366 19.8019 199.05 19.8019C202.472 19.8019 205.219 21.1789 205.476 25.1889V25.1989L205.478 25.2269V25.2379L205.479 25.2479L205.485 25.3929V25.4019C205.492 25.5379 205.494 25.6789 205.494 25.8219V37.2559C204.153 37.9729 200.813 38.2679 199.179 38.2679ZM201.812 28.8359C198.361 28.8359 195.778 29.5389 195.778 32.7079C195.778 33.6719 196.026 34.3999 196.485 34.9199C196.835 35.3139 197.312 35.5809 197.89 35.7519C198.891 36.0509 200.76 36.0079 201.812 35.5779V28.8359ZM184.887 25.2479C184.887 23.8149 184.234 22.3119 181.718 22.3119C180.412 22.3119 179.726 22.5099 178.974 22.8019L178.976 37.7849H174.992L174.991 21.0739C176.655 20.2919 178.91 19.8019 181.881 19.8019C187.141 19.8019 188.871 22.3459 188.871 25.1819L188.875 37.7849H184.889L184.887 25.2479ZM164.399 38.2679C159.637 38.2679 157.273 35.9409 157.273 32.5789C157.273 27.9879 161.72 27.0259 167.031 26.5089L167.022 25.4029V25.2079V25.1889C167.018 22.9359 165.594 22.3239 163.556 22.3239C161.917 22.3239 159.826 23.0729 158.364 23.8599V21.7269C159.447 20.6679 161.585 19.8019 164.27 19.8019C167.691 19.8019 170.438 21.1789 170.695 25.1889V25.1989L170.698 25.2269V25.2379V25.2479L170.704 25.3929L170.705 25.4019C170.711 25.5379 170.713 25.6789 170.713 25.8219V37.2559C169.373 37.9729 166.033 38.2679 164.399 38.2679ZM167.031 28.8359C163.58 28.8359 160.998 29.5389 160.998 32.7079C160.998 33.6719 161.245 34.3999 161.705 34.9199C162.054 35.3139 162.53 35.5809 163.11 35.7519C164.112 36.0509 165.979 36.0079 167.031 35.5779V28.8359ZM153.193 38.2679C149.832 38.2679 148.5 36.0179 148.5 33.6439V22.3239H146.449V19.8769H148.5L148.499 17.9669L152.369 15.5539V19.8769H155.16V22.3239H152.369V33.0669C152.369 34.3959 152.907 35.2839 154.24 35.2839C154.589 35.2839 154.841 35.2199 155.16 35.1239V37.9189C154.811 38.0779 154.113 38.2679 153.193 38.2679ZM144.329 32.8399C144.329 35.7519 141.841 38.2679 137.873 38.2679C135.753 38.2679 134.403 37.7849 133.332 37.2419L133.315 34.3899C135.132 35.7409 140.365 36.1359 140.365 32.8719C140.365 31.3489 139.318 30.6569 137.469 29.9599C134.039 28.6699 133.332 26.8169 133.332 24.9629C133.332 19.3589 141.012 18.3339 143.291 21.7689V23.9479C142.628 23.2469 141.168 22.4149 139.889 22.4149C138.208 22.4149 137.3 23.5079 137.3 24.7659C137.3 26.2199 138.41 26.9489 139.99 27.5779C143.522 28.9679 144.329 30.7549 144.329 32.8399ZM123.812 38.2679C119.051 38.2679 116.686 35.9409 116.686 32.5789C116.686 27.9879 121.133 27.0259 126.444 26.5089L126.435 25.4029V25.2079V25.1889C126.431 22.9359 125.007 22.3239 122.97 22.3239C121.332 22.3239 119.239 23.0729 117.777 23.8599V21.7269C118.861 20.6679 120.998 19.8019 123.683 19.8019C127.104 19.8019 129.852 21.1789 130.108 25.1889L130.109 25.1989L130.111 25.2269L130.112 25.2379V25.2479L130.117 25.3929V25.4019C130.124 25.5379 130.127 25.6789 130.127 25.8219V37.2559C128.785 37.9729 125.446 38.2679 123.812 38.2679ZM126.444 28.8359C122.994 28.8359 120.412 29.5389 120.412 32.7079C120.412 33.6719 120.658 34.3999 121.119 34.9199C121.468 35.3139 121.944 35.5809 122.524 35.7519C123.525 36.0509 125.393 36.0079 126.444 35.5779V28.8359ZM105.052 22.8719V37.7839H101.071V21.0779C102.898 20.1999 105.248 19.6769 109.706 19.8289V22.6719C108.173 22.0509 105.965 22.3509 105.052 22.8719ZM94.857 17.8389C93.722 17.8389 92.801 16.9199 92.801 15.7859C92.801 14.6519 93.722 13.7319 94.857 13.7319C95.993 13.7319 96.914 14.6519 96.914 15.7859C96.914 16.9199 95.993 17.8389 94.857 17.8389ZM82.338 38.2679C77.575 38.2679 75.211 35.9409 75.211 32.5789C75.211 27.9879 79.657 27.0259 84.968 26.5089L84.959 25.4029V25.2079V25.1889C84.955 22.9359 83.531 22.3239 81.494 22.3239C79.855 22.3239 77.763 23.0729 76.301 23.8599V21.7269C77.385 20.6679 79.522 19.8019 82.207 19.8019C85.629 19.8019 88.375 21.1789 88.632 25.1889V25.1989L88.635 25.2269V25.2379L88.636 25.2479L88.642 25.3929V25.4019C88.648 25.5379 88.652 25.6789 88.652 25.8219V37.2559C87.31 37.9729 83.971 38.2679 82.338 38.2679ZM84.968 28.8359C81.517 28.8359 78.936 29.5389 78.936 32.7079C78.936 33.6719 79.182 34.3999 79.644 34.9199C79.992 35.3139 80.468 35.5809 81.048 35.7519C82.049 36.0509 83.917 36.0079 84.968 35.5779V28.8359ZM67.064 35.2739C67.064 36.7189 66.562 38.0609 65.695 39.0859C65.014 39.8919 64.112 40.5049 63.086 40.8519L63.107 40.8589C65.43 42.5229 66.943 45.2409 66.943 48.3119C66.943 48.5409 66.933 48.7679 66.917 48.9919L66.909 48.9889L34.495 28.9979L66.909 9.00688L66.917 9.00488C66.933 9.22888 66.943 9.45388 66.943 9.68188C66.943 12.7539 65.43 15.4719 63.107 17.1369L63.086 17.1429C64.112 17.4899 65.014 18.1039 65.695 18.9089C66.562 19.9349 67.064 21.2759 67.064 22.7209C67.064 24.0719 66.607 25.3179 65.836 26.3139C65.102 27.2789 63.941 27.9009 62.635 27.9009C60.771 27.9009 59.205 26.6329 58.752 24.9139C58.683 24.6779 58.639 24.4329 58.631 24.1929C58.627 24.1479 58.625 24.1019 58.623 24.0569C58.622 24.0379 58.622 24.0179 58.621 23.9989V23.9819V23.9799C58.621 23.2609 59.204 22.6779 59.924 22.6779C60.519 22.6779 61.021 23.0769 61.177 23.6219L61.178 23.6239C61.207 23.7299 61.224 23.8389 61.226 23.9549C61.241 24.2009 61.226 24.4599 61.295 24.7039C61.351 24.9099 61.52 25.1659 61.721 25.2999C61.907 25.4259 62.123 25.5219 62.371 25.5219C64.193 25.5219 64.964 22.0499 62.809 20.3309C62.139 19.7979 61.238 19.3029 59.931 19.3029C57.294 19.3029 55.227 21.3829 55.227 23.9559C55.227 24.7579 55.431 25.5349 55.809 26.2089C55.956 26.4719 56.311 26.9399 56.311 26.9399C54.026 26.5979 52.162 26.3799 50.518 27.3719C49.924 27.7299 49.345 28.2319 48.799 28.9979C49.345 29.7629 49.924 30.2649 50.518 30.6229C52.162 31.6149 54.026 31.3969 56.311 31.0549C56.311 31.0549 55.956 31.5239 55.809 31.7869C55.431 32.4599 55.227 33.2369 55.227 34.0399C55.227 36.6119 57.294 38.6919 59.931 38.6919C61.238 38.6919 62.139 38.1959 62.809 37.6639C64.964 35.9449 64.193 32.4739 62.371 32.4739C62.123 32.4739 61.907 32.5699 61.721 32.6949C61.52 32.8289 61.351 33.0849 61.295 33.2909C61.226 33.5349 61.241 33.7949 61.226 34.0409C61.224 34.1559 61.207 34.2649 61.178 34.3709C61.177 34.3719 61.177 34.3719 61.177 34.3729C61.021 34.9179 60.519 35.3159 59.924 35.3159C59.204 35.3159 58.621 34.7339 58.621 34.0159V34.0119V33.9949C58.622 33.9769 58.622 33.9569 58.623 33.9369C58.625 33.8929 58.627 33.8459 58.631 33.8009C58.639 33.5629 58.683 33.3169 58.752 33.0809C59.205 31.3609 60.771 30.0939 62.635 30.0939C63.941 30.0939 65.102 30.7159 65.836 31.6819C66.607 32.6769 67.064 33.9229 67.064 35.2739ZM96.794 37.7799H92.951V19.8929H96.794V37.7799Z" fill="white"/>
</g>
<defs>
<clipPath id="clip0_1725_4885">
<rect width="171" height="40" fill="white" transform="translate(34.5 9)"/>
</clipPath>
</defs>
</svg>
