<svg width="260" height="70" viewBox="0 0 260 70" fill="none" xmlns="http://www.w3.org/2000/svg">
<path d="M149.007 24.5769L148.431 23.2391H144.231L143.656 24.5769H141.4L145.989 14.1235H146.689L151.262 24.5769H149.007ZM147.7 21.5124L146.331 18.0435L144.962 21.5124H147.7Z" fill="white"/>
<path d="M161.702 24.5769H159.167L154.764 19.2258V24.5769H152.664V14.3102H154.764V19.0702L158.684 14.3102H161.189L157.253 19.148L161.702 24.5769Z" fill="white"/>
<path d="M171.19 14.1235H171.89V24.5769H169.79V18.2146L163.77 24.7635H163.085V14.3102H165.185V20.6102L171.19 14.1235Z" fill="white"/>
<path d="M183.6 14.1235H184.284V24.5769H182.184V19.1013L179.602 22.3369H178.918L176.335 19.1013V24.5769H174.235V14.1235H174.92L179.26 19.6769L183.6 14.1235Z" fill="white"/>
<path d="M193.273 24.5769L192.698 23.2391H188.498L187.922 24.5769H185.666L190.255 14.1235H190.955L195.529 24.5769H193.273ZM191.966 21.5124L190.598 18.0435L189.229 21.5124H191.966Z" fill="white"/>
<path d="M198.079 24.5769V16.208H194.797V14.3102H203.477V16.208H200.179V24.5769H198.079Z" fill="white"/>
<path d="M142.38 40.1324V29.8658H148.976V31.7635H144.48V40.1324H142.38Z" fill="white"/>
<path d="M149.688 34.9991C149.642 32.0591 152.177 29.6169 155.133 29.6791C158.088 29.6169 160.655 32.0591 160.608 34.9991C160.655 37.9391 158.088 40.3813 155.133 40.3191C152.177 40.3813 149.642 37.9391 149.688 34.9991ZM158.446 34.9991C158.446 33.0546 157.03 31.6235 155.148 31.6235C153.25 31.6235 151.85 33.0235 151.85 34.9991C151.85 36.9746 153.25 38.3746 155.148 38.3746C157.03 38.3746 158.446 36.9746 158.446 34.9991Z" fill="white"/>
<path d="M162.387 40.1324V29.8658H166.244C168.391 29.8658 169.947 31.2035 169.947 33.1791C169.947 35.1391 168.391 36.508 166.244 36.508H164.487V40.1324H162.387ZM164.487 34.6724H166.244C167.224 34.6724 167.8 34.0658 167.8 33.1791C167.8 32.308 167.193 31.7169 166.244 31.7169H164.487V34.6724Z" fill="white"/>
<path d="M171.032 34.9991C170.985 32.0591 173.52 29.6169 176.476 29.6791C179.432 29.6169 181.998 32.0591 181.952 34.9991C181.998 37.9391 179.432 40.3813 176.476 40.3191C173.52 40.3813 170.985 37.9391 171.032 34.9991ZM179.789 34.9991C179.789 33.0546 178.374 31.6235 176.492 31.6235C174.594 31.6235 173.194 33.0235 173.194 34.9991C173.194 36.9746 174.594 38.3746 176.492 38.3746C178.374 38.3746 179.789 36.9746 179.789 34.9991Z" fill="white"/>
<path d="M191.763 38.2346H193.132V42.3258H191.032V40.1324H184.638V42.3258H182.538V38.2346H183.363C184.249 37.5035 184.623 35.4035 184.623 31.5613V29.8658H191.763V38.2346ZM185.649 38.2346H189.663V31.7635H186.598C186.552 34.9369 186.272 37.0369 185.649 38.2346Z" fill="white"/>
<path d="M201.309 40.1324L200.734 38.7946H196.534L195.958 40.1324H193.703L198.291 29.6791H198.991L203.565 40.1324H201.309ZM200.003 37.068L198.634 33.5991L197.265 37.068H200.003Z" fill="white"/>
<path d="M149.007 55.688L148.431 54.3502H144.231L143.656 55.688H141.4L145.989 45.2346H146.689L151.262 55.688H149.007ZM147.7 52.6235L146.331 49.1546L144.962 52.6235H147.7Z" fill="white"/>
<path d="M151.845 50.5546C151.799 47.6146 154.334 45.1724 157.321 45.2346C159.265 45.2346 160.93 46.1835 161.848 47.7858L160.261 48.9058C159.53 47.7546 158.55 47.1791 157.321 47.1791C155.408 47.1791 154.008 48.6102 154.008 50.5702C154.008 52.5302 155.408 53.9302 157.321 53.9302C158.55 53.9302 159.53 53.3546 160.261 52.2035L161.848 53.3235C160.961 54.9258 159.281 55.8746 157.305 55.8746C154.303 55.9369 151.783 53.4946 151.845 50.5546Z" fill="white"/>
<path d="M165.95 55.688V47.3191H162.668V45.4213H171.348V47.3191H168.05V55.688H165.95Z" fill="white"/>
<path d="M178.189 55.688L177.613 54.3502H173.413L172.837 55.688H170.582L175.171 45.2346H175.871L180.444 55.688H178.189ZM176.882 52.6235L175.513 49.1546L174.144 52.6235H176.882Z" fill="white"/>
<path d="M181.846 55.688V45.4213H183.946V49.3569H188.488V45.4213H190.588V55.688H188.488V51.2546H183.946V55.688H181.846Z" fill="white"/>
<path d="M192.936 55.688V45.4213H195.036V48.9524H196.902C199.096 48.9524 200.651 50.3524 200.651 52.3124C200.651 54.3346 199.096 55.688 196.902 55.688H192.936ZM195.036 53.8369H196.902C197.898 53.8369 198.504 53.2458 198.504 52.328C198.504 51.4102 197.898 50.788 196.902 50.788H195.036V53.8369ZM202.284 55.688V45.4213H204.384V55.688H202.284Z" fill="white"/>
<path d="M90.6155 70C109.946 70 125.616 54.33 125.616 35C125.616 15.67 109.946 0 90.6155 0C71.2856 0 55.6155 15.67 55.6155 35C55.6155 54.33 71.2856 70 90.6155 70Z" fill="#EE2E24"/>
<path d="M90.6156 69.5849C109.716 69.5849 125.2 54.1008 125.2 35.0002C125.2 15.8996 109.716 0.415527 90.6156 0.415527C71.515 0.415527 56.0309 15.8996 56.0309 35.0002C56.0309 54.1008 71.515 69.5849 90.6156 69.5849Z" fill="#FFDE00"/>
<path fill-rule="evenodd" clip-rule="evenodd" d="M98.1615 34.0174C98.5255 34.0174 98.8195 34.3114 98.8195 34.6754V35.3334C98.8195 35.6974 98.5255 35.9914 98.1615 35.9914H97.5035V34.0221H98.1615V34.0174ZM98.1615 36.6401C98.8849 36.6401 99.4729 36.0521 99.4729 35.3288V34.6708C99.4729 33.9474 98.8849 33.3594 98.1615 33.3594H96.8479V36.6424H98.1615V36.6401ZM95.5365 33.3548H96.1945V36.6378H95.5365V33.3548ZM94.2252 33.3548H94.8832V36.6378H94.2252L92.9139 34.5774V36.6378H92.2559V33.3548H92.9139L94.2252 35.4151V33.3548ZM84.3809 33.3548H86.3502V34.0128H85.0389V34.6708H86.3502V35.3288H85.0389V35.9868H86.3502V36.6448H84.3809V33.3594V33.3548ZM81.7559 33.3548H82.4139V35.9798H83.7252V36.6378H81.7559V33.3548ZM88.6462 35.9798H89.3042C89.8479 35.9798 90.2889 35.5388 90.2889 34.9951C90.2889 34.4514 89.8385 34.0128 89.3042 34.0104H88.6462V34.6684H89.3042C89.4839 34.6684 89.6332 34.8178 89.6332 34.9974C89.6332 35.1771 89.4885 35.3264 89.3042 35.3264H88.6462V35.9844V35.9798ZM89.3042 32.6968C90.5735 32.6968 91.6002 33.7258 91.6002 34.9928C91.6002 36.2598 90.5735 37.2888 89.3042 37.2888C88.0349 37.2888 87.0082 36.2598 87.0082 34.9928C87.0082 33.7258 88.0349 32.6968 89.3042 32.6968ZM89.3042 33.3548C90.2095 33.3548 90.9445 34.0898 90.9445 34.9951C90.9445 35.9004 90.2119 36.6354 89.3042 36.6354C88.3965 36.6354 87.6639 35.9004 87.6639 34.9951C87.6615 34.0898 88.3965 33.3548 89.3042 33.3548Z" fill="#A90000"/>
<path d="M90.6156 60.3772C104.631 60.3772 115.993 49.0154 115.993 34.9999C115.993 20.9844 104.631 9.62256 90.6156 9.62256C76.6 9.62256 65.2382 20.9844 65.2382 34.9999C65.2382 49.0154 76.6 60.3772 90.6156 60.3772Z" fill="#009BC9"/>
<path fill-rule="evenodd" clip-rule="evenodd" d="M75.6589 13.7036L73.9765 15.2296C82.7452 22.9763 85.9372 35.5086 86.9149 49.4596H87.3372C86.7469 42.4386 86.9755 25.5639 75.6589 13.7036ZM84.9339 24.9456C85.2745 26.0656 85.6829 27.5939 85.8229 28.7046C86.8519 30.8466 88.5389 32.8719 88.7629 45.8919H89.1852C89.0895 37.2633 88.8889 29.3976 84.9339 24.9456ZM90.3752 29.3323H90.8582V43.6333H90.3752V29.3323ZM96.3019 24.9456C95.9612 26.0656 95.5529 27.5939 95.4129 28.7046C94.3839 30.8466 92.6969 32.8719 92.4729 45.8919H92.0505C92.1462 37.2633 92.3445 29.3976 96.3019 24.9456ZM105.575 13.7036L107.257 15.2296C98.4882 22.9763 95.2962 35.5086 94.3185 49.4596H93.8962C94.4865 42.4386 94.2602 25.5639 105.575 13.7036Z" fill="#FFDE00"/>
<path fill-rule="evenodd" clip-rule="evenodd" d="M90.6155 9.29834C104.807 9.29834 116.317 20.8087 116.317 35C116.317 49.1913 104.807 60.7017 90.6155 60.7017C76.4242 60.7017 64.9139 49.1937 64.9139 35C64.9139 20.8063 76.4242 9.29834 90.6155 9.29834ZM90.6155 9.62734C104.627 9.62734 115.993 20.9883 115.993 35.0047C115.993 49.021 104.632 60.382 90.6155 60.382C76.5992 60.382 65.2405 49.014 65.2405 35.0023C65.2405 20.9907 76.6015 9.62734 90.6155 9.62734Z" fill="#EE2E24"/>
<path fill-rule="evenodd" clip-rule="evenodd" d="M90.6155 43.0176C89.6659 43.9136 89.7009 45.0102 90.1559 46.0229L90.1489 46.0299C89.7125 45.7196 89.3112 45.5936 88.9659 45.5912C88.3149 45.5889 87.7362 46.2656 87.7152 46.7812C87.6989 47.2479 87.7502 47.6819 88.1702 47.9526C88.4549 48.1346 88.8609 48.1882 89.1572 47.9619C88.7652 47.8336 88.7652 47.3832 88.8842 47.1826C89.0079 46.9726 89.2132 46.8209 89.4769 46.8302C89.9529 46.8442 90.2235 47.2432 90.2142 47.6282C90.2025 48.1882 89.4092 48.9209 88.9915 49.1519C89.2715 49.6839 89.6682 50.5332 89.8315 51.1842L89.6075 51.3336C85.2629 45.9272 80.7969 47.5279 77.2805 43.7736C77.7309 48.5056 82.1199 50.2952 84.7729 50.9066C83.5339 51.6229 83.2399 52.7826 83.2749 53.8116C83.3239 55.2746 84.5465 56.3806 86.1542 56.3456C87.8272 56.3082 89.0242 54.6866 88.1562 53.1629C87.8272 53.8046 87.4912 54.3856 86.7352 54.3436C85.9792 54.3039 85.6969 53.6342 85.6875 53.0229C85.6782 52.2809 86.2265 51.7466 86.9289 51.6229C87.4282 51.5342 87.9765 51.6579 88.4572 51.8866C89.3042 52.2949 89.9389 53.2539 89.9109 54.2572C89.8805 55.2606 89.2435 56.3992 87.8225 57.5052C88.7185 58.6112 89.6915 60.0439 90.6132 62.0692C91.5349 60.0439 92.5079 58.6112 93.4039 57.5052C91.9805 56.3992 91.3435 55.2606 91.3155 54.2572C91.2852 53.2539 91.9222 52.2949 92.7692 51.8866C93.2475 51.6556 93.7982 51.5342 94.2975 51.6229C95.0045 51.7489 95.5505 52.2856 95.5389 53.0229C95.5319 53.6342 95.2472 54.3039 94.4912 54.3436C93.7352 54.3832 93.4015 53.8046 93.0702 53.1629C92.2045 54.6866 93.4015 56.3082 95.0722 56.3456C96.6775 56.3806 97.9025 55.2746 97.9515 53.8116C97.9865 52.7849 97.6925 51.6229 96.4535 50.9066C99.1065 50.2976 103.496 48.5056 103.946 43.7736C100.43 47.5279 95.9635 45.9272 91.6189 51.3336L91.3949 51.1842C91.5582 50.5332 91.9549 49.6839 92.2349 49.1519C91.8172 48.9209 91.0239 48.1859 91.0122 47.6282C91.0029 47.2432 91.2735 46.8466 91.7495 46.8302C92.0132 46.8209 92.2185 46.9726 92.3422 47.1826C92.4635 47.3879 92.4612 47.8336 92.0692 47.9619C92.3655 48.1859 92.7739 48.1346 93.0562 47.9526C93.4762 47.6842 93.5275 47.2456 93.5112 46.7812C93.4925 46.2656 92.9139 45.5889 92.2605 45.5912C91.9152 45.5912 91.5139 45.7172 91.0775 46.0299L91.0705 46.0229C91.5255 45.0102 91.5629 43.9112 90.6109 43.0176H90.6155Z" fill="#FFDE00"/>
<path d="M91.2152 47.6138C91.2152 47.3291 91.4042 47.0351 91.7635 47.0235C91.9899 47.0165 92.1205 47.1798 92.1789 47.2778C92.2209 47.3501 92.2395 47.4855 92.1975 47.6021C92.1649 47.6861 92.1065 47.7421 92.0132 47.7725L91.6609 47.8891C91.9665 48.1248 92.2255 48.3418 92.6432 48.2998C92.8369 48.2811 93.0212 48.2111 93.1682 48.1178C93.6792 47.7888 93.7305 47.2545 93.7142 46.7738C93.6909 46.1508 93.0212 45.3901 92.2675 45.3925C91.9992 45.3925 91.7215 45.4671 91.4392 45.5978C91.5302 45.2945 91.5792 44.9981 91.5792 44.7158C91.5792 44.0158 91.2992 43.3951 90.7485 42.8725L90.6132 42.7441L90.4779 42.8725C89.9249 43.3928 89.6472 44.0158 89.6472 44.7158C89.6472 44.9981 89.6962 45.2945 89.7872 45.5978C89.5072 45.4671 89.2319 45.3948 88.9589 45.3925C88.2075 45.3901 87.5332 46.1485 87.5122 46.7738C87.4959 47.2521 87.5472 47.7888 88.0582 48.1178C88.2309 48.2298 88.4549 48.3045 88.6859 48.3068C89.0592 48.3115 89.2925 48.1015 89.5702 47.8915C89.3975 47.8355 89.1035 47.7981 89.0312 47.6021C88.9869 47.4855 89.0079 47.3501 89.0499 47.2778C89.1059 47.1798 89.2365 47.0165 89.4652 47.0235C89.8222 47.0351 90.0135 47.3291 90.0135 47.6138C90.0042 48.0781 89.2809 48.7595 88.8935 48.9765L88.7255 49.0698L88.8142 49.2401C89.0732 49.7301 89.3789 50.4021 89.5585 50.9691C87.1855 48.1295 84.8149 47.3011 82.5235 46.5101C80.6919 45.8755 78.9582 45.2758 77.4205 43.6355L77.0262 43.2155L77.0799 43.7895C77.5372 48.5868 81.9752 50.3788 84.2875 50.9878C83.4872 51.6061 83.0672 52.5161 83.0672 53.6548C83.0672 53.7061 83.0672 53.7621 83.0695 53.8135C83.1209 55.4048 84.4485 56.5738 86.1495 56.5365C87.0759 56.5178 87.9205 56.0325 88.3499 55.2741C88.7395 54.5858 88.7302 53.7785 88.3195 53.0598L88.1399 52.7448L87.9742 53.0691C87.6405 53.7178 87.3559 54.1751 86.7399 54.1425C85.9535 54.1005 85.8835 53.2675 85.8812 53.0131C85.8742 52.4088 86.3082 51.9235 86.9592 51.8091C87.3815 51.7345 87.8809 51.8208 88.3662 52.0588C89.1805 52.4508 89.7335 53.3515 89.7102 54.2475C89.6799 55.2718 88.9845 56.3451 87.6965 57.3461L87.5379 57.4698L87.6639 57.6261C88.7675 58.9888 89.6472 60.4261 90.4289 62.1481L90.6085 62.5425L90.7882 62.1481C91.5699 60.4261 92.4495 58.9888 93.5532 57.6261L93.6792 57.4698L93.5205 57.3461C92.2349 56.3428 91.5372 55.2718 91.5069 54.2475C91.4812 53.3515 92.0319 52.4531 92.8509 52.0588C93.3362 51.8231 93.8379 51.7345 94.2579 51.8091C94.9112 51.9258 95.3475 52.4088 95.3405 53.0131C95.3382 53.2675 95.2635 54.1005 94.4819 54.1425C93.8635 54.1751 93.5812 53.7178 93.2475 53.0691L93.0819 52.7448L92.9022 53.0598C92.4915 53.7785 92.4822 54.5858 92.8719 55.2741C93.3012 56.0325 94.1459 56.5155 95.0722 56.5365C96.7755 56.5738 98.1009 55.4025 98.1522 53.8135C98.1545 53.7598 98.1545 53.7061 98.1545 53.6548C98.1545 52.5161 97.7345 51.6061 96.9342 50.9878C99.2489 50.3788 103.689 48.5891 104.142 43.7895L104.196 43.2155L103.801 43.6355C102.266 45.2758 100.535 45.8755 98.6982 46.5101C96.4045 47.3035 94.0362 48.1295 91.6632 50.9691C91.8405 50.4045 92.1462 49.7301 92.4075 49.2401L92.4962 49.0698L92.3282 48.9765C91.9385 48.7595 91.2175 48.0781 91.2082 47.6138H91.2152ZM90.8209 47.6185C90.8349 48.2275 91.5232 48.9041 91.9829 49.2191C91.6352 49.9028 91.2642 50.6495 91.1732 51.4195L91.6655 51.5921L91.7775 51.4521C94.1482 48.5028 96.5305 47.6791 98.8359 46.8811C100.553 46.2885 102.177 45.7121 103.666 44.3191C102.894 48.7361 98.3832 50.2551 96.4139 50.7078L95.9239 50.8198L96.3579 51.0695C97.2889 51.6085 97.7602 52.4741 97.7602 53.6455C97.7602 53.6945 97.7602 53.7435 97.7579 53.7971C97.7135 55.1645 96.5609 56.1725 95.0815 56.1398C94.2929 56.1235 93.5765 55.7151 93.2172 55.0781C93.0585 54.7981 92.9792 54.5041 92.9792 54.2031C92.9792 54.0025 93.0259 53.8065 93.0959 53.6058C93.3759 54.0865 93.7725 54.5695 94.5029 54.5298C95.3989 54.4831 95.7255 53.6828 95.7349 53.0131C95.7442 52.2198 95.1679 51.5641 94.3302 51.4148C93.8285 51.3261 93.2429 51.4265 92.6829 51.6971C91.7519 52.1451 91.1172 53.1601 91.1172 54.1821V54.2521C91.1499 55.3558 91.8475 56.4828 93.1332 57.5258C92.1579 58.7555 91.3295 60.1018 90.6109 61.6138C89.8922 60.1018 89.0639 58.7555 88.0885 57.5258C89.3719 56.4828 90.0719 55.3558 90.1045 54.2521V54.1821C90.1045 53.1601 89.4675 52.1451 88.5389 51.6971C87.9789 51.4288 87.3932 51.3261 86.8915 51.4148C86.0539 51.5641 85.4775 52.2198 85.4869 53.0131C85.4962 53.6828 85.8229 54.4831 86.7189 54.5298C87.4492 54.5695 87.8505 54.0888 88.1259 53.6058C88.1959 53.8041 88.2425 54.0025 88.2425 54.2031C88.2425 54.5018 88.1632 54.7981 88.0045 55.0781C87.6405 55.7151 86.9289 56.1235 86.1379 56.1398C84.6562 56.1725 83.5059 55.1645 83.4615 53.7971C83.4592 53.7481 83.4592 53.6968 83.4592 53.6455C83.4592 52.4718 83.9305 51.6061 84.8615 51.0671L85.2955 50.8175L84.8055 50.7055C82.8339 50.2528 78.3259 48.7338 77.5535 44.3168C79.0422 45.7098 80.6709 46.2815 82.3835 46.8788C84.6865 47.6768 87.0712 48.5005 89.4419 51.4498L89.5539 51.5898L90.0462 51.4171C89.9552 50.6471 89.5865 49.9005 89.2365 49.2168C89.6985 48.9018 90.3869 48.2275 90.3985 47.6161C90.3985 47.1378 90.0555 46.6478 89.4699 46.6291C89.1572 46.6198 88.8749 46.7831 88.7022 47.0795C88.6369 47.1891 88.6065 47.3268 88.6065 47.4621C88.6065 47.5578 88.6205 47.6558 88.6555 47.7421C88.6812 47.8028 88.7232 47.8518 88.7629 47.9031C88.5855 47.9218 88.4012 47.8728 88.2659 47.7865C87.9392 47.5765 87.8855 47.2358 87.8995 46.7878C87.9135 46.3911 88.3919 45.7845 88.9519 45.7868C89.4629 45.7891 89.8642 46.0785 90.2609 46.3561L90.4335 46.1951C90.2259 45.7191 90.0275 45.2478 90.0275 44.7135C90.0275 44.1791 90.2259 43.7171 90.6015 43.3088C90.9772 43.7195 91.1755 44.1885 91.1755 44.7135C91.1755 45.2385 90.9725 45.7121 90.7812 46.1951L90.9352 46.3561C91.3412 46.0855 91.7402 45.7891 92.2535 45.7868C92.8135 45.7845 93.2919 46.3911 93.3059 46.7878C93.3222 47.2358 93.2662 47.5788 92.9395 47.7865C92.8065 47.8728 92.6199 47.9218 92.4425 47.9031C92.4822 47.8518 92.5242 47.8051 92.5499 47.7421C92.5825 47.6558 92.5989 47.5601 92.5989 47.4621C92.5989 47.3245 92.5662 47.1891 92.5032 47.0795C92.3305 46.7831 92.0482 46.6198 91.7355 46.6291C91.1685 46.6525 90.8232 47.1401 90.8232 47.6185H90.8209Z" fill="#009933"/>
<path fill-rule="evenodd" clip-rule="evenodd" d="M90.6155 51.8935C90.9142 50.9998 91.2432 50.0571 91.6212 49.3525C91.2712 49.1425 90.9399 48.7785 90.6155 48.3491C90.2912 48.7808 89.9622 49.1425 89.6099 49.3525C89.9902 50.0571 90.3169 51.0021 90.6155 51.8935Z" fill="#009BC9"/>
<path fill-rule="evenodd" clip-rule="evenodd" d="M90.6155 60.7319C91.1009 59.7682 91.6912 58.7112 92.4589 57.8432C91.8219 57.2995 91.1825 56.5342 90.6155 55.6172C90.0485 56.5342 89.4116 57.2995 88.7722 57.8432C89.5376 58.7135 90.1302 59.7705 90.6155 60.7319Z" fill="#009BC9"/>
<path d="M91.1289 56.7982C91.0355 56.7982 90.9352 56.8496 90.8372 56.9499C90.6179 57.1716 90.5175 57.5169 90.4382 57.7992L90.4289 57.8296C90.4125 57.8902 90.3939 57.9602 90.3775 58.0256C90.3215 58.0069 90.2585 57.9882 90.1909 57.9766C90.2469 57.8319 90.2842 57.6896 90.2772 57.5472C90.2749 57.4982 90.2352 57.4609 90.1862 57.4632C90.1372 57.4656 90.0999 57.5052 90.1022 57.5542C90.1092 57.7759 89.9879 58.0186 89.8432 58.2892C89.8199 58.3312 89.8362 58.3849 89.8782 58.4082C89.9202 58.4316 89.9739 58.4152 89.9972 58.3732C90.0392 58.2939 90.0812 58.2169 90.1162 58.1446C90.1979 58.1539 90.2679 58.1749 90.3332 58.1959C90.2165 58.6579 90.1139 59.1572 90.0485 59.5189C90.0485 59.5236 90.0462 59.5282 90.0462 59.5329C90.0462 59.5749 90.0765 59.6122 90.1185 59.6192C90.1652 59.6262 90.2119 59.5959 90.2189 59.5469C90.2842 59.1922 90.3822 58.7022 90.4965 58.2496C90.5712 58.2776 90.6412 58.3032 90.7205 58.3079C91.1055 58.3406 91.3109 57.9836 91.3692 57.6709C91.4159 57.4259 91.4299 57.0059 91.2899 56.8612C91.2525 56.8216 91.1965 56.7959 91.1312 56.7959L91.1289 56.7982ZM90.5969 57.8762L90.6062 57.8436C90.6809 57.5846 90.7742 57.2602 90.9609 57.0712C91.0472 56.9849 91.1032 56.9732 91.1289 56.9732C91.1475 56.9732 91.1615 56.9802 91.1662 56.9849C91.2199 57.0386 91.2595 57.3209 91.1989 57.6382C91.1545 57.8809 91.0052 58.1562 90.7369 58.1352C90.6785 58.1306 90.6132 58.1049 90.5432 58.0792C90.5572 58.0116 90.5759 57.9416 90.5945 57.8762H90.5969Z" fill="#FFDE00"/>
<path fill-rule="evenodd" clip-rule="evenodd" d="M90.6155 1.31152C109.219 1.31152 124.304 16.3965 124.304 35.0002C124.304 45.2692 119.705 54.4625 112.46 60.6412L108.505 55.0949C113.062 51.0349 116.231 45.4512 117.206 39.1442C117.223 39.0299 117.211 38.9855 117.337 38.9459C117.447 38.9132 117.563 38.8782 117.664 38.8339C117.706 38.8175 117.745 38.7895 117.785 38.7522C117.815 38.7219 117.827 38.6682 117.839 38.6075C117.862 38.4932 117.89 38.3415 118.084 38.2832C118.298 38.2179 118.483 38.3672 118.718 38.5562C118.851 38.6635 119.003 38.7825 119.185 38.8922C119.647 39.1605 120.067 39.2772 120.636 39.2912C121.131 39.3029 121.56 39.2305 122.06 38.8222C122.253 38.6635 122.396 38.4955 122.552 38.2949C122.687 38.1199 122.846 37.9565 123.079 37.9589C123.259 37.9612 123.401 38.0452 123.469 38.1875C123.497 38.2459 123.511 38.3135 123.511 38.3812C123.511 38.3929 123.506 38.4045 123.506 38.4162C123.583 38.3275 123.628 38.2342 123.632 38.1432V38.1292C123.632 37.9659 123.548 37.8469 123.476 37.7745C123.341 37.6369 123.135 37.5505 122.942 37.5529C122.561 37.5575 122.249 37.7465 121.917 37.9425C121.752 38.0405 121.581 38.1432 121.404 38.2225C121.01 38.3929 120.555 38.4652 119.976 38.4489C119.122 38.4255 118.578 38.0382 118.273 37.7162C117.925 37.3499 117.708 36.8692 117.717 36.4935C117.734 35.8309 117.983 35.6535 118.014 35.6372L118.032 35.6255L119.115 35.5532L119.029 35.6955C119.029 35.6955 118.872 35.9569 118.861 36.5005V36.5402C118.861 37.2192 119.327 37.4945 119.435 37.5482C119.474 37.5389 119.677 37.4875 119.848 37.4455C119.628 37.2775 119.269 36.9229 119.269 36.3955V36.3652C119.285 35.6885 119.726 35.3245 120.503 35.3479C121.035 35.3619 121.598 35.7142 121.586 36.2555C121.581 36.4562 121.516 36.6125 121.399 36.7269C121.229 36.8902 121.003 36.9019 120.914 36.8995C120.758 36.8949 120.625 36.8132 120.527 36.7292C120.543 36.8179 120.58 36.9229 120.657 37.0139C120.795 37.1772 121.026 37.2635 121.336 37.2705C121.67 37.2799 122.181 36.9649 122.195 36.4702C122.2 36.2555 122.165 36.1389 122.141 36.0525C122.104 35.9219 122.088 35.8355 122.209 35.6885C122.351 35.5159 122.564 35.5905 122.704 35.6395L122.823 35.6722C122.932 35.6745 123.245 35.3852 123.565 34.9979C123.245 34.6082 122.935 34.3212 122.823 34.3235L122.704 34.3562C122.564 34.4052 122.354 34.4775 122.209 34.3072C122.085 34.1579 122.102 34.0715 122.141 33.9432C122.167 33.8569 122.2 33.7402 122.195 33.5255C122.183 33.0309 121.67 32.7182 121.336 32.7252C121.024 32.7322 120.793 32.8185 120.657 32.9819C120.58 33.0729 120.543 33.1755 120.527 33.2665C120.625 33.1825 120.755 33.1009 120.914 33.0962C121.003 33.0939 121.229 33.1055 121.399 33.2689C121.518 33.3832 121.581 33.5395 121.586 33.7402C121.6 34.2839 121.035 34.6362 120.503 34.6479C119.724 34.6665 119.285 34.3072 119.269 33.6305V33.6002C119.269 33.0752 119.631 32.7205 119.848 32.5502C119.675 32.5059 119.472 32.4569 119.435 32.4475C119.325 32.5012 118.861 32.7742 118.861 33.4555V33.4952C118.875 34.0389 119.029 34.2979 119.029 34.3002L119.115 34.4425L118.947 34.4332L118.032 34.3749L118.014 34.3632C117.983 34.3469 117.734 34.1672 117.717 33.5069C117.708 33.1289 117.925 32.6505 118.273 32.2842C118.578 31.9599 119.122 31.5725 119.976 31.5515C120.555 31.5375 121.007 31.6075 121.404 31.7779C121.581 31.8549 121.754 31.9575 121.917 32.0579C122.251 32.2585 122.564 32.4452 122.944 32.4475C123.138 32.4499 123.341 32.3635 123.478 32.2259C123.551 32.1512 123.635 32.0322 123.635 31.8712V31.8572C123.632 31.7639 123.586 31.6705 123.509 31.5795C123.509 31.5912 123.516 31.6052 123.516 31.6145C123.516 31.6845 123.502 31.7475 123.474 31.8082C123.406 31.9505 123.264 32.0345 123.084 32.0369C122.848 32.0392 122.692 31.8759 122.557 31.7009C122.4 31.4979 122.258 31.3299 122.064 31.1735C121.567 30.7652 121.136 30.6929 120.641 30.7045C120.072 30.7185 119.649 30.8352 119.19 31.1035C119.005 31.2132 118.854 31.3322 118.723 31.4395C118.487 31.6262 118.303 31.7779 118.088 31.7125C117.895 31.6565 117.867 31.5002 117.843 31.3882C117.832 31.3275 117.82 31.2715 117.79 31.2435C117.745 31.2015 117.699 31.1735 117.654 31.1572C117.563 31.1199 117.465 31.0895 117.367 31.0615C117.218 31.0172 117.232 30.9752 117.209 30.8399C115.209 17.9575 104.065 8.09452 90.6225 8.09452C77.1802 8.09452 66.0339 17.9622 64.0365 30.8492C64.0202 30.9635 64.0342 31.0149 63.9059 31.0545C63.7985 31.0872 63.6935 31.1199 63.5955 31.1572C63.4742 31.2062 63.4299 31.2645 63.4065 31.3882C63.3832 31.5025 63.3552 31.6542 63.1615 31.7125C62.9469 31.7779 62.7625 31.6285 62.5269 31.4395C62.3939 31.3322 62.2422 31.2132 62.0602 31.1035C61.5982 30.8352 61.1782 30.7185 60.6089 30.7045C60.1142 30.6929 59.6849 30.7652 59.1855 31.1735C58.9919 31.3322 58.8495 31.5002 58.6932 31.7009C58.5579 31.8759 58.3992 32.0392 58.1659 32.0369C57.9862 32.0345 57.8439 31.9505 57.7762 31.8082C57.7482 31.7499 57.7342 31.6822 57.7342 31.6145C57.7342 31.6029 57.7389 31.5889 57.7412 31.5795C57.6642 31.6682 57.6175 31.7615 57.6152 31.8572V31.8712C57.6152 32.0345 57.6992 32.1535 57.7715 32.2259C57.9069 32.3635 58.1122 32.4499 58.3059 32.4475C58.6862 32.4429 58.9989 32.2539 59.3325 32.0579C59.4982 31.9599 59.6685 31.8572 59.8459 31.7779C60.2402 31.6075 60.6952 31.5352 61.2739 31.5515C62.1279 31.5749 62.6715 31.9622 62.9772 32.2842C63.3249 32.6505 63.5419 33.1312 63.5325 33.5069C63.5162 34.1695 63.2665 34.3469 63.2362 34.3632L63.2175 34.3749L62.3029 34.4332L62.1349 34.4425L62.2212 34.3002C62.2212 34.3002 62.3775 34.0389 62.3892 33.4952V33.4555C62.3892 32.7742 61.9225 32.5012 61.8152 32.4475C61.7755 32.4569 61.5725 32.5082 61.4022 32.5502C61.6215 32.7182 61.9809 33.0729 61.9809 33.6002V33.6305C61.9645 34.3072 61.5235 34.6712 60.7465 34.6479C60.2145 34.6339 59.6522 34.2815 59.6639 33.7402C59.6685 33.5395 59.7339 33.3832 59.8505 33.2689C60.0209 33.1055 60.2472 33.0939 60.3359 33.0962C60.4922 33.1009 60.6252 33.1825 60.7232 33.2665C60.7069 33.1779 60.6695 33.0729 60.5925 32.9819C60.4549 32.8185 60.2239 32.7322 59.9135 32.7252C59.5799 32.7159 59.0689 33.0309 59.0549 33.5255C59.0502 33.7402 59.0852 33.8569 59.1085 33.9432C59.1459 34.0739 59.1622 34.1602 59.0409 34.3072C58.8985 34.4775 58.6862 34.4052 58.5462 34.3562L58.4179 34.3282C58.3082 34.3259 57.9955 34.6129 57.6759 35.0025C57.9955 35.3922 58.3059 35.6792 58.4179 35.6769L58.5369 35.6442C58.6769 35.5952 58.8869 35.5229 59.0315 35.6932C59.1552 35.8425 59.1389 35.9289 59.0992 36.0572C59.0735 36.1435 59.0409 36.2602 59.0455 36.4749C59.0572 36.9695 59.5705 37.2822 59.9042 37.2752C60.2169 37.2682 60.4479 37.1819 60.5832 37.0185C60.6602 36.9275 60.6975 36.8249 60.7139 36.7339C60.6159 36.8179 60.4852 36.8995 60.3265 36.9042C60.2379 36.9065 60.0115 36.8949 59.8412 36.7315C59.7222 36.6172 59.6592 36.4609 59.6545 36.2602C59.6405 35.7165 60.2052 35.3642 60.7372 35.3525C61.5165 35.3339 61.9552 35.6932 61.9715 36.3699V36.4002C61.9715 36.9252 61.6099 37.2799 61.3929 37.4502C61.5655 37.4945 61.7685 37.5435 61.8059 37.5529C61.9155 37.4992 62.3799 37.2239 62.3799 36.5449V36.5052C62.3659 35.9615 62.2119 35.7025 62.2119 35.7002L62.1255 35.5579L63.2082 35.6302L63.2269 35.6419C63.2572 35.6582 63.5069 35.8379 63.5232 36.4982C63.5325 36.8762 63.3155 37.3545 62.9679 37.7209C62.6622 38.0429 62.1185 38.4325 61.2645 38.4535C60.6859 38.4675 60.2332 38.3975 59.8365 38.2272C59.6592 38.1502 59.4865 38.0475 59.3232 37.9472C58.9895 37.7465 58.6769 37.5599 58.2965 37.5575C58.1029 37.5552 57.8999 37.6415 57.7622 37.7792C57.6899 37.8539 57.6059 37.9729 57.6059 38.1339V38.1479C57.6082 38.2389 57.6549 38.3322 57.7319 38.4209C57.7319 38.4092 57.7272 38.3975 57.7272 38.3859C57.7272 38.3159 57.7412 38.2529 57.7692 38.1922C57.8369 38.0499 57.9792 37.9659 58.1589 37.9635C58.3945 37.9612 58.5509 38.1245 58.6862 38.2995C58.8425 38.5025 58.9849 38.6705 59.1785 38.8269C59.6779 39.2352 60.1072 39.3075 60.6019 39.2959C61.1712 39.2819 61.5935 39.1652 62.0532 38.8969C62.2375 38.7872 62.3892 38.6682 62.5199 38.5609C62.7555 38.3742 62.9399 38.2225 63.1545 38.2879C63.3482 38.3439 63.3762 38.5002 63.3995 38.6122C63.4182 38.7195 63.4439 38.7662 63.5372 38.8199C63.6399 38.8782 63.7752 38.9132 63.8919 38.9482C64.0155 38.9832 64.0085 39.0135 64.0249 39.1255C64.9979 45.4419 68.1665 51.0325 72.7282 55.0972L68.7732 60.6435C61.5259 54.4625 56.9269 45.2692 56.9269 35.0002C56.9269 16.3965 72.0119 1.31152 90.6155 1.31152ZM108.209 55.3585L112.159 60.8979C112.059 60.9819 111.956 61.0659 111.856 61.1499L107.908 55.6152C108.008 55.5289 108.111 55.4449 108.209 55.3585ZM107.605 55.8649L111.548 61.3949L111.238 61.6399L107.297 56.1122C107.399 56.0305 107.504 55.9489 107.605 55.8649ZM106.984 56.3549L110.925 61.8802C110.678 62.0669 110.43 62.2512 110.178 62.4285L106.24 56.9102C106.492 56.7305 106.739 56.5439 106.984 56.3572V56.3549ZM74.9915 56.9079L71.0529 62.4285C70.8009 62.2489 70.5535 62.0645 70.3062 61.8802L74.2472 56.3549C74.4922 56.5392 74.7395 56.7259 74.9915 56.9055V56.9079ZM73.9369 56.1122L69.9959 61.6399C69.8932 61.5582 69.7882 61.4789 69.6855 61.3949L73.6289 55.8649C73.7315 55.9489 73.8342 56.0305 73.9369 56.1122ZM73.3255 55.6129L69.3775 61.1475C69.2772 61.0635 69.1745 60.9795 69.0742 60.8955L73.0245 55.3562C73.1249 55.4449 73.2275 55.5289 73.3255 55.6129Z" fill="#EE2E24"/>
<path d="M90.6155 25.3729C96.4622 25.3729 101.202 20.6332 101.202 14.7865C101.202 8.93986 96.4622 4.2002 90.6155 4.2002C84.7689 4.2002 80.0292 8.93986 80.0292 14.7865C80.0292 20.6332 84.7689 25.3729 90.6155 25.3729Z" fill="#009933"/>
<path d="M90.6155 24.981C96.2457 24.981 100.81 20.4168 100.81 14.7866C100.81 9.15644 96.2457 4.59229 90.6155 4.59229C84.9854 4.59229 80.4212 9.15644 80.4212 14.7866C80.4212 20.4168 84.9854 24.981 90.6155 24.981Z" fill="#FFDE00"/>
<path d="M90.6155 23.4714C95.412 23.4714 99.3002 19.5831 99.3002 14.7867C99.3002 9.99031 95.412 6.10205 90.6155 6.10205C85.8191 6.10205 81.9309 9.99031 81.9309 14.7867C81.9309 19.5831 85.8191 23.4714 90.6155 23.4714Z" fill="#EE2E24"/>
<path d="M90.6155 23.3404C95.3398 23.3404 99.1695 19.5107 99.1695 14.7864C99.1695 10.0622 95.3398 6.23242 90.6155 6.23242C85.8913 6.23242 82.0615 10.0622 82.0615 14.7864C82.0615 19.5107 85.8913 23.3404 90.6155 23.3404Z" fill="#009933"/>
<path d="M90.6155 22.9463C95.122 22.9463 98.7752 19.2931 98.7752 14.7866C98.7752 10.2802 95.122 6.62695 90.6155 6.62695C86.1091 6.62695 82.4559 10.2802 82.4559 14.7866C82.4559 19.2931 86.1091 22.9463 90.6155 22.9463Z" fill="#EE2E24"/>
<path d="M90.6155 22.8153C95.0498 22.8153 98.6446 19.2206 98.6446 14.7863C98.6446 10.352 95.0498 6.75732 90.6155 6.75732C86.1813 6.75732 82.5865 10.352 82.5865 14.7863C82.5865 19.2206 86.1813 22.8153 90.6155 22.8153Z" fill="#FFDE00"/>
<path d="M90.6155 22.1365C94.6748 22.1365 97.9655 18.8458 97.9655 14.7865C97.9655 10.7272 94.6748 7.43652 90.6155 7.43652C86.5562 7.43652 83.2655 10.7272 83.2655 14.7865C83.2655 18.8458 86.5562 22.1365 90.6155 22.1365Z" fill="#EE2E24"/>
<path d="M90.6155 22.006C94.6027 22.006 97.8349 18.7738 97.8349 14.7867C97.8349 10.7996 94.6027 7.56738 90.6155 7.56738C86.6284 7.56738 83.3962 10.7996 83.3962 14.7867C83.3962 18.7738 86.6284 22.006 90.6155 22.006Z" fill="#009BC9"/>
<path fill-rule="evenodd" clip-rule="evenodd" d="M96.5445 10.9134L95.9985 10.3674L95.4759 10.89L95.4572 11.1724L93.1355 13.494L92.8532 13.5127L92.3305 14.0354L92.8765 14.5814L93.3992 14.0587L93.4179 13.7764L95.7395 11.4547L96.0219 11.436L96.5445 10.9134ZM95.7792 10.1667L95.2332 9.62069L94.7105 10.1434L94.6919 10.4257L92.3702 12.7474L92.0879 12.766L91.5652 13.2887L92.1112 13.8347L92.6339 13.312L92.6525 13.0297L94.9742 10.708L95.2565 10.6894L95.7792 10.1667ZM95.0209 9.40836L94.4749 8.86236L93.9522 9.38503L93.9335 9.66736L91.6119 11.989L91.3295 12.0077L90.8069 12.5304L91.3529 13.0764L91.8755 12.5537L91.8942 12.2714L94.2159 9.94969L94.4982 9.93103L95.0209 9.40836ZM86.7375 20.718L86.1915 20.172L86.7142 19.6494L86.9965 19.6307L89.3182 17.309L89.3369 17.0267L89.8595 16.504L90.4055 17.05L89.8829 17.5727L89.6005 17.5914L87.2789 19.913L87.2602 20.1954L86.7375 20.718ZM85.9885 19.9527L85.4425 19.4067L85.9652 18.884L86.2475 18.8654L88.5692 16.5437L88.5879 16.2614L89.1105 15.7387L89.6565 16.2847L89.1339 16.8074L88.8515 16.826L86.5299 19.1477L86.5112 19.43L85.9885 19.9527ZM85.2325 19.1967L84.6865 18.6507L85.2092 18.128L85.4915 18.1094L87.8132 15.7877L87.8319 15.5054L88.3545 14.9827L88.9005 15.5287L88.3779 16.0514L88.0955 16.07L85.7739 18.3917L85.7552 18.674L85.2325 19.1967ZM96.5422 18.66L95.9962 19.206L95.4735 18.6834L95.4549 18.401L93.1332 16.0794L92.8509 16.0607L92.3282 15.538L92.8742 14.992L93.3969 15.5147L93.4155 15.797L95.7372 18.1187L96.0195 18.1374L96.5422 18.66ZM95.7769 19.4067L95.2309 19.9527L94.7082 19.43L94.6895 19.1477L92.3679 16.826L92.0855 16.8074L91.5629 16.2847L92.1089 15.7387L92.6315 16.2614L92.6502 16.5437L94.9719 18.8654L95.2542 18.884L95.7769 19.4067ZM95.0185 20.165L94.4725 20.711L93.9499 20.1884L93.9312 19.906L91.6095 17.5844L91.3272 17.5657L90.8045 17.043L91.3505 16.497L91.8732 17.0197L91.8919 17.302L94.2135 19.6237L94.4959 19.6424L95.0185 20.165ZM86.7352 8.85303L86.1892 9.39903L86.7119 9.92169L86.9942 9.94036L89.3159 12.262L89.3345 12.5444L89.8572 13.067L90.4032 12.521L89.8805 11.9984L89.5982 11.9797L87.2765 9.65803L87.2579 9.37569L86.7352 8.85303ZM85.9862 9.62069L85.4402 10.1667L85.9629 10.6894L86.2452 10.708L88.5669 13.0297L88.5855 13.312L89.1082 13.8347L89.6542 13.2887L89.1315 12.766L88.8492 12.7474L86.5275 10.4257L86.5089 10.1434L85.9862 9.62069ZM85.2302 10.3767L84.6842 10.9227L85.2069 11.4454L85.4892 11.464L87.8109 13.7857L87.8295 14.068L88.3522 14.5907L88.8982 14.0447L88.3755 13.522L88.0932 13.5034L85.7715 11.1817L85.7529 10.8994L85.2302 10.3767ZM90.6062 15.755L91.1522 16.301L90.6062 16.847L90.0602 16.301L90.6062 15.755ZM89.8502 14.9967L90.3962 15.5427L89.8502 16.0887L89.3042 15.5427L89.8502 14.9967ZM89.0942 14.2407L89.6402 14.7867L89.0942 15.3327L88.5482 14.7867L89.0942 14.2407ZM89.8502 13.4824L90.3962 14.0284L89.8502 14.5744L89.3042 14.0284L89.8502 13.4824ZM90.6062 14.2407L91.1522 14.7867L90.6062 15.3327L90.0602 14.7867L90.6062 14.2407ZM91.3645 14.9967L91.9105 15.5427L91.3645 16.0887L90.8185 15.5427L91.3645 14.9967ZM92.1205 14.2407L92.6665 14.7867L92.1205 15.3327L91.5745 14.7867L92.1205 14.2407ZM91.3645 13.4824L91.9105 14.0284L91.3645 14.5744L90.8185 14.0284L91.3645 13.4824ZM90.6062 12.7264L91.1522 13.2724L90.6062 13.8184L90.0602 13.2724L90.6062 12.7264Z" fill="#FFDE00"/>
<path d="M90.6155 6.76709C90.5922 6.76709 90.5712 6.77876 90.5595 6.79976C90.5595 6.79976 90.3519 7.14276 90.2772 7.26176C90.1932 7.14742 89.9529 6.82076 89.9529 6.82076C89.9389 6.80209 89.9155 6.79042 89.8945 6.79276C89.8712 6.79509 89.8525 6.80676 89.8409 6.83009C89.8409 6.83009 89.6635 7.19642 89.6005 7.32242C89.5072 7.21509 89.2389 6.90942 89.2389 6.90942C89.2249 6.89309 89.1992 6.88376 89.1782 6.88609C89.1549 6.89076 89.1362 6.90476 89.1292 6.92809C89.1292 6.92809 88.9869 7.30842 88.9355 7.43909C88.8329 7.34109 88.5389 7.06109 88.5389 7.06109C88.5225 7.04709 88.4992 7.03776 88.4782 7.04709C88.4549 7.05176 88.4385 7.07042 88.4315 7.09142C88.4315 7.09142 88.3219 7.48109 88.2869 7.61876C88.1749 7.53009 87.8575 7.27809 87.8575 7.27809C87.8412 7.26409 87.8155 7.26176 87.7922 7.26876C87.7689 7.27576 87.7549 7.29676 87.7502 7.31776C87.7502 7.31776 87.6755 7.71676 87.6522 7.85676C87.5332 7.77742 87.1949 7.55576 87.1949 7.55576C87.1762 7.54409 87.1505 7.54176 87.1295 7.55109C87.1109 7.56042 87.0945 7.58142 87.0922 7.60242C87.0922 7.60242 87.0549 8.00842 87.0432 8.14842C86.9172 8.08076 86.5625 7.88942 86.5625 7.88942C86.5439 7.88009 86.5182 7.88009 86.4972 7.89176C86.4785 7.90342 86.4645 7.92442 86.4645 7.94776V8.49609C86.3339 8.44009 85.9605 8.28142 85.9605 8.28142C85.9372 8.27209 85.9139 8.27442 85.8952 8.28842C85.8789 8.30009 85.8672 8.32109 85.8672 8.33976V8.34442C85.8672 8.34442 85.9022 8.75042 85.9162 8.89042C85.7809 8.84609 85.3959 8.72242 85.3959 8.72242C85.3725 8.71542 85.3492 8.72009 85.3305 8.73409C85.3165 8.74576 85.3072 8.76442 85.3072 8.78309V8.79476C85.3072 8.79476 85.3795 9.19376 85.4029 9.33376C85.2652 9.30109 84.8685 9.21242 84.8685 9.21242C84.8452 9.20776 84.8242 9.21476 84.8079 9.23109C84.7962 9.24276 84.7915 9.26142 84.7915 9.27542C84.7915 9.28009 84.7915 9.28709 84.7939 9.29176C84.7939 9.29176 84.9012 9.68142 84.9385 9.81909C84.7985 9.80042 84.3949 9.74676 84.3949 9.74676C84.3715 9.74442 84.3505 9.75142 84.3365 9.77242C84.3272 9.78409 84.3225 9.80042 84.3225 9.81442C84.3225 9.82142 84.3249 9.82842 84.3272 9.83776C84.3272 9.83776 84.4672 10.2181 84.5162 10.3511C84.3762 10.3464 83.9679 10.3254 83.9679 10.3254C83.9445 10.3254 83.9235 10.3348 83.9119 10.3558C83.9049 10.3651 83.9025 10.3814 83.9025 10.3931C83.9025 10.4024 83.9049 10.4118 83.9095 10.4211C83.9095 10.4211 84.0845 10.7874 84.1475 10.9158C84.0075 10.9228 83.5992 10.9414 83.5992 10.9414C83.5759 10.9414 83.5549 10.9554 83.5455 10.9764C83.5409 10.9858 83.5385 10.9951 83.5385 11.0091C83.5385 11.0231 83.5409 11.0324 83.5479 11.0441C83.5479 11.0441 83.7555 11.3918 83.8279 11.5154C83.6879 11.5341 83.2842 11.5901 83.2842 11.5901C83.2609 11.5924 83.2422 11.6064 83.2329 11.6298C83.2305 11.6368 83.2282 11.6461 83.2282 11.6554C83.2282 11.6671 83.2329 11.6834 83.2399 11.6951C83.2399 11.6951 83.4779 12.0241 83.5619 12.1408C83.4242 12.1734 83.0275 12.2644 83.0275 12.2644C83.0042 12.2691 82.9879 12.2878 82.9809 12.3088C82.9785 12.3158 82.9785 12.3204 82.9785 12.3274C82.9785 12.3414 82.9832 12.3601 82.9949 12.3694C82.9949 12.3694 83.2609 12.6751 83.3565 12.7824C83.2212 12.8268 82.8385 12.9528 82.8385 12.9528C82.8152 12.9598 82.7989 12.9784 82.7942 12.9994C82.7942 13.0041 82.7919 13.0088 82.7919 13.0134C82.7919 13.0298 82.7989 13.0484 82.8105 13.0601C82.8105 13.0601 83.1045 13.3401 83.2049 13.4381C83.0742 13.4941 82.7009 13.6528 82.7009 13.6528C82.6775 13.6621 82.6635 13.6831 82.6612 13.7041V13.7134C82.6612 13.7321 82.6705 13.7531 82.6869 13.7648C82.6869 13.7648 83.0019 14.0191 83.1139 14.1078C82.9879 14.1754 82.6332 14.3691 82.6332 14.3691C82.6145 14.3784 82.6005 14.4018 82.5982 14.4228C82.5982 14.4484 82.6075 14.4671 82.6285 14.4788C82.6285 14.4788 82.9669 14.7028 83.0859 14.7821C82.9669 14.8614 82.6285 15.0831 82.6285 15.0831C82.6122 15.0948 82.5982 15.1158 82.5982 15.1368C82.5982 15.1624 82.6122 15.1834 82.6332 15.1928C82.6332 15.1928 82.9902 15.3864 83.1139 15.4541C83.0019 15.5428 82.6869 15.7948 82.6869 15.7948C82.6729 15.8064 82.6612 15.8274 82.6612 15.8461V15.8554C82.6635 15.8788 82.6775 15.8974 82.7009 15.9068C82.7009 15.9068 83.0742 16.0678 83.2049 16.1238C83.1045 16.2218 82.8105 16.5018 82.8105 16.5018C82.7989 16.5134 82.7919 16.5321 82.7919 16.5484C82.7919 16.5531 82.7919 16.5578 82.7942 16.5624C82.7989 16.5858 82.8175 16.6021 82.8385 16.6091C82.8385 16.6091 83.2235 16.7351 83.3589 16.7794C83.2655 16.8868 83.0019 17.1924 83.0019 17.1924C82.9925 17.2041 82.9855 17.2204 82.9855 17.2344C82.9855 17.2414 82.9855 17.2484 82.9879 17.2531C82.9949 17.2764 83.0135 17.2928 83.0345 17.2974C83.0345 17.2974 83.4289 17.3884 83.5689 17.4211C83.4849 17.5378 83.2469 17.8621 83.2469 17.8621C83.2399 17.8738 83.2352 17.8878 83.2352 17.9018C83.2352 17.9111 83.2375 17.9181 83.2399 17.9274C83.2492 17.9508 83.2702 17.9648 83.2912 17.9671C83.2912 17.9671 83.6949 18.0208 83.8349 18.0418C83.7625 18.1631 83.5549 18.5108 83.5549 18.5108C83.5479 18.5201 83.5455 18.5341 83.5455 18.5458C83.5455 18.5551 83.5479 18.5691 83.5525 18.5784C83.5619 18.5971 83.5852 18.6111 83.6062 18.6134C83.6062 18.6134 84.0122 18.6321 84.1545 18.6391C84.0939 18.7674 83.9165 19.1338 83.9165 19.1338C83.9119 19.1431 83.9095 19.1524 83.9095 19.1618C83.9095 19.1734 83.9142 19.1874 83.9189 19.1991C83.9305 19.2178 83.9539 19.2294 83.9749 19.2294C83.9749 19.2294 84.3809 19.2131 84.5209 19.2038C84.4719 19.3368 84.3319 19.7171 84.3319 19.7171C84.3295 19.7241 84.3272 19.7311 84.3272 19.7404C84.3272 19.7544 84.3319 19.7708 84.3412 19.7824C84.3552 19.7988 84.3785 19.8104 84.3995 19.8081C84.3995 19.8081 84.8032 19.7568 84.9432 19.7358C84.9059 19.8711 84.7985 20.2631 84.7985 20.2631C84.7962 20.2678 84.7962 20.2748 84.7962 20.2794C84.7962 20.2958 84.8032 20.3121 84.8125 20.3238C84.8265 20.3401 84.8522 20.3494 84.8732 20.3424C84.8732 20.3424 85.2675 20.2538 85.4075 20.2211C85.3819 20.3611 85.3119 20.7601 85.3119 20.7601V20.7718C85.3119 20.7904 85.3189 20.8091 85.3352 20.8208C85.3515 20.8348 85.3772 20.8394 85.4005 20.8324C85.4005 20.8324 85.7855 20.7088 85.9209 20.6644C85.9092 20.8044 85.8742 21.2104 85.8742 21.2104V21.2151C85.8742 21.2338 85.8835 21.2548 85.9022 21.2664C85.9209 21.2781 85.9442 21.2828 85.9675 21.2734C85.9675 21.2734 86.3409 21.1148 86.4715 21.0588V21.6071C86.4715 21.6304 86.4832 21.6514 86.5042 21.6631C86.5229 21.6748 86.5485 21.6748 86.5695 21.6654C86.5695 21.6654 86.9265 21.4718 87.0525 21.4064C87.0642 21.5464 87.1015 21.9524 87.1015 21.9524C87.1039 21.9758 87.1179 21.9944 87.1389 22.0061C87.1575 22.0154 87.1832 22.0131 87.2042 22.0014C87.2042 22.0014 87.5425 21.7798 87.6615 21.7004C87.6872 21.8404 87.7595 22.2394 87.7595 22.2394C87.7642 22.2628 87.7782 22.2814 87.8015 22.2884C87.8249 22.2954 87.8482 22.2931 87.8669 22.2791C87.8669 22.2791 88.1865 22.0271 88.2962 21.9384C88.3335 22.0738 88.4409 22.4658 88.4409 22.4658C88.4455 22.4891 88.4665 22.5054 88.4875 22.5101C88.5085 22.5148 88.5342 22.5101 88.5482 22.4961C88.5482 22.4961 88.8422 22.2161 88.9425 22.1181C88.9915 22.2511 89.1385 22.6314 89.1385 22.6314C89.1455 22.6548 89.1665 22.6688 89.1875 22.6734C89.2085 22.6781 89.2342 22.6688 89.2482 22.6501C89.2482 22.6501 89.5142 22.3468 89.6099 22.2371C89.6705 22.3654 89.8479 22.7318 89.8479 22.7318C89.8572 22.7504 89.8782 22.7668 89.9015 22.7691C89.9249 22.7714 89.9459 22.7621 89.9599 22.7411C89.9599 22.7411 90.2002 22.4121 90.2842 22.3001C90.3589 22.4214 90.5665 22.7691 90.5665 22.7691C90.5782 22.7878 90.5992 22.8018 90.6225 22.8018C90.6459 22.8018 90.6669 22.7901 90.6785 22.7691C90.6785 22.7691 90.8885 22.4214 90.9609 22.3001C91.0449 22.4144 91.2829 22.7411 91.2829 22.7411C91.2945 22.7598 91.3202 22.7714 91.3412 22.7691C91.3622 22.7668 91.3832 22.7551 91.3949 22.7318C91.3949 22.7318 91.5722 22.3654 91.6352 22.2371C91.7285 22.3444 91.9969 22.6501 91.9969 22.6501C92.0109 22.6664 92.0365 22.6758 92.0575 22.6734C92.0809 22.6688 92.0995 22.6548 92.1065 22.6314C92.1065 22.6314 92.2489 22.2511 92.3002 22.1204C92.4029 22.2184 92.6945 22.4984 92.6945 22.4984C92.7109 22.5124 92.7342 22.5218 92.7552 22.5124C92.7785 22.5078 92.7949 22.4891 92.7995 22.4681C92.7995 22.4681 92.9092 22.0784 92.9489 21.9408C93.0609 22.0294 93.3782 22.2814 93.3782 22.2814C93.3945 22.2954 93.4202 22.2978 93.4435 22.2908C93.4669 22.2838 93.4809 22.2628 93.4855 22.2418C93.4855 22.2418 93.5602 21.8451 93.5835 21.7028C93.7025 21.7821 94.0432 22.0038 94.0432 22.0038C94.0619 22.0154 94.0875 22.0178 94.1085 22.0084C94.1295 21.9991 94.1435 21.9781 94.1459 21.9571C94.1459 21.9571 94.1832 21.5511 94.1949 21.4111C94.3209 21.4788 94.6755 21.6678 94.6755 21.6678C94.6942 21.6771 94.7199 21.6771 94.7409 21.6654C94.7619 21.6538 94.7735 21.6328 94.7735 21.6094V21.0634C94.9042 21.1171 95.2799 21.2758 95.2799 21.2758C95.3032 21.2851 95.3242 21.2804 95.3452 21.2688C95.3615 21.2571 95.3732 21.2361 95.3732 21.2174V21.2128C95.3732 21.2128 95.3382 20.8068 95.3265 20.6668C95.4619 20.7111 95.8469 20.8348 95.8469 20.8348C95.8702 20.8418 95.8935 20.8371 95.9122 20.8231C95.9262 20.8114 95.9355 20.7928 95.9355 20.7741V20.7624C95.9355 20.7624 95.8655 20.3728 95.8399 20.2281C95.9845 20.2678 96.4185 20.3891 96.4185 20.3891C96.4419 20.3961 96.4675 20.3891 96.4839 20.3728C96.4955 20.3611 96.5002 20.3424 96.5002 20.3284C96.5002 20.3214 96.5002 20.3144 96.4979 20.3098C96.4979 20.3098 96.3602 19.8851 96.3135 19.7404C96.4582 19.7591 96.8525 19.8128 96.8525 19.8128C96.8759 19.8151 96.8969 19.8081 96.9109 19.7871C96.9202 19.7754 96.9249 19.7591 96.9249 19.7451C96.9249 19.7381 96.9225 19.7311 96.9202 19.7218C96.9202 19.7218 96.7802 19.3414 96.7312 19.2084C96.8735 19.2154 97.2795 19.2341 97.2795 19.2341C97.3029 19.2341 97.3239 19.2248 97.3355 19.2038C97.3425 19.1944 97.3449 19.1781 97.3449 19.1664C97.3449 19.1571 97.3425 19.1478 97.3379 19.1361C97.3379 19.1361 97.1629 18.7674 97.0999 18.6391C97.2422 18.6321 97.6482 18.6134 97.6482 18.6134C97.6715 18.6134 97.6925 18.5994 97.7019 18.5784C97.7065 18.5691 97.7089 18.5598 97.7089 18.5458C97.7089 18.5318 97.7065 18.5224 97.6995 18.5108C97.6995 18.5108 97.4919 18.1631 97.4195 18.0418C97.5595 18.0231 97.9632 17.9671 97.9632 17.9671C97.9865 17.9648 98.0052 17.9508 98.0145 17.9274C98.0169 17.9204 98.0192 17.9111 98.0192 17.9018C98.0192 17.8901 98.0145 17.8738 98.0075 17.8621C98.0075 17.8621 97.7695 17.5331 97.6855 17.4164C97.8232 17.3838 98.2199 17.2928 98.2199 17.2928C98.2432 17.2881 98.2595 17.2694 98.2665 17.2484C98.2689 17.2414 98.2689 17.2368 98.2689 17.2298C98.2689 17.2158 98.2642 17.1971 98.2549 17.1878C98.2549 17.1878 97.9889 16.8821 97.8979 16.7748C98.0332 16.7304 98.4182 16.6044 98.4182 16.6044C98.4415 16.5974 98.4579 16.5788 98.4625 16.5578C98.4625 16.5531 98.4649 16.5484 98.4649 16.5438C98.4649 16.5274 98.4579 16.5088 98.4462 16.4971C98.4462 16.4971 98.1545 16.2148 98.0519 16.1191C98.1825 16.0631 98.5559 15.9021 98.5559 15.9021C98.5792 15.8928 98.5932 15.8718 98.5955 15.8508V15.8414C98.5955 15.8228 98.5862 15.8018 98.5699 15.7901C98.5699 15.7901 98.2549 15.5358 98.1429 15.4494C98.2689 15.3818 98.6235 15.1904 98.6235 15.1904C98.6422 15.1811 98.6562 15.1578 98.6585 15.1368C98.6585 15.1111 98.6492 15.0924 98.6282 15.0808C98.6282 15.0808 98.2899 14.8568 98.1709 14.7774C98.2899 14.6981 98.6282 14.4741 98.6282 14.4741C98.6445 14.4624 98.6585 14.4414 98.6585 14.4204C98.6585 14.3948 98.6445 14.3738 98.6235 14.3644C98.6235 14.3644 98.2689 14.1708 98.1429 14.1054C98.2549 14.0168 98.5699 13.7624 98.5699 13.7624C98.5839 13.7508 98.5955 13.7298 98.5955 13.7111V13.7018C98.5932 13.6784 98.5792 13.6598 98.5559 13.6504C98.5559 13.6504 98.1849 13.4894 98.0519 13.4358C98.1545 13.3378 98.4462 13.0624 98.4462 13.0624C98.4579 13.0508 98.4649 13.0321 98.4649 13.0158C98.4649 13.0111 98.4649 13.0064 98.4625 13.0018C98.4579 12.9784 98.4392 12.9598 98.4182 12.9551C98.4182 12.9551 98.0355 12.8314 97.9002 12.7894C97.9935 12.6798 98.2619 12.3764 98.2619 12.3764C98.2712 12.3648 98.2782 12.3484 98.2782 12.3344C98.2782 12.3274 98.2782 12.3228 98.2759 12.3158C98.2689 12.2924 98.2502 12.2761 98.2292 12.2714C98.2292 12.2714 97.8349 12.1804 97.6949 12.1478C97.7789 12.0311 98.0169 11.7021 98.0169 11.7021C98.0239 11.6904 98.0285 11.6764 98.0285 11.6624C98.0285 11.6531 98.0262 11.6461 98.0239 11.6368C98.0145 11.6134 97.9935 11.5994 97.9725 11.5971C97.9725 11.5971 97.5735 11.5434 97.4312 11.5224C97.5035 11.4011 97.7135 11.0511 97.7135 11.0511C97.7182 11.0418 97.7229 11.0278 97.7229 11.0161C97.7229 11.0068 97.7205 10.9928 97.7159 10.9834C97.7065 10.9648 97.6832 10.9484 97.6622 10.9484C97.6622 10.9484 97.2562 10.9298 97.1139 10.9204C97.1745 10.7921 97.3519 10.4258 97.3519 10.4258C97.3565 10.4164 97.3589 10.4071 97.3589 10.3978C97.3589 10.3861 97.3565 10.3721 97.3495 10.3604C97.3379 10.3418 97.3145 10.3301 97.2935 10.3301C97.2935 10.3301 96.8875 10.3464 96.7452 10.3534C96.7942 10.2204 96.9389 9.84009 96.9389 9.84009C96.9412 9.83309 96.9435 9.82609 96.9435 9.81676C96.9435 9.80276 96.9389 9.78642 96.9295 9.77476C96.9155 9.75842 96.8922 9.74676 96.8712 9.74909C96.8712 9.74909 96.4675 9.80276 96.3275 9.82142C96.3649 9.68609 96.4722 9.29409 96.4722 9.29409C96.4745 9.28942 96.4745 9.28242 96.4745 9.27776C96.4745 9.26142 96.4675 9.24509 96.4582 9.23342C96.4442 9.21709 96.4185 9.20776 96.3975 9.21476C96.3975 9.21476 96.0032 9.30342 95.8632 9.33609C95.8889 9.19609 95.9589 8.79709 95.9589 8.79709V8.78542C95.9589 8.76676 95.9519 8.74809 95.9355 8.73642C95.9192 8.72242 95.8935 8.71776 95.8702 8.72476C95.8702 8.72476 95.4829 8.84842 95.3499 8.89276C95.3615 8.75276 95.3989 8.34676 95.3989 8.34676V8.34209C95.3989 8.32342 95.3895 8.30242 95.3709 8.29076C95.3522 8.27909 95.3289 8.27442 95.3055 8.28376C95.3055 8.28376 94.9322 8.44242 94.8015 8.49609V7.94776C94.8015 7.92442 94.7899 7.90342 94.7689 7.89176C94.7479 7.88009 94.7245 7.88009 94.7035 7.88942C94.7035 7.88942 94.3465 8.07842 94.2205 8.14609C94.2089 8.00609 94.1715 7.60009 94.1715 7.60009C94.1692 7.57676 94.1552 7.55809 94.1342 7.54642C94.1155 7.53709 94.0899 7.53942 94.0689 7.55109C94.0689 7.55109 93.7305 7.77276 93.6115 7.84976C93.5859 7.70976 93.5135 7.31076 93.5135 7.31076C93.5089 7.28742 93.4949 7.26876 93.4715 7.26176C93.4482 7.25476 93.4249 7.25709 93.4062 7.27109C93.4062 7.27109 93.0865 7.52309 92.9769 7.61176C92.9395 7.47642 92.8322 7.08442 92.8322 7.08442C92.8252 7.06109 92.8065 7.04476 92.7855 7.03776C92.7645 7.03076 92.7389 7.03776 92.7249 7.05176C92.7249 7.05176 92.4309 7.33176 92.3282 7.42976C92.2792 7.29676 92.1345 6.91642 92.1345 6.91642C92.1275 6.89309 92.1065 6.87909 92.0855 6.87442C92.0645 6.86976 92.0389 6.87909 92.0249 6.89776C92.0249 6.89776 91.7589 7.20109 91.6632 7.30842C91.6025 7.18009 91.4252 6.81376 91.4252 6.81376C91.4159 6.79509 91.3949 6.77876 91.3715 6.77642C91.3482 6.77409 91.3272 6.78342 91.3132 6.80442C91.3132 6.80442 91.0705 7.13576 90.9889 7.25009C90.9142 7.13109 90.6972 6.78576 90.6972 6.78576C90.6692 6.78109 90.6482 6.76942 90.6249 6.76942L90.6155 6.76709ZM90.2865 7.44609C90.3099 7.44609 90.3285 7.43442 90.3402 7.41342C90.3402 7.41342 90.5409 7.08209 90.6179 6.95609C90.6972 7.08209 90.9049 7.41109 90.9049 7.41109C90.9165 7.42742 90.9375 7.44142 90.9585 7.44142C90.9795 7.44142 91.0005 7.43209 91.0122 7.41342C91.0122 7.41342 91.2385 7.10309 91.3272 6.97942C91.3949 7.11476 91.5629 7.46242 91.5629 7.46242C91.5722 7.48109 91.5909 7.49742 91.6119 7.49976C91.6329 7.50209 91.6562 7.49509 91.6702 7.47642C91.6702 7.47642 91.9245 7.18709 92.0249 7.07276C92.0762 7.21276 92.2139 7.57676 92.2139 7.57676C92.2209 7.59542 92.2395 7.61409 92.2605 7.61876C92.2815 7.62342 92.3049 7.61876 92.3189 7.60242C92.3189 7.60242 92.5989 7.33642 92.7085 7.23142C92.7482 7.37609 92.8509 7.74942 92.8509 7.74942C92.8555 7.77276 92.8742 7.78676 92.8929 7.79376C92.9162 7.80076 92.9372 7.79609 92.9535 7.78442C92.9535 7.78442 93.2545 7.54409 93.3735 7.45076C93.4015 7.60009 93.4692 7.97809 93.4692 7.97809C93.4739 8.00142 93.4855 8.01776 93.5089 8.02709C93.5275 8.03409 93.5532 8.03409 93.5695 8.02242C93.5695 8.02242 93.8939 7.81009 94.0199 7.72842C94.0315 7.88009 94.0689 8.26509 94.0689 8.26509C94.0712 8.28842 94.0829 8.30709 94.1039 8.31642C94.1249 8.32576 94.1459 8.32576 94.1645 8.31642C94.1645 8.31642 94.5052 8.13442 94.6382 8.06442V8.60342C94.6382 8.62676 94.6475 8.64542 94.6685 8.65709C94.6849 8.66876 94.7105 8.67109 94.7292 8.66176C94.7292 8.66176 95.0839 8.51009 95.2239 8.45176C95.2122 8.60342 95.1772 8.98609 95.1772 8.98609V8.99076C95.1772 9.00942 95.1865 9.03042 95.2029 9.04209C95.2192 9.05609 95.2425 9.05842 95.2635 9.05376C95.2635 9.05376 95.6322 8.93476 95.7745 8.88809C95.7465 9.03742 95.6789 9.41542 95.6789 9.41542V9.42709C95.6789 9.44342 95.6859 9.46209 95.6975 9.47376C95.7115 9.48776 95.7372 9.49709 95.7559 9.49009C95.7559 9.49009 96.1339 9.40609 96.2785 9.37109C96.2389 9.51576 96.1362 9.88909 96.1362 9.88909C96.1339 9.89376 96.1339 9.90076 96.1339 9.90542C96.1339 9.91942 96.1385 9.93809 96.1502 9.94742C96.1642 9.96376 96.1875 9.97309 96.2085 9.97076C96.2085 9.97076 96.5912 9.91942 96.7429 9.89842C96.6915 10.0384 96.5562 10.4024 96.5562 10.4024C96.5539 10.4094 96.5515 10.4164 96.5515 10.4258C96.5515 10.4398 96.5562 10.4538 96.5632 10.4654C96.5749 10.4818 96.5982 10.4934 96.6192 10.4934C96.6192 10.4934 97.0042 10.4771 97.1559 10.4701C97.0882 10.6054 96.9249 10.9531 96.9249 10.9531C96.9202 10.9624 96.9179 10.9718 96.9179 10.9834C96.9179 10.9951 96.9202 11.0068 96.9272 11.0184C96.9389 11.0371 96.9599 11.0511 96.9809 11.0511C96.9809 11.0511 97.3659 11.0698 97.5175 11.0791C97.4405 11.2074 97.2399 11.5411 97.2399 11.5411C97.2352 11.5504 97.2305 11.5644 97.2305 11.5761C97.2305 11.5854 97.2329 11.5948 97.2375 11.6041C97.2469 11.6228 97.2679 11.6391 97.2865 11.6414C97.2865 11.6414 97.6692 11.6928 97.8185 11.7161C97.7299 11.8398 97.5035 12.1501 97.5035 12.1501C97.4965 12.1618 97.4919 12.1758 97.4919 12.1898C97.4919 12.1968 97.4942 12.2038 97.4965 12.2131C97.5035 12.2318 97.5222 12.2504 97.5432 12.2551C97.5432 12.2551 97.9189 12.3414 98.0659 12.3764C97.9679 12.4908 97.7135 12.7824 97.7135 12.7824C97.7042 12.7941 97.6972 12.8104 97.6972 12.8244C97.6972 12.8291 97.6972 12.8361 97.6995 12.8408C97.7042 12.8641 97.7229 12.8781 97.7415 12.8851C97.7415 12.8851 98.1055 13.0018 98.2502 13.0484C98.1382 13.1511 97.8652 13.4148 97.8652 13.4148C97.8535 13.4264 97.8465 13.4451 97.8465 13.4614V13.4731C97.8512 13.4964 97.8652 13.5128 97.8862 13.5221C97.8862 13.5221 98.2409 13.6761 98.3809 13.7344C98.2619 13.8278 97.9609 14.0704 97.9609 14.0704C97.9469 14.0821 97.9352 14.1031 97.9352 14.1218V14.1264C97.9375 14.1498 97.9492 14.1684 97.9702 14.1778C97.9702 14.1778 98.3085 14.3598 98.4415 14.4321C98.3155 14.5161 97.9935 14.7284 97.9935 14.7284C97.9772 14.7401 97.9632 14.7611 97.9632 14.7821C97.9632 14.8054 97.9725 14.8241 97.9935 14.8358C97.9935 14.8358 98.3155 15.0504 98.4415 15.1321C98.3085 15.2044 97.9679 15.3864 97.9679 15.3864C97.9492 15.3958 97.9352 15.4168 97.9329 15.4378V15.4424C97.9329 15.4611 97.9422 15.4821 97.9585 15.4938C97.9585 15.4938 98.2595 15.7364 98.3785 15.8298C98.2409 15.8881 97.8839 16.0421 97.8839 16.0421C97.8652 16.0514 97.8489 16.0701 97.8442 16.0911V16.1028C97.8442 16.1191 97.8512 16.1378 97.8629 16.1494C97.8629 16.1494 98.1429 16.4154 98.2502 16.5228C98.1079 16.5694 97.7392 16.6908 97.7392 16.6908C97.7205 16.6978 97.7019 16.7164 97.6972 16.7351C97.6949 16.7398 97.6949 16.7468 97.6949 16.7514C97.6949 16.7654 97.6995 16.7841 97.7089 16.7934C97.7089 16.7934 97.9632 17.0851 98.0612 17.1994C97.9119 17.2344 97.5385 17.3208 97.5385 17.3208C97.5152 17.3254 97.4989 17.3394 97.4919 17.3628C97.4895 17.3698 97.4872 17.3768 97.4872 17.3861C97.4872 17.4001 97.4919 17.4141 97.4989 17.4258C97.4989 17.4258 97.7252 17.7384 97.8139 17.8598C97.6645 17.8784 97.2819 17.9344 97.2819 17.9344C97.2585 17.9368 97.2422 17.9508 97.2329 17.9718C97.2282 17.9811 97.2259 17.9904 97.2259 18.0021C97.2259 18.0138 97.2282 18.0254 97.2352 18.0371C97.2352 18.0371 97.4335 18.3684 97.5082 18.4991C97.3565 18.5061 96.9715 18.5248 96.9715 18.5248C96.9482 18.5248 96.9295 18.5364 96.9179 18.5574C96.9132 18.5668 96.9085 18.5808 96.9085 18.5924C96.9085 18.6018 96.9109 18.6111 96.9155 18.6228C96.9155 18.6228 97.0835 18.9704 97.1465 19.1081C96.9949 19.1011 96.6075 19.0824 96.6075 19.0824C96.5842 19.0824 96.5655 19.0918 96.5515 19.1104C96.5445 19.1221 96.5399 19.1361 96.5399 19.1501C96.5399 19.1571 96.5422 19.1641 96.5445 19.1734C96.5445 19.1734 96.6799 19.5351 96.7312 19.6774C96.5795 19.6588 96.1969 19.6051 96.1969 19.6051C96.1735 19.6028 96.1525 19.6098 96.1385 19.6284C96.1292 19.6401 96.1245 19.6564 96.1245 19.6704C96.1245 19.6774 96.1245 19.6844 96.1269 19.6891C96.1269 19.6891 96.2552 20.0834 96.3065 20.2421C96.1455 20.1978 95.7465 20.0858 95.7465 20.0858C95.7232 20.0811 95.7022 20.0858 95.6859 20.0998C95.6719 20.1114 95.6625 20.1301 95.6625 20.1488V20.1604C95.6625 20.1604 95.7325 20.5408 95.7582 20.6878C95.6159 20.6411 95.2472 20.5221 95.2472 20.5221C95.2285 20.5151 95.2029 20.5198 95.1865 20.5338C95.1725 20.5454 95.1609 20.5664 95.1609 20.5851V20.5898C95.1609 20.5898 95.1959 20.9748 95.2075 21.1264C95.0699 21.0681 94.7105 20.9164 94.7105 20.9164C94.6919 20.9094 94.6662 20.9094 94.6499 20.9211C94.6335 20.9328 94.6195 20.9538 94.6195 20.9748V21.5114C94.4865 21.4391 94.1482 21.2594 94.1482 21.2594C94.1295 21.2501 94.1062 21.2501 94.0875 21.2594C94.0689 21.2688 94.0549 21.2898 94.0525 21.3108C94.0525 21.3108 94.0175 21.6958 94.0035 21.8474C93.8775 21.7634 93.5509 21.5511 93.5509 21.5511C93.5345 21.5394 93.5089 21.5371 93.4902 21.5464C93.4715 21.5558 93.4552 21.5744 93.4505 21.5954C93.4505 21.5954 93.3805 21.9758 93.3549 22.1228C93.2359 22.0294 92.9325 21.7891 92.9325 21.7891C92.9162 21.7774 92.8929 21.7728 92.8719 21.7798C92.8532 21.7868 92.8345 21.8054 92.8299 21.8241C92.8299 21.8241 92.7272 22.1974 92.6875 22.3398C92.5779 22.2371 92.3002 21.9688 92.3002 21.9688C92.2862 21.9548 92.2605 21.9454 92.2419 21.9524C92.2185 21.9571 92.2022 21.9711 92.1952 21.9944C92.1952 21.9944 92.0599 22.3561 92.0062 22.4984C91.9082 22.3841 91.6539 22.0948 91.6539 22.0948C91.6399 22.0784 91.6165 22.0691 91.5955 22.0714C91.5722 22.0738 91.5559 22.0878 91.5465 22.1088C91.5465 22.1088 91.3785 22.4564 91.3109 22.5918C91.2222 22.4704 90.9959 22.1601 90.9959 22.1601C90.9842 22.1438 90.9609 22.1321 90.9399 22.1321C90.9189 22.1321 90.8979 22.1438 90.8862 22.1648C90.8862 22.1648 90.6855 22.4961 90.6085 22.6268C90.5315 22.4984 90.3309 22.1648 90.3309 22.1648C90.3192 22.1461 90.2982 22.1344 90.2772 22.1321C90.2539 22.1321 90.2352 22.1414 90.2212 22.1601C90.2212 22.1601 89.9949 22.4704 89.9062 22.5941C89.8385 22.4588 89.6705 22.1111 89.6705 22.1111C89.6612 22.0924 89.6402 22.0761 89.6215 22.0738C89.5982 22.0714 89.5772 22.0784 89.5632 22.0971C89.5632 22.0971 89.3089 22.3888 89.2109 22.5031C89.1572 22.3631 89.0219 21.9991 89.0219 21.9991C89.0149 21.9804 88.9962 21.9618 88.9752 21.9594C88.9519 21.9548 88.9309 21.9618 88.9169 21.9758C88.9169 21.9758 88.6369 22.2418 88.5295 22.3468C88.4899 22.2021 88.3872 21.8288 88.3872 21.8288C88.3825 21.8054 88.3639 21.7914 88.3452 21.7844C88.3265 21.7774 88.3009 21.7821 88.2845 21.7938C88.2845 21.7938 87.9812 22.0341 87.8645 22.1274C87.8365 21.9781 87.7689 21.6001 87.7689 21.6001C87.7642 21.5768 87.7502 21.5604 87.7292 21.5511C87.7105 21.5418 87.6849 21.5441 87.6685 21.5558C87.6685 21.5558 87.3442 21.7681 87.2182 21.8521C87.2042 21.7004 87.1692 21.3178 87.1692 21.3178C87.1669 21.2944 87.1552 21.2758 87.1342 21.2664C87.1132 21.2571 87.0922 21.2571 87.0735 21.2664C87.0735 21.2664 86.7329 21.4484 86.5999 21.5208V20.9818C86.5999 20.9584 86.5882 20.9398 86.5695 20.9281C86.5509 20.9164 86.5275 20.9141 86.5089 20.9234C86.5089 20.9234 86.1542 21.0751 86.0142 21.1334C86.0259 20.9818 86.0609 20.5968 86.0609 20.5968V20.5921C86.0609 20.5734 86.0515 20.5524 86.0352 20.5408C86.0189 20.5268 85.9955 20.5244 85.9745 20.5291C85.9745 20.5291 85.6059 20.6481 85.4635 20.6948C85.4915 20.5454 85.5592 20.1674 85.5592 20.1674V20.1558C85.5592 20.1394 85.5522 20.1208 85.5405 20.1091C85.5265 20.0951 85.5009 20.0858 85.4822 20.0928C85.4822 20.0928 85.1065 20.1768 84.9595 20.2118C84.9992 20.0671 85.1019 19.6938 85.1019 19.6938C85.1042 19.6891 85.1042 19.6821 85.1042 19.6774C85.1042 19.6634 85.0995 19.6448 85.0879 19.6354C85.0739 19.6191 85.0505 19.6098 85.0295 19.6121C85.0295 19.6121 84.6469 19.6611 84.4952 19.6821C84.5465 19.5421 84.6819 19.1781 84.6819 19.1781C84.6842 19.1711 84.6865 19.1641 84.6865 19.1548C84.6865 19.1408 84.6819 19.1268 84.6749 19.1151C84.6632 19.0988 84.6399 19.0871 84.6189 19.0871C84.6189 19.0871 84.2339 19.1034 84.0822 19.1104C84.1475 18.9751 84.3132 18.6274 84.3132 18.6274C84.3179 18.6181 84.3202 18.6088 84.3202 18.5994C84.3202 18.5878 84.3179 18.5761 84.3109 18.5644C84.2992 18.5458 84.2782 18.5318 84.2572 18.5318C84.2572 18.5318 83.8722 18.5154 83.7205 18.5061C83.7975 18.3778 83.9935 18.0441 83.9935 18.0441C84.0005 18.0348 84.0029 18.0208 84.0029 18.0091C84.0029 17.9998 84.0005 17.9904 83.9959 17.9788C83.9865 17.9601 83.9655 17.9438 83.9469 17.9414C83.9469 17.9414 83.5642 17.8901 83.4125 17.8668C83.5012 17.7454 83.7252 17.4328 83.7252 17.4328C83.7322 17.4211 83.7369 17.4071 83.7369 17.3931C83.7369 17.3861 83.7345 17.3791 83.7322 17.3698C83.7252 17.3511 83.7065 17.3324 83.6855 17.3278C83.6855 17.3278 83.3075 17.2414 83.1629 17.2064C83.2609 17.0921 83.5152 16.8004 83.5152 16.8004C83.5245 16.7888 83.5315 16.7724 83.5315 16.7584C83.5315 16.7538 83.5315 16.7468 83.5292 16.7421C83.5245 16.7188 83.5059 16.7048 83.4872 16.6978C83.4872 16.6978 83.1185 16.5764 82.9762 16.5298C83.0859 16.4271 83.3635 16.1588 83.3635 16.1588C83.3752 16.1471 83.3822 16.1284 83.3822 16.1121V16.1004C83.3775 16.0771 83.3659 16.0608 83.3425 16.0514C83.3425 16.0514 82.9879 15.8974 82.8479 15.8391C82.9669 15.7458 83.2679 15.5031 83.2679 15.5031C83.2819 15.4914 83.2935 15.4704 83.2935 15.4518V15.4471C83.2912 15.4238 83.2795 15.4051 83.2585 15.3958C83.2585 15.3958 82.9179 15.2114 82.7872 15.1391C82.9132 15.0551 83.2352 14.8428 83.2352 14.8428C83.2515 14.8311 83.2655 14.8101 83.2655 14.7891C83.2655 14.7658 83.2562 14.7471 83.2352 14.7354C83.2352 14.7354 82.9132 14.5208 82.7872 14.4391C82.9202 14.3668 83.2609 14.1824 83.2609 14.1824C83.2795 14.1731 83.2935 14.1521 83.2959 14.1311V14.1264C83.2959 14.1078 83.2865 14.0868 83.2702 14.0751C83.2702 14.0751 82.9692 13.8324 82.8502 13.7391C82.9879 13.6808 83.3449 13.5268 83.3449 13.5268C83.3635 13.5174 83.3799 13.4988 83.3845 13.4778V13.4661C83.3845 13.4498 83.3775 13.4311 83.3659 13.4194C83.3659 13.4194 83.0859 13.1534 82.9785 13.0484C83.1209 13.0018 83.4872 12.8828 83.4872 12.8828C83.5059 12.8758 83.5245 12.8571 83.5292 12.8384C83.5315 12.8338 83.5315 12.8268 83.5315 12.8221C83.5315 12.8081 83.5269 12.7894 83.5152 12.7801C83.5152 12.7801 83.2609 12.4884 83.1629 12.3741C83.3122 12.3391 83.6855 12.2528 83.6855 12.2528C83.7089 12.2481 83.7252 12.2341 83.7322 12.2108C83.7345 12.2038 83.7369 12.1968 83.7369 12.1874C83.7369 12.1734 83.7322 12.1594 83.7252 12.1478C83.7252 12.1478 83.4989 11.8351 83.4102 11.7138C83.5619 11.6951 83.9445 11.6391 83.9445 11.6391C83.9679 11.6368 83.9842 11.6228 83.9935 11.6018C83.9982 11.5924 84.0005 11.5831 84.0005 11.5714C84.0005 11.5598 83.9982 11.5481 83.9912 11.5364C83.9912 11.5364 83.7929 11.2051 83.7182 11.0744C83.8699 11.0674 84.2549 11.0488 84.2549 11.0488C84.2782 11.0488 84.2969 11.0371 84.3085 11.0161C84.3132 11.0068 84.3179 10.9928 84.3179 10.9811C84.3179 10.9718 84.3155 10.9624 84.3109 10.9531C84.3109 10.9531 84.1429 10.6054 84.0799 10.4701C84.2315 10.4771 84.6165 10.4934 84.6165 10.4934C84.6399 10.4934 84.6585 10.4841 84.6725 10.4654C84.6795 10.4538 84.6842 10.4398 84.6842 10.4258C84.6842 10.4188 84.6819 10.4118 84.6795 10.4024C84.6795 10.4024 84.5442 10.0408 84.4929 9.89842C84.6445 9.91709 85.0272 9.97076 85.0272 9.97076C85.0505 9.97309 85.0715 9.96609 85.0855 9.94742C85.0949 9.93576 85.1019 9.91942 85.1019 9.90542C85.1019 9.90076 85.1019 9.89376 85.0995 9.88909C85.0995 9.88909 84.9992 9.51576 84.9595 9.37109C85.1089 9.40609 85.4822 9.49009 85.4822 9.49009C85.5055 9.49476 85.5265 9.49009 85.5405 9.47376C85.5522 9.46209 85.5592 9.44342 85.5592 9.42709V9.41542C85.5592 9.41542 85.4892 9.03509 85.4659 8.88809C85.6082 8.93476 85.9769 9.05376 85.9769 9.05376C85.9955 9.06076 86.0212 9.05609 86.0375 9.04209C86.0515 9.03042 86.0632 9.00942 86.0632 8.99076V8.98609C86.0632 8.98609 86.0282 8.60109 86.0165 8.44942C86.1542 8.50776 86.5112 8.65942 86.5112 8.65942C86.5299 8.66642 86.5555 8.66642 86.5719 8.65476C86.5882 8.64309 86.6022 8.62209 86.6022 8.60109V8.06209C86.7352 8.13442 87.0759 8.31642 87.0759 8.31642C87.0945 8.32576 87.1179 8.32576 87.1365 8.31642C87.1552 8.30709 87.1692 8.28609 87.1715 8.26509C87.1715 8.26509 87.2065 7.88009 87.2205 7.72842C87.3465 7.81242 87.6709 8.02242 87.6709 8.02242C87.6872 8.03409 87.7129 8.03642 87.7315 8.02709C87.7502 8.02009 87.7665 7.99909 87.7712 7.97809C87.7712 7.97809 87.8412 7.59776 87.8669 7.45076C87.9859 7.54409 88.2869 7.78442 88.2869 7.78442C88.3032 7.79842 88.3265 7.80076 88.3475 7.79376C88.3662 7.78676 88.3849 7.76809 88.3895 7.74942C88.3895 7.74942 88.4922 7.37609 88.5319 7.23142C88.6415 7.33409 88.9215 7.60242 88.9215 7.60242C88.9355 7.61642 88.9612 7.62576 88.9799 7.61876C89.0032 7.61409 89.0195 7.60009 89.0265 7.57909C89.0265 7.57909 89.1619 7.21742 89.2155 7.07742C89.3135 7.19176 89.5679 7.48342 89.5679 7.48342C89.5819 7.49976 89.6052 7.50909 89.6262 7.50676C89.6495 7.50442 89.6659 7.49042 89.6752 7.46942C89.6752 7.46942 89.8432 7.12176 89.9109 6.98642C89.9995 7.10776 90.2259 7.42042 90.2259 7.42042C90.2375 7.43442 90.2609 7.44609 90.2819 7.44609H90.2865Z" fill="#EE2E24"/>
<path d="M95.9519 10.3206L95.4292 10.8433C95.4176 10.8549 95.4129 10.8713 95.4106 10.8853C95.4106 10.8853 95.3965 11.1023 95.3942 11.1419C95.3592 11.1769 93.1425 13.3936 93.1075 13.4286C93.0679 13.4309 92.8509 13.4449 92.8509 13.4449C92.8369 13.4449 92.8205 13.4519 92.8089 13.4636L92.2862 13.9863C92.2746 13.9979 92.2676 14.0166 92.2676 14.0329C92.2676 14.0493 92.2746 14.0679 92.2862 14.0796L92.8322 14.6256C92.8439 14.6373 92.8625 14.6443 92.8789 14.6443C92.8952 14.6443 92.9139 14.6373 92.9255 14.6256L93.4482 14.1029C93.4599 14.0913 93.4646 14.0749 93.4669 14.0609C93.4669 14.0609 93.4809 13.8439 93.4832 13.8043C93.5182 13.7693 95.7349 11.5526 95.7699 11.5176C95.8119 11.5153 96.0266 11.5013 96.0266 11.5013C96.0406 11.5013 96.0569 11.4943 96.0685 11.4826L96.5912 10.9599C96.6029 10.9483 96.6099 10.9296 96.6099 10.9133C96.6099 10.8969 96.6029 10.8783 96.5912 10.8666L96.0452 10.3206C96.0172 10.2949 95.9752 10.2949 95.9519 10.3206ZM95.9986 10.4606C96.0709 10.5329 96.3812 10.8433 96.4536 10.9156C96.3789 10.9903 96.0242 11.3449 95.9939 11.3753C95.9519 11.3776 95.7372 11.3916 95.7372 11.3916C95.7232 11.3916 95.7069 11.3986 95.6952 11.4103L93.3736 13.7319C93.3619 13.7436 93.3572 13.7599 93.3549 13.7739C93.3549 13.7739 93.3409 13.9909 93.3385 14.0306C93.3082 14.0609 92.9535 14.4156 92.8789 14.4903C92.8065 14.4179 92.4962 14.1076 92.4262 14.0353C92.5009 13.9606 92.8555 13.6059 92.8859 13.5756C92.9279 13.5733 93.1426 13.5593 93.1426 13.5593C93.1566 13.5593 93.1729 13.5523 93.1845 13.5406L95.5062 11.2189C95.5179 11.2073 95.5225 11.1909 95.5249 11.1769C95.5249 11.1769 95.5389 10.9599 95.5412 10.9203C95.5669 10.8899 95.9239 10.5353 95.9986 10.4606ZM95.1865 9.57393L94.6639 10.0966C94.6522 10.1083 94.6476 10.1246 94.6452 10.1386C94.6452 10.1386 94.6312 10.3556 94.6289 10.3953C94.5939 10.4303 92.3772 12.6469 92.3422 12.6819C92.3002 12.6843 92.0856 12.6983 92.0856 12.6983C92.0716 12.6983 92.0552 12.7053 92.0435 12.7169L91.5209 13.2396C91.5092 13.2513 91.5022 13.2699 91.5022 13.2863C91.5022 13.3026 91.5092 13.3213 91.5209 13.3329L92.0669 13.8789C92.0926 13.9046 92.1345 13.9046 92.1602 13.8789L92.6829 13.3563C92.6945 13.3446 92.6992 13.3283 92.7016 13.3143C92.7016 13.3143 92.7155 13.0973 92.7179 13.0576C92.7529 13.0226 94.9695 10.8059 95.0045 10.7709C95.0442 10.7686 95.2612 10.7546 95.2612 10.7546C95.2752 10.7546 95.2915 10.7476 95.3032 10.7359L95.8259 10.2133C95.8376 10.2016 95.8446 10.1829 95.8446 10.1666C95.8446 10.1503 95.8376 10.1316 95.8259 10.1199L95.2799 9.57393C95.2519 9.54593 95.2099 9.54593 95.1865 9.57393ZM95.2332 9.7116C95.3055 9.78393 95.6159 10.0943 95.6882 10.1666C95.6136 10.2413 95.2589 10.5959 95.2286 10.6263C95.1889 10.6286 94.9719 10.6426 94.9719 10.6426C94.9579 10.6426 94.9416 10.6496 94.9299 10.6613L92.6082 12.9829C92.5965 12.9946 92.5919 13.0109 92.5896 13.0249C92.5896 13.0249 92.5755 13.2419 92.5732 13.2816C92.5429 13.3119 92.1882 13.6666 92.1135 13.7413C92.0412 13.6689 91.7309 13.3586 91.6586 13.2863C91.7332 13.2116 92.0879 12.8569 92.1182 12.8266C92.1602 12.8243 92.3749 12.8103 92.3749 12.8103C92.3889 12.8103 92.4052 12.8033 92.4169 12.7916L94.7385 10.4699C94.7502 10.4583 94.7549 10.4419 94.7572 10.4279C94.7572 10.4279 94.7712 10.2109 94.7736 10.1713C94.8016 10.1433 95.1562 9.78626 95.2332 9.7116ZM94.4749 8.79693C94.4585 8.79693 94.4399 8.80393 94.4282 8.8156L93.9056 9.33826C93.8939 9.34993 93.8892 9.36626 93.8869 9.38026C93.8869 9.38026 93.8729 9.59726 93.8705 9.63693C93.8355 9.67193 91.6189 11.8886 91.5839 11.9236C91.5419 11.9259 91.3272 11.9399 91.3272 11.9399C91.3132 11.9399 91.2969 11.9469 91.2852 11.9586L90.7626 12.4813C90.7509 12.4929 90.7439 12.5116 90.7439 12.5279C90.7439 12.5443 90.7509 12.5629 90.7626 12.5746L91.3086 13.1206C91.3342 13.1463 91.3762 13.1463 91.4019 13.1206L91.9245 12.5979C91.9362 12.5863 91.9409 12.5699 91.9432 12.5559C91.9432 12.5559 91.9572 12.3389 91.9595 12.2993C91.9945 12.2643 94.2112 10.0476 94.2462 10.0126C94.2882 10.0103 94.5029 9.99626 94.5029 9.99626C94.5169 9.99626 94.5332 9.98926 94.5449 9.9776L95.0676 9.45493C95.0792 9.44326 95.0862 9.4246 95.0862 9.40826C95.0862 9.39193 95.0792 9.37326 95.0676 9.3616L94.5216 8.8156C94.5099 8.8016 94.4912 8.79693 94.4749 8.79693ZM94.4749 8.9556C94.5472 9.02793 94.8576 9.33826 94.9299 9.4106C94.8552 9.48526 94.5006 9.83993 94.4702 9.87026C94.4282 9.8726 94.2135 9.8866 94.2135 9.8866C94.1995 9.8866 94.1832 9.8936 94.1716 9.90526L91.8499 12.2269C91.8382 12.2386 91.8336 12.2549 91.8312 12.2689C91.8312 12.2689 91.8172 12.4859 91.8149 12.5256C91.7845 12.5559 91.4299 12.9106 91.3552 12.9853C91.2829 12.9129 90.9726 12.6026 90.9002 12.5303C90.9749 12.4556 91.3296 12.1009 91.3599 12.0706C91.3996 12.0683 91.6165 12.0543 91.6165 12.0543C91.6305 12.0543 91.6469 12.0473 91.6586 12.0356L93.9802 9.71393C93.9919 9.70226 93.9965 9.68593 93.9989 9.67193C93.9989 9.67193 94.0129 9.45493 94.0152 9.41526C94.0456 9.38493 94.4002 9.03026 94.4749 8.9556ZM89.8619 16.4386C89.8456 16.4386 89.8269 16.4456 89.8152 16.4573L89.2926 16.9799C89.2809 16.9916 89.2762 17.0079 89.2739 17.0219C89.2739 17.0219 89.2599 17.2389 89.2575 17.2786L86.9709 19.5653C86.9289 19.5676 86.7142 19.5816 86.7142 19.5816C86.7002 19.5816 86.6839 19.5886 86.6722 19.6003L86.1495 20.1229C86.1379 20.1346 86.1309 20.1533 86.1309 20.1696C86.1309 20.1859 86.1379 20.2046 86.1495 20.2163L86.6955 20.7623C86.7072 20.7739 86.7259 20.7809 86.7422 20.7809C86.7585 20.7809 86.7772 20.7739 86.7889 20.7623L87.3115 20.2396C87.3232 20.2279 87.3279 20.2116 87.3302 20.1976C87.3302 20.1976 87.3442 19.9806 87.3466 19.9409C87.3816 19.9059 89.5982 17.6893 89.6332 17.6543C89.6729 17.6519 89.8899 17.6379 89.8899 17.6379C89.9039 17.6379 89.9202 17.6309 89.9319 17.6193L90.4545 17.0966C90.4662 17.0849 90.4732 17.0663 90.4732 17.0499C90.4732 17.0336 90.4662 17.0149 90.4545 17.0033L89.9086 16.4573C89.8946 16.4433 89.8782 16.4386 89.8619 16.4386ZM89.8619 16.5973C89.9342 16.6696 90.2446 16.9799 90.3169 17.0523C90.2422 17.1269 89.8875 17.4816 89.8572 17.5119C89.8175 17.5143 89.6005 17.5283 89.6005 17.5283C89.5865 17.5283 89.5702 17.5353 89.5586 17.5469L87.2369 19.8686C87.2252 19.8803 87.2206 19.8966 87.2182 19.9106C87.2182 19.9106 87.2042 20.1276 87.2019 20.1673L86.7422 20.6269C86.6699 20.5546 86.3595 20.2443 86.2872 20.1743L86.7469 19.7146C86.7865 19.7123 87.0036 19.6983 87.0036 19.6983C87.0176 19.6983 87.0339 19.6913 87.0455 19.6796L89.3672 17.3579C89.3789 17.3463 89.3835 17.3299 89.3859 17.3159C89.3859 17.3159 89.3999 17.0989 89.4022 17.0593C89.4302 17.0266 89.7872 16.6719 89.8619 16.5973ZM89.0662 15.6919L88.5435 16.2146C88.5319 16.2263 88.5272 16.2426 88.5249 16.2566C88.5249 16.2566 88.5109 16.4736 88.5086 16.5133L86.2219 18.7999C86.1799 18.8023 85.9652 18.8163 85.9652 18.8163C85.9512 18.8163 85.9349 18.8233 85.9232 18.8349L85.4006 19.3576C85.3889 19.3693 85.3819 19.3879 85.3819 19.4043C85.3819 19.4206 85.3889 19.4393 85.4006 19.4509L85.9466 19.9969C85.9582 20.0086 85.9769 20.0156 85.9932 20.0156C86.0096 20.0156 86.0282 20.0086 86.0399 19.9969L86.5626 19.4743C86.5742 19.4626 86.5789 19.4463 86.5812 19.4323C86.5812 19.4323 86.5952 19.2153 86.5975 19.1756C86.6325 19.1406 88.8492 16.9239 88.8842 16.8889C88.9262 16.8866 89.1409 16.8726 89.1409 16.8726C89.1549 16.8726 89.1712 16.8656 89.1829 16.8539L89.7056 16.3313C89.7172 16.3196 89.7242 16.3009 89.7242 16.2846C89.7242 16.2683 89.7172 16.2496 89.7056 16.2379L89.1595 15.6919C89.1339 15.6663 89.0919 15.6663 89.0662 15.6919ZM89.1129 15.8319C89.1852 15.9043 89.4955 16.2146 89.5655 16.2869C89.4909 16.3616 89.1362 16.7163 89.1059 16.7466C89.0662 16.7489 88.8492 16.7629 88.8492 16.7629C88.8352 16.7629 88.8189 16.7699 88.8072 16.7816L86.4856 19.1033C86.4739 19.1149 86.4692 19.1313 86.4669 19.1453C86.4669 19.1453 86.4529 19.3623 86.4505 19.4019L85.9909 19.8616L85.5359 19.4066L85.9955 18.9469C86.0352 18.9446 86.2522 18.9306 86.2522 18.9306C86.2662 18.9306 86.2825 18.9236 86.2942 18.9119L88.6159 16.5903C88.6275 16.5786 88.6322 16.5623 88.6345 16.5483C88.6345 16.5483 88.6486 16.3313 88.6509 16.2916C88.6836 16.2613 89.0382 15.9066 89.1129 15.8319ZM88.3569 14.9149C88.3406 14.9149 88.3219 14.9219 88.3102 14.9336L87.7876 15.4563C87.7759 15.4679 87.7712 15.4843 87.7689 15.4983C87.7689 15.4983 87.7549 15.7153 87.7525 15.7549C87.7175 15.7899 85.5009 18.0066 85.4659 18.0416C85.4262 18.0439 85.2092 18.0579 85.2092 18.0579C85.1952 18.0579 85.1789 18.0649 85.1672 18.0766L84.6446 18.5993C84.6329 18.6109 84.6259 18.6296 84.6259 18.6459C84.6259 18.6623 84.6329 18.6809 84.6446 18.6926L85.1905 19.2386C85.2022 19.2503 85.2209 19.2573 85.2372 19.2573C85.2535 19.2573 85.2722 19.2503 85.2839 19.2386L85.8065 18.7159C85.8182 18.7043 85.8229 18.6879 85.8252 18.6739C85.8252 18.6739 85.8392 18.4569 85.8415 18.4173C85.8765 18.3823 88.0932 16.1656 88.1282 16.1306C88.1679 16.1283 88.3849 16.1143 88.3849 16.1143C88.3989 16.1143 88.4152 16.1073 88.4269 16.0956L88.9495 15.5729C88.9612 15.5613 88.9682 15.5426 88.9682 15.5263C88.9682 15.5099 88.9612 15.4913 88.9495 15.4796L88.4036 14.9336C88.3896 14.9219 88.3732 14.9149 88.3569 14.9149ZM88.3569 15.0736C88.4292 15.1459 88.7396 15.4563 88.8119 15.5286C88.7372 15.6033 88.3826 15.9579 88.3522 15.9883C88.3102 15.9906 88.0955 16.0046 88.0955 16.0046C88.0815 16.0046 88.0652 16.0116 88.0536 16.0233L85.7319 18.3449C85.7202 18.3566 85.7156 18.3729 85.7132 18.3869C85.7132 18.3869 85.6992 18.6039 85.6969 18.6436L85.2372 19.1033C85.1649 19.0309 84.8546 18.7206 84.7846 18.6483L85.2442 18.1886C85.2862 18.1863 85.5009 18.1723 85.5009 18.1723C85.5149 18.1723 85.5312 18.1653 85.5429 18.1536L87.8646 15.8319C87.8762 15.8203 87.8809 15.8039 87.8832 15.7899C87.8832 15.7899 87.8972 15.5729 87.8995 15.5333C87.9252 15.5053 88.2822 15.1483 88.3569 15.0736ZM92.8742 14.9243C92.8579 14.9243 92.8392 14.9313 92.8275 14.9429L92.2815 15.4889C92.2699 15.5006 92.2629 15.5193 92.2629 15.5356C92.2629 15.5519 92.2699 15.5706 92.2815 15.5823L92.8042 16.1049C92.8159 16.1166 92.8322 16.1213 92.8462 16.1236C92.8462 16.1236 93.0632 16.1376 93.1029 16.1399C93.1379 16.1749 95.3546 18.3916 95.3896 18.4266C95.3919 18.4663 95.4059 18.6833 95.4059 18.6833C95.4059 18.6973 95.4129 18.7136 95.4245 18.7253L95.9472 19.2479C95.9589 19.2596 95.9776 19.2666 95.9939 19.2666C96.0102 19.2666 96.0289 19.2596 96.0405 19.2479L96.5865 18.7019C96.5982 18.6903 96.6052 18.6716 96.6052 18.6553C96.6052 18.6389 96.5982 18.6203 96.5865 18.6086L96.0639 18.0859C96.0522 18.0743 96.0359 18.0696 96.0219 18.0673C96.0219 18.0673 95.8049 18.0533 95.7652 18.0509C95.7302 18.0159 93.5136 15.7993 93.4786 15.7643C93.4762 15.7223 93.4622 15.5076 93.4622 15.5076C93.4622 15.4936 93.4552 15.4773 93.4435 15.4656L92.9209 14.9429C92.9092 14.9313 92.8905 14.9243 92.8742 14.9243ZM92.8742 15.0829C92.9489 15.1576 93.3035 15.5123 93.3339 15.5426C93.3362 15.5823 93.3502 15.7993 93.3502 15.7993C93.3502 15.8133 93.3572 15.8296 93.3689 15.8413L95.6905 18.1629C95.7022 18.1746 95.7185 18.1793 95.7325 18.1816C95.7325 18.1816 95.9495 18.1956 95.9892 18.1979C96.0195 18.2283 96.3742 18.5829 96.4489 18.6576C96.3765 18.7299 96.0662 19.0403 95.9939 19.1126C95.9192 19.0379 95.5646 18.6833 95.5342 18.6529C95.5319 18.6133 95.5179 18.3963 95.5179 18.3963C95.5179 18.3823 95.5109 18.3659 95.4992 18.3543L93.1775 16.0326C93.1659 16.0209 93.1496 16.0163 93.1356 16.0139C93.1356 16.0139 92.9185 15.9999 92.8789 15.9976C92.8485 15.9673 92.4939 15.6126 92.4192 15.5379C92.4915 15.4656 92.8019 15.1553 92.8742 15.0829ZM92.0622 15.6896L91.5162 16.2356C91.5045 16.2473 91.4975 16.2659 91.4975 16.2823C91.4975 16.2986 91.5045 16.3173 91.5162 16.3289L92.0389 16.8516C92.0506 16.8633 92.0669 16.8679 92.0809 16.8703C92.0809 16.8703 92.2979 16.8843 92.3376 16.8866C92.3726 16.9216 94.5892 19.1383 94.6242 19.1733C94.6265 19.2153 94.6405 19.4299 94.6405 19.4299C94.6405 19.4439 94.6476 19.4603 94.6592 19.4719L95.1819 19.9946C95.1936 20.0063 95.2122 20.0133 95.2286 20.0133C95.2449 20.0133 95.2636 20.0063 95.2752 19.9946L95.8212 19.4486C95.8329 19.4369 95.8399 19.4183 95.8399 19.4019C95.8399 19.3856 95.8329 19.3669 95.8212 19.3553L95.2986 18.8326C95.2892 18.8209 95.2705 18.8163 95.2565 18.8139C95.2565 18.8139 95.0395 18.7999 94.9999 18.7976C94.9649 18.7626 92.7482 16.5459 92.7132 16.5109C92.7109 16.4713 92.6969 16.2543 92.6969 16.2543C92.6969 16.2403 92.6899 16.2239 92.6782 16.2123L92.1556 15.6896C92.1276 15.6639 92.0855 15.6639 92.0622 15.6896ZM92.1089 15.8296C92.1835 15.9043 92.5382 16.2589 92.5685 16.2893C92.5709 16.3289 92.5849 16.5459 92.5849 16.5459C92.5849 16.5599 92.5919 16.5763 92.6036 16.5879L94.9252 18.9096C94.9369 18.9213 94.9532 18.9259 94.9672 18.9283C94.9672 18.9283 95.1842 18.9423 95.2239 18.9446C95.2542 18.9749 95.6089 19.3296 95.6836 19.4043C95.6112 19.4766 95.3009 19.7869 95.2286 19.8593C95.1539 19.7846 94.7992 19.4299 94.7689 19.3996C94.7666 19.3576 94.7525 19.1429 94.7525 19.1429C94.7525 19.1289 94.7455 19.1126 94.7339 19.1009L92.4122 16.7793C92.4005 16.7676 92.3842 16.7629 92.3702 16.7606C92.3702 16.7606 92.1532 16.7466 92.1135 16.7443C92.0832 16.7139 91.7285 16.3593 91.6539 16.2846C91.7262 16.2123 92.0365 15.8996 92.1089 15.8296ZM91.3505 16.4269C91.3342 16.4269 91.3155 16.4339 91.3039 16.4456L90.7579 16.9916C90.7462 17.0033 90.7392 17.0219 90.7392 17.0383C90.7392 17.0546 90.7462 17.0733 90.7579 17.0849L91.2806 17.6076C91.2922 17.6193 91.3085 17.6239 91.3225 17.6263C91.3225 17.6263 91.5396 17.6403 91.5792 17.6426C91.6142 17.6776 93.8309 19.8943 93.8659 19.9293C93.8682 19.9713 93.8822 20.1859 93.8822 20.1859C93.8822 20.1999 93.8892 20.2163 93.9009 20.2279L94.4236 20.7506C94.4492 20.7763 94.4912 20.7763 94.5169 20.7506L95.0629 20.2046C95.0745 20.1929 95.0815 20.1743 95.0815 20.1579C95.0815 20.1416 95.0745 20.1229 95.0629 20.1113L94.5402 19.5886C94.5286 19.5769 94.5122 19.5723 94.4982 19.5699C94.4982 19.5699 94.2812 19.5559 94.2415 19.5536C94.2065 19.5186 91.9899 17.3019 91.9549 17.2669C91.9526 17.2249 91.9385 17.0103 91.9385 17.0103C91.9385 16.9963 91.9315 16.9799 91.9199 16.9683L91.3972 16.4456C91.3856 16.4339 91.3669 16.4269 91.3505 16.4269ZM91.3505 16.5856C91.4252 16.6603 91.7799 17.0149 91.8102 17.0453C91.8125 17.0849 91.8266 17.3019 91.8266 17.3019C91.8266 17.3159 91.8336 17.3323 91.8452 17.3439L94.1669 19.6656C94.1786 19.6773 94.1949 19.6819 94.2089 19.6843C94.2089 19.6843 94.4259 19.6983 94.4655 19.7006C94.4959 19.7309 94.8506 20.0856 94.9252 20.1603C94.8529 20.2326 94.5426 20.5429 94.4702 20.6153C94.3956 20.5406 94.0409 20.1859 94.0106 20.1556C94.0082 20.1159 93.9942 19.8989 93.9942 19.8989C93.9942 19.8849 93.9872 19.8686 93.9755 19.8569L91.6539 17.5353C91.6422 17.5236 91.6259 17.5189 91.6119 17.5166C91.6119 17.5166 91.3949 17.5026 91.3552 17.5003C91.3249 17.4699 90.9702 17.1153 90.8955 17.0406C90.9679 16.9683 91.2805 16.6579 91.3505 16.5856ZM86.7376 8.7876C86.7212 8.7876 86.7025 8.7946 86.6909 8.80626L86.1449 9.35226C86.1332 9.36393 86.1262 9.3826 86.1262 9.39893C86.1262 9.41526 86.1332 9.43393 86.1449 9.4456L86.6676 9.96826C86.6792 9.97993 86.6955 9.9846 86.7095 9.98693C86.7095 9.98693 86.9265 10.0009 86.9662 10.0033C87.0012 10.0383 89.2179 12.2549 89.2529 12.2899C89.2552 12.3319 89.2692 12.5466 89.2692 12.5466C89.2692 12.5606 89.2762 12.5769 89.2879 12.5886L89.8106 13.1113C89.8222 13.1229 89.8409 13.1299 89.8572 13.1299C89.8735 13.1299 89.8922 13.1229 89.9039 13.1113L90.4499 12.5653C90.4615 12.5536 90.4685 12.5349 90.4685 12.5186C90.4685 12.5023 90.4615 12.4836 90.4499 12.4719L89.9272 11.9493C89.9156 11.9376 89.8992 11.9329 89.8852 11.9306C89.8852 11.9306 89.6682 11.9166 89.6286 11.9143C89.5936 11.8793 87.3769 9.6626 87.3419 9.6276C87.3396 9.5856 87.3255 9.37093 87.3255 9.37093C87.3255 9.35693 87.3186 9.3406 87.3069 9.32893L86.7842 8.80626C86.7702 8.7946 86.7539 8.7876 86.7376 8.7876ZM86.7376 8.94626C86.8122 9.02093 87.1669 9.3756 87.1972 9.40593C87.1996 9.4456 87.2135 9.6626 87.2135 9.6626C87.2135 9.6766 87.2205 9.69293 87.2322 9.7046L89.5539 12.0263C89.5655 12.0379 89.5819 12.0426 89.5959 12.0449C89.5959 12.0449 89.8129 12.0589 89.8525 12.0613C89.8829 12.0916 90.2375 12.4463 90.3122 12.5209C90.2399 12.5933 89.9295 12.9036 89.8572 12.9759C89.7825 12.9013 89.4279 12.5466 89.3975 12.5163C89.3952 12.4766 89.3812 12.2596 89.3812 12.2596C89.3812 12.2456 89.3742 12.2293 89.3626 12.2176L87.0409 9.89593C87.0292 9.88426 87.0129 9.8796 86.9989 9.87726C86.9989 9.87726 86.7819 9.86326 86.7422 9.86093C86.7119 9.8306 86.3572 9.47593 86.2825 9.40126C86.3549 9.32893 86.6652 9.0186 86.7376 8.94626ZM85.9419 9.57393L85.3959 10.1199C85.3842 10.1316 85.3772 10.1503 85.3772 10.1666C85.3772 10.1829 85.3842 10.2016 85.3959 10.2133L85.9185 10.7359C85.9302 10.7476 85.9466 10.7523 85.9606 10.7546C85.9606 10.7546 86.1775 10.7686 86.2172 10.7709C86.2522 10.8059 88.4689 13.0226 88.5039 13.0576C88.5062 13.0996 88.5202 13.3143 88.5202 13.3143C88.5202 13.3283 88.5272 13.3446 88.5389 13.3563L89.0615 13.8789C89.0872 13.9046 89.1292 13.9046 89.1549 13.8789L89.7009 13.3329C89.7126 13.3213 89.7196 13.3026 89.7196 13.2863C89.7196 13.2699 89.7126 13.2513 89.7009 13.2396L89.1782 12.7169C89.1665 12.7053 89.1502 12.7006 89.1362 12.6983C89.1362 12.6983 88.9192 12.6843 88.8795 12.6819C88.8445 12.6469 86.6279 10.4303 86.5929 10.3953C86.5905 10.3556 86.5766 10.1386 86.5766 10.1386C86.5766 10.1246 86.5695 10.1083 86.5579 10.0966L86.0352 9.57393C86.0095 9.54593 85.9676 9.54593 85.9419 9.57393ZM85.9885 9.7116C86.0632 9.78626 86.4179 10.1409 86.4482 10.1713C86.4505 10.2109 86.4646 10.4279 86.4646 10.4279C86.4646 10.4419 86.4715 10.4583 86.4832 10.4699L88.8049 12.7916C88.8166 12.8033 88.8329 12.8079 88.8469 12.8103C88.8469 12.8103 89.0639 12.8243 89.1036 12.8266C89.1339 12.8569 89.4886 13.2116 89.5632 13.2863C89.4909 13.3586 89.1806 13.6689 89.1106 13.7413C89.0359 13.6666 88.6812 13.3119 88.6509 13.2816C88.6486 13.2396 88.6345 13.0249 88.6345 13.0249C88.6345 13.0109 88.6275 12.9946 88.6159 12.9829L86.2942 10.6613C86.2825 10.6496 86.2662 10.6449 86.2522 10.6426C86.2522 10.6426 86.0352 10.6286 85.9955 10.6263C85.9652 10.5959 85.6105 10.2413 85.5359 10.1666C85.6059 10.0943 85.9185 9.78393 85.9885 9.7116ZM85.1859 10.3299L84.6399 10.8759C84.6282 10.8876 84.6212 10.9063 84.6212 10.9226C84.6212 10.9389 84.6282 10.9576 84.6399 10.9693L85.1625 11.4919C85.1742 11.5036 85.1905 11.5083 85.2045 11.5106C85.2045 11.5106 85.4216 11.5246 85.4612 11.5269C85.4962 11.5619 87.7129 13.7786 87.7479 13.8136C87.7502 13.8556 87.7642 14.0703 87.7642 14.0703C87.7642 14.0843 87.7712 14.1006 87.7829 14.1123L88.3056 14.6349C88.3312 14.6606 88.3732 14.6606 88.3989 14.6349L88.9449 14.0889C88.9565 14.0773 88.9635 14.0586 88.9635 14.0423C88.9635 14.0259 88.9565 14.0073 88.9449 13.9956L88.4222 13.4729C88.4106 13.4613 88.3942 13.4566 88.3802 13.4543C88.3802 13.4543 88.1632 13.4403 88.1236 13.4379C88.0886 13.4029 85.8719 11.1863 85.8369 11.1513C85.8346 11.1116 85.8205 10.8946 85.8205 10.8946C85.8205 10.8806 85.8135 10.8643 85.8019 10.8526L85.2792 10.3299C85.2512 10.3043 85.2092 10.3043 85.1859 10.3299ZM85.2325 10.4699C85.3072 10.5446 85.6619 10.8993 85.6922 10.9296C85.6945 10.9693 85.7086 11.1863 85.7086 11.1863C85.7086 11.2003 85.7156 11.2166 85.7272 11.2283L88.0489 13.5499C88.0605 13.5616 88.0769 13.5663 88.0909 13.5686C88.0909 13.5686 88.3079 13.5826 88.3475 13.5849C88.3779 13.6153 88.7325 13.9699 88.8072 14.0446C88.7349 14.1169 88.4246 14.4273 88.3522 14.4996C88.2776 14.4249 87.9229 14.0703 87.8926 14.0399C87.8902 14.0003 87.8762 13.7833 87.8762 13.7833C87.8762 13.7693 87.8692 13.7529 87.8575 13.7413L85.5359 11.4196C85.5242 11.4079 85.5079 11.4033 85.4939 11.4009C85.4939 11.4009 85.2769 11.3869 85.2372 11.3846C85.2069 11.3543 84.8522 10.9996 84.7776 10.9249C84.8499 10.8526 85.1602 10.5399 85.2325 10.4699ZM90.5642 15.7083L90.0182 16.2543C89.9926 16.2799 89.9926 16.3219 90.0182 16.3476L90.5642 16.8936C90.5899 16.9193 90.6319 16.9193 90.6575 16.8936L91.2036 16.3476C91.2292 16.3219 91.2292 16.2799 91.2036 16.2543L90.6575 15.7083C90.6459 15.6966 90.6272 15.6896 90.6109 15.6896C90.5922 15.6896 90.5759 15.6966 90.5642 15.7083ZM90.6086 15.8459C90.6809 15.9183 90.9912 16.2286 91.0635 16.3009C90.9912 16.3733 90.6809 16.6836 90.6086 16.7559C90.5362 16.6836 90.2259 16.3733 90.1536 16.3009C90.2259 16.2286 90.5386 15.9183 90.6086 15.8459ZM89.8059 14.9499L89.2599 15.4959C89.2482 15.5076 89.2412 15.5263 89.2412 15.5426C89.2412 15.5589 89.2482 15.5776 89.2599 15.5893L89.8059 16.1353C89.8315 16.1609 89.8735 16.1609 89.8992 16.1353L90.4452 15.5893C90.4709 15.5636 90.4709 15.5216 90.4452 15.4959L89.8992 14.9499C89.8875 14.9383 89.8689 14.9313 89.8525 14.9313C89.8362 14.9336 89.8175 14.9383 89.8059 14.9499ZM89.8525 15.0899C89.9249 15.1623 90.2352 15.4726 90.3075 15.5449C90.2352 15.6173 89.9249 15.9276 89.8525 15.9999C89.7802 15.9276 89.4699 15.6173 89.3975 15.5449C89.4699 15.4726 89.7802 15.1599 89.8525 15.0899ZM89.0499 14.1939L88.5039 14.7399C88.4922 14.7516 88.4852 14.7703 88.4852 14.7866C88.4852 14.8029 88.4922 14.8216 88.5039 14.8333L89.0499 15.3793C89.0755 15.4049 89.1176 15.4049 89.1432 15.3793L89.6892 14.8333C89.7149 14.8076 89.7149 14.7656 89.6892 14.7399L89.1432 14.1939C89.1152 14.1683 89.0732 14.1683 89.0499 14.1939ZM89.0966 14.3316C89.1689 14.4039 89.4792 14.7143 89.5516 14.7866C89.4792 14.8589 89.1689 15.1693 89.0966 15.2416C89.0242 15.1693 88.7139 14.8589 88.6415 14.7866C88.7139 14.7143 89.0242 14.4039 89.0966 14.3316ZM89.8059 13.4379L89.2599 13.9839C89.2482 13.9956 89.2412 14.0143 89.2412 14.0306C89.2412 14.0469 89.2482 14.0656 89.2599 14.0773L89.8059 14.6233C89.8315 14.6489 89.8735 14.6489 89.8992 14.6233L90.4452 14.0773C90.4709 14.0516 90.4709 14.0096 90.4452 13.9839L89.8992 13.4379C89.8875 13.4263 89.8689 13.4193 89.8525 13.4193C89.8362 13.4193 89.8175 13.4263 89.8059 13.4379ZM89.8525 13.5756C89.9249 13.6479 90.2352 13.9583 90.3075 14.0306C90.2352 14.1029 89.9249 14.4133 89.8525 14.4856C89.7802 14.4133 89.4699 14.1029 89.3975 14.0306C89.4699 13.9583 89.7802 13.6479 89.8525 13.5756ZM90.5642 14.1939L90.0182 14.7399C89.9926 14.7656 89.9926 14.8076 90.0182 14.8333L90.5642 15.3793C90.5899 15.4049 90.6319 15.4049 90.6575 15.3793L91.2036 14.8333C91.2292 14.8076 91.2292 14.7656 91.2036 14.7399L90.6575 14.1939C90.6295 14.1683 90.5875 14.1683 90.5642 14.1939ZM90.6086 14.3316C90.6809 14.4039 90.9912 14.7143 91.0635 14.7866C90.9912 14.8589 90.6809 15.1693 90.6086 15.2416C90.5362 15.1693 90.2259 14.8589 90.1559 14.7866C90.2259 14.7143 90.5386 14.4039 90.6086 14.3316ZM91.3669 14.9313C91.3506 14.9313 91.3319 14.9383 91.3202 14.9499L90.7742 15.4959C90.7485 15.5216 90.7485 15.5636 90.7742 15.5893L91.3202 16.1353C91.3459 16.1609 91.3879 16.1609 91.4135 16.1353L91.9595 15.5893C91.9712 15.5776 91.9782 15.5589 91.9782 15.5426C91.9782 15.5263 91.9712 15.5076 91.9595 15.4959L91.4135 14.9499C91.3995 14.9359 91.3832 14.9313 91.3669 14.9313ZM91.3669 15.0899C91.4392 15.1623 91.7495 15.4726 91.8219 15.5449C91.7495 15.6173 91.4392 15.9276 91.3669 15.9999C91.2946 15.9276 90.9842 15.6173 90.9119 15.5449C90.9842 15.4726 91.2946 15.1599 91.3669 15.0899ZM92.0762 14.1939L91.5302 14.7399C91.5185 14.7516 91.5115 14.7703 91.5115 14.7866C91.5115 14.8029 91.5185 14.8216 91.5302 14.8333L92.0762 15.3793C92.0879 15.3909 92.1066 15.3979 92.1229 15.3979C92.1392 15.3979 92.1579 15.3909 92.1696 15.3793L92.7155 14.8333C92.7412 14.8076 92.7412 14.7656 92.7155 14.7399L92.1696 14.1939C92.1579 14.1823 92.1392 14.1753 92.1229 14.1753C92.1066 14.1753 92.0879 14.1823 92.0762 14.1939ZM92.1229 14.3316C92.1952 14.4039 92.5055 14.7143 92.5755 14.7866C92.5055 14.8589 92.1929 15.1693 92.1229 15.2416C92.0506 15.1693 91.7402 14.8589 91.6679 14.7866C91.7402 14.7143 92.0529 14.4039 92.1229 14.3316ZM91.3669 13.4169C91.3506 13.4169 91.3319 13.4239 91.3202 13.4356L90.7742 13.9816C90.7485 14.0073 90.7485 14.0493 90.7742 14.0749L91.3202 14.6209C91.3459 14.6466 91.3879 14.6466 91.4135 14.6209L91.9595 14.0749C91.9712 14.0633 91.9782 14.0446 91.9782 14.0283C91.9782 14.0119 91.9712 13.9933 91.9595 13.9816L91.4135 13.4356C91.3995 13.4239 91.3832 13.4169 91.3669 13.4169ZM91.3669 13.5756C91.4392 13.6479 91.7495 13.9583 91.8219 14.0306C91.7495 14.1029 91.4392 14.4133 91.3669 14.4856C91.2946 14.4133 90.9842 14.1029 90.9119 14.0306C90.9842 13.9583 91.2946 13.6479 91.3669 13.5756ZM90.5642 12.6796L90.0182 13.2256C89.9926 13.2513 89.9926 13.2933 90.0182 13.3189L90.5642 13.8649C90.5899 13.8906 90.6319 13.8906 90.6575 13.8649L91.2036 13.3189C91.2292 13.2933 91.2292 13.2513 91.2036 13.2256L90.6575 12.6796C90.6459 12.6679 90.6272 12.6609 90.6109 12.6609C90.5922 12.6633 90.5759 12.6679 90.5642 12.6796ZM90.6086 12.8196C90.6809 12.8919 90.9912 13.2023 91.0635 13.2746C90.9912 13.3469 90.6809 13.6573 90.6086 13.7273C90.5362 13.6549 90.2259 13.3446 90.1536 13.2746C90.2259 13.2023 90.5386 12.8896 90.6086 12.8196Z" fill="#EE2E24"/>
<path d="M76.5782 63.3499L75.3252 62.6872L74.8399 63.1842L73.7129 62.5892L76.9445 59.7285L78.1485 60.3655L77.6025 64.6472L76.4475 64.0359L76.5805 63.3522L76.5782 63.3499ZM76.7579 62.4562L77.0425 60.9628L75.9739 62.0409L76.7579 62.4562Z" fill="#EE2E24"/>
<path d="M80.0082 64.1597L81.1679 64.4327C81.1375 64.624 81.1445 64.7803 81.1912 64.8993C81.2659 65.093 81.4199 65.2236 81.6485 65.2936C81.8189 65.345 81.9635 65.345 82.0802 65.2936C82.1969 65.2423 82.2715 65.163 82.3019 65.058C82.3322 64.9577 82.3159 64.855 82.2505 64.75C82.1875 64.645 82.0055 64.5073 81.7069 64.3416C81.2192 64.0663 80.8925 63.7957 80.7269 63.5343C80.5612 63.2707 80.5239 62.9883 80.6149 62.685C80.6755 62.4866 80.7899 62.3163 80.9579 62.174C81.1259 62.0316 81.3429 61.9453 81.6042 61.915C81.8655 61.8847 82.1992 61.929 82.6005 62.0503C83.0952 62.1996 83.4429 62.405 83.6482 62.6686C83.8512 62.93 83.9189 63.2707 83.8465 63.686L82.7009 63.4107C82.7242 63.2287 82.7009 63.0817 82.6262 62.9743C82.5539 62.867 82.4349 62.7876 82.2645 62.7363C82.1245 62.6943 82.0125 62.692 81.9239 62.7293C81.8352 62.7666 81.7792 62.8273 81.7535 62.9113C81.7349 62.972 81.7465 63.0373 81.7909 63.105C81.8305 63.1727 81.9519 63.2613 82.1479 63.3686C82.6355 63.6393 82.9762 63.8656 83.1675 64.05C83.3589 64.2343 83.4802 64.4257 83.5315 64.6287C83.5829 64.8293 83.5759 65.037 83.5129 65.247C83.4382 65.4943 83.3005 65.702 83.0999 65.87C82.8992 66.038 82.6589 66.1383 82.3812 66.1733C82.1012 66.206 81.7745 66.1663 81.4012 66.0543C80.7432 65.856 80.3255 65.5923 80.1505 65.261C79.9755 64.9297 79.9265 64.5656 80.0129 64.1643L80.0082 64.1597Z" fill="#EE2E24"/>
<path d="M85.8299 62.9486L89.6029 63.35L89.4979 64.3416L88.2309 64.2063L87.9089 67.2326L86.6675 67.0996L86.9895 64.0733L85.7225 63.938L85.8275 62.9463L85.8299 62.9486Z" fill="#EE2E24"/>
<path d="M93.7282 66.5536L92.3142 66.654L92.1649 67.333L90.8932 67.4216L92.1229 63.2846L93.4809 63.189L95.2799 67.1136L93.9755 67.2046L93.7259 66.5536H93.7282ZM93.4085 65.6996L92.8625 64.281L92.5242 65.7603L93.4085 65.6973V65.6996Z" fill="#EE2E24"/>
<path d="M96.5702 62.7829L97.6925 62.4679L99.7599 64.2109L99.1579 62.0595L100.292 61.7422L101.382 65.6319L100.248 65.9492L98.1919 64.2202L98.7915 66.3575L97.6599 66.6749L96.5702 62.7852V62.7829Z" fill="#EE2E24"/>
<path d="M105.871 62.869L104.611 63.5177L104.742 64.2014L103.608 64.7847L103.111 60.496L104.322 59.873L107.521 62.771L106.359 63.3684L105.873 62.8667L105.871 62.869ZM105.241 62.211L104.179 61.1237L104.452 62.617L105.241 62.211Z" fill="#EE2E24"/>
</svg>
