<svg width="195" height="80" viewBox="0 0 195 80" fill="none" xmlns="http://www.w3.org/2000/svg">
<rect width="194.593" height="80" rx="8" fill="white"/>
<path d="M27.2925 21V13.08H32.1885V14.22H28.5645V21H27.2925ZM33.4683 21V13.08H38.6763V14.22H34.7403V16.248H37.7043V17.352H34.7403V19.86H38.8203V21H33.4683ZM40.3003 21V13.08H41.5723V16.236H45.5563V13.08H46.8283V21H45.5563V17.376H41.5723V21H40.3003ZM48.8316 21V13.08H54.0396V14.22H50.1036V16.248H53.0676V17.352H50.1036V19.86H54.1836V21H48.8316ZM55.6636 21V13.08H58.5556C60.1516 13.08 61.2436 14.076 61.2436 15.504C61.2436 16.92 60.1516 17.94 58.5556 17.94H56.9356V21H55.6636ZM56.9356 16.812H58.5316C59.4316 16.812 59.9356 16.296 59.9356 15.516C59.9356 14.736 59.4316 14.208 58.5316 14.208H56.9356V16.812ZM67.0148 21L66.4508 19.68H62.8868L62.3228 21H60.9668L64.4588 12.948H64.8908L68.3828 21H67.0148ZM65.9948 18.588L64.6748 15.312L63.3428 18.588H65.9948ZM70.5201 13.08H75.6921V21H74.4201V14.22H71.7321C71.5641 19.512 70.9281 21.048 69.2241 21.096C68.9841 21.096 68.7921 21.06 68.6481 21V19.908C68.6841 19.92 68.7921 19.932 68.9841 19.932C70.0761 19.932 70.4361 18.096 70.5081 14.376L70.5201 13.08ZM77.6831 21V13.08H78.9551V16.008H80.5511C82.1951 16.008 83.3231 17.04 83.3231 18.504C83.3231 19.968 82.2071 21 80.5511 21H77.6831ZM78.9551 19.872H80.5391C81.4631 19.872 82.0151 19.32 82.0151 18.504C82.0151 17.688 81.4631 17.136 80.5391 17.136H78.9551V19.872ZM84.8433 21V13.08H86.1153V16.236H90.0993V13.08H91.3713V21H90.0993V17.376H86.1153V21H84.8433ZM93.3745 21V13.08H94.6465V16.008H96.2425C97.8865 16.008 99.0145 17.04 99.0145 18.504C99.0145 19.968 97.8985 21 96.2425 21H93.3745ZM94.6465 19.872H96.2305C97.1545 19.872 97.7065 19.32 97.7065 18.504C97.7065 17.688 97.1545 17.136 96.2305 17.136H94.6465V19.872ZM100.419 21V13.08H101.691V21H100.419ZM109.879 12.948H110.323V21H109.051V15.468L104.143 21.132H103.699V13.08H104.971V18.6L109.879 12.948ZM105.175 10.32V10.08H106.207V10.356C106.207 11.016 106.531 11.412 107.107 11.412C107.683 11.412 108.019 11.028 108.019 10.356V10.08H109.063V10.32C109.063 11.52 108.271 12.324 107.107 12.324C105.955 12.324 105.175 11.52 105.175 10.32ZM115.675 21V13.08H122.083V21H120.811V14.22H116.947V21H115.675ZM129.405 21L128.841 19.68H125.277L124.713 21H123.357L126.849 12.948H127.281L130.773 21H129.405ZM128.385 18.588L127.065 15.312L125.733 18.588H128.385ZM132.035 21V13.08H134.927C136.523 13.08 137.615 14.076 137.615 15.504C137.615 16.92 136.523 17.94 134.927 17.94H133.307V21H132.035ZM133.307 16.812H134.903C135.803 16.812 136.307 16.296 136.307 15.516C136.307 14.736 135.803 14.208 134.903 14.208H133.307V16.812ZM140.891 21V14.22H138.227V13.08H144.839V14.22H142.163V21H140.891ZM146.027 21V13.08H147.299V16.236H151.283V13.08H152.555V21H151.283V17.376H147.299V21H146.027ZM154.558 21V13.08H159.766V14.22H155.83V16.248H158.794V17.352H155.83V19.86H159.91V21H154.558ZM161.39 21V13.08H164.282C165.878 13.08 166.97 14.076 166.97 15.504C166.97 16.92 165.878 17.94 164.282 17.94H162.662V21H161.39ZM162.662 16.812H164.258C165.158 16.812 165.662 16.296 165.662 15.516C165.662 14.736 165.158 14.208 164.258 14.208H162.662V16.812Z" fill="#625747"/>
<path d="M39.8619 65.7086C39.1389 65.7086 38.4064 65.4327 37.8546 64.881L34.0016 61.028H28.5503C26.9806 61.028 25.7153 59.7531 25.7153 58.1929V52.7416L21.8528 48.8791C20.7492 47.7756 20.7492 45.968 21.8528 44.8644L25.7058 41.0114V35.5601C25.7058 33.9904 26.9806 32.7251 28.5408 32.7251H33.9921L37.8451 28.8721C38.9486 27.7685 40.7562 27.7685 41.8598 28.8721L45.7128 32.7251H51.164C52.7338 32.7251 53.9991 33.9999 53.9991 35.5601V41.0114L57.8521 44.8644C58.9557 45.968 58.9557 47.7756 57.8521 48.8791L53.9991 52.7321V58.1834C53.9991 59.7531 52.7243 61.0184 51.164 61.0184H45.7318L41.8788 64.8714C41.3175 65.4327 40.5945 65.7086 39.8619 65.7086Z" fill="#F8AE00"/>
<path d="M58.9557 44.9878L54.6936 40.7257V34.6941C54.6936 33.229 53.5044 32.0398 52.0393 32.0398H46.0077L41.7456 27.7777C40.7086 26.7408 39.0247 26.7408 37.9878 27.7777L33.7257 32.0398H27.6941C26.229 32.0398 25.0398 33.229 25.0398 34.6941V40.7257L20.7777 44.9878C19.7408 46.0247 19.7408 47.7086 20.7777 48.7456L25.0398 53.0077V59.0393C25.0398 60.5044 26.229 61.6936 27.6941 61.6936H33.7257L37.9878 65.9557C39.0247 66.9926 40.7086 66.9926 41.7456 65.9557L46.0077 61.6936H52.0393C53.5044 61.6936 54.6936 60.5044 54.6936 59.0393V53.0077L58.9557 48.7456C59.9926 47.7086 59.9926 46.0247 58.9557 44.9878ZM57.1861 48.1843L53.0477 52.3227V58.1831C53.0477 59.2105 52.2105 60.0477 51.1831 60.0477H45.3227L41.1843 64.1861C40.4518 64.9187 39.2721 64.9187 38.5491 64.1861L34.4107 60.0477H28.5503C27.5229 60.0477 26.6857 59.2105 26.6857 58.1831V52.3227L22.5473 48.1843C21.8147 47.4518 21.8147 46.2721 22.5473 45.5491L26.6857 41.4107V35.5503C26.6857 34.5229 27.5229 33.6857 28.5503 33.6857H34.4107L38.5491 29.5473C39.2816 28.8147 40.4613 28.8147 41.1843 29.5473L45.3227 33.6857H51.1831C52.2105 33.6857 53.0477 34.5229 53.0477 35.5503V41.4107L57.1861 45.5491C57.9187 46.2816 57.9187 47.4613 57.1861 48.1843Z" stroke="#008669" stroke-miterlimit="10"/>
<path d="M38.5015 31.7629L24.7639 45.5005C24.0124 46.2521 24.0124 47.4793 24.7639 48.2404L28.1413 51.6177C29.2353 50.2858 30.9192 48.7351 33.3642 47.584C38.5967 45.1295 41.7647 47.3556 45.0088 43.5312C47.0352 41.1433 46.569 38.5651 46.0172 37.0715C45.7984 36.5007 45.4559 35.9869 45.0278 35.5493L41.2414 31.7629C40.4803 31.0113 39.2531 31.0113 38.5015 31.7629Z" fill="#008669"/>
<path d="M41.2319 61.9686L54.9695 48.231C55.721 47.4794 55.721 46.2522 54.9695 45.4911L51.5921 42.1138C50.4981 43.4457 48.8142 44.9964 46.3692 46.1475C41.1367 48.602 37.9687 46.3758 34.7246 50.2003C32.6982 52.5882 33.1644 55.1664 33.7162 56.66C33.935 57.2308 34.2775 57.7446 34.7056 58.1822L38.492 61.9686C39.2531 62.7201 40.4803 62.7201 41.2319 61.9686Z" fill="#008669"/>
<path d="M58.9557 44.9878L54.6936 40.7257V34.6941C54.6936 33.229 53.5044 32.0398 52.0393 32.0398H46.0077L41.7456 27.7777C40.7086 26.7408 39.0247 26.7408 37.9878 27.7777L33.7257 32.0398H27.6941C26.229 32.0398 25.0398 33.229 25.0398 34.6941V40.7257L20.7777 44.9878C19.7408 46.0247 19.7408 47.7086 20.7777 48.7456L25.0398 53.0077V59.0393C25.0398 60.5044 26.229 61.6936 27.6941 61.6936H33.7257L37.9878 65.9557C39.0247 66.9926 40.7086 66.9926 41.7456 65.9557L46.0077 61.6936H52.0393C53.5044 61.6936 54.6936 60.5044 54.6936 59.0393V53.0077L58.9557 48.7456C59.9926 47.7086 59.9926 46.0247 58.9557 44.9878ZM57.1861 48.1843L53.0477 52.3227V58.1831C53.0477 59.2105 52.2105 60.0477 51.1831 60.0477H45.3227L41.1843 64.1861C40.4518 64.9187 39.2721 64.9187 38.5491 64.1861L34.4107 60.0477H28.5503C27.5229 60.0477 26.6857 59.2105 26.6857 58.1831V52.3227L22.5473 48.1843C21.8147 47.4518 21.8147 46.2721 22.5473 45.5491L26.6857 41.4107V35.5503C26.6857 34.5229 27.5229 33.6857 28.5503 33.6857H34.4107L38.5491 29.5473C39.2816 28.8147 40.4613 28.8147 41.1843 29.5473L45.3227 33.6857H51.1831C52.2105 33.6857 53.0477 34.5229 53.0477 35.5503V41.4107L57.1861 45.5491C57.9187 46.2816 57.9187 47.4613 57.1861 48.1843Z" fill="#008669"/>
<path d="M155.157 61.7686H160.009V51.0183L168.714 61.7686H174.593L164.718 49.5057L173.803 40.1633H168.124L160.018 48.5067V31.9722H155.166V61.7686H155.157ZM130.412 40.1633L138.651 60.8934L138.441 61.4642C137.528 63.8902 136.054 64.4039 134.845 64.4039C134.398 64.4039 133.865 64.3659 133.437 64.2327V68.6184C133.865 68.7896 134.779 68.999 135.911 68.999C139.888 68.999 141.847 66.3637 143.531 62.016L151.979 40.1538H146.832L141.324 55.347L135.616 40.1538H130.412V40.1633ZM121.65 55.5943C121.65 59.7232 123.505 62.1492 127.482 62.1492C128.614 62.1492 129.48 61.9399 129.908 61.7686V57.3639C129.546 57.4685 129.185 57.5541 128.719 57.5541C127.396 57.5541 126.53 56.6789 126.53 54.9569V31.9722H121.66V55.5943H121.65ZM100.378 50.9612C100.378 46.6801 103.317 44.3588 106.333 44.3588C109.359 44.3588 112.289 46.6801 112.289 50.9612C112.289 55.2423 109.349 57.5637 106.333 57.5637C103.308 57.5541 100.378 55.2328 100.378 50.9612ZM95.326 50.9612C95.326 58.1154 100.311 62.1587 105.458 62.1587C108.968 62.1587 111.223 60.3321 112.232 58.8194V61.7782H117.103V40.1633H112.232V43.103C111.233 41.6094 108.978 39.7828 105.458 39.7828C100.311 39.7828 95.326 43.788 95.326 50.9612ZM67.6415 61.7686H72.6647V48.7636H86.7733V61.7686H91.7965V31.9722H86.7733V44.1686H72.6647V31.9722H67.6415V61.7686Z" fill="#008669"/>
</svg>
