<svg width="240" height="58" viewBox="0 0 240 58" fill="none" xmlns="http://www.w3.org/2000/svg">
<g clip-path="url(#clip0_1725_4650)">
<path fill-rule="evenodd" clip-rule="evenodd" d="M27.5 0H212.5V58H27.5V0Z" fill="#299877"/>
<path fill-rule="evenodd" clip-rule="evenodd" d="M182.055 40.2602H177.348L170.366 31.4542V40.2602H166.474V15.8472H170.366V29.3892L176.87 22.5552H181.422L174.134 30.2112L182.055 40.2602ZM151.027 46.1902C150.355 46.2032 149.686 46.0962 149.047 45.8772V42.2842C149.415 42.3812 149.795 42.4262 150.174 42.4182C151.148 42.4182 152.325 42.0002 153.06 40.0132L153.231 39.5412L146.622 22.5612H150.79L155.364 35.0122L159.787 22.5612H163.918L157.14 40.4712C155.793 44.0292 154.221 46.1902 151.027 46.1902ZM144.271 40.5752C141.078 40.5752 139.593 38.5852 139.593 35.2042V15.8472H143.502V34.6812C143.502 36.0922 144.202 36.8082 145.262 36.8082C145.586 36.8052 145.909 36.7522 146.218 36.6512V40.2602C145.592 40.4812 144.933 40.5882 144.271 40.5752ZM132.042 37.8362C131.239 39.0752 129.428 40.5752 126.612 40.5752C122.481 40.5752 118.486 37.2592 118.486 31.4022C118.486 25.5322 122.481 22.2532 126.612 22.2532C129.428 22.2532 131.239 23.7522 132.042 24.9732V22.5612H135.949V40.2602H132.042V37.8362ZM127.312 25.9962C124.893 25.9962 122.532 27.8962 122.532 31.4022C122.532 34.9072 124.888 36.8082 127.312 36.8082C129.737 36.8082 132.092 34.9072 132.092 31.4022C132.092 27.8962 129.731 25.9962 127.312 25.9962ZM111.623 29.6062H100.305V40.2662H96.276V15.8472H100.305V25.8392H111.623V15.8472H115.653V40.2602H111.623V29.6062ZM85.807 33.0962V37.4032C85.807 39.1472 84.713 40.2622 83.007 40.2622H78.844L75.636 43.5412C75.123 44.0662 74.543 44.3452 73.861 44.3452C73.212 44.3452 72.615 44.0472 72.12 43.5412L68.922 40.2682H63.412C62.321 40.2682 61.707 39.6062 61.707 38.5602C61.691 36.8892 61.95 35.2292 62.477 33.6462L58.804 29.8672C58.259 29.3092 57.951 28.7152 57.951 28.0192C57.951 27.3592 58.259 26.7662 58.804 26.2082L61.944 23.0172V18.7462C61.944 16.9652 63.038 15.8502 64.78 15.8502H68.962L72.103 12.6252C72.634 12.0852 73.207 11.8042 73.862 11.8042C74.544 11.8042 75.124 12.1202 75.62 12.6252L78.809 15.8502H84.346C85.436 15.8502 86.051 16.5132 86.051 17.5252C86.051 19.4832 85.848 21.1582 85.427 22.5652L89.021 26.2082C89.567 26.7662 89.875 27.3592 89.879 28.0302C89.879 28.7262 89.567 29.3592 89.042 29.8942L85.807 33.0962ZM76.938 16.1852L76.923 16.1692L74.578 13.7932C74.323 13.5322 74.102 13.4092 73.879 13.4092C73.623 13.4092 73.469 13.4962 73.179 13.7932L59.919 27.3062C59.662 27.5682 59.56 27.7782 59.56 28.0222C59.56 28.2652 59.656 28.5032 59.919 28.7712L63.144 32.0962C63.602 31.2102 64.208 30.4112 64.932 29.7372C67.646 27.1492 70.754 27.1912 73.621 26.9242L74.203 26.8712C77.872 26.5392 79.597 24.5172 79.597 21.5012C79.597 19.2532 78.466 17.7652 76.938 16.1852ZM87.911 27.3012L84.8 24.1482C83.437 26.8472 80.918 28.2442 77.038 28.6102L76.662 28.6442C70.977 29.1142 68.569 31.2072 68.569 34.8522C68.569 36.9502 69.372 38.4832 71.108 40.2622L73.162 42.3722C73.419 42.6342 73.624 42.7392 73.862 42.7392C74.102 42.7392 74.34 42.6402 74.596 42.3722L87.915 28.7532C88.167 28.4922 88.27 28.2622 88.27 28.0172C88.27 27.7712 88.202 27.5972 87.911 27.3012Z" fill="white"/>
</g>
<defs>
<clipPath id="clip0_1725_4650">
<rect width="185" height="58" fill="white" transform="translate(27.5)"/>
</clipPath>
</defs>
</svg>
