<svg width="100" height="100" viewBox="0 0 100 100" fill="none" xmlns="http://www.w3.org/2000/svg">
<g clip-path="url(#clip0_1991_3022)">
<path fill-rule="evenodd" clip-rule="evenodd" d="M98.785 50.0021C98.785 76.9421 76.942 98.7781 50.002 98.7781C36.531 98.7781 24.335 93.3181 15.508 84.4921C35.303 94.2451 59.11 90.3081 74.709 74.7091C90.315 59.1041 94.245 35.3001 84.495 15.5081C93.322 24.3351 98.782 36.5281 98.782 50.0021H98.785Z" fill="#D1C9B6"/>
<path d="M10.114 53.074L12.489 51.535C13.306 52.732 14.256 53.321 15.339 53.321C16.175 53.321 16.669 52.998 16.669 52.409C16.669 51.953 16.346 51.63 15.434 51.174L14.18 50.547C12.565 49.73 11.634 48.704 11.634 47.127C11.634 44.885 13.572 43.232 16.194 43.232C18.075 43.232 19.519 44.106 20.526 45.835L18.132 47.45C17.467 46.538 16.84 46.139 16.004 46.139C15.301 46.139 14.883 46.443 14.883 46.956C14.883 47.431 15.225 47.754 15.909 48.077L17.296 48.742C19.063 49.578 19.899 50.661 19.899 52.086C19.899 54.423 17.885 56.228 15.225 56.228C13.002 56.228 11.197 55.107 10.114 53.074Z" fill="#A83600"/>
<path d="M21.5819 50.148C21.5059 46.367 24.8879 43.156 28.8209 43.232C31.4619 43.232 33.5328 44.543 34.4639 46.842L31.8039 48.419C31.1389 46.956 30.0938 46.234 28.6308 46.234C26.4838 46.234 24.9258 47.83 24.9258 49.996C24.9258 51.953 26.1799 53.226 28.1369 53.226C29.4479 53.226 30.5308 52.618 31.4998 51.326L33.7988 53.131C32.4498 55.107 30.3409 56.228 27.8899 56.228C24.2989 56.285 21.5249 53.625 21.5819 50.148Z" fill="#A83600"/>
<path d="M34.8369 56L37.0409 43.46H40.3089L38.1049 56H34.8369Z" fill="#A83600"/>
<path d="M40.6074 56L42.8114 43.46H51.5134L51.0004 46.405H45.5664L45.2624 48.134H49.1384L48.6444 50.87H44.7684L44.3884 53.055H50.0504L49.5374 56H40.6074Z" fill="#A83600"/>
<path d="M61.6613 43.46H64.9293L62.6873 56.228H61.6423L56.0373 49.388L54.8783 56H51.6103L53.8523 43.232H54.8973L60.5213 49.939L61.6613 43.46Z" fill="#A83600"/>
<path d="M65.7234 50.148C65.6474 46.367 69.0295 43.156 72.9625 43.232C75.6035 43.232 77.6745 44.543 78.6055 46.842L75.9454 48.419C75.2805 46.956 74.2355 46.234 72.7725 46.234C70.6255 46.234 69.0675 47.83 69.0675 49.996C69.0675 51.953 70.3215 53.226 72.2785 53.226C73.5895 53.226 74.6724 52.618 75.6414 51.326L77.9405 53.131C76.5915 55.107 74.4825 56.228 72.0315 56.228C68.4405 56.285 65.6664 53.625 65.7234 50.148Z" fill="#A83600"/>
<path d="M78.9785 56L81.1825 43.46H89.8845L89.3715 46.405H83.9375L83.6335 48.134H87.5095L87.0155 50.87H83.1395L82.7595 53.055H88.4215L87.9085 56H78.9785Z" fill="#A83600"/>
<path d="M63.0793 10H63.9207C63.9207 16.643 69.357 22.0793 76 22.0793V22.9207C69.357 22.9207 63.9207 28.357 63.9207 35H63.0793C63.0793 28.357 57.643 22.9207 51 22.9207V22.0793C57.643 22.0793 63.0793 16.643 63.0793 10Z" fill="#A83600"/>
<path d="M68.8317 74H69.1683C69.1683 76.6572 71.3428 78.8317 74 78.8317V79.1683C71.3428 79.1683 69.1683 81.3428 69.1683 84H68.8317C68.8317 81.3428 66.6572 79.1683 64 79.1683V78.8317C66.6572 78.8317 68.8317 76.6572 68.8317 74Z" fill="#A83600"/>
<path d="M30.7981 24H31.202C31.202 27.1887 33.8113 29.7981 37 29.7981V30.2019C33.8113 30.2019 31.202 32.8113 31.202 36H30.7981C30.7981 32.8113 28.1887 30.2019 25 30.2019V29.7981C28.1887 29.7981 30.7981 27.1887 30.7981 24Z" fill="#A83600"/>
<path d="M38.6971 66H39.3029C39.3029 70.783 43.217 74.6971 48 74.6971V75.3029C43.217 75.3029 39.3029 79.217 39.3029 84H38.6971C38.6971 79.217 34.783 75.3029 30 75.3029V74.6971C34.783 74.6971 38.6971 70.783 38.6971 66Z" fill="#A83600"/>
<path fill-rule="evenodd" clip-rule="evenodd" d="M50 100C22.43 100 0 77.57 0 50C0 22.429 22.43 0 50 0C77.57 0 100 22.43 100 50C100 77.57 77.57 100 50 100ZM50 2.439C23.775 2.439 2.439 23.774 2.439 50C2.439 76.225 23.775 97.561 50 97.561C76.225 97.561 97.561 76.225 97.561 50C97.561 23.775 76.225 2.439 50 2.439Z" fill="#A83600"/>
</g>
<defs>
<clipPath id="clip0_1991_3022">
<rect width="100" height="100" fill="white"/>
</clipPath>
</defs>
</svg>
