<svg width="100" height="100" viewBox="0 0 100 100" fill="none" xmlns="http://www.w3.org/2000/svg">
<path fill-rule="evenodd" clip-rule="evenodd" d="M72.2012 18.2915H71.7086C71.7086 22.1799 68.5266 25.3619 64.6382 25.3619V25.8544C68.5266 25.8544 71.7086 29.0365 71.7086 32.9249H72.2012C72.2012 29.0365 75.3832 25.8544 79.2716 25.8544V25.3619C75.3832 25.3619 72.2012 22.1799 72.2012 18.2915ZM40.5755 18.2915H39.9177C39.9177 23.476 35.6761 27.7176 30.4916 27.7176V28.3754C35.6761 28.3754 39.9177 32.617 39.9177 37.8016H40.5755C40.5755 32.617 44.8171 28.3754 50.0016 28.3754V27.7176C44.8171 27.7176 40.5755 23.476 40.5755 18.2915ZM18.2949 76.6629V76.9934C20.8872 76.9934 23.0096 79.1159 23.0096 81.7081H23.3401C23.3401 79.1159 25.4626 76.9934 28.0516 76.9934V76.6629C25.4593 76.6629 23.3401 74.5405 23.3401 71.9482H23.0096C23.0096 74.5405 20.8872 76.6629 18.2949 76.6629ZM54.3858 32.9249C54.3858 40.7017 48.0218 47.0657 40.245 47.0657V48.054C48.0218 48.054 54.3858 54.418 54.3858 62.1948H55.3741C55.3741 54.418 61.7381 48.054 69.5149 48.054V47.0657C61.7381 47.0657 55.3741 40.7017 55.3741 32.9249H54.3858ZM25.4464 45.1182C25.4464 47.7105 23.3239 49.8329 20.7317 49.8329V50.1635C23.3239 50.1635 25.4464 52.2859 25.4464 54.8781H25.7769C25.7769 52.2859 27.8993 50.1635 30.4916 50.1635V49.8329C27.8993 49.8329 25.7769 47.7105 25.7769 45.1182H25.4464ZM74.1454 52.4349C74.1454 56.3233 70.9634 59.5053 67.075 59.5053V59.9979C70.9634 59.9979 74.1454 63.1799 74.1454 67.0683H74.6379C74.6379 63.1799 77.8199 59.9979 81.7083 59.9979V59.5053C77.8199 59.5053 74.6379 56.3233 74.6379 52.4349H74.1454ZM42.4452 62.4314C42.4452 66.1934 39.3668 69.2717 35.6048 69.2717V69.7513C39.3668 69.7513 42.4452 72.8296 42.4452 76.5916H42.9215C42.9215 72.8296 45.9998 69.7513 49.7618 69.7513V69.2717C45.9998 69.2717 42.9215 66.1934 42.9215 62.4314H42.4452Z" fill="#A83600"/>
<path d="M98.7849 50.0017C98.7849 76.9418 76.9417 98.7785 50.0016 98.7785C36.5315 98.7785 24.3349 93.3185 15.5082 84.4918C35.3034 94.2452 59.1102 90.3082 74.7091 74.7092C90.3146 59.1038 94.2451 35.3003 84.495 15.5083C93.3216 24.335 98.7816 36.5284 98.7816 50.0017H98.7849Z" fill="#D1C9B6"/>
<path d="M50.0016 100C22.4328 100 0 77.5704 0 50.0016C0 22.4328 22.4296 0 50.0016 0C77.5704 0 100 22.4296 100 50.0016C100 77.5704 77.5704 100 50.0016 100ZM50.0016 2.43997C23.7776 2.43997 2.43997 23.7776 2.43997 50.0016C2.43997 76.2257 23.7776 97.5633 50.0016 97.5633C76.2257 97.5633 97.5633 76.2289 97.5633 50.0016C97.5633 23.7776 76.2257 2.43997 50.0016 2.43997Z" fill="#A83600"/>
</svg>
