<svg width="100" height="100" viewBox="0 0 100 100" fill="none" xmlns="http://www.w3.org/2000/svg">
<path d="M98.7822 50.0012C98.7822 75.1988 79.6721 95.9358 55.154 98.5083L55.1027 97.5613L59.7574 94.6571L64.838 74.1706L63.617 56.8759L76.7085 52.3025L79.8228 52.4357L81.6211 49.4632L79.7113 44.7606H71.7695L59.5506 42.0202C60.4848 34.3193 57.5502 26.7864 52.4865 20.9565C45.0352 12.3782 33.3333 8.75611 22.2335 9.89143C30.1154 4.41913 39.6834 1.21875 50.0001 1.21875C76.9402 1.21875 98.7826 23.0608 98.7826 50.0009L98.7822 50.0012Z" fill="#D1C9B6"/>
<path fill-rule="evenodd" clip-rule="evenodd" d="M49.9023 98.7783H49.9217H49.9412H49.9606H49.98H49.9995H50.0811C51.7952 98.7754 53.489 98.6852 55.1531 98.5074C57.6704 98.2451 60.1358 97.7886 62.5234 97.1521L67.0749 74.3893V57.3184L78.0584 53.9628L81.6597 54.118L84.1461 50.0003L81.7069 43.9042H73.0935L62.1961 41.1587C64.5668 21.2915 48.1795 6.90528 28.6697 6.11865C26.4239 7.21509 24.2725 8.47535 22.2335 9.89052C20.0999 11.3666 18.0948 13.0096 16.228 14.8041C19.5626 13.4657 23.2057 12.7432 26.9919 12.761C43.6628 12.8378 59.7575 28.0461 54.8783 45.1212H45.1213C45.1213 48.3655 50.0078 49.7166 54.8783 47.561L47.7671 54.8791L42.6821 69.5105C37.416 80.4557 21.9237 83.295 13.3196 82.1549C20.6934 90.5566 30.9027 96.4037 42.4583 98.202C42.8322 98.2578 43.207 98.3091 43.5815 98.3608C43.6198 98.3655 43.6586 98.37 43.6931 98.3741C43.8394 98.3958 43.9815 98.413 44.1278 98.4255C44.4198 98.4643 44.7127 98.494 45.005 98.5243C45.1044 98.5325 45.1991 98.5459 45.2979 98.5545C45.616 98.5848 45.9306 98.6103 46.249 98.6365C47.0617 98.7015 47.892 98.7436 48.7313 98.7614H48.7574C49.138 98.7732 49.5185 98.7777 49.9029 98.7783H49.9023ZM8.51406 38.8708C8.51406 43.9042 11.8875 50.0003 17.953 50.0003C22.5003 50.0003 24.8025 48.3999 25.6111 45.117C25.8001 44.3473 25.6111 43.074 24.8666 42.5959C23.6573 44.6568 22.0662 45.1212 20.0821 45.1212C15.8528 45.1212 14.0249 42.454 14.0249 39.0251C14.0249 33.2736 17.9055 30.4984 23.4817 30.4984C30.9585 30.4984 35.364 35.3642 35.3554 42.7208C35.3385 54.8788 27.28 59.7315 16.998 59.757C9.67488 59.7697 4.17325 55.8165 1.2218 50.2499C1.23933 54.3025 1.7509 58.2338 2.70613 61.9945C6.55641 64.8251 11.3922 66.464 16.998 66.4516C30.5582 66.4213 41.7695 58.1445 41.7695 43.495C41.7695 32.611 36.374 24.3893 24.2814 24.3893C14.0931 24.3893 8.51342 30.4853 8.51342 38.8708H8.51406Z" fill="#A83600"/>
<path d="M50 100C22.4298 100 0 77.5696 0 50C0 22.4294 22.4298 0 50 0C77.5703 0 100 22.4298 100 50C100 77.5696 77.5703 100 50 100ZM50 2.43925C23.7751 2.43925 2.43893 23.7745 2.43893 50.0003C2.43893 76.2252 23.7751 97.5614 50 97.5614C76.2249 97.5614 97.5611 76.2252 97.5611 50.0003C97.5611 23.7748 76.2249 2.43925 50 2.43925Z" fill="#A83600"/>
</svg>
