<svg width="100" height="100" viewBox="0 0 100 100" fill="none" xmlns="http://www.w3.org/2000/svg">
<path fill-rule="evenodd" clip-rule="evenodd" d="M49.9677 98.79H51.7098C49.7981 93.5344 48.5063 89.7411 46.5965 84.4874C44.3794 78.3903 40.7821 77.4413 37.8831 75.732C28.8916 70.4263 27.278 62.2872 29.1551 54.449C40.2415 56.2121 51.0535 57.9332 62.1389 59.6963C65.4773 60.2278 65.7754 62.4404 66.1182 65.3266L69.4803 94.7223C71.8588 93.6931 74.5044 92.2782 76.9475 90.6473C79.3688 89.0319 81.6279 87.2177 83.4666 85.4683C90.5254 78.7504 91.5136 71.3844 91.438 62.0958C86.7731 60.7356 82.1092 59.3755 77.4444 58.0144C72.7312 56.6405 68.4174 53.6285 67.0408 50.0002H49.9686L46.8636 48.7804L31.219 49.9646L30.456 47.7439L29.4158 47.7311C26.4001 39.1308 27.9781 30.1101 37.8831 24.2675C40.7811 22.5581 44.3794 21.6091 46.5965 15.5121C48.5063 10.2584 49.799 6.46414 51.7098 1.20947H49.9677C47.8591 5.97459 46.3713 9.27836 44.2627 14.0435C42.3118 18.4813 38.0617 19.2699 35.3332 20.7303C24.0098 26.7954 21.2886 36.1442 24.5823 47.5926L21.9003 47.5597C22.4217 50.1397 23.0991 51.8025 24.42 52.9803C21.3779 64.1469 24.1994 73.3043 35.3323 79.2664C38.0608 80.7278 42.4394 82.2903 44.2618 85.9533C46.3704 90.7175 47.8582 94.0212 49.9668 98.7882L49.9677 98.79ZM67.4155 36.2108C67.4155 39.4398 69.3928 42.2084 72.2025 43.3699L70.0629 48.3255L84.1148 47.1541C83.6918 43.2122 83.2697 39.2055 82.8467 35.2636C82.4356 31.4275 79.1163 28.4665 75.1607 28.4665C70.8833 28.4665 67.4164 31.9334 67.4164 36.2108H67.4155ZM69.4794 49.9993C69.6244 50.6493 69.9298 51.2409 70.3601 51.7834L71.919 51.9511C73.8389 54.0542 76.1754 55.4582 81.5121 56.5703L97.7328 59.9498C98.2251 57.5011 98.6891 54.1135 98.7329 51.2181H79.2357L77.8464 49.9993L69.4794 50.0002V49.9993Z" fill="#A83600"/>
<path d="M50.3605 97.813L50.7954 98.7684C50.5292 98.7812 50.2667 98.7812 49.9995 98.7812C23.0589 98.7812 1.21704 76.9393 1.21704 49.9987C1.21704 23.058 23.0589 1.2207 49.9995 1.2207C50.3223 1.2207 50.6404 1.22526 50.9631 1.23347C49.2976 5.27748 47.1981 10.853 45.5681 14.536C44.5233 16.8981 42.9654 18.6612 40.7756 20.0168C39.9369 20.5328 39.059 20.9631 38.1638 21.3678C37.4327 21.6988 36.6806 22.0169 35.9749 22.3916C31.5098 24.7837 27.504 28.1003 25.7054 32.9748C24.0107 37.574 24.6205 42.6454 25.9461 47.2583L26.3982 48.8327L23.6834 48.7989C24.0444 50.0242 24.5531 51.2941 25.4264 52.0726L25.9898 52.5758L25.7883 53.3033C24.575 57.7603 24.0763 62.6002 25.7063 67.0225C27.5049 71.9007 31.5098 75.2136 35.9759 77.6057C36.6815 77.984 37.4345 78.2976 38.1647 78.6295C39.0599 79.0379 39.9378 79.4645 40.7765 79.9851C42.9663 81.3352 44.5233 83.0992 45.569 85.4613L50.3615 97.813H50.3605Z" fill="#D1C9B6"/>
<path d="M49.9995 100C22.429 100 0 77.5701 0 50.0005C0 22.4299 22.4299 0 49.9995 0C77.5701 0 100 22.4299 100 50.0005C100 77.5701 77.5701 100 49.9995 100ZM49.9995 2.43862C23.7745 2.43862 2.43862 23.7745 2.43862 50.0005C2.43862 76.2255 23.7745 97.5614 49.9995 97.5614C76.2246 97.5614 97.5605 76.2255 97.5605 50.0005C97.5605 23.7745 76.2246 2.43862 49.9995 2.43862Z" fill="#A83600"/>
</svg>
