<svg width="100" height="100" viewBox="0 0 100 100" fill="none" xmlns="http://www.w3.org/2000/svg">
<path d="M98.7849 51.0017C98.7849 77.9418 76.9417 99.7785 50.0016 99.7785C36.5315 99.7785 24.3349 94.3185 15.5082 85.4918C35.3034 95.2452 59.1102 91.3082 74.7091 75.7092C90.3146 60.1038 94.2451 36.3003 84.495 16.5083C93.3216 25.335 98.7816 37.5284 98.7816 51.0017H98.7849Z" fill="#D1C9B6"/>
<path d="M50 100C22.4298 100 0 77.5696 0 50C0 22.4294 22.4298 0 50 0C77.5703 0 100 22.4298 100 50C100 77.5696 77.5703 100 50 100ZM50 2.43925C23.7751 2.43925 2.43893 23.7745 2.43893 50.0003C2.43893 76.2252 23.7751 97.5614 50 97.5614C76.2249 97.5614 97.5611 76.2252 97.5611 50.0003C97.5611 23.7748 76.2249 2.43925 50 2.43925Z" fill="#A83600"/>
<path fill-rule="evenodd" clip-rule="evenodd" d="M39.4555 45.9439C38.4538 44.3019 37.9995 42.4702 37.9619 40.499C39.6719 39.7673 44.3566 43.2554 47.6728 44.0926C50.7441 45.0192 50.6761 47.6934 47.4564 49.1333C44.4156 50.1422 41.7415 49.119 39.4555 45.9439ZM50.0268 42.6651C45.9253 42.0373 40.704 39.7155 37.4915 37.0341L37.0211 34.097L37.0801 34.0666C38.4091 33.4638 42.2566 32.1794 42.9435 33.2241C43.9827 37.272 46.7838 39.3202 50.9372 39.8264C52.5507 40.7386 51.9604 43.0462 50.0268 42.6651ZM51.3486 37.6155C50.1162 37.5564 48.7711 37.0037 47.3222 35.9287C46.1864 35.2114 45.9843 33.2169 47.3222 32.9915C49.2558 32.784 51.7296 33.5764 52.9996 33.8144C54.7633 34.3581 53.4629 38.1843 51.3486 37.6155ZM53.0354 32.1329C51.6992 32.208 49.0627 31.895 48.2488 31.4836C46.9108 31.0132 47.0897 29.2351 49.3381 28.4141C50.6242 28.0778 52.0427 28.0331 53.5362 28.1601C55.4645 28.0402 56.1066 31.7752 53.0354 32.1329ZM66.9838 73.5892C62.0755 77.1596 56.0315 79.2596 49.5027 79.2596C42.9524 79.2596 36.8941 77.1453 31.9787 73.5606L32.1128 73.4622C37.5505 69.6683 56.518 69.4071 66.9838 73.5892ZM56.8006 34.7177C58.228 34.8071 60.1563 34.6962 61.725 34.6586C63.8392 34.5012 62.7177 37.3686 60.5373 37.975C59.117 38.6619 57.6521 38.7066 56.1728 38.4222C54.3358 38.0788 55.0835 34.4941 56.8006 34.7177ZM61.4853 33.5747C60.4925 33.4405 58.4981 33.4172 57.28 32.8287C55.8526 32.3941 56.4876 28.7575 58.3926 28.9364C59.9541 28.9507 61.2241 29.7735 62.3599 30.9684C63.5477 32.8949 63.1362 33.6802 61.4853 33.5747ZM39.9635 62.2592C40.3588 60.0465 39.3875 60.1002 39.6576 57.2614C40.509 55.648 44.5945 55.1918 47.0826 55.1918C51.4452 55.013 55.7489 55.0952 59.6179 56.4171C61.3136 57.5298 63.0325 58.9786 64.9446 64.082C65.6172 67.3536 64.4223 68.1443 61.1794 67.4735C54.9565 65.3431 40.323 67.7418 40.1137 64.5077C39.8508 64.0426 39.7918 63.3128 39.9635 62.2592ZM28.2492 69.9742L28.0703 70.153C22.9081 64.7975 19.7332 57.5226 19.7332 49.5C19.7332 33.0595 33.0608 19.7332 49.5027 19.7332C59.752 19.7332 68.7993 24.9171 74.1476 32.8126C71.6308 33.1042 67.1483 33.8144 67.1555 32.9468C66.5885 28.6073 62.3814 27.7111 58.6019 26.4196C57.8184 26.0458 58.0348 24.3053 58.3926 23.6918C59.3406 21.7509 56.9366 21.4218 57.1154 23.2964C57.026 24.6935 56.6969 25.7095 55.8526 25.8669C51.1984 25.3142 47.2471 25.5002 45.2742 27.7415C44.1759 28.6967 43.811 31.319 42.6161 31.328C40.4178 31.3405 38.6416 31.7966 37.0872 32.5068L36.9906 32.5211C36.8941 31.7 36.6615 30.938 35.9299 30.049C36.4218 27.6306 35.6598 27.2102 35.1823 27.2407C34.6975 28.3318 35.1751 29.4283 34.5544 29.804C33.6583 30.3406 32.8068 30.3942 31.8123 30.5874C30.147 30.9237 27.4067 31.7895 26.5625 33.1489C25.838 34.6282 27.4872 35.4797 28.6839 34.3224C30.5137 33.5371 32.0967 34.7857 33.7996 34.7391C34.143 35.5548 34.1215 36.4581 33.8157 37.4294C33.771 37.5636 33.5992 38.1092 33.5474 38.2147C32.9571 39.499 31.9035 40.0804 30.5137 40.1627L25.5232 40.372C23.5521 40.4024 23.6719 41.3218 25.5232 41.0678C26.7485 40.9855 31.9769 40.4918 32.3597 41.8888C32.5081 42.4344 31.7694 42.7778 30.7534 42.7099C27.9362 42.7099 25.0832 42.844 22.1622 43.1732C21.1015 43.2179 21.1981 44.3698 22.1622 44.2035C25.5912 43.5989 30.528 43.3234 32.0001 43.9209C32.179 44.0031 32.1719 44.2947 31.9483 44.495C31.1863 45.1748 27.7198 45.2875 25.7557 45.3984C24.9097 45.4359 25.0742 46.2355 25.7557 46.1532C26.1725 46.1246 31.9554 45.7418 31.9554 46.2284C32.5904 53.421 37.2071 55.3797 37.6024 57.0521C38.1032 59.331 37.2804 60.966 37.9011 62.3773C38.3733 63.6044 38.5218 64.7313 38.2964 65.7473C36.937 67.5701 31.1791 67.9046 28.2492 69.9742ZM49.5027 82C31.5512 82 17 67.4502 17 49.5C17 31.5516 31.5512 17 49.5027 17C67.447 17 82 31.5516 82 49.5C82 67.4502 67.447 82 49.5027 82ZM66.6403 54.632C70.9583 55.4083 74.3801 57.231 77.6212 59.2792C76.2171 63.3039 73.9758 66.9422 71.1085 69.967C68.717 69.8096 67.6706 66.3895 67.4095 64.4558C67.1483 62.5508 66.4758 60.1306 65.2505 56.9412C64.5851 55.2437 64.9518 54.3994 66.6403 54.632ZM79.2651 49.5C79.2651 52.1814 78.9055 54.7733 78.2491 57.2453C71.8687 54.0417 67.0965 53.1759 62.7409 52.9058C60.7608 52.0096 50.4811 51.7556 53.4021 45.579C53.8278 44.5183 60.3637 45.3465 63.4797 44.5702C67.4023 43.8243 69.9351 42.345 68.3128 40.6707C66.9462 39.7459 64.5475 42.9048 62.8823 43.1893C61.7697 43.5166 57.5644 44.5255 54.4789 43.2626C53.6489 42.6812 54.2624 40.6045 55.4716 40.5669C62.4869 40.6635 63.1058 40.1108 67.7154 35.3008C68.5972 34.5012 72.4 34.8143 75.3961 34.8143C77.8591 39.1467 79.2651 44.1605 79.2651 49.5Z" fill="#A83600"/>
</svg>
