<svg width="240" height="70" viewBox="0 0 240 70" fill="none" xmlns="http://www.w3.org/2000/svg">
<path d="M47.8124 68.5413C66.337 68.5413 81.3541 53.5242 81.3541 34.9997C81.3541 16.4751 66.337 1.45801 47.8124 1.45801C29.2879 1.45801 14.2708 16.4751 14.2708 34.9997C14.2708 53.5242 29.2879 68.5413 47.8124 68.5413Z" fill="white"/>
<path fill-rule="evenodd" clip-rule="evenodd" d="M47.2098 14.5024C42.3674 14.5024 37.0291 16.1591 32.3581 20.9942C30.5417 22.8711 29.4203 24.9142 28.632 26.7743C28.0451 28.1736 27.0388 31.6072 27.0388 33.358V35.9757C27.0388 39.8417 29.6616 46.0192 33.2951 49.3187C36.001 51.7723 38.7434 53.2394 41.3516 53.9948C41.6025 54.0656 44.8684 54.8399 45.6712 54.8399H48.7381C53.0387 54.8399 60.5309 51.3604 63.5322 46.5099C59.766 49.7846 55.8416 50.9542 52.1061 50.9542C43.3313 50.9542 35.5132 44.0337 35.5132 34.6945C35.5132 25.3568 43.2103 18.4305 52.1061 18.4305C55.8606 18.4305 59.9468 19.5949 63.5752 22.9199C62.477 21.1298 60.2203 19.11 58.557 17.9725C54.9287 15.4824 50.884 14.5024 47.2098 14.5024Z" fill="#00ACC8"/>
<path fill-rule="evenodd" clip-rule="evenodd" d="M77.499 44.3829C74.0369 46.1453 70.9058 42.3653 67.521 42.6242C70.076 44.66 72.6529 47.2931 75.633 48.8877C71.9369 50.0872 69.4358 45.8617 66.051 45.5897C68.2568 48.0003 70.3903 51.0031 73.0853 53.0455C69.247 53.6514 67.4379 49.0868 64.137 48.2891C65.9388 51.0147 67.5765 54.3142 69.9185 56.7525C66.0328 56.7511 64.9602 51.9597 61.8248 50.6552C63.1774 53.6295 64.2792 57.1448 66.2115 59.9193C62.3731 59.3105 62.0632 54.4097 59.1706 52.6313C60.0413 55.7806 60.5794 59.4242 62.0538 62.467C58.3591 61.2653 58.8184 56.3785 56.2416 54.1684C56.6091 57.4146 56.569 61.0976 57.549 64.3329C54.0883 62.5684 55.3053 57.8127 53.1069 55.2271C52.9618 58.4909 52.3464 62.1228 52.8079 65.4712C49.6652 63.1867 51.6121 58.6805 49.8446 55.7827C49.1905 58.9831 48.0151 62.4743 47.9466 65.854C45.2005 63.1058 47.8284 58.9597 46.5356 55.8207C45.3894 58.8802 43.6817 62.144 43.0859 65.4712C40.8037 62.3277 44.047 58.6433 43.2617 55.3409C41.6509 58.1832 39.454 61.1399 38.3449 64.3329C36.5825 60.8709 40.3625 57.7398 40.1029 54.355C38.0678 56.91 35.4348 59.4869 33.8401 62.467C32.6399 58.7709 36.8662 56.2698 37.1367 52.885C34.7268 55.0908 31.7248 57.2243 29.6824 59.9193C29.0757 56.081 33.641 54.2719 34.4388 50.9717C31.7124 52.7727 28.4137 54.4104 25.9746 56.7525C25.976 52.8668 30.7681 51.7942 32.0719 48.6588C29.0976 50.0114 25.583 51.1132 22.8078 53.0455C23.4174 49.2071 28.3181 48.8972 30.0966 46.0046C26.9473 46.876 23.3037 47.4134 20.2601 48.8877C21.4625 45.1931 26.3494 45.6524 28.5595 43.0756C25.3132 43.4431 21.6295 43.403 18.3942 44.3829C20.1595 40.9223 24.9144 42.14 27.5007 39.9409C24.237 39.7958 20.605 39.1803 17.2559 39.6419C19.5412 36.4999 24.0467 38.4461 26.9451 36.6786C23.7441 36.0252 20.2535 34.8491 16.8739 34.7806C19.6221 32.0345 23.7674 34.6624 26.9065 33.3696C23.8476 32.2234 20.5839 30.5157 17.2559 29.9199C20.4001 27.6376 24.0839 30.8817 27.3863 30.0957C24.5447 28.4849 21.5879 26.288 18.3942 25.1789C21.857 23.4165 24.988 27.1965 28.3728 26.9376C25.8171 24.9018 23.2409 22.2688 20.2601 20.6741C23.9563 19.4746 26.4573 23.7001 29.8421 23.9714C27.6364 21.5615 25.5028 18.5588 22.8078 16.5164C26.6462 15.9097 28.4552 20.475 31.7562 21.2727C29.9544 18.5464 28.3174 15.2476 25.9746 12.8086C29.8603 12.81 30.9337 17.6021 34.0676 18.9059C32.7157 15.9316 31.6147 12.417 29.6824 9.64253C33.52 10.2514 33.8299 15.1521 36.7232 16.9306C35.8519 13.7813 35.3138 10.1376 33.8401 7.09482C37.5341 8.29649 37.0754 13.1834 39.6516 15.3935C39.2848 12.1472 39.3242 8.4642 38.3449 5.22889C41.8055 6.99347 40.5878 11.7484 42.787 14.3347C42.9321 11.071 43.5468 7.43899 43.0859 4.09066C46.2279 6.37514 44.2818 10.8807 46.0485 13.7791C46.7026 10.5781 47.8788 7.08753 47.9466 3.70784C50.6926 6.45607 48.0654 10.6021 49.3575 13.7404C50.5038 10.6816 52.2115 7.41785 52.8079 4.09066C55.0902 7.2341 51.8462 10.9178 52.6315 14.2202C54.2415 11.3787 56.4399 8.42191 57.549 5.22889C59.3114 8.69097 55.5314 11.822 55.7902 15.2068C57.826 12.6518 60.4583 10.0749 62.0538 7.09482C63.2532 10.791 59.0277 13.2913 58.7557 16.6768C61.1664 14.4711 64.1691 12.3368 66.2107 9.64253C66.8174 13.4801 62.2528 15.2899 61.4551 18.5901C64.1807 16.7891 67.4802 15.1514 69.9185 12.8086C69.9171 16.695 65.1257 17.7676 63.8213 20.9031C66.7955 19.5497 70.3108 18.4487 73.0853 16.5164C72.4757 20.3547 67.5757 20.6646 65.7966 23.5572C68.9466 22.6859 72.5902 22.1477 75.633 20.6741C74.4314 24.3681 69.5445 23.9094 67.3344 26.4863C70.5799 26.1188 74.2637 26.1582 77.499 25.1789C75.7337 28.6395 70.9788 27.4218 68.3931 29.621C71.6569 29.7661 75.2889 30.3815 78.6372 29.9199C76.3527 33.0619 71.8465 31.1158 68.9488 32.8833C72.1491 33.5366 75.6403 34.7127 79.02 34.7806C76.2718 37.5266 72.1257 34.8994 68.9867 36.1915C72.0455 37.3385 75.31 39.0462 78.6372 39.6419C76.3119 41.4546 73.1364 39.7243 70.7075 39.4727C70.0119 39.3626 69.2922 39.1847 68.5069 39.4655C71.3492 41.0769 74.3059 43.2739 77.499 44.3829ZM13.3374 34.7806C13.3374 53.8949 28.8322 69.3904 47.9466 69.3904C67.0609 69.3904 82.5565 53.8949 82.5565 34.7806C82.5565 15.6662 67.0609 0.171387 47.9466 0.171387C28.8322 0.171387 13.3374 15.6662 13.3374 34.7806Z" fill="#00ACC8"/>
<path fill-rule="evenodd" clip-rule="evenodd" d="M57.4774 32.7428L59.6846 27.6124L54.5535 29.8189L52.4863 24.6309L50.4191 29.8189L45.2887 27.6124L47.4959 32.7428L42.3071 34.81L47.4959 36.8779L45.2887 42.0084L50.4191 39.8012L52.4863 44.9899L54.5535 39.8012L59.6846 42.0084L57.4774 36.8779L62.6655 34.81L57.4774 32.7428Z" fill="#00ACC8"/>
<path fill-rule="evenodd" clip-rule="evenodd" d="M93.1478 29.4906C93.7603 30.1031 94.5186 30.4093 95.4089 30.4093C96.2978 30.4093 97.0423 30.1031 97.6548 29.476C98.2818 28.8482 98.5881 28.0752 98.5881 27.1864C98.5881 26.2961 98.2818 25.537 97.6693 24.9107C97.0561 24.2836 96.2978 23.962 95.4089 23.962C94.5186 23.962 93.7603 24.2836 93.1478 24.9107C92.5345 25.537 92.2283 26.2961 92.2283 27.1864C92.2283 28.1051 92.5345 28.8642 93.1478 29.4906ZM91.5575 23.4523C92.622 22.4308 93.9061 21.9196 95.4089 21.9196C96.911 21.9196 98.1943 22.4308 99.2443 23.4523C100.309 24.4732 100.835 25.712 100.835 27.1864C100.835 28.6586 100.309 29.9135 99.2596 30.9343C98.2089 31.9413 96.9256 32.4517 95.4089 32.4517C93.9061 32.4517 92.622 31.9413 91.5575 30.9343C90.5075 29.9135 89.9825 28.6586 89.9825 27.1864C89.9825 25.712 90.5075 24.4732 91.5575 23.4523Z" fill="#54504F"/>
<path fill-rule="evenodd" clip-rule="evenodd" d="M104.566 26.8801H106.345C107.221 26.8801 107.804 26.3244 107.804 25.4648C107.804 24.6911 107.25 24.1231 106.535 24.1231H104.566V26.8801ZM102.334 32.2475V22.0807H106.593C107.542 22.0807 108.358 22.4008 109.029 23.0578C109.715 23.7002 110.05 24.4877 110.05 25.4363C110.05 26.7335 109.335 27.8572 108.242 28.3238L110.721 32.2475H108.183L106.069 28.8641H104.566V32.2475H102.334Z" fill="#54504F"/>
<path fill-rule="evenodd" clip-rule="evenodd" d="M119.777 22.7814V24.9834C118.917 24.298 117.881 23.9619 116.686 23.9619C115.781 23.9619 115.022 24.2681 114.395 24.8806C113.768 25.4946 113.462 26.2522 113.462 27.1709C113.462 28.0904 113.768 28.848 114.381 29.4605C115.008 30.0584 115.766 30.3661 116.686 30.3661C117.574 30.3661 118.319 30.1029 118.902 29.5772V28.2071H116.234V26.2237H121.003V30.3362C120.054 31.6057 118.45 32.4071 116.686 32.4071C115.154 32.4071 113.87 31.9112 112.805 30.9203C111.74 29.9133 111.215 28.673 111.215 27.1709C111.215 25.6696 111.74 24.4293 112.805 23.4223C113.87 22.4168 115.154 21.9195 116.686 21.9195C117.867 21.9195 118.888 22.2119 119.777 22.7814Z" fill="#54504F"/>
<path fill-rule="evenodd" clip-rule="evenodd" d="M125.61 28.7173H128.192L126.894 26.0485L125.61 28.7173ZM121.614 32.2479L126.908 21.4971L132.203 32.2479H129.811L129.023 30.6284H124.778L123.99 32.2479H121.614Z" fill="#54504F"/>
<path fill-rule="evenodd" clip-rule="evenodd" d="M133.353 32.2478V21.6865L140.18 27.8574V22.081H142.396V32.6408L135.57 26.4859V32.2478H133.353Z" fill="#54504F"/>
<path fill-rule="evenodd" clip-rule="evenodd" d="M144.437 32.2472H146.682V22.0805H144.437V32.2472Z" fill="#54504F"/>
<path fill-rule="evenodd" clip-rule="evenodd" d="M147.906 32.2478L153.26 24.1227H148.927V22.081H156.994L151.685 30.2054H156.775V32.2478H147.906Z" fill="#54504F"/>
<path fill-rule="evenodd" clip-rule="evenodd" d="M161.106 28.7173H163.688L162.39 26.0485L161.106 28.7173ZM157.11 32.2479L162.403 21.4971L167.699 32.2479H165.307L164.519 30.6284H160.274L159.486 32.2479H157.11Z" fill="#54504F"/>
<path fill-rule="evenodd" clip-rule="evenodd" d="M169.52 32.2478V24.1227H166.763V22.081H174.48V24.1227H171.765V32.2478H169.52Z" fill="#54504F"/>
<path fill-rule="evenodd" clip-rule="evenodd" d="M175.717 32.2472H177.963V22.0805H175.717V32.2472Z" fill="#54504F"/>
<path fill-rule="evenodd" clip-rule="evenodd" d="M182.703 29.4906C183.315 30.1031 184.074 30.4093 184.964 30.4093C185.853 30.4093 186.597 30.1031 187.21 29.476C187.838 28.8482 188.144 28.0752 188.144 27.1864C188.144 26.2961 187.838 25.537 187.224 24.9107C186.611 24.2836 185.853 23.962 184.964 23.962C184.074 23.962 183.315 24.2836 182.703 24.9107C182.09 25.537 181.783 26.2961 181.783 27.1864C181.783 28.1051 182.09 28.8642 182.703 29.4906ZM181.112 23.4523C182.177 22.4308 183.461 21.9196 184.964 21.9196C186.465 21.9196 187.75 22.4308 188.799 23.4523C189.864 24.4732 190.39 25.712 190.39 27.1864C190.39 28.6586 189.864 29.9135 188.815 30.9343C187.763 31.9413 186.481 32.4517 184.964 32.4517C183.461 32.4517 182.177 31.9413 181.112 30.9343C180.062 29.9135 179.537 28.6586 179.537 27.1864C179.537 25.712 180.062 24.4732 181.112 23.4523Z" fill="#54504F"/>
<path fill-rule="evenodd" clip-rule="evenodd" d="M191.89 32.2478V21.6865L198.716 27.8574V22.081H200.932V32.6408L194.107 26.4859V32.2478H191.89Z" fill="#54504F"/>
<path fill-rule="evenodd" clip-rule="evenodd" d="M210.95 29.4906C211.563 30.1031 212.322 30.4093 213.212 30.4093C214.101 30.4093 214.845 30.1031 215.459 29.476C216.086 28.8482 216.392 28.0752 216.392 27.1864C216.392 26.2961 216.086 25.537 215.472 24.9107C214.859 24.2836 214.101 23.962 213.212 23.962C212.322 23.962 211.563 24.2836 210.95 24.9107C210.338 25.537 210.031 26.2961 210.031 27.1864C210.031 28.1051 210.338 28.8642 210.95 29.4906ZM209.36 23.4523C210.425 22.4308 211.709 21.9196 213.212 21.9196C214.713 21.9196 215.998 22.4308 217.047 23.4523C218.112 24.4732 218.638 25.712 218.638 27.1864C218.638 28.6586 218.112 29.9135 217.063 30.9343C216.011 31.9413 214.729 32.4517 213.212 32.4517C211.709 32.4517 210.425 31.9413 209.36 30.9343C208.311 29.9135 207.785 28.6586 207.785 27.1864C207.785 25.712 208.311 24.4732 209.36 23.4523Z" fill="#54504F"/>
<path fill-rule="evenodd" clip-rule="evenodd" d="M220.138 32.2478V22.081H226.833V24.1227H222.385V26.2081H226.44V28.2074H222.385V32.2478H220.138Z" fill="#54504F"/>
<path fill-rule="evenodd" clip-rule="evenodd" d="M92.4179 47.2042V39.0791H89.6616V37.0374H97.3777V39.0791H94.6644V47.2042H92.4179Z" fill="#54504F"/>
<path fill-rule="evenodd" clip-rule="evenodd" d="M98.4556 37.0371H100.701V42.8573C100.701 44.5053 101.401 45.3227 102.787 45.3227C104.173 45.3227 104.858 44.5053 104.858 42.8573V37.0371H107.105V43.0914C107.105 44.463 106.697 45.5122 105.88 46.2575C105.063 47.0005 104.028 47.3651 102.787 47.3651C101.533 47.3651 100.497 47.0005 99.6806 46.2713C98.8639 45.5268 98.4556 44.4768 98.4556 43.0914V37.0371Z" fill="#54504F"/>
<path fill-rule="evenodd" clip-rule="evenodd" d="M111.216 41.8366H112.995C113.871 41.8366 114.454 41.2824 114.454 40.4227C114.454 39.6491 113.9 39.0796 113.185 39.0796H111.216V41.8366ZM108.984 47.204V37.0372H113.243C114.192 37.0372 115.008 37.3588 115.679 38.0158C116.365 38.6567 116.7 39.4442 116.7 40.3928C116.7 41.6915 115.985 42.8137 114.892 43.2803L117.371 47.204H114.833L112.719 43.8207H111.216V47.204H108.984Z" fill="#54504F"/>
<path fill-rule="evenodd" clip-rule="evenodd" d="M118.551 47.2042V37.0374H120.798V41.6027L124.43 37.0374H127.142L123.059 42.0257L127.303 47.2042H124.561L120.798 42.566V47.2042H118.551Z" fill="#54504F"/>
<path fill-rule="evenodd" clip-rule="evenodd" d="M128.409 47.2039H130.655V37.0371H128.409V47.2039Z" fill="#54504F"/>
<path fill-rule="evenodd" clip-rule="evenodd" d="M140.85 37.9272V40.2759C139.946 39.371 138.895 38.9196 137.7 38.9196C136.795 38.9196 136.036 39.2259 135.409 39.8384C134.782 40.4509 134.476 41.2099 134.476 42.1287C134.476 43.0467 134.782 43.8065 135.396 44.4183C136.022 45.0169 136.78 45.3232 137.7 45.3232C138.895 45.3232 139.946 44.8696 140.85 43.9655V46.3141C139.96 47.0148 138.91 47.3648 137.7 47.3648C136.168 47.3648 134.884 46.8697 133.819 45.8766C132.754 44.8696 132.23 43.6308 132.23 42.1287C132.23 40.6259 132.754 39.3856 133.819 38.3801C134.884 37.3731 136.168 36.878 137.7 36.878C138.91 36.878 139.96 37.228 140.85 37.9272Z" fill="#54504F"/>
<path fill-rule="evenodd" clip-rule="evenodd" d="M148.125 44.1123C149.058 44.9283 150.197 45.3373 151.553 45.3373C152.676 45.3373 153.333 44.9283 153.333 44.3318C153.333 43.9957 153.172 43.7332 152.866 43.5428C152.56 43.3533 151.947 43.0915 151.057 42.7707C149.322 42.1428 148.315 41.2525 148.315 39.7359C148.315 38.8455 148.665 38.1609 149.351 37.6512C150.051 37.1393 150.911 36.8775 151.947 36.8775C152.983 36.8775 153.887 37.1109 154.674 37.5629V39.7942C153.974 39.2262 153.099 38.9338 152.034 38.9338C151.101 38.9338 150.576 39.2546 150.576 39.722C150.576 40.0137 150.707 40.2317 151.101 40.465L151.597 40.7129L152.268 40.9762L152.91 41.2241C153.887 41.6171 154.572 42.0415 154.967 42.4928C155.374 42.9457 155.579 43.5582 155.579 44.3318C155.579 46.1248 154.208 47.3651 151.656 47.3651C150.358 47.3651 149.175 47.0589 148.125 46.4464V44.1123Z" fill="#54504F"/>
<path fill-rule="evenodd" clip-rule="evenodd" d="M158.509 47.2042V39.0791H155.752V37.0374H163.469V39.0791H160.755V47.2042H158.509Z" fill="#54504F"/>
<path fill-rule="evenodd" clip-rule="evenodd" d="M166.53 43.6751H169.112L167.814 41.0049L166.53 43.6751ZM162.534 47.2043L167.828 36.4549L173.123 47.2043H170.731L169.943 45.5848H165.698L164.911 47.2043H162.534Z" fill="#54504F"/>
<path fill-rule="evenodd" clip-rule="evenodd" d="M174.945 47.2042V39.0791H172.188V37.0374H179.905V39.0791H177.191V47.2042H174.945Z" fill="#54504F"/>
<path fill-rule="evenodd" clip-rule="evenodd" d="M181.084 47.2042V37.0374H188.026V39.0791H183.33V40.991H187.72V42.9889H183.33V45.1618H188.128V47.2042H181.084Z" fill="#54504F"/>
<path fill-rule="evenodd" clip-rule="evenodd" d="M189.483 44.1123C190.415 44.9283 191.554 45.3373 192.91 45.3373C194.033 45.3373 194.69 44.9283 194.69 44.3318C194.69 43.9957 194.53 43.7332 194.224 43.5428C193.917 43.3533 193.303 43.0915 192.414 42.7707C190.679 42.1428 189.673 41.2525 189.673 39.7359C189.673 38.8455 190.021 38.1609 190.708 37.6512C191.408 37.1393 192.268 36.8775 193.303 36.8775C194.339 36.8775 195.244 37.1109 196.031 37.5629V39.7942C195.331 39.2262 194.456 38.9338 193.391 38.9338C192.458 38.9338 191.933 39.2546 191.933 39.722C191.933 40.0137 192.064 40.2317 192.458 40.465L192.955 40.7129L193.626 40.9762L194.267 41.2241C195.244 41.6171 195.93 42.0415 196.324 42.4928C196.731 42.9457 196.937 43.5582 196.937 44.3318C196.937 46.1248 195.565 47.3651 193.013 47.3651C191.715 47.3651 190.532 47.0589 189.483 46.4464V44.1123Z" fill="#54504F"/>
</svg>
