<svg width="240" height="58" viewBox="0 0 240 58" fill="none" xmlns="http://www.w3.org/2000/svg">
<g clip-path="url(#clip0_1725_4889)">
<path fill-rule="evenodd" clip-rule="evenodd" d="M67.291 9.11002C77.439 10.157 85.354 18.656 85.357 28.99C85.361 40.034 76.33 48.991 65.188 48.995C54.044 48.999 45.009 40.048 45.004 29.004C45.001 17.959 54.031 9.00302 65.174 8.99902C65.889 8.99902 66.595 9.03902 67.291 9.11002Z" fill="white"/>
<path fill-rule="evenodd" clip-rule="evenodd" d="M68.332 47.598C66.588 47.89 64.859 47.934 63.185 47.761C57.776 47.2 52.904 44.351 49.768 40.069L80.581 31.313C81.024 31.186 80.91 30.764 80.544 30.789L67.625 31.684C69.446 29.942 70.83 27.807 70.663 24.853C70.322 20.069 65.409 15.401 56.273 12.328C58.03 11.405 59.958 10.74 62.025 10.397C63.769 10.106 65.497 10.059 67.172 10.234C75.465 11.094 82.498 17.326 83.945 25.873C85.688 36.146 78.698 45.872 68.332 47.598ZM59.854 29.436C58.319 35.153 54.001 37.72 49.09 39.076C47.776 37.02 46.842 34.675 46.411 32.123C45.101 24.403 48.725 16.992 55.005 13.051C59.616 16.547 61.544 23.141 59.854 29.436Z" fill="#E62D22"/>
<path fill-rule="evenodd" clip-rule="evenodd" d="M190.304 33.9569C188.704 33.9569 187.955 34.5379 187.955 35.5459C187.955 36.6059 188.858 36.9359 190.485 37.5409C192.577 38.5739 195.004 39.0289 195.004 42.5609C195.004 45.6139 192.55 47.2789 189.272 47.2789C187.258 47.2789 185.656 46.9269 184.417 46.3969V43.3939C185.579 43.9249 187.076 44.4539 188.625 44.4539C190.407 44.4539 191.311 43.8469 191.311 42.6869C191.311 41.3239 190.098 41.1739 187.671 40.1379C186.019 39.4069 184.442 38.2719 184.442 35.6479C184.442 32.5959 186.793 31.1569 190.047 31.1569C191.777 31.1569 193.248 31.5599 194.074 31.8639V34.7899C193.248 34.4119 191.777 33.9569 190.304 33.9569ZM189.768 20.0439H183.116V26.6189H179.465V10.9579H183.116V17.1969H189.768V10.9579H193.446V26.6189H189.768V20.0439ZM171.951 17.0979C174.044 18.1319 176.471 18.5869 176.471 22.1189C176.471 25.1709 174.017 26.8369 170.738 26.8369C168.725 26.8369 167.123 26.4839 165.884 25.9529V22.9519C167.046 23.4819 168.543 24.0109 170.092 24.0109C171.874 24.0109 172.778 23.4049 172.778 22.2439C172.778 20.8819 171.564 20.7319 169.137 19.6959C167.485 18.9649 165.909 17.8289 165.909 15.2049C165.909 12.1519 168.258 10.7139 171.512 10.7139C173.242 10.7139 174.715 11.1179 175.541 11.4209V14.3479C174.715 13.9689 173.242 13.5149 171.77 13.5149C170.17 13.5149 169.421 14.0949 169.421 15.1029C169.421 16.1629 170.325 16.4929 171.951 17.0979ZM165.037 31.3999H168.238V47.0599H164.235L158.874 38.5869C158.376 37.8089 157.852 36.8789 157.483 36.1749H157.433C157.458 36.8539 157.511 37.6579 157.511 38.4119V47.0599H154.31V31.3999H156.573C157.648 31.3999 158.646 31.9489 159.214 32.8529L163.623 39.8699C164.12 40.6499 164.698 41.6809 165.037 42.4099H165.118C165.064 41.7059 165.037 40.7249 165.037 40.0219V31.3999ZM159.258 10.9209H162.866V26.6219H159.258V10.9209ZM157.226 26.6229H154.319C153.35 26.6229 152.455 26.1879 151.861 25.4299L147.197 19.4699L147.072 19.3159L147.071 19.5949V26.6139H143.419V10.9519H147.071V17.5829L147.072 17.8649L147.2 17.7019L152.238 10.9519H156.038L150.544 17.9489L150.445 18.0729L150.544 18.1979L157.226 26.6229ZM138.66 26.6169C137.578 26.6169 136.558 26.0479 135.999 25.1309L133.158 20.4819H131.356V26.6169H127.708V10.9569H134.214C135.886 10.9569 137.195 11.3889 138.105 12.2429C139.012 13.0939 139.473 14.2589 139.473 15.7059C139.473 16.4419 139.274 17.1859 138.885 17.9199C138.5 18.6399 137.819 19.2309 136.858 19.6749L136.648 19.7709L141.081 26.6169H138.66ZM135.235 14.3469C134.859 13.9339 134.27 13.7259 133.487 13.7259H131.356V18.1249H133.487C134.251 18.1249 134.837 17.9169 135.222 17.5069C135.602 17.0999 135.795 16.5729 135.795 15.9379C135.795 15.2889 135.606 14.7539 135.235 14.3469ZM130.28 32.6829C131.188 33.5339 131.648 34.6999 131.648 36.1469C131.648 36.8829 131.449 37.6269 131.06 38.3609C130.676 39.0819 129.995 39.6719 129.034 40.1159L128.823 40.2119L133.256 47.0579H130.835C129.753 47.0579 128.733 46.4889 128.174 45.5719L125.333 40.9219H123.531V47.0579H119.883V31.3969H126.389C128.061 31.3969 129.37 31.8299 130.28 32.6829ZM127.412 34.7879C127.034 34.3739 126.445 34.1669 125.662 34.1669H123.531V38.5659H125.662C126.426 38.5659 127.012 38.3589 127.397 37.9469C127.778 37.5409 127.971 37.0139 127.971 36.3779C127.971 35.7289 127.783 35.1939 127.412 34.7879ZM122.605 25.4189C122.059 25.9059 121.377 26.2629 120.579 26.4849C119.768 26.7099 118.84 26.8279 117.823 26.8279C116.806 26.8279 115.871 26.7099 115.042 26.4839C114.225 26.2629 113.512 25.9039 112.919 25.4149C112.333 24.9309 111.875 24.3019 111.559 23.5469C111.242 22.7839 111.081 21.8469 111.081 20.7619V10.9569H114.733V20.6589C114.733 21.6489 114.986 22.4479 115.484 23.0309C115.99 23.6269 116.778 23.9279 117.823 23.9279C118.888 23.9279 119.681 23.6269 120.18 23.0299C120.667 22.4439 120.916 21.6459 120.916 20.6589V10.9569H124.332V20.7619C124.332 21.8509 124.18 22.7899 123.878 23.5499C123.58 24.3059 123.151 24.9359 122.605 25.4189ZM105.808 44.1699H99.399L98.788 46.0079C98.577 46.6359 97.988 47.0579 97.32 47.0579H94.69L100.649 31.3969H104.843L110.701 47.0579H106.746L105.808 44.1699ZM103.491 37.3929C103.172 36.4799 102.854 35.5889 102.668 34.8699H102.615C102.401 35.5649 102.083 36.5039 101.763 37.3929L100.33 41.3519H104.871L103.491 37.3929ZM106.985 13.8819H104.201V26.6219H100.549V13.8819H96.256V10.9579H108.52V12.3599C108.52 13.1979 107.831 13.8819 106.985 13.8819ZM116.532 47.0559H112.881V31.4039H116.533L116.532 47.0559ZM139.138 33.2569V44.2379H144.966V47.0589H135.486V31.3969H137.261C138.296 31.3969 139.138 32.2309 139.138 33.2569ZM150.966 47.0559H147.315V31.4039H150.968L150.966 47.0559ZM181.484 32.8189C181.484 33.6479 180.804 34.3219 179.967 34.3219H175.24V37.6899H180.548V40.3059H175.24V44.1369H181.484V47.0609H171.589V31.3979H181.484V32.8189Z" fill="#D9DFDE"/>
</g>
<defs>
<clipPath id="clip0_1725_4889">
<rect width="150" height="40" fill="white" transform="translate(45 9)"/>
</clipPath>
</defs>
</svg>
