<svg width="23" height="20" viewBox="0 0 23 20" fill="none" xmlns="http://www.w3.org/2000/svg">
<path d="M5.40479 14.6715C5.40479 15.2237 5.8525 15.6715 6.40479 15.6715C6.95707 15.6715 7.40479 15.2237 7.40479 14.6715L7.40479 4.18618L10.2939 7.07527C10.6844 7.4658 11.3176 7.4658 11.7081 7.07527C12.0986 6.68475 12.0986 6.05158 11.7081 5.66106L7.11189 1.06487C6.72137 0.674342 6.0882 0.674341 5.69768 1.06487L1.10149 5.66106C0.710963 6.05158 0.710963 6.68475 1.10149 7.07527C1.49201 7.46579 2.12518 7.46579 2.5157 7.07527L5.40479 4.18618L5.40479 14.6715ZM18.4048 5.32832C18.4048 4.77604 17.9571 4.32832 17.4048 4.32832C16.8525 4.32832 16.4048 4.77604 16.4048 5.32832L16.4048 15.8136L13.5157 12.9245C13.1252 12.534 12.492 12.534 12.1015 12.9245C11.711 13.315 11.711 13.9482 12.1015 14.3387L16.6977 18.9349C17.0882 19.3254 17.7214 19.3254 18.1119 18.9349L22.7081 14.3387C23.0986 13.9482 23.0986 13.315 22.7081 12.9245C22.3176 12.534 21.6844 12.534 21.2939 12.9245L18.4048 15.8136V5.32832Z" fill="#625747"/>
</svg>
