<svg width="557" height="270" viewBox="0 0 557 270" fill="none" xmlns="http://www.w3.org/2000/svg">
<path d="M316.277 269.628H320.12L310.31 247.04H309.096L299.287 269.628H303.096L304.68 265.925H314.693L316.277 269.628ZM313.411 262.862H305.962L309.703 253.672L313.411 262.862ZM326.343 265.184C328.062 268.18 331.096 269.998 334.736 269.998C339.017 269.998 342.186 267.44 342.186 263.568C342.186 260.64 340.467 258.89 336.86 257.24L334.365 256.096C332.175 254.985 331.399 254.682 331.264 252.931C331.264 251.181 332.748 250.239 334.635 250.239C336.523 250.239 338.141 251.181 339.321 252.931L341.815 251.013C340.433 248.622 337.77 247.04 334.635 247.04C330.792 247.04 327.624 249.43 327.624 253.066C327.624 256.028 329.579 257.745 332.815 259.226L335.276 260.37C337.602 261.448 338.546 262.121 338.546 263.703C338.546 265.588 336.995 266.8 334.703 266.8C332.141 266.8 330.354 265.42 328.871 263.266L326.343 265.184ZM356.432 269.628H360.006V250.608H367.523V247.411H348.949V250.608H356.432V269.628ZM387.701 269.628H391.545L381.735 247.04H380.521L370.712 269.628H374.521L376.105 265.925H386.117L387.701 269.628ZM384.836 262.862H377.387L381.128 253.672L384.836 262.862ZM414.285 247.411V262.39L400.767 247.04H399.52V269.628H403.093V254.581L416.645 269.998H417.858V247.411H414.285ZM442.857 269.628H446.7L436.89 247.04H435.677L425.868 269.628H429.677L431.261 265.925H441.273L442.857 269.628ZM439.991 262.862H432.542L436.284 253.672L439.991 262.862ZM468.005 266.531L471.915 262.39C473.466 260.741 474.645 259.327 475.421 258.082C476.229 256.836 476.634 255.456 476.634 253.941C476.634 250.036 473.499 247.04 469.252 247.04C464.701 247.04 461.768 250.507 461.768 254.143C461.768 254.816 461.836 255.456 462.004 256.062H465.611C465.51 255.389 465.443 254.816 465.443 254.345C465.443 252.056 466.96 250.305 469.218 250.305C471.476 250.305 472.926 251.955 472.926 254.211C472.926 256.096 471.847 257.711 469.387 260.304L461.465 268.82V269.628H477.41V266.531H468.005ZM485.689 258.317C485.689 264.881 488.487 269.998 494.183 269.998C499.914 269.998 502.644 264.881 502.644 258.317C502.644 254.917 501.937 252.191 500.487 250.138C499.071 248.084 496.982 247.04 494.183 247.04C491.386 247.04 489.295 248.084 487.846 250.171C486.397 252.224 485.689 254.951 485.689 258.317ZM498.937 258.351C498.937 263.602 497.454 266.733 494.183 266.733C490.914 266.733 489.397 263.602 489.397 258.351C489.397 252.999 490.981 250.305 494.183 250.305C497.352 250.305 498.937 252.999 498.937 258.351ZM517.228 266.531L521.138 262.39C522.688 260.741 523.868 259.327 524.643 258.082C525.452 256.836 525.857 255.456 525.857 253.941C525.857 250.036 522.722 247.04 518.474 247.04C513.923 247.04 510.991 250.507 510.991 254.143C510.991 254.816 511.058 255.456 511.227 256.062H514.834C514.733 255.389 514.665 254.816 514.665 254.345C514.665 252.056 516.182 250.305 518.441 250.305C520.699 250.305 522.149 251.955 522.149 254.211C522.149 256.096 521.07 257.711 518.609 260.304L510.688 268.82V269.628H526.632V266.531H517.228ZM551.193 262.693H548.159V255.86H544.586V262.693H537.945L544.249 247.411H540.575L533.462 264.781V265.757H544.586V269.628H548.159V265.757H551.193V262.693Z" fill="#A83600"/>
<path d="M319.138 18.0769C319.138 13.5999 315.531 11.1422 311.553 11.1422C310.542 11.1422 309.598 11.2432 308.722 11.445V6.22733H317.891V3.02942H305.216V14.2057H310.34C313.61 14.2057 315.464 15.6192 315.464 18.1443C315.464 20.7024 313.509 22.3518 310.846 22.3518C308.452 22.3518 306.8 21.1063 305.452 19.053L302.957 20.8369C304.475 23.6985 307.272 25.6173 310.947 25.6173C315.363 25.6173 319.138 22.5539 319.138 18.0769ZM337.632 22.2509C336.654 22.3518 335.946 22.4194 335.44 22.4194C333.283 22.4194 332.171 21.6785 332.171 19.5578V11.782H337.092V8.71857H332.171V4.37607H328.598V8.71857H325.901V11.782H328.598V19.8608C328.598 23.7318 330.89 25.6173 334.699 25.6173C335.541 25.6173 336.52 25.4824 337.632 25.2468V22.2509ZM360.103 14.9123C360.103 11.0078 357.743 8.34823 353.968 8.34823C351.979 8.34823 350.293 9.05535 349.181 10.368V0H345.641V25.2468H349.181V15.4172C349.181 13.162 350.765 11.5799 352.956 11.5799C355.148 11.5799 356.563 13.1284 356.563 15.4172V25.2468H360.103V14.9123Z" fill="#A83600"/>
<path d="M526.632 83.6802V55.6587H532.028C541.135 55.6587 547.003 60.9131 547.003 69.535C547.003 78.0891 540.999 83.6802 532.028 83.6802H526.632ZM517.526 91.8975H532.095C546.193 92.0989 556.581 82.3991 556.379 69.535C556.581 56.4001 546.193 47.3061 532.095 47.4412H517.526V91.8975Z" fill="#A83600"/>
<path d="M440.562 55.4541H448.185C452.299 55.4541 454.929 58.0147 454.929 61.7863C454.929 65.626 452.435 68.1864 448.185 68.1864H440.562V55.4541ZM467.667 90.0134L456.413 74.4511C461.27 72.0261 464.237 67.4453 464.237 61.7863C464.237 53.2325 457.493 47.4397 448.185 47.4397H431.455V91.896H440.562V76.2007H447.241L459.368 92.7065L467.667 90.0134Z" fill="#A83600"/>
<path d="M410.614 69.6651C410.614 78.2212 404.476 84.2825 396.313 84.2825C388.084 84.2825 382.013 78.2212 382.013 69.6651C382.013 61.111 388.084 55.0495 396.313 55.0495C404.476 55.0495 410.614 61.2462 410.614 69.6651ZM372.638 69.6651C372.435 82.3956 383.429 92.9719 396.245 92.7029C409.061 92.9719 420.192 82.3956 419.99 69.6651C420.192 56.9346 409.061 46.3599 396.245 46.6288C383.429 46.3599 372.435 56.9346 372.638 69.6651Z" fill="#A83600"/>
<path d="M360.627 46.635L348.638 75.313L339.047 63.0547V51.8724H330.878V63.0929L321.29 75.4486L309.293 46.6341L300.317 49.4741L317.326 92.7077H320.294L334.997 71.7635L349.633 92.7077H352.602L369.61 49.4745L360.639 46.6358L360.627 46.635Z" fill="#A83600"/>
<path d="M481.439 91.896L507.866 83.2308L505.707 75.2149L487.509 81.1201V47.4397H478.403V91.896H481.439Z" fill="#A83600"/>
<path d="M493.917 150.326H477.796L485.889 131.533L493.917 150.326ZM487.374 113.279H484.339L465.518 156.119V158.544H506.126V156.119L487.374 113.279Z" fill="#A83600"/>
<path d="M331.761 134.978L305.927 113.279H302.958V158.543H312.065V130.361L331.761 145.844V159.361L340.868 159.352V114.088H331.761V134.978Z" fill="#A83600"/>
<path d="M352.267 136.318C352.064 149.049 363.058 159.625 375.875 159.356C388.691 159.625 399.821 149.049 399.619 136.318C399.821 123.588 388.691 113.013 375.875 113.282C363.058 113.013 352.064 123.588 352.267 136.318ZM390.243 136.318C390.243 144.874 384.105 150.936 375.942 150.936C367.713 150.936 361.642 144.874 361.642 136.318C361.642 127.764 367.713 121.703 375.942 121.703C384.105 121.703 390.243 127.9 390.243 136.318Z" fill="#A83600"/>
<path d="M451.692 113.279L432.872 129.288L414.054 113.279H411.085V158.543H420.191V130.607L431.388 140.324H434.356L445.554 130.607V158.543H454.659V113.279H451.692Z" fill="#A83600"/>
<path d="M517.053 158.543H531.623C545.72 158.745 556.108 149.045 555.906 136.181C556.108 123.046 545.72 113.952 531.623 114.087H517.053V158.543ZM526.16 150.326V122.305H531.555C540.662 122.305 546.53 127.559 546.53 136.181C546.53 144.735 540.526 150.326 531.555 150.326H526.16Z" fill="#A83600"/>
<path d="M451.692 179.931L432.872 195.94L414.054 179.931H411.085V225.196H420.191V197.259L431.388 206.977H434.356L445.554 197.259V225.196H454.659V179.931H451.692Z" fill="#A83600"/>
<path d="M472.845 225.197H503.604V216.98H481.952V205.729H497.264V197.984H481.952V188.958H502.795V180.741H472.845V225.197Z" fill="#A83600"/>
<path d="M384.037 216.978H367.917L376.01 198.185L384.037 216.978ZM377.494 179.931H374.459L355.639 222.771V225.196H396.247V222.771L377.494 179.931Z" fill="#A83600"/>
<path d="M340.868 225.195H324.677C310.58 225.397 300.192 215.697 300.394 202.833C300.192 189.698 310.58 180.604 324.677 180.739H340.868V188.957H324.745C315.639 188.957 309.77 194.211 309.77 202.833C309.77 211.387 315.774 216.978 324.745 216.978H331.761V207.313H340.868V225.195Z" fill="#A83600"/>
<path d="M536.056 225.862L513.17 218.357L515.324 210.328L529.986 215.086V180.073H533.023L555.909 187.577L553.755 195.606L539.093 190.849V225.862H536.056Z" fill="#A83600"/>
<path fill-rule="evenodd" clip-rule="evenodd" d="M106.491 0.615259C65.2794 3.34814 41.602 29.745 25.3313 51.302C-3.9331 90.0735 -10.3586 157.8 19.4514 205.802C28.3229 220.088 37.5958 233.382 49.8662 241.507C60.8024 248.749 80.1717 258.652 94.0712 263.498C115.567 270.992 129.103 271.385 152.387 267.827C182.204 263.269 197.367 252.487 215.849 233.463C221.83 227.306 225.483 223.511 230.986 215.021C248.494 188.01 266.071 156.897 255.621 114.325C245.457 72.9204 240.53 45.6744 210.103 27.5681C175.68 7.08311 155.463 -2.63245 106.491 0.615036V0.615259Z" fill="#A83600"/>
<path fill-rule="evenodd" clip-rule="evenodd" d="M129.377 54.8853C171.818 54.8853 206.222 89.2416 206.222 131.623C206.222 174.005 171.818 208.361 129.377 208.361C86.9356 208.361 52.5312 174.005 52.5312 131.623C52.5312 89.2416 86.9356 54.8853 129.377 54.8853Z" fill="url(#paint0_linear_472_2337)"/>
<path fill-rule="evenodd" clip-rule="evenodd" d="M104.551 122.847C102.076 118.79 100.949 114.273 100.858 109.405C105.086 107.598 116.664 116.209 124.865 118.275C132.453 120.562 132.288 127.162 124.329 130.72C116.812 133.209 110.202 130.684 104.551 122.847ZM130.681 114.753C120.543 113.203 107.635 107.47 99.6934 100.85L98.5309 93.6031L98.6787 93.5288C101.965 92.0363 111.476 88.8651 113.174 91.4464C115.741 101.44 122.667 106.493 132.934 107.746C136.923 109.996 135.464 115.693 130.681 114.753ZM133.949 102.288C130.903 102.14 127.578 100.776 123.996 98.1212C121.19 96.3515 120.69 91.4279 123.996 90.8739C128.779 90.3582 134.892 92.3135 138.031 92.9035C142.389 94.2484 139.175 103.69 133.949 102.288ZM138.123 88.7544C134.818 88.9382 128.298 88.1646 126.287 87.1501C122.98 85.9888 123.424 81.6001 128.982 79.5725C132.158 78.7418 135.667 78.6316 139.359 78.9452C144.124 78.6507 145.713 87.8688 138.123 88.7544ZM172.6 191.088C160.468 199.902 145.528 205.083 129.389 205.083C113.193 205.083 98.2175 199.864 86.0663 191.014L86.3982 190.775C99.8418 181.407 146.728 180.762 172.6 191.088ZM147.43 95.1342C150.957 95.3561 155.722 95.0791 159.601 94.9859C164.826 94.5989 162.055 101.679 156.664 103.174C153.155 104.869 149.535 104.98 145.878 104.28C141.336 103.432 143.183 94.5805 147.43 95.1342ZM159.009 92.3131C156.553 91.9812 151.621 91.9261 148.612 90.4694C145.085 89.3999 146.654 80.4208 151.363 80.863C155.223 80.899 158.363 82.9285 161.168 85.8777C164.105 90.6348 163.089 92.5709 159.009 92.3131ZM105.807 163.117C106.785 157.658 104.384 157.787 105.05 150.781C107.155 146.798 117.255 145.673 123.406 145.673C134.189 145.231 144.827 145.434 154.391 148.698C158.584 151.445 162.831 155.022 167.559 167.616C169.221 175.692 166.266 177.647 158.251 175.987C142.868 170.732 106.694 176.651 106.177 168.666C105.529 167.523 105.381 165.717 105.807 163.117ZM76.8509 182.163L76.4086 182.606C63.6471 169.386 55.7982 151.426 55.7982 131.623C55.7982 91.0402 88.7443 58.1468 129.389 58.1468C154.725 58.1468 177.088 70.9436 190.309 90.4318C184.086 91.1505 173.006 92.903 173.025 90.7635C171.621 80.0514 161.225 77.8395 151.881 74.6494C149.942 73.7276 150.477 69.4317 151.363 67.9181C153.709 63.1255 147.763 62.3135 148.206 66.9416C147.984 70.3896 147.172 72.8969 145.085 73.2839C133.581 71.9203 123.812 72.3811 118.936 77.9116C116.221 80.273 115.317 86.7444 112.363 86.7635C106.932 86.7995 102.539 87.9243 98.6979 89.6767L98.4566 89.7129C98.217 87.6854 97.6438 85.8037 95.8349 83.6094C97.053 77.6368 95.1705 76.6031 93.9889 76.6769C92.7884 79.3683 93.9697 82.0787 92.4366 83.0025C90.2202 84.3285 88.1154 84.4592 85.6592 84.9369C81.5408 85.7676 74.7638 87.9052 72.6775 91.2625C70.8866 94.9135 74.9668 97.015 77.9225 94.1568C82.447 92.2199 86.3602 95.3005 90.5717 95.1882C91.4207 97.1987 91.3655 99.4296 90.6093 101.827C90.4975 102.159 90.0737 103.505 89.9443 103.763C88.4854 106.934 85.8811 108.372 82.447 108.575L70.1113 109.091C65.2354 109.165 65.5316 111.433 70.1113 110.807C73.1394 110.604 86.0659 109.387 87.0082 112.835C87.3761 114.181 85.5492 115.029 83.0378 114.863C76.076 114.863 69.021 115.194 61.801 116.006C59.1778 116.116 59.4189 118.957 61.801 118.551C70.2767 117.057 82.4831 116.376 86.1209 117.85C86.5652 118.053 86.5463 118.772 85.9915 119.27C84.109 120.947 75.5404 121.224 70.683 121.501C68.5958 121.594 69.0021 123.566 70.683 123.363C71.7165 123.289 86.0107 122.349 86.0107 123.547C87.5798 141.304 98.9921 146.135 99.9707 150.265C101.209 155.889 99.1763 159.927 100.709 163.411C101.874 166.436 102.242 169.221 101.688 171.728C98.3272 176.227 84.0898 177.056 76.8509 182.163ZM129.388 211.85C85.0127 211.85 49.041 175.931 49.041 131.625C49.041 87.3168 85.0127 51.3979 129.388 51.3979C173.745 51.3979 209.718 87.3168 209.718 131.625C209.718 175.931 173.745 211.85 129.388 211.85ZM171.75 144.291C182.424 146.209 190.883 150.708 198.897 155.76C195.425 165.698 189.885 174.677 182.795 182.144C176.885 181.758 174.3 173.314 173.652 168.538C173.006 163.836 171.344 157.862 168.316 149.989C166.673 145.802 167.577 143.72 171.75 144.291ZM202.959 131.624C202.959 138.243 202.073 144.641 200.448 150.744C184.676 142.835 172.878 140.695 162.112 140.032C157.218 137.818 131.808 137.192 139.028 121.943C140.08 119.326 156.238 121.372 163.939 119.455C173.634 117.611 179.895 113.96 175.887 109.829C172.507 107.544 166.579 115.343 162.463 116.043C159.71 116.854 149.314 119.343 141.687 116.227C139.638 114.789 141.152 109.664 144.144 109.571C161.483 109.811 163.016 108.447 174.409 96.5718C176.59 94.5989 185.989 95.3732 193.393 95.3732C199.487 106.068 202.959 118.44 202.959 131.624Z" fill="#D1C9B6"/>
<defs>
<linearGradient id="paint0_linear_472_2337" x1="190.948" y1="168.415" x2="66.9773" y2="97.2242" gradientUnits="userSpaceOnUse">
<stop stop-color="#A83600"/>
<stop offset="0.490196" stop-color="#A83600"/>
<stop offset="1" stop-color="#E85222"/>
</linearGradient>
</defs>
</svg>
