<svg width="240" height="70" viewBox="0 0 240 70" fill="none" xmlns="http://www.w3.org/2000/svg">
<path d="M139.007 24.5769L138.431 23.2391H134.231L133.655 24.5769H131.4L135.989 14.1235H136.689L141.262 24.5769H139.007ZM137.7 21.5124L136.331 18.0435L134.962 21.5124H137.7Z" fill="black"/>
<path d="M151.702 24.5769H149.166L144.764 19.2258V24.5769H142.664V14.3102H144.764V19.0702L148.684 14.3102H151.189L147.253 19.148L151.702 24.5769Z" fill="black"/>
<path d="M161.19 14.1235H161.89V24.5769H159.79V18.2146L153.77 24.7635H153.085V14.3102H155.185V20.6102L161.19 14.1235Z" fill="black"/>
<path d="M173.6 14.1235H174.284V24.5769H172.184V19.1013L169.602 22.3369H168.918L166.335 19.1013V24.5769H164.235V14.1235H164.92L169.26 19.6769L173.6 14.1235Z" fill="black"/>
<path d="M183.273 24.5769L182.698 23.2391H178.498L177.922 24.5769H175.666L180.255 14.1235H180.955L185.529 24.5769H183.273ZM181.966 21.5124L180.598 18.0435L179.229 21.5124H181.966Z" fill="black"/>
<path d="M188.079 24.5769V16.208H184.797V14.3102H193.477V16.208H190.179V24.5769H188.079Z" fill="black"/>
<path d="M132.38 40.1324V29.8658H138.975V31.7635H134.48V40.1324H132.38Z" fill="black"/>
<path d="M139.688 34.9991C139.641 32.0591 142.177 29.6169 145.133 29.6791C148.088 29.6169 150.655 32.0591 150.608 34.9991C150.655 37.9391 148.088 40.3813 145.133 40.3191C142.177 40.3813 139.641 37.9391 139.688 34.9991ZM148.446 34.9991C148.446 33.0546 147.03 31.6235 145.148 31.6235C143.25 31.6235 141.85 33.0235 141.85 34.9991C141.85 36.9746 143.25 38.3746 145.148 38.3746C147.03 38.3746 148.446 36.9746 148.446 34.9991Z" fill="black"/>
<path d="M152.386 40.1324V29.8658H156.244C158.391 29.8658 159.946 31.2035 159.946 33.1791C159.946 35.1391 158.391 36.508 156.244 36.508H154.486V40.1324H152.386ZM154.486 34.6724H156.244C157.224 34.6724 157.8 34.0658 157.8 33.1791C157.8 32.308 157.193 31.7169 156.244 31.7169H154.486V34.6724Z" fill="black"/>
<path d="M161.031 34.9991C160.985 32.0591 163.52 29.6169 166.476 29.6791C169.431 29.6169 171.998 32.0591 171.951 34.9991C171.998 37.9391 169.431 40.3813 166.476 40.3191C163.52 40.3813 160.985 37.9391 161.031 34.9991ZM169.789 34.9991C169.789 33.0546 168.374 31.6235 166.491 31.6235C164.594 31.6235 163.194 33.0235 163.194 34.9991C163.194 36.9746 164.594 38.3746 166.491 38.3746C168.374 38.3746 169.789 36.9746 169.789 34.9991Z" fill="black"/>
<path d="M181.763 38.2346H183.131V42.3258H181.031V40.1324H174.638V42.3258H172.538V38.2346H173.363C174.249 37.5035 174.623 35.4035 174.623 31.5613V29.8658H181.763V38.2346ZM175.649 38.2346H179.663V31.7635H176.598C176.551 34.9369 176.271 37.0369 175.649 38.2346Z" fill="black"/>
<path d="M191.309 40.1324L190.734 38.7946H186.534L185.958 40.1324H183.702L188.291 29.6791H188.991L193.565 40.1324H191.309ZM190.002 37.068L188.634 33.5991L187.265 37.068H190.002Z" fill="black"/>
<path d="M139.007 55.688L138.431 54.3502H134.231L133.655 55.688H131.4L135.989 45.2346H136.689L141.262 55.688H139.007ZM137.7 52.6235L136.331 49.1546L134.962 52.6235H137.7Z" fill="black"/>
<path d="M141.845 50.5546C141.799 47.6146 144.334 45.1724 147.321 45.2346C149.265 45.2346 150.93 46.1835 151.847 47.7858L150.261 48.9058C149.53 47.7546 148.55 47.1791 147.321 47.1791C145.407 47.1791 144.007 48.6102 144.007 50.5702C144.007 52.5302 145.407 53.9302 147.321 53.9302C148.55 53.9302 149.53 53.3546 150.261 52.2035L151.847 53.3235C150.961 54.9258 149.281 55.8746 147.305 55.8746C144.303 55.9369 141.783 53.4946 141.845 50.5546Z" fill="black"/>
<path d="M155.95 55.688V47.3191H152.668V45.4213H161.348V47.3191H158.05V55.688H155.95Z" fill="black"/>
<path d="M168.188 55.688L167.613 54.3502H163.413L162.837 55.688H160.582L165.171 45.2346H165.871L170.444 55.688H168.188ZM166.882 52.6235L165.513 49.1546L164.144 52.6235H166.882Z" fill="black"/>
<path d="M171.846 55.688V45.4213H173.946V49.3569H178.488V45.4213H180.588V55.688H178.488V51.2546H173.946V55.688H171.846Z" fill="black"/>
<path d="M182.935 55.688V45.4213H185.035V48.9524H186.902C189.095 48.9524 190.651 50.3524 190.651 52.3124C190.651 54.3346 189.095 55.688 186.902 55.688H182.935ZM185.035 53.8369H186.902C187.898 53.8369 188.504 53.2458 188.504 52.328C188.504 51.4102 187.898 50.788 186.902 50.788H185.035V53.8369ZM192.284 55.688V45.4213H194.384V55.688H192.284Z" fill="black"/>
<path d="M80.6155 70C99.9454 70 115.615 54.33 115.615 35C115.615 15.67 99.9454 0 80.6155 0C61.2855 0 45.6155 15.67 45.6155 35C45.6155 54.33 61.2855 70 80.6155 70Z" fill="#EE2E24"/>
<path d="M80.6154 69.5849C99.716 69.5849 115.2 54.1008 115.2 35.0002C115.2 15.8996 99.716 0.415527 80.6154 0.415527C61.5148 0.415527 46.0308 15.8996 46.0308 35.0002C46.0308 54.1008 61.5148 69.5849 80.6154 69.5849Z" fill="#FFDE00"/>
<path fill-rule="evenodd" clip-rule="evenodd" d="M88.1615 34.0174C88.5255 34.0174 88.8195 34.3114 88.8195 34.6754V35.3334C88.8195 35.6974 88.5255 35.9914 88.1615 35.9914H87.5035V34.0221H88.1615V34.0174ZM88.1615 36.6401C88.8849 36.6401 89.4729 36.0521 89.4729 35.3288V34.6708C89.4729 33.9474 88.8849 33.3594 88.1615 33.3594H86.8479V36.6424H88.1615V36.6401ZM85.5365 33.3548H86.1945V36.6378H85.5365V33.3548ZM84.2252 33.3548H84.8832V36.6378H84.2252L82.9139 34.5774V36.6378H82.2559V33.3548H82.9139L84.2252 35.4151V33.3548ZM74.3809 33.3548H76.3502V34.0128H75.0389V34.6708H76.3502V35.3288H75.0389V35.9868H76.3502V36.6448H74.3809V33.3594V33.3548ZM71.7559 33.3548H72.4139V35.9798H73.7252V36.6378H71.7559V33.3548ZM78.6462 35.9798H79.3042C79.8479 35.9798 80.2889 35.5388 80.2889 34.9951C80.2889 34.4514 79.8385 34.0128 79.3042 34.0104H78.6462V34.6684H79.3042C79.4839 34.6684 79.6332 34.8178 79.6332 34.9974C79.6332 35.1771 79.4885 35.3264 79.3042 35.3264H78.6462V35.9844V35.9798ZM79.3042 32.6968C80.5735 32.6968 81.6002 33.7258 81.6002 34.9928C81.6002 36.2598 80.5735 37.2888 79.3042 37.2888C78.0349 37.2888 77.0082 36.2598 77.0082 34.9928C77.0082 33.7258 78.0349 32.6968 79.3042 32.6968ZM79.3042 33.3548C80.2095 33.3548 80.9445 34.0898 80.9445 34.9951C80.9445 35.9004 80.2119 36.6354 79.3042 36.6354C78.3965 36.6354 77.6639 35.9004 77.6639 34.9951C77.6615 34.0898 78.3965 33.3548 79.3042 33.3548Z" fill="#A90000"/>
<path d="M80.6154 60.3772C94.6309 60.3772 105.993 49.0154 105.993 34.9999C105.993 20.9844 94.6309 9.62256 80.6154 9.62256C66.5999 9.62256 55.238 20.9844 55.238 34.9999C55.238 49.0154 66.5999 60.3772 80.6154 60.3772Z" fill="#009BC9"/>
<path fill-rule="evenodd" clip-rule="evenodd" d="M65.6589 13.7036L63.9766 15.2296C72.7452 22.9763 75.9372 35.5086 76.9149 49.4596H77.3372C76.7469 42.4386 76.9756 25.5639 65.6589 13.7036ZM74.9339 24.9456C75.2746 26.0656 75.6829 27.5939 75.8229 28.7046C76.8519 30.8466 78.5389 32.8719 78.7629 45.8919H79.1852C79.0896 37.2633 78.8889 29.3976 74.9339 24.9456ZM80.3752 29.3323H80.8582V43.6333H80.3752V29.3323ZM86.3019 24.9456C85.9612 26.0656 85.5529 27.5939 85.4129 28.7046C84.3839 30.8466 82.6969 32.8719 82.4729 45.8919H82.0506C82.1462 37.2633 82.3446 29.3976 86.3019 24.9456ZM95.5746 13.7036L97.2569 15.2296C88.4882 22.9763 85.2962 35.5086 84.3186 49.4596H83.8962C84.4866 42.4386 84.2602 25.5639 95.5746 13.7036Z" fill="#FFDE00"/>
<path fill-rule="evenodd" clip-rule="evenodd" d="M80.6155 9.29834C94.8068 9.29834 106.317 20.8087 106.317 35C106.317 49.1913 94.8068 60.7017 80.6155 60.7017C66.4242 60.7017 54.9138 49.1937 54.9138 35C54.9138 20.8063 66.4242 9.29834 80.6155 9.29834ZM80.6155 9.62734C94.6272 9.62734 105.993 20.9883 105.993 35.0047C105.993 49.021 94.6318 60.382 80.6155 60.382C66.5992 60.382 55.2405 49.014 55.2405 35.0023C55.2405 20.9907 66.6015 9.62734 80.6155 9.62734Z" fill="#EE2E24"/>
<path fill-rule="evenodd" clip-rule="evenodd" d="M80.6155 43.0176C79.6659 43.9136 79.7009 45.0102 80.1559 46.0229L80.1489 46.0299C79.7125 45.7196 79.3112 45.5936 78.9658 45.5912C78.3148 45.5889 77.7362 46.2656 77.7152 46.7812C77.6989 47.2479 77.7502 47.6819 78.1702 47.9526C78.4549 48.1346 78.8609 48.1882 79.1572 47.9619C78.7652 47.8336 78.7652 47.3832 78.8842 47.1826C79.0079 46.9726 79.2132 46.8209 79.4769 46.8302C79.9529 46.8442 80.2235 47.2432 80.2142 47.6282C80.2025 48.1882 79.4092 48.9209 78.9915 49.1519C79.2715 49.6839 79.6682 50.5332 79.8315 51.1842L79.6075 51.3336C75.2628 45.9272 70.7969 47.5279 67.2805 43.7736C67.7309 48.5056 72.1199 50.2952 74.7729 50.9066C73.5339 51.6229 73.2399 52.7826 73.2749 53.8116C73.3239 55.2746 74.5465 56.3806 76.1542 56.3456C77.8272 56.3082 79.0242 54.6866 78.1562 53.1629C77.8272 53.8046 77.4912 54.3856 76.7352 54.3436C75.9792 54.3039 75.6969 53.6342 75.6875 53.0229C75.6782 52.2809 76.2265 51.7466 76.9289 51.6229C77.4282 51.5342 77.9765 51.6579 78.4572 51.8866C79.3042 52.2949 79.9389 53.2539 79.9109 54.2572C79.8805 55.2606 79.2435 56.3992 77.8225 57.5052C78.7185 58.6112 79.6915 60.0439 80.6132 62.0692C81.5349 60.0439 82.5079 58.6112 83.4039 57.5052C81.9805 56.3992 81.3435 55.2606 81.3155 54.2572C81.2852 53.2539 81.9222 52.2949 82.7692 51.8866C83.2475 51.6556 83.7982 51.5342 84.2975 51.6229C85.0045 51.7489 85.5505 52.2856 85.5389 53.0229C85.5319 53.6342 85.2472 54.3039 84.4912 54.3436C83.7352 54.3832 83.4015 53.8046 83.0702 53.1629C82.2045 54.6866 83.4015 56.3082 85.0722 56.3456C86.6775 56.3806 87.9025 55.2746 87.9515 53.8116C87.9865 52.7849 87.6925 51.6229 86.4535 50.9066C89.1065 50.2976 93.4955 48.5056 93.9459 43.7736C90.4295 47.5279 85.9635 45.9272 81.6189 51.3336L81.3949 51.1842C81.5582 50.5332 81.9549 49.6839 82.2349 49.1519C81.8172 48.9209 81.0239 48.1859 81.0122 47.6282C81.0029 47.2432 81.2735 46.8466 81.7495 46.8302C82.0132 46.8209 82.2185 46.9726 82.3422 47.1826C82.4635 47.3879 82.4612 47.8336 82.0692 47.9619C82.3655 48.1859 82.7739 48.1346 83.0562 47.9526C83.4762 47.6842 83.5275 47.2456 83.5112 46.7812C83.4925 46.2656 82.9139 45.5889 82.2605 45.5912C81.9152 45.5912 81.5139 45.7172 81.0775 46.0299L81.0705 46.0229C81.5255 45.0102 81.5628 43.9112 80.6109 43.0176H80.6155Z" fill="#FFDE00"/>
<path d="M81.2151 47.6138C81.2151 47.3291 81.4041 47.0351 81.7635 47.0235C81.9898 47.0165 82.1205 47.1798 82.1788 47.2778C82.2208 47.3501 82.2395 47.4855 82.1975 47.6021C82.1648 47.6861 82.1065 47.7421 82.0131 47.7725L81.6608 47.8891C81.9665 48.1248 82.2255 48.3418 82.6431 48.2998C82.8368 48.2811 83.0211 48.2111 83.1681 48.1178C83.6791 47.7888 83.7305 47.2545 83.7141 46.7738C83.6908 46.1508 83.0211 45.3901 82.2675 45.3925C81.9991 45.3925 81.7215 45.4671 81.4391 45.5978C81.5301 45.2945 81.5791 44.9981 81.5791 44.7158C81.5791 44.0158 81.2991 43.3951 80.7485 42.8725L80.6131 42.7441L80.4778 42.8725C79.9248 43.3928 79.6471 44.0158 79.6471 44.7158C79.6471 44.9981 79.6961 45.2945 79.7871 45.5978C79.5071 45.4671 79.2318 45.3948 78.9588 45.3925C78.2075 45.3901 77.5331 46.1485 77.5121 46.7738C77.4958 47.2521 77.5471 47.7888 78.0581 48.1178C78.2308 48.2298 78.4548 48.3045 78.6858 48.3068C79.0591 48.3115 79.2925 48.1015 79.5701 47.8915C79.3975 47.8355 79.1035 47.7981 79.0311 47.6021C78.9868 47.4855 79.0078 47.3501 79.0498 47.2778C79.1058 47.1798 79.2365 47.0165 79.4651 47.0235C79.8221 47.0351 80.0135 47.3291 80.0135 47.6138C80.0041 48.0781 79.2808 48.7595 78.8935 48.9765L78.7255 49.0698L78.8141 49.2401C79.0731 49.7301 79.3788 50.4021 79.5585 50.9691C77.1855 48.1295 74.8148 47.3011 72.5235 46.5101C70.6918 45.8755 68.9581 45.2758 67.4205 43.6355L67.0261 43.2155L67.0798 43.7895C67.5371 48.5868 71.9751 50.3788 74.2875 50.9878C73.4871 51.6061 73.0671 52.5161 73.0671 53.6548C73.0671 53.7061 73.0671 53.7621 73.0695 53.8135C73.1208 55.4048 74.4485 56.5738 76.1495 56.5365C77.0758 56.5178 77.9205 56.0325 78.3498 55.2741C78.7395 54.5858 78.7301 53.7785 78.3195 53.0598L78.1398 52.7448L77.9741 53.0691C77.6405 53.7178 77.3558 54.1751 76.7398 54.1425C75.9535 54.1005 75.8835 53.2675 75.8811 53.0131C75.8741 52.4088 76.3081 51.9235 76.9591 51.8091C77.3815 51.7345 77.8808 51.8208 78.3661 52.0588C79.1805 52.4508 79.7335 53.3515 79.7101 54.2475C79.6798 55.2718 78.9845 56.3451 77.6965 57.3461L77.5378 57.4698L77.6638 57.6261C78.7675 58.9888 79.6471 60.4261 80.4288 62.1481L80.6085 62.5425L80.7881 62.1481C81.5698 60.4261 82.4495 58.9888 83.5531 57.6261L83.6791 57.4698L83.5205 57.3461C82.2348 56.3428 81.5371 55.2718 81.5068 54.2475C81.4811 53.3515 82.0318 52.4531 82.8508 52.0588C83.3361 51.8231 83.8378 51.7345 84.2578 51.8091C84.9111 51.9258 85.3475 52.4088 85.3405 53.0131C85.3381 53.2675 85.2635 54.1005 84.4818 54.1425C83.8635 54.1751 83.5811 53.7178 83.2475 53.0691L83.0818 52.7448L82.9021 53.0598C82.4915 53.7785 82.4821 54.5858 82.8718 55.2741C83.3011 56.0325 84.1458 56.5155 85.0721 56.5365C86.7755 56.5738 88.1008 55.4025 88.1521 53.8135C88.1545 53.7598 88.1545 53.7061 88.1545 53.6548C88.1545 52.5161 87.7345 51.6061 86.9341 50.9878C89.2488 50.3788 93.6891 48.5891 94.1418 43.7895L94.1955 43.2155L93.8011 43.6355C92.2658 45.2758 90.5345 45.8755 88.6981 46.5101C86.4045 47.3035 84.0361 48.1295 81.6631 50.9691C81.8405 50.4045 82.1461 49.7301 82.4075 49.2401L82.4961 49.0698L82.3281 48.9765C81.9385 48.7595 81.2175 48.0781 81.2081 47.6138H81.2151ZM80.8208 47.6185C80.8348 48.2275 81.5231 48.9041 81.9828 49.2191C81.6351 49.9028 81.2641 50.6495 81.1731 51.4195L81.6655 51.5921L81.7775 51.4521C84.1481 48.5028 86.5305 47.6791 88.8358 46.8811C90.5531 46.2885 92.1771 45.7121 93.6658 44.3191C92.8935 48.7361 88.3831 50.2551 86.4138 50.7078L85.9238 50.8198L86.3578 51.0695C87.2888 51.6085 87.7601 52.4741 87.7601 53.6455C87.7601 53.6945 87.7601 53.7435 87.7578 53.7971C87.7135 55.1645 86.5608 56.1725 85.0815 56.1398C84.2928 56.1235 83.5765 55.7151 83.2171 55.0781C83.0585 54.7981 82.9791 54.5041 82.9791 54.2031C82.9791 54.0025 83.0258 53.8065 83.0958 53.6058C83.3758 54.0865 83.7725 54.5695 84.5028 54.5298C85.3988 54.4831 85.7255 53.6828 85.7348 53.0131C85.7441 52.2198 85.1678 51.5641 84.3301 51.4148C83.8285 51.3261 83.2428 51.4265 82.6828 51.6971C81.7518 52.1451 81.1171 53.1601 81.1171 54.1821V54.2521C81.1498 55.3558 81.8475 56.4828 83.1331 57.5258C82.1578 58.7555 81.3295 60.1018 80.6108 61.6138C79.8921 60.1018 79.0638 58.7555 78.0885 57.5258C79.3718 56.4828 80.0718 55.3558 80.1045 54.2521V54.1821C80.1045 53.1601 79.4675 52.1451 78.5388 51.6971C77.9788 51.4288 77.3931 51.3261 76.8915 51.4148C76.0538 51.5641 75.4775 52.2198 75.4868 53.0131C75.4961 53.6828 75.8228 54.4831 76.7188 54.5298C77.4491 54.5695 77.8505 54.0888 78.1258 53.6058C78.1958 53.8041 78.2425 54.0025 78.2425 54.2031C78.2425 54.5018 78.1631 54.7981 78.0045 55.0781C77.6405 55.7151 76.9288 56.1235 76.1378 56.1398C74.6561 56.1725 73.5058 55.1645 73.4615 53.7971C73.4591 53.7481 73.4591 53.6968 73.4591 53.6455C73.4591 52.4718 73.9305 51.6061 74.8615 51.0671L75.2955 50.8175L74.8055 50.7055C72.8338 50.2528 68.3258 48.7338 67.5535 44.3168C69.0421 45.7098 70.6708 46.2815 72.3835 46.8788C74.6865 47.6768 77.0711 48.5005 79.4418 51.4498L79.5538 51.5898L80.0461 51.4171C79.9551 50.6471 79.5865 49.9005 79.2365 49.2168C79.6985 48.9018 80.3868 48.2275 80.3985 47.6161C80.3985 47.1378 80.0555 46.6478 79.4698 46.6291C79.1571 46.6198 78.8748 46.7831 78.7021 47.0795C78.6368 47.1891 78.6065 47.3268 78.6065 47.4621C78.6065 47.5578 78.6205 47.6558 78.6555 47.7421C78.6811 47.8028 78.7231 47.8518 78.7628 47.9031C78.5855 47.9218 78.4011 47.8728 78.2658 47.7865C77.9391 47.5765 77.8855 47.2358 77.8995 46.7878C77.9135 46.3911 78.3918 45.7845 78.9518 45.7868C79.4628 45.7891 79.8641 46.0785 80.2608 46.3561L80.4335 46.1951C80.2258 45.7191 80.0275 45.2478 80.0275 44.7135C80.0275 44.1791 80.2258 43.7171 80.6015 43.3088C80.9771 43.7195 81.1755 44.1885 81.1755 44.7135C81.1755 45.2385 80.9725 45.7121 80.7811 46.1951L80.9351 46.3561C81.3411 46.0855 81.7401 45.7891 82.2535 45.7868C82.8135 45.7845 83.2918 46.3911 83.3058 46.7878C83.3221 47.2358 83.2661 47.5788 82.9395 47.7865C82.8065 47.8728 82.6198 47.9218 82.4425 47.9031C82.4821 47.8518 82.5241 47.8051 82.5498 47.7421C82.5825 47.6558 82.5988 47.5601 82.5988 47.4621C82.5988 47.3245 82.5661 47.1891 82.5031 47.0795C82.3305 46.7831 82.0481 46.6198 81.7355 46.6291C81.1685 46.6525 80.8231 47.1401 80.8231 47.6185H80.8208Z" fill="#009933"/>
<path fill-rule="evenodd" clip-rule="evenodd" d="M80.6155 51.8935C80.9142 50.9998 81.2432 50.0571 81.6212 49.3525C81.2712 49.1425 80.9399 48.7785 80.6155 48.3491C80.2912 48.7808 79.9622 49.1425 79.6099 49.3525C79.9902 50.0571 80.3169 51.0021 80.6155 51.8935Z" fill="#009BC9"/>
<path fill-rule="evenodd" clip-rule="evenodd" d="M80.6155 60.7319C81.1009 59.7682 81.6912 58.7112 82.4589 57.8432C81.8219 57.2995 81.1825 56.5342 80.6155 55.6172C80.0485 56.5342 79.4116 57.2995 78.7722 57.8432C79.5376 58.7135 80.1302 59.7705 80.6155 60.7319Z" fill="#009BC9"/>
<path d="M81.1289 56.7982C81.0355 56.7982 80.9352 56.8496 80.8372 56.9499C80.6179 57.1716 80.5175 57.5169 80.4382 57.7992L80.4289 57.8296C80.4125 57.8902 80.3939 57.9602 80.3775 58.0256C80.3215 58.0069 80.2585 57.9882 80.1909 57.9766C80.2469 57.8319 80.2842 57.6896 80.2772 57.5472C80.2749 57.4982 80.2352 57.4609 80.1862 57.4632C80.1372 57.4656 80.0999 57.5052 80.1022 57.5542C80.1092 57.7759 79.9879 58.0186 79.8432 58.2892C79.8199 58.3312 79.8362 58.3849 79.8782 58.4082C79.9202 58.4316 79.9739 58.4152 79.9972 58.3732C80.0392 58.2939 80.0812 58.2169 80.1162 58.1446C80.1979 58.1539 80.2679 58.1749 80.3332 58.1959C80.2165 58.6579 80.1139 59.1572 80.0485 59.5189C80.0485 59.5236 80.0462 59.5282 80.0462 59.5329C80.0462 59.5749 80.0765 59.6122 80.1185 59.6192C80.1652 59.6262 80.2119 59.5959 80.2189 59.5469C80.2842 59.1922 80.3822 58.7022 80.4965 58.2496C80.5712 58.2776 80.6412 58.3032 80.7205 58.3079C81.1055 58.3406 81.3109 57.9836 81.3692 57.6709C81.4159 57.4259 81.4299 57.0059 81.2899 56.8612C81.2525 56.8216 81.1965 56.7959 81.1312 56.7959L81.1289 56.7982ZM80.5969 57.8762L80.6062 57.8436C80.6809 57.5846 80.7742 57.2602 80.9609 57.0712C81.0472 56.9849 81.1032 56.9732 81.1289 56.9732C81.1475 56.9732 81.1615 56.9802 81.1662 56.9849C81.2199 57.0386 81.2595 57.3209 81.1989 57.6382C81.1545 57.8809 81.0052 58.1562 80.7369 58.1352C80.6785 58.1306 80.6132 58.1049 80.5432 58.0792C80.5572 58.0116 80.5759 57.9416 80.5945 57.8762H80.5969Z" fill="#FFDE00"/>
<path fill-rule="evenodd" clip-rule="evenodd" d="M80.6154 1.31152C99.2191 1.31152 114.304 16.3965 114.304 35.0002C114.304 45.2692 109.705 54.4625 102.46 60.6412L98.5051 55.0949C103.062 51.0349 106.231 45.4512 107.206 39.1442C107.222 39.0299 107.211 38.9855 107.337 38.9459C107.446 38.9132 107.563 38.8782 107.663 38.8339C107.705 38.8175 107.745 38.7895 107.785 38.7522C107.815 38.7219 107.827 38.6682 107.838 38.6075C107.862 38.4932 107.89 38.3415 108.083 38.2832C108.298 38.2179 108.482 38.3672 108.718 38.5562C108.851 38.6635 109.003 38.7825 109.185 38.8922C109.647 39.1605 110.067 39.2772 110.636 39.2912C111.131 39.3029 111.56 39.2305 112.059 38.8222C112.253 38.6635 112.395 38.4955 112.552 38.2949C112.687 38.1199 112.846 37.9565 113.079 37.9589C113.259 37.9612 113.401 38.0452 113.469 38.1875C113.497 38.2459 113.511 38.3135 113.511 38.3812C113.511 38.3929 113.506 38.4045 113.506 38.4162C113.583 38.3275 113.627 38.2342 113.632 38.1432V38.1292C113.632 37.9659 113.548 37.8469 113.476 37.7745C113.34 37.6369 113.135 37.5505 112.941 37.5529C112.561 37.5575 112.248 37.7465 111.917 37.9425C111.751 38.0405 111.581 38.1432 111.404 38.2225C111.009 38.3929 110.554 38.4652 109.976 38.4489C109.122 38.4255 108.578 38.0382 108.272 37.7162C107.925 37.3499 107.708 36.8692 107.717 36.4935C107.733 35.8309 107.983 35.6535 108.013 35.6372L108.032 35.6255L109.115 35.5532L109.028 35.6955C109.028 35.6955 108.872 35.9569 108.86 36.5005V36.5402C108.86 37.2192 109.327 37.4945 109.434 37.5482C109.474 37.5389 109.677 37.4875 109.847 37.4455C109.628 37.2775 109.269 36.9229 109.269 36.3955V36.3652C109.285 35.6885 109.726 35.3245 110.503 35.3479C111.035 35.3619 111.597 35.7142 111.586 36.2555C111.581 36.4562 111.516 36.6125 111.399 36.7269C111.229 36.8902 111.002 36.9019 110.914 36.8995C110.757 36.8949 110.624 36.8132 110.526 36.7292C110.543 36.8179 110.58 36.9229 110.657 37.0139C110.795 37.1772 111.026 37.2635 111.336 37.2705C111.67 37.2799 112.181 36.9649 112.195 36.4702C112.199 36.2555 112.164 36.1389 112.141 36.0525C112.104 35.9219 112.087 35.8355 112.209 35.6885C112.351 35.5159 112.563 35.5905 112.703 35.6395L112.822 35.6722C112.932 35.6745 113.245 35.3852 113.564 34.9979C113.245 34.6082 112.934 34.3212 112.822 34.3235L112.703 34.3562C112.563 34.4052 112.353 34.4775 112.209 34.3072C112.085 34.1579 112.101 34.0715 112.141 33.9432C112.167 33.8569 112.199 33.7402 112.195 33.5255C112.183 33.0309 111.67 32.7182 111.336 32.7252C111.023 32.7322 110.792 32.8185 110.657 32.9819C110.58 33.0729 110.543 33.1755 110.526 33.2665C110.624 33.1825 110.755 33.1009 110.914 33.0962C111.002 33.0939 111.229 33.1055 111.399 33.2689C111.518 33.3832 111.581 33.5395 111.586 33.7402C111.6 34.2839 111.035 34.6362 110.503 34.6479C109.724 34.6665 109.285 34.3072 109.269 33.6305V33.6002C109.269 33.0752 109.63 32.7205 109.847 32.5502C109.675 32.5059 109.472 32.4569 109.434 32.4475C109.325 32.5012 108.86 32.7742 108.86 33.4555V33.4952C108.874 34.0389 109.028 34.2979 109.028 34.3002L109.115 34.4425L108.947 34.4332L108.032 34.3749L108.013 34.3632C107.983 34.3469 107.733 34.1672 107.717 33.5069C107.708 33.1289 107.925 32.6505 108.272 32.2842C108.578 31.9599 109.122 31.5725 109.976 31.5515C110.554 31.5375 111.007 31.6075 111.404 31.7779C111.581 31.8549 111.754 31.9575 111.917 32.0579C112.251 32.2585 112.563 32.4452 112.944 32.4475C113.137 32.4499 113.34 32.3635 113.478 32.2259C113.55 32.1512 113.634 32.0322 113.634 31.8712V31.8572C113.632 31.7639 113.585 31.6705 113.508 31.5795C113.508 31.5912 113.515 31.6052 113.515 31.6145C113.515 31.6845 113.501 31.7475 113.473 31.8082C113.406 31.9505 113.263 32.0345 113.084 32.0369C112.848 32.0392 112.692 31.8759 112.556 31.7009C112.4 31.4979 112.258 31.3299 112.064 31.1735C111.567 30.7652 111.135 30.6929 110.641 30.7045C110.071 30.7185 109.649 30.8352 109.189 31.1035C109.005 31.2132 108.853 31.3322 108.723 31.4395C108.487 31.6262 108.303 31.7779 108.088 31.7125C107.894 31.6565 107.866 31.5002 107.843 31.3882C107.831 31.3275 107.82 31.2715 107.789 31.2435C107.745 31.2015 107.698 31.1735 107.654 31.1572C107.563 31.1199 107.465 31.0895 107.367 31.0615C107.218 31.0172 107.232 30.9752 107.208 30.8399C105.209 17.9575 94.0648 8.09452 80.6224 8.09452C67.1801 8.09452 56.0338 17.9622 54.0364 30.8492C54.0201 30.9635 54.0341 31.0149 53.9058 31.0545C53.7984 31.0872 53.6934 31.1199 53.5954 31.1572C53.4741 31.2062 53.4298 31.2645 53.4064 31.3882C53.3831 31.5025 53.3551 31.6542 53.1614 31.7125C52.9468 31.7779 52.7624 31.6285 52.5268 31.4395C52.3938 31.3322 52.2421 31.2132 52.0601 31.1035C51.5981 30.8352 51.1781 30.7185 50.6088 30.7045C50.1141 30.6929 49.6848 30.7652 49.1854 31.1735C48.9918 31.3322 48.8494 31.5002 48.6931 31.7009C48.5578 31.8759 48.3991 32.0392 48.1658 32.0369C47.9861 32.0345 47.8438 31.9505 47.7761 31.8082C47.7481 31.7499 47.7341 31.6822 47.7341 31.6145C47.7341 31.6029 47.7388 31.5889 47.7411 31.5795C47.6641 31.6682 47.6174 31.7615 47.6151 31.8572V31.8712C47.6151 32.0345 47.6991 32.1535 47.7714 32.2259C47.9068 32.3635 48.1121 32.4499 48.3058 32.4475C48.6861 32.4429 48.9988 32.2539 49.3324 32.0579C49.4981 31.9599 49.6684 31.8572 49.8458 31.7779C50.2401 31.6075 50.6951 31.5352 51.2738 31.5515C52.1278 31.5749 52.6714 31.9622 52.9771 32.2842C53.3248 32.6505 53.5418 33.1312 53.5324 33.5069C53.5161 34.1695 53.2664 34.3469 53.2361 34.3632L53.2174 34.3749L52.3028 34.4332L52.1348 34.4425L52.2211 34.3002C52.2211 34.3002 52.3774 34.0389 52.3891 33.4952V33.4555C52.3891 32.7742 51.9224 32.5012 51.8151 32.4475C51.7754 32.4569 51.5724 32.5082 51.4021 32.5502C51.6214 32.7182 51.9808 33.0729 51.9808 33.6002V33.6305C51.9644 34.3072 51.5234 34.6712 50.7464 34.6479C50.2144 34.6339 49.6521 34.2815 49.6638 33.7402C49.6684 33.5395 49.7338 33.3832 49.8504 33.2689C50.0208 33.1055 50.2471 33.0939 50.3358 33.0962C50.4921 33.1009 50.6251 33.1825 50.7231 33.2665C50.7068 33.1779 50.6694 33.0729 50.5924 32.9819C50.4548 32.8185 50.2238 32.7322 49.9134 32.7252C49.5798 32.7159 49.0688 33.0309 49.0548 33.5255C49.0501 33.7402 49.0851 33.8569 49.1084 33.9432C49.1458 34.0739 49.1621 34.1602 49.0408 34.3072C48.8984 34.4775 48.6861 34.4052 48.5461 34.3562L48.4178 34.3282C48.3081 34.3259 47.9954 34.6129 47.6758 35.0025C47.9954 35.3922 48.3058 35.6792 48.4178 35.6769L48.5368 35.6442C48.6768 35.5952 48.8868 35.5229 49.0314 35.6932C49.1551 35.8425 49.1388 35.9289 49.0991 36.0572C49.0734 36.1435 49.0408 36.2602 49.0454 36.4749C49.0571 36.9695 49.5704 37.2822 49.9041 37.2752C50.2168 37.2682 50.4478 37.1819 50.5831 37.0185C50.6601 36.9275 50.6974 36.8249 50.7138 36.7339C50.6158 36.8179 50.4851 36.8995 50.3264 36.9042C50.2378 36.9065 50.0114 36.8949 49.8411 36.7315C49.7221 36.6172 49.6591 36.4609 49.6544 36.2602C49.6404 35.7165 50.2051 35.3642 50.7371 35.3525C51.5164 35.3339 51.9551 35.6932 51.9714 36.3699V36.4002C51.9714 36.9252 51.6098 37.2799 51.3928 37.4502C51.5654 37.4945 51.7684 37.5435 51.8058 37.5529C51.9154 37.4992 52.3798 37.2239 52.3798 36.5449V36.5052C52.3658 35.9615 52.2118 35.7025 52.2118 35.7002L52.1254 35.5579L53.2081 35.6302L53.2268 35.6419C53.2571 35.6582 53.5068 35.8379 53.5231 36.4982C53.5324 36.8762 53.3154 37.3545 52.9678 37.7209C52.6621 38.0429 52.1184 38.4325 51.2644 38.4535C50.6858 38.4675 50.2331 38.3975 49.8364 38.2272C49.6591 38.1502 49.4864 38.0475 49.3231 37.9472C48.9894 37.7465 48.6768 37.5599 48.2964 37.5575C48.1028 37.5552 47.8998 37.6415 47.7621 37.7792C47.6898 37.8539 47.6058 37.9729 47.6058 38.1339V38.1479C47.6081 38.2389 47.6548 38.3322 47.7318 38.4209C47.7318 38.4092 47.7271 38.3975 47.7271 38.3859C47.7271 38.3159 47.7411 38.2529 47.7691 38.1922C47.8368 38.0499 47.9791 37.9659 48.1588 37.9635C48.3944 37.9612 48.5508 38.1245 48.6861 38.2995C48.8424 38.5025 48.9848 38.6705 49.1784 38.8269C49.6778 39.2352 50.1071 39.3075 50.6018 39.2959C51.1711 39.2819 51.5934 39.1652 52.0531 38.8969C52.2374 38.7872 52.3891 38.6682 52.5198 38.5609C52.7554 38.3742 52.9398 38.2225 53.1544 38.2879C53.3481 38.3439 53.3761 38.5002 53.3994 38.6122C53.4181 38.7195 53.4438 38.7662 53.5371 38.8199C53.6398 38.8782 53.7751 38.9132 53.8918 38.9482C54.0154 38.9832 54.0084 39.0135 54.0248 39.1255C54.9978 45.4419 58.1664 51.0325 62.7281 55.0972L58.7731 60.6435C51.5258 54.4625 46.9268 45.2692 46.9268 35.0002C46.9268 16.3965 62.0118 1.31152 80.6154 1.31152ZM98.2088 55.3585L102.159 60.8979C102.059 60.9819 101.956 61.0659 101.856 61.1499L97.9078 55.6152C98.0081 55.5289 98.1108 55.4449 98.2088 55.3585ZM97.6044 55.8649L101.548 61.3949L101.237 61.6399L97.2964 56.1122C97.3991 56.0305 97.5041 55.9489 97.6044 55.8649ZM96.9838 56.3549L100.925 61.8802C100.677 62.0669 100.43 62.2512 100.178 62.4285L96.2394 56.9102C96.4914 56.7305 96.7388 56.5439 96.9838 56.3572V56.3549ZM64.9914 56.9079L61.0528 62.4285C60.8008 62.2489 60.5534 62.0645 60.3061 61.8802L64.2471 56.3549C64.4921 56.5392 64.7394 56.7259 64.9914 56.9055V56.9079ZM63.9368 56.1122L59.9958 61.6399C59.8931 61.5582 59.7881 61.4789 59.6854 61.3949L63.6288 55.8649C63.7314 55.9489 63.8341 56.0305 63.9368 56.1122ZM63.3254 55.6129L59.3774 61.1475C59.2771 61.0635 59.1744 60.9795 59.0741 60.8955L63.0244 55.3562C63.1248 55.4449 63.2274 55.5289 63.3254 55.6129Z" fill="#EE2E24"/>
<path d="M80.6154 25.3729C86.4621 25.3729 91.2017 20.6332 91.2017 14.7865C91.2017 8.93986 86.4621 4.2002 80.6154 4.2002C74.7687 4.2002 70.0291 8.93986 70.0291 14.7865C70.0291 20.6332 74.7687 25.3729 80.6154 25.3729Z" fill="#009933"/>
<path d="M80.6155 24.981C86.2457 24.981 90.8098 20.4168 90.8098 14.7866C90.8098 9.15644 86.2457 4.59229 80.6155 4.59229C74.9853 4.59229 70.4211 9.15644 70.4211 14.7866C70.4211 20.4168 74.9853 24.981 80.6155 24.981Z" fill="#FFDE00"/>
<path d="M80.6153 23.4714C85.4117 23.4714 89.3 19.5831 89.3 14.7867C89.3 9.99031 85.4117 6.10205 80.6153 6.10205C75.8189 6.10205 71.9307 9.99031 71.9307 14.7867C71.9307 19.5831 75.8189 23.4714 80.6153 23.4714Z" fill="#EE2E24"/>
<path d="M80.6153 23.3404C85.3395 23.3404 89.1693 19.5107 89.1693 14.7864C89.1693 10.0622 85.3395 6.23242 80.6153 6.23242C75.891 6.23242 72.0613 10.0622 72.0613 14.7864C72.0613 19.5107 75.891 23.3404 80.6153 23.3404Z" fill="#009933"/>
<path d="M80.6155 22.9463C85.1219 22.9463 88.7751 19.2931 88.7751 14.7866C88.7751 10.2802 85.1219 6.62695 80.6155 6.62695C76.109 6.62695 72.4558 10.2802 72.4558 14.7866C72.4558 19.2931 76.109 22.9463 80.6155 22.9463Z" fill="#EE2E24"/>
<path d="M80.6154 22.8153C85.0497 22.8153 88.6444 19.2206 88.6444 14.7863C88.6444 10.352 85.0497 6.75732 80.6154 6.75732C76.1811 6.75732 72.5864 10.352 72.5864 14.7863C72.5864 19.2206 76.1811 22.8153 80.6154 22.8153Z" fill="#FFDE00"/>
<path d="M80.6154 22.1365C84.6747 22.1365 87.9654 18.8458 87.9654 14.7865C87.9654 10.7272 84.6747 7.43652 80.6154 7.43652C76.5561 7.43652 73.2654 10.7272 73.2654 14.7865C73.2654 18.8458 76.5561 22.1365 80.6154 22.1365Z" fill="#EE2E24"/>
<path d="M80.6153 22.006C84.6025 22.006 87.8347 18.7738 87.8347 14.7867C87.8347 10.7996 84.6025 7.56738 80.6153 7.56738C76.6282 7.56738 73.396 10.7996 73.396 14.7867C73.396 18.7738 76.6282 22.006 80.6153 22.006Z" fill="#009BC9"/>
<path fill-rule="evenodd" clip-rule="evenodd" d="M86.5444 10.9134L85.9984 10.3674L85.4757 10.89L85.4571 11.1724L83.1354 13.494L82.8531 13.5127L82.3304 14.0354L82.8764 14.5814L83.3991 14.0587L83.4177 13.7764L85.7394 11.4547L86.0217 11.436L86.5444 10.9134ZM85.7791 10.1667L85.2331 9.62069L84.7104 10.1434L84.6917 10.4257L82.3701 12.7474L82.0877 12.766L81.5651 13.2887L82.1111 13.8347L82.6337 13.312L82.6524 13.0297L84.9741 10.708L85.2564 10.6894L85.7791 10.1667ZM85.0207 9.40836L84.4747 8.86236L83.9521 9.38503L83.9334 9.66736L81.6117 11.989L81.3294 12.0077L80.8067 12.5304L81.3527 13.0764L81.8754 12.5537L81.8941 12.2714L84.2157 9.94969L84.4981 9.93103L85.0207 9.40836ZM76.7374 20.718L76.1914 20.172L76.7141 19.6494L76.9964 19.6307L79.3181 17.309L79.3367 17.0267L79.8594 16.504L80.4054 17.05L79.8827 17.5727L79.6004 17.5914L77.2787 19.913L77.2601 20.1954L76.7374 20.718ZM75.9884 19.9527L75.4424 19.4067L75.9651 18.884L76.2474 18.8654L78.5691 16.5437L78.5877 16.2614L79.1104 15.7387L79.6564 16.2847L79.1337 16.8074L78.8514 16.826L76.5297 19.1477L76.5111 19.43L75.9884 19.9527ZM75.2324 19.1967L74.6864 18.6507L75.2091 18.128L75.4914 18.1094L77.8131 15.7877L77.8317 15.5054L78.3544 14.9827L78.9004 15.5287L78.3777 16.0514L78.0954 16.07L75.7737 18.3917L75.7551 18.674L75.2324 19.1967ZM86.5421 18.66L85.9961 19.206L85.4734 18.6834L85.4548 18.401L83.1331 16.0794L82.8507 16.0607L82.3281 15.538L82.8741 14.992L83.3967 15.5147L83.4154 15.797L85.7371 18.1187L86.0194 18.1374L86.5421 18.66ZM85.7767 19.4067L85.2307 19.9527L84.7081 19.43L84.6894 19.1477L82.3677 16.826L82.0854 16.8074L81.5627 16.2847L82.1087 15.7387L82.6314 16.2614L82.6501 16.5437L84.9717 18.8654L85.2541 18.884L85.7767 19.4067ZM85.0184 20.165L84.4724 20.711L83.9497 20.1884L83.9311 19.906L81.6094 17.5844L81.3271 17.5657L80.8044 17.043L81.3504 16.497L81.8731 17.0197L81.8917 17.302L84.2134 19.6237L84.4957 19.6424L85.0184 20.165ZM76.7351 8.85303L76.1891 9.39903L76.7117 9.92169L76.9941 9.94036L79.3157 12.262L79.3344 12.5444L79.8571 13.067L80.4031 12.521L79.8804 11.9984L79.5981 11.9797L77.2764 9.65803L77.2577 9.37569L76.7351 8.85303ZM75.9861 9.62069L75.4401 10.1667L75.9627 10.6894L76.2451 10.708L78.5667 13.0297L78.5854 13.312L79.1081 13.8347L79.6541 13.2887L79.1314 12.766L78.8491 12.7474L76.5274 10.4257L76.5087 10.1434L75.9861 9.62069ZM75.2301 10.3767L74.6841 10.9227L75.2067 11.4454L75.4891 11.464L77.8107 13.7857L77.8294 14.068L78.3521 14.5907L78.8981 14.0447L78.3754 13.522L78.0931 13.5034L75.7714 11.1817L75.7527 10.8994L75.2301 10.3767ZM80.6061 15.755L81.1521 16.301L80.6061 16.847L80.0601 16.301L80.6061 15.755ZM79.8501 14.9967L80.3961 15.5427L79.8501 16.0887L79.3041 15.5427L79.8501 14.9967ZM79.0941 14.2407L79.6401 14.7867L79.0941 15.3327L78.5481 14.7867L79.0941 14.2407ZM79.8501 13.4824L80.3961 14.0284L79.8501 14.5744L79.3041 14.0284L79.8501 13.4824ZM80.6061 14.2407L81.1521 14.7867L80.6061 15.3327L80.0601 14.7867L80.6061 14.2407ZM81.3644 14.9967L81.9104 15.5427L81.3644 16.0887L80.8184 15.5427L81.3644 14.9967ZM82.1204 14.2407L82.6664 14.7867L82.1204 15.3327L81.5744 14.7867L82.1204 14.2407ZM81.3644 13.4824L81.9104 14.0284L81.3644 14.5744L80.8184 14.0284L81.3644 13.4824ZM80.6061 12.7264L81.1521 13.2724L80.6061 13.8184L80.0601 13.2724L80.6061 12.7264Z" fill="#FFDE00"/>
<path d="M80.6155 6.76709C80.5921 6.76709 80.5711 6.77876 80.5595 6.79976C80.5595 6.79976 80.3518 7.14276 80.2771 7.26176C80.1931 7.14742 79.9528 6.82076 79.9528 6.82076C79.9388 6.80209 79.9155 6.79042 79.8945 6.79276C79.8711 6.79509 79.8525 6.80676 79.8408 6.83009C79.8408 6.83009 79.6635 7.19642 79.6005 7.32242C79.5071 7.21509 79.2388 6.90942 79.2388 6.90942C79.2248 6.89309 79.1991 6.88376 79.1781 6.88609C79.1548 6.89076 79.1361 6.90476 79.1291 6.92809C79.1291 6.92809 78.9868 7.30842 78.9355 7.43909C78.8328 7.34109 78.5388 7.06109 78.5388 7.06109C78.5225 7.04709 78.4991 7.03776 78.4781 7.04709C78.4548 7.05176 78.4385 7.07042 78.4315 7.09142C78.4315 7.09142 78.3218 7.48109 78.2868 7.61876C78.1748 7.53009 77.8575 7.27809 77.8575 7.27809C77.8411 7.26409 77.8155 7.26176 77.7921 7.26876C77.7688 7.27576 77.7548 7.29676 77.7501 7.31776C77.7501 7.31776 77.6755 7.71676 77.6521 7.85676C77.5331 7.77742 77.1948 7.55576 77.1948 7.55576C77.1761 7.54409 77.1505 7.54176 77.1295 7.55109C77.1108 7.56042 77.0945 7.58142 77.0921 7.60242C77.0921 7.60242 77.0548 8.00842 77.0431 8.14842C76.9171 8.08076 76.5625 7.88942 76.5625 7.88942C76.5438 7.88009 76.5181 7.88009 76.4971 7.89176C76.4785 7.90342 76.4645 7.92442 76.4645 7.94776V8.49609C76.3338 8.44009 75.9605 8.28142 75.9605 8.28142C75.9371 8.27209 75.9138 8.27442 75.8951 8.28842C75.8788 8.30009 75.8671 8.32109 75.8671 8.33976V8.34442C75.8671 8.34442 75.9021 8.75042 75.9161 8.89042C75.7808 8.84609 75.3958 8.72242 75.3958 8.72242C75.3725 8.71542 75.3491 8.72009 75.3305 8.73409C75.3165 8.74576 75.3071 8.76442 75.3071 8.78309V8.79476C75.3071 8.79476 75.3795 9.19376 75.4028 9.33376C75.2651 9.30109 74.8685 9.21242 74.8685 9.21242C74.8451 9.20776 74.8241 9.21476 74.8078 9.23109C74.7961 9.24276 74.7915 9.26142 74.7915 9.27542C74.7915 9.28009 74.7915 9.28709 74.7938 9.29176C74.7938 9.29176 74.9011 9.68142 74.9385 9.81909C74.7985 9.80042 74.3948 9.74676 74.3948 9.74676C74.3715 9.74442 74.3505 9.75142 74.3365 9.77242C74.3271 9.78409 74.3225 9.80042 74.3225 9.81442C74.3225 9.82142 74.3248 9.82842 74.3271 9.83776C74.3271 9.83776 74.4671 10.2181 74.5161 10.3511C74.3761 10.3464 73.9678 10.3254 73.9678 10.3254C73.9445 10.3254 73.9235 10.3348 73.9118 10.3558C73.9048 10.3651 73.9025 10.3814 73.9025 10.3931C73.9025 10.4024 73.9048 10.4118 73.9095 10.4211C73.9095 10.4211 74.0845 10.7874 74.1475 10.9158C74.0075 10.9228 73.5991 10.9414 73.5991 10.9414C73.5758 10.9414 73.5548 10.9554 73.5455 10.9764C73.5408 10.9858 73.5385 10.9951 73.5385 11.0091C73.5385 11.0231 73.5408 11.0324 73.5478 11.0441C73.5478 11.0441 73.7555 11.3918 73.8278 11.5154C73.6878 11.5341 73.2841 11.5901 73.2841 11.5901C73.2608 11.5924 73.2421 11.6064 73.2328 11.6298C73.2305 11.6368 73.2281 11.6461 73.2281 11.6554C73.2281 11.6671 73.2328 11.6834 73.2398 11.6951C73.2398 11.6951 73.4778 12.0241 73.5618 12.1408C73.4241 12.1734 73.0275 12.2644 73.0275 12.2644C73.0041 12.2691 72.9878 12.2878 72.9808 12.3088C72.9785 12.3158 72.9785 12.3204 72.9785 12.3274C72.9785 12.3414 72.9831 12.3601 72.9948 12.3694C72.9948 12.3694 73.2608 12.6751 73.3565 12.7824C73.2211 12.8268 72.8385 12.9528 72.8385 12.9528C72.8151 12.9598 72.7988 12.9784 72.7941 12.9994C72.7941 13.0041 72.7918 13.0088 72.7918 13.0134C72.7918 13.0298 72.7988 13.0484 72.8105 13.0601C72.8105 13.0601 73.1045 13.3401 73.2048 13.4381C73.0741 13.4941 72.7008 13.6528 72.7008 13.6528C72.6775 13.6621 72.6635 13.6831 72.6611 13.7041V13.7134C72.6611 13.7321 72.6705 13.7531 72.6868 13.7648C72.6868 13.7648 73.0018 14.0191 73.1138 14.1078C72.9878 14.1754 72.6331 14.3691 72.6331 14.3691C72.6145 14.3784 72.6005 14.4018 72.5981 14.4228C72.5981 14.4484 72.6075 14.4671 72.6285 14.4788C72.6285 14.4788 72.9668 14.7028 73.0858 14.7821C72.9668 14.8614 72.6285 15.0831 72.6285 15.0831C72.6121 15.0948 72.5981 15.1158 72.5981 15.1368C72.5981 15.1624 72.6121 15.1834 72.6331 15.1928C72.6331 15.1928 72.9901 15.3864 73.1138 15.4541C73.0018 15.5428 72.6868 15.7948 72.6868 15.7948C72.6728 15.8064 72.6611 15.8274 72.6611 15.8461V15.8554C72.6635 15.8788 72.6775 15.8974 72.7008 15.9068C72.7008 15.9068 73.0741 16.0678 73.2048 16.1238C73.1045 16.2218 72.8105 16.5018 72.8105 16.5018C72.7988 16.5134 72.7918 16.5321 72.7918 16.5484C72.7918 16.5531 72.7918 16.5578 72.7941 16.5624C72.7988 16.5858 72.8175 16.6021 72.8385 16.6091C72.8385 16.6091 73.2235 16.7351 73.3588 16.7794C73.2655 16.8868 73.0018 17.1924 73.0018 17.1924C72.9925 17.2041 72.9855 17.2204 72.9855 17.2344C72.9855 17.2414 72.9855 17.2484 72.9878 17.2531C72.9948 17.2764 73.0135 17.2928 73.0345 17.2974C73.0345 17.2974 73.4288 17.3884 73.5688 17.4211C73.4848 17.5378 73.2468 17.8621 73.2468 17.8621C73.2398 17.8738 73.2351 17.8878 73.2351 17.9018C73.2351 17.9111 73.2375 17.9181 73.2398 17.9274C73.2491 17.9508 73.2701 17.9648 73.2911 17.9671C73.2911 17.9671 73.6948 18.0208 73.8348 18.0418C73.7625 18.1631 73.5548 18.5108 73.5548 18.5108C73.5478 18.5201 73.5455 18.5341 73.5455 18.5458C73.5455 18.5551 73.5478 18.5691 73.5525 18.5784C73.5618 18.5971 73.5851 18.6111 73.6061 18.6134C73.6061 18.6134 74.0121 18.6321 74.1545 18.6391C74.0938 18.7674 73.9165 19.1338 73.9165 19.1338C73.9118 19.1431 73.9095 19.1524 73.9095 19.1618C73.9095 19.1734 73.9141 19.1874 73.9188 19.1991C73.9305 19.2178 73.9538 19.2294 73.9748 19.2294C73.9748 19.2294 74.3808 19.2131 74.5208 19.2038C74.4718 19.3368 74.3318 19.7171 74.3318 19.7171C74.3295 19.7241 74.3271 19.7311 74.3271 19.7404C74.3271 19.7544 74.3318 19.7708 74.3411 19.7824C74.3551 19.7988 74.3785 19.8104 74.3995 19.8081C74.3995 19.8081 74.8031 19.7568 74.9431 19.7358C74.9058 19.8711 74.7985 20.2631 74.7985 20.2631C74.7961 20.2678 74.7961 20.2748 74.7961 20.2794C74.7961 20.2958 74.8031 20.3121 74.8125 20.3238C74.8265 20.3401 74.8521 20.3494 74.8731 20.3424C74.8731 20.3424 75.2675 20.2538 75.4075 20.2211C75.3818 20.3611 75.3118 20.7601 75.3118 20.7601V20.7718C75.3118 20.7904 75.3188 20.8091 75.3351 20.8208C75.3515 20.8348 75.3771 20.8394 75.4005 20.8324C75.4005 20.8324 75.7855 20.7088 75.9208 20.6644C75.9091 20.8044 75.8741 21.2104 75.8741 21.2104V21.2151C75.8741 21.2338 75.8835 21.2548 75.9021 21.2664C75.9208 21.2781 75.9441 21.2828 75.9675 21.2734C75.9675 21.2734 76.3408 21.1148 76.4715 21.0588V21.6071C76.4715 21.6304 76.4831 21.6514 76.5041 21.6631C76.5228 21.6748 76.5485 21.6748 76.5695 21.6654C76.5695 21.6654 76.9265 21.4718 77.0525 21.4064C77.0641 21.5464 77.1015 21.9524 77.1015 21.9524C77.1038 21.9758 77.1178 21.9944 77.1388 22.0061C77.1575 22.0154 77.1831 22.0131 77.2041 22.0014C77.2041 22.0014 77.5425 21.7798 77.6615 21.7004C77.6871 21.8404 77.7595 22.2394 77.7595 22.2394C77.7641 22.2628 77.7781 22.2814 77.8015 22.2884C77.8248 22.2954 77.8481 22.2931 77.8668 22.2791C77.8668 22.2791 78.1865 22.0271 78.2961 21.9384C78.3335 22.0738 78.4408 22.4658 78.4408 22.4658C78.4455 22.4891 78.4665 22.5054 78.4875 22.5101C78.5085 22.5148 78.5341 22.5101 78.5481 22.4961C78.5481 22.4961 78.8421 22.2161 78.9425 22.1181C78.9915 22.2511 79.1385 22.6314 79.1385 22.6314C79.1455 22.6548 79.1665 22.6688 79.1875 22.6734C79.2085 22.6781 79.2341 22.6688 79.2481 22.6501C79.2481 22.6501 79.5141 22.3468 79.6098 22.2371C79.6705 22.3654 79.8478 22.7318 79.8478 22.7318C79.8571 22.7504 79.8781 22.7668 79.9015 22.7691C79.9248 22.7714 79.9458 22.7621 79.9598 22.7411C79.9598 22.7411 80.2001 22.4121 80.2841 22.3001C80.3588 22.4214 80.5665 22.7691 80.5665 22.7691C80.5781 22.7878 80.5991 22.8018 80.6225 22.8018C80.6458 22.8018 80.6668 22.7901 80.6785 22.7691C80.6785 22.7691 80.8885 22.4214 80.9608 22.3001C81.0448 22.4144 81.2828 22.7411 81.2828 22.7411C81.2945 22.7598 81.3201 22.7714 81.3411 22.7691C81.3621 22.7668 81.3831 22.7551 81.3948 22.7318C81.3948 22.7318 81.5721 22.3654 81.6351 22.2371C81.7285 22.3444 81.9968 22.6501 81.9968 22.6501C82.0108 22.6664 82.0365 22.6758 82.0575 22.6734C82.0808 22.6688 82.0995 22.6548 82.1065 22.6314C82.1065 22.6314 82.2488 22.2511 82.3001 22.1204C82.4028 22.2184 82.6945 22.4984 82.6945 22.4984C82.7108 22.5124 82.7341 22.5218 82.7551 22.5124C82.7785 22.5078 82.7948 22.4891 82.7995 22.4681C82.7995 22.4681 82.9091 22.0784 82.9488 21.9408C83.0608 22.0294 83.3781 22.2814 83.3781 22.2814C83.3945 22.2954 83.4201 22.2978 83.4435 22.2908C83.4668 22.2838 83.4808 22.2628 83.4855 22.2418C83.4855 22.2418 83.5601 21.8451 83.5835 21.7028C83.7025 21.7821 84.0431 22.0038 84.0431 22.0038C84.0618 22.0154 84.0875 22.0178 84.1085 22.0084C84.1295 21.9991 84.1435 21.9781 84.1458 21.9571C84.1458 21.9571 84.1831 21.5511 84.1948 21.4111C84.3208 21.4788 84.6755 21.6678 84.6755 21.6678C84.6941 21.6771 84.7198 21.6771 84.7408 21.6654C84.7618 21.6538 84.7735 21.6328 84.7735 21.6094V21.0634C84.9041 21.1171 85.2798 21.2758 85.2798 21.2758C85.3031 21.2851 85.3241 21.2804 85.3451 21.2688C85.3615 21.2571 85.3731 21.2361 85.3731 21.2174V21.2128C85.3731 21.2128 85.3381 20.8068 85.3265 20.6668C85.4618 20.7111 85.8468 20.8348 85.8468 20.8348C85.8701 20.8418 85.8935 20.8371 85.9121 20.8231C85.9261 20.8114 85.9355 20.7928 85.9355 20.7741V20.7624C85.9355 20.7624 85.8655 20.3728 85.8398 20.2281C85.9845 20.2678 86.4185 20.3891 86.4185 20.3891C86.4418 20.3961 86.4675 20.3891 86.4838 20.3728C86.4955 20.3611 86.5001 20.3424 86.5001 20.3284C86.5001 20.3214 86.5001 20.3144 86.4978 20.3098C86.4978 20.3098 86.3601 19.8851 86.3135 19.7404C86.4581 19.7591 86.8525 19.8128 86.8525 19.8128C86.8758 19.8151 86.8968 19.8081 86.9108 19.7871C86.9201 19.7754 86.9248 19.7591 86.9248 19.7451C86.9248 19.7381 86.9225 19.7311 86.9201 19.7218C86.9201 19.7218 86.7801 19.3414 86.7311 19.2084C86.8735 19.2154 87.2795 19.2341 87.2795 19.2341C87.3028 19.2341 87.3238 19.2248 87.3355 19.2038C87.3425 19.1944 87.3448 19.1781 87.3448 19.1664C87.3448 19.1571 87.3425 19.1478 87.3378 19.1361C87.3378 19.1361 87.1628 18.7674 87.0998 18.6391C87.2421 18.6321 87.6481 18.6134 87.6481 18.6134C87.6715 18.6134 87.6925 18.5994 87.7018 18.5784C87.7065 18.5691 87.7088 18.5598 87.7088 18.5458C87.7088 18.5318 87.7065 18.5224 87.6995 18.5108C87.6995 18.5108 87.4918 18.1631 87.4195 18.0418C87.5595 18.0231 87.9631 17.9671 87.9631 17.9671C87.9865 17.9648 88.0051 17.9508 88.0145 17.9274C88.0168 17.9204 88.0191 17.9111 88.0191 17.9018C88.0191 17.8901 88.0145 17.8738 88.0075 17.8621C88.0075 17.8621 87.7695 17.5331 87.6855 17.4164C87.8231 17.3838 88.2198 17.2928 88.2198 17.2928C88.2431 17.2881 88.2595 17.2694 88.2665 17.2484C88.2688 17.2414 88.2688 17.2368 88.2688 17.2298C88.2688 17.2158 88.2641 17.1971 88.2548 17.1878C88.2548 17.1878 87.9888 16.8821 87.8978 16.7748C88.0331 16.7304 88.4181 16.6044 88.4181 16.6044C88.4415 16.5974 88.4578 16.5788 88.4625 16.5578C88.4625 16.5531 88.4648 16.5484 88.4648 16.5438C88.4648 16.5274 88.4578 16.5088 88.4461 16.4971C88.4461 16.4971 88.1545 16.2148 88.0518 16.1191C88.1825 16.0631 88.5558 15.9021 88.5558 15.9021C88.5791 15.8928 88.5931 15.8718 88.5955 15.8508V15.8414C88.5955 15.8228 88.5861 15.8018 88.5698 15.7901C88.5698 15.7901 88.2548 15.5358 88.1428 15.4494C88.2688 15.3818 88.6235 15.1904 88.6235 15.1904C88.6421 15.1811 88.6561 15.1578 88.6585 15.1368C88.6585 15.1111 88.6491 15.0924 88.6281 15.0808C88.6281 15.0808 88.2898 14.8568 88.1708 14.7774C88.2898 14.6981 88.6281 14.4741 88.6281 14.4741C88.6445 14.4624 88.6585 14.4414 88.6585 14.4204C88.6585 14.3948 88.6445 14.3738 88.6235 14.3644C88.6235 14.3644 88.2688 14.1708 88.1428 14.1054C88.2548 14.0168 88.5698 13.7624 88.5698 13.7624C88.5838 13.7508 88.5955 13.7298 88.5955 13.7111V13.7018C88.5931 13.6784 88.5791 13.6598 88.5558 13.6504C88.5558 13.6504 88.1848 13.4894 88.0518 13.4358C88.1545 13.3378 88.4461 13.0624 88.4461 13.0624C88.4578 13.0508 88.4648 13.0321 88.4648 13.0158C88.4648 13.0111 88.4648 13.0064 88.4625 13.0018C88.4578 12.9784 88.4391 12.9598 88.4181 12.9551C88.4181 12.9551 88.0355 12.8314 87.9001 12.7894C87.9935 12.6798 88.2618 12.3764 88.2618 12.3764C88.2711 12.3648 88.2781 12.3484 88.2781 12.3344C88.2781 12.3274 88.2781 12.3228 88.2758 12.3158C88.2688 12.2924 88.2501 12.2761 88.2291 12.2714C88.2291 12.2714 87.8348 12.1804 87.6948 12.1478C87.7788 12.0311 88.0168 11.7021 88.0168 11.7021C88.0238 11.6904 88.0285 11.6764 88.0285 11.6624C88.0285 11.6531 88.0261 11.6461 88.0238 11.6368C88.0145 11.6134 87.9935 11.5994 87.9725 11.5971C87.9725 11.5971 87.5735 11.5434 87.4311 11.5224C87.5035 11.4011 87.7135 11.0511 87.7135 11.0511C87.7181 11.0418 87.7228 11.0278 87.7228 11.0161C87.7228 11.0068 87.7205 10.9928 87.7158 10.9834C87.7065 10.9648 87.6831 10.9484 87.6621 10.9484C87.6621 10.9484 87.2561 10.9298 87.1138 10.9204C87.1745 10.7921 87.3518 10.4258 87.3518 10.4258C87.3565 10.4164 87.3588 10.4071 87.3588 10.3978C87.3588 10.3861 87.3565 10.3721 87.3495 10.3604C87.3378 10.3418 87.3145 10.3301 87.2935 10.3301C87.2935 10.3301 86.8875 10.3464 86.7451 10.3534C86.7941 10.2204 86.9388 9.84009 86.9388 9.84009C86.9411 9.83309 86.9435 9.82609 86.9435 9.81676C86.9435 9.80276 86.9388 9.78642 86.9295 9.77476C86.9155 9.75842 86.8921 9.74676 86.8711 9.74909C86.8711 9.74909 86.4675 9.80276 86.3275 9.82142C86.3648 9.68609 86.4721 9.29409 86.4721 9.29409C86.4745 9.28942 86.4745 9.28242 86.4745 9.27776C86.4745 9.26142 86.4675 9.24509 86.4581 9.23342C86.4441 9.21709 86.4185 9.20776 86.3975 9.21476C86.3975 9.21476 86.0031 9.30342 85.8631 9.33609C85.8888 9.19609 85.9588 8.79709 85.9588 8.79709V8.78542C85.9588 8.76676 85.9518 8.74809 85.9355 8.73642C85.9191 8.72242 85.8935 8.71776 85.8701 8.72476C85.8701 8.72476 85.4828 8.84842 85.3498 8.89276C85.3615 8.75276 85.3988 8.34676 85.3988 8.34676V8.34209C85.3988 8.32342 85.3895 8.30242 85.3708 8.29076C85.3521 8.27909 85.3288 8.27442 85.3055 8.28376C85.3055 8.28376 84.9321 8.44242 84.8015 8.49609V7.94776C84.8015 7.92442 84.7898 7.90342 84.7688 7.89176C84.7478 7.88009 84.7245 7.88009 84.7035 7.88942C84.7035 7.88942 84.3465 8.07842 84.2205 8.14609C84.2088 8.00609 84.1715 7.60009 84.1715 7.60009C84.1691 7.57676 84.1551 7.55809 84.1341 7.54642C84.1155 7.53709 84.0898 7.53942 84.0688 7.55109C84.0688 7.55109 83.7305 7.77276 83.6115 7.84976C83.5858 7.70976 83.5135 7.31076 83.5135 7.31076C83.5088 7.28742 83.4948 7.26876 83.4715 7.26176C83.4481 7.25476 83.4248 7.25709 83.4061 7.27109C83.4061 7.27109 83.0865 7.52309 82.9768 7.61176C82.9395 7.47642 82.8321 7.08442 82.8321 7.08442C82.8251 7.06109 82.8065 7.04476 82.7855 7.03776C82.7645 7.03076 82.7388 7.03776 82.7248 7.05176C82.7248 7.05176 82.4308 7.33176 82.3281 7.42976C82.2791 7.29676 82.1345 6.91642 82.1345 6.91642C82.1275 6.89309 82.1065 6.87909 82.0855 6.87442C82.0645 6.86976 82.0388 6.87909 82.0248 6.89776C82.0248 6.89776 81.7588 7.20109 81.6631 7.30842C81.6025 7.18009 81.4251 6.81376 81.4251 6.81376C81.4158 6.79509 81.3948 6.77876 81.3715 6.77642C81.3481 6.77409 81.3271 6.78342 81.3131 6.80442C81.3131 6.80442 81.0705 7.13576 80.9888 7.25009C80.9141 7.13109 80.6971 6.78576 80.6971 6.78576C80.6691 6.78109 80.6481 6.76942 80.6248 6.76942L80.6155 6.76709ZM80.2865 7.44609C80.3098 7.44609 80.3285 7.43442 80.3401 7.41342C80.3401 7.41342 80.5408 7.08209 80.6178 6.95609C80.6971 7.08209 80.9048 7.41109 80.9048 7.41109C80.9165 7.42742 80.9375 7.44142 80.9585 7.44142C80.9795 7.44142 81.0005 7.43209 81.0121 7.41342C81.0121 7.41342 81.2385 7.10309 81.3271 6.97942C81.3948 7.11476 81.5628 7.46242 81.5628 7.46242C81.5721 7.48109 81.5908 7.49742 81.6118 7.49976C81.6328 7.50209 81.6561 7.49509 81.6701 7.47642C81.6701 7.47642 81.9245 7.18709 82.0248 7.07276C82.0761 7.21276 82.2138 7.57676 82.2138 7.57676C82.2208 7.59542 82.2395 7.61409 82.2605 7.61876C82.2815 7.62342 82.3048 7.61876 82.3188 7.60242C82.3188 7.60242 82.5988 7.33642 82.7085 7.23142C82.7481 7.37609 82.8508 7.74942 82.8508 7.74942C82.8555 7.77276 82.8741 7.78676 82.8928 7.79376C82.9161 7.80076 82.9371 7.79609 82.9535 7.78442C82.9535 7.78442 83.2545 7.54409 83.3735 7.45076C83.4015 7.60009 83.4691 7.97809 83.4691 7.97809C83.4738 8.00142 83.4855 8.01776 83.5088 8.02709C83.5275 8.03409 83.5531 8.03409 83.5695 8.02242C83.5695 8.02242 83.8938 7.81009 84.0198 7.72842C84.0315 7.88009 84.0688 8.26509 84.0688 8.26509C84.0711 8.28842 84.0828 8.30709 84.1038 8.31642C84.1248 8.32576 84.1458 8.32576 84.1645 8.31642C84.1645 8.31642 84.5051 8.13442 84.6381 8.06442V8.60342C84.6381 8.62676 84.6475 8.64542 84.6685 8.65709C84.6848 8.66876 84.7105 8.67109 84.7291 8.66176C84.7291 8.66176 85.0838 8.51009 85.2238 8.45176C85.2121 8.60342 85.1771 8.98609 85.1771 8.98609V8.99076C85.1771 9.00942 85.1865 9.03042 85.2028 9.04209C85.2191 9.05609 85.2425 9.05842 85.2635 9.05376C85.2635 9.05376 85.6321 8.93476 85.7745 8.88809C85.7465 9.03742 85.6788 9.41542 85.6788 9.41542V9.42709C85.6788 9.44342 85.6858 9.46209 85.6975 9.47376C85.7115 9.48776 85.7371 9.49709 85.7558 9.49009C85.7558 9.49009 86.1338 9.40609 86.2785 9.37109C86.2388 9.51576 86.1361 9.88909 86.1361 9.88909C86.1338 9.89376 86.1338 9.90076 86.1338 9.90542C86.1338 9.91942 86.1385 9.93809 86.1501 9.94742C86.1641 9.96376 86.1875 9.97309 86.2085 9.97076C86.2085 9.97076 86.5911 9.91942 86.7428 9.89842C86.6915 10.0384 86.5561 10.4024 86.5561 10.4024C86.5538 10.4094 86.5515 10.4164 86.5515 10.4258C86.5515 10.4398 86.5561 10.4538 86.5631 10.4654C86.5748 10.4818 86.5981 10.4934 86.6191 10.4934C86.6191 10.4934 87.0041 10.4771 87.1558 10.4701C87.0881 10.6054 86.9248 10.9531 86.9248 10.9531C86.9201 10.9624 86.9178 10.9718 86.9178 10.9834C86.9178 10.9951 86.9201 11.0068 86.9271 11.0184C86.9388 11.0371 86.9598 11.0511 86.9808 11.0511C86.9808 11.0511 87.3658 11.0698 87.5175 11.0791C87.4405 11.2074 87.2398 11.5411 87.2398 11.5411C87.2351 11.5504 87.2305 11.5644 87.2305 11.5761C87.2305 11.5854 87.2328 11.5948 87.2375 11.6041C87.2468 11.6228 87.2678 11.6391 87.2865 11.6414C87.2865 11.6414 87.6691 11.6928 87.8185 11.7161C87.7298 11.8398 87.5035 12.1501 87.5035 12.1501C87.4965 12.1618 87.4918 12.1758 87.4918 12.1898C87.4918 12.1968 87.4941 12.2038 87.4965 12.2131C87.5035 12.2318 87.5221 12.2504 87.5431 12.2551C87.5431 12.2551 87.9188 12.3414 88.0658 12.3764C87.9678 12.4908 87.7135 12.7824 87.7135 12.7824C87.7041 12.7941 87.6971 12.8104 87.6971 12.8244C87.6971 12.8291 87.6971 12.8361 87.6995 12.8408C87.7041 12.8641 87.7228 12.8781 87.7415 12.8851C87.7415 12.8851 88.1055 13.0018 88.2501 13.0484C88.1381 13.1511 87.8651 13.4148 87.8651 13.4148C87.8535 13.4264 87.8465 13.4451 87.8465 13.4614V13.4731C87.8511 13.4964 87.8651 13.5128 87.8861 13.5221C87.8861 13.5221 88.2408 13.6761 88.3808 13.7344C88.2618 13.8278 87.9608 14.0704 87.9608 14.0704C87.9468 14.0821 87.9351 14.1031 87.9351 14.1218V14.1264C87.9375 14.1498 87.9491 14.1684 87.9701 14.1778C87.9701 14.1778 88.3085 14.3598 88.4415 14.4321C88.3155 14.5161 87.9935 14.7284 87.9935 14.7284C87.9771 14.7401 87.9631 14.7611 87.9631 14.7821C87.9631 14.8054 87.9725 14.8241 87.9935 14.8358C87.9935 14.8358 88.3155 15.0504 88.4415 15.1321C88.3085 15.2044 87.9678 15.3864 87.9678 15.3864C87.9491 15.3958 87.9351 15.4168 87.9328 15.4378V15.4424C87.9328 15.4611 87.9421 15.4821 87.9585 15.4938C87.9585 15.4938 88.2595 15.7364 88.3785 15.8298C88.2408 15.8881 87.8838 16.0421 87.8838 16.0421C87.8651 16.0514 87.8488 16.0701 87.8441 16.0911V16.1028C87.8441 16.1191 87.8511 16.1378 87.8628 16.1494C87.8628 16.1494 88.1428 16.4154 88.2501 16.5228C88.1078 16.5694 87.7391 16.6908 87.7391 16.6908C87.7205 16.6978 87.7018 16.7164 87.6971 16.7351C87.6948 16.7398 87.6948 16.7468 87.6948 16.7514C87.6948 16.7654 87.6995 16.7841 87.7088 16.7934C87.7088 16.7934 87.9631 17.0851 88.0611 17.1994C87.9118 17.2344 87.5385 17.3208 87.5385 17.3208C87.5151 17.3254 87.4988 17.3394 87.4918 17.3628C87.4895 17.3698 87.4871 17.3768 87.4871 17.3861C87.4871 17.4001 87.4918 17.4141 87.4988 17.4258C87.4988 17.4258 87.7251 17.7384 87.8138 17.8598C87.6645 17.8784 87.2818 17.9344 87.2818 17.9344C87.2585 17.9368 87.2421 17.9508 87.2328 17.9718C87.2281 17.9811 87.2258 17.9904 87.2258 18.0021C87.2258 18.0138 87.2281 18.0254 87.2351 18.0371C87.2351 18.0371 87.4335 18.3684 87.5081 18.4991C87.3565 18.5061 86.9715 18.5248 86.9715 18.5248C86.9481 18.5248 86.9295 18.5364 86.9178 18.5574C86.9131 18.5668 86.9085 18.5808 86.9085 18.5924C86.9085 18.6018 86.9108 18.6111 86.9155 18.6228C86.9155 18.6228 87.0835 18.9704 87.1465 19.1081C86.9948 19.1011 86.6075 19.0824 86.6075 19.0824C86.5841 19.0824 86.5655 19.0918 86.5515 19.1104C86.5445 19.1221 86.5398 19.1361 86.5398 19.1501C86.5398 19.1571 86.5421 19.1641 86.5445 19.1734C86.5445 19.1734 86.6798 19.5351 86.7311 19.6774C86.5795 19.6588 86.1968 19.6051 86.1968 19.6051C86.1735 19.6028 86.1525 19.6098 86.1385 19.6284C86.1291 19.6401 86.1245 19.6564 86.1245 19.6704C86.1245 19.6774 86.1245 19.6844 86.1268 19.6891C86.1268 19.6891 86.2551 20.0834 86.3065 20.2421C86.1455 20.1978 85.7465 20.0858 85.7465 20.0858C85.7231 20.0811 85.7021 20.0858 85.6858 20.0998C85.6718 20.1114 85.6625 20.1301 85.6625 20.1488V20.1604C85.6625 20.1604 85.7325 20.5408 85.7581 20.6878C85.6158 20.6411 85.2471 20.5221 85.2471 20.5221C85.2285 20.5151 85.2028 20.5198 85.1865 20.5338C85.1725 20.5454 85.1608 20.5664 85.1608 20.5851V20.5898C85.1608 20.5898 85.1958 20.9748 85.2075 21.1264C85.0698 21.0681 84.7105 20.9164 84.7105 20.9164C84.6918 20.9094 84.6661 20.9094 84.6498 20.9211C84.6335 20.9328 84.6195 20.9538 84.6195 20.9748V21.5114C84.4865 21.4391 84.1481 21.2594 84.1481 21.2594C84.1295 21.2501 84.1061 21.2501 84.0875 21.2594C84.0688 21.2688 84.0548 21.2898 84.0525 21.3108C84.0525 21.3108 84.0175 21.6958 84.0035 21.8474C83.8775 21.7634 83.5508 21.5511 83.5508 21.5511C83.5345 21.5394 83.5088 21.5371 83.4901 21.5464C83.4715 21.5558 83.4551 21.5744 83.4505 21.5954C83.4505 21.5954 83.3805 21.9758 83.3548 22.1228C83.2358 22.0294 82.9325 21.7891 82.9325 21.7891C82.9161 21.7774 82.8928 21.7728 82.8718 21.7798C82.8531 21.7868 82.8345 21.8054 82.8298 21.8241C82.8298 21.8241 82.7271 22.1974 82.6875 22.3398C82.5778 22.2371 82.3001 21.9688 82.3001 21.9688C82.2861 21.9548 82.2605 21.9454 82.2418 21.9524C82.2185 21.9571 82.2021 21.9711 82.1951 21.9944C82.1951 21.9944 82.0598 22.3561 82.0061 22.4984C81.9081 22.3841 81.6538 22.0948 81.6538 22.0948C81.6398 22.0784 81.6165 22.0691 81.5955 22.0714C81.5721 22.0738 81.5558 22.0878 81.5465 22.1088C81.5465 22.1088 81.3785 22.4564 81.3108 22.5918C81.2221 22.4704 80.9958 22.1601 80.9958 22.1601C80.9841 22.1438 80.9608 22.1321 80.9398 22.1321C80.9188 22.1321 80.8978 22.1438 80.8861 22.1648C80.8861 22.1648 80.6855 22.4961 80.6085 22.6268C80.5315 22.4984 80.3308 22.1648 80.3308 22.1648C80.3191 22.1461 80.2981 22.1344 80.2771 22.1321C80.2538 22.1321 80.2351 22.1414 80.2211 22.1601C80.2211 22.1601 79.9948 22.4704 79.9061 22.5941C79.8385 22.4588 79.6705 22.1111 79.6705 22.1111C79.6611 22.0924 79.6401 22.0761 79.6215 22.0738C79.5981 22.0714 79.5771 22.0784 79.5631 22.0971C79.5631 22.0971 79.3088 22.3888 79.2108 22.5031C79.1571 22.3631 79.0218 21.9991 79.0218 21.9991C79.0148 21.9804 78.9961 21.9618 78.9751 21.9594C78.9518 21.9548 78.9308 21.9618 78.9168 21.9758C78.9168 21.9758 78.6368 22.2418 78.5295 22.3468C78.4898 22.2021 78.3871 21.8288 78.3871 21.8288C78.3825 21.8054 78.3638 21.7914 78.3451 21.7844C78.3265 21.7774 78.3008 21.7821 78.2845 21.7938C78.2845 21.7938 77.9811 22.0341 77.8645 22.1274C77.8365 21.9781 77.7688 21.6001 77.7688 21.6001C77.7641 21.5768 77.7501 21.5604 77.7291 21.5511C77.7105 21.5418 77.6848 21.5441 77.6685 21.5558C77.6685 21.5558 77.3441 21.7681 77.2181 21.8521C77.2041 21.7004 77.1691 21.3178 77.1691 21.3178C77.1668 21.2944 77.1551 21.2758 77.1341 21.2664C77.1131 21.2571 77.0921 21.2571 77.0735 21.2664C77.0735 21.2664 76.7328 21.4484 76.5998 21.5208V20.9818C76.5998 20.9584 76.5881 20.9398 76.5695 20.9281C76.5508 20.9164 76.5275 20.9141 76.5088 20.9234C76.5088 20.9234 76.1541 21.0751 76.0141 21.1334C76.0258 20.9818 76.0608 20.5968 76.0608 20.5968V20.5921C76.0608 20.5734 76.0515 20.5524 76.0351 20.5408C76.0188 20.5268 75.9955 20.5244 75.9745 20.5291C75.9745 20.5291 75.6058 20.6481 75.4635 20.6948C75.4915 20.5454 75.5591 20.1674 75.5591 20.1674V20.1558C75.5591 20.1394 75.5521 20.1208 75.5405 20.1091C75.5265 20.0951 75.5008 20.0858 75.4821 20.0928C75.4821 20.0928 75.1065 20.1768 74.9595 20.2118C74.9991 20.0671 75.1018 19.6938 75.1018 19.6938C75.1041 19.6891 75.1041 19.6821 75.1041 19.6774C75.1041 19.6634 75.0995 19.6448 75.0878 19.6354C75.0738 19.6191 75.0505 19.6098 75.0295 19.6121C75.0295 19.6121 74.6468 19.6611 74.4951 19.6821C74.5465 19.5421 74.6818 19.1781 74.6818 19.1781C74.6841 19.1711 74.6865 19.1641 74.6865 19.1548C74.6865 19.1408 74.6818 19.1268 74.6748 19.1151C74.6631 19.0988 74.6398 19.0871 74.6188 19.0871C74.6188 19.0871 74.2338 19.1034 74.0821 19.1104C74.1475 18.9751 74.3131 18.6274 74.3131 18.6274C74.3178 18.6181 74.3201 18.6088 74.3201 18.5994C74.3201 18.5878 74.3178 18.5761 74.3108 18.5644C74.2991 18.5458 74.2781 18.5318 74.2571 18.5318C74.2571 18.5318 73.8721 18.5154 73.7205 18.5061C73.7975 18.3778 73.9935 18.0441 73.9935 18.0441C74.0005 18.0348 74.0028 18.0208 74.0028 18.0091C74.0028 17.9998 74.0005 17.9904 73.9958 17.9788C73.9865 17.9601 73.9655 17.9438 73.9468 17.9414C73.9468 17.9414 73.5641 17.8901 73.4125 17.8668C73.5011 17.7454 73.7251 17.4328 73.7251 17.4328C73.7321 17.4211 73.7368 17.4071 73.7368 17.3931C73.7368 17.3861 73.7345 17.3791 73.7321 17.3698C73.7251 17.3511 73.7065 17.3324 73.6855 17.3278C73.6855 17.3278 73.3075 17.2414 73.1628 17.2064C73.2608 17.0921 73.5151 16.8004 73.5151 16.8004C73.5245 16.7888 73.5315 16.7724 73.5315 16.7584C73.5315 16.7538 73.5315 16.7468 73.5291 16.7421C73.5245 16.7188 73.5058 16.7048 73.4871 16.6978C73.4871 16.6978 73.1185 16.5764 72.9761 16.5298C73.0858 16.4271 73.3635 16.1588 73.3635 16.1588C73.3751 16.1471 73.3821 16.1284 73.3821 16.1121V16.1004C73.3775 16.0771 73.3658 16.0608 73.3425 16.0514C73.3425 16.0514 72.9878 15.8974 72.8478 15.8391C72.9668 15.7458 73.2678 15.5031 73.2678 15.5031C73.2818 15.4914 73.2935 15.4704 73.2935 15.4518V15.4471C73.2911 15.4238 73.2795 15.4051 73.2585 15.3958C73.2585 15.3958 72.9178 15.2114 72.7871 15.1391C72.9131 15.0551 73.2351 14.8428 73.2351 14.8428C73.2515 14.8311 73.2655 14.8101 73.2655 14.7891C73.2655 14.7658 73.2561 14.7471 73.2351 14.7354C73.2351 14.7354 72.9131 14.5208 72.7871 14.4391C72.9201 14.3668 73.2608 14.1824 73.2608 14.1824C73.2795 14.1731 73.2935 14.1521 73.2958 14.1311V14.1264C73.2958 14.1078 73.2865 14.0868 73.2701 14.0751C73.2701 14.0751 72.9691 13.8324 72.8501 13.7391C72.9878 13.6808 73.3448 13.5268 73.3448 13.5268C73.3635 13.5174 73.3798 13.4988 73.3845 13.4778V13.4661C73.3845 13.4498 73.3775 13.4311 73.3658 13.4194C73.3658 13.4194 73.0858 13.1534 72.9785 13.0484C73.1208 13.0018 73.4871 12.8828 73.4871 12.8828C73.5058 12.8758 73.5245 12.8571 73.5291 12.8384C73.5315 12.8338 73.5315 12.8268 73.5315 12.8221C73.5315 12.8081 73.5268 12.7894 73.5151 12.7801C73.5151 12.7801 73.2608 12.4884 73.1628 12.3741C73.3121 12.3391 73.6855 12.2528 73.6855 12.2528C73.7088 12.2481 73.7251 12.2341 73.7321 12.2108C73.7345 12.2038 73.7368 12.1968 73.7368 12.1874C73.7368 12.1734 73.7321 12.1594 73.7251 12.1478C73.7251 12.1478 73.4988 11.8351 73.4101 11.7138C73.5618 11.6951 73.9445 11.6391 73.9445 11.6391C73.9678 11.6368 73.9841 11.6228 73.9935 11.6018C73.9981 11.5924 74.0005 11.5831 74.0005 11.5714C74.0005 11.5598 73.9981 11.5481 73.9911 11.5364C73.9911 11.5364 73.7928 11.2051 73.7181 11.0744C73.8698 11.0674 74.2548 11.0488 74.2548 11.0488C74.2781 11.0488 74.2968 11.0371 74.3085 11.0161C74.3131 11.0068 74.3178 10.9928 74.3178 10.9811C74.3178 10.9718 74.3155 10.9624 74.3108 10.9531C74.3108 10.9531 74.1428 10.6054 74.0798 10.4701C74.2315 10.4771 74.6165 10.4934 74.6165 10.4934C74.6398 10.4934 74.6585 10.4841 74.6725 10.4654C74.6795 10.4538 74.6841 10.4398 74.6841 10.4258C74.6841 10.4188 74.6818 10.4118 74.6795 10.4024C74.6795 10.4024 74.5441 10.0408 74.4928 9.89842C74.6445 9.91709 75.0271 9.97076 75.0271 9.97076C75.0505 9.97309 75.0715 9.96609 75.0855 9.94742C75.0948 9.93576 75.1018 9.91942 75.1018 9.90542C75.1018 9.90076 75.1018 9.89376 75.0995 9.88909C75.0995 9.88909 74.9991 9.51576 74.9595 9.37109C75.1088 9.40609 75.4821 9.49009 75.4821 9.49009C75.5055 9.49476 75.5265 9.49009 75.5405 9.47376C75.5521 9.46209 75.5591 9.44342 75.5591 9.42709V9.41542C75.5591 9.41542 75.4891 9.03509 75.4658 8.88809C75.6081 8.93476 75.9768 9.05376 75.9768 9.05376C75.9955 9.06076 76.0211 9.05609 76.0375 9.04209C76.0515 9.03042 76.0631 9.00942 76.0631 8.99076V8.98609C76.0631 8.98609 76.0281 8.60109 76.0165 8.44942C76.1541 8.50776 76.5111 8.65942 76.5111 8.65942C76.5298 8.66642 76.5555 8.66642 76.5718 8.65476C76.5881 8.64309 76.6021 8.62209 76.6021 8.60109V8.06209C76.7351 8.13442 77.0758 8.31642 77.0758 8.31642C77.0945 8.32576 77.1178 8.32576 77.1365 8.31642C77.1551 8.30709 77.1691 8.28609 77.1715 8.26509C77.1715 8.26509 77.2065 7.88009 77.2205 7.72842C77.3465 7.81242 77.6708 8.02242 77.6708 8.02242C77.6871 8.03409 77.7128 8.03642 77.7315 8.02709C77.7501 8.02009 77.7665 7.99909 77.7711 7.97809C77.7711 7.97809 77.8411 7.59776 77.8668 7.45076C77.9858 7.54409 78.2868 7.78442 78.2868 7.78442C78.3031 7.79842 78.3265 7.80076 78.3475 7.79376C78.3661 7.78676 78.3848 7.76809 78.3895 7.74942C78.3895 7.74942 78.4921 7.37609 78.5318 7.23142C78.6415 7.33409 78.9215 7.60242 78.9215 7.60242C78.9355 7.61642 78.9611 7.62576 78.9798 7.61876C79.0031 7.61409 79.0195 7.60009 79.0265 7.57909C79.0265 7.57909 79.1618 7.21742 79.2155 7.07742C79.3135 7.19176 79.5678 7.48342 79.5678 7.48342C79.5818 7.49976 79.6051 7.50909 79.6261 7.50676C79.6495 7.50442 79.6658 7.49042 79.6751 7.46942C79.6751 7.46942 79.8431 7.12176 79.9108 6.98642C79.9995 7.10776 80.2258 7.42042 80.2258 7.42042C80.2375 7.43442 80.2608 7.44609 80.2818 7.44609H80.2865Z" fill="#EE2E24"/>
<path d="M85.9518 10.3206L85.4291 10.8433C85.4174 10.8549 85.4128 10.8713 85.4104 10.8853C85.4104 10.8853 85.3964 11.1023 85.3941 11.1419C85.3591 11.1769 83.1424 13.3936 83.1074 13.4286C83.0678 13.4309 82.8508 13.4449 82.8508 13.4449C82.8368 13.4449 82.8204 13.4519 82.8088 13.4636L82.2861 13.9863C82.2744 13.9979 82.2674 14.0166 82.2674 14.0329C82.2674 14.0493 82.2744 14.0679 82.2861 14.0796L82.8321 14.6256C82.8438 14.6373 82.8624 14.6443 82.8788 14.6443C82.8951 14.6443 82.9138 14.6373 82.9254 14.6256L83.4481 14.1029C83.4598 14.0913 83.4644 14.0749 83.4668 14.0609C83.4668 14.0609 83.4808 13.8439 83.4831 13.8043C83.5181 13.7693 85.7348 11.5526 85.7698 11.5176C85.8118 11.5153 86.0264 11.5013 86.0264 11.5013C86.0404 11.5013 86.0568 11.4943 86.0684 11.4826L86.5911 10.9599C86.6028 10.9483 86.6098 10.9296 86.6098 10.9133C86.6098 10.8969 86.6028 10.8783 86.5911 10.8666L86.0451 10.3206C86.0171 10.2949 85.9751 10.2949 85.9518 10.3206ZM85.9984 10.4606C86.0708 10.5329 86.3811 10.8433 86.4534 10.9156C86.3788 10.9903 86.0241 11.3449 85.9938 11.3753C85.9518 11.3776 85.7371 11.3916 85.7371 11.3916C85.7231 11.3916 85.7068 11.3986 85.6951 11.4103L83.3734 13.7319C83.3618 13.7436 83.3571 13.7599 83.3548 13.7739C83.3548 13.7739 83.3408 13.9909 83.3384 14.0306C83.3081 14.0609 82.9534 14.4156 82.8788 14.4903C82.8064 14.4179 82.4961 14.1076 82.4261 14.0353C82.5008 13.9606 82.8554 13.6059 82.8858 13.5756C82.9278 13.5733 83.1424 13.5593 83.1424 13.5593C83.1564 13.5593 83.1728 13.5523 83.1844 13.5406L85.5061 11.2189C85.5178 11.2073 85.5224 11.1909 85.5248 11.1769C85.5248 11.1769 85.5388 10.9599 85.5411 10.9203C85.5668 10.8899 85.9238 10.5353 85.9984 10.4606ZM85.1864 9.57393L84.6638 10.0966C84.6521 10.1083 84.6474 10.1246 84.6451 10.1386C84.6451 10.1386 84.6311 10.3556 84.6288 10.3953C84.5938 10.4303 82.3771 12.6469 82.3421 12.6819C82.3001 12.6843 82.0854 12.6983 82.0854 12.6983C82.0714 12.6983 82.0551 12.7053 82.0434 12.7169L81.5208 13.2396C81.5091 13.2513 81.5021 13.2699 81.5021 13.2863C81.5021 13.3026 81.5091 13.3213 81.5208 13.3329L82.0668 13.8789C82.0924 13.9046 82.1344 13.9046 82.1601 13.8789L82.6828 13.3563C82.6944 13.3446 82.6991 13.3283 82.7014 13.3143C82.7014 13.3143 82.7154 13.0973 82.7178 13.0576C82.7528 13.0226 84.9694 10.8059 85.0044 10.7709C85.0441 10.7686 85.2611 10.7546 85.2611 10.7546C85.2751 10.7546 85.2914 10.7476 85.3031 10.7359L85.8258 10.2133C85.8374 10.2016 85.8444 10.1829 85.8444 10.1666C85.8444 10.1503 85.8374 10.1316 85.8258 10.1199L85.2798 9.57393C85.2518 9.54593 85.2098 9.54593 85.1864 9.57393ZM85.2331 9.7116C85.3054 9.78393 85.6158 10.0943 85.6881 10.1666C85.6134 10.2413 85.2588 10.5959 85.2284 10.6263C85.1888 10.6286 84.9718 10.6426 84.9718 10.6426C84.9578 10.6426 84.9414 10.6496 84.9298 10.6613L82.6081 12.9829C82.5964 12.9946 82.5918 13.0109 82.5894 13.0249C82.5894 13.0249 82.5754 13.2419 82.5731 13.2816C82.5428 13.3119 82.1881 13.6666 82.1134 13.7413C82.0411 13.6689 81.7308 13.3586 81.6584 13.2863C81.7331 13.2116 82.0878 12.8569 82.1181 12.8266C82.1601 12.8243 82.3748 12.8103 82.3748 12.8103C82.3888 12.8103 82.4051 12.8033 82.4168 12.7916L84.7384 10.4699C84.7501 10.4583 84.7548 10.4419 84.7571 10.4279C84.7571 10.4279 84.7711 10.2109 84.7734 10.1713C84.8014 10.1433 85.1561 9.78626 85.2331 9.7116ZM84.4748 8.79693C84.4584 8.79693 84.4398 8.80393 84.4281 8.8156L83.9054 9.33826C83.8938 9.34993 83.8891 9.36626 83.8868 9.38026C83.8868 9.38026 83.8728 9.59726 83.8704 9.63693C83.8354 9.67193 81.6188 11.8886 81.5838 11.9236C81.5418 11.9259 81.3271 11.9399 81.3271 11.9399C81.3131 11.9399 81.2968 11.9469 81.2851 11.9586L80.7624 12.4813C80.7508 12.4929 80.7438 12.5116 80.7438 12.5279C80.7438 12.5443 80.7508 12.5629 80.7624 12.5746L81.3084 13.1206C81.3341 13.1463 81.3761 13.1463 81.4018 13.1206L81.9244 12.5979C81.9361 12.5863 81.9408 12.5699 81.9431 12.5559C81.9431 12.5559 81.9571 12.3389 81.9594 12.2993C81.9944 12.2643 84.2111 10.0476 84.2461 10.0126C84.2881 10.0103 84.5028 9.99626 84.5028 9.99626C84.5168 9.99626 84.5331 9.98926 84.5448 9.9776L85.0674 9.45493C85.0791 9.44326 85.0861 9.4246 85.0861 9.40826C85.0861 9.39193 85.0791 9.37326 85.0674 9.3616L84.5214 8.8156C84.5098 8.8016 84.4911 8.79693 84.4748 8.79693ZM84.4748 8.9556C84.5471 9.02793 84.8574 9.33826 84.9298 9.4106C84.8551 9.48526 84.5004 9.83993 84.4701 9.87026C84.4281 9.8726 84.2134 9.8866 84.2134 9.8866C84.1994 9.8866 84.1831 9.8936 84.1714 9.90526L81.8498 12.2269C81.8381 12.2386 81.8334 12.2549 81.8311 12.2689C81.8311 12.2689 81.8171 12.4859 81.8148 12.5256C81.7844 12.5559 81.4298 12.9106 81.3551 12.9853C81.2828 12.9129 80.9724 12.6026 80.9001 12.5303C80.9748 12.4556 81.3294 12.1009 81.3598 12.0706C81.3994 12.0683 81.6164 12.0543 81.6164 12.0543C81.6304 12.0543 81.6468 12.0473 81.6584 12.0356L83.9801 9.71393C83.9918 9.70226 83.9964 9.68593 83.9988 9.67193C83.9988 9.67193 84.0128 9.45493 84.0151 9.41526C84.0454 9.38493 84.4001 9.03026 84.4748 8.9556ZM79.8618 16.4386C79.8454 16.4386 79.8268 16.4456 79.8151 16.4573L79.2924 16.9799C79.2808 16.9916 79.2761 17.0079 79.2738 17.0219C79.2738 17.0219 79.2598 17.2389 79.2574 17.2786L76.9708 19.5653C76.9288 19.5676 76.7141 19.5816 76.7141 19.5816C76.7001 19.5816 76.6838 19.5886 76.6721 19.6003L76.1494 20.1229C76.1378 20.1346 76.1308 20.1533 76.1308 20.1696C76.1308 20.1859 76.1378 20.2046 76.1494 20.2163L76.6954 20.7623C76.7071 20.7739 76.7258 20.7809 76.7421 20.7809C76.7584 20.7809 76.7771 20.7739 76.7888 20.7623L77.3114 20.2396C77.3231 20.2279 77.3278 20.2116 77.3301 20.1976C77.3301 20.1976 77.3441 19.9806 77.3464 19.9409C77.3814 19.9059 79.5981 17.6893 79.6331 17.6543C79.6728 17.6519 79.8898 17.6379 79.8898 17.6379C79.9038 17.6379 79.9201 17.6309 79.9318 17.6193L80.4544 17.0966C80.4661 17.0849 80.4731 17.0663 80.4731 17.0499C80.4731 17.0336 80.4661 17.0149 80.4544 17.0033L79.9084 16.4573C79.8944 16.4433 79.8781 16.4386 79.8618 16.4386ZM79.8618 16.5973C79.9341 16.6696 80.2444 16.9799 80.3168 17.0523C80.2421 17.1269 79.8874 17.4816 79.8571 17.5119C79.8174 17.5143 79.6004 17.5283 79.6004 17.5283C79.5864 17.5283 79.5701 17.5353 79.5584 17.5469L77.2368 19.8686C77.2251 19.8803 77.2204 19.8966 77.2181 19.9106C77.2181 19.9106 77.2041 20.1276 77.2018 20.1673L76.7421 20.6269C76.6698 20.5546 76.3594 20.2443 76.2871 20.1743L76.7468 19.7146C76.7864 19.7123 77.0034 19.6983 77.0034 19.6983C77.0174 19.6983 77.0338 19.6913 77.0454 19.6796L79.3671 17.3579C79.3788 17.3463 79.3834 17.3299 79.3858 17.3159C79.3858 17.3159 79.3998 17.0989 79.4021 17.0593C79.4301 17.0266 79.7871 16.6719 79.8618 16.5973ZM79.0661 15.6919L78.5434 16.2146C78.5318 16.2263 78.5271 16.2426 78.5248 16.2566C78.5248 16.2566 78.5108 16.4736 78.5084 16.5133L76.2218 18.7999C76.1798 18.8023 75.9651 18.8163 75.9651 18.8163C75.9511 18.8163 75.9348 18.8233 75.9231 18.8349L75.4004 19.3576C75.3888 19.3693 75.3818 19.3879 75.3818 19.4043C75.3818 19.4206 75.3888 19.4393 75.4004 19.4509L75.9464 19.9969C75.9581 20.0086 75.9768 20.0156 75.9931 20.0156C76.0094 20.0156 76.0281 20.0086 76.0398 19.9969L76.5624 19.4743C76.5741 19.4626 76.5788 19.4463 76.5811 19.4323C76.5811 19.4323 76.5951 19.2153 76.5974 19.1756C76.6324 19.1406 78.8491 16.9239 78.8841 16.8889C78.9261 16.8866 79.1408 16.8726 79.1408 16.8726C79.1548 16.8726 79.1711 16.8656 79.1828 16.8539L79.7054 16.3313C79.7171 16.3196 79.7241 16.3009 79.7241 16.2846C79.7241 16.2683 79.7171 16.2496 79.7054 16.2379L79.1594 15.6919C79.1338 15.6663 79.0918 15.6663 79.0661 15.6919ZM79.1128 15.8319C79.1851 15.9043 79.4954 16.2146 79.5654 16.2869C79.4908 16.3616 79.1361 16.7163 79.1058 16.7466C79.0661 16.7489 78.8491 16.7629 78.8491 16.7629C78.8351 16.7629 78.8188 16.7699 78.8071 16.7816L76.4854 19.1033C76.4738 19.1149 76.4691 19.1313 76.4668 19.1453C76.4668 19.1453 76.4528 19.3623 76.4504 19.4019L75.9908 19.8616L75.5358 19.4066L75.9954 18.9469C76.0351 18.9446 76.2521 18.9306 76.2521 18.9306C76.2661 18.9306 76.2824 18.9236 76.2941 18.9119L78.6158 16.5903C78.6274 16.5786 78.6321 16.5623 78.6344 16.5483C78.6344 16.5483 78.6484 16.3313 78.6508 16.2916C78.6834 16.2613 79.0381 15.9066 79.1128 15.8319ZM78.3568 14.9149C78.3404 14.9149 78.3218 14.9219 78.3101 14.9336L77.7874 15.4563C77.7758 15.4679 77.7711 15.4843 77.7688 15.4983C77.7688 15.4983 77.7548 15.7153 77.7524 15.7549C77.7174 15.7899 75.5008 18.0066 75.4658 18.0416C75.4261 18.0439 75.2091 18.0579 75.2091 18.0579C75.1951 18.0579 75.1788 18.0649 75.1671 18.0766L74.6444 18.5993C74.6328 18.6109 74.6258 18.6296 74.6258 18.6459C74.6258 18.6623 74.6328 18.6809 74.6444 18.6926L75.1904 19.2386C75.2021 19.2503 75.2208 19.2573 75.2371 19.2573C75.2534 19.2573 75.2721 19.2503 75.2838 19.2386L75.8064 18.7159C75.8181 18.7043 75.8228 18.6879 75.8251 18.6739C75.8251 18.6739 75.8391 18.4569 75.8414 18.4173C75.8764 18.3823 78.0931 16.1656 78.1281 16.1306C78.1678 16.1283 78.3848 16.1143 78.3848 16.1143C78.3988 16.1143 78.4151 16.1073 78.4268 16.0956L78.9494 15.5729C78.9611 15.5613 78.9681 15.5426 78.9681 15.5263C78.9681 15.5099 78.9611 15.4913 78.9494 15.4796L78.4034 14.9336C78.3894 14.9219 78.3731 14.9149 78.3568 14.9149ZM78.3568 15.0736C78.4291 15.1459 78.7394 15.4563 78.8118 15.5286C78.7371 15.6033 78.3824 15.9579 78.3521 15.9883C78.3101 15.9906 78.0954 16.0046 78.0954 16.0046C78.0814 16.0046 78.0651 16.0116 78.0534 16.0233L75.7318 18.3449C75.7201 18.3566 75.7154 18.3729 75.7131 18.3869C75.7131 18.3869 75.6991 18.6039 75.6968 18.6436L75.2371 19.1033C75.1648 19.0309 74.8544 18.7206 74.7844 18.6483L75.2441 18.1886C75.2861 18.1863 75.5008 18.1723 75.5008 18.1723C75.5148 18.1723 75.5311 18.1653 75.5428 18.1536L77.8644 15.8319C77.8761 15.8203 77.8808 15.8039 77.8831 15.7899C77.8831 15.7899 77.8971 15.5729 77.8994 15.5333C77.9251 15.5053 78.2821 15.1483 78.3568 15.0736ZM82.8741 14.9243C82.8578 14.9243 82.8391 14.9313 82.8274 14.9429L82.2814 15.4889C82.2698 15.5006 82.2628 15.5193 82.2628 15.5356C82.2628 15.5519 82.2698 15.5706 82.2814 15.5823L82.8041 16.1049C82.8158 16.1166 82.8321 16.1213 82.8461 16.1236C82.8461 16.1236 83.0631 16.1376 83.1028 16.1399C83.1378 16.1749 85.3544 18.3916 85.3894 18.4266C85.3918 18.4663 85.4058 18.6833 85.4058 18.6833C85.4058 18.6973 85.4128 18.7136 85.4244 18.7253L85.9471 19.2479C85.9588 19.2596 85.9774 19.2666 85.9938 19.2666C86.0101 19.2666 86.0288 19.2596 86.0404 19.2479L86.5864 18.7019C86.5981 18.6903 86.6051 18.6716 86.6051 18.6553C86.6051 18.6389 86.5981 18.6203 86.5864 18.6086L86.0638 18.0859C86.0521 18.0743 86.0358 18.0696 86.0218 18.0673C86.0218 18.0673 85.8048 18.0533 85.7651 18.0509C85.7301 18.0159 83.5134 15.7993 83.4784 15.7643C83.4761 15.7223 83.4621 15.5076 83.4621 15.5076C83.4621 15.4936 83.4551 15.4773 83.4434 15.4656L82.9208 14.9429C82.9091 14.9313 82.8904 14.9243 82.8741 14.9243ZM82.8741 15.0829C82.9488 15.1576 83.3034 15.5123 83.3338 15.5426C83.3361 15.5823 83.3501 15.7993 83.3501 15.7993C83.3501 15.8133 83.3571 15.8296 83.3688 15.8413L85.6904 18.1629C85.7021 18.1746 85.7184 18.1793 85.7324 18.1816C85.7324 18.1816 85.9494 18.1956 85.9891 18.1979C86.0194 18.2283 86.3741 18.5829 86.4488 18.6576C86.3764 18.7299 86.0661 19.0403 85.9938 19.1126C85.9191 19.0379 85.5644 18.6833 85.5341 18.6529C85.5318 18.6133 85.5178 18.3963 85.5178 18.3963C85.5178 18.3823 85.5108 18.3659 85.4991 18.3543L83.1774 16.0326C83.1658 16.0209 83.1494 16.0163 83.1354 16.0139C83.1354 16.0139 82.9184 15.9999 82.8788 15.9976C82.8484 15.9673 82.4938 15.6126 82.4191 15.5379C82.4914 15.4656 82.8018 15.1553 82.8741 15.0829ZM82.0621 15.6896L81.5161 16.2356C81.5044 16.2473 81.4974 16.2659 81.4974 16.2823C81.4974 16.2986 81.5044 16.3173 81.5161 16.3289L82.0388 16.8516C82.0504 16.8633 82.0668 16.8679 82.0808 16.8703C82.0808 16.8703 82.2978 16.8843 82.3374 16.8866C82.3724 16.9216 84.5891 19.1383 84.6241 19.1733C84.6264 19.2153 84.6404 19.4299 84.6404 19.4299C84.6404 19.4439 84.6474 19.4603 84.6591 19.4719L85.1818 19.9946C85.1934 20.0063 85.2121 20.0133 85.2284 20.0133C85.2448 20.0133 85.2634 20.0063 85.2751 19.9946L85.8211 19.4486C85.8328 19.4369 85.8398 19.4183 85.8398 19.4019C85.8398 19.3856 85.8328 19.3669 85.8211 19.3553L85.2984 18.8326C85.2891 18.8209 85.2704 18.8163 85.2564 18.8139C85.2564 18.8139 85.0394 18.7999 84.9998 18.7976C84.9648 18.7626 82.7481 16.5459 82.7131 16.5109C82.7108 16.4713 82.6968 16.2543 82.6968 16.2543C82.6968 16.2403 82.6898 16.2239 82.6781 16.2123L82.1554 15.6896C82.1274 15.6639 82.0854 15.6639 82.0621 15.6896ZM82.1088 15.8296C82.1834 15.9043 82.5381 16.2589 82.5684 16.2893C82.5708 16.3289 82.5848 16.5459 82.5848 16.5459C82.5848 16.5599 82.5918 16.5763 82.6034 16.5879L84.9251 18.9096C84.9368 18.9213 84.9531 18.9259 84.9671 18.9283C84.9671 18.9283 85.1841 18.9423 85.2238 18.9446C85.2541 18.9749 85.6088 19.3296 85.6834 19.4043C85.6111 19.4766 85.3008 19.7869 85.2284 19.8593C85.1538 19.7846 84.7991 19.4299 84.7688 19.3996C84.7664 19.3576 84.7524 19.1429 84.7524 19.1429C84.7524 19.1289 84.7454 19.1126 84.7338 19.1009L82.4121 16.7793C82.4004 16.7676 82.3841 16.7629 82.3701 16.7606C82.3701 16.7606 82.1531 16.7466 82.1134 16.7443C82.0831 16.7139 81.7284 16.3593 81.6538 16.2846C81.7261 16.2123 82.0364 15.8996 82.1088 15.8296ZM81.3504 16.4269C81.3341 16.4269 81.3154 16.4339 81.3038 16.4456L80.7578 16.9916C80.7461 17.0033 80.7391 17.0219 80.7391 17.0383C80.7391 17.0546 80.7461 17.0733 80.7578 17.0849L81.2804 17.6076C81.2921 17.6193 81.3084 17.6239 81.3224 17.6263C81.3224 17.6263 81.5394 17.6403 81.5791 17.6426C81.6141 17.6776 83.8308 19.8943 83.8658 19.9293C83.8681 19.9713 83.8821 20.1859 83.8821 20.1859C83.8821 20.1999 83.8891 20.2163 83.9008 20.2279L84.4234 20.7506C84.4491 20.7763 84.4911 20.7763 84.5168 20.7506L85.0628 20.2046C85.0744 20.1929 85.0814 20.1743 85.0814 20.1579C85.0814 20.1416 85.0744 20.1229 85.0628 20.1113L84.5401 19.5886C84.5284 19.5769 84.5121 19.5723 84.4981 19.5699C84.4981 19.5699 84.2811 19.5559 84.2414 19.5536C84.2064 19.5186 81.9898 17.3019 81.9548 17.2669C81.9524 17.2249 81.9384 17.0103 81.9384 17.0103C81.9384 16.9963 81.9314 16.9799 81.9198 16.9683L81.3971 16.4456C81.3854 16.4339 81.3668 16.4269 81.3504 16.4269ZM81.3504 16.5856C81.4251 16.6603 81.7798 17.0149 81.8101 17.0453C81.8124 17.0849 81.8264 17.3019 81.8264 17.3019C81.8264 17.3159 81.8334 17.3323 81.8451 17.3439L84.1668 19.6656C84.1784 19.6773 84.1948 19.6819 84.2088 19.6843C84.2088 19.6843 84.4258 19.6983 84.4654 19.7006C84.4958 19.7309 84.8504 20.0856 84.9251 20.1603C84.8528 20.2326 84.5424 20.5429 84.4701 20.6153C84.3954 20.5406 84.0408 20.1859 84.0104 20.1556C84.0081 20.1159 83.9941 19.8989 83.9941 19.8989C83.9941 19.8849 83.9871 19.8686 83.9754 19.8569L81.6538 17.5353C81.6421 17.5236 81.6258 17.5189 81.6118 17.5166C81.6118 17.5166 81.3948 17.5026 81.3551 17.5003C81.3248 17.4699 80.9701 17.1153 80.8954 17.0406C80.9678 16.9683 81.2804 16.6579 81.3504 16.5856ZM76.7374 8.7876C76.7211 8.7876 76.7024 8.7946 76.6908 8.80626L76.1448 9.35226C76.1331 9.36393 76.1261 9.3826 76.1261 9.39893C76.1261 9.41526 76.1331 9.43393 76.1448 9.4456L76.6674 9.96826C76.6791 9.97993 76.6954 9.9846 76.7094 9.98693C76.7094 9.98693 76.9264 10.0009 76.9661 10.0033C77.0011 10.0383 79.2178 12.2549 79.2528 12.2899C79.2551 12.3319 79.2691 12.5466 79.2691 12.5466C79.2691 12.5606 79.2761 12.5769 79.2878 12.5886L79.8104 13.1113C79.8221 13.1229 79.8408 13.1299 79.8571 13.1299C79.8734 13.1299 79.8921 13.1229 79.9038 13.1113L80.4498 12.5653C80.4614 12.5536 80.4684 12.5349 80.4684 12.5186C80.4684 12.5023 80.4614 12.4836 80.4498 12.4719L79.9271 11.9493C79.9154 11.9376 79.8991 11.9329 79.8851 11.9306C79.8851 11.9306 79.6681 11.9166 79.6284 11.9143C79.5934 11.8793 77.3768 9.6626 77.3418 9.6276C77.3394 9.5856 77.3254 9.37093 77.3254 9.37093C77.3254 9.35693 77.3184 9.3406 77.3068 9.32893L76.7841 8.80626C76.7701 8.7946 76.7538 8.7876 76.7374 8.7876ZM76.7374 8.94626C76.8121 9.02093 77.1668 9.3756 77.1971 9.40593C77.1994 9.4456 77.2134 9.6626 77.2134 9.6626C77.2134 9.6766 77.2204 9.69293 77.2321 9.7046L79.5538 12.0263C79.5654 12.0379 79.5818 12.0426 79.5958 12.0449C79.5958 12.0449 79.8128 12.0589 79.8524 12.0613C79.8828 12.0916 80.2374 12.4463 80.3121 12.5209C80.2398 12.5933 79.9294 12.9036 79.8571 12.9759C79.7824 12.9013 79.4278 12.5466 79.3974 12.5163C79.3951 12.4766 79.3811 12.2596 79.3811 12.2596C79.3811 12.2456 79.3741 12.2293 79.3624 12.2176L77.0408 9.89593C77.0291 9.88426 77.0128 9.8796 76.9988 9.87726C76.9988 9.87726 76.7818 9.86326 76.7421 9.86093C76.7118 9.8306 76.3571 9.47593 76.2824 9.40126C76.3548 9.32893 76.6651 9.0186 76.7374 8.94626ZM75.9418 9.57393L75.3958 10.1199C75.3841 10.1316 75.3771 10.1503 75.3771 10.1666C75.3771 10.1829 75.3841 10.2016 75.3958 10.2133L75.9184 10.7359C75.9301 10.7476 75.9464 10.7523 75.9604 10.7546C75.9604 10.7546 76.1774 10.7686 76.2171 10.7709C76.2521 10.8059 78.4688 13.0226 78.5038 13.0576C78.5061 13.0996 78.5201 13.3143 78.5201 13.3143C78.5201 13.3283 78.5271 13.3446 78.5388 13.3563L79.0614 13.8789C79.0871 13.9046 79.1291 13.9046 79.1548 13.8789L79.7008 13.3329C79.7124 13.3213 79.7194 13.3026 79.7194 13.2863C79.7194 13.2699 79.7124 13.2513 79.7008 13.2396L79.1781 12.7169C79.1664 12.7053 79.1501 12.7006 79.1361 12.6983C79.1361 12.6983 78.9191 12.6843 78.8794 12.6819C78.8444 12.6469 76.6278 10.4303 76.5928 10.3953C76.5904 10.3556 76.5764 10.1386 76.5764 10.1386C76.5764 10.1246 76.5694 10.1083 76.5578 10.0966L76.0351 9.57393C76.0094 9.54593 75.9674 9.54593 75.9418 9.57393ZM75.9884 9.7116C76.0631 9.78626 76.4178 10.1409 76.4481 10.1713C76.4504 10.2109 76.4644 10.4279 76.4644 10.4279C76.4644 10.4419 76.4714 10.4583 76.4831 10.4699L78.8048 12.7916C78.8164 12.8033 78.8328 12.8079 78.8468 12.8103C78.8468 12.8103 79.0638 12.8243 79.1034 12.8266C79.1338 12.8569 79.4884 13.2116 79.5631 13.2863C79.4908 13.3586 79.1804 13.6689 79.1104 13.7413C79.0358 13.6666 78.6811 13.3119 78.6508 13.2816C78.6484 13.2396 78.6344 13.0249 78.6344 13.0249C78.6344 13.0109 78.6274 12.9946 78.6158 12.9829L76.2941 10.6613C76.2824 10.6496 76.2661 10.6449 76.2521 10.6426C76.2521 10.6426 76.0351 10.6286 75.9954 10.6263C75.9651 10.5959 75.6104 10.2413 75.5358 10.1666C75.6058 10.0943 75.9184 9.78393 75.9884 9.7116ZM75.1858 10.3299L74.6398 10.8759C74.6281 10.8876 74.6211 10.9063 74.6211 10.9226C74.6211 10.9389 74.6281 10.9576 74.6398 10.9693L75.1624 11.4919C75.1741 11.5036 75.1904 11.5083 75.2044 11.5106C75.2044 11.5106 75.4214 11.5246 75.4611 11.5269C75.4961 11.5619 77.7128 13.7786 77.7478 13.8136C77.7501 13.8556 77.7641 14.0703 77.7641 14.0703C77.7641 14.0843 77.7711 14.1006 77.7828 14.1123L78.3054 14.6349C78.3311 14.6606 78.3731 14.6606 78.3988 14.6349L78.9448 14.0889C78.9564 14.0773 78.9634 14.0586 78.9634 14.0423C78.9634 14.0259 78.9564 14.0073 78.9448 13.9956L78.4221 13.4729C78.4104 13.4613 78.3941 13.4566 78.3801 13.4543C78.3801 13.4543 78.1631 13.4403 78.1234 13.4379C78.0884 13.4029 75.8718 11.1863 75.8368 11.1513C75.8344 11.1116 75.8204 10.8946 75.8204 10.8946C75.8204 10.8806 75.8134 10.8643 75.8018 10.8526L75.2791 10.3299C75.2511 10.3043 75.2091 10.3043 75.1858 10.3299ZM75.2324 10.4699C75.3071 10.5446 75.6618 10.8993 75.6921 10.9296C75.6944 10.9693 75.7084 11.1863 75.7084 11.1863C75.7084 11.2003 75.7154 11.2166 75.7271 11.2283L78.0488 13.5499C78.0604 13.5616 78.0768 13.5663 78.0908 13.5686C78.0908 13.5686 78.3078 13.5826 78.3474 13.5849C78.3778 13.6153 78.7324 13.9699 78.8071 14.0446C78.7348 14.1169 78.4244 14.4273 78.3521 14.4996C78.2774 14.4249 77.9228 14.0703 77.8924 14.0399C77.8901 14.0003 77.8761 13.7833 77.8761 13.7833C77.8761 13.7693 77.8691 13.7529 77.8574 13.7413L75.5358 11.4196C75.5241 11.4079 75.5078 11.4033 75.4938 11.4009C75.4938 11.4009 75.2768 11.3869 75.2371 11.3846C75.2068 11.3543 74.8521 10.9996 74.7774 10.9249C74.8498 10.8526 75.1601 10.5399 75.2324 10.4699ZM80.5641 15.7083L80.0181 16.2543C79.9924 16.2799 79.9924 16.3219 80.0181 16.3476L80.5641 16.8936C80.5898 16.9193 80.6318 16.9193 80.6574 16.8936L81.2034 16.3476C81.2291 16.3219 81.2291 16.2799 81.2034 16.2543L80.6574 15.7083C80.6458 15.6966 80.6271 15.6896 80.6108 15.6896C80.5921 15.6896 80.5758 15.6966 80.5641 15.7083ZM80.6084 15.8459C80.6808 15.9183 80.9911 16.2286 81.0634 16.3009C80.9911 16.3733 80.6808 16.6836 80.6084 16.7559C80.5361 16.6836 80.2258 16.3733 80.1534 16.3009C80.2258 16.2286 80.5384 15.9183 80.6084 15.8459ZM79.8058 14.9499L79.2598 15.4959C79.2481 15.5076 79.2411 15.5263 79.2411 15.5426C79.2411 15.5589 79.2481 15.5776 79.2598 15.5893L79.8058 16.1353C79.8314 16.1609 79.8734 16.1609 79.8991 16.1353L80.4451 15.5893C80.4708 15.5636 80.4708 15.5216 80.4451 15.4959L79.8991 14.9499C79.8874 14.9383 79.8688 14.9313 79.8524 14.9313C79.8361 14.9336 79.8174 14.9383 79.8058 14.9499ZM79.8524 15.0899C79.9248 15.1623 80.2351 15.4726 80.3074 15.5449C80.2351 15.6173 79.9248 15.9276 79.8524 15.9999C79.7801 15.9276 79.4698 15.6173 79.3974 15.5449C79.4698 15.4726 79.7801 15.1599 79.8524 15.0899ZM79.0498 14.1939L78.5038 14.7399C78.4921 14.7516 78.4851 14.7703 78.4851 14.7866C78.4851 14.8029 78.4921 14.8216 78.5038 14.8333L79.0498 15.3793C79.0754 15.4049 79.1174 15.4049 79.1431 15.3793L79.6891 14.8333C79.7148 14.8076 79.7148 14.7656 79.6891 14.7399L79.1431 14.1939C79.1151 14.1683 79.0731 14.1683 79.0498 14.1939ZM79.0964 14.3316C79.1688 14.4039 79.4791 14.7143 79.5514 14.7866C79.4791 14.8589 79.1688 15.1693 79.0964 15.2416C79.0241 15.1693 78.7138 14.8589 78.6414 14.7866C78.7138 14.7143 79.0241 14.4039 79.0964 14.3316ZM79.8058 13.4379L79.2598 13.9839C79.2481 13.9956 79.2411 14.0143 79.2411 14.0306C79.2411 14.0469 79.2481 14.0656 79.2598 14.0773L79.8058 14.6233C79.8314 14.6489 79.8734 14.6489 79.8991 14.6233L80.4451 14.0773C80.4708 14.0516 80.4708 14.0096 80.4451 13.9839L79.8991 13.4379C79.8874 13.4263 79.8688 13.4193 79.8524 13.4193C79.8361 13.4193 79.8174 13.4263 79.8058 13.4379ZM79.8524 13.5756C79.9248 13.6479 80.2351 13.9583 80.3074 14.0306C80.2351 14.1029 79.9248 14.4133 79.8524 14.4856C79.7801 14.4133 79.4698 14.1029 79.3974 14.0306C79.4698 13.9583 79.7801 13.6479 79.8524 13.5756ZM80.5641 14.1939L80.0181 14.7399C79.9924 14.7656 79.9924 14.8076 80.0181 14.8333L80.5641 15.3793C80.5898 15.4049 80.6318 15.4049 80.6574 15.3793L81.2034 14.8333C81.2291 14.8076 81.2291 14.7656 81.2034 14.7399L80.6574 14.1939C80.6294 14.1683 80.5874 14.1683 80.5641 14.1939ZM80.6084 14.3316C80.6808 14.4039 80.9911 14.7143 81.0634 14.7866C80.9911 14.8589 80.6808 15.1693 80.6084 15.2416C80.5361 15.1693 80.2258 14.8589 80.1558 14.7866C80.2258 14.7143 80.5384 14.4039 80.6084 14.3316ZM81.3668 14.9313C81.3504 14.9313 81.3318 14.9383 81.3201 14.9499L80.7741 15.4959C80.7484 15.5216 80.7484 15.5636 80.7741 15.5893L81.3201 16.1353C81.3458 16.1609 81.3878 16.1609 81.4134 16.1353L81.9594 15.5893C81.9711 15.5776 81.9781 15.5589 81.9781 15.5426C81.9781 15.5263 81.9711 15.5076 81.9594 15.4959L81.4134 14.9499C81.3994 14.9359 81.3831 14.9313 81.3668 14.9313ZM81.3668 15.0899C81.4391 15.1623 81.7494 15.4726 81.8218 15.5449C81.7494 15.6173 81.4391 15.9276 81.3668 15.9999C81.2944 15.9276 80.9841 15.6173 80.9118 15.5449C80.9841 15.4726 81.2944 15.1599 81.3668 15.0899ZM82.0761 14.1939L81.5301 14.7399C81.5184 14.7516 81.5114 14.7703 81.5114 14.7866C81.5114 14.8029 81.5184 14.8216 81.5301 14.8333L82.0761 15.3793C82.0878 15.3909 82.1064 15.3979 82.1228 15.3979C82.1391 15.3979 82.1578 15.3909 82.1694 15.3793L82.7154 14.8333C82.7411 14.8076 82.7411 14.7656 82.7154 14.7399L82.1694 14.1939C82.1578 14.1823 82.1391 14.1753 82.1228 14.1753C82.1064 14.1753 82.0878 14.1823 82.0761 14.1939ZM82.1228 14.3316C82.1951 14.4039 82.5054 14.7143 82.5754 14.7866C82.5054 14.8589 82.1928 15.1693 82.1228 15.2416C82.0504 15.1693 81.7401 14.8589 81.6678 14.7866C81.7401 14.7143 82.0528 14.4039 82.1228 14.3316ZM81.3668 13.4169C81.3504 13.4169 81.3318 13.4239 81.3201 13.4356L80.7741 13.9816C80.7484 14.0073 80.7484 14.0493 80.7741 14.0749L81.3201 14.6209C81.3458 14.6466 81.3878 14.6466 81.4134 14.6209L81.9594 14.0749C81.9711 14.0633 81.9781 14.0446 81.9781 14.0283C81.9781 14.0119 81.9711 13.9933 81.9594 13.9816L81.4134 13.4356C81.3994 13.4239 81.3831 13.4169 81.3668 13.4169ZM81.3668 13.5756C81.4391 13.6479 81.7494 13.9583 81.8218 14.0306C81.7494 14.1029 81.4391 14.4133 81.3668 14.4856C81.2944 14.4133 80.9841 14.1029 80.9118 14.0306C80.9841 13.9583 81.2944 13.6479 81.3668 13.5756ZM80.5641 12.6796L80.0181 13.2256C79.9924 13.2513 79.9924 13.2933 80.0181 13.3189L80.5641 13.8649C80.5898 13.8906 80.6318 13.8906 80.6574 13.8649L81.2034 13.3189C81.2291 13.2933 81.2291 13.2513 81.2034 13.2256L80.6574 12.6796C80.6458 12.6679 80.6271 12.6609 80.6108 12.6609C80.5921 12.6633 80.5758 12.6679 80.5641 12.6796ZM80.6084 12.8196C80.6808 12.8919 80.9911 13.2023 81.0634 13.2746C80.9911 13.3469 80.6808 13.6573 80.6084 13.7273C80.5361 13.6549 80.2258 13.3446 80.1534 13.2746C80.2258 13.2023 80.5384 12.8896 80.6084 12.8196Z" fill="#EE2E24"/>
<path d="M66.5782 63.3499L65.3252 62.6872L64.8399 63.1842L63.7129 62.5892L66.9446 59.7285L68.1486 60.3655L67.6026 64.6472L66.4476 64.0359L66.5806 63.3522L66.5782 63.3499ZM66.7579 62.4562L67.0426 60.9628L65.9739 62.0409L66.7579 62.4562Z" fill="#EE2E24"/>
<path d="M70.0081 64.1597L71.1678 64.4327C71.1375 64.624 71.1445 64.7803 71.1911 64.8993C71.2658 65.093 71.4198 65.2236 71.6485 65.2936C71.8188 65.345 71.9635 65.345 72.0801 65.2936C72.1968 65.2423 72.2715 65.163 72.3018 65.058C72.3321 64.9577 72.3158 64.855 72.2505 64.75C72.1875 64.645 72.0055 64.5073 71.7068 64.3416C71.2191 64.0663 70.8925 63.7957 70.7268 63.5343C70.5611 63.2707 70.5238 62.9883 70.6148 62.685C70.6755 62.4866 70.7898 62.3163 70.9578 62.174C71.1258 62.0316 71.3428 61.9453 71.6041 61.915C71.8655 61.8847 72.1991 61.929 72.6005 62.0503C73.0951 62.1996 73.4428 62.405 73.6481 62.6686C73.8511 62.93 73.9188 63.2707 73.8465 63.686L72.7008 63.4107C72.7241 63.2287 72.7008 63.0817 72.6261 62.9743C72.5538 62.867 72.4348 62.7876 72.2645 62.7363C72.1245 62.6943 72.0125 62.692 71.9238 62.7293C71.8351 62.7666 71.7791 62.8273 71.7535 62.9113C71.7348 62.972 71.7465 63.0373 71.7908 63.105C71.8305 63.1727 71.9518 63.2613 72.1478 63.3686C72.6355 63.6393 72.9761 63.8656 73.1675 64.05C73.3588 64.2343 73.4801 64.4257 73.5315 64.6287C73.5828 64.8293 73.5758 65.037 73.5128 65.247C73.4381 65.4943 73.3005 65.702 73.0998 65.87C72.8991 66.038 72.6588 66.1383 72.3811 66.1733C72.1011 66.206 71.7745 66.1663 71.4011 66.0543C70.7431 65.856 70.3255 65.5923 70.1505 65.261C69.9755 64.9297 69.9265 64.5656 70.0128 64.1643L70.0081 64.1597Z" fill="#EE2E24"/>
<path d="M75.83 62.9486L79.603 63.35L79.498 64.3416L78.231 64.2063L77.909 67.2326L76.6677 67.0996L76.9897 64.0733L75.7227 63.938L75.8277 62.9463L75.83 62.9486Z" fill="#EE2E24"/>
<path d="M83.7283 66.5536L82.3143 66.654L82.165 67.333L80.8933 67.4216L82.123 63.2846L83.481 63.189L85.28 67.1136L83.9756 67.2046L83.726 66.5536H83.7283ZM83.4086 65.6996L82.8626 64.281L82.5243 65.7603L83.4086 65.6973V65.6996Z" fill="#EE2E24"/>
<path d="M86.5703 62.7829L87.6926 62.4679L89.76 64.2109L89.158 62.0595L90.292 61.7422L91.3816 65.6319L90.2476 65.9492L88.192 64.2202L88.7916 66.3575L87.66 66.6749L86.5703 62.7852V62.7829Z" fill="#EE2E24"/>
<path d="M95.8709 62.869L94.6109 63.5177L94.7416 64.2014L93.6076 64.7847L93.1106 60.496L94.3216 59.873L97.5206 62.771L96.3586 63.3684L95.8733 62.8667L95.8709 62.869ZM95.2409 62.211L94.1793 61.1237L94.4523 62.617L95.2409 62.211Z" fill="#EE2E24"/>
</svg>
