<svg width="240" height="70" viewBox="0 0 240 70" fill="none" xmlns="http://www.w3.org/2000/svg">
<rect x="73.2532" y="3" width="93.4936" height="64" fill="#00AEEF"/>
<path d="M145.28 16.4062C141.692 16.4062 138.788 19.3213 138.788 22.8984C138.788 26.4755 141.703 29.3906 145.28 29.3906C148.857 29.3906 151.773 26.4755 151.773 22.8984C151.784 19.3213 148.869 16.4062 145.28 16.4062ZM150.344 19.2749C150.007 19.4955 149.659 19.7046 149.299 19.8788C149.09 19.4491 148.823 19.0426 148.521 18.6593C148.788 18.4967 149.043 18.3109 149.276 18.1135C149.682 18.4619 150.042 18.8452 150.344 19.2749ZM147.615 17.1147C148.137 17.3237 148.625 17.6025 149.066 17.9509C148.846 18.1367 148.602 18.2993 148.346 18.4503C148.033 18.0903 147.673 17.7535 147.278 17.4631C147.406 17.3586 147.522 17.2424 147.615 17.1147ZM148.114 18.5897C147.766 18.7755 147.394 18.9265 147.022 19.0426C146.86 18.6826 146.686 18.3225 146.477 17.9857C146.686 17.8928 146.883 17.7767 147.069 17.6373C147.452 17.9277 147.812 18.2412 148.114 18.5897ZM147.348 17.0218C147.255 17.1263 147.162 17.2192 147.057 17.3121C146.72 17.0799 146.349 16.8708 145.966 16.7082C146.453 16.7663 146.906 16.8708 147.348 17.0218ZM146.848 17.4863C146.697 17.6025 146.523 17.6954 146.349 17.7651C146.163 17.4631 145.942 17.1728 145.722 16.894C146.117 17.0566 146.488 17.2541 146.848 17.4863ZM145.42 16.9405C145.664 17.2308 145.884 17.5328 146.093 17.858C145.873 17.9277 145.652 17.9625 145.42 17.9741V16.9405ZM145.42 18.2412C145.698 18.2296 145.977 18.1832 146.233 18.0903C146.43 18.4154 146.604 18.7639 146.767 19.1239C146.326 19.24 145.873 19.2981 145.42 19.3097V18.2412ZM145.141 16.9521V17.9741C144.92 17.9625 144.7 17.9277 144.479 17.858C144.688 17.5444 144.909 17.2424 145.141 16.9521ZM144.223 17.7651C144.049 17.6954 143.875 17.5909 143.724 17.4863C144.073 17.2541 144.456 17.0566 144.851 16.894C144.63 17.1728 144.421 17.4631 144.223 17.7651ZM144.607 16.7082C144.223 16.8708 143.852 17.0799 143.515 17.3121C143.411 17.2192 143.318 17.1147 143.225 17.0218C143.666 16.8592 144.131 16.7547 144.607 16.7082ZM149.055 27.8575C148.195 27.3814 148.172 26.731 148.219 26.4871C148.265 26.2432 148.428 26.3477 148.544 26.3477C149.113 26.3477 149.705 26.1851 150.449 25.4302C151.273 24.5824 151.54 22.701 150.263 21.4699C148.892 20.1459 147.429 20.3782 146.488 21.5628C146.291 21.8067 145.826 21.9809 145.42 21.9693C144.816 21.9461 145.199 22.4222 145.199 22.5268C145.199 22.6313 145.106 22.701 145.048 22.6777C144.839 22.6197 144.92 22.9216 144.92 23.0145C144.92 23.1075 144.839 23.1539 144.793 23.1539C144.537 23.1539 144.607 23.3862 144.618 23.4443C144.63 23.5023 144.607 23.6068 144.514 23.6533C144.433 23.6998 144.34 23.8972 144.34 24.0482C144.34 24.3269 144.595 24.5127 145.013 24.8263C145.431 25.1399 145.489 25.4418 145.489 25.6509C145.501 25.8599 145.513 26.2084 145.617 26.4406C145.733 26.7194 145.71 27.2188 145.129 27.242C144.421 27.2652 143.155 27.8459 143.039 27.8808C142.632 28.0201 142.11 28.0782 141.692 27.9737C141.471 27.8111 141.25 27.6485 141.053 27.451C140.972 27.1607 141.111 26.8587 141.262 26.6497C141.506 26.8936 141.854 26.8703 142.052 26.882C142.249 26.8936 143.225 26.7426 143.364 26.6961C143.503 26.6497 143.562 26.6613 143.643 26.6961C144.014 26.8355 144.525 26.8703 144.735 26.1619C144.944 25.4535 144.456 25.6509 144.386 25.6741C144.328 25.709 144.235 25.6973 144.27 25.6393C144.363 25.4535 144.223 25.4767 144.142 25.4651C143.945 25.4418 143.678 25.6625 143.596 25.7322C143.515 25.8135 143.422 25.8019 143.399 25.7903C143.132 25.6625 142.342 25.8483 142.098 25.4186C142.121 25.3025 141.901 23.572 141.785 23.27C141.761 23.2004 141.738 23.0958 141.819 22.9913C142.017 22.6894 142.574 23.0145 142.876 23.0029C143.236 22.9913 143.294 22.8403 143.387 22.7242C143.48 22.6081 143.55 22.6777 143.596 22.6429C143.666 22.5964 143.596 22.5151 143.62 22.4687C143.643 22.4222 143.666 22.4455 143.724 22.3874C143.782 22.3293 143.712 22.2132 143.747 22.1783C143.84 22.0506 144.073 22.1551 143.933 21.8067C143.852 21.6209 143.968 21.4118 144.073 21.2725C144.247 21.0518 144.92 20.0995 143.736 19.1239C142.609 18.1948 141.459 18.2645 140.728 19.0658C139.996 19.8672 140.356 21.0286 140.437 21.3305C140.519 21.6325 140.298 21.9112 140.043 22.039C139.845 22.1319 139.381 22.4455 139.032 22.7474C139.09 20.2504 140.612 18.0438 142.934 17.1031C143.039 17.2308 143.143 17.347 143.26 17.4515C143.004 17.6373 142.435 18.1483 142.435 18.1483C142.435 18.1483 142.516 18.1599 142.586 18.1832C142.632 18.1948 142.737 18.2296 142.737 18.2296C142.737 18.2296 143.236 17.8115 143.469 17.6373C143.654 17.7767 143.852 17.8928 144.061 17.9857C143.945 18.1716 143.666 18.7058 143.666 18.7058C143.666 18.7058 143.736 18.7406 143.794 18.7871C143.852 18.8219 143.887 18.8568 143.887 18.8568C143.887 18.8568 144.2 18.2761 144.316 18.0786C144.572 18.1599 144.851 18.218 145.129 18.2296V19.2981C144.978 19.2981 144.584 19.2749 144.421 19.2633L144.316 19.2516L144.374 19.3329C144.421 19.391 144.444 19.4607 144.479 19.5072L144.491 19.5304H144.514C144.63 19.542 144.99 19.5536 145.118 19.5536V21.5047H145.385V21.0634C145.78 21.0402 146.117 21.017 146.511 20.9821H146.523L146.871 20.6685L146.686 20.6802C146.268 20.7382 145.896 20.7615 145.559 20.7847C145.559 20.7847 145.443 20.7963 145.385 20.7963V19.5652C145.873 19.5536 146.36 19.4839 146.848 19.3562C146.976 19.6814 147.231 20.4595 147.231 20.4595L147.487 20.3782C147.487 20.3782 147.243 19.6001 147.115 19.2865C147.522 19.1587 147.917 18.9961 148.277 18.7871C148.579 19.1587 148.834 19.5536 149.043 19.9833C148.857 20.0762 148.497 20.1924 148.497 20.1924C148.776 20.2272 148.985 20.2853 148.985 20.2853C148.985 20.2853 149.09 20.2388 149.148 20.2156C149.171 20.2737 149.217 20.3898 149.217 20.3898L149.566 20.5408L149.519 20.4479C149.519 20.4479 149.403 20.1691 149.38 20.1111C149.752 19.9253 150.112 19.7162 150.46 19.4839C151.122 20.4943 151.471 21.6789 151.471 22.8868C151.517 24.9192 150.553 26.7194 149.055 27.8575Z" fill="white"/>
<path d="M138.196 18.1252L138.092 18.2182C137.708 18.555 136.837 19.4492 136.977 20.4248L136.988 20.4945L137.035 20.6919L137.151 20.5758C137.685 20.088 138.08 19.2634 138.243 18.3111L138.289 18.0439L138.196 18.1252Z" fill="white"/>
<path d="M136.431 19.8207L136.384 19.9369C136.326 20.0995 136.21 20.4479 136.152 20.9008C136.071 21.5512 136.094 22.4571 136.651 23.1423L136.709 23.2236L136.779 23.3049L136.86 22.8868C136.953 22.1551 136.825 20.6221 136.558 19.9369L136.465 19.7046L136.431 19.8207Z" fill="white"/>
<path d="M135.78 22.4569L135.768 22.573C135.722 23.235 135.757 24.8493 137.069 25.7087L137.22 25.8133L137.209 25.6274C137.185 25.0119 136.465 23.1769 135.931 22.5149L135.78 22.3291V22.4569Z" fill="white"/>
<path d="M136.013 25.3604L136.036 25.4765C136.233 26.4056 137.116 27.9154 138.475 28.3568L138.661 28.4148L138.591 28.229C138.335 27.5322 137.023 25.9062 136.175 25.372L135.989 25.2559L136.013 25.3604Z" fill="white"/>
<path d="M138.742 19.5306L138.637 19.6003C137.627 20.2158 137.15 20.9707 137.185 21.8999L137.197 22.1089L137.348 21.9811C137.894 21.5282 138.579 20.3668 138.788 19.7048L138.858 19.4609L138.742 19.5306Z" fill="white"/>
<path d="M138.149 21.5624L138.068 21.632C137.813 21.8759 136.965 22.7702 137.046 23.8851C137.058 24.0593 137.093 24.2335 137.162 24.431L137.22 24.6052L137.325 24.4542C137.731 23.8851 138.254 22.3986 138.231 21.7017L138.219 21.4927L138.149 21.5624Z" fill="white"/>
<path d="M138.196 23.4787L138.138 23.56C137.708 24.1871 137.499 24.8375 137.511 25.4298C137.522 25.8711 137.662 26.2892 137.929 26.6841L138.022 26.8118L138.091 26.6725C138.277 26.324 138.416 25.2091 138.393 24.3265C138.382 24.0129 138.358 23.7574 138.3 23.5832L138.242 23.3857L138.196 23.4787Z" fill="white"/>
<path d="M138.684 25.5349L138.661 25.6278C138.533 26.0343 138.475 26.4408 138.486 26.8124C138.51 27.6719 138.893 28.3455 139.613 28.81L139.741 28.8913L139.764 28.7287L139.775 28.601C139.752 27.9041 139.23 26.1504 138.823 25.6046L138.707 25.4536L138.684 25.5349Z" fill="white"/>
<path d="M137.255 28.264L137.313 28.3569C137.859 29.2744 138.788 30.459 140.519 30.1571L140.658 30.1339L140.577 30.0177C140.252 29.5415 138.149 28.3453 137.406 28.2292L137.197 28.1943L137.255 28.264Z" fill="white"/>
<path d="M139.822 30.5868L139.555 30.6565L139.81 30.761C140.914 31.214 142.296 31.3417 143.097 31.0746C143.399 30.9701 143.585 30.8075 143.805 30.5868C145.222 30.7378 146.535 31.9108 147.313 32.8631L147.359 32.9096L147.417 32.8864C147.499 32.8515 147.638 32.7586 147.696 32.6889L147.754 32.6309L147.708 32.5612C146.906 31.5159 145.64 30.8539 145.594 30.8307C144.444 30.3081 142.447 29.8784 139.822 30.5868Z" fill="white"/>
<path d="M139.88 27.6598L139.892 27.7527C140.054 28.798 140.484 30.1568 142.238 30.0058L142.354 29.9942L142.331 29.8897C142.214 29.4135 140.6 28.0431 140.043 27.6598L139.88 27.5669V27.6598Z" fill="white"/>
<path d="M152.295 18.0439L152.342 18.3111C152.504 19.2634 152.911 20.088 153.434 20.5758L153.561 20.6919L153.608 20.4945L153.619 20.4248C153.759 19.4492 152.888 18.555 152.504 18.2182L152.4 18.1252L152.295 18.0439Z" fill="white"/>
<path d="M154.119 19.7046L154.026 19.9369C153.759 20.6221 153.631 22.1551 153.724 22.8868L153.805 23.3049L153.875 23.2236L153.933 23.1423C154.49 22.4571 154.513 21.5512 154.432 20.9008C154.374 20.4479 154.27 20.0995 154.2 19.9369L154.153 19.8207L154.119 19.7046Z" fill="white"/>
<path d="M154.804 22.3408L154.653 22.5266C154.119 23.1886 153.398 25.0236 153.375 25.6392L153.364 25.825L153.515 25.7205C154.827 24.861 154.862 23.2351 154.815 22.5847L154.804 22.4686V22.3408Z" fill="white"/>
<path d="M154.606 25.2441L154.421 25.3603C153.573 25.8945 152.26 27.5205 152.005 28.2173L151.935 28.4031L152.121 28.345C153.48 27.9037 154.363 26.3939 154.56 25.4648L154.583 25.3487L154.606 25.2441Z" fill="white"/>
<path d="M151.784 19.4375L151.854 19.6814C152.04 20.3434 152.702 21.5164 153.248 21.9809L153.399 22.1087L153.41 21.8996C153.468 20.9705 153.004 20.2156 152.005 19.5769L151.9 19.5072L151.784 19.4375Z" fill="white"/>
<path d="M152.365 21.4927L152.353 21.7017C152.33 22.3986 152.852 23.8851 153.259 24.4542L153.363 24.6052L153.422 24.431C153.491 24.2452 153.526 24.0593 153.538 23.8851C153.607 22.7818 152.771 21.8875 152.516 21.632L152.434 21.5624L152.365 21.4927Z" fill="white"/>
<path d="M152.342 23.3979L152.284 23.5954C152.237 23.7696 152.202 24.0251 152.191 24.3387C152.168 25.2213 152.319 26.3363 152.493 26.6847L152.562 26.824L152.655 26.6963C152.923 26.3014 153.062 25.8833 153.074 25.442C153.085 24.8497 152.876 24.1993 152.446 23.5722L152.388 23.4909L152.342 23.3979Z" fill="white"/>
<path d="M151.877 25.4536L151.761 25.6046C151.354 26.1388 150.832 27.9041 150.808 28.601L150.82 28.7287L150.843 28.8913L150.971 28.81C151.703 28.3455 152.074 27.6719 152.098 26.8124C152.109 26.4292 152.051 26.0343 151.923 25.6278L151.9 25.5349L151.877 25.4536Z" fill="white"/>
<path d="M153.387 28.1709L153.189 28.2057C152.446 28.3219 150.344 29.5181 150.019 29.9943L149.938 30.1104L150.077 30.1336C151.819 30.4356 152.736 29.251 153.282 28.3335L153.34 28.2406L153.387 28.1709Z" fill="white"/>
<path d="M145.013 30.8651C144.955 30.8883 143.701 31.5387 142.9 32.5955L142.853 32.6652L142.911 32.7233C142.969 32.7814 143.097 32.8859 143.19 32.9207L143.248 32.9439L143.294 32.8975C144.061 31.9335 145.385 30.7605 146.802 30.6212C147.023 30.8418 147.208 31.0044 147.51 31.109C148.312 31.3761 149.694 31.2483 150.797 30.7954L151.064 30.6909L150.797 30.6212C148.149 29.8779 146.14 30.3076 145.013 30.8651Z" fill="white"/>
<path d="M150.727 27.5669L150.565 27.6598C150.007 28.0431 148.393 29.4135 148.277 29.8897L148.254 29.9942L148.37 30.0058C150.123 30.1568 150.553 28.798 150.716 27.7527L150.727 27.6598V27.5669Z" fill="white"/>
<path d="M105.816 16.8589H108.035V18.8797H106.862H105.816V16.8589ZM105.99 21.1792H106.85H107.849V31.0394H105.979V21.1792H105.99Z" fill="white"/>
<path d="M91.9032 21.1909H93.7731V31.0511H91.9497V29.5994H91.9032C91.1599 30.842 89.894 31.3414 88.5236 31.3414C86.4563 31.3414 85.2833 29.7736 85.2833 27.7876V21.1909H87.1532V27.0211C87.1532 28.7283 87.548 29.9826 89.3366 29.9826C90.1031 29.9826 91.1483 29.5877 91.5316 28.5657C91.88 27.6366 91.9032 26.4868 91.9032 26.243V21.1909Z" fill="white"/>
<path d="M97.5009 22.6425H97.5357C98.1629 21.4114 99.5333 20.9004 100.521 20.9004C101.206 20.9004 104.249 21.0746 104.249 24.2336V31.0509H102.379V24.8491C102.379 23.2232 101.694 22.3405 100.126 22.3405C100.126 22.3405 99.1036 22.2824 98.3139 23.0722C98.0351 23.3509 97.5241 23.7806 97.5241 25.7085V31.0741H95.6543V21.214H97.4777V22.6425H97.5009Z" fill="white"/>
<path d="M115.665 24.3498C115.572 23.1187 114.98 22.2593 113.656 22.2593C111.879 22.2593 111.194 23.7923 111.194 26.1035C111.194 28.4031 111.879 29.9477 113.656 29.9477C114.887 29.9477 115.642 29.1463 115.746 27.7411H117.605C117.442 29.9477 115.804 31.2949 113.644 31.2949C110.509 31.2949 109.254 29.0767 109.254 26.1848C109.254 23.3162 110.694 20.9121 113.807 20.9121C115.874 20.9121 117.43 22.2245 117.523 24.3498H115.665Z" fill="white"/>
<path d="M120.392 26.4635C120.253 28.1824 120.961 29.9593 122.854 29.9593C124.294 29.9593 125.026 29.3902 125.235 27.9617H127.186C126.896 30.1916 125.177 31.2949 122.831 31.2949C119.684 31.2949 118.441 29.0767 118.441 26.1848C118.441 23.3162 119.893 20.9121 122.994 20.9121C125.92 20.9702 127.302 22.8284 127.302 25.5344V26.4519H120.392V26.4635ZM125.34 25.1744C125.374 23.5368 124.631 22.2709 122.843 22.2709C121.298 22.2709 120.38 23.5717 120.38 25.1744H125.34Z" fill="white"/>
<path d="M129.393 31.0049V22.5035H127.708V21.2144H129.393V19.1123C129.451 16.9637 131.065 16.4062 132.459 16.4062C132.912 16.4062 133.341 16.5224 133.783 16.6037V18.1483C133.469 18.1367 133.155 18.0903 132.842 18.0903C131.785 18.0903 131.181 18.369 131.239 19.4375V21.2376H133.504V22.5035H131.239V31.0049H129.393Z" fill="white"/>
<path d="M85.2485 37.7983H154.13V38.17H120.253H85.2485V37.7983Z" fill="white"/>
<path d="M86.3981 51.2245V45.6847H85.1438V44.9995H86.3981V43.6755C86.3981 42.607 86.8278 42.1309 87.8963 42.1309C88.1286 42.1309 88.3841 42.2122 88.6047 42.2702V42.8625C88.4538 42.8393 88.2912 42.8161 88.1518 42.8161C87.1298 42.8161 87.1065 43.3271 87.153 44.2214V45.0111H88.5699V45.6963H87.1414V51.2361H86.3981V51.2245Z" fill="white"/>
<path d="M94.6324 48.1128C94.6324 49.7503 93.7149 51.4111 91.7289 51.4111C89.7429 51.4111 88.8254 49.7503 88.8254 48.1128C88.8254 46.4752 89.7429 44.8145 91.7289 44.8145C93.7149 44.8145 94.6324 46.4752 94.6324 48.1128ZM91.7289 45.4997C90.2307 45.4997 89.6384 46.963 89.6384 48.1128C89.6384 49.2626 90.2307 50.7259 91.7289 50.7259C93.2271 50.7259 93.8194 49.2626 93.8194 48.1128C93.8194 46.9514 93.2271 45.4997 91.7289 45.4997Z" fill="white"/>
<path d="M96.4557 51.2247H95.7124V46.405C95.724 45.9172 95.6775 45.4294 95.6543 44.9997H96.4208L96.4557 45.9172H96.4789C96.6995 45.2901 97.257 44.8371 97.8842 44.8139C98.1281 44.8023 98.3836 44.8139 98.6274 44.8255V45.5456C98.4765 45.534 98.3139 45.4991 98.1629 45.4991C97.0596 45.4991 96.4789 46.2889 96.4557 47.4851V51.2247Z" fill="white"/>
<path d="M102.228 48.287C102.251 49.611 102.855 50.7259 104.388 50.7259C105.271 50.7259 106.002 50.0988 106.188 49.2393H106.966C106.583 50.7259 105.654 51.4111 104.156 51.4111C102.298 51.4111 101.427 49.8084 101.427 48.1128C101.427 46.4288 102.356 44.8145 104.202 44.8145C106.281 44.8145 107.036 46.3359 107.036 48.287H102.228ZM106.235 47.6018C106.153 46.3939 105.503 45.4997 104.214 45.4997C102.995 45.4997 102.356 46.5217 102.251 47.6018H106.235Z" fill="white"/>
<path d="M108.047 44.9995L110.183 50.1909L112.262 44.9995H113.075L110.613 51.2129H109.765L107.222 44.9995H108.047Z" fill="white"/>
<path d="M114.039 48.287C114.062 49.611 114.666 50.7259 116.199 50.7259C117.082 50.7259 117.814 50.0988 117.999 49.2393H118.778C118.394 50.7259 117.465 51.4111 115.967 51.4111C114.109 51.4111 113.238 49.8084 113.238 48.1128C113.238 46.4288 114.167 44.8145 116.014 44.8145C118.092 44.8145 118.847 46.3359 118.847 48.287H114.039ZM118.034 47.6018C117.953 46.3939 117.303 45.4997 116.014 45.4997C114.794 45.4997 114.155 46.5217 114.051 47.6018H118.034Z" fill="white"/>
<path d="M120.74 51.2247H119.997V46.405C120.009 45.9172 119.962 45.4294 119.939 44.9997H120.706L120.74 45.9172H120.764C120.984 45.2901 121.542 44.8371 122.169 44.8139C122.413 44.8023 122.668 44.8139 122.912 44.8255V45.5456C122.761 45.534 122.599 45.4991 122.448 45.4991C121.344 45.4991 120.764 46.2889 120.74 47.4851V51.2247Z" fill="white"/>
<path d="M124.515 44.9995L126.605 50.2025L128.684 44.9995H129.497L126.06 53.5938H125.247L126.187 51.2129L123.609 44.9995H124.515Z" fill="white"/>
<path d="M136.582 46.9044C136.524 45.952 135.908 45.4875 134.886 45.4875C133.748 45.4875 133.039 46.6721 133.039 48.089C133.039 49.5175 133.748 50.7137 134.886 50.7137C135.85 50.7137 136.524 50.1214 136.582 49.262H137.383C137.186 50.6905 136.373 51.3989 134.956 51.3989C133.097 51.3989 132.226 49.7962 132.226 48.1006C132.226 46.4166 133.156 44.8022 135.002 44.8022C136.28 44.8022 137.325 45.5688 137.383 46.8927H136.582V46.9044Z" fill="white"/>
<path d="M139.172 45.9401H139.195C139.625 45.1736 140.333 44.8136 141.146 44.8136C143.178 44.8136 143.341 46.6137 143.341 47.3338V51.2244H142.598V47.206C142.598 46.1259 141.982 45.4988 140.96 45.4988C139.729 45.4988 139.172 46.5324 139.172 47.6473V51.2244H138.428V42.2817H139.172V45.9401Z" fill="white"/>
<path d="M145.397 43.1996H144.804H144.526V42.2705H145.397V43.1996ZM145.327 51.2248H144.584V44.9998H145.037H145.327V51.2248Z" fill="white"/>
<path d="M147.534 51.2248H146.79V48.1007V42.2705H147.359H147.534V51.2248Z" fill="white"/>
<path d="M153.387 50.3073L153.364 50.2608C152.853 51.0041 152.098 51.4106 151.227 51.4106C149.38 51.4106 148.672 49.6453 148.672 48.0891C148.672 46.4747 149.38 44.8139 151.227 44.8139C152.063 44.8139 152.922 45.2088 153.364 45.9405L153.387 45.9173V42.2705H154.13V49.8195C154.13 50.3073 154.165 50.7951 154.188 51.2248H153.422L153.387 50.3073ZM151.355 45.4992C149.938 45.4992 149.485 46.8115 149.485 48.0078C149.485 49.1575 149.822 50.737 151.25 50.737C152.876 50.737 153.364 49.3898 153.364 47.9729C153.364 46.6954 152.806 45.4992 151.355 45.4992Z" fill="white"/>
</svg>
