<svg xmlns="http://www.w3.org/2000/svg" width="14" height="89" fill="none"><path fill="#FFE24A" d="M6.764 18.597c0 2.526 2.123 3.825 3.792 3.825 2.247 0 3.444-1.436 3.444-3.315 0-1.065-.183-1.733-.643-2.753L8.207 4.933c-.18-.398-.239-.85-.239-1.513 0-1.024.93-1.86 1.905-1.886.889-.024 1.857.885 1.857 1.92 0 1.258-.61 1.819-1.238 1.819-.772 0-1.08-.34-1.08-.918 0-.404.183-.578.445-.578.662 0 .476.952.476.952.33-.077.6-.436.445-.884.25-.059.475-.202.643-.408-.178-.184-.381-.326-.643-.374.155-.547-.052-.814-.5-.926.09.21.093.404.063.586-.705-.214-1.785.127-1.785 1.428 0 1.292.839 2.38 2.412 2.107-.374.192-.564.583-.603 1.02.286-.119.603-.136.603-.136-.184.347-.44.645-.428 1.326.292-.142.563-.404.936-.238-.587 1.233.134 2.93 1.969 3.331-.672-.84-1-1.748-1-2.651 0-2.928.761-3.42.761-5.456 0-.852-.41-1.771-1.222-2.396v.034c.537-.154.88-.437 1.079-.82-1.227-.372-3.01-.365-3.967.037C7.995.446 7.226 1.348 7 1.805c-.226.458-.666 2.113 0 3.603l5.238 11.863a4.11 4.11 0 0 1 .365 1.666c0 1.5-1.285 2.022-2.015 2.022-.873 0-1.762-.71-1.762-1.597 0-.562.285-.9.698-.9.987 0 .927.896.73 1.46.614-.294.971-.82.873-1.376.348-.05.679-.227.984-.595-.24-.324-.533-.569-.984-.578.197-.86-.343-1.225-.873-1.427.168.632.278 1.36-.73 1.36-.735 0-1.313.136-1.65.645l-.08-3.365c-.042-1.009 1.264-.98 2.095-.68-.313-1.162-.956-1.79-2.444-1.631.36-.162.746-.525.746-1.224 0-.946-.72-1.995-1.19-2.304l-.237 9.85Z"/><path fill="#FFE24A" d="M6.764 26.174c0-2.526 2.123-3.824 3.792-3.824 2.247 0 3.444 1.435 3.444 3.314 0 1.066-.183 1.734-.643 2.753L8.207 39.84c-.18.397-.239.85-.239 1.512 0 1.024.93 1.861 1.905 1.887.889.023 1.857-.885 1.857-1.92 0-1.258-.61-1.82-1.238-1.82-.772 0-1.08.34-1.08.919 0 .403.183.577.445.577.662 0 .476-.951.476-.951.33.077.6.435.445.883.25.06.475.202.643.408-.178.184-.381.326-.643.374.155.547-.052.814-.5.927.09-.21.093-.404.063-.587-.705.214-1.785-.127-1.785-1.427 0-1.292.839-2.38 2.412-2.108-.374-.191-.564-.582-.603-1.02.286.12.603.136.603.136-.184-.346-.44-.645-.428-1.325.292.141.563.404.936.238-.587-1.234.134-2.93 1.969-3.332-.672.84-1 1.748-1 2.652 0 2.928.761 3.42.761 5.455 0 .852-.41 1.772-1.222 2.397v-.034c.537.154.881.436 1.079.82-1.227.371-3.01.364-3.967-.038-1.101-.136-1.87-1.038-2.096-1.496-.226-.458-.666-2.113 0-3.603L12.238 27.5a4.11 4.11 0 0 0 .365-1.666c0-1.499-1.285-2.022-2.015-2.022-.873 0-1.762.71-1.762 1.598 0 .562.285.9.698.9.987 0 .927-.896.73-1.461.614.295.971.821.873 1.376.348.051.679.227.984.595-.24.324-.533.57-.984.578.197.861-.343 1.226-.873 1.428.168-.633.278-1.36-.73-1.36-.735 0-1.313-.136-1.65-.646l-.08 3.365c-.042 1.01 1.264.98 2.095.68-.313 1.163-.956 1.79-2.444 1.632.36.161.746.524.746 1.224 0 .946-.72 1.994-1.19 2.304l-.237-9.851ZM7.236 18.597c0 2.526-2.123 3.825-3.792 3.825C1.197 22.422 0 20.986 0 19.107c0-1.065.183-1.733.642-2.753L5.793 4.933c.18-.398.239-.85.239-1.513 0-1.024-.93-1.86-1.905-1.886-.889-.024-1.857.885-1.857 1.92 0 1.258.61 1.819 1.238 1.819.772 0 1.08-.34 1.08-.918 0-.404-.183-.578-.445-.578-.662 0-.476.952-.476.952-.33-.077-.6-.436-.445-.884a1.181 1.181 0 0 1-.643-.408c.178-.184.381-.326.643-.374-.155-.547.052-.814.5-.926-.09.21-.093.404-.063.586.705-.214 1.785.127 1.785 1.428 0 1.292-.839 2.38-2.412 2.107.374.192.564.583.603 1.02-.286-.119-.603-.136-.603-.136.184.347.44.645.428 1.326-.292-.142-.563-.404-.936-.238.586 1.233-.135 2.93-1.969 3.331.672-.84 1-1.748 1-2.651 0-2.928-.761-3.42-.761-5.456 0-.852.41-1.771 1.222-2.396v.034C1.479.938 1.136.655.938.272 2.164-.1 3.948-.094 4.904.308 6.005.446 6.774 1.348 7 1.805c.227.458.666 2.113 0 3.603L1.762 17.271a4.108 4.108 0 0 0-.365 1.666c0 1.5 1.285 2.022 2.016 2.022.872 0 1.761-.71 1.761-1.597 0-.562-.285-.9-.698-.9-.987 0-.927.896-.73 1.46-.614-.294-.971-.82-.873-1.376-.348-.05-.679-.227-.984-.595.24-.324.533-.569.984-.578-.197-.86.343-1.225.873-1.427-.168.632-.278 1.36.73 1.36.735 0 1.313.136 1.65.645l.08-3.365c.042-1.009-1.264-.98-2.095-.68.313-1.162.956-1.79 2.444-1.631-.36-.162-.746-.525-.746-1.224 0-.946.72-1.995 1.191-2.304l.236 9.85Z"/><path fill="#FFE24A" d="M7.236 26.174c0-2.526-2.123-3.824-3.792-3.824C1.197 22.35 0 23.785 0 25.664c0 1.066.183 1.734.642 2.753L5.793 39.84c.18.397.239.85.239 1.512 0 1.024-.93 1.861-1.905 1.887-.889.023-1.857-.885-1.857-1.92 0-1.258.61-1.82 1.238-1.82.772 0 1.08.34 1.08.919 0 .403-.183.577-.445.577-.662 0-.476-.951-.476-.951-.33.077-.6.435-.445.883-.25.06-.475.202-.643.408.178.184.381.326.643.374-.155.547.052.814.5.927a1.013 1.013 0 0 1-.063-.587c.705.214 1.785-.127 1.785-1.427 0-1.292-.839-2.38-2.412-2.108.374-.191.564-.582.603-1.02-.286.12-.603.136-.603.136.184-.346.44-.645.428-1.325-.292.141-.563.404-.936.238.586-1.234-.135-2.93-1.969-3.332.672.84 1 1.748 1 2.652 0 2.928-.761 3.42-.761 5.455 0 .852.41 1.772 1.222 2.397v-.034c-.537.154-.881.436-1.079.82 1.227.371 3.01.364 3.967-.038 1.101-.136 1.87-1.038 2.096-1.496.227-.458.666-2.113 0-3.603L1.762 27.5a4.109 4.109 0 0 1-.365-1.666c0-1.499 1.285-2.022 2.016-2.022.872 0 1.761.71 1.761 1.598 0 .562-.285.9-.698.9-.987 0-.927-.896-.73-1.461-.614.295-.971.821-.873 1.376-.348.051-.679.227-.984.595.24.324.533.57.984.578-.197.861.343 1.226.873 1.428-.168-.633-.278-1.36.73-1.36.735 0 1.313-.136 1.65-.646l.08 3.365c.042 1.01-1.264.98-2.095.68.313 1.163.956 1.79 2.444 1.632-.36.161-.746.524-.746 1.224 0 .946.72 1.994 1.191 2.304l.236-9.851ZM6.764 70.403c0-2.526 2.123-3.825 3.792-3.825 2.247 0 3.444 1.436 3.444 3.315 0 1.065-.183 1.733-.643 2.753l-5.15 11.421c-.18.398-.239.85-.239 1.513 0 1.024.93 1.86 1.905 1.886.889.024 1.857-.885 1.857-1.92 0-1.258-.61-1.819-1.238-1.819-.772 0-1.08.34-1.08.918 0 .403.183.578.445.578.662 0 .476-.952.476-.952.33.077.6.436.445.884.25.059.475.202.643.408-.178.184-.381.325-.643.374.155.547-.052.814-.5.926.09-.21.093-.404.063-.586-.705.214-1.785-.127-1.785-1.428 0-1.292.839-2.38 2.412-2.107-.374-.192-.564-.583-.603-1.02.286.119.603.136.603.136-.184-.347-.44-.645-.428-1.326.292.142.563.404.936.238-.587-1.233.134-2.93 1.969-3.331-.672.84-1 1.748-1 2.651 0 2.928.761 3.42.761 5.456 0 .852-.41 1.771-1.222 2.396v-.034c.537.154.88.437 1.079.82-1.227.372-3.01.365-3.967-.037-1.101-.137-1.87-1.039-2.096-1.496-.226-.458-.666-2.113 0-3.603l5.238-11.863a4.11 4.11 0 0 0 .365-1.666c0-1.5-1.285-2.023-2.015-2.023-.873 0-1.762.71-1.762 1.598 0 .562.285.9.698.9.987 0 .927-.896.73-1.46.614.294.971.82.873 1.376.348.05.679.227.984.595-.24.324-.533.569-.984.577.197.862-.343 1.226-.873 1.428.168-.632.278-1.36-.73-1.36-.735 0-1.313-.136-1.65-.645l-.08 3.365c-.042 1.009 1.264.98 2.095.68-.313 1.162-.956 1.79-2.444 1.631.36.162.746.525.746 1.224 0 .946-.72 1.995-1.19 2.304l-.237-9.85Z"/><path fill="#FFE24A" d="M6.764 62.826c0 2.526 2.123 3.824 3.792 3.824 2.247 0 3.444-1.435 3.444-3.314 0-1.066-.183-1.734-.643-2.753L8.207 49.16c-.18-.397-.239-.85-.239-1.512 0-1.024.93-1.861 1.905-1.887.889-.024 1.857.885 1.857 1.92 0 1.258-.61 1.82-1.238 1.82-.772 0-1.08-.34-1.08-.919 0-.403.183-.578.445-.578.662 0 .476.952.476.952.33-.077.6-.435.445-.883.25-.06.475-.202.643-.408-.178-.184-.381-.326-.643-.374.155-.547-.052-.814-.5-.927.09.21.093.404.063.587-.705-.214-1.785.126-1.785 1.427 0 1.292.839 2.38 2.412 2.108-.374.191-.564.582-.603 1.02.286-.12.603-.136.603-.136-.184.346-.44.645-.428 1.325.292-.141.563-.404.936-.238-.587 1.234.134 2.93 1.969 3.332-.672-.84-1-1.748-1-2.652 0-2.928.761-3.42.761-5.456 0-.851-.41-1.77-1.222-2.396v.034c.537-.154.881-.437 1.079-.82-1.227-.372-3.01-.364-3.967.038-1.101.136-1.87 1.038-2.096 1.496-.226.458-.666 2.113 0 3.603L12.238 61.5a4.11 4.11 0 0 1 .365 1.666c0 1.499-1.285 2.022-2.015 2.022-.873 0-1.762-.71-1.762-1.598 0-.562.285-.9.698-.9.987 0 .927.896.73 1.461.614-.295.971-.821.873-1.376.348-.051.679-.227.984-.595-.24-.324-.533-.57-.984-.578.197-.861-.343-1.226-.873-1.428.168.633.278 1.36-.73 1.36-.735 0-1.313.136-1.65.646l-.08-3.365c-.042-1.01 1.264-.98 2.095-.68-.313-1.163-.956-1.79-2.444-1.632.36-.161.746-.524.746-1.224 0-.946-.72-1.994-1.19-2.304l-.237 9.85ZM7.236 70.403c0-2.526-2.123-3.825-3.792-3.825C1.197 66.578 0 68.014 0 69.893c0 1.065.183 1.733.642 2.753l5.151 11.421c.18.398.239.85.239 1.513 0 1.024-.93 1.86-1.905 1.886-.889.024-1.857-.885-1.857-1.92 0-1.258.61-1.819 1.238-1.819.772 0 1.08.34 1.08.918 0 .404-.183.578-.445.578-.662 0-.476-.952-.476-.952-.33.077-.6.436-.445.884-.25.059-.475.202-.643.408.178.184.381.325.643.374-.155.547.052.814.5.926a1.012 1.012 0 0 1-.063-.586c.705.214 1.785-.127 1.785-1.428 0-1.291-.839-2.38-2.412-2.107.374-.192.564-.583.603-1.02-.286.119-.603.136-.603.136.184-.347.44-.645.428-1.326-.292.142-.563.404-.936.238.586-1.233-.135-2.93-1.969-3.331.672.84 1 1.748 1 2.651 0 2.928-.761 3.42-.761 5.456 0 .852.41 1.771 1.222 2.396v-.034c-.537.154-.88.437-1.078.82 1.226.372 3.01.365 3.966-.037 1.101-.137 1.87-1.039 2.096-1.496.227-.458.666-2.113 0-3.603L1.762 71.729a4.108 4.108 0 0 1-.365-1.666c0-1.5 1.285-2.023 2.016-2.023.872 0 1.761.71 1.761 1.598 0 .562-.285.9-.698.9-.987 0-.927-.896-.73-1.46-.614.294-.971.82-.873 1.376-.348.05-.679.227-.984.595.24.324.533.569.984.577-.197.862.343 1.226.873 1.428-.168-.632-.278-1.36.73-1.36.735 0 1.313-.136 1.65-.645l.08 3.365c.042 1.009-1.264.98-2.095.68.313 1.162.956 1.79 2.444 1.631-.36.162-.746.525-.746 1.224 0 .946.72 1.995 1.191 2.304l.236-9.85Z"/><path fill="#FFE24A" d="M7.236 62.826c0 2.526-2.123 3.824-3.792 3.824C1.197 66.65 0 65.215 0 63.336c0-1.066.183-1.734.642-2.753L5.793 49.16c.18-.397.239-.85.239-1.512 0-1.024-.93-1.861-1.905-1.887-.889-.023-1.857.885-1.857 1.92 0 1.258.61 1.82 1.238 1.82.772 0 1.08-.34 1.08-.919 0-.403-.183-.577-.445-.577-.662 0-.476.951-.476.951-.33-.077-.6-.435-.445-.883a1.181 1.181 0 0 1-.643-.408c.178-.184.381-.326.643-.374-.155-.547.052-.814.5-.927-.09.21-.093.404-.063.587.705-.214 1.785.126 1.785 1.427 0 1.292-.839 2.38-2.412 2.108.374.191.564.582.603 1.02-.286-.12-.603-.136-.603-.136.184.346.44.645.428 1.325-.292-.141-.563-.404-.936-.238.586 1.234-.135 2.93-1.969 3.332.672-.84 1-1.748 1-2.652 0-2.928-.761-3.42-.761-5.455 0-.852.41-1.772 1.222-2.397v.034c-.537-.154-.881-.437-1.079-.82 1.227-.372 3.01-.364 3.967.038 1.101.136 1.87 1.038 2.096 1.496.227.458.666 2.113 0 3.603L1.762 61.5a4.108 4.108 0 0 0-.365 1.666c0 1.499 1.285 2.022 2.016 2.022.872 0 1.761-.71 1.761-1.598 0-.562-.285-.9-.698-.9-.987 0-.927.896-.73 1.461-.614-.295-.971-.821-.873-1.376-.348-.051-.679-.227-.984-.595.24-.324.533-.57.984-.578-.197-.861.343-1.226.873-1.428-.168.633-.278 1.36.73 1.36.735 0 1.313.136 1.65.646l.08-3.365c.042-1.01-1.264-.98-2.095-.68.313-1.163.956-1.79 2.444-1.632-.36-.161-.746-.524-.746-1.224 0-.946.72-1.994 1.191-2.304l.236 9.851Z"/></svg>
