<svg xmlns="http://www.w3.org/2000/svg" width="57" height="50" fill="none"><path fill="#FFE24A" d="M30.906 5.37c.711.131 1.065-.255 1.17-.78.142-.7-.161-4.23-.161-4.23s-1.647 3.146-1.788 3.847c-.106.525.07 1.024.78 1.163ZM41.761 21.426c-.132.703.259 1.053.79 1.157.71.14 4.28-.16 4.28-.16s-3.183-1.627-3.892-1.767c-.532-.104-1.036.07-1.178.77ZM25.516 32.154c-.711-.13-1.065.255-1.17.781-.142.7.161 4.23.161 4.23s1.647-3.146 1.788-3.847c.106-.525-.07-1.024-.78-1.163ZM14.66 16.099c.133-.703-.258-1.053-.79-1.157-.708-.14-4.279.16-4.279.16s3.183 1.627 3.892 1.767c.532.104 1.037-.07 1.178-.77ZM35.887 7.41c.606.389 1.082.166 1.383-.28.402-.593 1.488-3.968 1.488-3.968s-2.739 2.283-3.14 2.877c-.302.446-.332.973.269 1.37ZM39.699 26.348c-.395.6-.17 1.07.281 1.368.601.397 4.016 1.47 4.016 1.47s-2.31-2.707-2.911-3.104c-.451-.297-.985-.328-1.386.266ZM20.535 30.116c-.606-.39-1.082-.167-1.383.278-.402.594-1.488 3.969-1.488 3.969s2.739-2.283 3.14-2.877c.302-.446.332-.973-.269-1.37ZM16.723 11.177c.395-.6.17-1.07-.281-1.368-.601-.397-4.016-1.47-4.016-1.47s2.31 2.707 2.911 3.104c.451.297.985.328 1.386-.266ZM39.699 11.177c.409.589.935.563 1.386.266.6-.397 2.911-3.104 2.911-3.104s-3.415 1.073-4.016 1.47c-.45.298-.683.774-.281 1.368ZM35.887 30.116c-.596.404-.57.924-.27 1.37.402.594 3.141 2.877 3.141 2.877s-1.086-3.375-1.488-3.969c-.3-.445-.782-.675-1.383-.278ZM16.723 26.348c-.409-.589-.935-.563-1.386-.266-.6.397-2.911 3.104-2.911 3.104s3.415-1.073 4.016-1.47c.45-.298.683-.774.281-1.368ZM20.535 7.41c.596-.405.57-.925.27-1.37-.402-.595-3.141-2.878-3.141-2.878s1.086 3.375 1.488 3.969c.3.445.782.675 1.383.278ZM41.761 16.099c.15.699.646.874 1.178.77.71-.14 3.892-1.767 3.892-1.767s-3.57-.3-4.28-.16c-.531.104-.93.456-.79 1.157ZM30.906 32.154c-.707.149-.885.639-.779 1.164.141.701 1.788 3.846 1.788 3.846s.303-3.528.162-4.229c-.106-.526-.462-.92-1.17-.78ZM14.66 21.426c-.15-.699-.645-.874-1.177-.77-.71.14-3.892 1.767-3.892 1.767s3.57.3 4.28.16c.531-.104.93-.456.79-1.157ZM25.516 5.37c.707-.148.885-.638.779-1.163C26.154 3.506 24.507.36 24.507.36s-.303 3.528-.162 4.229c.106.525.462.92 1.17.78ZM28.211 30.778c6.715 0 12.158-5.38 12.158-12.015 0-6.637-5.443-12.016-12.158-12.016s-12.158 5.38-12.158 12.015c0 6.637 5.443 12.016 12.158 12.016ZM26.042 44.791c-.325.018-.642.06-.952.158-.425.057-.831.202-1.253.27l-.169.028-.283.026c.018.078.03.155.03.233 0 .08-.009.157-.03.223a.544.544 0 0 1-.12.188.662.662 0 0 1-.199.157.634.634 0 0 1-.235.057.62.62 0 0 1-.244-.03.687.687 0 0 1-.226-.137c-.083.02-.168.035-.253.045a1.062 1.062 0 0 1-.238 0 2.52 2.52 0 0 1-.253-.084 1.467 1.467 0 0 1-.235-.122c-.307.179-.65.349-.837.661-.105.143-.127.307-.15.476-.016.209.039.43.129.623.033.056.06-.206.163-.242.171-.14.385-.24.602-.297.184-.093.16.006.084.149-.018.074-.12.357.018.214.612-.268 1.29-.322 1.95-.372.957-.098 1.918-.12 2.879-.131l2.71.056c.431.012.865.108 1.29.036.102-.027.262-.033.322-.092-.193-.11-.419-.113-.633-.14h-1.723c-.479-.048-.978-.054-1.43-.232-.12-.048-.232-.161-.347-.039-.171.06-.355.101-.536.113a2.092 2.092 0 0 1-.924-.158c.21-.288.463-.541.695-.81a7.307 7.307 0 0 1-.554-.112c.328-.224.633-.477.952-.715Z"/><path fill="#FFE24A" d="M40.114 47.876c-.655.389-1.154-.3-1.702-.507-.39.21-.427.912-.792 1.244-.437.492-.972-.137-.932-.622-.523.435-.787 1.422-1.632 1.29-.4-.322-.698-1-1.004-.229-.25.377-.913.914-1.257.345-.107-.503-.362-1.094-.638-.296-.19.565-.8.98-1.39.733-.323-.26.259-1.226-.152-1.157-.615.401-.972 1.398-1.83 1.319-.332-.37.203-.996-.162-1.406-.431.547-.91 1.348-1.655 1.405-.36-.288.014-1.116-.216-1.238-.765.453-1.573 1.261-2.535 1.008.375-1.417 1.942-1.915 3.26-2.025 2.267-.276 4.652.23 6.833-.578.352-.212 1.206-.512.902-1.004-.269-.388.7-.236.794-.69-.058-.574.445-.495.937-.545 2.202-.094 4.378.364 6.574.442.166 1.058-1.021 1.8-1.977 1.474-.456.073-1.14-1.038-1.007-.23-.092.424-.027.984-.42 1.267Zm-18.74-2.165c.51.461.867-.087 1.343-.287 1.6-.544 2.994-1.493 4.369-2.442.833-.682 1.555-1.565 2.674-1.786 2.183-.652 4.503-.573 6.694-1.175 1.669-2.258 4.502-3.063 6.876-4.36.533-.165.74-.598.91-1.077.906-1.414 2.14-2.666 3.6-3.522.69-.373 1.515-.588 2.297-.417-.056.92-.59 1.736-1.236 2.373.528-.012.982-.341 1.515-.323.183.945-.85 1.44-1.398 2.027.306.07 1.477.158.839.461-.814.558-1.743.941-2.494 1.59.693.123.772.268.067.516-.382.255-1.115.345-1.186.843.523.318-.241.634-.536.737-.564.13-1.157.372-.407.795-.284.423-.892.514-1.388.472.15.48.369 1.016-.261 1.228-1.412 1.054-3.069 1.822-4.844 1.997 2.217.168 4.5-.238 6.395-1.43.25-.292 1.562-.606.828-.852-.345-.142-1.085-.3-1.135-.56 1.026-.626 2.319-.403 3.422-.775.029-.353-.84-.255-1.163-.335-.772-.063-.727-.257.018-.33.941-.246 2.008-.294 2.8-.901-.645-.295-1.456-.036-2.144-.277 1.166-.504 2.543-.555 3.59-1.313.476-.524-.611-.36-.928-.348-.646.112-.945-.194-.211-.46 1.253-.913 2.84-1.506 3.72-2.83.21-.296.492-1.19-.174-.868-.874.287-1.644 1.26-2.64.959 1.963-1.505 3.832-3.217 5.174-5.299.07-.6-.884-.665-1.132-.194-1.262 1.202-2.404 2.62-4.02 3.373 1.548-1.476 2.827-3.223 3.943-5.034.239-.539.882-1.186.533-1.785-.562-.46-1.266-.038-1.558.512-.981 1.266-1.726 2.743-2.987 3.773 1.104-2.082 2.247-4.3 2.275-6.701-.003-.495-.104-1.223-.783-1.131-.54.095-.411.892-.633 1.295-.49 1.641-.719 3.419-1.722 4.856.226-1.334.62-2.724.318-4.07-.142-.603-1.125-.344-.999.252-1.174 5.881-5.168 11.025-10.39 14-2.391 1.338-5.062 2.2-7.78 2.59-.73.159-1.521.066-2.22.312-1.693 1.283-2.718 3.43-4.861 4.102-.961.472-2.214.568-2.9 1.45a.756.756 0 0 0-.07.369Z"/><path fill="#FFE24A" d="M27.789 39.744c-.316.568-.503 1.22-.91 1.728-1.223-1.1-2.997-1.064-4.549-1.137-1.28-.068-2.674-.185-3.665-1.088-1.042-.844-1.893-1.94-3.059-2.624-1.063-.286-2.135-.644-2.99-1.364-1.827-1.472-2.874-3.656-4.659-5.174-.34-.33-.742-.588-1.123-.869-.362.088-.198.86-.642.467-.24-.17-.844-.186-.899.05.546.711 1.093 1.523 1.168 2.432-.372.038-1.034-.078-1.219.06a7.565 7.565 0 0 0 1.849 1.898c-.346.055-1.026.025-1.159.163.715.575 1.481 1.164 2.417 1.312.192.25-.28.731.117.944.23.093.989.248.466.507-.359.239-.226.796.233.783.29.147.941.182.992.436-.257.258-1.057.565-.376.807.636.349 1.361.575 2.088.6-.365.303-.814.475-1.189.76 1.676.972 3.534 1.61 5.37 2.226.731.241 1.47.466 2.229.608-2.202-.126-4.33-.77-6.336-1.652a56.95 56.95 0 0 0-3.151-1.274c.467-.24 1.007-.299 1.492-.507-1.006-.199-2.104-.264-2.988-.81.135-.24.649-.25.933-.372.534-.126.865-.28.112-.326-.76-.203-1.63-.112-2.3-.565.043-.271.744-.177 1.03-.294.358-.06.758-.112 1.045-.35-1.174-.482-2.71-.141-3.63-1.166-.212-.39.659-.076.907-.14.63 0 1.307.197 1.907-.054-1.71-.742-3.543-1.437-4.848-2.81-.145-.221-.579-.824-.229-.899 1.016.133 1.75 1.228 2.837 1.058.144-.192-.63-.507-.824-.782-1.584-1.343-3.122-2.801-4.232-4.56-.076-.588.859-.676 1.105-.222 1.21 1.153 2.305 2.498 3.814 3.285.535.257-.308-.303-.42-.507-1.394-1.6-2.72-3.289-3.695-5.173-.175-.34-.464-.954.058-1.135.522-.258 1.04.094 1.304.536 1.025 1.278 1.779 2.796 3.056 3.86-1.088-2.086-2.25-4.282-2.277-6.682.025-.465.055-1.17.694-1.15.536-.08.451.598.627.922.528 1.763.759 3.672 1.818 5.229-.234-1.308-.578-2.656-.35-3.986.053-.436.55-.569.875-.304.263.634.317 1.419.557 2.097 1.36 4.601 4.416 8.648 8.398 11.363A22.286 22.286 0 0 0 26.71 39.68c.359.031.719.042 1.078.064ZM28.211 5.108c.723-.009.994-.455.994-.991 0-.715-.994-4.117-.994-4.117s-.994 3.402-.994 4.117c0 .536.271.991.994.991ZM42.027 18.762c.009.715.46.983 1.003.983.723 0 4.166-.983 4.166-.983s-3.443-.982-4.166-.982c-.542 0-1.003.268-1.003.982ZM28.211 32.417c-.723.009-.994.455-.994.991 0 .715.994 4.117.994 4.117s.994-3.402.994-4.117c0-.536-.271-.991-.994-.991ZM14.395 18.762c-.009-.714-.46-.982-1.003-.982-.723 0-4.166.982-4.166.982s3.443.983 4.166.983c.542 0 1.003-.268 1.003-.983ZM33.498 6.147c.672.266 1.095-.044 1.302-.54.277-.66.676-4.179.676-4.179s-2.236 2.768-2.512 3.428c-.208.495-.134 1.018.534 1.291ZM40.975 23.988c-.268.663.046 1.082.547 1.287.667.273 4.229.668 4.229.668s-2.8-2.21-3.469-2.483c-.5-.206-1.03-.132-1.307.528Z"/><path fill="#FFE24A" d="M22.924 31.378c-.671-.266-1.095.044-1.302.54-.277.66-.676 4.179-.676 4.179s2.236-2.768 2.512-3.428c.208-.495.134-1.018-.534-1.291ZM15.447 13.537c.268-.663-.046-1.082-.547-1.287-.667-.273-4.228-.668-4.228-.668s2.8 2.21 3.468 2.483c.5.205 1.03.132 1.307-.528ZM37.98 9.107c.518.5 1.03.373 1.412-.006.512-.505 2.243-3.606 2.243-3.606s-3.137 1.712-3.648 2.217c-.384.379-.518.89-.007 1.395ZM37.98 28.418c-.504.511-.377 1.016.007 1.395.51.505 3.648 2.217 3.648 2.217s-1.731-3.1-2.243-3.606c-.383-.379-.9-.512-1.412-.006ZM18.442 28.418c-.518-.5-1.03-.373-1.412.006-.512.505-2.243 3.606-2.243 3.606s3.137-1.712 3.648-2.217c.384-.379.518-.89.007-1.395ZM18.442 9.107c.504-.511.377-1.016-.007-1.395-.51-.505-3.648-2.217-3.648-2.217s1.731 3.1 2.243 3.606c.383.379.9.512 1.412.006ZM40.975 13.537c.285.657.806.733 1.307.528.668-.273 3.469-2.483 3.469-2.483s-3.562.395-4.23.668c-.5.205-.822.627-.546 1.287ZM33.498 31.378c-.664.281-.742.796-.534 1.291.276.66 2.512 3.428 2.512 3.428s-.4-3.52-.676-4.18c-.207-.495-.634-.813-1.302-.54ZM15.447 23.988c-.285-.657-.806-.733-1.307-.528-.668.273-3.468 2.483-3.468 2.483s3.56-.395 4.228-.668c.501-.205.823-.627.547-1.287ZM22.924 6.147c.664-.281.742-.796.534-1.291-.276-.66-2.512-3.428-2.512-3.428s.4 3.52.676 4.18c.207.495.634.813 1.302.54ZM22.747 45.844a.213.213 0 0 0 .214-.212.213.213 0 0 0-.214-.21.213.213 0 0 0-.214.21c0 .117.096.212.214.212Z"/></svg>
