<svg xmlns="http://www.w3.org/2000/svg" width="322" height="323" fill="none"><path fill="#BCB49C" fill-opacity=".2" fill-rule="evenodd" d="M111.243 143.832c-4.96-8.167-7.218-17.261-7.401-27.059 8.474-3.638 31.676 13.696 48.11 17.854 15.208 4.604 14.876 17.892-1.074 25.054-15.063 5.009-28.31-.073-39.635-15.849Zm52.365-16.295c-20.317-3.119-46.184-14.661-62.1-27.987l-2.33-14.588.297-.15c6.586-3.004 25.647-9.388 29.049-4.192 5.144 20.118 19.023 30.289 39.599 32.813 7.993 4.529 5.07 15.998-4.515 14.104Zm6.55-25.092c-6.106-.297-12.768-3.043-19.947-8.388-5.624-3.563-6.624-13.474 0-14.59 9.585-1.037 21.835 2.899 28.127 4.086 8.733 2.708 2.293 21.714-8.18 18.892Zm8.363-27.244c-6.623.37-19.688-1.187-23.719-3.23-6.628-2.337-5.737-11.172 5.401-15.254 6.366-1.672 13.397-1.894 20.797-1.262 9.547-.593 12.733 17.963-2.479 19.746Zm69.094 206.004c-24.314 17.743-54.254 28.174-86.596 28.174-32.456 0-62.468-10.507-86.82-28.323l.666-.481c26.941-18.857 120.902-20.156 172.75.63ZM197.173 88.044c7.069.447 16.617-.111 24.39-.298 10.473-.78 4.919 13.474-5.885 16.482-7.031 3.413-14.287 3.635-21.614 2.226-9.103-1.706-5.402-19.525 3.109-18.41Zm23.205-5.68c-4.923-.667-14.805-.778-20.835-3.71-7.069-2.153-3.925-20.229 5.512-19.339 7.736.073 14.028 4.158 19.65 10.095 5.885 9.576 3.849 13.474-4.327 12.955ZM113.759 224.898c1.961-10.988-2.851-10.729-1.515-24.833 4.218-8.018 24.458-10.281 36.785-10.281 21.61-.89 42.928-.482 62.095 6.089 8.402 5.529 16.913 12.73 26.388 38.082 3.33 16.257-2.592 20.194-18.653 16.853-30.827-10.58-103.322 1.337-104.358-14.738-1.298-2.302-1.595-5.937-.742-11.172ZM55.731 263.24l-.886.89c-25.574-26.613-41.303-62.766-41.303-102.631 0-81.697 66.024-147.913 147.476-147.913 50.775 0 95.591 25.76 122.086 64.992-12.47 1.447-34.676 4.974-34.638.667-2.813-21.564-23.647-26.016-42.372-32.438-3.887-1.856-2.813-10.504-1.04-13.55 4.702-9.649-7.214-11.283-6.326-1.967-.445 6.941-2.072 11.989-6.254 12.768-23.054-2.745-42.632-1.818-52.404 9.316-5.44 4.753-7.252 17.78-13.172 17.82-10.882.072-19.688 2.336-27.385 5.864l-.483.073c-.48-4.082-1.63-7.87-5.254-12.287 2.441-12.023-1.332-14.104-3.7-13.956-2.405 5.418-.038 10.874-3.11 12.734-4.442 2.67-8.66 2.933-13.582 3.894-8.254 1.672-21.835 5.976-26.016 12.734-3.589 7.35 4.588 11.58 10.511 5.826 9.067-3.899 16.91 2.303 25.35 2.077 1.7 4.047 1.59 8.538.075 13.364-.224.668-1.074 3.379-1.333 3.898-2.924 6.384-8.143 9.278-15.025 9.687l-24.72 1.038c-9.772.149-9.178 4.715 0 3.455 6.068-.409 31.972-2.859 33.86 4.082.738 2.71-2.923 4.417-7.956 4.081-13.951 0-28.09.669-42.559 2.302-5.257.222-4.774 5.942 0 5.124 16.986-3.007 41.447-4.379 48.738-1.412.89.408.852 1.856-.26 2.86-3.772 3.375-20.944 3.932-30.678 4.489-4.183.188-3.369 4.159 0 3.75 2.071-.149 30.717-2.042 30.717.37 3.145 35.746 26.015 45.47 27.976 53.786 2.481 11.321-1.592 19.449 1.48 26.463 2.334 6.09 3.073 11.695 1.961 16.743-6.734 9.056-35.266 10.725-49.773 21.007ZM161.017 323C72.088 323 0 250.693 0 161.502 0 72.307 72.088 0 161.017 0 249.908 0 322 72.307 322 161.502 322 250.693 249.908 323 161.017 323Zm84.895-135.999c21.39 3.859 38.341 12.916 54.402 23.087a148.27 148.27 0 0 1-32.269 53.113c-11.843-.778-17.024-17.777-18.323-27.39-1.294-9.465-4.624-21.492-10.693-37.341-3.292-8.427-1.48-12.62 6.883-11.469Zm62.543-25.501c0 13.325-1.777 26.204-5.032 38.491-31.608-15.922-55.251-20.229-76.828-21.566-9.806-4.455-60.728-5.715-46.259-36.413 2.109-5.268 34.489-1.149 49.922-5.009 19.428-3.711 31.976-11.061 23.944-19.377-6.773-4.601-18.653 11.1-26.903 12.508-5.515 1.634-26.35 6.644-41.634.371-4.108-2.894-1.074-13.211 4.923-13.398 34.747.482 37.819-2.264 60.652-26.17 4.37-3.97 23.206-2.412 38.044-2.412 12.212 21.53 19.171 46.435 19.171 72.975Z" clip-rule="evenodd"/></svg>
